<?xml version="1.0" encoding="UTF-8" standalone="no"?>
<svg xmlns="http://www.w3.org/2000/svg" version="1.1" width="2048" height="2048" viewBox="0 0 2048 2048">
<path fill="#000000" fill-rule="evenodd" d="M981.01 1953.98 L981 1051.02 L1884 1051 L1883.99 1954 L981.01 1953.98 Z"/>
<path fill="#404249" fill-rule="evenodd" d="M538.17 1012.47 C536.18 1012.48 542.14 1012.16 544.13 1011.99 C544.93 1011.92 542.53 1012 541.73 1012 C540.53 1012 539.33 1012 538.13 1012 C534.26 1012 530.4 1012 526.53 1012 C515.17 1012 503.71 1010.57 492.38 1009.98 C481.79 1009.42 471.03 1006.86 460.59 1005.11 C447.99 1002.99 435.04 1001.31 422.72 997.73 C413.02 994.91 403.31 990.73 393.35 988.88 C387.54 987.8 382.05 984.56 376.62 982.37 C371.32 980.23 365.8 978.56 360.46 976.65 C353.5 974.18 346.38 969.76 339.73 966.36 C329.73 961.25 319.3 956.5 309.6 950.75 C308.1 949.86 307.08 948.37 305.64 947.4 C301.35 944.52 296.47 942.41 292.22 939.51 C283.81 933.77 275.91 927.58 267.83 921.53 C210.52 878.61 161.96 817.69 133.47 751.83 C129.03 741.57 123.72 729.07 120.31 718.44 C118.55 712.96 117.53 707.04 115.68 701.53 C112.44 691.85 108.94 681.75 107.12 671.65 C106.21 666.59 105.83 661.38 104.87 656.31 C96.98 614.44 93.8 570.96 99.92 528.47 C101.21 519.48 102.81 510.36 103.92 501.36 C104.22 499 103.66 496.51 104.16 494.18 C110.16 466.34 118.74 439.19 128.35 412.44 C130.82 405.58 135.03 398.99 138.24 392.46 C143.27 382.24 147.39 371.5 153.25 361.6 C158.4 352.91 163.7 343.88 169.34 335.44 C170.53 333.66 172.38 332.44 173.58 330.67 C175.08 328.47 175.85 325.82 177.28 323.58 C179.46 320.15 183 317.13 185.47 313.82 C195.19 300.83 205.36 288.78 216.52 276.95 C283.65 205.83 367.8 164.23 463.3 146.13 C468.97 145.06 474.68 145.63 480.37 144.92 C495.97 142.97 510.6 142.55 526.4 141.99 C528.17 141.92 529.72 141.03 531.48 141.03 C533.5 141.02 535.31 141.98 537.36 142 C544.13 142.06 551 141.61 557.76 142.03 C563.21 142.37 568.86 143.66 574.31 143.97 C578.29 144.2 582.35 143.62 586.31 144.07 C603.56 146.03 620.86 150.39 637.73 154.74 C639.55 155.21 641.46 154.79 643.28 155.27 C655.01 158.33 670.5 162.96 681.7 167.41 C719.28 182.35 754.54 200.73 787.21 224.49 C788.93 225.75 791.12 226.27 792.83 227.54 C796.62 230.35 799.95 234.02 803.61 237.03 C810.58 242.77 817.8 248.21 824.6 254.15 C877.18 300.06 921 369.1 943.75 434.69 C946.12 441.53 947.03 448.65 949.32 455.47 C964.7 501.26 968.1 550.49 966.01 598.49 C964.6 631.04 959.39 662.19 950.3 693.57 C949.46 696.48 949.61 699.63 948.66 702.58 C936.88 738.84 921.23 774.12 901.5 806.7 C892.14 822.16 880.52 836.71 869.01 850.56 C866.97 853.02 865.79 856.01 863.55 858.4 C853.29 869.33 842.96 880.06 832.09 890.44 C830.33 892.12 829.36 894.36 827.5 895.95 C825.28 897.83 822.61 899.22 820.41 901.14 C818.77 902.57 817.98 904.66 816.35 906.04 C786.28 931.61 751.96 954.1 716.12 970.94 C693.65 981.49 669.28 989.78 645.39 996.71 C642.16 997.65 638.72 997.4 635.57 998.3 C623.84 1001.64 611.13 1005.15 598.99 1006.05 C585.45 1007.06 572.11 1011 558.41 1011 C553.76 1011 549.45 1011.61 544.93 1011.96 C542.67 1012.13 535.96 1012.94 538.17 1012.47 Z"/>
<path fill="#ffffff" fill-rule="evenodd" d="M547.27 1009.19 C546.45 1009.2 545.87 1008.34 545.13 1007.99 C542.7 1006.85 531.61 1008 528.33 1008 C515.97 1008 502.81 1007.56 490.58 1005.92 C450.81 1000.57 411.77 992.32 374.25 977.28 C366.2 974.06 357.9 971.57 350.38 967.23 C343.33 963.18 335.64 960.39 328.4 956.71 C318.06 951.45 308.36 944.48 298.53 938.32 C296.26 936.9 293.73 936.18 291.46 934.67 C289.67 933.49 288.43 931.66 286.69 930.43 C233.59 892.94 193.46 850.87 160.74 794.58 C151.85 779.28 142.55 764.19 136.66 747.46 C133.76 739.24 129.04 731.54 126.24 723.26 C102.26 652.26 93.2 575.65 107.86 501.74 C108.93 496.33 109 490.68 110.15 485.21 C114.68 463.74 121.82 442.94 129.68 422.52 C130.82 419.55 131.26 416.28 132.4 413.34 C135.32 405.77 139.31 398.63 142.84 391.32 C177.45 319.61 230.64 256.5 298.09 213.63 C311.92 204.84 326.82 196.42 341.58 189.2 C343.78 188.13 346.14 187.9 348.33 186.84 C367.01 177.8 386.54 168.84 406.69 163.27 C427.6 157.49 449.07 152.82 470.38 149.11 C473.89 148.5 477.63 149.25 481.17 148.94 C489.15 148.24 497.19 146.56 505.21 146.04 C512.24 145.58 519.36 146.24 526.4 145.99 C528.17 145.92 529.72 145.03 531.48 145.03 C533.5 145.02 535.31 145.98 537.36 146 C549.89 146.11 561.99 147.01 574.34 147.8 C575.82 147.89 577.1 146.91 578.64 147.13 C598.35 149.98 618.27 152.99 637.51 158.69 C641.64 159.91 646.19 159.98 650.38 161.3 C707.67 179.33 762.27 206.15 808.48 245.04 C811.75 247.79 814.41 251.19 817.53 253.95 C819.04 255.28 821.06 255.82 822.59 257.14 C829.4 263.05 836.03 270.83 842.11 277.53 C844.39 280.05 847.55 281.76 849.86 284.41 C860.36 296.47 869.95 309.07 879.57 321.87 C883.21 326.72 887.52 331.29 890.69 336.48 C896.09 345.34 900.93 354.54 906.27 363.44 C918.81 384.31 929.24 406.65 937.71 429.56 C941.24 439.12 943.18 449 946.36 458.61 C948.79 465.97 951.28 473.65 952.85 481.23 C963.39 531.94 967.18 586.09 958.12 637.37 C957.58 640.38 958.39 643.54 957.9 646.56 C955.95 658.65 952.8 670.8 949.3 682.58 C947.67 688.04 947.28 693.93 945.72 699.32 C942.96 708.84 938.71 718.09 935.36 727.42 C907.11 806.09 853.48 874.42 786.85 924.45 C765.5 940.48 741.44 953.67 717.64 965.68 C693.75 977.74 667.14 986.76 641.32 993.72 C629.05 997.03 615.76 997.91 603.55 1001.66 C595.53 1004.13 583.09 1004.66 574.48 1005.91 C571.33 1006.37 568.02 1005.51 564.9 1006.22 C560.44 1007.25 555.99 1006.96 551.41 1007 C547.68 1007.03 543.93 1009.9 547.27 1009.19 Z"/>
<path fill="#000000" fill-rule="evenodd" d="M1510.21 863.26 L1500.53 858.45 L1429.54 751.42 L1331.87 698.8 L1325.42 691.61 L1327.01 685.08 L1381.7 623.9 L1416.73 562.92 L1355.46 598.05 L1294.56 652.73 L1289.49 654.31 L1281.83 649.6 L1228.26 550.12 L1121.82 479.61 L1116.12 470.71 L1120.97 461.24 L1228.24 390.18 L1281.05 292.14 L1287.58 286.42 L1294.91 288.01 L1356.1 342.67 L1416.52 377.2 L1386.58 324.43 L1358.59 288.7 L1327.16 257.41 L1325.75 248.88 L1329.82 242.61 L1429.49 188.91 L1500.36 81.91 L1509.34 77 L1518.53 81.79 L1589.5 188.91 L1688.83 242.43 L1693.25 248.97 L1691.85 257.33 L1659.45 289.7 L1632.04 325 L1602.53 377.18 L1657.87 345.54 L1696.55 314.26 L1721.64 287.94 L1731.56 286.63 L1737.89 292.04 L1790.78 390.21 L1898.01 461.23 L1902.73 469.99 L1897.41 479.44 L1790.96 549.97 L1734.51 654.01 L1724.43 652.78 L1663.55 598.07 L1602.08 562.83 L1638.66 625.84 L1691.9 684.72 L1693.6 691.55 L1687.17 698.78 L1589.43 751.44 L1518.7 858.11 L1510.21 863.26 Z"/>
<path fill="#ffffff" fill-rule="evenodd" d="M1432.49 1878.36 L1362.55 1772.9 L1265.85 1720.77 L1295.44 1690.33 L1323.81 1653.04 L1347.37 1611.19 L1362.75 1572.68 L1330.1 1585 L1285.23 1609.28 L1248.73 1636.31 L1214.35 1669.31 L1162.31 1572.67 L1056.83 1502.71 L1162.37 1432.72 L1214.19 1336.26 L1250.69 1370.72 L1288.47 1398.15 L1329.15 1419.9 L1362.42 1432.88 L1350.69 1401.53 L1322.15 1348.52 L1266.92 1284.04 L1362.51 1232.51 L1432.47 1127.1 L1502.37 1232.51 L1598.97 1284.6 L1565.87 1319.2 L1539.08 1355.73 L1518.47 1392.4 L1501.94 1433.09 L1538.22 1418.82 L1578.91 1396.52 L1614.42 1370.55 L1650.64 1336.32 L1702.65 1432.81 L1808.09 1502.68 L1702.66 1572.61 L1651.17 1668.16 L1588.44 1614.37 L1536.52 1585.72 L1502.11 1572.49 L1516.44 1608.69 L1539.23 1650.2 L1568.01 1688.72 L1599.06 1720.82 L1502.29 1772.99 L1432.49 1878.36 Z"/>
<path fill="#000000" fill-rule="evenodd" d="M532.3 931.31 L464.5 829.57 L371.79 779.51 L421.14 724.36 L449.54 675.23 L460.06 648.11 L428.52 661.35 L384.35 687.32 L329.12 736.93 L278.81 644.16 L176.75 576.68 L278.2 509.45 L328.82 415.89 L379.9 462.33 L421.16 487.77 L462.07 506.26 L435.3 451.31 L406.54 410.85 L370.35 373.75 L463.81 323.44 L531.54 221.18 L599.5 323.34 L691.9 372.83 L638.48 433.46 L600.87 505.76 L632.17 492.58 L673.3 469.65 L735.16 416.17 L784.92 508.38 L887 575.81 L785.1 643.68 L735.41 736.32 L678.22 686.22 L643.11 665.07 L601.48 646.34 L630.27 704.23 L658.33 742.98 L693.35 778.77 L599.71 829.4 L532.3 931.31 Z"/>
<path fill="#ffffff" fill-rule="evenodd" d="M1509.48 828.55 L1446.13 733.09 L1359.25 686.19 L1393.82 646.83 L1423.04 602.44 L1447.64 548.23 L1444.85 535.23 C1434.9 528.49 1421 536.13 1411.39 540.81 C1403.13 544.83 1394.57 548.12 1386.35 552.32 C1372.46 559.42 1359.5 568.09 1346.54 576.68 C1341.97 579.7 1336.96 582.75 1332.97 586.51 C1324.48 594.52 1314.61 600.89 1306.27 609.23 C1303.51 611.99 1300.37 614.13 1297.61 616.89 C1296.76 617.74 1295.95 618.64 1294.98 619.34 C1294.46 619.73 1292.75 620.65 1293.33 620.36 L1246.55 533.5 L1151.17 470.15 L1246.55 406.7 L1293.33 319.94 L1335.09 356.24 L1379.66 384.94 L1432.74 408.71 L1445.37 404.94 L1447.49 391.67 L1424.38 340.71 L1399.06 300.41 L1359.5 253.89 L1446.16 207.16 L1509.49 111.69 L1572.78 207.12 L1659.5 253.9 L1620.02 300.3 L1594.66 340.63 L1571.5 391.71 L1573.56 404.8 L1586.1 408.76 L1640.02 384.66 L1686.44 354.29 L1725.64 319.84 L1772.31 406.59 L1867.84 470.18 L1772.44 533.46 L1725.52 620.47 C1718.82 616.47 1712.91 609.23 1707.21 603.72 C1702.97 599.63 1698.04 595.96 1693.55 592.1 C1675.5 576.59 1653.74 562.85 1632.46 552.22 C1620.06 546.02 1607.02 539.21 1593.77 535.09 C1590.13 533.95 1585.34 531.14 1581.49 532.32 C1579.97 532.79 1578.42 533.29 1577.01 534.03 C1576.82 534.13 1570.53 537.56 1574.19 535.2 L1571.35 548.43 L1595.82 602.24 L1625.15 646.78 L1659.74 686.19 L1572.89 733.08 L1509.48 828.55 Z"/>
<path fill="#000000" fill-rule="evenodd" d="M1517.47 504.1 C1505.21 504.39 1492.9 503.6 1484.16 493.61 C1466.68 473.65 1476.78 441.54 1503.24 436.15 C1524.38 431.84 1546.94 451.66 1543.92 473.44 C1542.59 482.98 1537.93 492.01 1530.01 497.64 C1527.17 499.65 1524.53 501.17 1521.28 502.39 C1520.28 502.77 1516.31 504.45 1517.47 504.1 Z"/>
<path fill="#000000" fill-rule="evenodd" d="M1434.89 1470.5 C1435.9 1470.9 1436.84 1472.9 1438.52 1473.38 C1440.79 1474.04 1443.22 1474.02 1445.52 1474.87 C1454.26 1478.1 1460.26 1488.06 1462.7 1496.59 C1467.41 1512.98 1451.92 1531.41 1435.81 1533.06 C1434.34 1533.21 1433.04 1534.06 1431.52 1533.9 C1415.86 1532.26 1403.37 1519.84 1402.31 1504.35 C1402.12 1501.52 1401.32 1497.96 1402.44 1495.23 C1406.95 1484.31 1412.32 1479.8 1421.91 1473.75 C1424.16 1472.34 1428.61 1472 1431.23 1472 C1431.57 1472 1438.96 1470.56 1434.89 1470.5 Z"/>
<path fill="#ffffff" fill-rule="evenodd" d="M523.11 600.22 L508.07 585.75 L508.56 565.69 C508.78 565.26 509.49 566.06 509.98 566.06 C510.17 566.06 511.28 563.53 511.49 563.24 C513.45 560.49 515.41 558.44 518.17 556.52 C528.36 549.44 545.06 551.26 551.76 562.61 C556.27 570.25 558.39 579.95 552.82 587.75 C550.78 590.6 549.21 593.65 546.5 595.95 C545.58 596.72 544.52 597.3 543.53 597.97 C543.08 598.27 542.8 599.65 543.15 599.42 L523.11 600.22 Z"/>
</svg>
