  0
SECTION
  2
HEADER
  9
$ACADVER
  1
AC1015
  9
$ACADMAINTVER
 70
6
  9
$DWGCODEPAGE
  3
ANSI_1252
  9
$INSBASE
 10
0.0
 20
0.0
 30
0.0
  9
$EXTMIN
 10
1e+20
 20
1e+20
 30
1e+20
  9
$EXTMAX
 10
-1e+20
 20
-1e+20
 30
-1e+20
  9
$LIMMIN
 10
0.0
 20
0.0
  9
$LIMMAX
 10
420.0
 20
297.0
  9
$ORTHOMODE
 70
0
  9
$REGENMODE
 70
1
  9
$FILLMODE
 70
1
  9
$QTEXTMODE
 70
0
  9
$MIRRTEXT
 70
1
  9
$LTSCALE
 40
1.0
  9
$ATTMODE
 70
1
  9
$TEXTSIZE
 40
2.5
  9
$TRACEWID
 40
1.0
  9
$TEXTSTYLE
  7
Standard
  9
$CLAYER
  8
0
  9
$CELTYPE
  6
ByLayer
  9
$CECOLOR
 62
256
  9
$CELTSCALE
 40
1.0
  9
$DISPSILH
 70
0
  9
$DIMSCALE
 40
1.0
  9
$DIMASZ
 40
2.5
  9
$DIMEXO
 40
0.625
  9
$DIMDLI
 40
3.75
  9
$DIMRND
 40
0.0
  9
$DIMDLE
 40
0.0
  9
$DIMEXE
 40
1.25
  9
$DIMTP
 40
0.0
  9
$DIMTM
 40
0.0
  9
$DIMTXT
 40
2.5
  9
$DIMCEN
 40
2.5
  9
$DIMTSZ
 40
0.0
  9
$DIMTOL
 70
0
  9
$DIMLIM
 70
0
  9
$DIMTIH
 70
0
  9
$DIMTOH
 70
0
  9
$DIMSE1
 70
0
  9
$DIMSE2
 70
0
  9
$DIMTAD
 70
1
  9
$DIMZIN
 70
8
  9
$DIMBLK
  1

  9
$DIMASO
 70
1
  9
$DIMSHO
 70
1
  9
$DIMPOST
  1

  9
$DIMAPOST
  1

  9
$DIMALT
 70
0
  9
$DIMALTD
 70
3
  9
$DIMALTF
 40
0.03937007874
  9
$DIMLFAC
 40
1.0
  9
$DIMTOFL
 70
1
  9
$DIMTVP
 40
0.0
  9
$DIMTIX
 70
0
  9
$DIMSOXD
 70
0
  9
$DIMSAH
 70
0
  9
$DIMBLK1
  1

  9
$DIMBLK2
  1

  9
$DIMSTYLE
  2
ISO-25
  9
$DIMCLRD
 70
0
  9
$DIMCLRE
 70
0
  9
$DIMCLRT
 70
0
  9
$DIMTFAC
 40
1.0
  9
$DIMGAP
 40
0.625
  9
$DIMJUST
 70
0
  9
$DIMSD1
 70
0
  9
$DIMSD2
 70
0
  9
$DIMTOLJ
 70
0
  9
$DIMTZIN
 70
8
  9
$DIMALTZ
 70
0
  9
$DIMALTTZ
 70
0
  9
$DIMUPT
 70
0
  9
$DIMDEC
 70
2
  9
$DIMTDEC
 70
2
  9
$DIMALTU
 70
2
  9
$DIMALTTD
 70
3
  9
$DIMTXSTY
  7
Standard
  9
$DIMAUNIT
 70
0
  9
$DIMADEC
 70
0
  9
$DIMALTRND
 40
0.0
  9
$DIMAZIN
 70
0
  9
$DIMDSEP
 70
44
  9
$DIMATFIT
 70
3
  9
$DIMFRAC
 70
0
  9
$DIMLDRBLK
  1

  9
$DIMLUNIT
 70
2
  9
$DIMLWD
 70
-2
  9
$DIMLWE
 70
-2
  9
$DIMTMOVE
 70
0
  9
$LUNITS
 70
2
  9
$LUPREC
 70
4
  9
$SKETCHINC
 40
1.0
  9
$FILLETRAD
 40
10.0
  9
$AUNITS
 70
0
  9
$AUPREC
 70
2
  9
$MENU
  1
.
  9
$ELEVATION
 40
0.0
  9
$PELEVATION
 40
0.0
  9
$THICKNESS
 40
0.0
  9
$LIMCHECK
 70
0
  9
$CHAMFERA
 40
0.0
  9
$CHAMFERB
 40
0.0
  9
$CHAMFERC
 40
0.0
  9
$CHAMFERD
 40
0.0
  9
$SKPOLY
 70
0
  9
$TDCREATE
 40
2461307.9677199074
  9
$TDUCREATE
 40
2458532.153996898
  9
$TDUPDATE
 40
2461307.9677199074
  9
$TDUUPDATE
 40
2458532.1544311
  9
$TDINDWG
 40
0.0
  9
$TDUSRTIMER
 40
0.0
  9
$USRTIMER
 70
1
  9
$ANGBASE
 50
0.0
  9
$ANGDIR
 70
0
  9
$PDMODE
 70
0
  9
$PDSIZE
 40
0.0
  9
$PLINEWID
 40
0.0
  9
$SPLFRAME
 70
0
  9
$SPLINETYPE
 70
6
  9
$SPLINESEGS
 70
8
  9
$HANDSEED
  5
4A
  9
$SURFTAB1
 70
6
  9
$SURFTAB2
 70
6
  9
$SURFTYPE
 70
6
  9
$SURFU
 70
6
  9
$SURFV
 70
6
  9
$UCSBASE
  2

  9
$UCSNAME
  2

  9
$UCSORG
 10
0.0
 20
0.0
 30
0.0
  9
$UCSXDIR
 10
1.0
 20
0.0
 30
0.0
  9
$UCSYDIR
 10
0.0
 20
1.0
 30
0.0
  9
$UCSORTHOREF
  2

  9
$UCSORTHOVIEW
 70
0
  9
$UCSORGTOP
 10
0.0
 20
0.0
 30
0.0
  9
$UCSORGBOTTOM
 10
0.0
 20
0.0
 30
0.0
  9
$UCSORGLEFT
 10
0.0
 20
0.0
 30
0.0
  9
$UCSORGRIGHT
 10
0.0
 20
0.0
 30
0.0
  9
$UCSORGFRONT
 10
0.0
 20
0.0
 30
0.0
  9
$UCSORGBACK
 10
0.0
 20
0.0
 30
0.0
  9
$PUCSBASE
  2

  9
$PUCSNAME
  2

  9
$PUCSORG
 10
0.0
 20
0.0
 30
0.0
  9
$PUCSXDIR
 10
1.0
 20
0.0
 30
0.0
  9
$PUCSYDIR
 10
0.0
 20
1.0
 30
0.0
  9
$PUCSORTHOREF
  2

  9
$PUCSORTHOVIEW
 70
0
  9
$PUCSORGTOP
 10
0.0
 20
0.0
 30
0.0
  9
$PUCSORGBOTTOM
 10
0.0
 20
0.0
 30
0.0
  9
$PUCSORGLEFT
 10
0.0
 20
0.0
 30
0.0
  9
$PUCSORGRIGHT
 10
0.0
 20
0.0
 30
0.0
  9
$PUCSORGFRONT
 10
0.0
 20
0.0
 30
0.0
  9
$PUCSORGBACK
 10
0.0
 20
0.0
 30
0.0
  9
$USERI1
 70
0
  9
$USERI2
 70
0
  9
$USERI3
 70
0
  9
$USERI4
 70
0
  9
$USERI5
 70
0
  9
$USERR1
 40
0.0
  9
$USERR2
 40
0.0
  9
$USERR3
 40
0.0
  9
$USERR4
 40
0.0
  9
$USERR5
 40
0.0
  9
$WORLDVIEW
 70
1
  9
$SHADEDGE
 70
3
  9
$SHADEDIF
 70
70
  9
$TILEMODE
 70
1
  9
$MAXACTVP
 70
64
  9
$PINSBASE
 10
0.0
 20
0.0
 30
0.0
  9
$PLIMCHECK
 70
0
  9
$PEXTMIN
 10
1e+20
 20
1e+20
 30
1e+20
  9
$PEXTMAX
 10
-1e+20
 20
-1e+20
 30
-1e+20
  9
$PLIMMIN
 10
0.0
 20
0.0
  9
$PLIMMAX
 10
420.0
 20
297.0
  9
$UNITMODE
 70
0
  9
$VISRETAIN
 70
1
  9
$PLINEGEN
 70
0
  9
$PSLTSCALE
 70
1
  9
$TREEDEPTH
 70
3020
  9
$CMLSTYLE
  2
Standard
  9
$CMLJUST
 70
0
  9
$CMLSCALE
 40
20.0
  9
$PROXYGRAPHICS
 70
1
  9
$MEASUREMENT
 70
1
  9
$CELWEIGHT
370
-1
  9
$ENDCAPS
280
0
  9
$JOINSTYLE
280
0
  9
$LWDISPLAY
290
0
  9
$INSUNITS
 70
4
  9
$HYPERLINKBASE
  1

  9
$STYLESHEET
  1

  9
$XEDIT
290
1
  9
$CEPSNTYPE
380
0
  9
$PSTYLEMODE
290
1
  9
$FINGERPRINTGUID
  2
{FB09CA96-5A3A-4388-B104-801E811D7ECC}
  9
$VERSIONGUID
  2
{7AAFBC6E-CF1C-46F5-AC68-9F2639A2C49D}
  9
$EXTNAMES
290
1
  9
$PSVPSCALE
 40
0.0
  9
$OLESTARTUP
290
0
  0
ENDSEC
  0
SECTION
  2
CLASSES
  0
CLASS
  1
ACDBDICTIONARYWDFLT
  2
AcDbDictionaryWithDefault
  3
ObjectDBX Classes
 90
0
280
0
281
0
  0
CLASS
  1
SUN
  2
AcDbSun
  3
SCENEOE
 90
1153
280
0
281
0
  0
CLASS
  1
VISUALSTYLE
  2
AcDbVisualStyle
  3
ObjectDBX Classes
 90
4095
280
0
281
0
  0
CLASS
  1
MATERIAL
  2
AcDbMaterial
  3
ObjectDBX Classes
 90
1153
280
0
281
0
  0
CLASS
  1
SCALE
  2
AcDbScale
  3
ObjectDBX Classes
 90
1153
280
0
281
0
  0
CLASS
  1
TABLESTYLE
  2
AcDbTableStyle
  3
ObjectDBX Classes
 90
4095
280
0
281
0
  0
CLASS
  1
MLEADERSTYLE
  2
AcDbMLeaderStyle
  3
ACDB_MLEADERSTYLE_CLASS
 90
4095
280
0
281
0
  0
CLASS
  1
DICTIONARYVAR
  2
AcDbDictionaryVar
  3
ObjectDBX Classes
 90
0
280
0
281
0
  0
CLASS
  1
CELLSTYLEMAP
  2
AcDbCellStyleMap
  3
ObjectDBX Classes
 90
1152
280
0
281
0
  0
CLASS
  1
MENTALRAYRENDERSETTINGS
  2
AcDbMentalRayRenderSettings
  3
SCENEOE
 90
1024
280
0
281
0
  0
CLASS
  1
ACDBDETAILVIEWSTYLE
  2
AcDbDetailViewStyle
  3
ObjectDBX Classes
 90
1025
280
0
281
0
  0
CLASS
  1
ACDBSECTIONVIEWSTYLE
  2
AcDbSectionViewStyle
  3
ObjectDBX Classes
 90
1025
280
0
281
0
  0
CLASS
  1
RASTERVARIABLES
  2
AcDbRasterVariables
  3
ISM
 90
0
280
0
281
0
  0
CLASS
  1
ACDBPLACEHOLDER
  2
AcDbPlaceHolder
  3
ObjectDBX Classes
 90
0
280
0
281
0
  0
CLASS
  1
LAYOUT
  2
AcDbLayout
  3
ObjectDBX Classes
 90
0
280
0
281
0
  0
ENDSEC
  0
SECTION
  2
TABLES
  0
TABLE
  2
VPORT
  5
8
330
0
100
AcDbSymbolTable
 70
1
  0
VPORT
  5
23
330
8
100
AcDbSymbolTableRecord
100
AcDbViewportTableRecord
  2
*Active
 70
0
 10
0.0
 20
0.0
 11
1.0
 21
1.0
 12
0.0
 22
0.0
 13
0.0
 23
0.0
 14
0.5
 24
0.5
 15
0.5
 25
0.5
 16
0.0
 26
0.0
 36
1.0
 17
0.0
 27
0.0
 37
0.0
 40
1000.0
 41
1.34
 42
50.0
 43
0.0
 44
0.0
 50
0.0
 51
0.0
 71
0
 72
1000
 73
1
 74
3
 75
0
 76
0
 77
0
 78
0
281
0
 65
0
146
0.0
  0
ENDTAB
  0
TABLE
  2
LTYPE
  5
2
330
0
100
AcDbSymbolTable
 70
3
  0
LTYPE
  5
24
330
2
100
AcDbSymbolTableRecord
100
AcDbLinetypeTableRecord
  2
ByBlock
 70
0
  3

 72
65
 73
0
 40
0.0
  0
LTYPE
  5
25
330
2
100
AcDbSymbolTableRecord
100
AcDbLinetypeTableRecord
  2
ByLayer
 70
0
  3

 72
65
 73
0
 40
0.0
  0
LTYPE
  5
26
330
2
100
AcDbSymbolTableRecord
100
AcDbLinetypeTableRecord
  2
Continuous
 70
0
  3

 72
65
 73
0
 40
0.0
  0
ENDTAB
  0
TABLE
  2
LAYER
  5
1
330
0
100
AcDbSymbolTable
 70
5
  0
LAYER
  5
27
330
1
100
AcDbSymbolTableRecord
100
AcDbLayerTableRecord
  2
0
 70
0
 62
7
  6
Continuous
370
-3
390
13
  0
LAYER
  5
28
330
1
100
AcDbSymbolTableRecord
100
AcDbLayerTableRecord
  2
Defpoints
 70
0
 62
7
  6
Continuous
290
0
370
-3
390
13
  0
LAYER
  5
2F
330
1
100
AcDbSymbolTableRecord
100
AcDbLayerTableRecord
  2
OUTLINE
 70
0
 62
7
  6
Continuous
370
-3
390
13
  0
LAYER
  5
30
330
1
100
AcDbSymbolTableRecord
100
AcDbLayerTableRecord
  2
INNER_LINES
 70
0
 62
1
  6
Continuous
370
-3
390
13
  0
LAYER
  5
31
330
1
100
AcDbSymbolTableRecord
100
AcDbLayerTableRecord
  2
HANDLE_REFERENCE
 70
0
 62
5
  6
Continuous
370
-3
390
13
  0
ENDTAB
  0
TABLE
  2
STYLE
  5
5
330
0
100
AcDbSymbolTable
 70
1
  0
STYLE
  5
29
330
5
100
AcDbSymbolTableRecord
100
AcDbTextStyleTableRecord
  2
Standard
 70
0
 40
0.0
 41
1.0
 50
0.0
 71
0
 42
2.5
  3
txt
  4

  0
ENDTAB
  0
TABLE
  2
VIEW
  5
7
330
0
100
AcDbSymbolTable
 70
0
  0
ENDTAB
  0
TABLE
  2
UCS
  5
6
330
0
100
AcDbSymbolTable
 70
0
  0
ENDTAB
  0
TABLE
  2
APPID
  5
3
330
0
100
AcDbSymbolTable
 70
3
  0
APPID
  5
2A
330
3
100
AcDbSymbolTableRecord
100
AcDbRegAppTableRecord
  2
ACAD
 70
0
  0
APPID
  5
47
330
3
100
AcDbSymbolTableRecord
100
AcDbRegAppTableRecord
  2
HATCHBACKGROUNDCOLOR
 70
0
  0
APPID
  5
48
330
3
100
AcDbSymbolTableRecord
100
AcDbRegAppTableRecord
  2
EZDXF
 70
0
  0
ENDTAB
  0
TABLE
  2
DIMSTYLE
  5
4
330
0
100
AcDbSymbolTable
 70
1
100
AcDbDimStyleTable
  0
DIMSTYLE
105
2B
330
4
100
AcDbSymbolTableRecord
100
AcDbDimStyleTableRecord
  2
Standard
 70
0
  3

  4

 40
1.0
 41
2.5
 42
0.625
 43
3.75
 44
1.25
 45
0.0
 46
0.0
 47
0.0
 48
0.0
140
2.5
141
2.5
142
0.0
143
0.03937007874
144
1.0
145
0.0
146
1.0
147
0.625
148
0.0
 71
0
 72
0
 73
0
 74
0
 75
0
 76
0
 77
1
 78
8
 79
3
170
0
171
3
172
1
173
0
174
0
175
0
176
0
177
0
178
0
179
2
271
2
272
2
273
2
274
3
275
0
276
0
277
2
278
44
279
0
280
0
281
0
282
0
283
0
284
8
285
0
286
0
288
0
289
3
371
-2
372
-2
  0
ENDTAB
  0
TABLE
  2
BLOCK_RECORD
  5
9
330
0
100
AcDbSymbolTable
 70
2
  0
BLOCK_RECORD
  5
17
330
9
100
AcDbSymbolTableRecord
100
AcDbBlockTableRecord
  2
*Model_Space
340
1A
  0
BLOCK_RECORD
  5
1B
330
9
100
AcDbSymbolTableRecord
100
AcDbBlockTableRecord
  2
*Paper_Space
340
1E
  0
ENDTAB
  0
ENDSEC
  0
SECTION
  2
BLOCKS
  0
BLOCK
  5
18
330
17
100
AcDbEntity
  8
0
100
AcDbBlockBegin
  2
*Model_Space
 70
0
 10
0.0
 20
0.0
 30
0.0
  3
*Model_Space
  1

  0
ENDBLK
  5
19
330
17
100
AcDbEntity
  8
0
100
AcDbBlockEnd
  0
BLOCK
  5
1C
330
1B
100
AcDbEntity
  8
0
100
AcDbBlockBegin
  2
*Paper_Space
 70
0
 10
0.0
 20
0.0
 30
0.0
  3
*Paper_Space
  1

  0
ENDBLK
  5
1D
330
1B
100
AcDbEntity
  8
0
100
AcDbBlockEnd
  0
ENDSEC
  0
SECTION
  2
ENTITIES
  0
LWPOLYLINE
  5
32
330
17
100
AcDbEntity
  8
OUTLINE
100
AcDbPolyline
 90
510
 70
1
 10
-129.0555
 20
202.3712
 10
-121.1556605010049
 20
202.3450755782673
 10
-119.5094990067854
 20
202.3847733141995
 10
-117.8757931101766
 20
202.4707405724736
 10
-116.7938741395117
 20
202.5534427199164
 10
-115.7179387659428
 20
202.6562371271165
 10
-114.6481660998442
 20
202.7789350051159
 10
-113.5847352515903
 20
202.9213475649567
 10
-112.5278253315554
 20
203.083286017681
 10
-111.4776154501137
 20
203.2645615743311
 10
-110.4342847176396
 20
203.4649854459488
 10
-108.8825788271864
 20
203.8011113680946
 10
-106.8393863581288
 20
204.3145363364025
 10
-105.8292282868907
 20
204.5987913620212
 10
-104.3287926320747
 20
205.0590711083362
 10
-102.3567814655953
 20
205.7350610827827
 10
-101.3834230406728
 20
206.0993242860051
 10
-99.9396980991135
 20
206.6780233918932
 10
-98.04612220537147
 20
207.5089324196838
 10
-97.11319041184424
 20
207.9493808241124
 10
-95.73161666116091
 20
208.6407648249776
 10
-93.92373001031547
 20
209.6189469533177
 10
-93.0348518332631
 20
210.1317575825551
 10
-91.72086975107521
 20
210.9300920138015
 10
-90.00592631328567
 20
212.0479012898961
 10
-89.16472873778774
 20
212.6292511675452
 10
-87.9237788017147
 20
213.5288015645766
 10
-87.11063766507777
 20
214.1465768990727
 10
-85.9126119671757
 20
215.0998805331346
 10
-85.12864670923905
 20
215.7529013934909
 10
-83.97522440926701
 20
216.7581883681031
 10
-83.22155446987011
 20
217.4452748233327
 10
-82.1144147275872
 20
218.5007752420149
 10
-81.3921595465694
 20
219.2207473611311
 10
-80.33298152173468
 20
220.3246913274029
 10
-79.30338652405325
 20
221.456851871918
 10
-78.63372339130794
 20
222.2269867968001
 10
-77.33536360020324
 20
223.8032740447466
 10
-76.39814466906124
 20
225.0162613475942
 10
-75.79107307653099
 20
225.8392188401432
 10
-74.90752500601805
 20
227.0946320425478
 10
-74.33679370716023
 20
227.9452835026412
 10
-73.50859565703541
 20
229.2413527081223
 10
-72.97532409168936
 20
230.1185182047734
 10
-71.95485208105079
 20
231.9034861109579
 10
-71.23051555021752
 20
233.2682759828466
 10
-70.76749249358795
 20
234.1901933192146
 10
-70.10320763046822
 20
235.5906834840352
 10
-69.68077873890071
 20
236.5358110501977
 10
-69.07822470325365
 20
237.9702316114699
 10
-68.6975094165876
 20
238.93738947644
 10
-68.33379301503712
 20
239.913029080257
 10
-67.96299094461159
 20
240.9680019123151
 10
-65.97830482695639
 20
240.1071170962947
 10
-64.17711191437128
 20
239.3802412152719
 10
-62.37908603198282
 20
238.7058835190116
 10
-60.58446548568008
 20
238.0834876285158
 10
-58.79348858135209
 20
237.5124971647868
 10
-57.00639362488795
 20
236.9923557488266
 10
-55.22341892217673
 20
236.5225070016375
 10
-53.4448027791075
 20
236.1023945442215
 10
-51.67078350156932
 20
235.7314619975808
 10
-49.90159939545128
 20
235.4091529827174
 10
-48.13748876664243
 20
235.1349111206336
 10
-45.93984810222531
 20
234.8588556179956
 10
-44.18802410326906
 20
234.6907305889548
 10
-42.4420480757615
 20
234.5688644809506
 10
-40.70215832559168
 20
234.492700914985
 10
-38.53621800951348
 20
234.4609180486403
 10
-36.8108936892605
 20
234.4855509415506
 10
-35.09243014048476
 20
234.5540781447566
 10
-33.38106566907528
 20
234.6659432792603
 10
-31.25220620148766
 20
234.8658710546478
 10
-29.55768596005926
 20
235.0732122738604
 10
-27.45063579467513
 20
235.3907247372111
 10
-25.77416620679122
 20
235.690725372456
 10
-23.69043337306483
 20
236.1223016879242
 10
-22.03322086228881
 20
236.5121450705246
 10
-19.97431338967445
 20
237.0542644022643
 10
-18.33756437956976
 20
237.5311338635436
 10
-16.30499029752168
 20
238.180275375709
 10
-14.28769749456474
 20
238.8873523059553
 10
-12.68517854962421
 20
239.4939971037358
 10
-11.09297581155242
 20
240.1364687163429
 10
-8.596762626454657
 20
241.2180537312528
 10
-6.853136918732949
 20
240.1389189668199
 10
-5.273873160461017
 20
239.2413853121562
 10
-3.679496943423576
 20
238.407351617833
 10
-2.070572054544515
 20
237.6345786232143
 10
-0.4476622807477204
 20
236.9208270676633
 10
1.188668591042929
 20
236.2638576905442
 10
2.837856773903539
 20
235.6614312312206
 10
4.499338480910235
 20
235.1113084290562
 10
5.613544274588994
 20
234.772511673869
 10
6.732796236833506
 20
234.4553022769479
 10
8.420770328810386
 20
234.0185131056807
 10
10.09139120321529
 20
233.6325540406724
 10
11.2051823110904
 20
233.2973517685135
 10
12.51204183231503
 20
232.9407929350937
 10
13.8301383961651
 20
232.6198759236646
 10
15.15944689905015
 20
232.3352727262814
 10
16.49994223737973
 20
232.0876553349992
 10
17.39980830801162
 20
231.9434565921289
 10
19.21439300601068
 20
231.7060659389583
 10
21.04873152565095
 20
231.5380117875947
 10
22.90276436212542
 20
231.4408870080946
 10
24.77643201062713
 20
231.4162844705147
 10
26.19453229653579
 20
231.4463834994834
 10
27.62361858916539
 20
231.5188442709944
 10
29.06366578492545
 20
231.6343387771024
 10
30.51464878022554
 20
231.7935390098629
 10
31.9765424714752
 20
231.997116961331
 10
33.44932175508399
 20
232.2457446235617
 10
34.93296152746142
 20
232.5400939886103
 10
36.92799859534971
 20
233.0048439252525
 10
38.94223906541453
 20
233.5536644117254
 10
40.97562343284885
 20
234.1881483180857
 10
42.719007804974
 20
234.796002341827
 10
51.34409036462184
 20
237.3838971089732
 10
53.36608632484676
 20
233.2703853073321
 10
53.53233765764293
 20
232.9049276606838
 10
53.98782716694754
 20
231.7872922139028
 10
54.78208351757402
 20
229.7385972266447
 10
55.57546806959483
 20
227.5666749301955
 10
56.36708972570092
 20
225.2752647826216
 10
57.35278019239665
 20
222.2486691381581
 10
58.13717725815833
 20
219.7020837191089
 10
58.91691536175081
 20
217.0481636876508
 10
59.69110340586502
 20
214.2906485018502
 10
60.4588502931919
 20
211.4332776197735
 10
61.21926492642238
 20
208.4797904994872
 10
61.9714562082474
 20
205.4339265990577
 10
62.71453304135787
 20
202.2994253765513
 10
63.44760432844473
 20
199.0800262900345
 10
64.16977897219894
 20
195.7794687975738
 10
64.8801658753114
 20
192.4014923572354
 10
65.57787394047305
 20
188.9498364270858
 10
66.26201207037484
 20
185.4282404651914
 10
66.93168916770765
 20
181.8404439296187
 10
67.5860141351625
 20
178.1901862784341
 10
68.22409587543024
 20
174.4812069697039
 10
68.84504329120183
 20
170.7172454614946
 10
69.44796528516822
 20
166.9020412118725
 10
70.03197076002033
 20
163.0393336789042
 10
70.59616861844908
 20
159.132862320656
 10
71.13966776314541
 20
155.1863665951942
 10
72.03830473282045
 20
148.1949380307442
 10
72.52028769425277
 20
144.1576568761003
 10
72.97823032704363
 20
140.094374321992
 10
73.41124153388405
 20
136.0088298264857
 10
73.81843021746488
 20
131.9047628476478
 10
74.37884673636087
 20
125.7221127876643
 10
74.71758056106565
 20
121.5880997295379
 10
75.02737302192914
 20
117.4486522913123
 10
75.43584738065836
 20
111.2374717358082
 10
75.66938788119141
 20
107.1007984763752
 10
75.87086817730146
 20
102.9717789400755
 10
76.11102646280973
 20
96.80078043102104
 10
76.22845769713501
 20
92.70725533159495
 10
76.29349360647869
 20
89.65051882896493
 10
76.33836537132991
 20
86.60702718753738
 10
76.3626970600114
 20
83.57835799118405
 10
76.36253832353493
 20
79.56591622100186
 10
76.33748121129777
 20
76.57796777821197
 10
76.29063091729999
 20
73.6101003934022
 10
76.22161150986443
 20
70.66389165044434
 10
76.1300470573137
 20
67.74091913321014
 10
76.01556162797063
 20
64.8427604255714
 10
75.8777792901579
 20
61.97099311139986
 10
75.71632411219828
 20
59.12719477456727
 10
75.5308201624145
 20
56.31294299894541
 10
75.32089150912928
 20
53.52981536840608
 10
75.08616222066539
 20
50.779389466821
 10
74.82625636534553
 20
48.06324287806197
 10
74.54079801149246
 20
45.38295318600074
 10
74.2294112274289
 20
42.74009797450907
 10
73.89172008147762
 20
40.13625482745875
 10
73.52734864196132
 20
37.57300132872155
 10
72.99936761860617
 20
34.22119613817687
 10
72.57128020424882
 20
31.75878686722712
 10
71.9569800550178
 20
28.54716669222989
 10
71.46312992668767
 20
26.19419071681388
 10
70.7597816660717
 20
23.13420764769251
 10
70.19812208463703
 20
20.89925403555653
 10
69.40299672712715
 20
18.0023601626394
 10
68.77148095345613
 20
15.89401798152974
 10
68.33351313172525
 20
14.51996545035914
 10
67.8818495135433
 20
13.17166539514523
 10
67.17843080850419
 20
11.19852371280818
 10
66.69204038035367
 20
9.916649863616056
 10
66.19156430067937
 20
8.662164503284671
 10
65.4141959251404
 20
6.832812387466525
 10
64.60450828087751
 20
5.067713678038028
 10
63.76212543621336
 20
3.368445958870881
 10
62.88667145947075
 20
1.736586813836885
 10
62.28447697854823
 20
0.6869089787631414
 10
61.72600348624717
 20
-0.2316675846940684
 10
58.44039057734093
 20
-0.6329238069072307
 10
54.96592230913971
 20
-1.022871812433557
 10
51.54171716941005
 20
-1.367525791609282
 10
49.28620858267922
 20
-1.570400380404288
 10
45.94294428145696
 20
-1.831773093589205
 10
43.74021665278165
 20
-1.975880495859865
 10
41.5579408307969
 20
-2.094663071703721
 10
39.39573934319891
 20
-2.187081991511023
 10
36.18925076811244
 20
-2.2740060763821
 10
34.07558367515212
 20
-2.295970976555348
 10
31.9806697635152
 20
-2.287936317057908
 10
29.90413156089788
 20
-2.24886326828003
 10
27.84559159499636
 20
-2.177713000611963
 10
25.80467239350682
 20
-2.073446684443954
 10
23.78099648412545
 20
-1.935025490166249
 10
21.77418639454846
 20
-1.761410588169101
 10
19.78386465247203
 20
-1.551563148842756
 10
17.80965378559236
 20
-1.304444342577463
 10
15.85117632160563
 20
-1.019015339763469
 10
13.90805478820805
 20
-0.6942373107910234
 10
11.9799117130958
 20
-0.3290714260503739
 10
10.06636962396506
 20
0.0775211440682322
 10
8.167051048512057
 20
0.5265792291745435
 10
6.281578514432951
 20
1.019141658878314
 10
4.409574549423942
 20
1.556247262789296
 10
2.550661681181239
 20
2.13893487051724
 10
0.7044624374010127
 20
2.768243311671897
 10
-1.129400654220531
 20
3.445211415863024
 10
-2.951305065987231
 20
4.170878012700364
 10
-4.761628270202847
 20
4.946281931793674
 10
-6.111997579091934
 20
5.561099909781252
 10
-7.87313621873291
 20
6.411090811262496
 10
-7.134490137759517
 20
5.113671076966284
 10
-6.207743769715457
 20
3.386917946837676
 10
-5.539570217112171
 20
2.067318548825516
 10
-4.683872597893089
 20
0.2765468807150055
 10
-4.068058007812506
 20
-1.089051953124986
 10
-3.280935539828989
 20
-2.938470245461153
 10
-2.531888277715446
 20
-4.818989014852038
 10
-1.820108516136556
 20
-6.728854167009885
 10
-1.144788549757002
 20
-8.66631160764694
 10
-0.5051206732414651
 20
-10.62960724247545
 10
0.099702818745377
 20
-12.61698697720766
 10
0.6704896315388412
 20
-14.62669671755583
 10
1.208047470474245
 20
-16.65698236923219
 10
1.713184040886913
 20
-18.706089837949
 10
2.186707048112157
 20
-20.7722650294185
 10
2.629424197485301
 20
-22.85375384935292
 10
3.042143194341663
 20
-24.94880220346454
 10
3.425671744016562
 20
-27.05565599746559
 10
3.780817551845318
 20
-29.17256113706831
 10
4.262085478047938
 20
-32.36292803822109
 10
4.549808142103354
 20
-34.49728737931908
 10
4.81197503298624
 20
-36.63555873601163
 10
5.049393856031919
 20
-38.77598801401095
 10
5.360886318826679
 20
-41.98684095220572
 10
5.539968683121359
 20
-44.1249908709631
 10
5.697129948252443
 20
-46.25915938102013
 10
5.833177819555256
 20
-48.38759238808908
 10
5.999428868502475
 20
-51.56565074933532
 10
6.086226966076625
 20
-53.67207083642511
 10
6.182389473190161
 20
-56.80888750072876
 10
6.240133529212419
 20
-59.91306572257196
 10
6.261599905482919
 20
-62.70789999986598
 10
-129.0557
 20
-62.51600000000001
 10
-264.2008999056031
 20
-62.70789999986598
 10
-264.3183016951949
 20
-59.8698616998886
 10
-264.3680842257067
 20
-57.77902403923414
 10
-264.3873750442182
 20
-55.67777386464935
 10
-264.3762037371713
 20
-53.56754404404117
 10
-264.3023950115205
 20
-50.38849687538164
 10
-264.2151978312604
 20
-48.26208673680813
 10
-264.0976420779884
 20
-46.13171198988573
 10
-263.9497573381461
 20
-43.99880550252141
 10
-263.671128098905
 20
-40.79783315669284
 10
-263.4475503333201
 20
-38.6648661153168
 10
-263.1937471337113
 20
-36.53438237117329
 10
-262.9097480865204
 20
-34.40781479216929
 10
-262.5955827781893
 20
-32.28659624621181
 10
-262.2512807951597
 20
-30.17215960120784
 10
-261.8768717238735
 20
-28.06593772506436
 10
-261.4723851507724
 20
-25.96936348568834
 10
-260.8093246955596
 20
-22.84572584410988
 10
-260.3297738086045
 20
-20.77953949374563
 10
-259.8202489723809
 20
-18.72801581782333
 10
-259.2807797733308
 20
-16.69258768424993
 10
-258.7113957978957
 20
-14.67468796093244
 10
-258.1121266325176
 20
-12.67574951577786
 10
-257.4830018636383
 20
-10.69720521669315
 10
-256.8240510776996
 20
-8.740487931585333
 10
-255.9584648318816
 20
-6.327468448307578
 10
-255.2325136829872
 20
-4.425100867932633
 10
-254.4768326729693
 20
-2.549217122232263
 10
-253.6914513882698
 20
-0.7012500791134828
 10
-252.8763994153303
 20
1.11736739351675
 10
-252.0317063405929
 20
2.905202427751439
 10
-251.1574017504992
 20
4.660822155683595
 10
-250.2382598410934
 20
6.411089056894318
 10
-252.4488351204261
 20
5.352960021439367
 10
-254.2535092729801
 20
4.552297880114416
 10
-256.0695758969333
 20
3.801892475850308
 10
-258.3562548952425
 20
2.932976665028382
 10
-260.1993347129547
 20
2.291850698390522
 10
-262.520974549424
 20
1.556247262789299
 10
-264.392978514433
 20
1.019141658878317
 10
-266.7519678809846
 20
0.4102767548735873
 10
-268.6548069468285
 20
-0.028067561209884
 10
-271.0535345353851
 20
-0.5167677772423325
 10
-273.4753710647753
 20
-0.9415503830043425
 10
-275.9210537855923
 20
-1.304444342577461
 10
-278.3913199484296
 20
-1.607478620043238
 10
-280.8869068038804
 20
-1.852682179483216
 10
-283.4085516025382
 20
-2.042083984978941
 10
-285.9569915949963
 20
-2.177713000611961
 10
-289.0515272905981
 20
-2.272344518179634
 10
-291.1372061636872
 20
-2.295768518616075
 10
-293.2414494819479
 20
-2.288673544576949
 10
-295.3646347176838
 20
-2.252098425672016
 10
-297.5071393431989
 20
-2.187081991511023
 10
-299.6693408307969
 20
-2.094663071703724
 10
-301.8516166527817
 20
-1.975880495859868
 10
-304.0543442814569
 20
-1.831773093589205
 10
-306.2779011891266
 20
-1.663379694501491
 10
-308.5226648480944
 20
-1.471739128206478
 10
-310.7890127306641
 20
-1.257890224313916
 10
-315.3879710558249
 20
-0.7677227221751523
 10
-319.8374034862471
 20
-0.2316675846940654
 10
-320.3958769785482
 20
0.6869089787631089
 10
-320.9980714594707
 20
1.736586813836855
 10
-321.8735254362134
 20
3.368445958870855
 10
-322.7159082808775
 20
5.067713678038005
 10
-323.5255959251404
 20
6.832812387466546
 10
-324.3029643006794
 20
8.662164503284691
 10
-324.8034403803537
 20
9.916649863616074
 10
-325.2898308085042
 20
11.1985237128082
 10
-325.9932495135434
 20
13.17166539514525
 10
-326.4449131317253
 20
14.51996545035917
 10
-326.8828809534562
 20
15.89401798152977
 10
-327.5143967271272
 20
18.00236016263943
 10
-328.309522084637
 20
20.89925403555657
 10
-328.8711816660717
 20
23.13420764769255
 10
-329.5745299266877
 20
26.19419071681394
 10
-330.0683800550178
 20
28.54716669222995
 10
-330.682680204249
 20
31.75878686722717
 10
-331.1107676186062
 20
34.22119613817693
 10
-331.6387486419614
 20
37.57300132872162
 10
-332.1186297093303
 20
40.99977048759499
 10
-332.551301918022
 20
44.49776415673059
 10
-332.8453613117588
 20
47.16575097569884
 10
-333.1975622206654
 20
50.7793894668211
 10
-333.5050047884946
 20
54.45396895852298
 10
-333.7685801125559
 20
58.18574999273807
 10
-333.989179290158
 20
61.97099311139998
 10
-334.1676934186099
 20
65.80595885644227
 10
-334.3050135952209
 20
69.68690776979854
 10
-334.4020309173
 20
73.61010039340236
 10
-334.4596364821563
 20
77.57179726918736
 10
-334.4787213870989
 20
81.56825893908707
 10
-334.4601767294366
 20
85.59574594503513
 10
-334.4048936064787
 20
89.65051882896513
 10
-334.3137631155343
 20
93.7288381328106
 10
-334.1507971716795
 20
98.85415258497562
 10
-333.9822681773015
 20
102.9717789400757
 10
-333.7807878811914
 20
107.1007984763754
 10
-333.5472473806583
 20
111.2374717358084
 10
-333.2825377730113
 20
115.3780592603083
 10
-332.9875501555594
 20
119.5188215918086
 10
-332.4902467363609
 20
125.7221127876646
 10
-332.1234626451239
 20
129.8469520076254
 10
-331.5226415338841
 20
136.0088298264859
 10
-331.0896303270437
 20
140.0943743219923
 10
-330.393645561035
 20
146.1797813444847
 10
-329.8999765967729
 20
150.2026595026214
 10
-329.2510677631454
 20
155.1863665951945
 10
-328.5684248497657
 20
160.1133785172253
 10
-327.8537882810653
 20
164.9763916396778
 10
-327.1088984814763
 20
169.768102333516
 10
-326.3354958754302
 20
174.4812069697041
 10
-325.5353208873589
 20
179.108401919206
 10
-324.7101139416941
 20
183.642383552986
 10
-323.8616154628677
 20
188.0758482420078
 10
-322.9915658753113
 20
192.4014923572356
 10
-322.1017056034569
 20
196.6120122696334
 10
-321.193775071736
 20
200.7001043501653
 10
-320.0828562082473
 20
205.4339265990579
 10
-319.1412973988203
 20
209.2269686752782
 10
-318.1872376877086
 20
212.8742113067174
 10
-317.2224174993441
 20
216.3683508643397
 10
-316.0528799609326
 20
220.3489387663655
 10
-315.0705130166114
 20
223.4805427873838
 10
-314.0829549532189
 20
226.4356721216702
 10
-313.091946195187
 20
229.2070231401885
 10
-312.2978242538393
 20
231.2868755289382
 10
-311.6065230870246
 20
232.9906434775531
 10
-311.1633971467019
 20
233.920682430023
 10
-309.4554903646218
 20
237.3838971089732
 10
-300.830400216871
 20
234.7960000650706
 10
-299.0870158447458
 20
234.1881460413293
 10
-297.0536314773115
 20
233.553662134969
 10
-295.0393910072469
 20
233.004841648496
 10
-293.0443539393584
 20
232.5400917118539
 10
-291.560714166981
 20
232.2457423468053
 10
-290.0879348833722
 20
231.9971146845746
 10
-288.6260411921226
 20
231.7935367331065
 10
-287.1750581968225
 20
231.634336500346
 10
-285.7350110010624
 20
231.5188419942379
 10
-284.3059247084329
 20
231.4463812227271
 10
-282.8878244225241
 20
231.4162821937583
 10
-281.0141567740225
 20
231.4408847313381
 10
-279.160123937548
 20
231.5380095108382
 10
-277.3257854179078
 20
231.7060636622019
 10
-275.5112007199087
 20
231.9434543153725
 10
-274.6113346492768
 20
232.0876530582428
 10
-273.2708393109473
 20
232.335270449525
 10
-271.9415308080622
 20
232.6198736469082
 10
-270.6234342442121
 20
232.9407906583373
 10
-269.3165747229875
 20
233.2973494917571
 10
-268.2027836151123
 20
233.632551763916
 10
-266.5321627407073
 20
234.0185108289242
 10
-264.8441886487305
 20
234.4553000001915
 10
-263.724936686486
 20
234.7725093971126
 10
-262.6107308928072
 20
235.1113061522998
 10
-260.9492491858005
 20
235.6614289544642
 10
-259.3000610029399
 20
236.2638554137878
 10
-257.6637301311493
 20
236.9208247909069
 10
-256.0408203573524
 20
237.6345763464578
 10
-254.4318954684734
 20
238.4073493410766
 10
-252.837519251436
 20
239.2413830353998
 10
-251.258255493164
 20
240.1389166900635
 10
-249.5146297854423
 20
241.2180514544964
 10
-247.0184162009009
 20
240.136466263086
 10
-245.4262134628291
 20
239.4939946504789
 10
-243.8236945178885
 20
238.8873498526983
 10
-241.8064017149316
 20
238.180272922452
 10
-239.7738276328835
 20
237.5311314102867
 10
-238.1370786227788
 20
237.0542619490073
 10
-236.0781711501645
 20
236.5121426172677
 10
-234.4209586393884
 20
236.1222992346672
 10
-232.3372258056621
 20
235.690722919199
 10
-230.6607562177781
 20
235.3907222839541
 10
-228.553706052394
 20
235.0732098206034
 10
-226.8591858109656
 20
234.8658686013908
 10
-224.730326343378
 20
234.6659408260033
 10
-223.0189618719685
 20
234.5540756914996
 10
-221.3004983231928
 20
234.4855484882936
 10
-219.5751740029397
 20
234.4609155953833
 10
-217.4092336868616
 20
234.492698461728
 10
-215.6693439366917
 20
234.5688620276936
 10
-213.9233679091842
 20
234.6907281356978
 10
-212.171543910228
 20
234.8588531647386
 10
-209.9739032458108
 20
235.1349086673766
 10
-208.209792617002
 20
235.4091505294604
 10
-206.4406085108839
 20
235.7314595443237
 10
-204.6665892333457
 20
236.1023920909644
 10
-202.8879730902765
 20
236.5225045483805
 10
-201.1049983875653
 20
236.9923532955696
 10
-199.3179034311011
 20
237.5124947115298
 10
-197.5269265267732
 20
238.0834851752588
 10
-195.7323059804704
 20
238.7058810657545
 10
-193.9342800980819
 20
239.3802387620149
 10
-192.1330871854968
 20
240.1071146430376
 10
-190.1484010678416
 20
240.967999459058
 10
-189.7776082477197
 20
239.9130290751815
 10
-189.4138918461693
 20
238.9373894713645
 10
-189.0331765595032
 20
237.9702316063944
 10
-188.430622523856
 20
236.5358110451222
 10
-188.0081936322886
 20
235.5906834789597
 10
-187.3439087691689
 20
234.1901933141391
 10
-186.8808857125394
 20
233.2682759777711
 10
-186.156549181706
 20
231.9034861058824
 10
-185.1360771710675
 20
230.1185181996979
 10
-184.6028056057214
 20
229.2413527030468
 10
-183.7746075555966
 20
227.9452834975657
 10
-183.2038762567388
 20
227.0946320374723
 10
-182.3203281862259
 20
225.8392188350677
 10
-181.7132565936956
 20
225.0162613425188
 10
-180.7760376625536
 20
223.8032740396711
 10
-179.4776778714489
 20
222.2269867917246
 10
-178.8080147387035
 20
221.4568518668425
 10
-177.7784197410222
 20
220.3246913223274
 10
-176.7192417161875
 20
219.2207473560556
 10
-175.9969865351696
 20
218.5007752369394
 10
-174.8898467928868
 20
217.4452748182572
 10
-174.1361768534899
 20
216.7581883630276
 10
-172.9827545535178
 20
215.7529013884154
 10
-172.1987892955812
 20
215.0998805280591
 10
-171.0007635976791
 20
214.1465768939972
 10
-170.1876224610422
 20
213.5288015595012
 10
-168.9466725249691
 20
212.6292511624697
 10
-168.1054749494712
 20
212.0479012848207
 10
-166.3905315116817
 20
210.930092008726
 10
-165.0765494294938
 20
210.1317575774796
 10
-164.1876712524414
 20
209.6189469482422
 10
-162.379784601596
 20
208.6407648199022
 10
-160.9982108509127
 20
207.9493808190369
 10
-160.0652790573854
 20
207.5089324146083
 10
-158.1717031636434
 20
206.6780233868177
 10
-156.727978222084
 20
206.0993242809296
 10
-155.7546197971616
 20
205.7350610777072
 10
-153.7826086306822
 20
205.0590711032607
 10
-152.2821729758662
 20
204.5987913569457
 10
-151.2720149046281
 20
204.314536331327
 10
-149.2288224355704
 20
203.8011113630191
 10
-147.6771165451173
 20
203.4649854408733
 10
-146.6337858126432
 20
203.2645615692556
 10
-145.5835759312015
 20
203.0832860126056
 10
-144.5266660111666
 20
202.9213475598812
 10
-143.4632351629127
 20
202.7789350000404
 10
-142.3934624968141
 20
202.656237122041
 10
-141.3175271232452
 20
202.5534427148409
 10
-140.2356081525803
 20
202.470740567398
 10
-138.6019022559715
 20
202.384773309124
 10
-136.955740761752
 20
202.3450755731918
  0
LWPOLYLINE
  5
33
330
17
100
AcDbEntity
  8
OUTLINE
100
AcDbPolyline
 90
507
 70
1
 10
258.8218847524196
 20
241.4458199852179
 10
258.8088909446115
 20
241.4839019123143
 10
256.8242048269563
 20
240.6230170962946
 10
254.5731992258694
 20
239.7226499449398
 10
252.7760023363252
 20
239.0613348606518
 10
250.9822703593391
 20
238.4518424873787
 10
249.1922416007999
 20
237.893616446123
 10
247.4061543665969
 20
237.3861003578866
 10
245.6242469626191
 20
236.9287378436719
 10
243.8467576947555
 20
236.5209725244806
 10
242.0739248688953
 20
236.1622480213153
 10
240.3059867909274
 20
235.852007955178
 10
238.543181766741
 20
235.5896959470706
 10
236.3472568875162
 20
235.3283571599117
 10
234.5968725402449
 20
235.1718490216611
 10
232.8523957408947
 20
235.0614607096976
 10
231.1140647953545
 20
234.9966358450232
 10
228.9501567644774
 20
234.9788307533011
 10
227.2265252959167
 20
235.0144893843164
 10
225.5098141753054
 20
235.0939032308779
 10
223.8002617085326
 20
235.2165159139876
 10
221.6737510261551
 20
235.4296825231413
 10
219.981176836426
 20
235.6474583277735
 10
217.8766430150802
 20
235.9778184209075
 10
216.2022535259582
 20
236.2879406783858
 10
214.1212045950983
 20
236.7319734196543
 10
212.4662062301469
 20
237.1316254613018
 10
210.4101502192273
 20
237.6858100148589
 10
208.7757494020098
 20
238.1721751719991
 10
206.7461943404847
 20
238.8329907019991
 10
205.1335974945646
 20
239.4032523059552
 10
203.5310785496241
 20
240.0098971037357
 10
201.9388758115523
 20
240.6523687163429
 10
199.4426626264546
 20
241.7339537312527
 10
197.6990369187329
 20
240.6548189668197
 10
196.1197731604609
 20
239.7572853121561
 10
194.5253969434235
 20
238.9232516178329
 10
192.9164720545445
 20
238.1504786232141
 10
191.2935622807477
 20
237.4367270676632
 10
189.657231408957
 20
236.7797576905441
 10
188.0080432260964
 20
236.1773312312205
 10
186.3465615190896
 20
235.6272084290561
 10
185.2323557254109
 20
235.2884116738689
 10
184.1131037631664
 20
234.9712022769478
 10
182.4251296711894
 20
234.5344131056805
 10
180.7545087967847
 20
234.1484540406723
 10
179.6407176889096
 20
233.8132517685135
 10
178.333858167685
 20
233.4566929350936
 10
177.0157616038349
 20
233.1357759236646
 10
175.6864531009498
 20
232.8511727262813
 10
174.3459577626203
 20
232.6035553349991
 10
173.4460916919884
 20
232.4593565921289
 10
171.6315069939893
 20
232.2219659389582
 10
169.7971684743491
 20
232.0539117875946
 10
167.9431356378745
 20
231.9567870080945
 10
166.0694679893729
 20
231.9321844705146
 10
164.6513677034642
 20
231.9622834994834
 10
163.2222814108346
 20
232.0347442709942
 10
161.7822342150745
 20
232.1502387771023
 10
160.3312512197743
 20
232.3094390098628
 10
158.8693575285248
 20
232.5130169613309
 10
157.396578244916
 20
232.7616446235616
 10
155.9129384725385
 20
233.0559939886102
 10
153.9179014046503
 20
233.5207439252524
 10
151.9036609345854
 20
234.0695644117253
 10
149.8702765671511
 20
234.7040483180856
 10
148.126892195026
 20
235.311902341827
 10
139.5018096353781
 20
237.8997971089732
 10
137.7939028532981
 20
234.4365824300229
 10
137.3346320232108
 20
233.4699091012959
 10
136.4608913764952
 20
231.2944818500515
 10
135.6669595380079
 20
229.1837057759396
 10
134.6765016849494
 20
226.3750148039447
 10
133.6898426114167
 20
223.3840062419891
 10
132.7087227418416
 20
220.2179837191086
 10
131.5411411651754
 20
216.1980217729138
 10
130.5783338383067
 20
212.6726773102053
 10
129.6266350735775
 20
208.9956904994869
 10
128.501710375526
 20
204.3934219369347
 10
127.5805767415031
 20
200.4085307348014
 10
126.497384392849
 20
195.4579866412716
 10
125.615239543782
 20
191.2005406122575
 10
124.7536015487858
 20
186.8308918320278
 10
123.9142108322923
 20
182.3563439296184
 10
122.9387588977234
 20
176.8587031151326
 10
122.1544384879354
 20
172.1790859181347
 10
121.3979347148317
 20
167.4179412118722
 10
120.6709880028441
 20
162.5825726253811
 10
119.9753387764043
 20
157.6802837876974
 10
119.3127274599441
 20
152.7183783278569
 10
118.5636544389649
 20
146.6956813444842
 10
118.0935802546897
 20
142.6449320578498
 10
117.4346584661159
 20
136.5247298264854
 10
117.0274697825351
 20
132.4206628476475
 10
116.4670532636391
 20
126.2380127876641
 10
116.1283194389343
 20
122.1039997295377
 10
115.6747622269886
 20
115.8939592603078
 10
115.4100526193416
 20
111.753371735808
 10
115.1765121188085
 20
107.616698476375
 10
114.9750318226985
 20
103.4876789400753
 10
114.8065028283206
 20
99.37005258497526
 10
114.6435368844657
 20
94.24473813281023
 10
114.5524063935213
 20
90.16641882896477
 10
114.4971232705634
 20
86.1116459450348
 10
114.479787259154
 20
81.08198882377656
 10
114.5084187887022
 20
77.09386777821182
 10
114.5757937524914
 20
73.14144639127841
 10
114.6828032478308
 20
69.22846412104276
 10
114.8303383720293
 20
65.35866042557127
 10
115.0192902223961
 20
61.53577476293038
 10
115.2505498962402
 20
57.76354659118648
 10
115.5250084908707
 20
54.04571536840597
 10
115.8435571035966
 20
50.3860205526553
 10
116.207086831727
 20
46.78820160200081
 10
116.616488772571
 20
43.255997974509
 10
116.9541799185223
 20
40.65215482745869
 10
117.4460024345151
 20
37.24377608647379
 10
117.9861476808213
 20
33.91129617833414
 10
118.5755067547502
 20
30.65845456110619
 10
119.0503586852991
 20
28.27333549433908
 10
119.7279861604674
 20
25.16885895717886
 10
120.4572779808583
 20
22.15430422061296
 10
121.2391252437807
 20
19.23341074270777
 10
121.8605362508589
 20
17.10645535301806
 10
122.2916979445506
 20
15.71970187096598
 10
122.7364997411116
 20
14.35846714874144
 10
123.4295212882533
 20
12.36548524814629
 10
123.9089106608283
 20
11.07009244162066
 10
124.4023299913452
 20
9.801854407826623
 10
125.1690088176823
 20
7.951435064072336
 10
125.697990361895
 20
6.753128978237332
 10
126.2413917191225
 20
5.583613678037988
 10
127.0837745637866
 20
3.884345958870845
 10
127.9592285405292
 20
2.252486813836852
 10
128.5614230214517
 20
1.202808978763109
 10
129.1152262864098
 20
0.2862718936748927
 10
132.405509422659
 20
-0.1170238069072312
 10
135.8799776908603
 20
-0.5069718124335592
 10
139.3041828305899
 20
-0.8516257916092841
 10
141.5596914173208
 20
-1.05450038040429
 10
144.9029557185431
 20
-1.315873093589207
 10
147.1056833472183
 20
-1.459980495859866
 10
149.287959169203
 20
-1.578763071703724
 10
151.4501606568011
 20
-1.671181991511024
 10
154.6566492318876
 20
-1.758106076382099
 10
156.7703163248479
 20
-1.780070976555346
 10
158.8652302364848
 20
-1.772036317057906
 10
160.9417684391021
 20
-1.732963268280028
 10
163.0003084050037
 20
-1.661813000611959
 10
165.0412276064932
 20
-1.557546684443948
 10
167.0649035158746
 20
-1.419125490166245
 10
169.0717136054516
 20
-1.245510588169094
 10
171.062035347528
 20
-1.035663148842747
 10
173.0362462144077
 20
-0.7885443425774534
 10
174.9947236783944
 20
-0.5031153397634573
 10
176.937845211792
 20
-0.1783373107910095
 10
178.8659882869042
 20
0.1868285739496428
 10
180.779530376035
 20
0.5934211440682498
 10
182.678848951488
 20
1.042479229174563
 10
184.5643214855671
 20
1.53504165887834
 10
186.4363254505761
 20
2.072147262789323
 10
188.2952383188188
 20
2.65483487051727
 10
190.1414375625991
 20
3.284143311671933
 10
191.9753006542205
 20
3.961111415863062
 10
193.7972050659873
 20
4.686778012700406
 10
195.6075282702029
 20
5.462181931793719
 10
196.957897579092
 20
6.076999909781302
 10
198.7190376349337
 20
6.926987271046588
 10
197.9963045970442
 20
5.589798177645563
 10
197.0880833368272
 20
3.816772732492558
 10
196.4322080431625
 20
2.466468341876252
 10
195.590872885746
 20
0.6398484211216822
 10
194.9843666015624
 20
-0.7489818359375671
 10
194.2077960332952
 20
-2.624742924938415
 10
193.4672812853515
 20
-4.526585237389872
 10
192.7621296185798
 20
-6.453054632114682
 10
192.0916482938288
 20
-8.402696967935626
 10
191.4551445719473
 20
-10.37405810367546
 10
190.8519257137835
 20
-12.36568389815694
 10
190.2812989801861
 20
-14.37612021020284
 10
189.7425716320038
 20
-16.40391289863592
 10
189.235050930085
 20
-18.44760782227894
 10
188.7580441352784
 20
-20.50575083995466
 10
188.3108585084326
 20
-22.57688781048586
 10
187.8928013103962
 20
-24.65956459269528
 10
187.5031798020176
 20
-26.7523270454057
 10
187.1413012441456
 20
-28.85372102743987
 10
186.6489860726435
 20
-32.01881518414797
 10
186.3534341572503
 20
-34.13542612184112
 10
186.0832006053336
 20
-36.25557909473771
 10
185.8375926777421
 20
-38.37781996166047
 10
185.5138384650707
 20
-41.56191512951852
 10
185.3267638645045
 20
-43.68301386385637
 10
185.0875624275989
 20
-46.8585795460687
 10
184.9546915343617
 20
-48.96944776546387
 10
184.7935484436773
 20
-52.12285138849392
 10
184.7105516380727
 20
-54.21440071058868
 10
184.6209724640649
 20
-57.33200970089985
 10
184.5835201263966
 20
-59.39515174333648
 10
184.5597000945342
 20
-62.19199999986596
 10
319.9016
 20
-62.0001
 10
455.0376999056093
 20
-62.19199999986596
 10
455.1490301408602
 20
-59.3939805132859
 10
455.1917523575752
 20
-57.32635239456508
 10
455.2020356197844
 20
-55.24353450055986
 10
455.1801455717916
 20
-53.14727553934703
 10
455.1263478579021
 20
-51.03932421900339
 10
455.0409081224196
 20
-48.92142924760569
 10
454.9240920096489
 20
-46.7953393332307
 10
454.6906182299934
 20
-43.59466424250378
 10
454.4965233678341
 20
-41.45573756852146
 10
454.271981883452
 20
-39.31473642983062
 10
454.0172594211518
 20
-37.17340953450797
 10
453.7326216252377
 20
-35.03350559063031
 10
453.2501547777571
 20
-31.83014300769109
 10
452.8918908416406
 20
-29.70144704026177
 10
452.5046413269762
 20
-27.58029450254614
 10
452.088671878068
 20
-25.46843410262101
 10
451.4114489249147
 20
-22.32189156000835
 10
450.9248418342291
 20
-20.24091210239527
 10
450.4104445643655
 20
-18.17534526084137
 10
449.8685227596283
 20
-16.12693974342343
 10
449.2993420643216
 20
-14.09744425821822
 10
448.7031681227504
 20
-12.08860751330253
 10
448.0802665792189
 20
-10.10217821675312
 10
447.4309030780315
 20
-8.139905076646777
 10
446.7553432634926
 20
-6.203536801060253
 10
445.8744596221638
 20
-3.822169219768845
 10
445.1409293645725
 20
-1.950480603257659
 10
444.3820661376195
 20
-0.1103801525158428
 10
443.5981355856088
 20
1.696383424379853
 10
442.7894033528452
 20
3.468061419352646
 10
441.9561350836328
 20
5.202905124325761
 10
441.0841566396205
 20
6.926990903959595
 10
442.8453024209081
 20
6.076999909781255
 10
444.1956717297972
 20
5.462181931793677
 10
446.0059949340126
 20
4.686778012700367
 10
447.8278993457792
 20
3.961111415863026
 10
449.6617624374009
 20
3.284143311671901
 10
451.5079616811813
 20
2.654834870517244
 10
453.3668745494239
 20
2.072147262789299
 10
455.2388785144328
 20
1.535041658878316
 10
457.124351048512
 20
1.042479229174545
 10
459.0236696239649
 20
0.5934211440682341
 10
460.9372117130957
 20
0.1868285739496276
 10
462.865354788208
 20
-0.17833731079102
 10
464.8084763216056
 20
-0.5031153397634684
 10
466.7669537855923
 20
-0.7885443425774632
 10
468.741164652472
 20
-1.035663148842755
 10
470.7314863945485
 20
-1.2455105881691
 10
472.7382964841253
 20
-1.419125490166249
 10
474.7619723935067
 20
-1.557546684443954
 10
476.8028915949963
 20
-1.661813000611964
 10
478.8614315608977
 20
-1.73296326828003
 10
480.9379697635152
 20
-1.772036317057908
 10
483.0328836751521
 20
-1.780070976555347
 10
485.1465507681124
 20
-1.758106076382101
 10
488.3530393431989
 20
-1.671181991511023
 10
490.5152408307968
 20
-1.578763071703724
 10
492.6975166527816
 20
-1.459980495859868
 10
494.9002442814569
 20
-1.315873093589205
 10
498.2435085826791
 20
-1.054500380404289
 10
500.49901716941
 20
-0.8516257916092826
 10
503.9232223091395
 20
-0.506971812433558
 10
507.3976905773409
 20
-0.1170238069072306
 10
510.6833034862472
 20
0.2842324153059335
 10
511.2417769785482
 20
1.202808978763107
 10
511.8439714594706
 20
2.252486813836855
 10
512.7194254362133
 20
3.884345958870854
 10
513.5618082808774
 20
5.583613678038005
 10
514.3714959251402
 20
7.348712387466547
 10
515.1488643006794
 20
9.178064503284693
 10
515.8942893391715
 20
11.07009244162069
 10
516.6081469722945
 20
13.02321861860277
 10
517.0667002588883
 20
14.35846714874148
 10
517.5115020554493
 20
15.71970187096603
 10
518.1531643658996
 20
17.80925555639876
 10
518.9616235115786
 20
20.68191610819869
 10
519.533137238488
 20
22.89930823433579
 10
520.2494294322006
 20
25.93669399524401
 10
520.7528413147007
 20
28.27333549433919
 10
521.3796955419557
 20
31.46399437402731
 10
521.8170523191786
 20
33.91129617833428
 10
522.3571975654849
 20
37.24377608647392
 10
522.7305459765622
 20
39.79314912824639
 10
523.0770887835155
 20
42.38363767962253
 10
523.3972019180218
 20
45.01366415673061
 10
523.6912613117588
 20
47.68165097569884
 10
523.9596428964032
 20
50.38602055265549
 10
524.2027226036327
 20
53.12519530372874
 10
524.4208763651247
 20
55.89759764504687
 10
524.6144801125558
 20
58.70164999273808
 10
524.7839097776038
 20
61.53577476293063
 10
524.9295412919458
 20
64.39839437175273
 10
525.0517505872592
 20
67.28793123533264
 10
525.1789115098643
 20
71.17979165044451
 10
525.2479309173001
 20
74.12600039340238
 10
525.2947812112977
 20
77.09386777821213
 10
525.3198383235349
 20
80.08181622100203
 10
525.3199970600114
 20
84.09425799118421
 10
525.2956653713298
 20
87.12292718753756
 10
525.2507936064786
 20
90.16641882896513
 10
525.185757697135
 20
93.22315533159517
 10
525.0683264628096
 20
97.3166804310212
 10
524.8281681773014
 20
103.4876789400757
 10
524.6266878811914
 20
107.6166984763754
 10
524.3931473806583
 20
111.7533717358085
 10
523.9846730219291
 20
117.9645522913126
 10
523.6748805610655
 20
122.1039997295382
 10
523.3361467363607
 20
126.2380127876646
 10
522.7757302174649
 20
132.420662847648
 10
522.368541533884
 20
136.524729826486
 10
521.9355303270435
 20
140.6102743219923
 10
521.4775876942527
 20
144.6735568761006
 10
520.9956047328203
 20
148.7108380307445
 10
520.0969677631452
 20
155.7022665951945
 10
519.553468618449
 20
159.6487623206563
 10
518.9892707600201
 20
163.5552336789045
 10
518.4052652851682
 20
167.4179412118728
 10
517.8023432912017
 20
171.2331454614949
 10
517.1813958754301
 20
174.9971069697041
 10
516.5433141351623
 20
178.7060862784344
 10
515.8889891677075
 20
182.356343929619
 10
515.2193120703747
 20
185.9441404651918
 10
514.535173940473
 20
189.4657364270861
 10
513.8374658753113
 20
192.9173923572357
 10
513.1270789721988
 20
196.295368797574
 10
512.4049043284444
 20
199.5959262900348
 10
511.6718330413577
 20
202.8153253765517
 10
510.9287562082472
 20
205.949826599058
 10
510.1765649264221
 20
208.9956904994875
 10
509.4161502931918
 20
211.9491776197738
 10
508.6484034058647
 20
214.8065485018505
 10
507.8742153617506
 20
217.5640636876511
 10
507.0944772581581
 20
220.2179837191092
 10
506.3100801923964
 20
222.7645691381584
 10
505.3243897257007
 20
225.7911647826219
 10
504.5327680695947
 20
228.0825749301958
 10
503.739383517574
 20
230.254497226645
 10
502.9451271669475
 20
232.303192213903
 10
502.4896376576428
 20
233.4208276606838
 10
502.3233863248469
 20
233.7862853073322
 10
500.3013903646219
 20
237.8997971089732
 10
491.676300216871
 20
235.3119000650706
 10
489.9329158447458
 20
234.7040460413293
 10
487.8995314773114
 20
234.069562134969
 10
485.8852910072466
 20
233.520741648496
 10
483.8902539393584
 20
233.0559917118539
 10
482.4066141669809
 20
232.7616423468053
 10
480.9338348833722
 20
232.5130146845746
 10
479.4719411921224
 20
232.3094367331065
 10
478.0209581968223
 20
232.150236500346
 10
476.5809110010624
 20
232.0347419942379
 10
475.1518247084328
 20
231.9622812227271
 10
473.7337244225242
 20
231.9321821937583
 10
471.8600567740224
 20
231.9567847313382
 10
470.0060239375479
 20
232.0539095108382
 10
468.1716854179076
 20
232.2219636622019
 10
466.3571007199085
 20
232.4593543153726
 10
465.4572346492766
 20
232.6035530582428
 10
464.1167393109471
 20
232.851170449525
 10
462.787430808062
 20
233.1357736469083
 10
461.4693342442119
 20
233.4566906583373
 10
460.1624747229872
 20
233.8132494917572
 10
459.0486836151122
 20
234.148451763916
 10
457.3780627407073
 20
234.5344108289242
 10
455.6900886487304
 20
234.9712000001915
 10
454.5708366864858
 20
235.2884093971126
 10
453.4566308928071
 20
235.6272061522998
 10
451.7951491858005
 20
236.1773289544642
 10
450.1459610029399
 20
236.7797554137878
 10
448.5096301311492
 20
237.436724790907
 10
446.8867203573523
 20
238.1504763464578
 10
445.2777954684733
 20
238.9232493410766
 10
443.683419251436
 20
239.7572830353998
 10
442.1041554931639
 20
240.6548166900635
 10
440.3605297854422
 20
241.7339514544964
 10
437.8643162009008
 20
240.6523662630859
 10
436.2721134628291
 20
240.0098946504788
 10
434.6695945178884
 20
239.4032498526982
 10
432.6523017149316
 20
238.6961729224519
 10
430.6197276328835
 20
238.0470314102865
 10
428.9829786227787
 20
237.5701619490072
 10
426.9240711501644
 20
237.0280426172675
 10
425.2668586393885
 20
236.6381992346671
 10
423.1831258056621
 20
236.2066229191989
 10
421.5066562177781
 20
235.906622283954
 10
419.3996060523939
 20
235.5891098206033
 10
417.7050858109656
 20
235.3817686013907
 10
415.5762263433779
 20
235.1818408260033
 10
413.8648618719686
 20
235.0699756914996
 10
412.1463983231928
 20
235.0014484882936
 10
410.4210740029397
 20
234.9768155953832
 10
408.2551336868616
 20
235.0085984617279
 10
406.5152439366918
 20
235.0847620276935
 10
404.7692679091841
 20
235.2066281356977
 10
403.0174439102279
 20
235.3747531647385
 10
400.8198032458109
 20
235.6508086673765
 10
399.0556926170021
 20
235.9250505294603
 10
397.286508510884
 20
236.2473595443236
 10
395.5124892333459
 20
236.6182920909644
 10
393.7338730902767
 20
237.0384045483804
 10
391.9508983875655
 20
237.5082532955695
 10
390.1638034311013
 20
238.0283947115297
 10
388.3728265267733
 20
238.5993851752587
 10
386.5782059804705
 20
239.2217810657545
 10
384.7801800980821
 20
239.8961387620148
 10
382.978987185497
 20
240.6230146430376
 10
380.9943010678417
 20
241.4838994590581
 10
380.6235057221348
 20
240.4289290751812
 10
380.0715453434923
 20
238.9686385222135
 10
379.6823977806587
 20
238.0057923225259
 10
379.0673632467365
 20
236.5780162488257
 10
378.6367259669695
 20
235.6374363341431
 10
377.9602964375263
 20
234.2439446361905
 10
377.4892888806648
 20
233.3268109374998
 10
376.7531435154601
 20
231.9693735117752
 10
376.242885121344
 20
231.0768659600632
 10
375.4487030801365
 20
229.7572527030467
 10
374.900313288605
 20
228.8905512293002
 10
374.0497737311539
 20
227.6105320374722
 10
373.4643719820463
 20
226.7708165726781
 10
372.5591540681107
 20
225.5321613425187
 10
371.6219351369688
 20
224.319174039671
 10
370.6533196861336
 20
223.132491826868
 10
369.9904320585934
 20
222.3562989388428
 10
368.9708324027438
 20
221.214874459965
 10
367.9214482205697
 20
220.1014541717529
 10
366.8428840095847
 20
219.0166752369393
 10
365.7357442673016
 20
217.9611748182572
 10
364.9820743279049
 20
217.2740883630276
 10
363.8286520279329
 20
216.2688013884154
 10
363.0446867699963
 20
215.6157805280591
 10
361.8466610720942
 20
214.6624768939972
 10
361.0335199354573
 20
214.0447015595011
 10
359.7925699993842
 20
213.1451511624697
 10
358.9513724238864
 20
212.5638012848207
 10
357.6691774094014
 20
211.7197740213
 10
356.801042834882
 20
211.1760295314849
 10
355.4792819017443
 20
210.3892952979551
 10
354.5853297680426
 20
209.8843361269608
 10
353.2256820760113
 20
209.1566648199022
 10
352.3070318229667
 20
208.6916708987154
 10
350.9111765318007
 20
208.0248324146084
 10
349.9689475992528
 20
207.600983674216
 10
348.5385638687112
 20
206.9967479095407
 10
347.5738756964993
 20
206.6152242809296
 10
345.6186677043182
 20
205.9041470888317
 10
344.1303642654931
 20
205.4170563582638
 10
343.1280704502814
 20
205.1146913569457
 10
341.1000691621533
 20
204.5644800703656
 10
339.5592864926647
 20
204.200268838501
 10
338.5230140195325
 20
203.9808854408734
 10
337.4796832870584
 20
203.7804615692556
 10
336.4294734056168
 20
203.5991860126056
 10
335.3725634855818
 20
203.4372475598813
 10
334.309132637328
 20
203.2948350000404
 10
332.7021514284804
 20
203.1182401852812
 10
331.6232018675666
 20
203.02546830934
 10
330.5383582647441
 20
202.952883087635
 10
328.9004333358747
 20
202.8822682076156
 10
327.2502543085658
 20
202.8581352375158
 10
319.9017987371719
 20
202.8870999949245
 10
312.6909927461385
 20
202.858241796667
 10
311.4514972292503
 20
202.8690225369111
 10
310.3554066162546
 20
202.9006641263234
 10
309.2648514634527
 20
202.9528701927441
 10
308.1800108925341
 20
203.0254519415573
 10
307.101064025189
 20
203.1182205781476
 10
306.0281899831071
 20
203.2309873078991
 10
304.9615678879783
 20
203.3635633361961
 10
303.9013768614927
 20
203.5157598684231
 10
302.8477960253397
 20
203.6873881099643
 10
301.8010045012097
 20
203.8782592662041
 10
300.761181410792
 20
204.0881845425267
 10
298.7031570178542
 20
204.5644422769579
 10
296.6751558200453
 20
205.1146509563325
 10
294.6786107908843
 20
205.7373002237249
 10
292.7149549038901
 20
206.4308797222099
 10
290.7856211325817
 20
207.1938790948619
 10
288.8920424504781
 20
208.0247879847556
 10
287.9591090721027
 20
208.4652365121288
 10
286.5775327376379
 20
209.1566209213652
 10
284.7696423156738
 20
210.1348039825439
 10
283.0021641468509
 20
211.1759879009567
 10
281.2765312046884
 20
212.278662319678
 10
280.4298544978296
 20
212.8525864801153
 10
279.1805179225719
 20
213.7411754247601
 10
277.554276049824
 20
214.9766812266672
 10
275.9745365676731
 20
216.2687688688751
 10
274.4427324496383
 20
217.6159279944586
 10
273.695253956389
 20
218.3096873769769
 10
272.597569453478
 20
219.3750202405562
 10
271.8817298286438
 20
220.1014293506622
 10
270.8323432612766
 20
221.214851830862
 10
269.4795975841095
 20
222.742867087472
 10
268.1812356518938
 20
224.3191572212931
 10
266.9386904381483
 20
225.9422118753998
 10
266.0442732724679
 20
227.1892835083293
 10
265.4661842269107
 20
228.0344918653063
 10
264.3544659391522
 20
229.7572444475472
 10
263.3032215338007
 20
231.521852890066
 10
262.3138839843751
 20
233.3268068359375
 10
261.6133692196398
 20
234.7060904578281
 10
261.1664516093342
 20
235.6374341979877
 10
260.3216437951705
 20
237.5276432838939
 10
259.5434000008695
 20
239.453289213145
  0
LWPOLYLINE
  5
34
330
17
100
AcDbEntity
  8
OUTLINE
100
AcDbPolyline
 90
487
 70
1
 10
-478.1777074660012
 20
-86.75541373145512
 10
-479.3072527241146
 20
-84.3859278618181
 10
-480.2795371364024
 20
-82.25551302782667
 10
-481.2000634755387
 20
-80.1478672319094
 10
-482.208875545812
 20
-77.71802577130191
 10
-483.0179822941568
 20
-75.66048714937476
 10
-483.775998262615
 20
-73.62643226536429
 10
-484.4831341753758
 20
-71.61608681395764
 10
-485.2441004647152
 20
-69.30095097614293
 10
-485.8417191578347
 20
-67.34275022020718
 10
-486.3891250885216
 20
-65.40897359671771
 10
-486.8865289809648
 20
-63.49984680036168
 10
-487.4039176297716
 20
-61.30398794763649
 10
-487.7937066737236
 20
-59.44904336823219
 10
-488.18612171854
 20
-57.31701515013322
 10
-488.4692851469994
 20
-55.51731229885067
 10
-488.7378806929897
 20
-53.45035081174294
 10
-488.9154077389543
 20
-51.70694919975218
 10
-489.061337891283
 20
-49.70629054000072
 10
-489.1342177877513
 20
-48.02024967847177
 10
-489.1586366515826
 20
-46.08712994244157
 10
-489.1278586315524
 20
-44.45950934254449
 10
-489.0319203120511
 20
-42.59516462660062
 10
-488.8984736085204
 20
-41.02702379950537
 10
-488.683332210851
 20
-39.23269020001291
 10
-488.4482060568179
 20
-37.72508865688953
 10
-488.1150156861449
 20
-36.0020022702134
 10
-487.7791993146078
 20
-34.55599952223196
 10
-487.3291140760952
 20
-32.90539644473722
 10
-486.893596720052
 20
-31.52205200306771
 10
-486.3277707188646
 20
-29.94516833111945
 10
-485.7935416113137
 20
-28.62554170693187
 10
-485.1131289526159
 20
-27.12361353689506
 10
-484.4811773265549
 20
-25.86876424135946
 10
-483.6873321155114
 20
-24.44302766959915
 10
-482.9586472039388
 20
-23.25401521388556
 10
-482.0525235457135
 20
-21.90570633676676
 10
-481.2280945816275
 20
-20.7835902320452
 10
-480.2108465813855
 20
-19.51394514593295
 10
-479.1342404287053
 20
-18.28716947832453
 10
-477.9986107457947
 20
-17.10362162402399
 10
-476.8042921548608
 20
-15.96365997783542
 10
-475.5516192781111
 20
-14.86764293456286
 10
-474.2409267377533
 20
-13.81592888901039
 10
-473.0715507224286
 20
-12.94999294625299
 10
-471.6539951514304
 20
-11.98150673982408
 10
-470.3935168691985
 20
-11.18743870047189
 10
-468.8702523727241
 20
-10.30341642953159
 10
-467.5196610565833
 20
-9.58227580475464
 10
-465.8918417397974
 20
-8.783953565667968
 10
-464.4521266227458
 20
-8.136799866636292
 10
-462.7209065908124
 20
-7.425413755768281
 10
-461.193056905848
 20
-6.853306493651894
 10
-459.3595902639321
 20
-6.230092607367562
 10
-457.7445952440531
 20
-5.734091293336484
 10
-455.8100360973191
 20
-5.200285728000871
 10
-454.1088849755234
 20
-4.781449873225136
 10
-452.0743874291354
 20
-4.338288725203263
 10
-450.2880694384212
 20
-3.997677840852896
 10
-448.154787597544
 20
-3.646397206509796
 10
-446.2842919709097
 20
-3.385070803754802
 10
-444.0533799407077
 20
-3.126906779455503
 10
-442.0996959111509
 20
-2.945924369465928
 10
-440.1079508807241
 20
-2.802381152212406
 10
-437.8294162410024
 20
-2.683908217591069
 10
-435.4123921042205
 20
-2.607187464875006
 10
-433.0010154479266
 20
-2.582351363343021
 10
-430.5875391584161
 20
-2.610186694306156
 10
-428.6500403304817
 20
-2.670907107514164
 10
-426.5714548393387
 20
-2.77410925355555
 10
-424.2324118803621
 20
-2.94069438895492
 10
-421.9457425864526
 20
-3.158769816912731
 10
-419.711787710141
 20
-3.427971611258595
 10
-417.8391839142997
 20
-3.699132558072939
 10
-415.7040312794244
 20
-4.062317800156794
 10
-413.9166187970389
 20
-4.41349805620315
 10
-411.8814436521236
 20
-4.869411572090375
 10
-410.1802298390712
 20
-5.299535273996207
 10
-408.2462074326399
 20
-5.846921889752175
 10
-406.3671386747218
 20
-6.443043357062181
 10
-404.5433643178476
 20
-7.087535749755827
 10
-403.0243972805936
 20
-7.678181246191294
 10
-401.3042165629838
 20
-8.411539839043312
 10
-399.6403038250768
 20
-9.192229568220707
 10
-398.032999819403
 20
-10.01988650755307
 10
-396.7006248977984
 20
-10.76641294408872
 10
-395.1993554321697
 20
-11.68032918386909
 10
-393.7556682774332
 20
-12.64017284474619
 10
-392.3699041861195
 20
-13.6455800005496
 10
-391.228466720015
 20
-14.54334652275594
 10
-389.9511780695267
 20
-15.63240607929699
 10
-388.7327860611205
 20
-16.76598934170609
 10
-387.5736314473262
 20
-17.94373238381283
 10
-386.4740549806749
 20
-19.16527127944682
 10
-385.4343974136972
 20
-20.43024210243769
 10
-384.4549994989235
 20
-21.73828092661505
 10
-383.6637356323527
 20
-22.89345981241023
 10
-383.1610672147926
 20
-23.68089612998818
 10
-382.678345636111
 20
-24.4821068738476
 10
-381.8817711931333
 20
-25.917166144562
 10
-381.4542312590777
 20
-26.75590642764518
 10
-381.0468765913272
 20
-27.60816649479146
 10
-380.3827679584745
 20
-29.13194934841996
 10
-380.0312506107736
 20
-30.02103868868953
 10
-379.7001569568042
 20
-30.92339317080385
 10
-379.170078814064
 20
-32.53422851778852
 10
-378.7030837016386
 20
-34.18511647769067
 10
-378.2995123720589
 20
-35.87569312433997
 10
-378.0975073029468
 20
-36.85941627958143
 10
-377.9163868872579
 20
-37.85591226837883
 10
-377.6498710957664
 20
-39.63031063523895
 10
-377.5265113147023
 20
-40.66158178326494
 10
-377.4242746144878
 20
-41.70537112262851
 10
-377.2963790410723
 20
-43.56192012014152
 10
-377.2525586509059
 20
-44.63978435263322
 10
-377.2300997690161
 20
-45.72991213424417
 10
-377.2423890936637
 20
-47.66694067285217
 10
-377.3206335056699
 20
-49.64095444665576
 10
-377.4651737575653
 20
-51.65158952948459
 10
-377.5776648014385
 20
-52.81682602968819
 10
-377.7119783132796
 20
-53.99383377072221
 10
-377.9997285112141
 20
-56.08171762150067
 10
-378.3548454855627
 20
-58.20507901334023
 10
-378.7776699888557
 20
-60.36355402007055
 10
-379.3442422878677
 20
-62.87291201825541
 10
-379.9133017851759
 20
-65.10540501979001
 10
-380.5511397479534
 20
-67.37186786825124
 10
-381.2580969287308
 20
-69.6719366374687
 10
-382.1511208865683
 20
-72.34126992241302
 10
-383.0073381093364
 20
-74.71212591328947
 10
-383.9337454866294
 20
-77.11544405695805
 10
-384.9306837709778
 20
-79.5508604272484
 10
-386.156843303168
 20
-82.3730305287643
 10
-387.476078546117
 20
-85.23610627576996
 10
-388.2076177402426
 20
-86.75843998324973
 10
-389.5193991048615
 20
-89.23309875676833
 10
-387.8470459825627
 20
-90.66066119000607
 10
-385.9696756887294
 20
-92.16842204028661
 10
-384.0730849162124
 20
-93.59456356528695
 10
-382.1582969411619
 20
-94.94004390371141
 10
-380.2263350397281
 20
-96.20582119426427
 10
-378.2782224880613
 20
-97.3928535756498
 10
-376.3149825623119
 20
-98.5020991865724
 10
-374.3376385386296
 20
-99.5345161657363
 10
-373.3439972638607
 20
-100.0222133367538
 10
-371.8476835185693
 20
-100.7184567907128
 10
-370.3447313020684
 20
-101.3726967836052
 10
-368.835572308984
 20
-101.9853375301968
 10
-367.8262312869126
 20
-102.3708536144319
 10
-366.3076869875796
 20
-102.9150605388909
 10
-364.7840870973321
 20
-103.4187461230914
 10
-363.255863310796
 20
-103.8823145817995
 10
-362.2346918043652
 20
-104.1692725412279
 10
-360.6997208454054
 20
-104.5668773791503
 10
-359.1612771758258
 20
-104.9254429976224
 10
-357.6197924902526
 20
-105.2453736114103
 10
-356.5906597624052
 20
-105.4373964080076
 10
-355.0450660382331
 20
-105.6938336023569
 10
-353.4975824837362
 20
-105.9127136980641
 10
-351.9486407935403
 20
-106.0944409098953
 10
-350.9154161072195
 20
-106.1951515056371
 10
-349.3650035122496
 20
-106.3158554993767
 10
-347.8142839672498
 20
-106.4004845152825
 10
-346.263689166846
 20
-106.4494427681204
 10
-344.7136508056642
 20
-106.4631344726562
 10
-343.1646005783298
 20
-106.4419638436559
 10
-341.6169701794693
 20
-106.3863350958854
 10
-340.0711913037079
 20
-106.2966524441104
 10
-338.5276956456722
 20
-106.1733201030969
 10
-336.9869148999874
 20
-106.0167422876108
 10
-335.4492807612798
 20
-105.8273232124179
 10
-333.9152249241753
 20
-105.6054670922841
 10
-332.3851790832997
 20
-105.3515781419754
 10
-330.8595749332786
 20
-105.0660605762575
 10
-329.3388441687383
 20
-104.7493186098963
 10
-327.8234184843044
 20
-104.4017564576577
 10
-326.3137295746028
 20
-104.0237783343076
 10
-324.8102091342595
 20
-103.6157884546119
 10
-323.3132888579004
 20
-103.1781910333365
 10
-321.3284082167007
 20
-102.5493702719837
 10
-319.8485671354051
 20
-102.0442605333339
 10
-318.3767652001798
 20
-101.5108906356573
 10
-316.9134341056508
 20
-100.9496647937197
 10
-314.9762489817769
 20
-100.1587308450911
 10
-313.5343619946398
 20
-99.53407974618975
 10
-312.1023848302851
 20
-98.88292008558027
 10
-310.6807491833389
 20
-98.2056560780287
 10
-308.8020679311275
 20
-97.26272928218842
 10
-307.4062413039015
 20
-96.5261270780835
 10
-305.5635389695888
 20
-95.50554983672986
 10
-304.1958716994904
 20
-94.71181016090813
 10
-302.3922820662863
 20
-93.6165167738229
 10
-301.0551244907233
 20
-92.76784035112077
 10
-299.293781341838
 20
-91.60076511808595
 10
-297.5579860458413
 20
-90.39398912808414
 10
-295.8487618788837
 20
-89.14847051981948
 10
-294.1671321171152
 20
-87.8651674319964
 10
-292.5141200366861
 20
-86.54503800331914
 10
-291.2937568943024
 20
-85.53135002593996
 10
-289.8587522216796
 20
-84.28802099609375
 10
-289.4415225521088
 20
-83.95780291748049
 10
-289.1668895752154
 20
-83.70729305160044
 10
-288.6011090844929
 20
-83.11762469577789
 10
-288.0692940702498
 20
-82.46214363574981
 10
-287.6222505856178
 20
-81.80272568690776
 10
-287.2790549282528
 20
-81.18380996716024
 10
-286.9948114878408
 20
-80.52375177896022
 10
-286.881322877264
 20
-80.18078911590575
 10
-286.7904035548516
 20
-79.83053466379643
 10
-286.6961153305531
 20
-79.23328372955322
 10
-286.6781427874215
 20
-78.86846333754063
 10
-286.6838559534423
 20
-78.6231699937582
 10
-286.7412305013559
 20
-78.12892249858379
 10
-286.8650257051162
 20
-77.63176517140865
 10
-287.0614292063437
 20
-77.13406350600718
 10
-287.3366286466591
 20
-76.63818299615383
 10
-287.6968116676829
 20
-76.14648913562297
 10
-288.0865492127388
 20
-75.72155096070468
 10
-288.6227540753967
 20
-75.24408281259237
 10
-289.1760278564453
 20
-74.83523046874998
 10
-289.8121324906581
 20
-74.43637508268655
 10
-290.4521504943847
 20
-74.09120285644529
 10
-291.5866703235269
 20
-73.59667936134935
 10
-293.2417345479414
 20
-72.83873769666481
 10
-294.8836984511375
 20
-72.04820353827479
 10
-296.5120108894542
 20
-71.2252113905795
 10
-298.6609059345261
 20
-70.07763079814093
 10
-300.7832454831436
 20
-68.87290505778269
 10
-302.3567872100234
 20
-67.93205104250313
 10
-303.3968360110283
 20
-67.28712322840691
 10
-304.9430324325994
 20
-66.29329343428688
 10
-305.9643407118604
 20
-65.61317297540829
 10
-307.4816608735085
 20
-64.56674102578164
 10
-308.483207994616
 20
-63.85167700434329
 10
-310.4615682106377
 20
-62.37986576861739
 10
-312.4058610462309
 20
-60.85274263013007
 10
-313.8409380644843
 20
-59.67129363338873
 10
-315.7224694241866
 20
-58.04814183831439
 10
-317.108975
 20
-56.7950375
 10
-318.9237439890861
 20
-55.07683345065117
 10
-320.2586774514153
 20
-53.75280607249813
 10
-321.5705900066256
 20
-52.39860727984309
 10
-322.8589305110558
 20
-51.01437157708629
 10
-324.5390976217672
 20
-49.12223236777112
 10
-325.7702933379174
 20
-47.66843361411092
 10
-326.9760798577502
 20
-46.18504629834965
 10
-328.1559060376048
 20
-44.67220492488741
 10
-329.3092207338199
 20
-43.13004399812443
 10
-330.4354728027345
 20
-41.55869802246093
 10
-331.534111100687
 20
-39.95830150229707
 10
-332.6045844840169
 20
-38.32898894203305
 10
-333.987117645061
 20
-36.11182416493296
 10
-335.3172936212182
 20
-33.84381103850007
 10
-336.2797803107187
 20
-32.10962375773713
 10
-338.7851212890625
 20
-27.3947390625
 10
-340.5276952863216
 20
-24.21405774993896
 10
-341.709748866129
 20
-22.1099045059204
 10
-342.9082878032208
 20
-20.0187599899292
 10
-344.1234966335774
 20
-17.94059673614501
 10
-345.355559893179
 20
-15.87538727874755
 10
-346.6046621180058
 20
-13.8231041519165
 10
-347.870987844038
 20
-11.78371988983154
 10
-349.154721607256
 20
-9.75720702667236
 10
-350.4560479436398
 20
-7.74353809661865
 10
-352.9204380113542
 20
-4.038465087467424
 10
-353.7213430421491
 20
-2.886886023824188
 10
-354.5359858636729
 20
-1.759694990617775
 10
-355.3642371446266
 20
-0.6566702498384694
 10
-356.2059675537109
 20
0.4224099365234438
 10
-357.0610477596269
 20
1.477767306477676
 10
-358.2216975158964
 20
2.848391558441243
 10
-359.1074242927008
 20
3.849258004593107
 10
-360.0060697620063
 20
4.827140761036337
 10
-360.9175045925141
 20
5.782261565780644
 10
-362.1524220594823
 20
7.020731742566827
 10
-363.093195777743
 20
7.923603641162537
 10
-364.0463277528755
 20
8.804452714758371
 10
-365.0116886535808
 20
9.66350070136404
 10
-366.3176357587222
 20
10.77536846573455
 10
-367.3110278640449
 20
11.5844095638454
 10
-368.6538804839611
 20
12.63040630373955
 10
-369.6745996568287
 20
13.39064775363067
 10
-371.0534189420891
 20
14.3723831227486
 10
-372.4523690833123
 20
15.31812041022712
 10
-374.2288987463473
 20
16.45047043786049
 10
-375.6720224422276
 20
17.31713377106786
 10
-377.5027990638408
 20
18.35230439093512
 10
-378.9885443387888
 20
19.14255462598791
 10
-380.8716279494934
 20
20.0838719082348
 10
-382.782932740162
 20
20.97448563816296
 10
-384.7218599547804
 20
21.81542238063217
 10
-386.6878108373339
 20
22.6077087005022
 10
-388.6801866318084
 20
23.35237116263285
 10
-390.6983885821895
 20
24.05043633188391
 10
-392.7418179324627
 20
24.70293077311516
 10
-394.8098759266137
 20
25.31088105118638
 10
-396.9019638086282
 20
25.87531373095736
 10
-399.0174828224917
 20
26.39725537728788
 10
-401.1558342121898
 20
26.87773255503774
 10
-403.3164192217084
 20
27.31777182906671
 10
-405.4986390950329
 20
27.71839976423458
 10
-407.7018950761489
 20
28.08064292540113
 10
-410.372726867305
 20
28.46611222044183
 10
-412.620154664392
 20
28.74752238711194
 10
-414.8867025500246
 20
28.99383278733203
 10
-417.1717717681884
 20
29.20606998596193
 10
-419.9374599404579
 20
29.41722340154127
 10
-421.7950791780523
 20
29.53243103789017
 10
-424.6014823108673
 20
29.66821453437805
 10
-427.4309348861523
 20
29.76114128484801
 10
-430.2824022535144
 20
29.81298519337773
 10
-434.0835443359375
 20
29.82584169921875
 10
-436.6934553577383
 20
29.8055902773045
 10
-439.5398561748979
 20
29.74541200413704
 10
-442.3640366217352
 20
29.64380036487952
 10
-445.1649627720533
 20
29.49898263227344
 10
-447.0188172378061
 20
29.37755867114067
 10
-449.3204884780031
 20
29.19686676745778
 10
-451.1489346343281
 20
29.02854353118791
 10
-453.4178761819308
 20
28.78756560177878
 10
-455.6677968952947
 20
28.51165919849286
 10
-457.8980984374999
 20
28.19979843750001
 10
-459.6678117856203
 20
27.92373329722286
 10
-461.8612910107041
 20
27.54456946510553
 10
-463.60077106048
 20
27.21333232248493
 10
-465.7554893568241
 20
26.76354155563342
 10
-467.4631852189608
 20
26.37447331978159
 10
-469.5772039749465
 20
25.85073175458621
 10
-471.2515647601496
 20
25.40117333461541
 10
-472.9106121392876
 20
24.92387685302283
 10
-474.5540397638579
 20
24.41831705728744
 10
-476.5858923119128
 20
23.74582183771731
 10
-478.1930554019928
 20
23.17474913063051
 10
-479.7836031048715
 20
22.57370603870751
 10
-481.3572290720462
 20
21.94216730942727
 10
-482.9136269550144
 20
21.27960769026877
 10
-484.4524904052734
 20
20.58550192871095
 10
-485.9735130743206
 20
19.85932477223277
 10
-487.4763886136531
 20
19.10055096831322
 10
-488.9608106747686
 20
18.30865526443124
 10
-490.4264729091645
 20
17.4831124080658
 10
-491.8730689683378
 20
16.62339714669585
 10
-493.3002925037861
 20
15.72898422780037
 10
-494.7078371670069
 20
14.79934839885831
 10
-496.0953966094971
 20
13.83396440734863
 10
-497.4626644827544
 20
12.8323070007503
 10
-498.8093344382763
 20
11.79385092654227
 10
-499.8056352336326
 20
10.99054377304771
 10
-500.7900481384552
 20
10.1660203235723
 10
-501.7624439119699
 20
9.320058987208723
 10
-502.7226933134018
 20
8.452438173049678
 10
-503.6706671019768
 20
7.562936290187843
 10
-504.6062360369197
 20
6.651331747715906
 10
-506.1376002294284
 20
5.082271970393209
 10
-507.0394577109001
 20
4.1106436689697
 10
-507.9284364559002
 20
3.116100207942609
 10
-508.8044072236538
 20
2.098419996404624
 10
-509.6672407733867
 20
1.057381443448431
 10
-510.5168078643241
 20
-0.0072370418332789
 10
-511.3529792556915
 20
-1.095657050347822
 10
-512.7164789957113
 20
-2.963184523569825
 10
-513.5162966777722
 20
-4.116158594029897
 10
-514.8739003263951
 20
-6.141851737976087
 10
-516.1894335872174
 20
-8.145283607482927
 10
-517.4872266460897
 20
-10.16153377532961
 10
-519.4010570281984
 20
-13.21000341796877
 10
-520.6553069271087
 20
-15.25841949462893
 10
-521.8924624999999
 20
-17.31975000000003
 10
-523.7165476705071
 20
-20.43602039337162
 10
-524.9117747732638
 20
-22.52975713348392
 10
-526.0905534259318
 20
-24.63650443267827
 10
-527.8282842334744
 20
-27.82108026123051
 10
-529.9604183936638
 20
-31.843589310743
 10
-530.8880434761046
 20
-33.52849435043343
 10
-532.1690202851295
 20
-35.73354088544853
 10
-533.499357421875
 20
-37.8909003906251
 10
-534.5287881802395
 20
-39.4774509312735
 10
-535.5848144350646
 20
-41.03689201325185
 10
-536.6669348915444
 20
-42.56910127753772
 10
-537.7746482548714
 20
-44.07395636510856
 10
-538.9074532302395
 20
-45.55133491694189
 10
-540.0648485228417
 20
-47.0011145740152
 10
-541.246332837872
 20
-48.42317297730602
 10
-542.4514048805235
 20
-49.81738776779181
 10
-543.6795633559897
 20
-51.1836365864501
 10
-545.352153783299
 20
-52.96158757042146
 10
-546.6322311221957
 20
-54.2621066141725
 10
-548.3722271862625
 20
-55.95197378033404
 10
-549.7014941168649
 20
-57.18609687227761
 10
-551.505256788723
 20
-58.7869919847623
 10
-552.8809840393066
 20
-59.9540529479981
 10
-554.7448742899895
 20
-61.46508777093892
 10
-556.6414893074036
 20
-62.92437505722048
 10
-557.6016972741483
 20
-63.63452273780113
 10
-559.056467051141
 20
-64.67527233961972
 10
-560.0357355115191
 20
-65.35273792361471
 10
-561.5183997861743
 20
-66.34429443746808
 10
-562.5158004164696
 20
-66.98885133409503
 10
-564.0249667032137
 20
-67.93087487380954
 10
-566.060797264047
 20
-69.14040055408331
 10
-567.0884964244292
 20
-69.72515080467615
 10
-568.6418572692871
 20
-70.57715847778323
 10
-569.6850892931818
 20
-71.1283655868173
 10
-571.2610531905218
 20
-71.92988860449942
 10
-574.1770196691097
 20
-73.32594326785805
 10
-574.5542818385043
 20
-73.53849961584656
 10
-574.9115021823882
 20
-73.77389030990602
 10
-575.3565400315762
 20
-74.12090140542983
 10
-575.7657565216065
 20
-74.50283507690429
 10
-576.1390422541142
 20
-74.91645028600693
 10
-576.4762878307342
 20
-75.35850599441528
 10
-576.7773838531017
 20
-75.82576116380693
 10
-577.0422209228517
 20
-76.31497475585938
 10
-577.2706896416186
 20
-76.82290573225022
 10
-577.5049658849367
 20
-77.47920325514526
 10
-577.6180844327451
 20
-77.88195568475726
 10
-577.7367917083741
 20
-78.42659258422853
 10
-577.8016742467785
 20
-78.83902306099088
 10
-577.8558993269556
 20
-79.39160118339808
 10
-577.8731270155511
 20
-79.94426071978958
 10
-577.8617024338188
 20
-80.35685911289453
 10
-577.8139214473307
 20
-80.90186237529521
 10
-577.7536147221009
 20
-81.30499643295856
 10
-577.6404900280365
 20
-81.8324177415058
 10
-577.5310498849393
 20
-82.21864320383074
 10
-577.3522464508058
 20
-82.71855687866211
 10
-577.1934216154717
 20
-83.0804294857517
 10
-576.9486044087762
 20
-83.54290984700472
 10
-576.7401436068357
 20
-83.8729853389621
 10
-576.5103333270529
 20
-84.18715464079233
 10
-576.2591274169921
 20
-84.48405043945311
 10
-575.7927797028696
 20
-84.93677751821131
 10
-574.5056888646781
 20
-86.02090471707584
 10
-573.2909526962072
 20
-87.01393872795275
 10
-571.23080464223
 20
-88.62454243277315
 10
-569.5517705395221
 20
-89.8719752238274
 10
-567.4159569522352
 20
-91.37843319752275
 10
-565.6788954296599
 20
-92.54020379932064
 10
-563.4736788260154
 20
-93.93665203100001
 10
-561.683599897135
 20
-95.00806923482867
 10
-559.4152427940847
 20
-96.28864371360116
 10
-557.5771564724607
 20
-97.26501631074797
 10
-555.2519213869572
 20
-98.42385302572256
 10
-553.370837686151
 20
-99.30048980747463
 10
-550.9949871351461
 20
-100.3317247477604
 10
-549.0759160687201
 20
-101.1039345054051
 10
-547.1415698811863
 20
-101.8282264322547
 10
-545.1929382048532
 20
-102.5036738697982
 10
-542.738567283783
 20
-103.277883897315
 10
-540.7614116007798
 20
-103.840043138738
 10
-538.7731867339797
 20
-104.3503462506935
 10
-536.7748823156915
 20
-104.8078665746704
 10
-535.2701346219967
 20
-105.1158106700314
 10
-534.2643350665212
 20
-105.3041294777209
 10
-532.2469700005123
 20
-105.6395004335644
 10
-530.2227416880181
 20
-105.9190769612679
 10
-528.1926397613466
 20
-106.1419324023204
 10
-526.1576538528068
 20
-106.3071400982106
 10
-524.1187735947066
 20
-106.4137733904274
 10
-522.0769886193549
 20
-106.4609056204596
 10
-520.0332885590601
 20
-106.4476101297961
 10
-517.9886630461303
 20
-106.3729602599257
 10
-515.9441017128743
 20
-106.2360293523373
 10
-513.9005941916009
 20
-106.0358907485196
 10
-512.3692504404447
 20
-105.8437493019953
 10
-510.3299683928822
 20
-105.530767457734
 10
-508.2944616461506
 20
-105.1520296063378
 10
-506.2637198325579
 20
-104.7066090892955
 10
-504.7443857854217
 20
-104.3282257591729
 10
-502.7243639075646
 20
-103.7638808052075
 10
-501.2142063430845
 20
-103.2952399380087
 10
-499.2079351499079
 20
-102.6091326554298
 10
-497.709227129792
 20
-102.0481058323869
 10
-496.2161218924781
 20
-101.4468334715023
 10
-495.2240372314451
 20
-101.0234335449218
 10
-493.2483897707759
 20
-100.1219883999704
 10
-491.7745978886478
 20
-99.39763382120441
 10
-490.7960846329556
 20
-98.89152752593732
 10
-488.8492499874888
 20
-97.82310590737507
 10
-487.3985289707181
 20
-96.97215070419304
 10
-486.4360921271479
 20
-96.38099243588287
 10
-484.5230803104451
 20
-95.14090313499709
 10
-483.0991876692031
 20
-94.15982890086441
 10
-482.1553322445351
 20
-93.48127305515489
 10
-480.2811532701581
 20
-92.06482486323272
 10
-478.4258414893161
 20
-90.56848912188042
 10
-476.864403583082
 20
-89.23309502223344
  0
LWPOLYLINE
  5
35
330
17
100
AcDbEntity
  8
OUTLINE
100
AcDbPolyline
 90
474
 70
1
 10
-299.8806960455343
 20
-217.9252918810711
 10
-300.9206362451432
 20
-217.6445220278582
 10
-301.946661537075
 20
-217.3461878108025
 10
-302.9589523933442
 20
-217.0305247861097
 10
-303.9576892859652
 20
-216.6977685099855
 10
-304.9430526869526
 20
-216.3481545386357
 10
-305.9152230683207
 20
-215.981918428266
 10
-307.8207066602574
 20
-215.20052201529
 10
-309.6755838378906
 20
-214.3554637207031
 10
-310.5844962013798
 20
-213.90965025832
 10
-311.7775724758977
 20
-213.2916148857834
 10
-313.5277553767157
 20
-212.3150872235751
 10
-314.3854936698913
 20
-211.8050701927185
 10
-315.5115543657183
 20
-211.10301788553
 10
-317.1638207164868
 20
-210.0038672998711
 10
-317.9737738027317
 20
-209.4340699226266
 10
-319.0373374043783
 20
-208.6538983102335
 10
-319.8229636658072
 20
-208.0537436195255
 10
-320.8547465476036
 20
-207.2339505709648
 10
-321.6170285540731
 20
-206.604721039469
 10
-322.6183408091614
 20
-205.7470165183084
 10
-324.3304128520504
 20
-204.1960885885075
 10
-325.9932553392691
 20
-202.5841592178053
 10
-327.6091609338164
 20
-200.9142208424449
 10
-328.5123441599846
 20
-199.9350770911217
 10
-329.4013774640202
 20
-198.9385271014809
 10
-330.7093320968911
 20
-197.4122868227228
 10
-332.4077395447359
 20
-195.3215892678067
 10
-334.0572474433348
 20
-193.1713171577319
 10
-335.6612780768141
 20
-190.9659373361036
 10
-337.2232537293002
 20
-188.7099166465267
 10
-338.7465966849194
 20
-186.4077219326064
 10
-340.2347292277977
 20
-184.0638200379476
 10
-342.0505938994527
 20
-181.0820969037651
 10
-343.4720157400012
 20
-178.6606857493758
 10
-345.2153203546122
 20
-175.5962094128743
 10
-346.7640716956138
 20
-172.7968663009166
 10
-347.8213757756233
 20
-170.8011503408908
 10
-348.5850405499816
 20
-169.2961996086299
 10
-349.5732700767398
 20
-167.282348316139
 10
-352.678815689373
 20
-160.7322662137509
 10
-353.6438552124977
 20
-158.7321495426655
 10
-354.6332011282922
 20
-156.7471599296093
 10
-355.6581916707039
 20
-154.7818289488316
 10
-356.7301650736808
 20
-152.8406881745815
 10
-357.5717982845188
 20
-151.4034334420621
 10
-358.4510204284668
 20
-149.9842464691162
 10
-359.5306692787364
 20
-148.3539144602216
 10
-360.4111130907543
 20
-147.1086008787849
 10
-361.1928692830562
 20
-146.0469917333126
 10
-361.9867175793535
 20
-145.0067647802508
 10
-363.0638406182843
 20
-143.6527651075827
 10
-363.885563408623
 20
-142.6617738590576
 10
-364.7190865184301
 20
-141.6916024505816
 10
-365.5643224123478
 20
-140.7420821764469
 10
-366.7093721949517
 20
-139.5078875409066
 10
-367.5815975031796
 20
-138.6058971691462
 10
-368.7623154506015
 20
-137.434463397534
 10
-369.6610535917454
 20
-136.5790844192914
 10
-370.8768042621263
 20
-135.469186833132
 10
-371.8015786547931
 20
-134.6595007395507
 10
-373.0517266062749
 20
-133.6099146603686
 10
-374.0020606690706
 20
-132.8450029425919
 10
-375.2859704597951
 20
-131.8545036919117
 10
-376.5888874296608
 20
-130.8972184875905
 10
-377.9106040874482
 20
-129.9727474346161
 10
-379.2509129419387
 20
-129.0806906379759
 10
-380.9521281867613
 20
-128.0105929750879
 10
-382.3335108440639
 20
-127.1900061390609
 10
-384.0854118272163
 20
-126.2079806341268
 10
-385.5068178630345
 20
-125.4568392902128
 10
-387.3080915541462
 20
-124.5603553576073
 10
-388.7684705441836
 20
-123.8766350373062
 10
-390.6178039128842
 20
-123.0631620914042
 10
-392.1161054328443
 20
-122.4448383262157
 10
-394.0121854487629
 20
-121.7118457813919
 10
-395.5473590743494
 20
-121.156894102816
 10
-397.488872707116
 20
-120.5018513734452
 10
-399.455059879329
 20
-119.8890206341794
 10
-401.4455153347015
 20
-119.3176208400726
 10
-403.0550805306495
 20
-118.8898064230978
 10
-405.0881976498653
 20
-118.391014097013
 10
-407.1444483346366
 20
-117.9314657902382
 10
-409.2234273286758
 20
-117.5103804578273
 10
-411.3247293756963
 20
-117.1269770548343
 10
-413.4479492194103
 20
-116.7804745363132
 10
-415.5926816035309
 20
-116.4700918573178
 10
-417.7585212717707
 20
-116.1950479729022
 10
-419.9450629678429
 20
-115.9545618381202
 10
-422.1519014354599
 20
-115.7478524080258
 10
-424.3786314183346
 20
-115.5741386376731
 10
-426.6248476601801
 20
-115.4326394821158
 10
-428.8901449047088
 20
-115.322573896408
 10
-431.1741178956338
 20
-115.2431608356037
 10
-433.4763613766678
 20
-115.1936192547567
 10
-436.2626000000001
 20
-115.1725
 10
-439.0487525359899
 20
-115.1936192547567
 10
-441.3507975656991
 20
-115.2431608356037
 10
-443.6344632736206
 20
-115.322573896408
 10
-445.8993503668424
 20
-115.4326394821158
 10
-448.145059552452
 20
-115.5741386376731
 10
-450.3711915375371
 20
-115.7478524080258
 10
-452.5773470291854
 20
-115.9545618381202
 10
-454.7631267344844
 20
-116.1950479729021
 10
-456.9281313605221
 20
-116.4700918573178
 10
-459.0719616143856
 20
-116.7804745363131
 10
-461.1942182031633
 20
-117.1269770548343
 10
-463.2945018339423
 20
-117.5103804578273
 10
-465.3724132138103
 20
-117.9314657902382
 10
-467.4275530498555
 20
-118.391014097013
 10
-469.4595220491648
 20
-118.8898064230978
 10
-471.0681459213258
 20
-119.3176208400726
 10
-473.0574011963723
 20
-119.8890206341794
 10
-475.0223676145286
 20
-120.5018513734452
 10
-476.9626458828827
 20
-121.156894102816
 10
-478.4968247048709
 20
-121.7118457813919
 10
-480.3916580854417
 20
-122.4448383262157
 10
-481.888963513589
 20
-123.0631620914041
 10
-483.7370582973402
 20
-123.8766350373062
 10
-485.1964553644178
 20
-124.5603553576073
 10
-486.9965178423138
 20
-125.4568392902128
 10
-488.4169715810926
 20
-126.2079806341267
 10
-490.1677080440973
 20
-127.1900061390609
 10
-491.5481834873487
 20
-128.0105929750879
 10
-493.2483002264262
 20
-129.0806906379758
 10
-494.5877624069214
 20
-129.972747434616
 10
-495.9086642589332
 20
-130.8972184875905
 10
-497.2108013444902
 20
-131.8545036919116
 10
-498.4939692256214
 20
-132.8450029425918
 10
-499.4437736138483
 20
-133.6099146603685
 10
-500.6932534583664
 20
-134.6595007395506
 10
-501.6175570349009
 20
-135.469186833132
 10
-502.8327227515192
 20
-136.5790844192914
 10
-503.7310559478965
 20
-137.434463397534
 10
-504.9112814453287
 20
-138.6058971691461
 10
-505.7831746930839
 20
-139.5078875409066
 10
-506.927833880043
 20
-140.7420821764468
 10
-507.7728176107112
 20
-141.6916024505816
 10
-508.6061249457509
 20
-142.6617738590575
 10
-509.4276696378928
 20
-143.6527651075827
 10
-510.5046160468873
 20
-145.0067647802506
 10
-511.2983791662214
 20
-146.0469917333125
 10
-512.0800921517616
 20
-147.1086008787848
 10
-512.9605307212637
 20
-148.3539216955095
 10
-514.0401795715331
 20
-149.984269567871
 10
-514.9194017154813
 20
-151.4034662807225
 10
-515.7610349263192
 20
-152.8407275747299
 10
-516.8330083292961
 20
-154.781872779274
 10
-517.8579988717078
 20
-156.7472040418625
 10
-518.8473447875024
 20
-158.732190646553
 10
-519.812384310627
 20
-160.7323018774033
 10
-522.9179299232603
 20
-167.2823598773718
 10
-523.9061594500184
 20
-169.2962049696684
 10
-524.6698242243767
 20
-170.801152366066
 10
-525.7271283043862
 20
-172.7968663190842
 10
-527.2758796453879
 20
-175.5962094128743
 10
-529.0191842599988
 20
-178.6606857493758
 10
-530.4406061005473
 20
-181.0820969037651
 10
-532.2564707722023
 20
-184.0638200379476
 10
-533.7446033150809
 20
-186.4077219326064
 10
-535.2679462707
 20
-188.7099166465268
 10
-536.829921923186
 20
-190.9659373361036
 10
-538.4339525566653
 20
-193.171317157732
 10
-540.0834604552642
 20
-195.3215892678067
 10
-541.7818679031091
 20
-197.4122868227229
 10
-543.0898225359798
 20
-198.938527101481
 10
-543.9788558400156
 20
-199.9350770911217
 10
-544.8820390661836
 20
-200.9142208424449
 10
-546.4979446607309
 20
-202.5841592178053
 10
-548.1607871479496
 20
-204.1960885885075
 10
-549.8728591908387
 20
-205.7470165183085
 10
-550.8741714459269
 20
-206.604721039469
 10
-551.6364534523964
 20
-207.2339505709649
 10
-552.6682363341928
 20
-208.0537436195255
 10
-553.4538625956217
 20
-208.6538983102335
 10
-554.5174261972682
 20
-209.4340699226266
 10
-555.3273792835132
 20
-210.0038672998712
 10
-556.9796456342817
 20
-211.1030178855301
 10
-558.1057063301085
 20
-211.8050701927185
 10
-558.9634446232842
 20
-212.3150872235751
 10
-560.7136275241023
 20
-213.2916148857834
 10
-561.9067037986202
 20
-213.9096502583201
 10
-562.8156161621096
 20
-214.3554637207031
 10
-564.6704933397427
 20
-215.20052201529
 10
-566.5759769316792
 20
-215.9819184282661
 10
-567.5481473130473
 20
-216.3481545386357
 10
-568.5335107140347
 20
-216.6977685099855
 10
-569.5322476066556
 20
-217.0305247861097
 10
-570.544538462925
 20
-217.3461878108025
 10
-571.5705637548567
 20
-217.6445220278582
 10
-572.6105039544656
 20
-217.92529188107105
 42
0.39165627353647386
 10
-572.897755999956
 20
-220.9146106630259
 10
-571.4458344982394
 20
-222.0302507035278
 10
-570.3474533571891
 20
-222.8447476487935
 10
-569.2411034922624
 20
-223.6399720311232
 10
-568.1268953490732
 20
-224.4157297809601
 10
-566.6292513967333
 20
-225.4194565902234
 10
-565.4971367816531
 20
-226.1490374826335
 10
-564.3575320403567
 20
-226.8585048440278
 10
-563.2105476184587
 20
-227.5476646048494
 10
-561.6699464464232
 20
-228.4346192561903
 10
-560.506172280508
 20
-229.0756399007321
 10
-559.3353865860381
 20
-229.6957060461782
 10
-558.1576998086266
 20
-230.2946236229718
 10
-556.5769066478229
 20
-231.0599471897066
 10
-555.3835468542692
 20
-231.6087633913674
 10
-554.1836541298209
 20
-232.1357841258526
 10
-552.9773389200918
 20
-232.6408153236054
 10
-551.3591190014478
 20
-233.2796488790505
 10
-550.138247503451
 20
-233.7326164428175
 10
-548.9113216722204
 20
-234.1629475713291
 10
-547.6784519533692
 20
-234.5704481950283
 10
-546.4397487925119
 20
-234.9549242443584
 10
-545.1953226352625
 20
-235.3161816497624
 10
-543.9452839272345
 20
-235.6540263416834
 10
-542.6897431140424
 20
-235.9682642505646
 10
-541.0073207598506
 20
-236.3501910377026
 10
-539.739371211996
 20
-236.6085917378806
 10
-538.4662877110236
 20
-236.8427387564957
 10
-537.1881807025471
 20
-237.0524380239912
 10
-535.905160632181
 20
-237.2374954708099
 10
-534.6173379455391
 20
-237.3977170273952
 10
-533.3248230882353
 20
-237.5329086241901
 10
-532.0277265058837
 20
-237.6428761916377
 10
-530.726158644098
 20
-237.727425660181
 10
-529.4202299484923
 20
-237.7863629602634
 10
-528.1100508646808
 20
-237.8194940223277
 10
-526.7957318382773
 20
-237.8266247768171
 10
-525.4773833148956
 20
-237.8075611541748
 10
-524.1551157401501
 20
-237.7621090848438
 10
-522.8290395596541
 20
-237.6900744992674
 10
-521.4992652190223
 20
-237.5912633278884
 10
-520.1659031638683
 20
-237.4654815011501
 10
-518.8290638398059
 20
-237.3125349494956
 10
-517.4888576924493
 20
-237.132229603368
 10
-516.1453951674127
 20
-236.9243713932104
 10
-514.79878671031
 20
-236.6887662494659
 10
-513.4491427667548
 20
-236.4252201025777
 10
-512.0965737823612
 20
-236.1335388829887
 10
-510.7411902027434
 20
-235.8135285211421
 10
-509.3831024735152
 20
-235.4649949474811
 10
-508.0224210402906
 20
-235.0877440924488
 10
-506.6592563486836
 20
-234.6815818864882
 10
-505.293718844308
 20
-234.2463142600425
 10
-503.9259189727784
 20
-233.7817471435547
 10
-502.5559671797079
 20
-233.287686467468
 10
-500.2682321191311
 20
-232.3981836612702
 10
-498.8930818249543
 20
-231.8245247084193
 10
-497.5161845764883
 20
-231.2206606075942
 10
-496.1376508193468
 20
-230.5863972892381
 10
-494.7575909991442
 20
-229.921540683794
 10
-493.3761155614943
 20
-229.2258967217051
 10
-491.993334952011
 20
-228.4992713334143
 10
-490.6093596163081
 20
-227.7414704493649
 10
-489.5121135189066
 20
-227.11842797602645
 42
0.3784158138312062
 10
-489.3840265625
 20
-226.7367521484375
 10
-490.401598492135
 20
-225.3168999798551
 10
-491.5376457194134
 20
-223.6129495339796
 10
-492.6113923149896
 20
-221.8658824521258
 10
-493.6216175250754
 20
-220.0773998717174
 10
-494.567100595881
 20
-218.2492029301777
 10
-495.4466207736178
 20
-216.3829927649304
 10
-496.258957304497
 20
-214.4804705133989
 10
-496.8837028586387
 20
-212.8685241911888
 10
-497.5696988014101
 20
-210.9038480133891
 10
-498.1850522949217
 20
-208.9076796386719
 10
-498.7285425853848
 20
-206.8817202044606
 10
-499.1256749448672
 20
-205.1718909032598
 10
-499.5342454608723
 20
-203.0957327585622
 10
-499.8172350545047
 20
-201.3464535785794
 10
-500.0867827069281
 20
-199.2258144352913
 10
-500.2522102937741
 20
-197.4418501364395
 10
-500.3253196093559
 20
-196.3645969508171
 10
-500.378631993492
 20
-195.2824477064565
 10
-500.4244479238201
 20
-193.2864969623928
 10
-500.3716667432889
 20
-179.2104392437787
 10
-500.3383909405593
 20
-177.7871547285086
 10
-500.2406709065634
 20
-175.9300268673925
 10
-500.127789565827
 20
-174.5674297681228
 10
-499.9251129555657
 20
-172.79068695765
 10
-499.8016343646153
 20
-171.9193836386055
 10
-499.5890129900399
 20
-170.6336417387939
 10
-499.4291373840657
 20
-169.7905592504675
 10
-499.1623736021623
 20
-168.5469452150912
 10
-498.9667051347747
 20
-167.7318123819604
 10
-498.6467051759597
 20
-166.5299194477359
 10
-498.4158480007697
 20
-165.7424650942786
 10
-498.043518095459
 20
-164.5818864979223
 10
-497.7780763660774
 20
-163.821839448616
 10
-497.3543227446871
 20
-162.7021684268444
 10
-497.0549006147245
 20
-161.9692575061667
 10
-496.5806295076713
 20
-160.8900872956962
 10
-496.2478311307386
 20
-160.1840413281248
 10
-495.7239487684379
 20
-159.1449651656719
 10
-495.3583782981457
 20
-158.4655129756845
 10
-494.7857909110144
 20
-157.4661240979658
 10
-493.9776160780444
 20
-156.1703180337922
 10
-493.5545783068044
 20
-155.5380512811394
 10
-492.8966055756259
 20
-154.6090744724675
 10
-491.9761060843589
 20
-153.4064678047068
 10
-491.4975584698703
 20
-152.8205078806962
 10
-490.7571365811929
 20
-151.9606252280326
 10
-489.7282273470266
 20
-150.8494607392997
 10
-489.1961273469879
 20
-150.3089290352389
 10
-488.3761924873601
 20
-149.516822625545
 10
-487.2427884256925
 20
-148.4953430984552
 10
-486.6590934978026
 20
-147.9993610056519
 10
-485.7625818537728
 20
-147.2737129258887
 10
-484.5285978800013
 20
-146.3401611430572
 10
-483.8952654819591
 20
-145.8878500528188
 10
-482.9251132400754
 20
-145.2273423899478
 10
-481.5944642695982
 20
-144.3799611339896
 10
-479.8725952059134
 20
-143.3737572786064
 10
-478.4491961541279
 20
-142.6107893321366
 10
-476.6138363109317
 20
-141.7090038527484
 10
-474.7175405723109
 20
-140.8642794679181
 10
-472.7618193222928
 20
-140.0759382388398
 10
-471.1554709321382
 20
-139.4854055528409
 10
-469.0965899293527
 20
-138.7968455983253
 10
-466.9825124904451
 20
-138.1627705709051
 10
-464.8147489994421
 20
-137.5825025317745
 10
-462.5948098403709
 20
-137.0553635421276
 10
-460.3242053972585
 20
-136.5806756631584
 10
-458.0044460541319
 20
-136.1577609560612
 10
-455.6370421950176
 20
-135.78594148203
 10
-453.2235042039428
 20
-135.4645393022589
 10
-450.7653424649343
 20
-135.192876477942
 10
-448.264067362019
 20
-134.9702750702735
 10
-445.7211892792238
 20
-134.7960571404473
 10
-443.1382186005758
 20
-134.6695447496577
 10
-440.516665710102
 20
-134.5900599590988
 10
-438.3926591832742
 20
-134.5598764239402
 10
-435.1693996070729
 20
-134.5558001048939
 10
-432.5035411411927
 20
-134.5797466543998
 10
-429.8744517599449
 20
-134.6499072775693
 10
-427.2836418822811
 20
-134.7669599132083
 10
-424.7326219271525
 20
-134.9315825001226
 10
-422.222902313511
 20
-135.1444529771182
 10
-419.7559934603079
 20
-135.406249283001
 10
-417.3334057864949
 20
-135.7176493565767
 10
-414.9566497110234
 20
-136.0793311366515
 10
-412.6272356528447
 20
-136.491972562031
 10
-410.3466740309104
 20
-136.9562515715213
 10
-408.1164752641722
 20
-137.4728461039282
 10
-406.3695925080583
 20
-137.9242444812312
 10
-404.2338531364306
 20
-138.5367153606789
 10
-402.1527057930633
 20
-139.2033999916996
 10
-400.1276608969078
 20
-139.9249763130994
 10
-398.5490337435112
 20
-140.5422149621697
 10
-396.6287795080947
 20
-141.3643047320425
 10
-394.7688568929539
 20
-142.2431844209508
 10
-392.9707763170408
 20
-143.1795319677006
 10
-391.5778531260893
 20
-143.9704424376237
 10
-390.5602339743481
 20
-144.5882553298102
 10
-389.8948944765435
 20
-145.0119405342789
 10
-388.5960263296471
 20
-145.8878500528188
 10
-387.6500903376746
 20
-146.5699247532051
 10
-387.0330833638714
 20
-147.0366952211104
 10
-385.8321852669524
 20
-147.9993610056519
 10
-384.96086868919
 20
-148.7470154272766
 10
-384.3941517423497
 20
-149.2577497673111
 10
-383.2951387013301
 20
-150.3089290352391
 10
-382.50137779222
 20
-151.1234810911409
 10
-381.9869083753035
 20
-151.6790579119969
 10
-380.993695396106
 20
-152.8205078806962
 10
-380.2804264100895
 20
-153.7032754839139
 10
-379.8201620260583
 20
-154.3045733942838
 10
-378.936664114605
 20
-155.5380512811394
 10
-378.1031851240501
 20
-156.8129945100398
 10
-377.3204983888969
 20
-158.1297501856537
 10
-376.7672809641765
 20
-159.1449651656719
 10
-376.4147447058962
 20
-159.8350223256303
 10
-375.9105950228081
 20
-160.8900872956963
 10
-375.5910726760732
 20
-161.6068467034476
 10
-375.1368969859885
 20
-162.7021684268444
 10
-374.8509927183794
 20
-163.4459012579109
 10
-374.447697272669
 20
-164.5818864979224
 10
-374.1960152517662
 20
-165.3528639278264
 10
-373.8445063018009
 20
-166.5299194477359
 10
-373.6276506951854
 20
-167.328412652
 10
-373.3288344923365
 20
-168.5469452150913
 10
-373.1474094675884
 20
-169.3732253692375
 10
-372.9021922632263
 20
-170.633641738794
 10
-372.7568019879267
 20
-171.4879800183449
 10
-372.5098673042463
 20
-173.2305975034546
 10
-372.3220382218764
 20
-175.0187588104654
 10
-372.2204196699964
 20
-176.3899767289983
 10
-372.152809270005
 20
-177.7871547285087
 10
-372.1195332723961
 20
-179.2104392437787
 10
-372.0681216704747
 20
-193.4685624967361
 10
-372.0881000705934
 20
-194.5583993008206
 10
-372.1281297258637
 20
-195.6436944497967
 10
-372.188058042062
 20
-196.7242353014866
 10
-372.2677324249647
 20
-197.7998092137123
 10
-372.443988757921
 20
-199.5808172108451
 10
-372.7263444016255
 20
-201.6976488960753
 10
-373.019851901283
 20
-203.4435386143471
 10
-373.4408574004673
 20
-205.5153695089961
 10
-373.8481968258894
 20
-207.2213761884937
 10
-374.4037490914293
 20
-209.242488580666
 10
-375.0309611010529
 20
-211.2335263904403
 10
-375.7286121009715
 20
-213.1927884803931
 10
-376.3629147826932
 20
-214.8000064827348
 10
-377.1865333626172
 20
-216.6965948544289
 10
-378.0771321304343
 20
-218.5565876169348
 10
-379.0334903323553
 20
-220.3782836328293
 10
-379.8798076880998
 20
-221.8658819002131
 10
-380.9535542836763
 20
-223.6129489820669
 10
-382.0896015109545
 20
-225.3168994279424
 10
-383.14086007935543
 20
-226.78293025306627
 42
0.2660999089875569
 10
-383.0571742764318
 20
-227.0733546042964
 10
-381.8818403867814
 20
-227.7414698974522
 10
-380.4978650510789
 20
-228.4992707815016
 10
-379.1150844415953
 20
-229.2258961697924
 10
-377.7336090039454
 20
-229.9215401318813
 10
-375.434350298789
 20
-231.0126262240814
 10
-374.0568952756964
 20
-231.6266018341328
 10
-372.6811503916882
 20
-232.2103076063576
 10
-371.3072260923786
 20
-232.7639376103128
 10
-369.9352328233817
 20
-233.2876859155553
 10
-368.5652810303114
 20
-233.781746591642
 10
-367.1974811587815
 20
-234.2463137081298
 10
-365.831943654406
 20
-234.6815813345755
 10
-364.468778962799
 20
-235.0877435405361
 10
-363.1080975295744
 20
-235.4649943955684
 10
-361.7500098003463
 20
-235.8135279692294
 10
-360.3946262207284
 20
-236.133538331076
 10
-359.0420572363349
 20
-236.4252195506649
 10
-357.6924132927797
 20
-236.6887656975532
 10
-356.3458048356768
 20
-236.9243708412977
 10
-355.0023423106402
 20
-237.1322290514553
 10
-353.6621361632838
 20
-237.3125343975829
 10
-352.3252968392216
 20
-237.4654809492374
 10
-350.9919347840675
 20
-237.5912627759757
 10
-349.6621604434355
 20
-237.6900739473546
 10
-348.3360842629397
 20
-237.7621085329311
 10
-347.0138166881941
 20
-237.8075606022621
 10
-345.6954681648124
 20
-237.8266242249044
 10
-344.3811491384089
 20
-237.819493470415
 10
-343.0709700545972
 20
-237.7863624083507
 10
-341.7650413589915
 20
-237.7274251082683
 10
-340.4634734972059
 20
-237.642875639725
 10
-339.1663769148543
 20
-237.5329080722774
 10
-337.8738620575504
 20
-237.3977164754825
 10
-336.5860393709085
 20
-237.2374949188972
 10
-335.3030193005424
 20
-237.0524374720784
 10
-334.0249122920662
 20
-236.842738204583
 10
-332.7518287910937
 20
-236.6085911859678
 10
-331.4838792432388
 20
-236.3501904857899
 10
-329.8014568890474
 20
-235.9682636986519
 10
-328.5459160758552
 20
-235.6540257897707
 10
-327.2958773678272
 20
-235.3161810978497
 10
-326.0514512105776
 20
-234.9549236924457
 10
-324.8127480497203
 20
-234.5704476431156
 10
-323.5798783308693
 20
-234.1629470194163
 10
-322.3529524996384
 20
-233.7326158909047
 10
-321.1320810016418
 20
-233.2796483271378
 10
-319.5138610829979
 20
-232.6408147716927
 10
-318.3075458732686
 20
-232.1357835739399
 10
-317.1076531488203
 20
-231.6087628394547
 10
-315.9142933552667
 20
-231.0599466377939
 10
-314.3335001944631
 20
-230.294623071059
 10
-313.1558134170515
 20
-229.6957054942655
 10
-311.9850277225814
 20
-229.0756393488193
 10
-310.8212535566666
 20
-228.4346187042775
 10
-309.280652384631
 20
-227.5476640529367
 10
-308.1336679627329
 20
-226.8585042921149
 10
-306.9940632214366
 20
-226.1490369307207
 10
-305.8619486063561
 20
-225.4194560383106
 10
-304.3643046540163
 20
-224.4157292290474
 10
-303.2500965108272
 20
-223.6399714792105
 10
-301.7767287310153
 20
-222.5753799273255
 10
-300.317593020681
 20
-221.476641045514
 10
-299.61184463988565
 20
-220.9146106630259
 42
0.3916562735364708
  0
LWPOLYLINE
  5
36
330
17
100
AcDbEntity
  8
OUTLINE
100
AcDbPolyline
 90
197
 70
1
 10
395.4389908353851
 20
-179.8841
 10
395.4559545289964
 20
-177.7091162410736
 10
395.4482175246269
 20
-175.9678465801238
 10
395.4116976318524
 20
-173.7890854125976
 10
395.3608440679476
 20
-172.0439132019043
 10
395.2700163627208
 20
-169.8591730686187
 10
395.1753868584275
 20
-168.1083370624542
 10
394.9269947219134
 20
-164.5970694080353
 10
394.731336778836
 20
-162.3950289550781
 10
394.5522203356788
 20
-160.6286892944336
 10
394.2998734826237
 20
-158.414309821701
 10
394.0750762210578
 20
-156.6372183223724
 10
393.7652162319586
 20
-154.4082982727051
 10
393.4940787711308
 20
-152.6186936889648
 10
392.889251709716
 20
-149.0207564941406
 10
392.4685069826485
 20
-146.7583641925812
 10
392.1080389828622
 20
-144.9403184085846
 10
391.3228901806414
 20
-141.2810630832671
 10
390.7883199584052
 20
-138.9773435913086
 10
390.3361688139006
 20
-137.12457265625
 10
389.7401474866362
 20
-134.7957940364838
 10
389.3267129161523
 20
-133.2651724517703
 10
388.9863035833404
 20
-132.1001723686218
 10
388.5459703805016
 20
-130.6876175423622
 10
388.0763411466644
 20
-129.2643738342285
 10
387.583176623063
 20
-127.8359354811668
 10
386.8989703108833
 20
-125.9327666636467
 10
386.0200787260101
 20
-123.574394921875
 10
385.1992908353851
 20
-121.4186
 10
384.906296023868
 20
-120.7590035932183
 10
384.1659706998539
 20
-120.6316096532175
 10
378.3978135975873
 20
-119.9669258921965
 10
374.2041782142686
 20
-119.5252559329037
 10
369.4183180297863
 20
-119.0593793229506
 10
365.0032123171066
 20
-118.6624712728484
 10
360.4914519944077
 20
-118.2867660739448
 10
355.8883421683249
 20
-117.9322636243998
 10
350.6730898729836
 20
-117.5632393120153
 10
346.4292944325481
 20
-117.2868665660246
 10
341.0411710068745
 20
-116.9649588960855
 10
335.5671961978053
 20
-116.6692269430383
 10
330.0146472435233
 20
-116.3996705671845
 10
325.5209249996033
 20
-116.2028717882036
 10
319.8452812241588
 20
-115.9804310992582
 10
314.1114395704132
 20
-115.7841655963509
 10
308.3266772765491
 20
-115.6140751397832
 10
298.9833066614245
 20
-115.3963741569741
 10
294.2790385528778
 20
-115.3126513971312
 10
288.3755798242178
 20
-115.2315550531744
 10
283.6388549635347
 20
-115.1855235755144
 10
277.7066144205604
 20
-115.1515411079748
 10
268.2059637931858
 20
-115.1515406680925
 10
262.2737051921089
 20
-115.1855214617661
 10
257.5369642608662
 20
-115.2315508318803
 10
248.1034942942757
 20
-115.3738629592022
 10
242.2453892651472
 20
-115.4968342841788
 10
237.5857867254887
 20
-115.6140569342895
 10
228.3541016328011
 20
-115.8987579014821
 10
222.6542790862966
 20
-116.110723795045
 10
218.1391180667628
 20
-116.2991429549789
 10
209.243824105059
 20
-116.7262392216957
 10
203.7864129518542
 20
-117.0272037211282
 10
199.4829965809856
 20
-117.2868226207121
 10
195.2391835578952
 20
-117.5631948696001
 10
191.0587000073466
 20
-117.8563206466062
 10
186.4359939851129
 20
-118.2061130699612
 10
182.4024574623445
 20
-118.5348406879365
 10
178.4438945520038
 20
-118.8803223928235
 10
174.5640313788541
 20
-119.2425583634361
 10
170.2978955506582
 20
-119.6701006362698
 10
166.141385315234
 20
-120.1188480075741
 10
161.7457612616226
 20
-120.6316662370309
 10
161.0146391620516
 20
-120.7551850339293
 10
160.8429188674927
 20
-121.104580014801
 10
160.6306210083007
 20
-121.6298721252441
 10
159.538907705307
 20
-124.5135739494323
 10
158.6680495617389
 20
-126.8834705353736
 10
157.6764512097835
 20
-129.7396369067192
 10
157.2159453125
 20
-131.159928125
 10
156.78664539361
 20
-132.5676990490913
 10
156.4568873617947
 20
-133.7273135515809
 10
156.0500875730991
 20
-135.2627239155292
 10
155.1238709817409
 20
-138.9773566455364
 10
154.3849466419585
 20
-142.1988855043506
 10
153.7120387134731
 20
-145.3955134263455
 10
153.1044493397019
 20
-148.5691070485048
 10
152.4891481780849
 20
-152.1702604427568
 10
151.9572078625105
 20
-155.7465526276163
 10
151.5075866945229
 20
-159.3007699533336
 10
151.1392429756664
 20
-162.8356987701587
 10
150.851135007485
 20
-166.354125428342
 10
150.642221091523
 20
-169.8588362781338
 10
150.5114595293246
 20
-173.3526176697842
 10
150.457808622434
 20
-176.8382559535436
 10
150.4733
 20
-179.8837
 10
150.4563223615654
 20
-182.0586837589264
 10
150.4640491931058
 20
-183.7999534198761
 10
150.5005575399578
 20
-185.9787145874023
 10
150.5514027596295
 20
-187.7238867980955
 10
150.7113493804514
 20
-191.2214785339355
 10
150.851135007485
 20
-193.4133815242767
 10
151.0218558111668
 20
-195.6106446411132
 10
151.2237661124088
 20
-197.8139473773956
 10
151.4079216952987
 20
-199.5813947116851
 10
151.6666139808476
 20
-201.797281085205
 10
151.896524751085
 20
-203.5756759521484
 10
152.2128230206959
 20
-205.8063475200653
 10
152.4891481780849
 20
-207.59745116539
 10
152.8638764315128
 20
-209.8451094848633
 10
153.2714218363382
 20
-212.1031561786651
 10
153.7120387134731
 20
-214.372270739746
 10
154.1859813838296
 20
-216.6531326610565
 10
154.6935041683197
 20
-218.9464214355468
 10
155.2348613878556
 20
-221.2528165561675
 10
155.8103073633492
 20
-223.5729975158691
 10
156.3943047554016
 20
-225.8103445579529
 10
156.7866154305457
 20
-227.2001009509086
 10
157.215903125
 20
-228.607871875
 10
157.6764070975303
 20
-230.0281630932808
 10
158.162366606903
 20
-231.4554803688049
 10
158.8399532844543
 20
-233.3600032798767
 10
159.7153709437369
 20
-235.7246461693764
 10
160.7129
 20
-238.3492
 10
161.0037327406883
 20
-239.0071229344368
 10
161.2213749092102
 20
-239.0554225364685
 10
161.7462198431344
 20
-239.1361903467825
 10
167.0553087431827
 20
-239.7505061829061
 10
171.7080221984518
 20
-240.2425695641543
 10
176.4938926154823
 20
-240.7084539162618
 10
180.909010267106
 20
-241.1053670518952
 10
185.4207848507037
 20
-241.4810757114142
 10
190.0239110050398
 20
-241.8355801494191
 10
195.2391835578951
 20
-242.2046051304
 10
199.4829965809855
 20
-242.480977379288
 10
204.871143412416
 20
-242.8028833138937
 10
210.3451428873214
 20
-243.0986124894576
 10
215.8977174182731
 20
-243.3681652552257
 10
220.3914605446357
 20
-243.5649606874803
 10
226.0671306561504
 20
-243.7873967957156
 10
231.8009985789109
 20
-243.9836574720437
 10
237.5857867254887
 20
-244.1537430657106
 10
246.929196967331
 20
-244.3714367153602
 10
251.6334837072764
 20
-244.4551562431412
 10
257.5369642608662
 20
-244.5362491681198
 10
262.2737051921089
 20
-244.582278538234
 10
268.2059637931858
 20
-244.6162593319075
 10
277.7066144205604
 20
-244.6162588920253
 10
283.6388549635347
 20
-244.5822764244856
 10
288.3755798242178
 20
-244.5362449468257
 10
297.8090140787747
 20
-244.3939270111802
 10
303.6670948846314
 20
-244.2709512859838
 10
308.3266772765491
 20
-244.1537248602169
 10
317.5583207827184
 20
-243.8690161164062
 10
323.2581169780653
 20
-243.6570455186399
 10
327.7732570025038
 20
-243.4686228528353
 10
336.6685099628579
 20
-243.0415207169982
 10
342.1258966743026
 20
-242.7405536317485
 10
346.4292944325481
 20
-242.4809334339755
 10
350.6730898729836
 20
-242.2045606879847
 10
354.8535570496593
 20
-241.9114353222507
 10
359.4762463188029
 20
-241.5616445809551
 10
363.5097696300789
 20
-241.2329196607792
 10
367.4683210965029
 20
-240.8874418973424
 10
371.3481747721254
 20
-240.5252112191194
 10
375.6143024647917
 20
-240.0976766486051
 10
379.7708075089973
 20
-239.6489389779498
 10
384.166427836489
 20
-239.1361337629691
 10
384.9026397760438
 20
-239.0106296440124
 10
385.0237190580414
 20
-238.7660176269531
 10
385.1992908353851
 20
-238.3492
 10
385.8432808324383
 20
-236.6602992865562
 10
386.7245645078705
 20
-234.3092161437988
 10
387.5831409594105
 20
-231.9318645188331
 10
388.0762981809663
 20
-230.5034261657715
 10
388.5459265500591
 20
-229.0801824576377
 10
388.9862682222413
 20
-227.6676276313782
 10
389.3266938329325
 20
-226.5026275482297
 10
389.7401474866361
 20
-224.9720021955989
 10
390.3361688139008
 20
-222.6432153564453
 10
390.7883199584052
 20
-220.7904433544635
 10
391.3228901806414
 20
-218.4867287691779
 10
392.1080389828623
 20
-214.8274939053901
 10
392.4685069826485
 20
-213.0094633365966
 10
392.889251709716
 20
-210.7470939432442
 10
393.4940787711308
 20
-207.1492005786955
 10
393.7652162319586
 20
-205.3596203866661
 10
394.0750762210578
 20
-203.1307323647164
 10
394.2998734826237
 20
-201.3536672385805
 10
394.5522203356788
 20
-199.1393210257053
 10
394.731336778836
 20
-197.3730077281951
 10
394.9269947219134
 20
-195.17099927781
 10
395.1753868584275
 20
-191.6597788176037
 10
395.2700163627208
 20
-189.9089637218662
 10
395.3608440679476
 20
-187.7242464241445
 10
395.4116976318524
 20
-185.9790893604815
 10
395.4482175246269
 20
-183.8003425795607
 10
395.4559545289964
 20
-182.0590803107045
  0
LWPOLYLINE
  5
37
330
17
100
AcDbEntity
  8
OUTLINE
100
AcDbPolyline
 90
206
 70
1
 10
10.1070898724985
 20
-183.2572
 10
10.12584546419649
 20
-181.0822162410736
 10
10.11730147009759
 20
-179.3409465801238
 10
10.07694990905045
 20
-177.1621854125976
 10
10.02075610299824
 20
-175.4170132019042
 10
9.920387164812974
 20
-173.2322730686187
 10
9.815815367293048
 20
-171.4814370624541
 10
9.689508503597667
 20
-169.7275184757232
 10
9.54132273579805
 20
-167.9701694080352
 10
9.32510418905734
 20
-165.768128955078
 10
9.12716497959613
 20
-164.0017892944335
 10
8.84829951858192
 20
-161.7874098217009
 10
8.599878687944702
 20
-160.0103183223723
 10
8.25745608826398
 20
-157.781398272705
 10
7.957825456936348
 20
-155.9917936889647
 10
7.635201177556504
 20
-154.1960623962401
 10
7.289439412195673
 20
-152.3938564941405
 10
6.824480987739255
 20
-150.1314641925811
 10
6.426133971494131
 20
-148.3134184085845
 10
6.004181995999505
 20
-146.4877673389434
 10
5.558481223326615
 20
-144.6541630832671
 10
4.967739383358947
 20
-142.3504435913085
 10
4.468077909607877
 20
-140.4976726562499
 10
3.809430081095985
 20
-138.1688940364837
 10
3.35256184064268
 20
-136.6382724517702
 10
2.976393016953457
 20
-135.4732723686217
 10
2.489801250834455
 20
-134.0607175423621
 10
1.970833784241665
 20
-132.6374738342284
 10
1.425856786627758
 20
-131.2090354811667
 10
0.6697647751760385
 20
-129.3058666636466
 10
-0.3014696978139972
 20
-126.9474949218749
 10
-1.208460127501503
 20
-124.7916999999999
 10
-1.532187448363318
 20
-124.1321035932182
 10
-2.246262178282753
 20
-124.0181005385397
 10
-3.230952389201831
 20
-123.9086391673024
 10
-9.743875014126054
 20
-123.2400446433929
 10
-14.93042923001175
 20
-122.7558444106562
 10
-20.80249385394598
 20
-122.2534581026576
 10
-26.28369548718887
 20
-121.8242285329151
 10
-31.89274072112958
 20
-121.421175252828
 10
-38.20075202344335
 20
-121.0080500925538
 10
-44.05209296295767
 20
-120.6599665660245
 10
-50.00634811660624
 20
-120.3380588960854
 10
-56.05547574678783
 20
-120.0423269430382
 10
-62.19143411590136
 20
-119.7727705671844
 10
-69.65787796768522
 20
-119.4838544813601
 10
-75.95655704609281
 20
-119.2718838835937
 10
-82.31633330310858
 20
-119.0860884159861
 10
-88.72916500113136
 20
-118.9264679388386
 10
-96.48327345434554
 20
-118.769474156974
 10
-106.8988974312914
 20
-118.6187803629619
 10
-117.3721133138312
 20
-118.5350931855423
 10
-127.8699858008994
 20
-118.5183767870349
 10
-138.3596557745112
 20
-118.5685584013147
 10
-148.8082151085509
 20
-118.6857437568588
 10
-159.1827225569857
 20
-118.8699342841787
 10
-169.450236873783
 20
-119.1211314137859
 10
-179.5778168129099
 20
-119.4393365761918
 10
-189.5325211283339
 20
-119.824551201908
 10
-199.2814085740222
 20
-120.276776721446
 10
-204.0683768313302
 20
-120.5280190134329
 10
-208.791537903942
 20
-120.7960145653171
 10
-213.4467741361035
 20
-121.0807635559124
 10
-218.0299678720607
 20
-121.3822661640329
 10
-222.5370014560594
 20
-121.7005225684923
 10
-226.9637572323455
 20
-122.0355329481048
 10
-231.306117545165
 20
-122.3872974816841
 10
-235.0332151409582
 20
-122.7088352310636
 10
-239.7211811573876
 20
-123.1410897259993
 10
-243.7856491452827
 20
-123.543117794363
 10
-248.1404952513345
 20
-124.0047662370309
 10
-248.95417616539
 20
-124.1302703559875
 10
-249.1382979576111
 20
-124.477680014801
 10
-249.3728582946777
 20
-125.0029721252441
 10
-250.7737356688499
 20
-128.3585517880439
 10
-251.7298960449219
 20
-130.7326846191406
 10
-252.2821193778038
 20
-132.1616335789679
 10
-252.8104607078552
 20
-133.5872193061828
 10
-253.3085567624092
 20
-135.0039475638389
 10
-253.6959419909835
 20
-136.1738245020032
 10
-254.0883076326445
 20
-137.445383094047
 10
-254.6995851886868
 20
-139.5679121386587
 10
-255.2113368179202
 20
-141.4251849669396
 10
-255.6989440956712
 20
-143.2735432160675
 10
-256.494592123501
 20
-146.4877670483432
 10
-256.9165440989956
 20
-148.3134060946099
 10
-257.3148911152407
 20
-150.1314366634033
 10
-257.6897770101651
 20
-151.9422070485047
 10
-258.0413456216976
 20
-153.7460655436955
 10
-258.3697407877669
 20
-155.5433604427568
 10
-258.6751063463017
 20
-157.33444003947
 10
-258.9575861352309
 20
-159.1196526276163
 10
-259.2173239924833
 20
-160.8993465009771
 10
-259.4544637559875
 20
-162.6738699533335
 10
-259.6691492636725
 20
-164.443571278467
 10
-259.8615243534669
 20
-166.2087987701587
 10
-260.0317328632995
 20
-167.9699007221899
 10
-260.1799186310992
 20
-169.727225428342
 10
-260.3062254947945
 20
-171.4811211823962
 10
-260.4107972923145
 20
-173.2319362781338
 10
-260.4937778615877
 20
-174.980019009336
 10
-260.555311040543
 20
-176.7257176697842
 10
-260.5955406671092
 20
-178.4693805532596
 10
-260.6160887078643
 20
-180.6466269500434
 10
-260.5975
 20
-183.2568
 10
-260.6160887078643
 20
-185.8669779785156
 10
-260.5874726023674
 20
-188.4799821899414
 10
-260.5272163849846
 20
-190.6604917285919
 10
-260.4549774906114
 20
-192.4073561771393
 10
-260.3612192869559
 20
-194.156781355667
 10
-260.2457979360894
 20
-195.909115164566
 10
-260.070838318646
 20
-198.1041526916504
 10
-259.9061489791274
 20
-199.8643029296875
 10
-259.6691492636726
 20
-202.0702117717743
 10
-259.4544637559876
 20
-203.8399396846771
 10
-259.1545137181283
 20
-206.0589213989258
 10
-258.8891038627625
 20
-207.8399882324219
 10
-258.5252932781057
 20
-210.0742443759918
 10
-258.2084308955446
 20
-211.8684113758087
 10
-257.7798495396972
 20
-214.1201435058594
 10
-257.3148911152408
 20
-216.3825358074188
 10
-256.8132746887208
 20
-218.6562677734375
 10
-256.3853989987374
 20
-220.4838745239257
 10
-255.8170902161971
 20
-222.7797302082062
 10
-255.2113368179202
 20
-225.088828137207
 10
-254.5678578704521
 20
-227.4118478038788
 10
-253.9850811120569
 20
-229.4135864484191
 10
-253.6207054741383
 20
-230.5732009509086
 10
-253.1463203125
 20
-231.980971875
 10
-252.6374373939037
 20
-233.4012630932808
 10
-251.9162669141292
 20
-235.3049645188331
 10
-251.1601749026775
 20
-237.2081333363532
 10
-250.1889404296875
 20
-239.566505078125
 10
-249.28195
 20
-241.7223
 10
-248.9582228973091
 20
-242.3818964067817
 10
-248.2441873493672
 20
-242.4958994614601
 10
-247.2594576633097
 20
-242.6053634232714
 10
-240.7465291656702
 20
-243.2739740161205
 10
-235.5599647387638
 20
-243.7581836519556
 10
-229.6878838958655
 20
-244.2605776071765
 10
-224.2066635909089
 20
-244.6898119052205
 10
-218.5975965224829
 20
-245.092868012314
 10
-212.2895582161545
 20
-245.5059943363944
 10
-206.4381906192078
 20
-245.854077379288
 10
-200.4839073776155
 20
-246.1759833138938
 10
-194.4347507877721
 20
-246.4717124894576
 10
-188.2987631460725
 20
-246.7412652552257
 10
-180.8322845409064
 20
-247.0301762049551
 10
-174.5335774684323
 20
-247.2421420985179
 10
-168.173774692565
 20
-247.427932699872
 10
-161.7609185096992
 20
-247.5875483582633
 10
-154.0067841463459
 20
-247.7445367153602
 10
-143.5911330993546
 20
-247.8952244779783
 10
-133.1179007897747
 20
-247.9789077840763
 10
-122.6200247955692
 20
-247.9956231007594
 10
-112.1303650691879
 20
-247.9454390170591
 10
-101.6818277697933
 20
-247.8282486028688
 10
-91.30735185459984
 20
-247.6440512859838
 10
-81.03987628082167
 20
-247.3928464941995
 10
-70.91234000567327
 20
-247.0746336553114
 10
-60.95768198636902
 20
-246.6894121971148
 10
-51.20884118012323
 20
-246.2371815474051
 10
-46.42189565602672
 20
-245.9859375969188
 10
-41.69875654415024
 20
-245.7179411339776
 10
-37.04354121414556
 20
-245.433192087056
 10
-32.46036703566447
 20
-245.1316903846281
 10
-27.95335137835875
 20
-244.8134359551685
 10
-23.52661161188021
 20
-244.4784287271517
 10
-19.18426510588064
 20
-244.126668629052
 10
-15.45717755900217
 20
-243.8051358982463
 10
-10.76922135392562
 20
-243.3728895365017
 10
-6.704758847273744
 20
-242.970870399
 10
-2.349916613440528
 20
-242.5092337629691
 10
-1.536234590392128
 20
-242.3837296440125
 10
-1.402441328673378
 20
-242.1391176269531
 10
-1.208460127501503
 20
-241.7223
 10
-0.3014737993765047
 20
-239.566505078125
 10
0.6697438543748704
 20
-237.2081333363533
 10
1.425821122975335
 20
-235.3049645188331
 10
1.97079081854342
 20
-233.8765261657715
 10
2.489757420392023
 20
-232.4532824576376
 10
2.976357655854213
 20
-231.0407276313782
 10
3.352542757422911
 20
-229.8757275482297
 10
3.80943008109599
 20
-228.3451021955989
 10
4.46807790960788
 20
-226.0163153564453
 10
4.967739383358951
 20
-224.1635433544635
 10
5.558481223326618
 20
-221.8598287691779
 10
6.004181995999508
 20
-220.0262329516567
 10
6.42613397149413
 20
-218.2005939053901
 10
6.824480987739256
 20
-216.3825633365966
 10
7.289439412195675
 20
-214.1201939432442
 10
7.635201177556505
 20
-212.3180089996278
 10
7.95782545693635
 20
-210.5223005786955
 10
8.257456088263979
 20
-208.7327203866661
 10
8.599878687944699
 20
-206.5038323647164
 10
8.848299518581916
 20
-204.7267672385804
 10
9.127164979596126
 20
-202.5124210257053
 10
9.325104189057338
 20
-200.7461077281952
 10
9.54132273579805
 20
-198.54409927781
 10
9.689508503597665
 20
-196.7867745716579
 10
9.815815367293048
 20
-195.0328788176037
 10
9.92038716481297
 20
-193.2820637218661
 10
10.02075610299824
 20
-191.0973464241445
 10
10.07694990905045
 20
-189.3521893604815
 10
10.11730147009759
 20
-187.1734425795606
 10
10.12584546419649
 20
-185.4321803107046
  0
LWPOLYLINE
  5
38
330
17
100
AcDbEntity
  8
OUTLINE
100
AcDbPolyline
 90
4
 70
1
 10
-444.252449093029
 20
71.93966958861165
 10
-408.2524490930291
 20
71.93966958861165
 10
-408.2524490930291
 20
155.9396695886116
 10
-444.252449093029
 20
155.9396695886116
  0
LWPOLYLINE
  5
39
330
17
100
AcDbEntity
  8
OUTLINE
100
AcDbPolyline
 90
71
 70
1
 10
-473.7632490930291
 20
115.1065695886116
 10
-473.7456276544303
 20
114.6922712926369
 10
-473.6942863733024
 20
114.2929342950325
 10
-473.6115098016472
 20
113.9082704312782
 10
-473.4782542524071
 20
113.4776566926937
 10
-473.3352051671716
 20
113.123796054552
 10
-473.1378877618523
 20
112.7283302953224
 10
-472.9112580594749
 20
112.3511366645794
 10
-472.6589438440056
 20
111.9917575677375
 10
-472.3845728994103
 20
111.6497354102115
 10
-472.048651582882
 20
111.2795193377476
 10
-471.6940750417442
 20
110.9306928221683
 10
-471.3262585103723
 20
110.6025728068333
 10
-470.9033815881462
 20
110.2573380425911
 10
-470.431281414196
 20
109.902283261631
 10
-469.2670490930291
 20
109.1103695886116
 10
-469.2632490930291
 20
85.10656958861165
 10
-474.2632490930291
 20
76.10656958861165
 10
-493.263249093029
 20
76.10656958861165
 10
-498.2632490930291
 20
85.10656958861165
 10
-498.259449093029
 20
109.1103695886116
 10
-497.095216771862
 20
109.902283261631
 10
-496.2468779748649
 20
110.5629797112923
 10
-495.8777872033805
 20
110.8885594415169
 10
-495.5212595178337
 20
111.2347602899056
 10
-495.1827101525993
 20
111.6022653130989
 10
-494.9054843923303
 20
111.9418452625255
 10
-494.6497971063346
 20
112.2987167806129
 10
-494.4192760785789
 20
112.6733374619465
 10
-494.217549093029
 20
113.0661649011116
 10
-494.0703078790398
 20
113.41771209235
 10
-493.9491713342399
 20
113.7832600335579
 10
-493.8564240106317
 20
114.1630968892555
 10
-493.7943504602167
 20
114.5575108239632
 10
-493.7652352349967
 20
114.9667900022011
 10
-493.7688426313134
 20
115.4528649298649
 10
-493.8006121961326
 20
115.9853267115574
 10
-493.8507521447867
 20
116.4298791436653
 10
-493.9326711389274
 20
116.9141508904915
 10
-494.0251219091148
 20
117.3175876419048
 10
-494.1536019231531
 20
117.756070724867
 10
-494.3054472203942
 20
118.1711150810223
 10
-494.4796370977134
 20
118.5634037670116
 10
-494.675150851986
 20
118.9336198394756
 10
-494.8909677800866
 20
119.2824463550548
 10
-495.1260671788903
 20
119.61056637039
 10
-495.4123316858024
 20
119.9558011346321
 10
-495.720255436489
 20
120.2766662833194
 10
-496.0483851251334
 20
120.5741343717079
 10
-496.3952674459191
 20
120.8491779550533
 10
-496.7594490930291
 20
121.1027695886116
 10
-496.7632490930291
 20
143.6065695886116
 10
-491.7632490930292
 20
152.6065695886116
 10
-475.7632490930291
 20
152.6065695886116
 10
-470.7632490930289
 20
143.6065695886116
 10
-470.7670490930291
 20
121.1027695886116
 10
-471.131230740139
 20
120.8491779550533
 10
-471.4781130609244
 20
120.5741343717079
 10
-471.8062427495689
 20
120.2766662833194
 10
-472.0809957616539
 20
119.9926384676914
 10
-472.3697386193962
 20
119.6501594659309
 10
-472.6071765588494
 20
119.3245797357063
 10
-472.8254596154899
 20
118.9783788873176
 10
-473.0235670861932
 20
118.6108738641243
 10
-473.2004782678337
 20
118.2213816094856
 10
-473.3551724572869
 20
117.809219066761
 10
-473.4866289514275
 20
117.3737031793098
 10
-473.5817888036461
 20
116.972932763956
 10
-473.6669235051842
 20
116.4917883040409
 10
-473.7199818597527
 20
116.0500422879676
 10
-473.7523183194849
 20
115.5884552476863
  0
LWPOLYLINE
  5
3A
330
17
100
AcDbEntity
  8
INNER_LINES
100
AcDbPolyline
 90
65
 70
0
 10
-75.1931
 20
225.6507
 10
-73.93819360957669
 20
224.9550738299757
 10
-72.68413046078088
 20
224.2851230860949
 10
-71.4309957591988
 20
223.6407030895203
 10
-70.00008799029962
 20
222.9352996391505
 10
-68.7492297352314
 20
222.3451012029648
 10
-67.32114719099998
 20
221.7012856264115
 10
-66.07295663258657
 20
221.1646444090158
 10
-64.64814645604119
 20
220.5816574587375
 10
-63.40301484442354
 20
220.0979091185331
 10
-61.98192417858243
 20
219.5749915469885
 10
-60.74024276390151
 20
219.1434717423767
 10
-59.32331875178292
 20
218.6798643020242
 10
-58.08547878417968
 20
218.2999086914062
 10
-56.67316856880187
 20
217.8948521347046
 10
-55.26350187683107
 20
217.5207122680664
 10
-53.85660589561461
 20
217.1772731277466
 10
-52.6279447468631
 20
216.9017782933384
 10
-51.22658665795848
 20
216.6153209250837
 10
-49.82836494343207
 20
216.3589433873802
 10
-48.43340679063127
 20
216.1324297164828
 10
-47.21559553355574
 20
215.9585581815004
 10
-45.8270993686378
 20
215.7874571710825
 10
-44.44223242906928
 20
215.6455991317034
 10
-43.0611219021976
 20
215.532768099618
 10
-41.68389497537017
 20
215.4487481110811
 10
-40.3106788359344
 20
215.3933232023478
 10
-38.94160067123772
 20
215.3662774096727
 10
-37.5767876686275
 20
215.367394769311
 10
-36.21636701545122
 20
215.3964593175173
 10
-34.86046589905619
 20
215.4532550905466
 10
-33.50921150678992
 20
215.5375661246538
 10
-32.16273102599979
 20
215.6491764560938
 10
-30.82115164403319
 20
215.7878701211214
 10
-29.48460054823757
 20
215.9534311559915
 10
-28.1532049259603
 20
216.1456435969591
 10
-26.82709196454883
 20
216.3642914802789
 10
-25.50638885135054
 20
216.609158842206
 10
-24.19122277371287
 20
216.8800297189951
 10
-22.88172091898323
 20
217.1766881469011
 10
-21.4154602120094
 20
217.540984160319
 10
-20.11841713269875
 20
217.8917240672261
 10
-18.82743573675677
 20
218.2675766385466
 10
-17.54264321153089
 20
218.6683259105354
 10
-16.10480761833191
 20
219.1486592788696
 10
-14.83358874511719
 20
219.6015969726563
 10
-13.56895620307922
 20
220.0787564804077
 10
-12.31103717956543
 20
220.5799218383789
 10
-10.90406139387563
 20
221.1721584587663
 10
-9.660830898965147
 20
221.723619181332
 10
-8.424711383039506
 20
222.2984108674139
 10
-7.1958300334461
 20
222.8963175532669
 10
-5.822148748999836
 20
223.5963233228445
 10
-4.609070804601897
 20
224.2426323160887
 10
-3.253491411831233
 20
224.9965421251327
 10
-2.056791202994431
 20
225.6902782144814
 10
-0.7199598235607142
 20
226.4969949502945
 10
0.4597883193492863
 20
227.2371829244614
 10
1.777225563784696
 20
228.095609474346
 10
2.939447310402242
 20
228.8812741220444
 10
4.236844298177956
 20
229.7903133733034
 10
5.380965318137413
 20
230.6204794832468
 10
6.657675927592066
 20
231.5790343231827
 10
7.783121890527752
 20
232.4527266840845
 10
9.0385
 20
233.4597
  0
LWPOLYLINE
  5
3B
330
17
100
AcDbEntity
  8
INNER_LINES
100
AcDbPolyline
 90
65
 70
0
 10
-182.9183
 20
225.6507
 10
-184.1732063904233
 20
224.9550738299757
 10
-185.4272695392191
 20
224.2851230860949
 10
-186.6804042408012
 20
223.6407030895203
 10
-188.1113120097004
 20
222.9352996391505
 10
-189.3621702647686
 20
222.3451012029648
 10
-190.790252809
 20
221.7012856264115
 10
-192.0384433674134
 20
221.1646444090158
 10
-193.4632535439588
 20
220.5816574587375
 10
-194.7083851555764
 20
220.0979091185331
 10
-196.1294758214176
 20
219.5749915469885
 10
-197.3711572360985
 20
219.1434717423767
 10
-198.788081248217
 20
218.6798643020242
 10
-200.0259212158203
 20
218.2999086914062
 10
-201.4382314311981
 20
217.8948521347046
 10
-202.8478981231689
 20
217.5207122680664
 10
-204.2547941043854
 20
217.1772731277466
 10
-205.4834552531369
 20
216.9017782933384
 10
-206.8848133420415
 20
216.6153209250837
 10
-208.2830350565679
 20
216.3589433873802
 10
-209.6779932093687
 20
216.1324297164828
 10
-210.8958044664443
 20
215.9585581815004
 10
-212.2843006313622
 20
215.7874571710825
 10
-213.6691675709307
 20
215.6455991317034
 10
-215.0502780978024
 20
215.532768099618
 10
-216.4275050246298
 20
215.4487481110811
 10
-217.8007211640656
 20
215.3933232023478
 10
-219.1697993287623
 20
215.3662774096727
 10
-220.5346123313725
 20
215.367394769311
 10
-221.8950329845488
 20
215.3964593175173
 10
-223.2509341009438
 20
215.4532550905466
 10
-224.6021884932101
 20
215.5375661246538
 10
-225.9486689740002
 20
215.6491764560938
 10
-227.2902483559668
 20
215.7878701211214
 10
-228.6267994517625
 20
215.9534311559915
 10
-229.9581950740397
 20
216.1456435969591
 10
-231.2843080354512
 20
216.3642914802789
 10
-232.6050111486495
 20
216.609158842206
 10
-233.9201772262871
 20
216.8800297189951
 10
-235.2296790810168
 20
217.1766881469011
 10
-236.6959397879906
 20
217.540984160319
 10
-237.9929828673013
 20
217.8917240672261
 10
-239.2839642632432
 20
218.2675766385466
 10
-240.5687567884691
 20
218.6683259105354
 10
-242.0065923816681
 20
219.1486592788696
 10
-243.2778112548828
 20
219.6015969726563
 10
-244.5424437969208
 20
220.0787564804077
 10
-245.8003628204346
 20
220.5799218383789
 10
-247.2073386061244
 20
221.1721584587663
 10
-248.4505691010348
 20
221.723619181332
 10
-249.6866886169605
 20
222.2984108674139
 10
-250.9155699665539
 20
222.8963175532669
 10
-252.2892512510002
 20
223.5963233228445
 10
-253.5023291953981
 20
224.2426323160887
 10
-254.8579085881689
 20
224.9965421251327
 10
-256.0546087970056
 20
225.6902782144814
 10
-257.3914401764394
 20
226.4969949502945
 10
-258.5711883193493
 20
227.2371829244614
 10
-259.8886255637847
 20
228.095609474346
 10
-261.0508473104022
 20
228.8812741220444
 10
-262.348244298178
 20
229.7903133733034
 10
-263.4923653181374
 20
230.6204794832468
 10
-264.7690759275921
 20
231.5790343231827
 10
-265.8945218905278
 20
232.4527266840845
 10
-267.1499
 20
233.4597
  0
LWPOLYLINE
  5
3C
330
17
100
AcDbEntity
  8
INNER_LINES
100
AcDbPolyline
 90
66
 70
0
 10
-311.2012
 20
-0.2312
 10
-312.1790791277171
 20
1.418442841106651
 10
-312.6536874097437
 20
2.272952638890593
 10
-313.1954217498552
 20
3.294475831090191
 10
-314.0943559101458
 20
5.106228732938969
 10
-315.0262474210828
 20
7.153379755868762
 10
-315.8482168050438
 20
9.118932811645418
 10
-316.697802411801
 20
11.32819946847269
 10
-317.5054367341995
 20
13.61820850682258
 10
-318.271699836218
 20
15.98652567799231
 10
-318.9971717818349
 20
18.43071673327908
 10
-319.682432635029
 20
20.9483474239801
 10
-320.3280624597788
 20
23.5369835013926
 10
-320.979700370428
 20
26.40136169328019
 10
-321.544873056506
 20
29.12969242416145
 10
-322.1112121398385
 20
32.13885695149591
 10
-322.5984298567146
 20
34.99638193759545
 10
-323.0821647567749
 20
38.13902467918396
 10
-323.5241287124783
 20
41.34642645260466
 10
-323.9250462097406
 20
44.61554693995117
 10
-324.2856417344778
 20
47.94334582331702
 10
-324.6066397726058
 20
51.32678278479576
 10
-324.8887648100406
 20
54.76281750648094
 10
-325.1327413326978
 20
58.24840967046617
 10
-325.3392938264936
 20
61.78051895884498
 10
-325.530457847628
 20
65.87027491631136
 10
-325.6592555892944
 20
69.49182595176698
 10
-325.7634580200195
 20
73.675823538208
 10
-325.8178277305991
 20
77.37285567729248
 10
-325.8388705378205
 20
81.63513987162486
 10
-325.8221389383554
 20
85.39369247089024
 10
-325.7638240889788
 20
89.71830825203062
 10
-325.6793179005117
 20
93.52442066802905
 10
-325.5454473614424
 20
97.895413014894
 10
-325.3728350365609
 20
102.2846156993024
 10
-325.1625623742313
 20
106.6874904041461
 10
-324.9157108228177
 20
111.0994988123171
 10
-324.5956261540651
 20
116.068275164634
 10
-324.2746352098703
 20
120.484624061352
 10
-323.8738906453282
 20
125.4467559605516
 10
-323.4326679336549
 20
130.3960365207672
 10
-322.952506871447
 20
135.3260039584599
 10
-322.4349472553015
 20
140.230196490091
 10
-321.8815288818151
 20
145.1021523321218
 10
-321.2937915475845
 20
149.9354097010135
 10
-320.6732750492066
 20
154.7235068132273
 10
-320.0215191832782
 20
159.4599818852246
 10
-319.3400637463958
 20
164.1383731334663
 10
-318.6304485351564
 20
168.752218774414
 10
-317.8108331142187
 20
173.7951529676377
 10
-317.0468261064321
 20
178.2515154818125
 10
-316.2594498025894
 20
182.623229062128
 10
-315.4502439992875
 20
186.9038319250456
 10
-314.5273967614323
 20
191.5453397542871
 10
-313.6771630752564
 20
195.6123775913238
 10
-312.7125418287993
 20
200.0005916067779
 10
-311.8281428100139
 20
203.8252656048782
 10
-310.8293726108044
 20
207.9281871253721
 10
-309.8666975217071
 20
211.6751145425117
 10
-308.8923767135621
 20
215.2673288158416
 10
-307.9082211371336
 20
218.6972302585834
 10
-306.9684324442324
 20
221.7899998522251
 10
-305.9703220281602
 20
224.8820087869167
 10
-304.9677143828991
 20
227.7893058141992
 10
-303.9624204592139
 20
230.5042912472941
 10
-303.0092
 20
232.8921
  0
LWPOLYLINE
  5
3D
330
17
100
AcDbEntity
  8
INNER_LINES
100
AcDbPolyline
 90
66
 70
0
 10
53.0898
 20
-0.2312
 10
54.06767912771703
 20
1.418442841106651
 10
54.54228740974365
 20
2.272952638890593
 10
55.0840217498552
 20
3.294475831090191
 10
55.98295591014585
 20
5.106228732938969
 10
56.91484742108285
 20
7.153379755868762
 10
57.73681680504382
 20
9.118932811645418
 10
58.58640241180101
 20
11.32819946847269
 10
59.39403673419953
 20
13.61820850682258
 10
60.16029983621798
 20
15.98652567799231
 10
60.88577178183496
 20
18.43071673327908
 10
61.57103263502904
 20
20.9483474239801
 10
62.21666245977878
 20
23.5369835013926
 10
62.86830037042797
 20
26.40136169328019
 10
63.43347305650598
 20
29.12969242416145
 10
63.99981213983856
 20
32.13885695149591
 10
64.48702985671459
 20
34.99638193759545
 10
64.9707647567749
 20
38.13902467918396
 10
65.41272871247828
 20
41.34642645260466
 10
65.81364620974063
 20
44.61554693995117
 10
66.17424173447786
 20
47.94334582331702
 10
66.4952397726059
 20
51.32678278479576
 10
66.7773648100406
 20
54.76281750648094
 10
67.02134133269787
 20
58.24840967046617
 10
67.22789382649364
 20
61.78051895884498
 10
67.419057847628
 20
65.87027491631136
 10
67.54785558929444
 20
69.49182595176698
 10
67.65205802001952
 20
73.675823538208
 10
67.70642773059906
 20
77.37285567729248
 10
67.72747053782047
 20
81.63513987162486
 10
67.71073893835548
 20
85.39369247089024
 10
67.65242408897876
 20
89.71830825203062
 10
67.56791790051162
 20
93.52442066802905
 10
67.43404736144245
 20
97.895413014894
 10
67.26143503656088
 20
102.2846156993024
 10
67.05116237423121
 20
106.6874904041461
 10
66.80431082281768
 20
111.0994988123171
 10
66.48422615406513
 20
116.068275164634
 10
66.16323520987036
 20
120.484624061352
 10
65.76249064532817
 20
125.4467559605516
 10
65.32126793365478
 20
130.3960365207672
 10
64.84110687144695
 20
135.3260039584599
 10
64.32354725530148
 20
140.230196490091
 10
63.77012888181508
 20
145.1021523321218
 10
63.18239154758454
 20
149.9354097010135
 10
62.56187504920661
 20
154.7235068132273
 10
61.91011918327808
 20
159.4599818852246
 10
61.22866374639571
 20
164.1383731334663
 10
60.51904853515623
 20
168.752218774414
 10
59.69943311421872
 20
173.7951529676377
 10
58.93542610643208
 20
178.2515154818125
 10
58.14804980258941
 20
182.623229062128
 10
57.33884399928747
 20
186.9038319250456
 10
56.41599676143228
 20
191.5453397542871
 10
55.56576307525633
 20
195.6123775913238
 10
54.60114182879923
 20
200.0005916067779
 10
53.71674281001388
 20
203.8252656048782
 10
52.71797261080442
 20
207.9281871253721
 10
51.75529752170703
 20
211.6751145425117
 10
50.780976713562
 20
215.2673288158416
 10
49.7968211371336
 20
218.6972302585834
 10
48.85703244423231
 20
221.7899998522251
 10
47.85892202816007
 20
224.8820087869167
 10
46.85631438289917
 20
227.7893058141992
 10
45.85102045921384
 20
230.5042912472941
 10
44.89779999999996
 20
232.8921
  0
LWPOLYLINE
  5
3E
330
17
100
AcDbEntity
  8
INNER_LINES
100
AcDbPolyline
 90
65
 70
0
 10
266.039
 20
226.1666
 10
264.7840936095767
 20
225.4709738299757
 10
263.5300304607808
 20
224.8010230860948
 10
262.2768957591989
 20
224.1566030895203
 10
260.8459879902996
 20
223.4511996391505
 10
259.5951297352314
 20
222.8610012029648
 10
258.167047191
 20
222.2171856264115
 10
256.9188566325865
 20
221.6805444090158
 10
255.4940464560412
 20
221.0975574587375
 10
254.2489148444235
 20
220.6138091185331
 10
252.8278241785824
 20
220.0908915469885
 10
251.5861427639015
 20
219.6593717423767
 10
250.1692187517829
 20
219.1957643020242
 10
248.9313787841797
 20
218.8158086914062
 10
247.5190685688019
 20
218.4107521347046
 10
246.1094018768311
 20
218.0366122680664
 10
244.7025058956146
 20
217.6931731277466
 10
243.4738447468631
 20
217.4176782933384
 10
242.0724866579585
 20
217.1312209250838
 10
240.674264943432
 20
216.8748433873803
 10
239.2793067906313
 20
216.6483297164827
 10
238.0614955335558
 20
216.4744581815004
 10
236.6729993686378
 20
216.3033571710825
 10
235.2881324290693
 20
216.1614991317034
 10
233.9070219021976
 20
216.048668099618
 10
232.5297949753702
 20
215.9646481110811
 10
231.1565788359344
 20
215.9092232023477
 10
229.7875006712377
 20
215.8821774096728
 10
228.4226876686275
 20
215.883294769311
 10
227.0622670154512
 20
215.9123593175173
 10
225.7063658990562
 20
215.9691550905466
 10
224.3551115067899
 20
216.0534661246538
 10
223.0086310259998
 20
216.1650764560938
 10
221.6670516440332
 20
216.3037701211214
 10
220.3305005482376
 20
216.4693311559916
 10
218.9991049259603
 20
216.6615435969591
 10
217.6729919645488
 20
216.880191480279
 10
216.3522888513505
 20
217.125058842206
 10
215.0371227737129
 20
217.3959297189951
 10
213.7276209189832
 20
217.6925881469011
 10
212.2613602120094
 20
218.056884160319
 10
210.9643171326987
 20
218.407624067226
 10
209.6733357367568
 20
218.7834766385466
 10
208.3885432115309
 20
219.1842259105354
 10
206.9507076183319
 20
219.6645592788696
 10
205.6794887451172
 20
220.1174969726563
 10
204.4148562030792
 20
220.5946564804077
 10
203.1569371795654
 20
221.0958218383789
 10
201.7499613938756
 20
221.6880584587663
 10
200.5067308989652
 20
222.239519181332
 10
199.2706113830395
 20
222.8143108674139
 10
198.041730033446
 20
223.4122175532669
 10
196.6680487489998
 20
224.1122233228445
 10
195.4549708046019
 20
224.7585323160887
 10
194.0993914118311
 20
225.5124421251327
 10
192.9026912029944
 20
226.2061782144815
 10
191.5658598235607
 20
227.0128949502945
 10
190.3861116806507
 20
227.7530829244613
 10
189.0686744362153
 20
228.611509474346
 10
187.9064526895977
 20
229.3971741220444
 10
186.609055701822
 20
230.3062133733034
 10
185.4649346818625
 20
231.1363794832468
 10
184.1882240724079
 20
232.0949343231827
 10
183.0627781094722
 20
232.9686266840845
 10
181.8074
 20
233.9756
  0
LWPOLYLINE
  5
3F
330
17
100
AcDbEntity
  8
INNER_LINES
100
AcDbPolyline
 90
65
 70
0
 10
373.7642000000001
 20
226.1666
 10
375.0191063904233
 20
225.4709738299757
 10
376.2731695392192
 20
224.8010230860948
 10
377.5263042408012
 20
224.1566030895203
 10
378.9572120097004
 20
223.4511996391505
 10
380.2080702647686
 20
222.8610012029648
 10
381.6361528090001
 20
222.2171856264115
 10
382.8843433674135
 20
221.6805444090158
 10
384.3091535439588
 20
221.0975574587375
 10
385.5542851555765
 20
220.6138091185331
 10
386.9753758214176
 20
220.0908915469885
 10
388.2170572360986
 20
219.6593717423767
 10
389.6339812482171
 20
219.1957643020242
 10
390.8718212158203
 20
218.8158086914062
 10
392.2841314311981
 20
218.4107521347046
 10
393.693798123169
 20
218.0366122680664
 10
395.1006941043853
 20
217.6931731277466
 10
396.3293552531369
 20
217.4176782933384
 10
397.7307133420416
 20
217.1312209250838
 10
399.128935056568
 20
216.8748433873803
 10
400.5238932093687
 20
216.6483297164827
 10
401.7417044664442
 20
216.4744581815004
 10
403.1302006313621
 20
216.3033571710825
 10
404.5150675709306
 20
216.1614991317034
 10
405.8961780978023
 20
216.048668099618
 10
407.2734050246298
 20
215.9646481110811
 10
408.6466211640654
 20
215.9092232023477
 10
410.0156993287622
 20
215.8821774096728
 10
411.3805123313725
 20
215.883294769311
 10
412.7409329845487
 20
215.9123593175173
 10
414.0968341009438
 20
215.9691550905466
 10
415.4480884932101
 20
216.0534661246538
 10
416.7945689740001
 20
216.1650764560938
 10
418.1361483559667
 20
216.3037701211214
 10
419.4726994517623
 20
216.4693311559916
 10
420.8040950740397
 20
216.6615435969591
 10
422.1302080354512
 20
216.880191480279
 10
423.4509111486493
 20
217.125058842206
 10
424.7660772262872
 20
217.3959297189951
 10
426.0755790810168
 20
217.6925881469011
 10
427.5418397879906
 20
218.056884160319
 10
428.8388828673013
 20
218.407624067226
 10
430.1298642632431
 20
218.7834766385466
 10
431.414656788469
 20
219.1842259105354
 10
432.8524923816679
 20
219.6645592788696
 10
434.1237112548827
 20
220.1174969726563
 10
435.3883437969208
 20
220.5946564804077
 10
436.6462628204344
 20
221.0958218383789
 10
438.0532386061244
 20
221.6880584587663
 10
439.2964691010347
 20
222.239519181332
 10
440.5325886169603
 20
222.8143108674139
 10
441.7614699665539
 20
223.4122175532669
 10
443.1351512510001
 20
224.1122233228445
 10
444.348229195398
 20
224.7585323160887
 10
445.7038085881687
 20
225.5124421251327
 10
446.9005087970054
 20
226.2061782144815
 10
448.2373401764393
 20
227.0128949502945
 10
449.4170883193493
 20
227.7530829244613
 10
450.7345255637846
 20
228.611509474346
 10
451.8967473104022
 20
229.3971741220444
 10
453.1941442981779
 20
230.3062133733034
 10
454.3382653181374
 20
231.1363794832468
 10
455.6149759275918
 20
232.0949343231827
 10
456.7404218905277
 20
232.9686266840845
 10
457.9957999999998
 20
233.9756
  0
LWPOLYLINE
  5
40
330
17
100
AcDbEntity
  8
HANDLE_REFERENCE
100
AcDbPolyline
 90
474
 70
1
 10
-296.3806960455343
 20
-78.76484192343808
 10
-297.4206362451432
 20
-78.48407207022518
 10
-298.446661537075
 20
-78.18573785316948
 10
-299.4589523933442
 20
-77.87007482847669
 10
-300.4576892859652
 20
-77.53731855235249
 10
-301.4430526869526
 20
-77.18770458100269
 10
-302.4152230683207
 20
-76.82146847063298
 10
-304.3207066602574
 20
-76.04007205765697
 10
-306.1755838378906
 20
-75.19501376307008
 10
-307.0844962013798
 20
-74.749200300687
 10
-308.2775724758977
 20
-74.13116492815035
 10
-310.0277553767157
 20
-73.15463726594207
 10
-310.8854936698913
 20
-72.64462023508547
 10
-312.0115543657183
 20
-71.94256792789696
 10
-313.6638207164868
 20
-70.8434173422381
 10
-314.4737738027317
 20
-70.2736199649936
 10
-315.5373374043783
 20
-69.4934483526005
 10
-316.3229636658072
 20
-68.89329366189249
 10
-317.3547465476036
 20
-68.07350061333179
 10
-318.1170285540731
 20
-67.444271081836
 10
-319.1183408091614
 20
-66.58656656067541
 10
-320.8304128520504
 20
-65.0356386308745
 10
-322.4932553392691
 20
-63.42370926017229
 10
-324.1091609338164
 20
-61.75377088481188
 10
-325.0123441599846
 20
-60.77462713348869
 10
-325.9013774640202
 20
-59.77807714384789
 10
-327.2093320968911
 20
-58.25183686508978
 10
-328.9077395447359
 20
-56.16113931017369
 10
-330.5572474433348
 20
-54.01086720009887
 10
-332.1612780768141
 20
-51.80548737847057
 10
-333.7232537293002
 20
-49.54946668889368
 10
-335.2465966849193
 20
-47.24727197497339
 10
-336.7347292277977
 20
-44.90337008031459
 10
-338.5505938994527
 20
-41.92164694613207
 10
-339.9720157400012
 20
-39.50023579174277
 10
-341.7153203546122
 20
-36.43575945524127
 10
-343.2640716956138
 20
-33.6364163432836
 10
-344.3213757756233
 20
-31.64070038325781
 10
-345.0850405499816
 20
-30.13574965099689
 10
-346.0732700767398
 20
-28.12189835850598
 10
-349.178815689373
 20
-21.5718162561179
 10
-350.1438552124977
 20
-19.57169958503249
 10
-351.1332011282922
 20
-17.58670997197628
 10
-352.1581916707039
 20
-15.62137899119856
 10
-353.2301650736808
 20
-13.68023821694847
 10
-354.0717982845188
 20
-12.24298348442906
 10
-354.9510204284668
 20
-10.82379651148316
 10
-356.0306692787364
 20
-9.193464502588593
 10
-356.9111130907543
 20
-7.948150921151892
 10
-357.6928692830562
 20
-6.8865417756796
 10
-358.4867175793535
 20
-5.846314822617771
 10
-359.5638406182843
 20
-4.492315149949688
 10
-360.385563408623
 20
-3.501323901424574
 10
-361.2190865184301
 20
-2.531152492948579
 10
-362.0643224123478
 20
-1.581632218813883
 10
-363.2093721949517
 20
-0.3474375832736021
 10
-364.0815975031796
 20
0.5545527884868173
 10
-365.2623154506015
 20
1.725986560099035
 10
-366.1610535917454
 20
2.581365538341624
 10
-367.3768042621263
 20
3.691263124501021
 10
-368.3015786547931
 20
4.500949218082306
 10
-369.5517266062749
 20
5.550535297264431
 10
-370.5020606690706
 20
6.315447015041137
 10
-371.7859704597951
 20
7.305946265721314
 10
-373.0888874296608
 20
8.263231470042514
 10
-374.4106040874482
 20
9.187702523016899
 10
-375.7509129419387
 20
10.07975931965713
 10
-377.4521281867613
 20
11.14985698254514
 10
-378.8335108440639
 20
11.97044381857212
 10
-380.5854118272163
 20
12.95246932350622
 10
-382.0068178630345
 20
13.70361066742021
 10
-383.8080915541462
 20
14.60009460002572
 10
-385.2684705441836
 20
15.28381492032682
 10
-387.1178039128842
 20
16.09728786622883
 10
-388.6161054328442
 20
16.71561163141731
 10
-390.5121854487629
 20
17.44860417624111
 10
-392.0473590743494
 20
18.00355585481703
 10
-393.988872707116
 20
18.65859858418781
 10
-395.955059879329
 20
19.27142932345362
 10
-397.9455153347015
 20
19.84282911756041
 10
-399.5550805306495
 20
20.27064353453522
 10
-401.5881976498653
 20
20.76943586062002
 10
-403.6444483346366
 20
21.22898416739481
 10
-405.7234273286758
 20
21.65006949980572
 10
-407.8247293756963
 20
22.03347290279872
 10
-409.9479492194103
 20
22.37997542131981
 10
-412.0926816035309
 20
22.69035810031522
 10
-414.2585212717707
 20
22.96540198473082
 10
-416.4450629678429
 20
23.20588811951282
 10
-418.6519014354599
 20
23.41259754960721
 10
-420.8786314183346
 20
23.58631131995992
 10
-423.1248476601801
 20
23.72781047551721
 10
-425.3901449047088
 20
23.83787606122502
 10
-427.6741178956338
 20
23.91728912202931
 10
-429.9763613766678
 20
23.96683070287632
 10
-432.7626000000001
 20
23.98794995763302
 10
-435.5487525359899
 20
23.96683070287632
 10
-437.8507975656991
 20
23.91728912202931
 10
-440.1344632736206
 20
23.83787606122502
 10
-442.3993503668424
 20
23.72781047551721
 10
-444.645059552452
 20
23.58631131995992
 10
-446.8711915375371
 20
23.41259754960721
 10
-449.0773470291854
 20
23.20588811951282
 10
-451.2631267344844
 20
22.96540198473092
 10
-453.4281313605221
 20
22.69035810031522
 10
-455.5719616143856
 20
22.37997542131992
 10
-457.6942182031633
 20
22.03347290279872
 10
-459.7945018339423
 20
21.65006949980572
 10
-461.8724132138103
 20
21.22898416739481
 10
-463.9275530498554
 20
20.76943586062002
 10
-465.9595220491648
 20
20.27064353453522
 10
-467.5681459213258
 20
19.84282911756041
 10
-469.5574011963723
 20
19.27142932345362
 10
-471.5223676145286
 20
18.65859858418781
 10
-473.4626458828827
 20
18.00355585481703
 10
-474.9968247048709
 20
17.44860417624111
 10
-476.8916580854417
 20
16.71561163141731
 10
-478.388963513589
 20
16.09728786622892
 10
-480.2370582973402
 20
15.28381492032682
 10
-481.6964553644178
 20
14.60009460002572
 10
-483.4965178423138
 20
13.70361066742021
 10
-484.9169715810926
 20
12.95246932350633
 10
-486.6677080440973
 20
11.97044381857212
 10
-488.0481834873487
 20
11.14985698254514
 10
-489.7483002264262
 20
10.07975931965721
 10
-491.0877624069214
 20
9.18770252301701
 10
-492.4086642589332
 20
8.263231470042514
 10
-493.7108013444901
 20
7.305946265721425
 10
-494.9939692256214
 20
6.315447015041221
 10
-495.9437736138483
 20
5.550535297264513
 10
-497.1932534583664
 20
4.500949218082417
 10
-498.1175570349009
 20
3.691263124501021
 10
-499.3327227515192
 20
2.581365538341624
 10
-500.2310559478964
 20
1.725986560099035
 10
-501.4112814453287
 20
0.5545527884869283
 10
-502.2831746930838
 20
-0.3474375832736021
 10
-503.4278338800428
 20
-1.581632218813772
 10
-504.2728176107112
 20
-2.531152492948579
 10
-505.1061249457507
 20
-3.501323901424463
 10
-505.9276696378927
 20
-4.492315149949688
 10
-507.0046160468873
 20
-5.846314822617576
 10
-507.7983791662213
 20
-6.886541775679489
 10
-508.5800921517616
 20
-7.948150921151809
 10
-509.4605307212636
 20
-9.193471737876491
 10
-510.540179571533
 20
-10.82381961023798
 10
-511.4194017154812
 20
-12.2430163230895
 10
-512.261034926319
 20
-13.68027761709689
 10
-513.3330083292959
 20
-15.621422821641
 10
-514.3579988717078
 20
-17.58675408422947
 10
-515.3473447875024
 20
-19.57174068891998
 10
-516.3123843106267
 20
-21.57185191977029
 10
-519.4179299232602
 20
-28.12190991973879
 10
-520.4061594500182
 20
-30.13575501203539
 10
-521.1698242243765
 20
-31.64070240843298
 10
-522.227128304386
 20
-33.63641636145118
 10
-523.7758796453877
 20
-36.43575945524127
 10
-525.5191842599986
 20
-39.50023579174277
 10
-526.940606100547
 20
-41.92164694613207
 10
-528.7564707722021
 20
-44.90337008031459
 10
-530.2446033150807
 20
-47.24727197497339
 10
-531.7679462706999
 20
-49.54946668889379
 10
-533.3299219231859
 20
-51.80548737847057
 10
-534.9339525566652
 20
-54.01086720009899
 10
-536.5834604552641
 20
-56.16113931017369
 10
-538.281867903109
 20
-58.25183686508989
 10
-539.5898225359797
 20
-59.77807714384797
 10
-540.4788558400155
 20
-60.77462713348869
 10
-541.3820390661834
 20
-61.75377088481188
 10
-542.9979446607307
 20
-63.42370926017229
 10
-544.6607871479495
 20
-65.0356386308745
 10
-546.3728591908385
 20
-66.5865665606755
 10
-547.3741714459268
 20
-67.444271081836
 10
-548.1364534523963
 20
-68.07350061333189
 10
-549.1682363341928
 20
-68.89329366189249
 10
-549.9538625956216
 20
-69.4934483526005
 10
-551.017426197268
 20
-70.2736199649936
 10
-551.8273792835131
 20
-70.84341734223817
 10
-553.4796456342816
 20
-71.9425679278971
 10
-554.6057063301084
 20
-72.64462023508547
 10
-555.463444623284
 20
-73.15463726594207
 10
-557.2136275241022
 20
-74.13116492815035
 10
-558.4067037986202
 20
-74.74920030068711
 10
-559.3156161621093
 20
-75.19501376307008
 10
-561.1704933397425
 20
-76.04007205765697
 10
-563.0759769316791
 20
-76.82146847063309
 10
-564.0481473130473
 20
-77.18770458100269
 10
-565.0335107140345
 20
-77.53731855235249
 10
-566.0322476066555
 20
-77.87007482847669
 10
-567.0445384629248
 20
-78.18573785316948
 10
-568.0705637548566
 20
-78.48407207022518
 10
-569.1105039544655
 20
-78.76484192343801
 42
0.3916562735364538
 10
-569.3977559999558
 20
-81.7541607053929
 10
-567.9458344982393
 20
-82.86980074589478
 10
-566.847453357189
 20
-83.68429769116048
 10
-565.7411034922621
 20
-84.47952207349019
 10
-564.6268953490729
 20
-85.25527982332709
 10
-563.1292513967333
 20
-86.2590066325904
 10
-561.997136781653
 20
-86.9885875250005
 10
-560.8575320403565
 20
-87.69805488639479
 10
-559.7105476184585
 20
-88.38721464721638
 10
-558.1699464464232
 20
-89.27416929855728
 10
-557.0061722805079
 20
-89.91518994309911
 10
-555.8353865860379
 20
-90.53525608854518
 10
-554.6576998086266
 20
-91.13417366533879
 10
-553.0769066478227
 20
-91.89949723207359
 10
-551.8835468542691
 20
-92.44831343373438
 10
-550.6836541298208
 20
-92.9753341682196
 10
-549.4773389200917
 20
-93.4803653659724
 10
-547.8591190014477
 20
-94.11919892141748
 10
-546.6382475034508
 20
-94.57216648518447
 10
-545.4113216722203
 20
-95.00249761369608
 10
-544.178451953369
 20
-95.40999823739527
 10
-542.9397487925119
 20
-95.79447428672539
 10
-541.6953226352623
 20
-96.15573169212938
 10
-540.4452839272344
 20
-96.49357638405037
 10
-539.1897431140422
 20
-96.80781429293158
 10
-537.5073207598505
 20
-97.18974108006955
 10
-536.239371211996
 20
-97.44814178024758
 10
-534.9662877110235
 20
-97.68228879886267
 10
-533.6881807025471
 20
-97.89198806635818
 10
-532.4051606321809
 20
-98.0770455131769
 10
-531.1173379455389
 20
-98.23726706976218
 10
-529.8248230882352
 20
-98.37245866655708
 10
-528.5277265058836
 20
-98.48242623400469
 10
-527.2261586440978
 20
-98.56697570254799
 10
-525.9202299484922
 20
-98.62591300263038
 10
-524.6100508646807
 20
-98.65904406469467
 10
-523.2957318382771
 20
-98.6661748191841
 10
-521.9773833148955
 20
-98.64711119654179
 10
-520.65511574015
 20
-98.60165912721078
 10
-519.3290395596539
 20
-98.52962454163439
 10
-517.9992652190222
 20
-98.4308133702554
 10
-516.665903163868
 20
-98.30503154351707
 10
-515.3290638398058
 20
-98.1520849918626
 10
-513.9888576924492
 20
-97.97177964573497
 10
-512.6453951674126
 20
-97.76392143557739
 10
-511.2987867103098
 20
-97.5283162918329
 10
-509.9491427667546
 20
-97.26477014494469
 10
-508.5965737823612
 20
-96.97308892535567
 10
-507.2411902027434
 20
-96.65307856350907
 10
-505.8831024735151
 20
-96.30454498984808
 10
-504.5224210402906
 20
-95.92729413481577
 10
-503.1592563486835
 20
-95.5211319288552
 10
-501.793718844308
 20
-95.0858643024095
 10
-500.4259189727784
 20
-94.62129718592169
 10
-499.0559671797079
 20
-94.12723650983499
 10
-496.7682321191311
 20
-93.23773370363719
 10
-495.3930818249543
 20
-92.66407475078628
 10
-494.0161845764883
 20
-92.06021064996118
 10
-492.6376508193468
 20
-91.42594733160509
 10
-491.2575909991442
 20
-90.76109072616099
 10
-489.8761155614943
 20
-90.0654467640721
 10
-488.493334952011
 20
-89.33882137578128
 10
-487.1093596163081
 20
-88.58102049173189
 10
-486.0121135189066
 20
-87.95797801839345
 42
0.3784158138312062
 10
-485.8840265625
 20
-87.57630219080448
 10
-486.901598492135
 20
-86.15645002222207
 10
-488.0376457194134
 20
-84.45249957634657
 10
-489.1113923149896
 20
-82.70543249449277
 10
-490.1216175250754
 20
-80.91694991408438
 10
-491.067100595881
 20
-79.08875297254467
 10
-491.9466207736178
 20
-77.2225428072974
 10
-492.758957304497
 20
-75.3200205557659
 10
-493.3837028586387
 20
-73.70807423355579
 10
-494.0696988014101
 20
-71.74339805575607
 10
-494.6850522949217
 20
-69.74722968103889
 10
-495.2285425853848
 20
-67.72127024682759
 10
-495.6256749448672
 20
-66.01144094562677
 10
-496.0342454608723
 20
-63.93528280092919
 10
-496.3172350545047
 20
-62.18600362094639
 10
-496.5867827069281
 20
-60.06536447765829
 10
-496.7522102937741
 20
-58.28140017880651
 10
-496.8253196093559
 20
-57.20414699318408
 10
-496.878631993492
 20
-56.12199774882348
 10
-496.9244479238201
 20
-54.12604700475978
 10
-496.8716667432889
 20
-40.04998928614567
 10
-496.8383909405593
 20
-38.62670477087557
 10
-496.7406709065634
 20
-36.76957690975946
 10
-496.627789565827
 20
-35.40697981048977
 10
-496.4251129555657
 20
-33.63023700001697
 10
-496.3016343646153
 20
-32.75893368097249
 10
-496.0890129900399
 20
-31.47319178116087
 10
-495.9291373840657
 20
-30.6301092928345
 10
-495.6623736021623
 20
-29.38649525745818
 10
-495.4667051347747
 20
-28.57136242432737
 10
-495.1467051759597
 20
-27.36946949010288
 10
-494.9158480007697
 20
-26.58201513664557
 10
-494.543518095459
 20
-25.42143654028928
 10
-494.2780763660774
 20
-24.66138949098298
 10
-493.8543227446871
 20
-23.54171846921138
 10
-493.5549006147245
 20
-22.80880754853368
 10
-493.0806295076713
 20
-21.72963733806318
 10
-492.7478311307386
 20
-21.02359137049178
 10
-492.2239487684379
 20
-19.98451520803887
 10
-491.8583782981457
 20
-19.30506301805149
 10
-491.2857909110144
 20
-18.30567414033279
 10
-490.4776160780444
 20
-17.00986807615917
 10
-490.0545783068044
 20
-16.37760132350638
 10
-489.3966055756259
 20
-15.44862451483447
 10
-488.4761060843589
 20
-14.2460178470738
 10
-487.9975584698703
 20
-13.66005792306319
 10
-487.2571365811929
 20
-12.80017527039959
 10
-486.2282273470266
 20
-11.68901078166668
 10
-485.6961273469879
 20
-11.14847907760588
 10
-484.8761924873601
 20
-10.35637266791198
 10
-483.7427884256925
 20
-9.334893140822198
 10
-483.1590934978026
 20
-8.838911048018899
 10
-482.2625818537728
 20
-8.11326296825568
 10
-481.0285978800013
 20
-7.179711185424181
 10
-480.3952654819591
 20
-6.727400095185798
 10
-479.4251132400754
 20
-6.066892432314786
 10
-478.0944642695982
 20
-5.219511176356606
 10
-476.3725952059134
 20
-4.213307320973386
 10
-474.9491961541279
 20
-3.450339374503564
 10
-473.1138363109317
 20
-2.54855389511538
 10
-471.2175405723109
 20
-1.703829510285082
 10
-469.2618193222928
 20
-0.9154882812067722
 10
-467.6554709321382
 20
-0.3249555952078709
 10
-465.5965899293527
 20
0.3636043593077398
 10
-463.482512490445
 20
0.997679386727901
 10
-461.3147489994421
 20
1.577947425858511
 10
-459.0948098403709
 20
2.105086415505414
 10
-456.8242053972585
 20
2.579774294474618
 10
-454.5044460541319
 20
3.002689001571829
 10
-452.1370421950176
 20
3.374508475603028
 10
-449.7235042039428
 20
3.69591065537414
 10
-447.2653424649343
 20
3.967573479691011
 10
-444.764067362019
 20
4.190174887359538
 10
-442.2211892792238
 20
4.36439281718573
 10
-439.6382186005758
 20
4.490905207975321
 10
-437.016665710102
 20
4.570389998534235
 10
-434.8926591832742
 20
4.600573533692809
 10
-431.6693996070728
 20
4.604649852739118
 10
-429.0035411411927
 20
4.580703303233208
 10
-426.3744517599449
 20
4.510542680063706
 10
-423.7836418822811
 20
4.393490044424714
 10
-421.2326219271525
 20
4.228867457510415
 10
-418.722902313511
 20
4.01599698051483
 10
-416.2559934603079
 20
3.75420067463203
 10
-413.8334057864949
 20
3.442800601056339
 10
-411.4566497110234
 20
3.081118820981526
 10
-409.1272356528447
 20
2.668477395601998
 10
-406.8466740309104
 20
2.204198386111717
 10
-404.6164752641722
 20
1.687603853704839
 10
-402.8695925080583
 20
1.236205476401825
 10
-400.7338531364306
 20
0.6237345969541119
 10
-398.6527057930633
 20
-0.0429500340665689
 10
-396.6276608969078
 20
-0.7645263554663662
 10
-395.0490337435112
 20
-1.381765004536684
 10
-393.1287795080947
 20
-2.203854774409458
 10
-391.2688568929539
 20
-3.082734463317776
 10
-389.4707763170408
 20
-4.019082010067593
 10
-388.0778531260893
 20
-4.809992479990671
 10
-387.0602339743481
 20
-5.427805372177186
 10
-386.3948944765435
 20
-5.851490576645885
 10
-385.0960263296471
 20
-6.727400095185798
 10
-384.1500903376746
 20
-7.40947479557208
 10
-383.5330833638714
 20
-7.876245263477383
 10
-382.3321852669524
 20
-8.838911048018899
 10
-381.46086868919
 20
-9.586565469643594
 10
-380.8941517423497
 20
-10.09729980967811
 10
-379.7951387013301
 20
-11.14847907760608
 10
-379.00137779222
 20
-11.96303113350788
 10
-378.4869083753035
 20
-12.51860795436388
 10
-377.493695396106
 20
-13.66005792306319
 10
-376.7804264100895
 20
-14.54282552628089
 10
-376.3201620260582
 20
-15.14412343665078
 10
-375.436664114605
 20
-16.37760132350638
 10
-374.6031851240501
 20
-17.65254455240678
 10
-373.8204983888969
 20
-18.96930022802068
 10
-373.2672809641765
 20
-19.98451520803887
 10
-372.9147447058961
 20
-20.67457236799727
 10
-372.4105950228081
 20
-21.7296373380633
 10
-372.0910726760732
 20
-22.44639674581456
 10
-371.6368969859885
 20
-23.54171846921138
 10
-371.3509927183794
 20
-24.28545130027787
 10
-370.947697272669
 20
-25.42143654028939
 10
-370.6960152517662
 20
-26.1924139701934
 10
-370.3445063018009
 20
-27.36946949010288
 10
-370.1276506951854
 20
-28.16796269436697
 10
-369.8288344923365
 20
-29.38649525745826
 10
-369.6474094675884
 20
-30.2127754116045
 10
-369.4021922632263
 20
-31.47319178116095
 10
-369.2568019879267
 20
-32.32753006071187
 10
-369.0098673042463
 20
-34.07014754582158
 10
-368.8220382218764
 20
-35.85830885283237
 10
-368.7204196699964
 20
-37.22952677136529
 10
-368.652809270005
 20
-38.62670477087568
 10
-368.6195332723961
 20
-40.04998928614567
 10
-368.5681216704747
 20
-54.30811253910309
 10
-368.5881000705934
 20
-55.39794934318756
 10
-368.6281297258637
 20
-56.48324449216368
 10
-368.688058042062
 20
-57.56378534385359
 10
-368.7677324249647
 20
-58.6393592560793
 10
-368.943988757921
 20
-60.42036725321206
 10
-369.2263444016255
 20
-62.53719893844229
 10
-369.519851901283
 20
-64.28308865671406
 10
-369.9408574004673
 20
-66.35491955136308
 10
-370.3481968258894
 20
-68.06092623086069
 10
-370.9037490914293
 20
-70.08203862303297
 10
-371.5309611010529
 20
-72.07307643280727
 10
-372.2286121009715
 20
-74.03233852276006
 10
-372.8629147826932
 20
-75.6395565251018
 10
-373.6865333626172
 20
-77.53614489679589
 10
-374.5771321304343
 20
-79.39613765930179
 10
-375.5334903323553
 20
-81.21783367519627
 10
-376.3798076880998
 20
-82.70543194258006
 10
-377.4535542836763
 20
-84.45249902443386
 10
-378.5896015109545
 20
-86.15644947030937
 10
-379.64086007935543
 20
-87.62248029543326
 42
0.2660999089875569
 10
-379.5571742764318
 20
-87.91290464666343
 10
-378.3818403867814
 20
-88.58101993981917
 10
-376.9978650510789
 20
-89.33882082386857
 10
-375.6150844415953
 20
-90.0654462121594
 10
-374.2336090039454
 20
-90.76109017424827
 10
-371.934350298789
 20
-91.85217626644837
 10
-370.5568952756964
 20
-92.46615187649978
 10
-369.1811503916882
 20
-93.04985764872455
 10
-367.8072260923786
 20
-93.60348765267976
 10
-366.4352328233817
 20
-94.12723595792227
 10
-365.0652810303114
 20
-94.62129663400898
 10
-363.6974811587815
 20
-95.0858637504968
 10
-362.331943654406
 20
-95.52113137694249
 10
-360.968778962799
 20
-95.92729358290306
 10
-359.6080975295744
 20
-96.30454443793538
 10
-358.2500098003463
 20
-96.65307801159636
 10
-356.8946262207284
 20
-96.97308837344296
 10
-355.5420572363349
 20
-97.26476959303187
 10
-354.1924132927797
 20
-97.52831573992019
 10
-352.8458048356768
 20
-97.76392088366467
 10
-351.5023423106402
 20
-97.97177909382226
 10
-350.1621361632838
 20
-98.15208443994989
 10
-348.8252968392216
 20
-98.30503099160437
 10
-347.4919347840675
 20
-98.43081281834267
 10
-346.1621604434355
 20
-98.52962398972157
 10
-344.8360842629397
 20
-98.60165857529807
 10
-343.5138166881941
 20
-98.64711064462908
 10
-342.1954681648124
 20
-98.6661742672714
 10
-340.8811491384089
 20
-98.65904351278196
 10
-339.5709700545972
 20
-98.62591245071766
 10
-338.2650413589915
 20
-98.56697515063529
 10
-336.9634734972059
 20
-98.48242568209199
 10
-335.6663769148543
 20
-98.37245811464437
 10
-334.3738620575504
 20
-98.23726651784948
 10
-333.0860393709085
 20
-98.07704496126418
 10
-331.8030193005424
 20
-97.89198751444539
 10
-330.5249122920662
 20
-97.68228824694997
 10
-329.2518287910937
 20
-97.44814122833476
 10
-327.9838792432388
 20
-97.18974052815685
 10
-326.3014568890474
 20
-96.80781374101888
 10
-325.0459160758552
 20
-96.49357583213767
 10
-323.7958773678272
 20
-96.15573114021666
 10
-322.5514512105776
 20
-95.79447373481267
 10
-321.3127480497203
 20
-95.40999768548255
 10
-320.0798783308693
 20
-95.00249706178326
 10
-318.8529524996384
 20
-94.57216593327166
 10
-317.6320810016418
 20
-94.11919836950477
 10
-316.0138610829979
 20
-93.4803648140597
 10
-314.8075458732686
 20
-92.97533361630688
 10
-313.6076531488202
 20
-92.44831288182168
 10
-312.4142933552667
 20
-91.89949668016087
 10
-310.8335001944631
 20
-91.13417311342597
 10
-309.6558134170515
 20
-90.53525553663248
 10
-308.4850277225814
 20
-89.91518939118629
 10
-307.3212535566666
 20
-89.27416874664445
 10
-305.780652384631
 20
-88.38721409530368
 10
-304.6336679627329
 20
-87.69805433448188
 10
-303.4940632214366
 20
-86.98858697308768
 10
-302.3619486063561
 20
-86.25900608067758
 10
-300.8643046540163
 20
-85.25527927141438
 10
-299.7500965108272
 20
-84.47952152157748
 10
-298.2767287310153
 20
-83.41492996969247
 10
-296.817593020681
 20
-82.31619108788097
 10
-296.11184463988565
 20
-81.75416070539286
 42
0.3916562735364708
  0
LWPOLYLINE
  5
41
330
17
100
AcDbEntity
  8
HANDLE_REFERENCE
100
AcDbPolyline
 90
2
 70
0
 10
-260.111
 20
-53.6991
 10
1.677500000000009
 20
-53.7167
  0
LWPOLYLINE
  5
42
330
17
100
AcDbEntity
  8
HANDLE_REFERENCE
100
AcDbPolyline
 90
2
 70
0
 10
-523.5076
 20
-82.897
 10
-501.8451999999999
 20
-52.7244
  0
LWPOLYLINE
  5
43
330
17
100
AcDbEntity
  8
HANDLE_REFERENCE
100
AcDbPolyline
 90
2
 70
0
 10
-364.9078
 20
-82.12329999999999
 10
-330.0932
 20
-67.4238
  0
LWPOLYLINE
  5
44
330
17
100
AcDbEntity
  8
HANDLE_REFERENCE
100
AcDbPolyline
 90
2
 70
0
 10
196.9879
 20
-189.2134
 10
310.2738
 20
-147.8974
  0
LWPOLYLINE
  5
45
330
17
100
AcDbEntity
  8
HANDLE_REFERENCE
100
AcDbPolyline
 90
2
 70
0
 10
260.9611
 20
-191.8789
 10
346.2587
 20
-147.8974
  0
LWPOLYLINE
  5
46
330
17
100
AcDbEntity
  8
HANDLE_REFERENCE
100
AcDbPolyline
 90
2
 70
0
 10
274.2889
 20
-201.2084
 10
354.2554
 20
-162.5579
  0
ENDSEC
  0
SECTION
  2
OBJECTS
  0
DICTIONARY
  5
A
330
0
100
AcDbDictionary
281
1
  3
ACAD_COLOR
350
B
  3
ACAD_GROUP
350
C
  3
ACAD_LAYOUT
350
D
  3
ACAD_MATERIAL
350
E
  3
ACAD_MLEADERSTYLE
350
F
  3
ACAD_MLINESTYLE
350
10
  3
ACAD_PLOTSETTINGS
350
11
  3
ACAD_PLOTSTYLENAME
350
12
  3
ACAD_SCALELIST
350
14
  3
ACAD_TABLESTYLE
350
15
  3
ACAD_VISUALSTYLE
350
16
  3
EZDXF_META
350
2D
  0
DICTIONARY
  5
B
330
A
100
AcDbDictionary
281
1
  0
DICTIONARY
  5
C
330
A
100
AcDbDictionary
281
1
  0
DICTIONARY
  5
D
330
A
100
AcDbDictionary
281
1
  3
Model
350
1A
  3
Layout1
350
1E
  0
DICTIONARY
  5
E
330
A
100
AcDbDictionary
281
1
  3
ByBlock
350
1F
  3
ByLayer
350
20
  3
Global
350
21
  0
DICTIONARY
  5
F
330
A
100
AcDbDictionary
281
1
  3
Standard
350
2C
  0
DICTIONARY
  5
10
330
A
100
AcDbDictionary
281
1
  3
Standard
350
22
  0
DICTIONARY
  5
11
330
A
100
AcDbDictionary
281
1
  0
ACDBDICTIONARYWDFLT
  5
12
330
A
100
AcDbDictionary
281
1
  3
Normal
350
13
100
AcDbDictionaryWithDefault
340
13
  0
ACDBPLACEHOLDER
  5
13
330
12
  0
DICTIONARY
  5
14
330
A
100
AcDbDictionary
281
1
  0
DICTIONARY
  5
15
330
A
100
AcDbDictionary
281
1
  0
DICTIONARY
  5
16
330
A
100
AcDbDictionary
281
1
  0
LAYOUT
  5
1A
330
D
100
AcDbPlotSettings
  1

  4
A3
  6

 40
7.5
 41
20.0
 42
7.5
 43
20.0
 44
420.0
 45
297.0
 46
0.0
 47
0.0
 48
0.0
 49
0.0
140
0.0
141
0.0
142
1.0
143
1.0
 70
1024
 72
1
 73
0
 74
5
  7

 75
16
 76
0
 77
2
 78
300
147
1.0
148
0.0
149
0.0
100
AcDbLayout
  1
Model
 70
1
 71
0
 10
0.0
 20
0.0
 11
420.0
 21
297.0
 12
0.0
 22
0.0
 32
0.0
 14
1e+20
 24
1e+20
 34
1e+20
 15
-1e+20
 25
-1e+20
 35
-1e+20
146
0.0
 13
0.0
 23
0.0
 33
0.0
 16
1.0
 26
0.0
 36
0.0
 17
0.0
 27
1.0
 37
0.0
 76
1
330
17
  0
LAYOUT
  5
1E
330
D
100
AcDbPlotSettings
  1

  4
A3
  6

 40
7.5
 41
20.0
 42
7.5
 43
20.0
 44
420.0
 45
297.0
 46
0.0
 47
0.0
 48
0.0
 49
0.0
140
0.0
141
0.0
142
1.0
143
1.0
 70
0
 72
1
 73
0
 74
5
  7

 75
16
 76
0
 77
2
 78
300
147
1.0
148
0.0
149
0.0
100
AcDbLayout
  1
Layout1
 70
1
 71
1
 10
0.0
 20
0.0
 11
420.0
 21
297.0
 12
0.0
 22
0.0
 32
0.0
 14
1e+20
 24
1e+20
 34
1e+20
 15
-1e+20
 25
-1e+20
 35
-1e+20
146
0.0
 13
0.0
 23
0.0
 33
0.0
 16
1.0
 26
0.0
 36
0.0
 17
0.0
 27
1.0
 37
0.0
 76
1
330
1B
  0
MATERIAL
  5
1F
102
{ACAD_REACTORS
330
E
102
}
330
E
100
AcDbMaterial
  1
ByBlock
  2

 70
0
 40
1.0
 71
1
 41
1.0
 91
-1023410177
 42
1.0
 72
1
  3

 73
1
 74
1
 75
1
 44
0.5
 73
0
 45
1.0
 46
1.0
 77
1
  4

 78
1
 79
1
170
1
 48
1.0
171
1
  6

172
1
173
1
174
1
140
1.0
141
1.0
175
1
  7

176
1
177
1
178
1
143
1.0
179
1
  8

270
1
271
1
272
1
145
1.0
146
1.0
273
1
  9

274
1
275
1
276
1
 42
1.0
 72
1
  3

 73
1
 74
1
 75
1
 94
63
  0
MATERIAL
  5
20
102
{ACAD_REACTORS
330
E
102
}
330
E
100
AcDbMaterial
  1
ByLayer
  2

 70
0
 40
1.0
 71
1
 41
1.0
 91
-1023410177
 42
1.0
 72
1
  3

 73
1
 74
1
 75
1
 44
0.5
 73
0
 45
1.0
 46
1.0
 77
1
  4

 78
1
 79
1
170
1
 48
1.0
171
1
  6

172
1
173
1
174
1
140
1.0
141
1.0
175
1
  7

176
1
177
1
178
1
143
1.0
179
1
  8

270
1
271
1
272
1
145
1.0
146
1.0
273
1
  9

274
1
275
1
276
1
 42
1.0
 72
1
  3

 73
1
 74
1
 75
1
 94
63
  0
MATERIAL
  5
21
102
{ACAD_REACTORS
330
E
102
}
330
E
100
AcDbMaterial
  1
Global
  2

 70
0
 40
1.0
 71
1
 41
1.0
 91
-1023410177
 42
1.0
 72
1
  3

 73
1
 74
1
 75
1
 44
0.5
 73
0
 45
1.0
 46
1.0
 77
1
  4

 78
1
 79
1
170
1
 48
1.0
171
1
  6

172
1
173
1
174
1
140
1.0
141
1.0
175
1
  7

176
1
177
1
178
1
143
1.0
179
1
  8

270
1
271
1
272
1
145
1.0
146
1.0
273
1
  9

274
1
275
1
276
1
 42
1.0
 72
1
  3

 73
1
 74
1
 75
1
 94
63
  0
MLINESTYLE
  5
22
102
{ACAD_REACTORS
330
10
102
}
330
10
100
AcDbMlineStyle
  2
Standard
 70
0
  3

 62
256
 51
90.0
 52
90.0
 71
2
 49
0.5
 62
256
  6
BYLAYER
 49
-0.5
 62
256
  6
BYLAYER
  0
MLEADERSTYLE
  5
2C
102
{ACAD_REACTORS
330
F
102
}
330
F
100
AcDbMLeaderStyle
179
2
170
2
171
1
172
0
 90
2
 40
0.0
 41
0.0
173
1
 91
-1056964608
 92
-2
290
1
 42
2.0
291
1
 43
8.0
  3
Standard
 44
4.0
300

342
29
174
1
175
1
176
0
178
1
 93
-1056964608
 45
4.0
292
0
297
0
 46
4.0
 94
-1056964608
 47
1.0
 49
1.0
140
1.0
294
1
141
0.0
177
0
142
1.0
295
0
296
0
143
3.75
271
0
272
9
273
9
  0
DICTIONARY
  5
2D
330
A
100
AcDbDictionary
280
1
281
1
  3
CREATED_BY_EZDXF
350
2E
  3
WRITTEN_BY_EZDXF
350
49
  0
DICTIONARYVAR
  5
2E
330
2D
100
DictionaryVariables
280
0
  1
1.4.4 @ 2026-09-23T23:13:31.860819+00:00
  0
DICTIONARYVAR
  5
49
330
2D
100
DictionaryVariables
280
0
  1
1.4.4 @ 2026-09-23T23:13:31.944209+00:00
  0
ENDSEC
  0
EOF
