  0
SECTION
  2
HEADER
  9
$ACADVER
  1
AC1015
  9
$ACADMAINTVER
 70
6
  9
$DWGCODEPAGE
  3
ANSI_1252
  9
$INSBASE
 10
0.0
 20
0.0
 30
0.0
  9
$EXTMIN
 10
1e+20
 20
1e+20
 30
1e+20
  9
$EXTMAX
 10
-1e+20
 20
-1e+20
 30
-1e+20
  9
$LIMMIN
 10
0.0
 20
0.0
  9
$LIMMAX
 10
420.0
 20
297.0
  9
$ORTHOMODE
 70
0
  9
$REGENMODE
 70
1
  9
$FILLMODE
 70
1
  9
$QTEXTMODE
 70
0
  9
$MIRRTEXT
 70
1
  9
$LTSCALE
 40
1.0
  9
$ATTMODE
 70
1
  9
$TEXTSIZE
 40
2.5
  9
$TRACEWID
 40
1.0
  9
$TEXTSTYLE
  7
OpenSans
  9
$CLAYER
  8
0
  9
$CELTYPE
  6
ByLayer
  9
$CECOLOR
 62
256
  9
$CELTSCALE
 40
1.0
  9
$DISPSILH
 70
0
  9
$DIMSCALE
 40
1.0
  9
$DIMASZ
 40
0.175
  9
$DIMEXO
 40
0.125
  9
$DIMDLI
 40
3.75
  9
$DIMRND
 40
0.0
  9
$DIMDLE
 40
0.0
  9
$DIMEXE
 40
0.375
  9
$DIMTP
 40
0.0
  9
$DIMTM
 40
0.0
  9
$DIMTXT
 40
0.25
  9
$DIMCEN
 40
2.5
  9
$DIMTSZ
 40
0.0
  9
$DIMTOL
 70
0
  9
$DIMLIM
 70
0
  9
$DIMTIH
 70
0
  9
$DIMTOH
 70
0
  9
$DIMSE1
 70
0
  9
$DIMSE2
 70
0
  9
$DIMTAD
 70
1
  9
$DIMZIN
 70
12
  9
$DIMBLK
  1
ARCHTICK
  9
$DIMASO
 70
1
  9
$DIMSHO
 70
1
  9
$DIMPOST
  1

  9
$DIMAPOST
  1

  9
$DIMALT
 70
0
  9
$DIMALTD
 70
3
  9
$DIMALTF
 40
0.03937007874
  9
$DIMLFAC
 40
100.0
  9
$DIMTOFL
 70
1
  9
$DIMTVP
 40
0.0
  9
$DIMTIX
 70
0
  9
$DIMSOXD
 70
0
  9
$DIMSAH
 70
0
  9
$DIMBLK1
  1

  9
$DIMBLK2
  1

  9
$DIMSTYLE
  2
EZDXF
  9
$DIMCLRD
 70
0
  9
$DIMCLRE
 70
0
  9
$DIMCLRT
 70
0
  9
$DIMTFAC
 40
0.5
  9
$DIMGAP
 40
0.1
  9
$DIMJUST
 70
0
  9
$DIMSD1
 70
0
  9
$DIMSD2
 70
0
  9
$DIMTOLJ
 70
0
  9
$DIMTZIN
 70
8
  9
$DIMALTZ
 70
0
  9
$DIMALTTZ
 70
0
  9
$DIMUPT
 70
1
  9
$DIMDEC
 70
2
  9
$DIMTDEC
 70
2
  9
$DIMALTU
 70
2
  9
$DIMALTTD
 70
3
  9
$DIMTXSTY
  7
OpenSansCondensed-Light
  9
$DIMAUNIT
 70
0
  9
$DIMADEC
 70
2
  9
$DIMALTRND
 40
0.0
  9
$DIMAZIN
 70
3
  9
$DIMDSEP
 70
46
  9
$DIMATFIT
 70
3
  9
$DIMFRAC
 70
0
  9
$DIMLDRBLK
  1

  9
$DIMLUNIT
 70
2
  9
$DIMLWD
 70
-2
  9
$DIMLWE
 70
-2
  9
$DIMTMOVE
 70
2
  9
$LUNITS
 70
2
  9
$LUPREC
 70
4
  9
$SKETCHINC
 40
1.0
  9
$FILLETRAD
 40
10.0
  9
$AUNITS
 70
0
  9
$AUPREC
 70
2
  9
$MENU
  1
.
  9
$ELEVATION
 40
0.0
  9
$PELEVATION
 40
0.0
  9
$THICKNESS
 40
0.0
  9
$LIMCHECK
 70
0
  9
$CHAMFERA
 40
0.0
  9
$CHAMFERB
 40
0.0
  9
$CHAMFERC
 40
0.0
  9
$CHAMFERD
 40
0.0
  9
$SKPOLY
 70
0
  9
$TDCREATE
 40
2461292.6511805556
  9
$TDUCREATE
 40
2458532.153996898
  9
$TDUPDATE
 40
2461292.6511805556
  9
$TDUUPDATE
 40
2458532.1544311
  9
$TDINDWG
 40
0.0
  9
$TDUSRTIMER
 40
0.0
  9
$USRTIMER
 70
1
  9
$ANGBASE
 50
0.0
  9
$ANGDIR
 70
0
  9
$PDMODE
 70
0
  9
$PDSIZE
 40
0.0
  9
$PLINEWID
 40
0.0
  9
$SPLFRAME
 70
0
  9
$SPLINETYPE
 70
6
  9
$SPLINESEGS
 70
8
  9
$HANDSEED
  5
98
  9
$SURFTAB1
 70
6
  9
$SURFTAB2
 70
6
  9
$SURFTYPE
 70
6
  9
$SURFU
 70
6
  9
$SURFV
 70
6
  9
$UCSBASE
  2

  9
$UCSNAME
  2

  9
$UCSORG
 10
0.0
 20
0.0
 30
0.0
  9
$UCSXDIR
 10
1.0
 20
0.0
 30
0.0
  9
$UCSYDIR
 10
0.0
 20
1.0
 30
0.0
  9
$UCSORTHOREF
  2

  9
$UCSORTHOVIEW
 70
0
  9
$UCSORGTOP
 10
0.0
 20
0.0
 30
0.0
  9
$UCSORGBOTTOM
 10
0.0
 20
0.0
 30
0.0
  9
$UCSORGLEFT
 10
0.0
 20
0.0
 30
0.0
  9
$UCSORGRIGHT
 10
0.0
 20
0.0
 30
0.0
  9
$UCSORGFRONT
 10
0.0
 20
0.0
 30
0.0
  9
$UCSORGBACK
 10
0.0
 20
0.0
 30
0.0
  9
$PUCSBASE
  2

  9
$PUCSNAME
  2

  9
$PUCSORG
 10
0.0
 20
0.0
 30
0.0
  9
$PUCSXDIR
 10
1.0
 20
0.0
 30
0.0
  9
$PUCSYDIR
 10
0.0
 20
1.0
 30
0.0
  9
$PUCSORTHOREF
  2

  9
$PUCSORTHOVIEW
 70
0
  9
$PUCSORGTOP
 10
0.0
 20
0.0
 30
0.0
  9
$PUCSORGBOTTOM
 10
0.0
 20
0.0
 30
0.0
  9
$PUCSORGLEFT
 10
0.0
 20
0.0
 30
0.0
  9
$PUCSORGRIGHT
 10
0.0
 20
0.0
 30
0.0
  9
$PUCSORGFRONT
 10
0.0
 20
0.0
 30
0.0
  9
$PUCSORGBACK
 10
0.0
 20
0.0
 30
0.0
  9
$USERI1
 70
0
  9
$USERI2
 70
0
  9
$USERI3
 70
0
  9
$USERI4
 70
0
  9
$USERI5
 70
0
  9
$USERR1
 40
0.0
  9
$USERR2
 40
0.0
  9
$USERR3
 40
0.0
  9
$USERR4
 40
0.0
  9
$USERR5
 40
0.0
  9
$WORLDVIEW
 70
1
  9
$SHADEDGE
 70
3
  9
$SHADEDIF
 70
70
  9
$TILEMODE
 70
1
  9
$MAXACTVP
 70
64
  9
$PINSBASE
 10
0.0
 20
0.0
 30
0.0
  9
$PLIMCHECK
 70
0
  9
$PEXTMIN
 10
1e+20
 20
1e+20
 30
1e+20
  9
$PEXTMAX
 10
-1e+20
 20
-1e+20
 30
-1e+20
  9
$PLIMMIN
 10
0.0
 20
0.0
  9
$PLIMMAX
 10
420.0
 20
297.0
  9
$UNITMODE
 70
0
  9
$VISRETAIN
 70
1
  9
$PLINEGEN
 70
0
  9
$PSLTSCALE
 70
1
  9
$TREEDEPTH
 70
3020
  9
$CMLSTYLE
  2
Standard
  9
$CMLJUST
 70
0
  9
$CMLSCALE
 40
20.0
  9
$PROXYGRAPHICS
 70
1
  9
$MEASUREMENT
 70
1
  9
$CELWEIGHT
370
-1
  9
$ENDCAPS
280
0
  9
$JOINSTYLE
280
0
  9
$LWDISPLAY
290
0
  9
$INSUNITS
 70
4
  9
$HYPERLINKBASE
  1

  9
$STYLESHEET
  1

  9
$XEDIT
290
1
  9
$CEPSNTYPE
380
0
  9
$PSTYLEMODE
290
1
  9
$FINGERPRINTGUID
  2
{B5CE3D33-89E1-4BF6-AC81-C855202455EF}
  9
$VERSIONGUID
  2
{498B20FF-6623-4AE9-8176-714EDF0ACF8D}
  9
$EXTNAMES
290
1
  9
$PSVPSCALE
 40
0.0
  9
$OLESTARTUP
290
0
  0
ENDSEC
  0
SECTION
  2
CLASSES
  0
CLASS
  1
ACDBDICTIONARYWDFLT
  2
AcDbDictionaryWithDefault
  3
ObjectDBX Classes
 90
0
280
0
281
0
  0
CLASS
  1
SUN
  2
AcDbSun
  3
SCENEOE
 90
1153
280
0
281
0
  0
CLASS
  1
VISUALSTYLE
  2
AcDbVisualStyle
  3
ObjectDBX Classes
 90
4095
280
0
281
0
  0
CLASS
  1
MATERIAL
  2
AcDbMaterial
  3
ObjectDBX Classes
 90
1153
280
0
281
0
  0
CLASS
  1
SCALE
  2
AcDbScale
  3
ObjectDBX Classes
 90
1153
280
0
281
0
  0
CLASS
  1
TABLESTYLE
  2
AcDbTableStyle
  3
ObjectDBX Classes
 90
4095
280
0
281
0
  0
CLASS
  1
MLEADERSTYLE
  2
AcDbMLeaderStyle
  3
ACDB_MLEADERSTYLE_CLASS
 90
4095
280
0
281
0
  0
CLASS
  1
DICTIONARYVAR
  2
AcDbDictionaryVar
  3
ObjectDBX Classes
 90
0
280
0
281
0
  0
CLASS
  1
CELLSTYLEMAP
  2
AcDbCellStyleMap
  3
ObjectDBX Classes
 90
1152
280
0
281
0
  0
CLASS
  1
MENTALRAYRENDERSETTINGS
  2
AcDbMentalRayRenderSettings
  3
SCENEOE
 90
1024
280
0
281
0
  0
CLASS
  1
ACDBDETAILVIEWSTYLE
  2
AcDbDetailViewStyle
  3
ObjectDBX Classes
 90
1025
280
0
281
0
  0
CLASS
  1
ACDBSECTIONVIEWSTYLE
  2
AcDbSectionViewStyle
  3
ObjectDBX Classes
 90
1025
280
0
281
0
  0
CLASS
  1
RASTERVARIABLES
  2
AcDbRasterVariables
  3
ISM
 90
0
280
0
281
0
  0
CLASS
  1
ACDBPLACEHOLDER
  2
AcDbPlaceHolder
  3
ObjectDBX Classes
 90
0
280
0
281
0
  0
CLASS
  1
LAYOUT
  2
AcDbLayout
  3
ObjectDBX Classes
 90
0
280
0
281
0
  0
ENDSEC
  0
SECTION
  2
TABLES
  0
TABLE
  2
VPORT
  5
8
330
0
100
AcDbSymbolTable
 70
1
  0
VPORT
  5
23
330
8
100
AcDbSymbolTableRecord
100
AcDbViewportTableRecord
  2
*Active
 70
0
 10
0.0
 20
0.0
 11
1.0
 21
1.0
 12
0.0
 22
0.0
 13
0.0
 23
0.0
 14
0.5
 24
0.5
 15
0.5
 25
0.5
 16
0.0
 26
0.0
 36
1.0
 17
0.0
 27
0.0
 37
0.0
 40
1000.0
 41
1.34
 42
50.0
 43
0.0
 44
0.0
 50
0.0
 51
0.0
 71
0
 72
1000
 73
1
 74
3
 75
0
 76
0
 77
0
 78
0
281
0
 65
0
146
0.0
  0
ENDTAB
  0
TABLE
  2
LTYPE
  5
2
330
0
100
AcDbSymbolTable
 70
21
  0
LTYPE
  5
24
330
2
100
AcDbSymbolTableRecord
100
AcDbLinetypeTableRecord
  2
ByBlock
 70
0
  3

 72
65
 73
0
 40
0.0
  0
LTYPE
  5
25
330
2
100
AcDbSymbolTableRecord
100
AcDbLinetypeTableRecord
  2
ByLayer
 70
0
  3

 72
65
 73
0
 40
0.0
  0
LTYPE
  5
26
330
2
100
AcDbSymbolTableRecord
100
AcDbLinetypeTableRecord
  2
Continuous
 70
0
  3

 72
65
 73
0
 40
0.0
  0
LTYPE
  5
2F
330
2
100
AcDbSymbolTableRecord
100
AcDbLinetypeTableRecord
  2
CENTER
 70
0
  3
Center ____ _ ____ _ ____ _ ____ _ ____ _ ____
 72
65
 73
4
 40
5.08
 49
3.175
 74
0
 49
-0.635
 74
0
 49
0.635
 74
0
 49
-0.635
 74
0
  0
LTYPE
  5
30
330
2
100
AcDbSymbolTableRecord
100
AcDbLinetypeTableRecord
  2
CENTERX2
 70
0
  3
Center (2x) ________  __  ________  __  ________
 72
65
 73
4
 40
8.89
 49
6.35
 74
0
 49
-0.635
 74
0
 49
1.27
 74
0
 49
-0.635
 74
0
  0
LTYPE
  5
31
330
2
100
AcDbSymbolTableRecord
100
AcDbLinetypeTableRecord
  2
CENTER2
 70
0
  3
Center (.5x) ____ _ ____ _ ____ _ ____ _ ____
 72
65
 73
4
 40
2.54
 49
1.587
 74
0
 49
-0.318
 74
0
 49
0.318
 74
0
 49
-0.318
 74
0
  0
LTYPE
  5
32
330
2
100
AcDbSymbolTableRecord
100
AcDbLinetypeTableRecord
  2
DASHED
 70
0
  3
Dashed __ __ __ __ __ __ __ __ __ __ __ __ __ _
 72
65
 73
2
 40
1.524
 49
1.27
 74
0
 49
-0.254
 74
0
  0
LTYPE
  5
33
330
2
100
AcDbSymbolTableRecord
100
AcDbLinetypeTableRecord
  2
DASHEDX2
 70
0
  3
Dashed (2x) ____  ____  ____  ____  ____  ____
 72
65
 73
2
 40
3.048
 49
2.54
 74
0
 49
-0.508
 74
0
  0
LTYPE
  5
34
330
2
100
AcDbSymbolTableRecord
100
AcDbLinetypeTableRecord
  2
DASHED2
 70
0
  3
Dashed (.5x) _ _ _ _ _ _ _ _ _ _ _ _ _ _
 72
65
 73
2
 40
0.762
 49
0.635
 74
0
 49
-0.127
 74
0
  0
LTYPE
  5
35
330
2
100
AcDbSymbolTableRecord
100
AcDbLinetypeTableRecord
  2
PHANTOM
 70
0
  3
Phantom ______  __  __  ______  __  __  ______
 72
65
 73
6
 40
6.35
 49
3.175
 74
0
 49
-0.635
 74
0
 49
0.635
 74
0
 49
-0.635
 74
0
 49
0.635
 74
0
 49
-0.635
 74
0
  0
LTYPE
  5
36
330
2
100
AcDbSymbolTableRecord
100
AcDbLinetypeTableRecord
  2
PHANTOMX2
 70
0
  3
Phantom (2x)____________    ____    ____    ____________
 72
65
 73
6
 40
10.795
 49
6.35
 74
0
 49
-0.635
 74
0
 49
1.27
 74
0
 49
-0.635
 74
0
 49
1.27
 74
0
 49
-0.635
 74
0
  0
LTYPE
  5
37
330
2
100
AcDbSymbolTableRecord
100
AcDbLinetypeTableRecord
  2
PHANTOM2
 70
0
  3
Phantom (.5x) ___ _ _ ___ _ _ ___ _ _ ___ _ _ ___
 72
65
 73
6
 40
3.175
 49
1.587
 74
0
 49
-0.318
 74
0
 49
0.318
 74
0
 49
-0.318
 74
0
 49
0.318
 74
0
 49
-0.318
 74
0
  0
LTYPE
  5
38
330
2
100
AcDbSymbolTableRecord
100
AcDbLinetypeTableRecord
  2
DASHDOT
 70
0
  3
Dash dot __ . __ . __ . __ . __ . __ . __ . __
 72
65
 73
4
 40
3.556
 49
2.54
 74
0
 49
-0.508
 74
0
 49
0.0
 74
0
 49
-0.508
 74
0
  0
LTYPE
  5
39
330
2
100
AcDbSymbolTableRecord
100
AcDbLinetypeTableRecord
  2
DASHDOTX2
 70
0
  3
Dash dot (2x) ____  .  ____  .  ____  .  ____
 72
65
 73
4
 40
6.096
 49
5.08
 74
0
 49
-0.508
 74
0
 49
0.0
 74
0
 49
-0.508
 74
0
  0
LTYPE
  5
3A
330
2
100
AcDbSymbolTableRecord
100
AcDbLinetypeTableRecord
  2
DASHDOT2
 70
0
  3
Dash dot (.5x) _ . _ . _ . _ . _ . _ . _ . _
 72
65
 73
4
 40
1.778
 49
1.27
 74
0
 49
-0.254
 74
0
 49
0.0
 74
0
 49
-0.254
 74
0
  0
LTYPE
  5
3B
330
2
100
AcDbSymbolTableRecord
100
AcDbLinetypeTableRecord
  2
DOT
 70
0
  3
Dot .  .  .  .  .  .  .  .  .  .  .  .  .  .  .  .
 72
65
 73
2
 40
0.508
 49
0.0
 74
0
 49
-0.508
 74
0
  0
LTYPE
  5
3C
330
2
100
AcDbSymbolTableRecord
100
AcDbLinetypeTableRecord
  2
DOTX2
 70
0
  3
Dot (2x) .    .    .    .    .    .    .    . 
 72
65
 73
2
 40
1.016
 49
0.0
 74
0
 49
-1.016
 74
0
  0
LTYPE
  5
3D
330
2
100
AcDbSymbolTableRecord
100
AcDbLinetypeTableRecord
  2
DOT2
 70
0
  3
Dot (.5) . . . . . . . . . . . . . . . . . . . 
 72
65
 73
2
 40
0.254
 49
0.0
 74
0
 49
-0.254
 74
0
  0
LTYPE
  5
3E
330
2
100
AcDbSymbolTableRecord
100
AcDbLinetypeTableRecord
  2
DIVIDE
 70
0
  3
Divide __ . . __ . . __ . . __ . . __ . . __
 72
65
 73
6
 40
4.064
 49
2.54
 74
0
 49
-0.508
 74
0
 49
0.0
 74
0
 49
-0.508
 74
0
 49
0.0
 74
0
 49
-0.508
 74
0
  0
LTYPE
  5
3F
330
2
100
AcDbSymbolTableRecord
100
AcDbLinetypeTableRecord
  2
DIVIDEX2
 70
0
  3
Divide (2x) ____  . .  ____  . .  ____  . .  ____
 72
65
 73
6
 40
6.604
 49
5.08
 74
0
 49
-0.508
 74
0
 49
0.0
 74
0
 49
-0.508
 74
0
 49
0.0
 74
0
 49
-0.508
 74
0
  0
LTYPE
  5
40
330
2
100
AcDbSymbolTableRecord
100
AcDbLinetypeTableRecord
  2
DIVIDE2
 70
0
  3
Divide(.5x) _ . _ . _ . _ . _ . _ . _ . _
 72
65
 73
6
 40
2.032
 49
1.27
 74
0
 49
-0.254
 74
0
 49
0.0
 74
0
 49
-0.254
 74
0
 49
0.0
 74
0
 49
-0.254
 74
0
  0
ENDTAB
  0
TABLE
  2
LAYER
  5
1
330
0
100
AcDbSymbolTable
 70
3
  0
LAYER
  5
27
330
1
100
AcDbSymbolTableRecord
100
AcDbLayerTableRecord
  2
0
 70
0
 62
7
  6
Continuous
370
-3
390
13
  0
LAYER
  5
28
330
1
100
AcDbSymbolTableRecord
100
AcDbLayerTableRecord
  2
Defpoints
 70
0
 62
7
  6
Continuous
290
0
370
-3
390
13
  0
LAYER
  5
8A
330
1
100
AcDbSymbolTableRecord
100
AcDbLayerTableRecord
  2
LOGO
 70
0
 62
7
  6
Continuous
370
-3
390
13
  0
ENDTAB
  0
TABLE
  2
STYLE
  5
5
330
0
100
AcDbSymbolTable
 70
26
  0
STYLE
  5
29
330
5
100
AcDbSymbolTableRecord
100
AcDbTextStyleTableRecord
  2
Standard
 70
0
 40
0.0
 41
1.0
 50
0.0
 71
0
 42
2.5
  3
txt
  4

  0
STYLE
  5
41
330
5
100
AcDbSymbolTableRecord
100
AcDbTextStyleTableRecord
  2
OpenSans-Light
 70
0
 40
0.0
 41
1.0
 50
0.0
 71
0
 42
2.5
  3
OpenSans-Light.ttf
  4

  0
STYLE
  5
42
330
5
100
AcDbSymbolTableRecord
100
AcDbTextStyleTableRecord
  2
OpenSans-Light-Italic
 70
0
 40
0.0
 41
1.0
 50
0.0
 71
0
 42
2.5
  3
OpenSans-LightItalic.ttf
  4

  0
STYLE
  5
43
330
5
100
AcDbSymbolTableRecord
100
AcDbTextStyleTableRecord
  2
OpenSans
 70
0
 40
0.0
 41
1.0
 50
0.0
 71
0
 42
2.5
  3
OpenSans-Regular.ttf
  4

  0
STYLE
  5
44
330
5
100
AcDbSymbolTableRecord
100
AcDbTextStyleTableRecord
  2
OpenSans-Italic
 70
0
 40
0.0
 41
1.0
 50
0.0
 71
0
 42
2.5
  3
OpenSans-Italic.ttf
  4

  0
STYLE
  5
45
330
5
100
AcDbSymbolTableRecord
100
AcDbTextStyleTableRecord
  2
OpenSans-SemiBold
 70
0
 40
0.0
 41
1.0
 50
0.0
 71
0
 42
2.5
  3
OpenSans-SemiBold.ttf
  4

  0
STYLE
  5
46
330
5
100
AcDbSymbolTableRecord
100
AcDbTextStyleTableRecord
  2
OpenSans-SemiBoldItalic
 70
0
 40
0.0
 41
1.0
 50
0.0
 71
0
 42
2.5
  3
OpenSans-SemiBoldItalic.ttf
  4

  0
STYLE
  5
47
330
5
100
AcDbSymbolTableRecord
100
AcDbTextStyleTableRecord
  2
OpenSans-Bold
 70
0
 40
0.0
 41
1.0
 50
0.0
 71
0
 42
2.5
  3
OpenSans-Bold.ttf
  4

  0
STYLE
  5
48
330
5
100
AcDbSymbolTableRecord
100
AcDbTextStyleTableRecord
  2
OpenSans-BoldItalic
 70
0
 40
0.0
 41
1.0
 50
0.0
 71
0
 42
2.5
  3
OpenSans-BoldItalic.ttf
  4

  0
STYLE
  5
49
330
5
100
AcDbSymbolTableRecord
100
AcDbTextStyleTableRecord
  2
OpenSans-ExtraBold
 70
0
 40
0.0
 41
1.0
 50
0.0
 71
0
 42
2.5
  3
OpenSans-ExtraBold.ttf
  4

  0
STYLE
  5
4A
330
5
100
AcDbSymbolTableRecord
100
AcDbTextStyleTableRecord
  2
OpenSans-ExtraBoldItalic
 70
0
 40
0.0
 41
1.0
 50
0.0
 71
0
 42
2.5
  3
OpenSans-ExtraBoldItalic.ttf
  4

  0
STYLE
  5
4B
330
5
100
AcDbSymbolTableRecord
100
AcDbTextStyleTableRecord
  2
OpenSansCondensed-Bold
 70
0
 40
0.0
 41
1.0
 50
0.0
 71
0
 42
2.5
  3
OpenSansCondensed-Bold.ttf
  4

  0
STYLE
  5
4C
330
5
100
AcDbSymbolTableRecord
100
AcDbTextStyleTableRecord
  2
OpenSansCondensed-Light
 70
0
 40
0.0
 41
1.0
 50
0.0
 71
0
 42
2.5
  3
OpenSansCondensed-Light.ttf
  4

  0
STYLE
  5
4D
330
5
100
AcDbSymbolTableRecord
100
AcDbTextStyleTableRecord
  2
OpenSansCondensed-Italic
 70
0
 40
0.0
 41
1.0
 50
0.0
 71
0
 42
2.5
  3
OpenSansCondensed-LightItalic.ttf
  4

  0
STYLE
  5
4E
330
5
100
AcDbSymbolTableRecord
100
AcDbTextStyleTableRecord
  2
LiberationSans
 70
0
 40
0.0
 41
1.0
 50
0.0
 71
0
 42
2.5
  3
LiberationSans-Regular.ttf
  4

  0
STYLE
  5
4F
330
5
100
AcDbSymbolTableRecord
100
AcDbTextStyleTableRecord
  2
LiberationSans-Bold
 70
0
 40
0.0
 41
1.0
 50
0.0
 71
0
 42
2.5
  3
LiberationSans-Bold.ttf
  4

  0
STYLE
  5
50
330
5
100
AcDbSymbolTableRecord
100
AcDbTextStyleTableRecord
  2
LiberationSans-BoldItalic
 70
0
 40
0.0
 41
1.0
 50
0.0
 71
0
 42
2.5
  3
LiberationSans-BoldItalic.ttf
  4

  0
STYLE
  5
51
330
5
100
AcDbSymbolTableRecord
100
AcDbTextStyleTableRecord
  2
LiberationSans-Italic
 70
0
 40
0.0
 41
1.0
 50
0.0
 71
0
 42
2.5
  3
LiberationSans-Italic.ttf
  4

  0
STYLE
  5
52
330
5
100
AcDbSymbolTableRecord
100
AcDbTextStyleTableRecord
  2
LiberationSerif
 70
0
 40
0.0
 41
1.0
 50
0.0
 71
0
 42
2.5
  3
LiberationSerif-Regular.ttf
  4

  0
STYLE
  5
53
330
5
100
AcDbSymbolTableRecord
100
AcDbTextStyleTableRecord
  2
LiberationSerif-Bold
 70
0
 40
0.0
 41
1.0
 50
0.0
 71
0
 42
2.5
  3
LiberationSerif-Bold.ttf
  4

  0
STYLE
  5
54
330
5
100
AcDbSymbolTableRecord
100
AcDbTextStyleTableRecord
  2
LiberationSerif-BoldItalic
 70
0
 40
0.0
 41
1.0
 50
0.0
 71
0
 42
2.5
  3
LiberationSerif-BoldItalic.ttf
  4

  0
STYLE
  5
55
330
5
100
AcDbSymbolTableRecord
100
AcDbTextStyleTableRecord
  2
LiberationSerif-Italic
 70
0
 40
0.0
 41
1.0
 50
0.0
 71
0
 42
2.5
  3
LiberationSerif-Italic.ttf
  4

  0
STYLE
  5
56
330
5
100
AcDbSymbolTableRecord
100
AcDbTextStyleTableRecord
  2
LiberationMono
 70
0
 40
0.0
 41
1.0
 50
0.0
 71
0
 42
2.5
  3
LiberationMono-Regular.ttf
  4

  0
STYLE
  5
57
330
5
100
AcDbSymbolTableRecord
100
AcDbTextStyleTableRecord
  2
LiberationMono-Bold
 70
0
 40
0.0
 41
1.0
 50
0.0
 71
0
 42
2.5
  3
LiberationMono-Bold.ttf
  4

  0
STYLE
  5
58
330
5
100
AcDbSymbolTableRecord
100
AcDbTextStyleTableRecord
  2
LiberationMono-BoldItalic
 70
0
 40
0.0
 41
1.0
 50
0.0
 71
0
 42
2.5
  3
LiberationMono-BoldItalic.ttf
  4

  0
STYLE
  5
59
330
5
100
AcDbSymbolTableRecord
100
AcDbTextStyleTableRecord
  2
LiberationMono-Italic
 70
0
 40
0.0
 41
1.0
 50
0.0
 71
0
 42
2.5
  3
LiberationMono-Italic.ttf
  4

  0
ENDTAB
  0
TABLE
  2
VIEW
  5
7
330
0
100
AcDbSymbolTable
 70
0
  0
ENDTAB
  0
TABLE
  2
UCS
  5
6
330
0
100
AcDbSymbolTable
 70
0
  0
ENDTAB
  0
TABLE
  2
APPID
  5
3
330
0
100
AcDbSymbolTable
 70
3
  0
APPID
  5
2A
330
3
100
AcDbSymbolTableRecord
100
AcDbRegAppTableRecord
  2
ACAD
 70
0
  0
APPID
  5
95
330
3
100
AcDbSymbolTableRecord
100
AcDbRegAppTableRecord
  2
HATCHBACKGROUNDCOLOR
 70
0
  0
APPID
  5
96
330
3
100
AcDbSymbolTableRecord
100
AcDbRegAppTableRecord
  2
EZDXF
 70
0
  0
ENDTAB
  0
TABLE
  2
DIMSTYLE
  5
4
330
0
100
AcDbSymbolTable
 70
12
100
AcDbDimStyleTable
  0
DIMSTYLE
105
2B
330
4
100
AcDbSymbolTableRecord
100
AcDbDimStyleTableRecord
  2
Standard
 70
0
  3

  4

 40
1.0
 41
2.5
 42
0.625
 43
3.75
 44
1.25
 45
0.0
 46
0.0
 47
0.0
 48
0.0
140
2.5
141
2.5
142
0.0
143
0.03937007874
144
1.0
145
0.0
146
1.0
147
0.625
148
0.0
 71
0
 72
0
 73
0
 74
0
 75
0
 76
0
 77
1
 78
8
 79
3
170
0
171
3
172
1
173
0
174
0
175
0
176
0
177
0
178
0
179
2
271
2
272
2
273
2
274
3
275
0
276
0
277
2
278
44
279
0
280
0
281
0
282
0
283
0
284
8
285
0
286
0
288
0
289
3
371
-2
372
-2
  0
DIMSTYLE
105
73
330
4
100
AcDbSymbolTableRecord
100
AcDbDimStyleTableRecord
  2
EZDXF
 70
0
  3

  4

 40
1.0
 41
0.175
 42
0.125
 43
3.75
 44
0.375
 45
0.0
 46
0.0
 47
0.0
 48
0.0
140
0.25
141
2.5
142
0.0
143
0.03937007874
144
100.0
145
0.0
146
0.5
147
0.1
148
0.0
 71
0
 72
0
 73
0
 74
0
 75
0
 76
0
 77
1
 78
12
 79
3
170
0
171
3
172
1
173
0
174
0
175
0
176
0
177
0
178
0
179
2
271
2
272
2
273
2
274
3
275
0
276
0
277
2
278
46
279
2
280
0
281
0
282
0
283
0
284
8
285
0
286
0
288
1
289
3
340
4C
342
74
371
-2
372
-2
  0
DIMSTYLE
105
7C
330
4
100
AcDbSymbolTableRecord
100
AcDbDimStyleTableRecord
  2
EZ_M_100_H25_CM
 70
0
  3

  4

 40
1.0
 41
0.25
 42
0.125
 43
3.75
 44
0.375
 45
0.0
 46
0.0
 47
0.0
 48
0.0
140
0.25
141
2.5
142
0.125
143
0.03937007874
144
100.0
145
0.0
146
0.5
147
0.1
148
0.0
 71
0
 72
0
 73
0
 74
0
 75
0
 76
0
 77
1
 78
12
 79
3
170
0
171
3
172
1
173
0
174
0
175
0
176
0
177
0
178
0
179
2
271
2
272
2
273
2
274
3
275
0
276
0
277
2
278
46
279
2
280
0
281
0
282
0
283
0
284
8
285
0
286
0
288
1
289
3
340
4C
371
-2
372
-2
  0
DIMSTYLE
105
7D
330
4
100
AcDbSymbolTableRecord
100
AcDbDimStyleTableRecord
  2
EZ_M_50_H25_CM
 70
0
  3

  4

 40
1.0
 41
0.125
 42
0.0625
 43
3.75
 44
0.1875
 45
0.0
 46
0.0
 47
0.0
 48
0.0
140
0.125
141
2.5
142
0.0625
143
0.03937007874
144
100.0
145
0.0
146
0.5
147
0.05
148
0.0
 71
0
 72
0
 73
0
 74
0
 75
0
 76
0
 77
1
 78
12
 79
3
170
0
171
3
172
1
173
0
174
0
175
0
176
0
177
0
178
0
179
2
271
2
272
2
273
2
274
3
275
0
276
0
277
2
278
46
279
2
280
0
281
0
282
0
283
0
284
8
285
0
286
0
288
1
289
3
340
4C
371
-2
372
-2
  0
DIMSTYLE
105
7E
330
4
100
AcDbSymbolTableRecord
100
AcDbDimStyleTableRecord
  2
EZ_M_25_H25_CM
 70
0
  3

  4

 40
1.0
 41
0.0625
 42
0.03125
 43
3.75
 44
0.09375
 45
0.0
 46
0.0
 47
0.0
 48
0.0
140
0.0625
141
2.5
142
0.03125
143
0.03937007874
144
100.0
145
0.0
146
0.5
147
0.025
148
0.0
 71
0
 72
0
 73
0
 74
0
 75
0
 76
0
 77
1
 78
12
 79
3
170
0
171
3
172
1
173
0
174
0
175
0
176
0
177
0
178
0
179
2
271
2
272
2
273
2
274
3
275
0
276
0
277
2
278
46
279
2
280
0
281
0
282
0
283
0
284
8
285
0
286
0
288
1
289
3
340
4C
371
-2
372
-2
  0
DIMSTYLE
105
7F
330
4
100
AcDbSymbolTableRecord
100
AcDbDimStyleTableRecord
  2
EZ_M_20_H25_CM
 70
0
  3

  4

 40
1.0
 41
0.05
 42
0.025
 43
3.75
 44
0.07500000000000001
 45
0.0
 46
0.0
 47
0.0
 48
0.0
140
0.05
141
2.5
142
0.025
143
0.03937007874
144
100.0
145
0.0
146
0.5
147
0.020000000000000004
148
0.0
 71
0
 72
0
 73
0
 74
0
 75
0
 76
0
 77
1
 78
12
 79
3
170
0
171
3
172
1
173
0
174
0
175
0
176
0
177
0
178
0
179
2
271
2
272
2
273
2
274
3
275
0
276
0
277
2
278
46
279
2
280
0
281
0
282
0
283
0
284
8
285
0
286
0
288
1
289
3
340
4C
371
-2
372
-2
  0
DIMSTYLE
105
80
330
4
100
AcDbSymbolTableRecord
100
AcDbDimStyleTableRecord
  2
EZ_M_10_H25_CM
 70
0
  3

  4

 40
1.0
 41
0.025
 42
0.0125
 43
3.75
 44
0.037500000000000006
 45
0.0
 46
0.0
 47
0.0
 48
0.0
140
0.025
141
2.5
142
0.0125
143
0.03937007874
144
100.0
145
0.0
146
0.5
147
0.010000000000000002
148
0.0
 71
0
 72
0
 73
0
 74
0
 75
0
 76
0
 77
1
 78
12
 79
3
170
0
171
3
172
1
173
0
174
0
175
0
176
0
177
0
178
0
179
2
271
2
272
2
273
2
274
3
275
0
276
0
277
2
278
46
279
2
280
0
281
0
282
0
283
0
284
8
285
0
286
0
288
1
289
3
340
4C
371
-2
372
-2
  0
DIMSTYLE
105
81
330
4
100
AcDbSymbolTableRecord
100
AcDbDimStyleTableRecord
  2
EZ_M_5_H25_CM
 70
0
  3

  4

 40
1.0
 41
0.0125
 42
0.00625
 43
3.75
 44
0.018750000000000003
 45
0.0
 46
0.0
 47
0.0
 48
0.0
140
0.0125
141
2.5
142
0.00625
143
0.03937007874
144
100.0
145
0.0
146
0.5
147
0.005000000000000001
148
0.0
 71
0
 72
0
 73
0
 74
0
 75
0
 76
0
 77
1
 78
12
 79
3
170
0
171
3
172
1
173
0
174
0
175
0
176
0
177
0
178
0
179
2
271
2
272
2
273
2
274
3
275
0
276
0
277
2
278
46
279
2
280
0
281
0
282
0
283
0
284
8
285
0
286
0
288
1
289
3
340
4C
371
-2
372
-2
  0
DIMSTYLE
105
82
330
4
100
AcDbSymbolTableRecord
100
AcDbDimStyleTableRecord
  2
EZ_M_1_H25_CM
 70
0
  3

  4

 40
1.0
 41
0.0025
 42
0.00125
 43
3.75
 44
0.00375
 45
0.0
 46
0.0
 47
0.0
 48
0.0
140
0.0025
141
2.5
142
0.00125
143
0.03937007874
144
100.0
145
0.0
146
0.5
147
0.001
148
0.0
 71
0
 72
0
 73
0
 74
0
 75
0
 76
0
 77
1
 78
12
 79
3
170
0
171
3
172
1
173
0
174
0
175
0
176
0
177
0
178
0
179
2
271
2
272
2
273
2
274
3
275
0
276
0
277
2
278
46
279
2
280
0
281
0
282
0
283
0
284
8
285
0
286
0
288
1
289
3
340
4C
371
-2
372
-2
  0
DIMSTYLE
105
83
330
4
100
AcDbSymbolTableRecord
100
AcDbDimStyleTableRecord
  2
EZ_RADIUS
 70
0
  3

  4

 40
1.0
 41
0.25
 42
0.125
 43
3.75
 44
0.375
 45
0.0
 46
0.0
 47
0.0
 48
0.0
140
0.25
141
0.0
142
0.0
143
0.03937007874
144
100.0
145
0.0
146
0.5
147
0.1
148
0.0
 71
0
 72
0
 73
0
 74
0
 75
0
 76
0
 77
1
 78
12
 79
3
170
0
171
3
172
0
173
0
174
0
175
0
176
0
177
0
178
0
179
2
271
2
272
2
273
2
274
3
275
0
276
0
277
2
278
46
279
1
280
0
281
0
282
0
283
0
284
8
285
0
286
0
288
1
289
3
340
4C
342
84
371
-2
372
-2
  0
DIMSTYLE
105
88
330
4
100
AcDbSymbolTableRecord
100
AcDbDimStyleTableRecord
  2
EZ_RADIUS_INSIDE
 70
0
  3

  4

 40
1.0
 41
0.25
 42
0.125
 43
3.75
 44
0.375
 45
0.0
 46
0.0
 47
0.0
 48
0.0
140
0.25
141
0.0
142
0.0
143
0.03937007874
144
100.0
145
0.0
146
0.5
147
0.1
148
0.0
 71
0
 72
0
 73
0
 74
0
 75
0
 76
0
 77
0
 78
12
 79
3
170
0
171
3
172
0
173
0
174
1
175
0
176
0
177
0
178
0
179
2
271
2
272
2
273
2
274
3
275
0
276
0
277
2
278
46
279
0
280
0
281
0
282
0
283
0
284
8
285
0
286
0
288
1
289
0
340
4C
342
84
371
-2
372
-2
  0
DIMSTYLE
105
89
330
4
100
AcDbSymbolTableRecord
100
AcDbDimStyleTableRecord
  2
EZ_CURVED
 70
0
  3

  4

 40
1.0
 41
0.25
 42
0.125
 43
3.75
 44
0.375
 45
0.0
 46
0.0
 47
0.0
 48
0.0
140
0.25
141
2.5
142
0.0
143
0.03937007874
144
100.0
145
0.0
146
0.5
147
0.1
148
0.0
 71
0
 72
0
 73
0
 74
0
 75
0
 76
0
 77
1
 78
12
 79
2
 90
2
170
0
171
3
172
1
173
0
174
0
175
0
176
0
177
0
178
0
179
2
271
2
272
2
273
2
274
3
275
0
276
0
277
2
278
46
279
2
280
0
281
0
282
0
283
0
284
8
285
0
286
0
288
1
289
3
340
4C
371
-2
372
-2
  0
ENDTAB
  0
TABLE
  2
BLOCK_RECORD
  5
9
330
0
100
AcDbSymbolTable
 70
5
  0
BLOCK_RECORD
  5
17
330
9
100
AcDbSymbolTableRecord
100
AcDbBlockTableRecord
  2
*Model_Space
340
1A
  0
BLOCK_RECORD
  5
1B
330
9
100
AcDbSymbolTableRecord
100
AcDbBlockTableRecord
  2
*Paper_Space
340
1E
  0
BLOCK_RECORD
  5
74
330
9
100
AcDbSymbolTableRecord
100
AcDbBlockTableRecord
  2
_ARCHTICK
340
0
  0
BLOCK_RECORD
  5
78
330
9
100
AcDbSymbolTableRecord
100
AcDbBlockTableRecord
  2
_CLOSEDFILLED
340
0
  0
BLOCK_RECORD
  5
84
330
9
100
AcDbSymbolTableRecord
100
AcDbBlockTableRecord
  2
_CLOSEDBLANK
340
0
  0
ENDTAB
  0
ENDSEC
  0
SECTION
  2
BLOCKS
  0
BLOCK
  5
18
330
17
100
AcDbEntity
  8
0
100
AcDbBlockBegin
  2
*Model_Space
 70
0
 10
0.0
 20
0.0
 30
0.0
  3
*Model_Space
  1

  0
ENDBLK
  5
19
330
17
100
AcDbEntity
  8
0
100
AcDbBlockEnd
  0
BLOCK
  5
1C
330
1B
100
AcDbEntity
  8
0
100
AcDbBlockBegin
  2
*Paper_Space
 70
0
 10
0.0
 20
0.0
 30
0.0
  3
*Paper_Space
  1

  0
ENDBLK
  5
1D
330
1B
100
AcDbEntity
  8
0
100
AcDbBlockEnd
  0
BLOCK
  5
75
330
74
100
AcDbEntity
  8
0
100
AcDbBlockBegin
  2
_ARCHTICK
 70
0
 10
0.0
 20
0.0
 30
0.0
  3
_ARCHTICK
  1

  0
LWPOLYLINE
  5
77
330
74
100
AcDbEntity
  8
0
  6
BYBLOCK
 62
0
100
AcDbPolyline
 90
2
 70
0
 43
0.15
 10
-0.5
 20
-0.5
 10
0.5
 20
0.5
  0
ENDBLK
  5
76
330
74
100
AcDbEntity
  8
0
100
AcDbBlockEnd
  0
BLOCK
  5
79
330
78
100
AcDbEntity
  8
0
100
AcDbBlockBegin
  2
_CLOSEDFILLED
 70
0
 10
0.0
 20
0.0
 30
0.0
  3
_CLOSEDFILLED
  1

  0
SOLID
  5
7B
330
78
100
AcDbEntity
  8
0
  6
BYBLOCK
 62
0
100
AcDbTrace
 10
-1.0
 20
0.16439898372402537
 30
0.0
 11
0.0
 21
0.0
 31
0.0
 12
-1.0
 22
-0.16439898372402537
 32
0.0
 13
-1.0
 23
-0.16439898372402537
 33
0.0
  0
ENDBLK
  5
7A
330
78
100
AcDbEntity
  8
0
100
AcDbBlockEnd
  0
BLOCK
  5
85
330
84
100
AcDbEntity
  8
0
100
AcDbBlockBegin
  2
_CLOSEDBLANK
 70
0
 10
0.0
 20
0.0
 30
0.0
  3
_CLOSEDBLANK
  1

  0
LWPOLYLINE
  5
87
330
84
100
AcDbEntity
  8
0
  6
BYBLOCK
 62
0
100
AcDbPolyline
 90
3
 70
1
 10
-1.0
 20
0.16439898372402537
 10
0.0
 20
0.0
 10
-1.0
 20
-0.16439898372402537
  0
ENDBLK
  5
86
330
84
100
AcDbEntity
  8
0
100
AcDbBlockEnd
  0
ENDSEC
  0
SECTION
  2
ENTITIES
  0
SPLINE
  5
8B
330
17
100
AcDbEntity
  8
LOGO
100
AcDbSpline
 70
0
 71
3
 72
32
 73
28
 74
0
 40
0.0
 40
0.0
 40
0.0
 40
0.0
 40
1.0
 40
1.0
 40
1.0
 40
2.0
 40
2.0
 40
2.0
 40
3.0
 40
3.0
 40
3.0
 40
4.0
 40
4.0
 40
4.0
 40
5.0
 40
5.0
 40
5.0
 40
6.0
 40
6.0
 40
6.0
 40
7.0
 40
7.0
 40
7.0
 40
8.0
 40
8.0
 40
8.0
 40
9.0
 40
9.0
 40
9.0
 40
9.0
 10
7.7398334061735925
 20
36.4010271966238
 30
0.0
 10
7.7398334061735925
 20
41.10049690081255
 30
0.0
 10
10.524188486825459
 20
45.34748340385478
 30
0.0
 10
14.834680067221635
 20
47.22091874579496
 30
0.0
 10
14.728836296076237
 20
47.46369814456805
 30
0.0
 10
14.622992524930837
 20
47.70647754334112
 30
0.0
 10
14.517148753785436
 20
47.94925694211421
 30
0.0
 10
9.918893388712759
 20
45.948808058799585
 30
0.0
 10
6.946004614583128
 20
41.41604616766467
 30
0.0
 10
6.946004614583128
 20
36.4010271966238
 30
0.0
 10
6.946004614583128
 20
29.512579656975788
 30
0.0
 10
12.469069707788739
 20
23.985542427269017
 30
0.0
 10
19.522239711906643
 20
23.814870521047016
 30
0.0
 10
20.574064674747273
 20
23.789073435455236
 30
0.0
 10
23.753349522277052
 20
23.610459796230803
 30
0.0
 10
23.78510206095404
 20
23.608475209646826
 30
0.0
 10
23.80031722476452
 20
23.872422967537887
 30
0.0
 10
23.81553238857499
 20
24.13637072542896
 30
0.0
 10
23.83074755238547
 20
24.40031848332002
 30
0.0
 10
23.69976653117635
 20
24.40825598298929
 30
0.0
 10
20.605818060090876
 20
24.58091670912843
 30
0.0
 10
19.54208727107966
 20
24.60671379472021
 30
0.0
 10
12.923536733519272
 20
24.76547902810499
 30
0.0
 10
7.7398334061735925
 20
29.945214452282677
 30
0.0
 10
7.7398334061735925
 20
36.39904515003971
 30
0.0
 10
7.7398334061735925
 20
36.39970583223441
 30
0.0
 10
7.7398334061735925
 20
36.4003665144291
 30
0.0
 10
7.7398334061735925
 20
36.4010271966238
 30
0.0
  0
SPLINE
  5
8C
330
17
100
AcDbEntity
  8
LOGO
100
AcDbSpline
 70
0
 71
3
 72
32
 73
28
 74
0
 40
0.0
 40
0.0
 40
0.0
 40
0.0
 40
1.0
 40
1.0
 40
1.0
 40
2.0
 40
2.0
 40
2.0
 40
3.0
 40
3.0
 40
3.0
 40
4.0
 40
4.0
 40
4.0
 40
5.0
 40
5.0
 40
5.0
 40
6.0
 40
6.0
 40
6.0
 40
7.0
 40
7.0
 40
7.0
 40
8.0
 40
8.0
 40
8.0
 40
9.0
 40
9.0
 40
9.0
 40
9.0
 10
65.46311196437023
 20
36.801911993253604
 30
0.0
 10
65.46311196437023
 20
32.10244482906473
 30
0.0
 10
62.67875476705177
 20
27.855460866022415
 30
0.0
 10
58.36826911332201
 20
25.982025524082225
 30
0.0
 10
58.47345107338386
 20
25.739244431975873
 30
0.0
 10
58.57863303344573
 20
25.496463339869536
 30
0.0
 10
58.68381499350761
 20
25.253682247763184
 30
0.0
 10
63.284051135164425
 20
27.254133671077714
 30
0.0
 10
66.25693897796076
 20
31.78689810221252
 30
0.0
 10
66.25693897796076
 20
36.801911993253604
 30
0.0
 10
66.25693897796076
 20
43.6903646129014
 30
0.0
 10
60.73387600142172
 20
49.21739930260828
 30
0.0
 10
53.68071031530363
 20
49.38807374883017
 30
0.0
 10
52.628882812463125
 20
49.413869987755334
 30
0.0
 10
49.44959373160017
 20
49.59248193364649
 30
0.0
 10
49.417843732923075
 20
49.59446652023047
 30
0.0
 10
49.40329009797392
 20
49.33051876233941
 30
0.0
 10
49.38873646302477
 20
49.066571004448335
 30
0.0
 10
49.37418282807561
 20
48.802623246557275
 30
0.0
 10
49.505161309284865
 20
48.794683206888116
 30
0.0
 10
52.59712773378624
 20
48.62202756074876
 30
0.0
 10
53.66284056938154
 20
48.59622793515708
 30
0.0
 10
60.281391953608555
 20
48.4374627017723
 30
0.0
 10
65.46311196437023
 20
43.25772727759462
 30
0.0
 10
65.46311196437023
 20
36.80389657983757
 30
0.0
 10
65.46311196437023
 20
36.80323505097625
 30
0.0
 10
65.46311196437023
 20
36.80257352211493
 30
0.0
 10
65.46311196437023
 20
36.801911993253604
 30
0.0
  0
SPLINE
  5
8D
330
17
100
AcDbEntity
  8
LOGO
100
AcDbSpline
 70
0
 71
3
 72
32
 73
28
 74
0
 40
0.0
 40
0.0
 40
0.0
 40
0.0
 40
1.0
 40
1.0
 40
1.0
 40
2.0
 40
2.0
 40
2.0
 40
3.0
 40
3.0
 40
3.0
 40
4.0
 40
4.0
 40
4.0
 40
5.0
 40
5.0
 40
5.0
 40
6.0
 40
6.0
 40
6.0
 40
7.0
 40
7.0
 40
7.0
 40
8.0
 40
8.0
 40
8.0
 40
9.0
 40
9.0
 40
9.0
 40
9.0
 10
24.608700413304103
 20
53.66085649079755
 30
0.0
 10
24.76746564668888
 20
60.27940702835794
 30
0.0
 10
29.94720107086657
 20
65.46311035570362
 30
0.0
 10
36.401031768623604
 20
65.46311035570362
 30
0.0
 10
41.10049893281248
 20
65.46311035570362
 30
0.0
 10
45.34748289585479
 20
62.67875527505174
 30
0.0
 10
47.22091823779499
 20
58.36826369465557
 30
0.0
 10
47.46369932990134
 20
58.47410746580097
 30
0.0
 10
47.706480422007665
 20
58.57995123694636
 30
0.0
 10
47.94926151411402
 20
58.68579500809176
 30
0.0
 10
45.94881009079949
 20
63.284050373164455
 30
0.0
 10
41.41604565966469
 20
66.25693914729408
 30
0.0
 10
36.401031768623604
 20
66.25693914729408
 30
0.0
 10
29.51456373555979
 20
66.25693914729408
 30
0.0
 10
23.98554445926893
 20
60.733874054088474
 30
0.0
 10
23.814870013047038
 20
53.680704049970565
 30
0.0
 10
23.789073774121874
 20
52.62887908712994
 30
0.0
 10
23.610461828230715
 20
49.44959423960016
 30
0.0
 10
23.60847724164674
 20
49.41784170092317
 30
0.0
 10
23.8724249995378
 20
49.40328778375181
 30
0.0
 10
24.136372757428873
 20
49.38873386658044
 30
0.0
 10
24.400320515319933
 20
49.374179949409076
 30
0.0
 10
24.40826055498909
 20
49.505161817284836
 30
0.0
 10
24.580916201128446
 20
52.599111135036935
 30
0.0
 10
24.606715826720123
 20
53.66284192404815
 30
0.0
 10
24.60737735558145
 20
53.66218011296462
 30
0.0
 10
24.608038884442777
 20
53.66151830188108
 30
0.0
 10
24.608700413304103
 20
53.66085649079755
 30
0.0
  0
SPLINE
  5
8E
330
17
100
AcDbEntity
  8
LOGO
100
AcDbSpline
 70
0
 71
3
 72
335
 73
331
 74
0
 40
0.0
 40
0.0
 40
0.0
 40
0.0
 40
1.0
 40
1.0
 40
1.0
 40
2.0
 40
2.0
 40
2.0
 40
3.0
 40
3.0
 40
3.0
 40
4.0
 40
4.0
 40
4.0
 40
5.0
 40
5.0
 40
5.0
 40
6.0
 40
6.0
 40
6.0
 40
7.0
 40
7.0
 40
7.0
 40
8.0
 40
8.0
 40
8.0
 40
9.0
 40
9.0
 40
9.0
 40
10.0
 40
10.0
 40
10.0
 40
11.0
 40
11.0
 40
11.0
 40
12.0
 40
12.0
 40
12.0
 40
13.0
 40
13.0
 40
13.0
 40
14.0
 40
14.0
 40
14.0
 40
15.0
 40
15.0
 40
15.0
 40
16.0
 40
16.0
 40
16.0
 40
17.0
 40
17.0
 40
17.0
 40
18.0
 40
18.0
 40
18.0
 40
19.0
 40
19.0
 40
19.0
 40
20.0
 40
20.0
 40
20.0
 40
21.0
 40
21.0
 40
21.0
 40
22.0
 40
22.0
 40
22.0
 40
23.0
 40
23.0
 40
23.0
 40
24.0
 40
24.0
 40
24.0
 40
25.0
 40
25.0
 40
25.0
 40
26.0
 40
26.0
 40
26.0
 40
27.0
 40
27.0
 40
27.0
 40
28.0
 40
28.0
 40
28.0
 40
29.0
 40
29.0
 40
29.0
 40
30.0
 40
30.0
 40
30.0
 40
31.0
 40
31.0
 40
31.0
 40
32.0
 40
32.0
 40
32.0
 40
33.0
 40
33.0
 40
33.0
 40
34.0
 40
34.0
 40
34.0
 40
35.0
 40
35.0
 40
35.0
 40
36.0
 40
36.0
 40
36.0
 40
37.0
 40
37.0
 40
37.0
 40
38.0
 40
38.0
 40
38.0
 40
39.0
 40
39.0
 40
39.0
 40
40.0
 40
40.0
 40
40.0
 40
41.0
 40
41.0
 40
41.0
 40
42.0
 40
42.0
 40
42.0
 40
43.0
 40
43.0
 40
43.0
 40
44.0
 40
44.0
 40
44.0
 40
45.0
 40
45.0
 40
45.0
 40
46.0
 40
46.0
 40
46.0
 40
47.0
 40
47.0
 40
47.0
 40
48.0
 40
48.0
 40
48.0
 40
49.0
 40
49.0
 40
49.0
 40
50.0
 40
50.0
 40
50.0
 40
51.0
 40
51.0
 40
51.0
 40
52.0
 40
52.0
 40
52.0
 40
53.0
 40
53.0
 40
53.0
 40
54.0
 40
54.0
 40
54.0
 40
55.0
 40
55.0
 40
55.0
 40
56.0
 40
56.0
 40
56.0
 40
57.0
 40
57.0
 40
57.0
 40
58.0
 40
58.0
 40
58.0
 40
59.0
 40
59.0
 40
59.0
 40
60.0
 40
60.0
 40
60.0
 40
61.0
 40
61.0
 40
61.0
 40
62.0
 40
62.0
 40
62.0
 40
63.0
 40
63.0
 40
63.0
 40
64.0
 40
64.0
 40
64.0
 40
65.0
 40
65.0
 40
65.0
 40
66.0
 40
66.0
 40
66.0
 40
67.0
 40
67.0
 40
67.0
 40
68.0
 40
68.0
 40
68.0
 40
69.0
 40
69.0
 40
69.0
 40
70.0
 40
70.0
 40
70.0
 40
71.0
 40
71.0
 40
71.0
 40
72.0
 40
72.0
 40
72.0
 40
73.0
 40
73.0
 40
73.0
 40
74.0
 40
74.0
 40
74.0
 40
75.0
 40
75.0
 40
75.0
 40
76.0
 40
76.0
 40
76.0
 40
77.0
 40
77.0
 40
77.0
 40
78.0
 40
78.0
 40
78.0
 40
79.0
 40
79.0
 40
79.0
 40
80.0
 40
80.0
 40
80.0
 40
81.0
 40
81.0
 40
81.0
 40
82.0
 40
82.0
 40
82.0
 40
83.0
 40
83.0
 40
83.0
 40
84.0
 40
84.0
 40
84.0
 40
85.0
 40
85.0
 40
85.0
 40
86.0
 40
86.0
 40
86.0
 40
87.0
 40
87.0
 40
87.0
 40
88.0
 40
88.0
 40
88.0
 40
89.0
 40
89.0
 40
89.0
 40
90.0
 40
90.0
 40
90.0
 40
91.0
 40
91.0
 40
91.0
 40
92.0
 40
92.0
 40
92.0
 40
93.0
 40
93.0
 40
93.0
 40
94.0
 40
94.0
 40
94.0
 40
95.0
 40
95.0
 40
95.0
 40
96.0
 40
96.0
 40
96.0
 40
97.0
 40
97.0
 40
97.0
 40
98.0
 40
98.0
 40
98.0
 40
99.0
 40
99.0
 40
99.0
 40
100.0
 40
100.0
 40
100.0
 40
101.0
 40
101.0
 40
101.0
 40
102.0
 40
102.0
 40
102.0
 40
103.0
 40
103.0
 40
103.0
 40
104.0
 40
104.0
 40
104.0
 40
105.0
 40
105.0
 40
105.0
 40
106.0
 40
106.0
 40
106.0
 40
107.0
 40
107.0
 40
107.0
 40
108.0
 40
108.0
 40
108.0
 40
109.0
 40
109.0
 40
109.0
 40
110.0
 40
110.0
 40
110.0
 40
110.0
 10
20.383545209352246
 20
10.83973572167765
 30
0.0
 10
16.378677535777292
 20
9.559024877262832
 30
0.0
 10
12.373809862202341
 20
8.278314032848009
 30
0.0
 10
8.36894218862739
 20
6.9976031884331915
 30
0.0
 10
8.112932635961123
 20
6.916233445156925
 30
0.0
 10
7.934321452069923
 20
7.05317076611787
 30
0.0
 10
7.870815020049359
 20
7.114687023554695
 30
0.0
 10
7.8073085880287945
 20
7.176212594324461
 30
0.0
 10
7.664420047315813
 20
7.350852827047784
 30
0.0
 10
7.7398334061735925
 20
7.610837056215108
 30
0.0
 10
8.839948141446586
 20
11.380863508019555
 30
0.0
 10
9.940062876719585
 20
15.150889959824
 30
0.0
 10
11.04017761199258
 20
18.92091641162845
 30
0.0
 10
11.830037653748409
 20
18.535906614337193
 30
0.0
 10
12.645695881762649
 20
18.202495221562668
 30
0.0
 10
13.481201330283248
 20
17.922672746555268
 30
0.0
 10
13.035995652166822
 20
15.940085706940843
 30
0.0
 10
12.590789974050388
 20
13.957498667326412
 30
0.0
 10
12.145584295933961
 20
11.974911627711991
 30
0.0
 10
12.11581608984097
 20
11.843927219836344
 30
0.0
 10
12.155507482853833
 20
11.70698989887541
 30
0.0
 10
12.248782120967387
 20
11.611734822844355
 30
0.0
 10
12.342056759080942
 20
11.516474666813542
 30
0.0
 10
12.478992894708608
 20
11.474797501883419
 30
0.0
 10
12.609974508584374
 20
11.49861508089102
 30
0.0
 10
15.898411364232832
 20
12.150215364852118
 30
0.0
 10
19.18684821988129
 20
12.801815648813216
 30
0.0
 10
22.475285075529747
 20
13.453415932774316
 30
0.0
 10
24.930200053241617
 20
7.682279633238331
 30
0.0
 10
30.516773187134394
 20
3.971126427869731
 30
0.0
 10
36.79992943866954
 20
3.971126427869731
 30
0.0
 10
40.92784074667323
 20
3.971126427869731
 30
0.0
 10
44.807681271679854
 20
5.59252096697828
 30
0.0
 10
47.72500153679151
 20
8.53564932434793
 30
0.0
 10
50.614535896394244
 20
11.452964509459788
 30
0.0
 10
52.26173175442776
 20
15.354638026890052
 30
0.0
 10
52.36294567021049
 20
19.524223113157333
 30
0.0
 10
52.38874783580208
 20
20.576050615997854
 30
0.0
 10
52.56735724169335
 20
23.755334616861017
 30
0.0
 10
52.56934606161049
 20
23.787084615538095
 30
0.0
 10
52.305396892608364
 20
23.80163825048725
 30
0.0
 10
52.041447723606254
 20
23.816191885436403
 30
0.0
 10
51.77749855460412
 20
23.83074552038556
 30
0.0
 10
51.76956105493486
 20
23.69976111250991
 30
0.0
 10
51.59690456212888
 20
20.607800614674932
 30
0.0
 10
51.571102396537306
 20
19.542087779079644
 30
0.0
 10
51.37065999822241
 20
11.254510931062027
 30
0.0
 10
44.88309217520441
 20
4.764959368126685
 30
0.0
 10
36.80191656525341
 20
4.764959368126685
 30
0.0
 10
30.73309143145447
 20
4.764959368126685
 30
0.0
 10
25.35092902237791
 20
8.410617829557582
 30
0.0
 10
23.086532663394433
 20
14.052753461135252
 30
0.0
 10
23.015086699704675
 20
14.229384207108968
 30
0.0
 10
22.828538100810874
 20
14.330597276225088
 30
0.0
 10
22.64000406866646
 20
14.294873024380266
 30
0.0
 10
19.444842189798212
 20
13.661793855203005
 30
0.0
 10
16.249680310929953
 20
13.028714686025754
 30
0.0
 10
13.054518432061704
 20
12.395635516848495
 30
0.0
 10
13.45077145421783
 20
14.158597514502851
 30
0.0
 10
13.847024476373951
 20
15.921559512157208
 30
0.0
 10
14.243277498530077
 20
17.684521509811564
 30
0.0
 10
15.93413341474441
 20
17.192349963652045
 30
0.0
 10
17.70238736106716
 20
16.916495815145975
 30
0.0
 10
19.512317625653395
 20
16.872829830298723
 30
0.0
 10
20.55620254882485
 20
16.84703782470672
 30
0.0
 10
23.72953448326935
 20
16.670407925399633
 30
0.0
 10
23.761289561946228
 20
16.668428418815452
 30
0.0
 10
23.79105779626144
 20
17.19698377012565
 30
0.0
 10
23.820826030576647
 20
17.725539121435837
 30
0.0
 10
23.85059426489186
 20
18.254094472746036
 30
0.0
 10
23.719612397016103
 20
18.262037052415092
 30
0.0
 10
20.619708472845442
 20
18.434697778554224
 30
0.0
 10
19.550026464082187
 20
18.460489784146226
 30
0.0
 10
9.47831829973672
 20
18.70062476080727
 30
0.0
 10
1.5876579218475841
 20
26.58136305244316
 30
0.0
 10
1.5876579218475841
 20
36.4010271966238
 30
0.0
 10
1.5876579218475841
 20
42.73776897925954
 30
0.0
 10
4.997153966451909
 20
48.673625965265494
 30
0.0
 10
10.484497093812605
 20
51.8926025444748
 30
0.0
 10
10.80401375583274
 20
52.081139116619106
 30
0.0
 10
10.952856140964304
 20
52.466143833910586
 30
0.0
 10
10.839736399010963
 20
52.819398552524966
 30
0.0
 10
9.558363545957057
 20
56.824266226099915
 30
0.0
 10
8.276990692903151
 20
60.829133899674865
 30
0.0
 10
6.9956178398492455
 20
64.83400157324982
 30
0.0
 10
6.914251398572846
 20
65.09001112591609
 30
0.0
 10
7.051186772200537
 20
65.26862230980728
 30
0.0
 10
7.112708194303809
 20
65.33212874182786
 30
0.0
 10
7.174230293740391
 20
65.39563517384842
 30
0.0
 10
7.348872135130312
 20
65.53852371456138
 30
0.0
 10
7.606866697713871
 20
65.46311035570362
 30
0.0
 10
11.376893093073877
 20
64.36299562043061
 30
0.0
 10
15.146919488433884
 20
63.26288088515763
 30
0.0
 10
18.91694588379389
 20
62.162766149884625
 30
0.0
 10
18.53193947316915
 20
61.372906108128795
 30
0.0
 10
18.19853146706116
 20
60.557247880114566
 30
0.0
 10
17.91870560538723
 20
59.72174243159395
 30
0.0
 10
15.93677893752307
 20
60.166286213960184
 30
0.0
 10
13.954852269658907
 20
60.6108299963264
 30
0.0
 10
11.972925601794746
 20
61.05537377869264
 30
0.0
 10
11.84194517325226
 20
61.08514460945221
 30
0.0
 10
11.705009122291264
 20
61.045451946439385
 30
0.0
 10
11.607765734343072
 20
60.95217730832583
 30
0.0
 10
11.51052099172827
 20
60.85890258554561
 30
0.0
 10
11.468845266131424
 20
60.721966534584624
 30
0.0
 10
11.494644722389777
 20
60.590984836042196
 30
0.0
 10
12.146246078795278
 20
57.302547923949284
 30
0.0
 10
12.797847435200774
 20
54.014111011856386
 30
0.0
 10
13.449448791606276
 20
50.72567409976348
 30
0.0
 10
7.680295639320998
 20
48.272743708635595
 30
0.0
 10
3.9691450586189463
 20
42.68617057474281
 30
0.0
 10
3.9691450586189463
 20
36.4010271966238
 30
0.0
 10
3.9691450586189463
 20
32.27311673528675
 30
0.0
 10
5.590541545060758
 20
28.39327875028
 30
0.0
 10
8.533662790430702
 20
25.47595763850172
 30
0.0
 10
11.450983309542341
 20
22.586418198899203
 30
0.0
 10
15.352652932306098
 20
20.9392223408657
 30
0.0
 10
19.520255125322663
 20
20.838008425082943
 30
0.0
 10
20.572080088163293
 20
20.812206259491365
 30
0.0
 10
23.751364935693083
 20
20.633597700266723
 30
0.0
 10
23.78311747437006
 20
20.631613113682743
 30
0.0
 10
23.79767139154142
 20
20.895560871573807
 30
0.0
 10
23.81222530871279
 20
21.159508629464877
 30
0.0
 10
23.826779225884152
 20
21.42345638735594
 30
0.0
 10
23.695797358008395
 20
21.43139388702522
 30
0.0
 10
20.603832626840273
 20
21.60405461316435
 30
0.0
 10
19.540101837829052
 20
21.62985677875593
 30
0.0
 10
11.254510846395359
 20
21.8322837636548
 30
0.0
 10
4.76297452754272
 20
28.3198515866728
 30
0.0
 10
4.76297452754272
 20
36.4010271966238
 30
0.0
 10
4.76297452754272
 20
42.46985233042274
 30
0.0
 10
8.408634258973557
 20
47.852014739499296
 30
0.0
 10
14.050774293217712
 20
50.114424818565546
 30
0.0
 10
14.227399959191638
 20
50.18586993558866
 30
0.0
 10
14.328613874974396
 20
50.37242192114899
 30
0.0
 10
14.292892163129467
 20
50.55897136670943
 30
0.0
 10
13.6598137841744
 20
53.75413268113326
 30
0.0
 10
13.026735405219332
 20
56.949293995557085
 30
0.0
 10
12.393657026264265
 20
60.14445530998091
 30
0.0
 10
14.156618798140853
 20
59.74820228782478
 30
0.0
 10
15.919580570017443
 20
59.35194926566868
 30
0.0
 10
17.68254234189403
 20
58.955696243512556
 30
0.0
 10
17.19036825573462
 20
57.26484202063148
 30
0.0
 10
16.914512413895284
 20
55.49460264105812
 30
0.0
 10
16.87085150904782
 20
53.68665611638923
 30
0.0
 10
16.84505188345614
 20
52.642771193217776
 30
0.0
 10
16.668425370815577
 20
49.46944095210654
 30
0.0
 10
16.66643993756497
 20
49.43768587342967
 30
0.0
 10
17.194998111097274
 20
49.40791763911446
 30
0.0
 10
17.723556284629566
 20
49.37814940479925
 30
0.0
 10
18.25211445816187
 20
49.34838117048404
 30
0.0
 10
18.26005280449776
 20
49.479362191693156
 30
0.0
 10
18.432710990637005
 20
52.57926526919718
 30
0.0
 10
18.45850976956206
 20
53.64894981796033
 30
0.0
 10
18.69864305288984
 20
63.724625462140494
 30
0.0
 10
26.58136508444307
 20
71.61528584002963
 30
0.0
 10
36.401031768623604
 20
71.61528584002963
 30
0.0
 10
42.73777101125947
 20
71.61528584002963
 30
0.0
 10
48.67561512384929
 20
68.20578979542529
 30
0.0
 10
51.8926071164746
 20
62.718446668064615
 30
0.0
 10
52.07915402203514
 20
62.39893000604446
 30
0.0
 10
52.46614332591059
 20
62.2500876209129
 30
0.0
 10
52.819398044524995
 20
62.363207362866234
 30
0.0
 10
56.824266395433234
 20
63.64391854594772
 30
0.0
 10
60.829134746341495
 20
64.92462972902919
 30
0.0
 10
64.83400309724975
 20
66.20534091211067
 30
0.0
 10
65.09001307324934
 20
66.28869236330436
 30
0.0
 10
65.26862247914062
 20
66.14977257242602
 30
0.0
 10
65.33213263649435
 20
66.08825047298944
 30
0.0
 10
65.39563771384832
 20
66.02672905088617
 30
0.0
 10
65.53852879456117
 20
65.85208661682961
 30
0.0
 10
65.46311196437023
 20
65.59409273157935
 30
0.0
 10
64.36299652354171
 20
61.824066251552686
 30
0.0
 10
63.26288108271317
 20
58.05403977152602
 30
0.0
 10
62.162765641884654
 20
54.28401329149935
 30
0.0
 10
61.372906954795425
 20
54.66901970212408
 30
0.0
 10
60.557246102114625
 20
55.00242855489871
 30
0.0
 10
59.721747003593755
 20
55.282253569906
 30
0.0
 10
60.16695141171025
 20
57.264841766631484
 30
0.0
 10
60.61215581982673
 20
59.24742996335697
 30
0.0
 10
61.05736022794323
 20
61.230018160082466
 30
0.0
 10
61.0871307200361
 20
61.360998588624945
 30
0.0
 10
61.04743814168995
 20
61.49793463958595
 30
0.0
 10
60.95416257224313
 20
61.59319369495015
 30
0.0
 10
60.86088615612965
 20
61.6884540203143
 30
0.0
 10
60.723953915168465
 20
61.7321141631618
 30
0.0
 10
60.59297543395925
 20
61.706314706903434
 30
0.0
 10
57.30387735989389
 20
61.05471326583128
 30
0.0
 10
54.014779285828546
 20
60.40311182475912
 30
0.0
 10
50.72568121176318
 20
59.75151038368697
 30
0.0
 10
48.27274574063551
 20
65.52264812255622
 30
0.0
 10
42.68617260674272
 20
69.23379870325826
 30
0.0
 10
36.401031768623604
 20
69.23379870325826
 30
0.0
 10
32.273121307286544
 20
69.23379870325826
 30
0.0
 10
28.393280782279913
 20
67.61240221681645
 30
0.0
 10
25.47595967050164
 20
64.66928097144651
 30
0.0
 10
22.586421077565742
 20
61.751960452334856
 30
0.0
 10
20.939224372865613
 20
57.85029082957111
 30
0.0
 10
20.838012997082746
 20
53.682688636554545
 30
0.0
 10
20.812214218157703
 20
52.63086367371391
 30
0.0
 10
20.633602272266536
 20
49.451578826184125
 30
0.0
 10
20.631615992349293
 20
49.41982628750715
 30
0.0
 10
20.895564314684776
 20
49.40461084147446
 30
0.0
 10
21.15951263702027
 20
49.38939539544177
 30
0.0
 10
21.423460959355754
 20
49.374179949409076
 30
0.0
 10
21.43139845902502
 20
49.505161817284836
 30
0.0
 10
21.604056645164263
 20
52.599111135036935
 30
0.0
 10
21.62985627075595
 20
53.66284192404815
 30
0.0
 10
21.832283255654822
 20
61.94843291548184
 30
0.0
 10
28.317866492088843
 20
68.4399692343345
 30
0.0
 10
36.401031768623604
 20
68.4399692343345
 30
0.0
 10
42.46985520908929
 20
68.4399692343345
 30
0.0
 10
47.852016771499216
 20
64.79430950290366
 30
0.0
 10
50.11641651714922
 20
59.152169468659494
 30
0.0
 10
50.18785909417245
 20
58.97554380268557
 30
0.0
 10
50.376389739650335
 20
58.87234445365222
 30
0.0
 10
50.56294172521066
 20
58.91005159874775
 30
0.0
 10
53.758104112078904
 20
59.54312997770281
 30
0.0
 10
56.95326649894713
 20
60.176208356657874
 30
0.0
 10
60.14842888581535
 20
60.809286735612936
 30
0.0
 10
59.752175637881464
 20
59.04632496373635
 30
0.0
 10
59.355922389947565
 20
57.28336319185976
 30
0.0
 10
58.95966914201368
 20
55.52040141998317
 30
0.0
 10
57.26881153246607
 20
56.01257550614259
 30
0.0
 10
55.50055758614333
 20
56.28843134798193
 30
0.0
 10
53.690631554890246
 20
56.33209225282939
 30
0.0
 10
52.644762891801456
 20
56.357891878421064
 30
0.0
 10
49.47341131060777
 20
56.53451839106163
 30
0.0
 10
49.441656231930885
 20
56.536503824312234
 30
0.0
 10
49.41188884428232
 20
56.00794565077993
 30
0.0
 10
49.38212145663373
 20
55.47938747724764
 30
0.0
 10
49.352354068985164
 20
54.95082930371534
 30
0.0
 10
49.48333339686101
 20
54.94289095737945
 30
0.0
 10
52.58323732103168
 20
54.7702327712402
 30
0.0
 10
53.6529184831283
 20
54.74443399231515
 30
0.0
 10
63.726608016724555
 20
54.50231696907002
 30
0.0
 10
71.61528380802972
 20
46.619594090850164
 30
0.0
 10
71.61528380802972
 20
36.799927406669624
 30
0.0
 10
71.61528380802972
 20
30.463188164033774
 30
0.0
 10
68.20579199675856
 20
24.52732863802792
 30
0.0
 10
62.71844734539791
 20
21.308357138818415
 30
0.0
 10
62.39893229204438
 20
21.119820566674104
 30
0.0
 10
62.250093378246014
 20
20.734810769382843
 30
0.0
 10
62.363208040199574
 20
20.38156113076825
 30
0.0
 10
63.643918884614386
 20
16.37669277985999
 30
0.0
 10
64.92462972902919
 20
12.371824428951737
 30
0.0
 10
66.205340573444
 20
8.366956078043481
 30
0.0
 10
66.28671031672027
 20
8.1109461020439
 30
0.0
 10
66.14977299575935
 20
7.932336696152622
 30
0.0
 10
66.08825673832251
 20
7.868826538798878
 30
0.0
 10
66.02673116755274
 20
7.8053214614449224
 30
0.0
 10
65.85010634824545
 20
7.662436307398466
 30
0.0
 10
65.59409129224609
 20
7.73784721092302
 30
0.0
 10
61.82406484044163
 20
8.837960958418279
 30
0.0
 10
58.05403838863719
 20
9.938074705913534
 30
0.0
 10
54.284011936832734
 20
11.038188453408793
 30
0.0
 10
54.669021734124
 20
11.828047140498022
 30
0.0
 10
55.00242804689873
 20
12.643713073178596
 30
0.0
 10
55.282255601905916
 20
13.479218098365894
 30
0.0
 10
57.26484264152034
 20
13.034011714693937
 30
0.0
 10
59.24742968113476
 20
12.58880533102198
 30
0.0
 10
61.230016720749184
 20
12.143598947350025
 30
0.0
 10
61.25978721284209
 20
12.137646034264726
 30
0.0
 10
61.28756803835122
 20
12.133671781096991
 30
0.0
 10
61.31733937711075
 20
12.133671781096991
 30
0.0
 10
61.41855244622687
 20
12.133671781096991
 30
0.0
 10
61.51976636200963
 20
12.173364359443125
 30
0.0
 10
61.595177265534176
 20
12.246796603050115
 30
0.0
 10
61.69242200814896
 20
12.340073019163606
 30
0.0
 10
61.73409917307908
 20
12.477005260124763
 30
0.0
 10
61.70830208748729
 20
12.607983741333994
 30
0.0
 10
61.05670039241514
 20
15.896422262093491
 30
0.0
 10
60.40509869734298
 20
19.184860782852986
 30
0.0
 10
59.75349700227085
 20
22.473299303612485
 30
0.0
 10
65.5246324551402
 20
24.928213434657724
 30
0.0
 10
69.23578566050881
 20
30.514787415217132
 30
0.0
 10
69.23578566050881
 20
36.79794366675228
 30
0.0
 10
69.23578566050881
 20
40.92585412808934
 30
0.0
 10
67.61438604140045
 20
44.805694653095976
 30
0.0
 10
64.67126869069702
 20
47.72301491820763
 30
0.0
 10
61.75394334558559
 20
50.61255435781015
 30
0.0
 10
57.8522799881549
 20
52.259748522510385
 30
0.0
 10
53.68268897522119
 20
52.360961591626506
 30
0.0
 10
52.630867399047084
 20
52.38676121721819
 30
0.0
 10
49.45157831818415
 20
52.565373163109356
 30
0.0
 10
49.419828319507054
 20
52.565373163109356
 30
0.0
 10
49.40461315569657
 20
52.30142540521829
 30
0.0
 10
49.38939799188609
 20
52.03747764732722
 30
0.0
 10
49.37418282807561
 20
51.773529889436155
 30
0.0
 10
49.505161309284865
 20
51.765589849767004
 30
0.0
 10
52.59911232037022
 20
51.59293335696102
 30
0.0
 10
53.66284056938154
 20
51.56713203803607
 30
0.0
 10
61.94843283081519
 20
51.36669133305444
 30
0.0
 10
68.43997406033431
 20
44.88110809662041
 30
0.0
 10
68.43997406033431
 20
36.79794366675228
 30
0.0
 10
68.43997406033431
 20
30.729120226286607
 30
0.0
 10
64.79431051890363
 20
25.34695781721005
 30
0.0
 10
59.152174040659304
 20
23.082563998226465
 30
0.0
 10
58.975544141352216
 20
23.011116341203444
 30
0.0
 10
58.872346485652116
 20
22.82456435564312
 30
0.0
 10
58.910049397414504
 20
22.63802253008235
 30
0.0
 10
59.54312884881398
 20
19.442860425436333
 30
0.0
 10
60.17620830021343
 20
16.247698320790317
 30
0.0
 10
60.80928775161291
 20
13.052536216144302
 30
0.0
 10
59.04632575395855
 20
13.448789181855979
 30
0.0
 10
57.283363756304176
 20
13.845042147567666
 30
0.0
 10
55.52040175864982
 20
14.241295113279344
 30
0.0
 10
56.012578384809125
 20
15.932147642827147
 30
0.0
 10
56.28843676664836
 20
17.700401589149905
 30
0.0
 10
56.33209343816268
 20
19.510332700402767
 30
0.0
 10
56.35789560375425
 20
20.556201363491574
 30
0.0
 10
56.53451534306176
 20
23.72754786468547
 30
0.0
 10
56.536505009645516
 20
23.759297863362548
 30
0.0
 10
56.00794627166879
 20
23.78906863767765
 30
0.0
 10
55.47938753369209
 20
23.818839411992755
 30
0.0
 10
54.95082879571537
 20
23.84861018630786
 30
0.0
 10
54.94289129604609
 20
23.717625778432215
 30
0.0
 10
54.77023564990676
 20
20.617727780927968
 30
0.0
 10
54.74443856431495
 20
19.548040692164932
 30
0.0
 10
54.50231900106994
 20
9.474346078568901
 30
0.0
 10
46.61959612285006
 20
1.5856702872637345
 30
0.0
 10
36.79992943866954
 20
1.5856702872637345
 30
0.0
 10
30.463190196033686
 20
1.5856702872637345
 30
0.0
 10
24.527330670027837
 20
4.995167178534696
 30
0.0
 10
21.308356630818437
 20
10.482511829895323
 30
0.0
 10
21.119820058674126
 20
10.802026883248857
 30
0.0
 10
20.734815341382657
 20
10.950870877047027
 30
0.0
 10
20.381560622768266
 20
10.837751135093681
 30
0.0
 10
20.38222215162959
 20
10.838412663955003
 30
0.0
 10
20.382883680490917
 20
10.839074192816328
 30
0.0
 10
20.383545209352246
 20
10.83973572167765
 30
0.0
  0
SPLINE
  5
8F
330
17
100
AcDbEntity
  8
LOGO
100
AcDbSpline
 70
0
 71
3
 72
95
 73
91
 74
0
 40
0.0
 40
0.0
 40
0.0
 40
0.0
 40
1.0
 40
1.0
 40
1.0
 40
2.0
 40
2.0
 40
2.0
 40
3.0
 40
3.0
 40
3.0
 40
4.0
 40
4.0
 40
4.0
 40
5.0
 40
5.0
 40
5.0
 40
6.0
 40
6.0
 40
6.0
 40
7.0
 40
7.0
 40
7.0
 40
8.0
 40
8.0
 40
8.0
 40
9.0
 40
9.0
 40
9.0
 40
10.0
 40
10.0
 40
10.0
 40
11.0
 40
11.0
 40
11.0
 40
12.0
 40
12.0
 40
12.0
 40
13.0
 40
13.0
 40
13.0
 40
14.0
 40
14.0
 40
14.0
 40
15.0
 40
15.0
 40
15.0
 40
16.0
 40
16.0
 40
16.0
 40
17.0
 40
17.0
 40
17.0
 40
18.0
 40
18.0
 40
18.0
 40
19.0
 40
19.0
 40
19.0
 40
20.0
 40
20.0
 40
20.0
 40
21.0
 40
21.0
 40
21.0
 40
22.0
 40
22.0
 40
22.0
 40
23.0
 40
23.0
 40
23.0
 40
24.0
 40
24.0
 40
24.0
 40
25.0
 40
25.0
 40
25.0
 40
26.0
 40
26.0
 40
26.0
 40
27.0
 40
27.0
 40
27.0
 40
28.0
 40
28.0
 40
28.0
 40
29.0
 40
29.0
 40
29.0
 40
30.0
 40
30.0
 40
30.0
 40
30.0
 10
36.79992943866954
 20
0.0
 30
0.0
 10
41.9816469094313
 20
0.0
 30
0.0
 10
46.85178851984205
 20
2.0361697484929264
 30
0.0
 10
50.51332198061149
 20
5.731447954522992
 30
0.0
 10
51.67827430540514
 20
6.908295945487658
 30
0.0
 10
52.68246580356382
 20
8.21216001782665
 30
0.0
 10
53.512017915665815
 20
9.613267986113815
 30
0.0
 10
57.39053368961653
 20
8.481400853274947
 30
0.0
 10
61.26904946356727
 20
7.349533720436078
 30
0.0
 10
65.147565237518
 20
6.2176665875972095
 30
0.0
 10
65.34205472274759
 20
6.162093929912742
 30
0.0
 10
65.53852879456117
 20
6.134312257736984
 30
0.0
 10
65.73301827979077
 20
6.134312257736984
 30
0.0
 10
66.28671031672027
 20
6.134312257736984
 30
0.0
 10
66.82452735431123
 20
6.354598828558376
 30
0.0
 10
67.2234284110237
 20
6.765405711441414
 30
0.0
 10
67.76323511519841
 20
7.3190977483709165
 30
0.0
 10
67.9517657606763
 20
8.118888681712956
 30
0.0
 10
67.71559995718322
 20
8.855159297701686
 30
0.0
 10
66.49839588345561
 20
12.661569272434598
 30
0.0
 10
65.281191809728
 20
16.46797924716751
 30
0.0
 10
64.0639877360004
 20
20.274389221900417
 30
0.0
 10
69.71605138049775
 20
23.842652193222783
 30
0.0
 10
73.19897543537589
 20
30.117870945088647
 30
0.0
 10
73.19897543537589
 20
36.80389657983757
 30
0.0
 10
73.19897543537589
 20
41.98561574393259
 30
0.0
 10
71.1647945068001
 20
46.855758201009984
 30
0.0
 10
67.46753171418607
 20
50.51729420177932
 30
0.0
 10
66.29068372322139
 20
51.68223805990665
 30
0.0
 10
64.98681541754925
 20
52.6864312513986
 30
0.0
 10
63.58570744926207
 20
53.515982516833965
 30
0.0
 10
64.7175762754342
 20
57.39449919389576
 30
0.0
 10
65.84944510160634
 20
61.27301587095755
 30
0.0
 10
66.98131392777846
 20
65.15153254801936
 30
0.0
 10
67.19762624543212
 20
65.89376301975975
 30
0.0
 10
66.98925142744774
 20
66.68957682126751
 30
0.0
 10
66.43554838385202
 20
67.22739606019171
 30
0.0
 10
65.88185634692252
 20
67.7652146217826
 30
0.0
 10
65.08207557358006
 20
67.95573400251097
 30
0.0
 10
64.34579479759176
 20
67.71956946901781
 30
0.0
 10
60.53938651619212
 20
66.50236497195691
 30
0.0
 10
56.73297823479246
 20
65.28516047489597
 30
0.0
 10
52.92656995339283
 20
64.06795597783506
 30
0.0
 10
49.3622761552384
 20
69.71803427374843
 30
0.0
 10
43.087057403372526
 20
73.20294376187721
 30
0.0
 10
36.401031768623604
 20
73.20294376187721
 30
0.0
 10
31.219311757861956
 20
73.20294376187721
 30
0.0
 10
26.349172687451095
 20
71.16875673730168
 30
0.0
 10
22.687634146681862
 20
67.47149868602077
 30
0.0
 10
21.522689441887895
 20
66.2946468003896
 30
0.0
 10
20.51849625039595
 20
64.99078205071729
 30
0.0
 10
19.688944984960585
 20
63.58967382843014
 30
0.0
 10
15.810428533676559
 20
64.72220325213031
 30
0.0
 10
11.93191208239253
 20
65.85473267583046
 30
0.0
 10
8.053395631108502
 20
66.98726209953062
 30
0.0
 10
7.311165752034746
 20
67.20358093651734
 30
0.0
 10
6.5153519505269895
 20
66.9952009538665
 30
0.0
 10
5.977532711602791
 20
66.4415047682705
 30
0.0
 10
5.439713557345256
 20
65.88780858267452
 30
0.0
 10
5.249194769283542
 20
65.08802603133213
 30
0.0
 10
5.485358710110045
 20
64.35174999667697
 30
0.0
 10
6.702563207170967
 20
60.545339429277426
 30
0.0
 10
7.919767704231885
 20
56.73892886187786
 30
0.0
 10
9.136972201292807
 20
52.93251829447831
 30
0.0
 10
3.484909488128762
 20
49.36227412323849
 30
0.0
 10
0.0
 20
43.087052831372716
 30
0.0
 10
0.0
 20
36.4010271966238
 30
0.0
 10
0.0
 20
31.219309725862043
 30
0.0
 10
2.034187024575533
 20
26.347186068867202
 30
0.0
 10
5.731445075856443
 20
22.68763211468196
 30
0.0
 10
6.908296961487611
 20
21.522684869888096
 30
0.0
 10
8.212161711159911
 20
20.51849337172941
 30
0.0
 10
9.61326993344707
 20
19.688942106294036
 30
0.0
 10
8.480740509746907
 20
15.810426050121103
 30
0.0
 10
7.348211086046744
 20
11.93190999394817
 30
0.0
 10
6.215681662346581
 20
8.053393937775235
 30
0.0
 10
5.999362825359869
 20
7.311165328701428
 30
0.0
 10
6.207742808010706
 20
6.515348648527123
 30
0.0
 10
6.761438993606697
 20
5.977525684269759
 30
0.0
 10
7.315135179202689
 20
5.4397086466788
 30
0.0
 10
8.114917730545079
 20
5.249193414616933
 30
0.0
 10
8.851193765200241
 20
5.485360064776658
 30
0.0
 10
12.657604332599794
 20
6.702562162948789
 30
0.0
 10
16.464014899999345
 20
7.919764261120915
 30
0.0
 10
20.270425467398898
 20
9.136966359293046
 30
0.0
 10
23.83868505205475
 20
3.4849086414621304
 30
0.0
 10
30.113903803920625
 20
0.00198373991735197
 30
0.0
 10
36.79992943866954
 20
0.00198373991735197
 30
0.0
 10
36.79992943866954
 20
0.0013224932782363178
 30
0.0
 10
36.79992943866954
 20
0.0006612466391156522
 30
0.0
 10
36.79992943866954
 20
0.0
 30
0.0
  0
SPLINE
  5
90
330
17
100
AcDbEntity
  8
LOGO
100
AcDbSpline
 70
0
 71
3
 72
32
 73
28
 74
0
 40
0.0
 40
0.0
 40
0.0
 40
0.0
 40
1.0
 40
1.0
 40
1.0
 40
2.0
 40
2.0
 40
2.0
 40
3.0
 40
3.0
 40
3.0
 40
4.0
 40
4.0
 40
4.0
 40
5.0
 40
5.0
 40
5.0
 40
6.0
 40
6.0
 40
6.0
 40
7.0
 40
7.0
 40
7.0
 40
8.0
 40
8.0
 40
8.0
 40
9.0
 40
9.0
 40
9.0
 40
9.0
 10
48.59424538057302
 20
19.542087779079644
 30
0.0
 10
48.43548014718822
 20
12.92353046818621
 30
0.0
 10
43.25574472301055
 20
7.741816384090977
 30
0.0
 10
36.80191656525341
 20
7.741816384090977
 30
0.0
 10
32.10244686106466
 20
7.741816384090977
 30
0.0
 10
27.85546035802243
 20
10.526168501409625
 30
0.0
 10
25.982025016082247
 20
14.83666431513896
 30
0.0
 10
25.73924561730916
 20
14.731482072854892
 30
0.0
 10
25.496466218536085
 20
14.626299830570813
 30
0.0
 10
25.253686819762997
 20
14.521117588286744
 30
0.0
 10
27.254135703077626
 20
9.920877213296773
 30
0.0
 10
31.78689759421254
 20
6.947988523833802
 30
0.0
 10
36.80191656525341
 20
6.947988523833802
 30
0.0
 10
43.68837951831743
 20
6.947988523833802
 30
0.0
 10
49.2174013346082
 20
12.471052347039464
 30
0.0
 10
49.38807324083019
 20
19.524223113157333
 30
0.0
 10
49.41387032642198
 20
20.576050615997854
 30
0.0
 10
49.59248396564641
 20
23.755334616861017
 30
0.0
 10
49.59446855223039
 20
23.787084615538095
 30
0.0
 10
49.33052079433933
 20
23.80163825048725
 30
0.0
 10
49.06657303644825
 20
23.816191885436403
 30
0.0
 10
48.80262527855718
 20
23.83074552038556
 30
0.0
 10
48.794687778887926
 20
23.69976111250991
 30
0.0
 10
48.62202705274877
 20
20.607800614674932
 30
0.0
 10
48.596229967157
 20
19.542087779079644
 30
0.0
 10
48.59556843829568
 20
19.542087779079644
 30
0.0
 10
48.59490690943435
 20
19.542087779079644
 30
0.0
 10
48.59424538057302
 20
19.542087779079644
 30
0.0
  0
SPLINE
  5
91
330
17
100
AcDbEntity
  8
LOGO
100
AcDbSpline
 70
0
 71
3
 72
83
 73
79
 74
0
 40
0.0
 40
0.0
 40
0.0
 40
0.0
 40
1.0
 40
1.0
 40
1.0
 40
2.0
 40
2.0
 40
2.0
 40
3.0
 40
3.0
 40
3.0
 40
4.0
 40
4.0
 40
4.0
 40
5.0
 40
5.0
 40
5.0
 40
6.0
 40
6.0
 40
6.0
 40
7.0
 40
7.0
 40
7.0
 40
8.0
 40
8.0
 40
8.0
 40
9.0
 40
9.0
 40
9.0
 40
10.0
 40
10.0
 40
10.0
 40
11.0
 40
11.0
 40
11.0
 40
12.0
 40
12.0
 40
12.0
 40
13.0
 40
13.0
 40
13.0
 40
14.0
 40
14.0
 40
14.0
 40
15.0
 40
15.0
 40
15.0
 40
16.0
 40
16.0
 40
16.0
 40
17.0
 40
17.0
 40
17.0
 40
18.0
 40
18.0
 40
18.0
 40
19.0
 40
19.0
 40
19.0
 40
20.0
 40
20.0
 40
20.0
 40
21.0
 40
21.0
 40
21.0
 40
22.0
 40
22.0
 40
22.0
 40
23.0
 40
23.0
 40
23.0
 40
24.0
 40
24.0
 40
24.0
 40
25.0
 40
25.0
 40
25.0
 40
26.0
 40
26.0
 40
26.0
 40
26.0
 10
49.00108393695474
 20
28.222606844058
 30
0.0
 10
48.21122016986573
 20
22.024783582300643
 30
0.0
 10
42.95607299549687
 20
21.357971803417804
 30
0.0
 10
41.7375452996022
 20
21.286524146394783
 30
0.0
 10
41.0330229889573
 20
22.703507114020503
 30
0.0
 10
37.28416602515968
 20
29.76064705330632
 30
0.0
 10
31.56264523688972
 20
31.71148381202146
 30
0.0
 10
30.530666986555488
 20
32.0627547907185
 30
0.0
 10
29.61577680467591
 20
32.239379610025786
 30
0.0
 10
28.819965204501393
 20
32.239379610025786
 30
0.0
 10
27.990411399066144
 20
32.239379610025786
 30
0.0
 10
27.2918436948398
 20
32.048860991297396
 30
0.0
 10
26.730206538241344
 20
31.665838320590016
 30
0.0
 10
25.35489734887923
 20
30.729120226286607
 30
0.0
 10
25.114767452217983
 20
28.87949653668759
 30
0.0
 10
25.05522816136545
 20
27.569680397929936
 30
0.0
 10
25.05522816136545
 20
27.55975831167668
 30
0.0
 10
25.053244421448095
 20
27.541893645754392
 30
0.0
 10
25.02546020927244
 20
27.531971559501134
 30
0.0
 10
24.99767684376342
 20
27.522050319914527
 30
0.0
 10
24.98775475751017
 20
27.53594581266887
 30
0.0
 10
24.981801844424872
 20
27.54388331233814
 30
0.0
 10
24.38245838939752
 20
28.25237225615111
 30
0.0
 10
23.668013145832738
 20
29.584022233999022
 30
0.0
 10
23.658089366246227
 20
31.90200497074974
 30
0.0
 10
23.648167279992993
 20
34.11480207854986
 30
0.0
 10
24.948064719163927
 20
35.581399710774946
 30
0.0
 10
26.037592593766927
 20
36.420873062463556
 30
0.0
 10
26.37695435962685
 20
36.68283933821496
 30
0.0
 10
26.56350295852066
 20
37.077768681759565
 30
0.0
 10
26.549612545766085
 20
37.50445056398116
 30
0.0
 10
26.53572213301153
 20
37.931134986202636
 30
0.0
 10
26.323373061859414
 20
38.31018679040881
 30
0.0
 10
25.968133756661047
 20
38.54635344056853
 30
0.0
 10
24.670884126268668
 20
39.412288511154564
 30
0.0
 10
23.373634495876303
 20
40.27822358174061
 30
0.0
 10
22.076384865483924
 20
41.144158652326645
 30
0.0
 10
21.88785083333951
 20
41.27117134703445
 30
0.0
 10
21.758853552047732
 20
41.46367370568018
 30
0.0
 10
21.717178927117498
 20
41.68594486308555
 30
0.0
 10
21.67550260885401
 20
41.908220253824084
 30
0.0
 10
21.723132686869434
 20
42.13445973773077
 30
0.0
 10
21.854113708078554
 20
42.31902459670723
 30
0.0
 10
22.909906997420507
 20
43.82928398044642
 30
0.0
 10
24.832955310626815
 20
46.556086473496315
 30
0.0
 10
25.835168148867947
 20
47.84209011324616
 30
0.0
 10
27.24619820340836
 20
49.65202122449902
 30
0.0
 10
27.220398577816677
 20
55.44101880329079
 30
0.0
 10
26.892943484793967
 20
58.138053344247666
 30
0.0
 10
26.89095889821
 20
58.151945450335496
 30
0.0
 10
26.886989725042042
 20
58.18766800884707
 30
0.0
 10
26.930651476556143
 20
58.20949761460415
 30
0.0
 10
26.974310688070336
 20
58.231328067027896
 30
0.0
 10
27.004081180163233
 20
58.207513028020195
 30
0.0
 10
27.01400326641648
 20
58.199573835017645
 30
0.0
 10
28.238483875396454
 20
57.10805968049741
 30
0.0
 10
31.074439477231632
 20
54.339580869184026
 30
0.0
 10
30.961317195278397
 20
52.19425885857245
 30
0.0
 10
30.90971879076166
 20
51.22578822559206
 30
0.0
 10
30.53264818647294
 20
50.24143751327335
 30
0.0
 10
30.135737643010874
 20
49.19953717668586
 30
0.0
 10
29.304199250991644
 20
47.02642926056536
 30
0.0
 10
28.270236414073423
 20
44.321458066605835
 30
0.0
 10
29.669363182443146
 20
40.32056029997658
 30
0.0
 10
29.709053220789393
 20
40.20744055802324
 30
0.0
 10
29.796375877150947
 20
40.12011790166168
 30
0.0
 10
29.909493079104404
 20
40.078443276731456
 30
0.0
 10
30.02261536105763
 20
40.036766111801334
 30
0.0
 10
30.14565888259749
 20
40.04867532463846
 30
0.0
 10
30.24885484496432
 20
40.11019581540843
 30
0.0
 10
30.336177501325885
 20
40.1617950665918
 30
0.0
 10
38.982959441043285
 20
45.26214448741056
 30
0.0
 10
43.577244362948065
 20
43.45221422282433
 30
0.0
 10
48.10008416782974
 20
41.67007240374691
 30
0.0
 10
50.029087934121236
 20
36.2601232424948
 30
0.0
 10
49.00505226345606
 20
28.222606844058
 30
0.0
 10
49.00372948795563
 20
28.222606844058
 30
0.0
 10
49.00240671245519
 20
28.222606844058
 30
0.0
 10
49.00108393695474
 20
28.222606844058
 30
0.0
  0
SPLINE
  5
92
330
17
100
AcDbEntity
  8
LOGO
100
AcDbSpline
 70
0
 71
3
 72
77
 73
73
 74
0
 40
0.0
 40
0.0
 40
0.0
 40
0.0
 40
1.0
 40
1.0
 40
1.0
 40
2.0
 40
2.0
 40
2.0
 40
3.0
 40
3.0
 40
3.0
 40
4.0
 40
4.0
 40
4.0
 40
5.0
 40
5.0
 40
5.0
 40
6.0
 40
6.0
 40
6.0
 40
7.0
 40
7.0
 40
7.0
 40
8.0
 40
8.0
 40
8.0
 40
9.0
 40
9.0
 40
9.0
 40
10.0
 40
10.0
 40
10.0
 40
11.0
 40
11.0
 40
11.0
 40
12.0
 40
12.0
 40
12.0
 40
13.0
 40
13.0
 40
13.0
 40
14.0
 40
14.0
 40
14.0
 40
15.0
 40
15.0
 40
15.0
 40
16.0
 40
16.0
 40
16.0
 40
17.0
 40
17.0
 40
17.0
 40
18.0
 40
18.0
 40
18.0
 40
19.0
 40
19.0
 40
19.0
 40
20.0
 40
20.0
 40
20.0
 40
21.0
 40
21.0
 40
21.0
 40
22.0
 40
22.0
 40
22.0
 40
23.0
 40
23.0
 40
23.0
 40
24.0
 40
24.0
 40
24.0
 40
24.0
 10
43.868978590792466
 20
44.19047619873008
 30
0.0
 10
39.47513352720269
 20
45.9230084332079
 30
0.0
 10
32.13419939974163
 20
42.0828604865474
 30
0.0
 10
30.270685297388063
 20
41.036989283458695
 30
0.0
 10
29.19504783553962
 20
44.50999125208362
 30
0.0
 10
30.088105024995563
 20
46.84384898817288
 30
0.0
 10
30.87994999200202
 20
48.915745528510506
 30
0.0
 10
31.300678961138313
 20
50.01718261595063
 30
0.0
 10
31.699580017850774
 20
51.05908295253812
 30
0.0
 10
31.75712964211954
 20
52.15258169364234
 30
0.0
 10
31.884142336827342
 20
54.55192994033615
 30
0.0
 10
29.173217383115887
 20
57.34223920407326
 30
0.0
 10
27.545869930922038
 20
58.792962683626456
 30
0.0
 10
27.27397902891749
 20
59.03507970687157
 30
0.0
 10
26.888974311626022
 20
59.08270893822036
 30
0.0
 10
26.56549008510453
 20
58.91402161858232
 30
0.0
 10
26.242003318583148
 20
58.745331758944396
 30
0.0
 10
26.065375959275947
 20
58.40398625316714
 30
0.0
 10
26.109037710790048
 20
58.04279318821685
 30
0.0
 10
26.484120341828262
 20
54.94884471713137
 30
0.0
 10
26.327342235027352
 20
49.759188053367076
 30
0.0
 10
25.213994241416852
 20
48.33228045948823
 30
0.0
 10
24.19987811700503
 20
47.03238302031729
 30
0.0
 10
22.268889764129547
 20
44.291690114512825
 30
0.0
 10
21.20912730161966
 20
42.77547781768835
 30
0.0
 10
20.955101912204046
 20
42.41229847282082
 30
0.0
 10
20.86182803609047
 20
41.973709917762015
 30
0.0
 10
20.943195239366823
 20
41.541072582455236
 30
0.0
 10
21.02456244264319
 20
41.10843440048182
 30
0.0
 10
21.272632378973615
 20
40.73136464285974
 30
0.0
 10
21.641765483593055
 20
40.48527844644666
 30
0.0
 10
22.93901342065217
 20
39.61934450474946
 30
0.0
 10
24.236261357711285
 20
38.75341056305226
 30
0.0
 10
25.533509294770397
 20
37.88747662135507
 30
0.0
 10
25.672431202315313
 20
37.79420020524159
 30
0.0
 10
25.755782992175668
 20
37.64535367144353
 30
0.0
 10
25.761735905260956
 20
37.47865093838948
 30
0.0
 10
25.767691358346145
 20
37.309961078751556
 30
0.0
 10
25.694261654739055
 20
37.15318297195064
 30
0.0
 10
25.559311460361975
 20
37.04998446958392
 30
0.0
 10
24.326890811712843
 20
36.09937342252604
 30
0.0
 10
22.860290639487854
 20
34.43630171848737
 30
0.0
 10
22.87021441907436
 20
31.898033257581893
 30
0.0
 10
22.880139045327496
 20
29.341902670754006
 30
0.0
 10
23.69778194459237
 20
27.84156537326806
 30
0.0
 10
24.380473802813544
 20
27.03186251367235
 30
0.0
 10
24.602747500218804
 20
26.767915038003494
 30
0.0
 10
24.959968005334616
 20
26.670670295388685
 30
0.0
 10
25.287426485023854
 20
26.78180545075806
 30
0.0
 10
25.614879038046656
 20
26.892941452794055
 30
0.0
 10
25.837150195452026
 20
27.18864400713978
 30
0.0
 10
25.855011474707812
 20
27.5339612260849
 30
0.0
 10
25.908595312475146
 20
28.67310630528719
 30
0.0
 10
26.10308479770475
 20
30.27465159188947
 30
0.0
 10
27.184674325971855
 20
31.010929827877867
 30
0.0
 10
28.065824842590587
 20
31.612257869489206
 30
0.0
 10
29.455026984707153
 20
31.594393203566895
 30
0.0
 10
31.31258817397544
 20
30.961315163278478
 30
0.0
 10
37.22462758097379
 20
28.944991280625313
 30
0.0
 10
41.10049893281248
 20
20.79633634015261
 30
0.0
 10
41.14018897115871
 20
20.714966596876355
 30
0.0
 10
41.20568117509654
 20
20.576050615997854
 30
0.0
 10
41.344600542641565
 20
20.48674337305232
 30
0.0
 10
41.49741286294105
 20
20.48674337305232
 30
0.0
 10
41.596642192139825
 20
20.48674337305232
 30
0.0
 10
48.83040695073295
 20
20.562154276576862
 30
0.0
 10
49.792927210627944
 20
28.123377514859218
 30
0.0
 10
50.8665826258923
 20
36.557807843424605
 30
0.0
 10
48.76293270021106
 20
42.26345701902255
 30
0.0
 10
43.868978590792466
 20
44.192463325313945
 30
0.0
 10
43.868978590792466
 20
44.19180094978599
 30
0.0
 10
43.868978590792466
 20
44.191138574258034
 30
0.0
 10
43.868978590792466
 20
44.19047619873008
 30
0.0
  0
SPLINE
  5
93
330
17
100
AcDbEntity
  8
LOGO
100
AcDbSpline
 70
0
 71
3
 72
17
 73
13
 74
0
 40
0.0
 40
0.0
 40
0.0
 40
0.0
 40
1.0
 40
1.0
 40
1.0
 40
2.0
 40
2.0
 40
2.0
 40
3.0
 40
3.0
 40
3.0
 40
4.0
 40
4.0
 40
4.0
 40
4.0
 10
38.44315527686845
 20
35.08128812494627
 30
0.0
 10
38.81823790790668
 20
35.08128812494627
 30
0.0
 10
39.12386254850565
 20
35.38492902562789
 30
0.0
 10
39.12386254850565
 20
35.761996243250096
 30
0.0
 10
39.12386254850565
 20
36.13906600087218
 30
0.0
 10
38.81823790790668
 20
36.44270436155392
 30
0.0
 10
38.44315527686845
 20
36.44270436155392
 30
0.0
 10
38.068071799163604
 20
36.44270436155392
 30
0.0
 10
37.762447158564626
 20
36.13707887428831
 30
0.0
 10
37.762447158564626
 20
35.761996243250096
 30
0.0
 10
37.762447158564626
 20
35.38691361221186
 30
0.0
 10
38.068071799163604
 20
35.08128812494627
 30
0.0
 10
38.44315527686845
 20
35.08128812494627
 30
0.0
  0
SPLINE
  5
94
330
17
100
AcDbEntity
  8
LOGO
100
AcDbSpline
 70
0
 71
3
 72
44
 73
40
 74
0
 40
0.0
 40
0.0
 40
0.0
 40
0.0
 40
1.0
 40
1.0
 40
1.0
 40
2.0
 40
2.0
 40
2.0
 40
3.0
 40
3.0
 40
3.0
 40
4.0
 40
4.0
 40
4.0
 40
5.0
 40
5.0
 40
5.0
 40
6.0
 40
6.0
 40
6.0
 40
7.0
 40
7.0
 40
7.0
 40
8.0
 40
8.0
 40
8.0
 40
9.0
 40
9.0
 40
9.0
 40
10.0
 40
10.0
 40
10.0
 40
11.0
 40
11.0
 40
11.0
 40
12.0
 40
12.0
 40
12.0
 40
13.0
 40
13.0
 40
13.0
 40
13.0
 10
43.273604308933066
 20
35.27180928367455
 30
0.0
 10
43.13071915488662
 20
35.36111398662018
 30
0.0
 10
43.01362515976554
 20
35.484158354826675
 30
0.0
 10
42.9183700837345
 20
35.62307687570506
 30
0.0
 10
42.156292222154406
 20
36.752297328654215
 30
0.0
 10
41.11240814564958
 20
37.39530253519567
 30
0.0
 10
39.95738552710887
 20
37.65527829769667
 30
0.0
 10
40.51306723062213
 20
37.21073428955266
 30
0.0
 10
40.87028858240456
 20
36.5280398913316
 30
0.0
 10
40.87028858240456
 20
35.761996243250096
 30
0.0
 10
40.87028858240456
 20
34.422408765732904
 30
0.0
 10
39.780758167801665
 20
33.334862937713986
 30
0.0
 10
38.44315527686845
 20
33.334862937713986
 30
0.0
 10
37.10555492593513
 20
33.334862937713986
 30
0.0
 10
36.01602197133236
 20
34.422408765732904
 30
0.0
 10
36.01602197133236
 20
35.761996243250096
 30
0.0
 10
36.01602197133236
 20
36.46255022739367
 30
0.0
 10
36.31371165226195
 20
37.093646221098005
 30
0.0
 10
36.79000819908292
 20
37.53620564265803
 30
0.0
 10
35.317454267106015
 20
37.1432583456975
 30
0.0
 10
33.900468759480404
 20
36.3276000330166
 30
0.0
 10
32.84070883697041
 20
35.27974424334393
 30
0.0
 10
32.84070883697041
 20
35.27974424334393
 30
0.0
 10
34.94038450948391
 20
32.656139405994125
 30
0.0
 10
37.94502743095712
 20
32.656139405994125
 30
0.0
 10
40.42574457426056
 20
32.656139405994125
 30
0.0
 10
41.9756965363459
 20
33.37455551606012
 30
0.0
 10
42.69609384632935
 20
33.821086650788004
 30
0.0
 10
43.023547246018786
 20
34.02152650910299
 30
0.0
 10
43.428401215816535
 20
34.049312414611926
 30
0.0
 10
43.77768676126296
 20
33.88856005464327
 30
0.0
 10
43.921237113059476
 20
33.82240745073296
 30
0.0
 10
44.06478746485599
 20
33.75625484682265
 30
0.0
 10
44.2083378166525
 20
33.690102242912346
 30
0.0
 10
44.49213454482765
 20
33.5591203750366
 30
0.0
 10
44.760051193664445
 20
33.892529227811224
 30
0.0
 10
44.57349920810412
 20
34.14060170414154
 30
0.0
 10
44.321462638605645
 20
34.47401055691616
 30
0.0
 10
43.91660866880789
 20
34.87489281354607
 30
0.0
 10
43.273604308933066
 20
35.27180928367455
 30
0.0
  0
ENDSEC
  0
SECTION
  2
OBJECTS
  0
DICTIONARY
  5
A
330
0
100
AcDbDictionary
281
1
  3
ACAD_COLOR
350
B
  3
ACAD_GROUP
350
C
  3
ACAD_LAYOUT
350
D
  3
ACAD_MATERIAL
350
E
  3
ACAD_MLEADERSTYLE
350
F
  3
ACAD_MLINESTYLE
350
10
  3
ACAD_PLOTSETTINGS
350
11
  3
ACAD_PLOTSTYLENAME
350
12
  3
ACAD_SCALELIST
350
14
  3
ACAD_TABLESTYLE
350
15
  3
ACAD_VISUALSTYLE
350
16
  3
EZDXF_META
350
2D
  0
DICTIONARY
  5
B
330
A
100
AcDbDictionary
281
1
  0
DICTIONARY
  5
C
330
A
100
AcDbDictionary
281
1
  0
DICTIONARY
  5
D
330
A
100
AcDbDictionary
281
1
  3
Model
350
1A
  3
Layout1
350
1E
  0
DICTIONARY
  5
E
330
A
100
AcDbDictionary
281
1
  3
ByBlock
350
1F
  3
ByLayer
350
20
  3
Global
350
21
  0
DICTIONARY
  5
F
330
A
100
AcDbDictionary
281
1
  3
Standard
350
2C
  0
DICTIONARY
  5
10
330
A
100
AcDbDictionary
281
1
  3
Standard
350
22
  0
DICTIONARY
  5
11
330
A
100
AcDbDictionary
281
1
  0
ACDBDICTIONARYWDFLT
  5
12
330
A
100
AcDbDictionary
281
1
  3
Normal
350
13
100
AcDbDictionaryWithDefault
340
13
  0
ACDBPLACEHOLDER
  5
13
330
12
  0
DICTIONARY
  5
14
330
A
100
AcDbDictionary
281
1
  0
DICTIONARY
  5
15
330
A
100
AcDbDictionary
281
1
  0
DICTIONARY
  5
16
330
A
100
AcDbDictionary
281
1
  3
2dWireframe
350
5A
  3
Basic
350
5B
  3
Brighten
350
5C
  3
ColorChange
350
5D
  3
Conceptual
350
5E
  3
Dim
350
5F
  3
EdgeColorOff
350
60
  3
Facepattern
350
61
  3
Flat
350
62
  3
FlatWithEdges
350
63
  3
Gouraud
350
64
  3
GouraudWithEdges
350
65
  3
Hidden
350
66
  3
JitterOff
350
67
  3
Linepattern
350
68
  3
Modeling
350
69
  3
OverhangOff
350
6A
  3
Realistic
350
6B
  3
Shaded
350
6C
  3
Shaded with edges
350
6D
  3
Shades of Gray
350
6E
  3
Sketchy
350
6F
  3
Thicken
350
70
  3
Wireframe
350
71
  3
X-Ray
350
72
  0
LAYOUT
  5
1A
330
D
100
AcDbPlotSettings
  1

  4
A3
  6

 40
7.5
 41
20.0
 42
7.5
 43
20.0
 44
420.0
 45
297.0
 46
0.0
 47
0.0
 48
0.0
 49
0.0
140
0.0
141
0.0
142
1.0
143
1.0
 70
1024
 72
1
 73
0
 74
5
  7

 75
16
 76
0
 77
2
 78
300
147
1.0
148
0.0
149
0.0
100
AcDbLayout
  1
Model
 70
1
 71
0
 10
0.0
 20
0.0
 11
420.0
 21
297.0
 12
0.0
 22
0.0
 32
0.0
 14
1e+20
 24
1e+20
 34
1e+20
 15
-1e+20
 25
-1e+20
 35
-1e+20
146
0.0
 13
0.0
 23
0.0
 33
0.0
 16
1.0
 26
0.0
 36
0.0
 17
0.0
 27
1.0
 37
0.0
 76
1
330
17
  0
LAYOUT
  5
1E
330
D
100
AcDbPlotSettings
  1

  4
A3
  6

 40
7.5
 41
20.0
 42
7.5
 43
20.0
 44
420.0
 45
297.0
 46
0.0
 47
0.0
 48
0.0
 49
0.0
140
0.0
141
0.0
142
1.0
143
1.0
 70
0
 72
1
 73
0
 74
5
  7

 75
16
 76
0
 77
2
 78
300
147
1.0
148
0.0
149
0.0
100
AcDbLayout
  1
Layout1
 70
1
 71
1
 10
0.0
 20
0.0
 11
420.0
 21
297.0
 12
0.0
 22
0.0
 32
0.0
 14
1e+20
 24
1e+20
 34
1e+20
 15
-1e+20
 25
-1e+20
 35
-1e+20
146
0.0
 13
0.0
 23
0.0
 33
0.0
 16
1.0
 26
0.0
 36
0.0
 17
0.0
 27
1.0
 37
0.0
 76
1
330
1B
  0
MATERIAL
  5
1F
102
{ACAD_REACTORS
330
E
102
}
330
E
100
AcDbMaterial
  1
ByBlock
  2

 70
0
 40
1.0
 71
1
 41
1.0
 91
-1023410177
 42
1.0
 72
1
  3

 73
1
 74
1
 75
1
 44
0.5
 73
0
 45
1.0
 46
1.0
 77
1
  4

 78
1
 79
1
170
1
 48
1.0
171
1
  6

172
1
173
1
174
1
140
1.0
141
1.0
175
1
  7

176
1
177
1
178
1
143
1.0
179
1
  8

270
1
271
1
272
1
145
1.0
146
1.0
273
1
  9

274
1
275
1
276
1
 42
1.0
 72
1
  3

 73
1
 74
1
 75
1
 94
63
  0
MATERIAL
  5
20
102
{ACAD_REACTORS
330
E
102
}
330
E
100
AcDbMaterial
  1
ByLayer
  2

 70
0
 40
1.0
 71
1
 41
1.0
 91
-1023410177
 42
1.0
 72
1
  3

 73
1
 74
1
 75
1
 44
0.5
 73
0
 45
1.0
 46
1.0
 77
1
  4

 78
1
 79
1
170
1
 48
1.0
171
1
  6

172
1
173
1
174
1
140
1.0
141
1.0
175
1
  7

176
1
177
1
178
1
143
1.0
179
1
  8

270
1
271
1
272
1
145
1.0
146
1.0
273
1
  9

274
1
275
1
276
1
 42
1.0
 72
1
  3

 73
1
 74
1
 75
1
 94
63
  0
MATERIAL
  5
21
102
{ACAD_REACTORS
330
E
102
}
330
E
100
AcDbMaterial
  1
Global
  2

 70
0
 40
1.0
 71
1
 41
1.0
 91
-1023410177
 42
1.0
 72
1
  3

 73
1
 74
1
 75
1
 44
0.5
 73
0
 45
1.0
 46
1.0
 77
1
  4

 78
1
 79
1
170
1
 48
1.0
171
1
  6

172
1
173
1
174
1
140
1.0
141
1.0
175
1
  7

176
1
177
1
178
1
143
1.0
179
1
  8

270
1
271
1
272
1
145
1.0
146
1.0
273
1
  9

274
1
275
1
276
1
 42
1.0
 72
1
  3

 73
1
 74
1
 75
1
 94
63
  0
MLINESTYLE
  5
22
102
{ACAD_REACTORS
330
10
102
}
330
10
100
AcDbMlineStyle
  2
Standard
 70
0
  3

 62
256
 51
90.0
 52
90.0
 71
2
 49
0.5
 62
256
  6
BYLAYER
 49
-0.5
 62
256
  6
BYLAYER
  0
MLEADERSTYLE
  5
2C
102
{ACAD_REACTORS
330
F
102
}
330
F
100
AcDbMLeaderStyle
179
2
170
2
171
1
172
0
 90
2
 40
0.0
 41
0.0
173
1
 91
-1056964608
 92
-2
290
1
 42
2.0
291
1
 43
8.0
  3
Standard
 44
4.0
300

342
29
174
1
175
1
176
0
178
1
 93
-1056964608
 45
4.0
292
0
297
0
 46
4.0
 94
-1056964608
 47
1.0
 49
1.0
140
1.0
294
1
141
0.0
177
0
142
1.0
295
0
296
0
143
3.75
271
0
272
9
273
9
  0
DICTIONARY
  5
2D
330
A
100
AcDbDictionary
280
1
281
1
  3
CREATED_BY_EZDXF
350
2E
  3
WRITTEN_BY_EZDXF
350
97
  0
DICTIONARYVAR
  5
2E
330
2D
100
DictionaryVariables
280
0
  1
1.4.4 @ 2026-09-08T15:37:42.112070+00:00
  0
VISUALSTYLE
  5
5A
102
{ACAD_REACTORS
330
16
102
}
330
16
100
AcDbVisualStyle
  2
2dWireframe
 70
4
 90
0
 40
0.6
 62
7
290
0
291
0
  0
VISUALSTYLE
  5
5B
102
{ACAD_REACTORS
330
16
102
}
330
16
100
AcDbVisualStyle
  2
Basic
 70
7
 90
1
 40
0.6
 62
7
290
0
291
1
  0
VISUALSTYLE
  5
5C
102
{ACAD_REACTORS
330
16
102
}
330
16
100
AcDbVisualStyle
  2
Brighten
 70
12
 90
2
 40
0.6
 62
7
290
0
291
1
  0
VISUALSTYLE
  5
5D
102
{ACAD_REACTORS
330
16
102
}
330
16
100
AcDbVisualStyle
  2
ColorChange
 70
16
 90
2
 40
0.6
 62
8
290
0
291
1
  0
VISUALSTYLE
  5
5E
102
{ACAD_REACTORS
330
16
102
}
330
16
100
AcDbVisualStyle
  2
Conceptual
 70
9
 90
3
 40
0.6
 62
7
290
0
291
0
  0
VISUALSTYLE
  5
5F
102
{ACAD_REACTORS
330
16
102
}
330
16
100
AcDbVisualStyle
  2
Dim
 70
11
 90
2
 40
0.6
 62
7
290
0
291
1
  0
VISUALSTYLE
  5
60
102
{ACAD_REACTORS
330
16
102
}
330
16
100
AcDbVisualStyle
  2
EdgeColorOff
 70
22
 90
2
 40
0.6
 62
7
290
0
291
1
  0
VISUALSTYLE
  5
61
102
{ACAD_REACTORS
330
16
102
}
330
16
100
AcDbVisualStyle
  2
Facepattern
 70
15
 90
2
 40
0.6
 62
7
290
0
291
1
  0
VISUALSTYLE
  5
62
102
{ACAD_REACTORS
330
16
102
}
330
16
100
AcDbVisualStyle
  2
Flat
 70
0
 90
2
 40
0.6
 62
7
290
0
291
1
  0
VISUALSTYLE
  5
63
102
{ACAD_REACTORS
330
16
102
}
330
16
100
AcDbVisualStyle
  2
FlatWithEdges
 70
1
 90
2
 40
0.6
 62
7
290
0
291
1
  0
VISUALSTYLE
  5
64
102
{ACAD_REACTORS
330
16
102
}
330
16
100
AcDbVisualStyle
  2
Gouraud
 70
2
 90
2
 40
0.6
 62
7
290
0
291
1
  0
VISUALSTYLE
  5
65
102
{ACAD_REACTORS
330
16
102
}
330
16
100
AcDbVisualStyle
  2
GouraudWithEdges
 70
3
 90
2
 40
0.6
 62
7
290
0
291
1
  0
VISUALSTYLE
  5
66
102
{ACAD_REACTORS
330
16
102
}
330
16
100
AcDbVisualStyle
  2
Hidden
 70
6
 90
1
 40
0.6
 62
7
290
0
291
0
  0
VISUALSTYLE
  5
67
102
{ACAD_REACTORS
330
16
102
}
330
16
100
AcDbVisualStyle
  2
JitterOff
 70
20
 90
2
 40
0.6
 62
7
290
0
291
1
  0
VISUALSTYLE
  5
68
102
{ACAD_REACTORS
330
16
102
}
330
16
100
AcDbVisualStyle
  2
Linepattern
 70
14
 90
2
 40
0.6
 62
7
290
0
291
1
  0
VISUALSTYLE
  5
69
102
{ACAD_REACTORS
330
16
102
}
330
16
100
AcDbVisualStyle
  2
Modeling
 70
10
 90
2
 40
0.6
 62
7
290
0
291
0
  0
VISUALSTYLE
  5
6A
102
{ACAD_REACTORS
330
16
102
}
330
16
100
AcDbVisualStyle
  2
OverhangOff
 70
21
 90
2
 40
0.6
 62
7
290
0
291
1
  0
VISUALSTYLE
  5
6B
102
{ACAD_REACTORS
330
16
102
}
330
16
100
AcDbVisualStyle
  2
Realistic
 70
8
 90
2
 40
0.6
 62
7
290
0
291
0
  0
VISUALSTYLE
  5
6C
102
{ACAD_REACTORS
330
16
102
}
330
16
100
AcDbVisualStyle
  2
Shaded
 70
27
 90
2
 40
0.6
 62
7
290
0
291
0
  0
VISUALSTYLE
  5
6D
102
{ACAD_REACTORS
330
16
102
}
330
16
100
AcDbVisualStyle
  2
Shaded with edges
 70
26
 90
2
 40
0.6
 62
7
290
0
291
0
  0
VISUALSTYLE
  5
6E
102
{ACAD_REACTORS
330
16
102
}
330
16
100
AcDbVisualStyle
  2
Shades of Gray
 70
23
 90
2
 40
0.6
 62
7
290
0
291
0
  0
VISUALSTYLE
  5
6F
102
{ACAD_REACTORS
330
16
102
}
330
16
100
AcDbVisualStyle
  2
Sketchy
 70
24
 90
1
 40
0.6
 62
7
290
0
291
0
  0
VISUALSTYLE
  5
70
102
{ACAD_REACTORS
330
16
102
}
330
16
100
AcDbVisualStyle
  2
Thicken
 70
13
 90
2
 40
0.6
 62
7
290
0
291
1
  0
VISUALSTYLE
  5
71
102
{ACAD_REACTORS
330
16
102
}
330
16
100
AcDbVisualStyle
  2
Wireframe
 70
5
 90
0
 40
0.6
 62
7
290
0
291
0
  0
VISUALSTYLE
  5
72
102
{ACAD_REACTORS
330
16
102
}
330
16
100
AcDbVisualStyle
  2
X-Ray
 70
25
 90
2
 40
0.5
 62
7
290
0
291
0
  0
DICTIONARYVAR
  5
97
330
2D
100
DictionaryVariables
280
0
  1
1.4.4 @ 2026-09-08T15:37:42.117214+00:00
  0
ENDSEC
  0
EOF
