  0
SECTION
  2
HEADER
  9
$ACADVER
  1
AC1015
  9
$ACADMAINTVER
 70
6
  9
$DWGCODEPAGE
  3
ANSI_1252
  9
$INSBASE
 10
0.0
 20
0.0
 30
0.0
  9
$EXTMIN
 10
1e+20
 20
1e+20
 30
1e+20
  9
$EXTMAX
 10
-1e+20
 20
-1e+20
 30
-1e+20
  9
$LIMMIN
 10
0.0
 20
0.0
  9
$LIMMAX
 10
420.0
 20
297.0
  9
$ORTHOMODE
 70
0
  9
$REGENMODE
 70
1
  9
$FILLMODE
 70
1
  9
$QTEXTMODE
 70
0
  9
$MIRRTEXT
 70
1
  9
$LTSCALE
 40
1.0
  9
$ATTMODE
 70
1
  9
$TEXTSIZE
 40
2.5
  9
$TRACEWID
 40
1.0
  9
$TEXTSTYLE
  7
OpenSans
  9
$CLAYER
  8
0
  9
$CELTYPE
  6
ByLayer
  9
$CECOLOR
 62
256
  9
$CELTSCALE
 40
1.0
  9
$DISPSILH
 70
0
  9
$DIMSCALE
 40
1.0
  9
$DIMASZ
 40
0.175
  9
$DIMEXO
 40
0.125
  9
$DIMDLI
 40
3.75
  9
$DIMRND
 40
0.0
  9
$DIMDLE
 40
0.0
  9
$DIMEXE
 40
0.375
  9
$DIMTP
 40
0.0
  9
$DIMTM
 40
0.0
  9
$DIMTXT
 40
0.25
  9
$DIMCEN
 40
2.5
  9
$DIMTSZ
 40
0.0
  9
$DIMTOL
 70
0
  9
$DIMLIM
 70
0
  9
$DIMTIH
 70
0
  9
$DIMTOH
 70
0
  9
$DIMSE1
 70
0
  9
$DIMSE2
 70
0
  9
$DIMTAD
 70
1
  9
$DIMZIN
 70
12
  9
$DIMBLK
  1
ARCHTICK
  9
$DIMASO
 70
1
  9
$DIMSHO
 70
1
  9
$DIMPOST
  1

  9
$DIMAPOST
  1

  9
$DIMALT
 70
0
  9
$DIMALTD
 70
3
  9
$DIMALTF
 40
0.03937007874
  9
$DIMLFAC
 40
100.0
  9
$DIMTOFL
 70
1
  9
$DIMTVP
 40
0.0
  9
$DIMTIX
 70
0
  9
$DIMSOXD
 70
0
  9
$DIMSAH
 70
0
  9
$DIMBLK1
  1

  9
$DIMBLK2
  1

  9
$DIMSTYLE
  2
EZDXF
  9
$DIMCLRD
 70
0
  9
$DIMCLRE
 70
0
  9
$DIMCLRT
 70
0
  9
$DIMTFAC
 40
0.5
  9
$DIMGAP
 40
0.1
  9
$DIMJUST
 70
0
  9
$DIMSD1
 70
0
  9
$DIMSD2
 70
0
  9
$DIMTOLJ
 70
0
  9
$DIMTZIN
 70
8
  9
$DIMALTZ
 70
0
  9
$DIMALTTZ
 70
0
  9
$DIMUPT
 70
1
  9
$DIMDEC
 70
2
  9
$DIMTDEC
 70
2
  9
$DIMALTU
 70
2
  9
$DIMALTTD
 70
3
  9
$DIMTXSTY
  7
OpenSansCondensed-Light
  9
$DIMAUNIT
 70
0
  9
$DIMADEC
 70
2
  9
$DIMALTRND
 40
0.0
  9
$DIMAZIN
 70
3
  9
$DIMDSEP
 70
46
  9
$DIMATFIT
 70
3
  9
$DIMFRAC
 70
0
  9
$DIMLDRBLK
  1

  9
$DIMLUNIT
 70
2
  9
$DIMLWD
 70
-2
  9
$DIMLWE
 70
-2
  9
$DIMTMOVE
 70
2
  9
$LUNITS
 70
2
  9
$LUPREC
 70
4
  9
$SKETCHINC
 40
1.0
  9
$FILLETRAD
 40
10.0
  9
$AUNITS
 70
0
  9
$AUPREC
 70
2
  9
$MENU
  1
.
  9
$ELEVATION
 40
0.0
  9
$PELEVATION
 40
0.0
  9
$THICKNESS
 40
0.0
  9
$LIMCHECK
 70
0
  9
$CHAMFERA
 40
0.0
  9
$CHAMFERB
 40
0.0
  9
$CHAMFERC
 40
0.0
  9
$CHAMFERD
 40
0.0
  9
$SKPOLY
 70
0
  9
$TDCREATE
 40
2461292.6511805556
  9
$TDUCREATE
 40
2458532.153996898
  9
$TDUPDATE
 40
2461292.6511805556
  9
$TDUUPDATE
 40
2458532.1544311
  9
$TDINDWG
 40
0.0
  9
$TDUSRTIMER
 40
0.0
  9
$USRTIMER
 70
1
  9
$ANGBASE
 50
0.0
  9
$ANGDIR
 70
0
  9
$PDMODE
 70
0
  9
$PDSIZE
 40
0.0
  9
$PLINEWID
 40
0.0
  9
$SPLFRAME
 70
0
  9
$SPLINETYPE
 70
6
  9
$SPLINESEGS
 70
8
  9
$HANDSEED
  5
98
  9
$SURFTAB1
 70
6
  9
$SURFTAB2
 70
6
  9
$SURFTYPE
 70
6
  9
$SURFU
 70
6
  9
$SURFV
 70
6
  9
$UCSBASE
  2

  9
$UCSNAME
  2

  9
$UCSORG
 10
0.0
 20
0.0
 30
0.0
  9
$UCSXDIR
 10
1.0
 20
0.0
 30
0.0
  9
$UCSYDIR
 10
0.0
 20
1.0
 30
0.0
  9
$UCSORTHOREF
  2

  9
$UCSORTHOVIEW
 70
0
  9
$UCSORGTOP
 10
0.0
 20
0.0
 30
0.0
  9
$UCSORGBOTTOM
 10
0.0
 20
0.0
 30
0.0
  9
$UCSORGLEFT
 10
0.0
 20
0.0
 30
0.0
  9
$UCSORGRIGHT
 10
0.0
 20
0.0
 30
0.0
  9
$UCSORGFRONT
 10
0.0
 20
0.0
 30
0.0
  9
$UCSORGBACK
 10
0.0
 20
0.0
 30
0.0
  9
$PUCSBASE
  2

  9
$PUCSNAME
  2

  9
$PUCSORG
 10
0.0
 20
0.0
 30
0.0
  9
$PUCSXDIR
 10
1.0
 20
0.0
 30
0.0
  9
$PUCSYDIR
 10
0.0
 20
1.0
 30
0.0
  9
$PUCSORTHOREF
  2

  9
$PUCSORTHOVIEW
 70
0
  9
$PUCSORGTOP
 10
0.0
 20
0.0
 30
0.0
  9
$PUCSORGBOTTOM
 10
0.0
 20
0.0
 30
0.0
  9
$PUCSORGLEFT
 10
0.0
 20
0.0
 30
0.0
  9
$PUCSORGRIGHT
 10
0.0
 20
0.0
 30
0.0
  9
$PUCSORGFRONT
 10
0.0
 20
0.0
 30
0.0
  9
$PUCSORGBACK
 10
0.0
 20
0.0
 30
0.0
  9
$USERI1
 70
0
  9
$USERI2
 70
0
  9
$USERI3
 70
0
  9
$USERI4
 70
0
  9
$USERI5
 70
0
  9
$USERR1
 40
0.0
  9
$USERR2
 40
0.0
  9
$USERR3
 40
0.0
  9
$USERR4
 40
0.0
  9
$USERR5
 40
0.0
  9
$WORLDVIEW
 70
1
  9
$SHADEDGE
 70
3
  9
$SHADEDIF
 70
70
  9
$TILEMODE
 70
1
  9
$MAXACTVP
 70
64
  9
$PINSBASE
 10
0.0
 20
0.0
 30
0.0
  9
$PLIMCHECK
 70
0
  9
$PEXTMIN
 10
1e+20
 20
1e+20
 30
1e+20
  9
$PEXTMAX
 10
-1e+20
 20
-1e+20
 30
-1e+20
  9
$PLIMMIN
 10
0.0
 20
0.0
  9
$PLIMMAX
 10
420.0
 20
297.0
  9
$UNITMODE
 70
0
  9
$VISRETAIN
 70
1
  9
$PLINEGEN
 70
0
  9
$PSLTSCALE
 70
1
  9
$TREEDEPTH
 70
3020
  9
$CMLSTYLE
  2
Standard
  9
$CMLJUST
 70
0
  9
$CMLSCALE
 40
20.0
  9
$PROXYGRAPHICS
 70
1
  9
$MEASUREMENT
 70
1
  9
$CELWEIGHT
370
-1
  9
$ENDCAPS
280
0
  9
$JOINSTYLE
280
0
  9
$LWDISPLAY
290
0
  9
$INSUNITS
 70
4
  9
$HYPERLINKBASE
  1

  9
$STYLESHEET
  1

  9
$XEDIT
290
1
  9
$CEPSNTYPE
380
0
  9
$PSTYLEMODE
290
1
  9
$FINGERPRINTGUID
  2
{13FB90CE-6194-463C-A23D-9EEEB92FD9E0}
  9
$VERSIONGUID
  2
{A834E15C-E390-4040-BAE7-68D099F55BD6}
  9
$EXTNAMES
290
1
  9
$PSVPSCALE
 40
0.0
  9
$OLESTARTUP
290
0
  0
ENDSEC
  0
SECTION
  2
CLASSES
  0
CLASS
  1
ACDBDICTIONARYWDFLT
  2
AcDbDictionaryWithDefault
  3
ObjectDBX Classes
 90
0
280
0
281
0
  0
CLASS
  1
SUN
  2
AcDbSun
  3
SCENEOE
 90
1153
280
0
281
0
  0
CLASS
  1
VISUALSTYLE
  2
AcDbVisualStyle
  3
ObjectDBX Classes
 90
4095
280
0
281
0
  0
CLASS
  1
MATERIAL
  2
AcDbMaterial
  3
ObjectDBX Classes
 90
1153
280
0
281
0
  0
CLASS
  1
SCALE
  2
AcDbScale
  3
ObjectDBX Classes
 90
1153
280
0
281
0
  0
CLASS
  1
TABLESTYLE
  2
AcDbTableStyle
  3
ObjectDBX Classes
 90
4095
280
0
281
0
  0
CLASS
  1
MLEADERSTYLE
  2
AcDbMLeaderStyle
  3
ACDB_MLEADERSTYLE_CLASS
 90
4095
280
0
281
0
  0
CLASS
  1
DICTIONARYVAR
  2
AcDbDictionaryVar
  3
ObjectDBX Classes
 90
0
280
0
281
0
  0
CLASS
  1
CELLSTYLEMAP
  2
AcDbCellStyleMap
  3
ObjectDBX Classes
 90
1152
280
0
281
0
  0
CLASS
  1
MENTALRAYRENDERSETTINGS
  2
AcDbMentalRayRenderSettings
  3
SCENEOE
 90
1024
280
0
281
0
  0
CLASS
  1
ACDBDETAILVIEWSTYLE
  2
AcDbDetailViewStyle
  3
ObjectDBX Classes
 90
1025
280
0
281
0
  0
CLASS
  1
ACDBSECTIONVIEWSTYLE
  2
AcDbSectionViewStyle
  3
ObjectDBX Classes
 90
1025
280
0
281
0
  0
CLASS
  1
RASTERVARIABLES
  2
AcDbRasterVariables
  3
ISM
 90
0
280
0
281
0
  0
CLASS
  1
ACDBPLACEHOLDER
  2
AcDbPlaceHolder
  3
ObjectDBX Classes
 90
0
280
0
281
0
  0
CLASS
  1
LAYOUT
  2
AcDbLayout
  3
ObjectDBX Classes
 90
0
280
0
281
0
  0
ENDSEC
  0
SECTION
  2
TABLES
  0
TABLE
  2
VPORT
  5
8
330
0
100
AcDbSymbolTable
 70
1
  0
VPORT
  5
23
330
8
100
AcDbSymbolTableRecord
100
AcDbViewportTableRecord
  2
*Active
 70
0
 10
0.0
 20
0.0
 11
1.0
 21
1.0
 12
0.0
 22
0.0
 13
0.0
 23
0.0
 14
0.5
 24
0.5
 15
0.5
 25
0.5
 16
0.0
 26
0.0
 36
1.0
 17
0.0
 27
0.0
 37
0.0
 40
1000.0
 41
1.34
 42
50.0
 43
0.0
 44
0.0
 50
0.0
 51
0.0
 71
0
 72
1000
 73
1
 74
3
 75
0
 76
0
 77
0
 78
0
281
0
 65
0
146
0.0
  0
ENDTAB
  0
TABLE
  2
LTYPE
  5
2
330
0
100
AcDbSymbolTable
 70
21
  0
LTYPE
  5
24
330
2
100
AcDbSymbolTableRecord
100
AcDbLinetypeTableRecord
  2
ByBlock
 70
0
  3

 72
65
 73
0
 40
0.0
  0
LTYPE
  5
25
330
2
100
AcDbSymbolTableRecord
100
AcDbLinetypeTableRecord
  2
ByLayer
 70
0
  3

 72
65
 73
0
 40
0.0
  0
LTYPE
  5
26
330
2
100
AcDbSymbolTableRecord
100
AcDbLinetypeTableRecord
  2
Continuous
 70
0
  3

 72
65
 73
0
 40
0.0
  0
LTYPE
  5
2F
330
2
100
AcDbSymbolTableRecord
100
AcDbLinetypeTableRecord
  2
CENTER
 70
0
  3
Center ____ _ ____ _ ____ _ ____ _ ____ _ ____
 72
65
 73
4
 40
5.08
 49
3.175
 74
0
 49
-0.635
 74
0
 49
0.635
 74
0
 49
-0.635
 74
0
  0
LTYPE
  5
30
330
2
100
AcDbSymbolTableRecord
100
AcDbLinetypeTableRecord
  2
CENTERX2
 70
0
  3
Center (2x) ________  __  ________  __  ________
 72
65
 73
4
 40
8.89
 49
6.35
 74
0
 49
-0.635
 74
0
 49
1.27
 74
0
 49
-0.635
 74
0
  0
LTYPE
  5
31
330
2
100
AcDbSymbolTableRecord
100
AcDbLinetypeTableRecord
  2
CENTER2
 70
0
  3
Center (.5x) ____ _ ____ _ ____ _ ____ _ ____
 72
65
 73
4
 40
2.54
 49
1.587
 74
0
 49
-0.318
 74
0
 49
0.318
 74
0
 49
-0.318
 74
0
  0
LTYPE
  5
32
330
2
100
AcDbSymbolTableRecord
100
AcDbLinetypeTableRecord
  2
DASHED
 70
0
  3
Dashed __ __ __ __ __ __ __ __ __ __ __ __ __ _
 72
65
 73
2
 40
1.524
 49
1.27
 74
0
 49
-0.254
 74
0
  0
LTYPE
  5
33
330
2
100
AcDbSymbolTableRecord
100
AcDbLinetypeTableRecord
  2
DASHEDX2
 70
0
  3
Dashed (2x) ____  ____  ____  ____  ____  ____
 72
65
 73
2
 40
3.048
 49
2.54
 74
0
 49
-0.508
 74
0
  0
LTYPE
  5
34
330
2
100
AcDbSymbolTableRecord
100
AcDbLinetypeTableRecord
  2
DASHED2
 70
0
  3
Dashed (.5x) _ _ _ _ _ _ _ _ _ _ _ _ _ _
 72
65
 73
2
 40
0.762
 49
0.635
 74
0
 49
-0.127
 74
0
  0
LTYPE
  5
35
330
2
100
AcDbSymbolTableRecord
100
AcDbLinetypeTableRecord
  2
PHANTOM
 70
0
  3
Phantom ______  __  __  ______  __  __  ______
 72
65
 73
6
 40
6.35
 49
3.175
 74
0
 49
-0.635
 74
0
 49
0.635
 74
0
 49
-0.635
 74
0
 49
0.635
 74
0
 49
-0.635
 74
0
  0
LTYPE
  5
36
330
2
100
AcDbSymbolTableRecord
100
AcDbLinetypeTableRecord
  2
PHANTOMX2
 70
0
  3
Phantom (2x)____________    ____    ____    ____________
 72
65
 73
6
 40
10.795
 49
6.35
 74
0
 49
-0.635
 74
0
 49
1.27
 74
0
 49
-0.635
 74
0
 49
1.27
 74
0
 49
-0.635
 74
0
  0
LTYPE
  5
37
330
2
100
AcDbSymbolTableRecord
100
AcDbLinetypeTableRecord
  2
PHANTOM2
 70
0
  3
Phantom (.5x) ___ _ _ ___ _ _ ___ _ _ ___ _ _ ___
 72
65
 73
6
 40
3.175
 49
1.587
 74
0
 49
-0.318
 74
0
 49
0.318
 74
0
 49
-0.318
 74
0
 49
0.318
 74
0
 49
-0.318
 74
0
  0
LTYPE
  5
38
330
2
100
AcDbSymbolTableRecord
100
AcDbLinetypeTableRecord
  2
DASHDOT
 70
0
  3
Dash dot __ . __ . __ . __ . __ . __ . __ . __
 72
65
 73
4
 40
3.556
 49
2.54
 74
0
 49
-0.508
 74
0
 49
0.0
 74
0
 49
-0.508
 74
0
  0
LTYPE
  5
39
330
2
100
AcDbSymbolTableRecord
100
AcDbLinetypeTableRecord
  2
DASHDOTX2
 70
0
  3
Dash dot (2x) ____  .  ____  .  ____  .  ____
 72
65
 73
4
 40
6.096
 49
5.08
 74
0
 49
-0.508
 74
0
 49
0.0
 74
0
 49
-0.508
 74
0
  0
LTYPE
  5
3A
330
2
100
AcDbSymbolTableRecord
100
AcDbLinetypeTableRecord
  2
DASHDOT2
 70
0
  3
Dash dot (.5x) _ . _ . _ . _ . _ . _ . _ . _
 72
65
 73
4
 40
1.778
 49
1.27
 74
0
 49
-0.254
 74
0
 49
0.0
 74
0
 49
-0.254
 74
0
  0
LTYPE
  5
3B
330
2
100
AcDbSymbolTableRecord
100
AcDbLinetypeTableRecord
  2
DOT
 70
0
  3
Dot .  .  .  .  .  .  .  .  .  .  .  .  .  .  .  .
 72
65
 73
2
 40
0.508
 49
0.0
 74
0
 49
-0.508
 74
0
  0
LTYPE
  5
3C
330
2
100
AcDbSymbolTableRecord
100
AcDbLinetypeTableRecord
  2
DOTX2
 70
0
  3
Dot (2x) .    .    .    .    .    .    .    . 
 72
65
 73
2
 40
1.016
 49
0.0
 74
0
 49
-1.016
 74
0
  0
LTYPE
  5
3D
330
2
100
AcDbSymbolTableRecord
100
AcDbLinetypeTableRecord
  2
DOT2
 70
0
  3
Dot (.5) . . . . . . . . . . . . . . . . . . . 
 72
65
 73
2
 40
0.254
 49
0.0
 74
0
 49
-0.254
 74
0
  0
LTYPE
  5
3E
330
2
100
AcDbSymbolTableRecord
100
AcDbLinetypeTableRecord
  2
DIVIDE
 70
0
  3
Divide __ . . __ . . __ . . __ . . __ . . __
 72
65
 73
6
 40
4.064
 49
2.54
 74
0
 49
-0.508
 74
0
 49
0.0
 74
0
 49
-0.508
 74
0
 49
0.0
 74
0
 49
-0.508
 74
0
  0
LTYPE
  5
3F
330
2
100
AcDbSymbolTableRecord
100
AcDbLinetypeTableRecord
  2
DIVIDEX2
 70
0
  3
Divide (2x) ____  . .  ____  . .  ____  . .  ____
 72
65
 73
6
 40
6.604
 49
5.08
 74
0
 49
-0.508
 74
0
 49
0.0
 74
0
 49
-0.508
 74
0
 49
0.0
 74
0
 49
-0.508
 74
0
  0
LTYPE
  5
40
330
2
100
AcDbSymbolTableRecord
100
AcDbLinetypeTableRecord
  2
DIVIDE2
 70
0
  3
Divide(.5x) _ . _ . _ . _ . _ . _ . _ . _
 72
65
 73
6
 40
2.032
 49
1.27
 74
0
 49
-0.254
 74
0
 49
0.0
 74
0
 49
-0.254
 74
0
 49
0.0
 74
0
 49
-0.254
 74
0
  0
ENDTAB
  0
TABLE
  2
LAYER
  5
1
330
0
100
AcDbSymbolTable
 70
3
  0
LAYER
  5
27
330
1
100
AcDbSymbolTableRecord
100
AcDbLayerTableRecord
  2
0
 70
0
 62
7
  6
Continuous
370
-3
390
13
  0
LAYER
  5
28
330
1
100
AcDbSymbolTableRecord
100
AcDbLayerTableRecord
  2
Defpoints
 70
0
 62
7
  6
Continuous
290
0
370
-3
390
13
  0
LAYER
  5
8A
330
1
100
AcDbSymbolTableRecord
100
AcDbLayerTableRecord
  2
LOGO
 70
0
 62
7
  6
Continuous
370
-3
390
13
  0
ENDTAB
  0
TABLE
  2
STYLE
  5
5
330
0
100
AcDbSymbolTable
 70
26
  0
STYLE
  5
29
330
5
100
AcDbSymbolTableRecord
100
AcDbTextStyleTableRecord
  2
Standard
 70
0
 40
0.0
 41
1.0
 50
0.0
 71
0
 42
2.5
  3
txt
  4

  0
STYLE
  5
41
330
5
100
AcDbSymbolTableRecord
100
AcDbTextStyleTableRecord
  2
OpenSans-Light
 70
0
 40
0.0
 41
1.0
 50
0.0
 71
0
 42
2.5
  3
OpenSans-Light.ttf
  4

  0
STYLE
  5
42
330
5
100
AcDbSymbolTableRecord
100
AcDbTextStyleTableRecord
  2
OpenSans-Light-Italic
 70
0
 40
0.0
 41
1.0
 50
0.0
 71
0
 42
2.5
  3
OpenSans-LightItalic.ttf
  4

  0
STYLE
  5
43
330
5
100
AcDbSymbolTableRecord
100
AcDbTextStyleTableRecord
  2
OpenSans
 70
0
 40
0.0
 41
1.0
 50
0.0
 71
0
 42
2.5
  3
OpenSans-Regular.ttf
  4

  0
STYLE
  5
44
330
5
100
AcDbSymbolTableRecord
100
AcDbTextStyleTableRecord
  2
OpenSans-Italic
 70
0
 40
0.0
 41
1.0
 50
0.0
 71
0
 42
2.5
  3
OpenSans-Italic.ttf
  4

  0
STYLE
  5
45
330
5
100
AcDbSymbolTableRecord
100
AcDbTextStyleTableRecord
  2
OpenSans-SemiBold
 70
0
 40
0.0
 41
1.0
 50
0.0
 71
0
 42
2.5
  3
OpenSans-SemiBold.ttf
  4

  0
STYLE
  5
46
330
5
100
AcDbSymbolTableRecord
100
AcDbTextStyleTableRecord
  2
OpenSans-SemiBoldItalic
 70
0
 40
0.0
 41
1.0
 50
0.0
 71
0
 42
2.5
  3
OpenSans-SemiBoldItalic.ttf
  4

  0
STYLE
  5
47
330
5
100
AcDbSymbolTableRecord
100
AcDbTextStyleTableRecord
  2
OpenSans-Bold
 70
0
 40
0.0
 41
1.0
 50
0.0
 71
0
 42
2.5
  3
OpenSans-Bold.ttf
  4

  0
STYLE
  5
48
330
5
100
AcDbSymbolTableRecord
100
AcDbTextStyleTableRecord
  2
OpenSans-BoldItalic
 70
0
 40
0.0
 41
1.0
 50
0.0
 71
0
 42
2.5
  3
OpenSans-BoldItalic.ttf
  4

  0
STYLE
  5
49
330
5
100
AcDbSymbolTableRecord
100
AcDbTextStyleTableRecord
  2
OpenSans-ExtraBold
 70
0
 40
0.0
 41
1.0
 50
0.0
 71
0
 42
2.5
  3
OpenSans-ExtraBold.ttf
  4

  0
STYLE
  5
4A
330
5
100
AcDbSymbolTableRecord
100
AcDbTextStyleTableRecord
  2
OpenSans-ExtraBoldItalic
 70
0
 40
0.0
 41
1.0
 50
0.0
 71
0
 42
2.5
  3
OpenSans-ExtraBoldItalic.ttf
  4

  0
STYLE
  5
4B
330
5
100
AcDbSymbolTableRecord
100
AcDbTextStyleTableRecord
  2
OpenSansCondensed-Bold
 70
0
 40
0.0
 41
1.0
 50
0.0
 71
0
 42
2.5
  3
OpenSansCondensed-Bold.ttf
  4

  0
STYLE
  5
4C
330
5
100
AcDbSymbolTableRecord
100
AcDbTextStyleTableRecord
  2
OpenSansCondensed-Light
 70
0
 40
0.0
 41
1.0
 50
0.0
 71
0
 42
2.5
  3
OpenSansCondensed-Light.ttf
  4

  0
STYLE
  5
4D
330
5
100
AcDbSymbolTableRecord
100
AcDbTextStyleTableRecord
  2
OpenSansCondensed-Italic
 70
0
 40
0.0
 41
1.0
 50
0.0
 71
0
 42
2.5
  3
OpenSansCondensed-LightItalic.ttf
  4

  0
STYLE
  5
4E
330
5
100
AcDbSymbolTableRecord
100
AcDbTextStyleTableRecord
  2
LiberationSans
 70
0
 40
0.0
 41
1.0
 50
0.0
 71
0
 42
2.5
  3
LiberationSans-Regular.ttf
  4

  0
STYLE
  5
4F
330
5
100
AcDbSymbolTableRecord
100
AcDbTextStyleTableRecord
  2
LiberationSans-Bold
 70
0
 40
0.0
 41
1.0
 50
0.0
 71
0
 42
2.5
  3
LiberationSans-Bold.ttf
  4

  0
STYLE
  5
50
330
5
100
AcDbSymbolTableRecord
100
AcDbTextStyleTableRecord
  2
LiberationSans-BoldItalic
 70
0
 40
0.0
 41
1.0
 50
0.0
 71
0
 42
2.5
  3
LiberationSans-BoldItalic.ttf
  4

  0
STYLE
  5
51
330
5
100
AcDbSymbolTableRecord
100
AcDbTextStyleTableRecord
  2
LiberationSans-Italic
 70
0
 40
0.0
 41
1.0
 50
0.0
 71
0
 42
2.5
  3
LiberationSans-Italic.ttf
  4

  0
STYLE
  5
52
330
5
100
AcDbSymbolTableRecord
100
AcDbTextStyleTableRecord
  2
LiberationSerif
 70
0
 40
0.0
 41
1.0
 50
0.0
 71
0
 42
2.5
  3
LiberationSerif-Regular.ttf
  4

  0
STYLE
  5
53
330
5
100
AcDbSymbolTableRecord
100
AcDbTextStyleTableRecord
  2
LiberationSerif-Bold
 70
0
 40
0.0
 41
1.0
 50
0.0
 71
0
 42
2.5
  3
LiberationSerif-Bold.ttf
  4

  0
STYLE
  5
54
330
5
100
AcDbSymbolTableRecord
100
AcDbTextStyleTableRecord
  2
LiberationSerif-BoldItalic
 70
0
 40
0.0
 41
1.0
 50
0.0
 71
0
 42
2.5
  3
LiberationSerif-BoldItalic.ttf
  4

  0
STYLE
  5
55
330
5
100
AcDbSymbolTableRecord
100
AcDbTextStyleTableRecord
  2
LiberationSerif-Italic
 70
0
 40
0.0
 41
1.0
 50
0.0
 71
0
 42
2.5
  3
LiberationSerif-Italic.ttf
  4

  0
STYLE
  5
56
330
5
100
AcDbSymbolTableRecord
100
AcDbTextStyleTableRecord
  2
LiberationMono
 70
0
 40
0.0
 41
1.0
 50
0.0
 71
0
 42
2.5
  3
LiberationMono-Regular.ttf
  4

  0
STYLE
  5
57
330
5
100
AcDbSymbolTableRecord
100
AcDbTextStyleTableRecord
  2
LiberationMono-Bold
 70
0
 40
0.0
 41
1.0
 50
0.0
 71
0
 42
2.5
  3
LiberationMono-Bold.ttf
  4

  0
STYLE
  5
58
330
5
100
AcDbSymbolTableRecord
100
AcDbTextStyleTableRecord
  2
LiberationMono-BoldItalic
 70
0
 40
0.0
 41
1.0
 50
0.0
 71
0
 42
2.5
  3
LiberationMono-BoldItalic.ttf
  4

  0
STYLE
  5
59
330
5
100
AcDbSymbolTableRecord
100
AcDbTextStyleTableRecord
  2
LiberationMono-Italic
 70
0
 40
0.0
 41
1.0
 50
0.0
 71
0
 42
2.5
  3
LiberationMono-Italic.ttf
  4

  0
ENDTAB
  0
TABLE
  2
VIEW
  5
7
330
0
100
AcDbSymbolTable
 70
0
  0
ENDTAB
  0
TABLE
  2
UCS
  5
6
330
0
100
AcDbSymbolTable
 70
0
  0
ENDTAB
  0
TABLE
  2
APPID
  5
3
330
0
100
AcDbSymbolTable
 70
3
  0
APPID
  5
2A
330
3
100
AcDbSymbolTableRecord
100
AcDbRegAppTableRecord
  2
ACAD
 70
0
  0
APPID
  5
95
330
3
100
AcDbSymbolTableRecord
100
AcDbRegAppTableRecord
  2
HATCHBACKGROUNDCOLOR
 70
0
  0
APPID
  5
96
330
3
100
AcDbSymbolTableRecord
100
AcDbRegAppTableRecord
  2
EZDXF
 70
0
  0
ENDTAB
  0
TABLE
  2
DIMSTYLE
  5
4
330
0
100
AcDbSymbolTable
 70
12
100
AcDbDimStyleTable
  0
DIMSTYLE
105
2B
330
4
100
AcDbSymbolTableRecord
100
AcDbDimStyleTableRecord
  2
Standard
 70
0
  3

  4

 40
1.0
 41
2.5
 42
0.625
 43
3.75
 44
1.25
 45
0.0
 46
0.0
 47
0.0
 48
0.0
140
2.5
141
2.5
142
0.0
143
0.03937007874
144
1.0
145
0.0
146
1.0
147
0.625
148
0.0
 71
0
 72
0
 73
0
 74
0
 75
0
 76
0
 77
1
 78
8
 79
3
170
0
171
3
172
1
173
0
174
0
175
0
176
0
177
0
178
0
179
2
271
2
272
2
273
2
274
3
275
0
276
0
277
2
278
44
279
0
280
0
281
0
282
0
283
0
284
8
285
0
286
0
288
0
289
3
371
-2
372
-2
  0
DIMSTYLE
105
73
330
4
100
AcDbSymbolTableRecord
100
AcDbDimStyleTableRecord
  2
EZDXF
 70
0
  3

  4

 40
1.0
 41
0.175
 42
0.125
 43
3.75
 44
0.375
 45
0.0
 46
0.0
 47
0.0
 48
0.0
140
0.25
141
2.5
142
0.0
143
0.03937007874
144
100.0
145
0.0
146
0.5
147
0.1
148
0.0
 71
0
 72
0
 73
0
 74
0
 75
0
 76
0
 77
1
 78
12
 79
3
170
0
171
3
172
1
173
0
174
0
175
0
176
0
177
0
178
0
179
2
271
2
272
2
273
2
274
3
275
0
276
0
277
2
278
46
279
2
280
0
281
0
282
0
283
0
284
8
285
0
286
0
288
1
289
3
340
4C
342
74
371
-2
372
-2
  0
DIMSTYLE
105
7C
330
4
100
AcDbSymbolTableRecord
100
AcDbDimStyleTableRecord
  2
EZ_M_100_H25_CM
 70
0
  3

  4

 40
1.0
 41
0.25
 42
0.125
 43
3.75
 44
0.375
 45
0.0
 46
0.0
 47
0.0
 48
0.0
140
0.25
141
2.5
142
0.125
143
0.03937007874
144
100.0
145
0.0
146
0.5
147
0.1
148
0.0
 71
0
 72
0
 73
0
 74
0
 75
0
 76
0
 77
1
 78
12
 79
3
170
0
171
3
172
1
173
0
174
0
175
0
176
0
177
0
178
0
179
2
271
2
272
2
273
2
274
3
275
0
276
0
277
2
278
46
279
2
280
0
281
0
282
0
283
0
284
8
285
0
286
0
288
1
289
3
340
4C
371
-2
372
-2
  0
DIMSTYLE
105
7D
330
4
100
AcDbSymbolTableRecord
100
AcDbDimStyleTableRecord
  2
EZ_M_50_H25_CM
 70
0
  3

  4

 40
1.0
 41
0.125
 42
0.0625
 43
3.75
 44
0.1875
 45
0.0
 46
0.0
 47
0.0
 48
0.0
140
0.125
141
2.5
142
0.0625
143
0.03937007874
144
100.0
145
0.0
146
0.5
147
0.05
148
0.0
 71
0
 72
0
 73
0
 74
0
 75
0
 76
0
 77
1
 78
12
 79
3
170
0
171
3
172
1
173
0
174
0
175
0
176
0
177
0
178
0
179
2
271
2
272
2
273
2
274
3
275
0
276
0
277
2
278
46
279
2
280
0
281
0
282
0
283
0
284
8
285
0
286
0
288
1
289
3
340
4C
371
-2
372
-2
  0
DIMSTYLE
105
7E
330
4
100
AcDbSymbolTableRecord
100
AcDbDimStyleTableRecord
  2
EZ_M_25_H25_CM
 70
0
  3

  4

 40
1.0
 41
0.0625
 42
0.03125
 43
3.75
 44
0.09375
 45
0.0
 46
0.0
 47
0.0
 48
0.0
140
0.0625
141
2.5
142
0.03125
143
0.03937007874
144
100.0
145
0.0
146
0.5
147
0.025
148
0.0
 71
0
 72
0
 73
0
 74
0
 75
0
 76
0
 77
1
 78
12
 79
3
170
0
171
3
172
1
173
0
174
0
175
0
176
0
177
0
178
0
179
2
271
2
272
2
273
2
274
3
275
0
276
0
277
2
278
46
279
2
280
0
281
0
282
0
283
0
284
8
285
0
286
0
288
1
289
3
340
4C
371
-2
372
-2
  0
DIMSTYLE
105
7F
330
4
100
AcDbSymbolTableRecord
100
AcDbDimStyleTableRecord
  2
EZ_M_20_H25_CM
 70
0
  3

  4

 40
1.0
 41
0.05
 42
0.025
 43
3.75
 44
0.07500000000000001
 45
0.0
 46
0.0
 47
0.0
 48
0.0
140
0.05
141
2.5
142
0.025
143
0.03937007874
144
100.0
145
0.0
146
0.5
147
0.020000000000000004
148
0.0
 71
0
 72
0
 73
0
 74
0
 75
0
 76
0
 77
1
 78
12
 79
3
170
0
171
3
172
1
173
0
174
0
175
0
176
0
177
0
178
0
179
2
271
2
272
2
273
2
274
3
275
0
276
0
277
2
278
46
279
2
280
0
281
0
282
0
283
0
284
8
285
0
286
0
288
1
289
3
340
4C
371
-2
372
-2
  0
DIMSTYLE
105
80
330
4
100
AcDbSymbolTableRecord
100
AcDbDimStyleTableRecord
  2
EZ_M_10_H25_CM
 70
0
  3

  4

 40
1.0
 41
0.025
 42
0.0125
 43
3.75
 44
0.037500000000000006
 45
0.0
 46
0.0
 47
0.0
 48
0.0
140
0.025
141
2.5
142
0.0125
143
0.03937007874
144
100.0
145
0.0
146
0.5
147
0.010000000000000002
148
0.0
 71
0
 72
0
 73
0
 74
0
 75
0
 76
0
 77
1
 78
12
 79
3
170
0
171
3
172
1
173
0
174
0
175
0
176
0
177
0
178
0
179
2
271
2
272
2
273
2
274
3
275
0
276
0
277
2
278
46
279
2
280
0
281
0
282
0
283
0
284
8
285
0
286
0
288
1
289
3
340
4C
371
-2
372
-2
  0
DIMSTYLE
105
81
330
4
100
AcDbSymbolTableRecord
100
AcDbDimStyleTableRecord
  2
EZ_M_5_H25_CM
 70
0
  3

  4

 40
1.0
 41
0.0125
 42
0.00625
 43
3.75
 44
0.018750000000000003
 45
0.0
 46
0.0
 47
0.0
 48
0.0
140
0.0125
141
2.5
142
0.00625
143
0.03937007874
144
100.0
145
0.0
146
0.5
147
0.005000000000000001
148
0.0
 71
0
 72
0
 73
0
 74
0
 75
0
 76
0
 77
1
 78
12
 79
3
170
0
171
3
172
1
173
0
174
0
175
0
176
0
177
0
178
0
179
2
271
2
272
2
273
2
274
3
275
0
276
0
277
2
278
46
279
2
280
0
281
0
282
0
283
0
284
8
285
0
286
0
288
1
289
3
340
4C
371
-2
372
-2
  0
DIMSTYLE
105
82
330
4
100
AcDbSymbolTableRecord
100
AcDbDimStyleTableRecord
  2
EZ_M_1_H25_CM
 70
0
  3

  4

 40
1.0
 41
0.0025
 42
0.00125
 43
3.75
 44
0.00375
 45
0.0
 46
0.0
 47
0.0
 48
0.0
140
0.0025
141
2.5
142
0.00125
143
0.03937007874
144
100.0
145
0.0
146
0.5
147
0.001
148
0.0
 71
0
 72
0
 73
0
 74
0
 75
0
 76
0
 77
1
 78
12
 79
3
170
0
171
3
172
1
173
0
174
0
175
0
176
0
177
0
178
0
179
2
271
2
272
2
273
2
274
3
275
0
276
0
277
2
278
46
279
2
280
0
281
0
282
0
283
0
284
8
285
0
286
0
288
1
289
3
340
4C
371
-2
372
-2
  0
DIMSTYLE
105
83
330
4
100
AcDbSymbolTableRecord
100
AcDbDimStyleTableRecord
  2
EZ_RADIUS
 70
0
  3

  4

 40
1.0
 41
0.25
 42
0.125
 43
3.75
 44
0.375
 45
0.0
 46
0.0
 47
0.0
 48
0.0
140
0.25
141
0.0
142
0.0
143
0.03937007874
144
100.0
145
0.0
146
0.5
147
0.1
148
0.0
 71
0
 72
0
 73
0
 74
0
 75
0
 76
0
 77
1
 78
12
 79
3
170
0
171
3
172
0
173
0
174
0
175
0
176
0
177
0
178
0
179
2
271
2
272
2
273
2
274
3
275
0
276
0
277
2
278
46
279
1
280
0
281
0
282
0
283
0
284
8
285
0
286
0
288
1
289
3
340
4C
342
84
371
-2
372
-2
  0
DIMSTYLE
105
88
330
4
100
AcDbSymbolTableRecord
100
AcDbDimStyleTableRecord
  2
EZ_RADIUS_INSIDE
 70
0
  3

  4

 40
1.0
 41
0.25
 42
0.125
 43
3.75
 44
0.375
 45
0.0
 46
0.0
 47
0.0
 48
0.0
140
0.25
141
0.0
142
0.0
143
0.03937007874
144
100.0
145
0.0
146
0.5
147
0.1
148
0.0
 71
0
 72
0
 73
0
 74
0
 75
0
 76
0
 77
0
 78
12
 79
3
170
0
171
3
172
0
173
0
174
1
175
0
176
0
177
0
178
0
179
2
271
2
272
2
273
2
274
3
275
0
276
0
277
2
278
46
279
0
280
0
281
0
282
0
283
0
284
8
285
0
286
0
288
1
289
0
340
4C
342
84
371
-2
372
-2
  0
DIMSTYLE
105
89
330
4
100
AcDbSymbolTableRecord
100
AcDbDimStyleTableRecord
  2
EZ_CURVED
 70
0
  3

  4

 40
1.0
 41
0.25
 42
0.125
 43
3.75
 44
0.375
 45
0.0
 46
0.0
 47
0.0
 48
0.0
140
0.25
141
2.5
142
0.0
143
0.03937007874
144
100.0
145
0.0
146
0.5
147
0.1
148
0.0
 71
0
 72
0
 73
0
 74
0
 75
0
 76
0
 77
1
 78
12
 79
2
 90
2
170
0
171
3
172
1
173
0
174
0
175
0
176
0
177
0
178
0
179
2
271
2
272
2
273
2
274
3
275
0
276
0
277
2
278
46
279
2
280
0
281
0
282
0
283
0
284
8
285
0
286
0
288
1
289
3
340
4C
371
-2
372
-2
  0
ENDTAB
  0
TABLE
  2
BLOCK_RECORD
  5
9
330
0
100
AcDbSymbolTable
 70
5
  0
BLOCK_RECORD
  5
17
330
9
100
AcDbSymbolTableRecord
100
AcDbBlockTableRecord
  2
*Model_Space
340
1A
  0
BLOCK_RECORD
  5
1B
330
9
100
AcDbSymbolTableRecord
100
AcDbBlockTableRecord
  2
*Paper_Space
340
1E
  0
BLOCK_RECORD
  5
74
330
9
100
AcDbSymbolTableRecord
100
AcDbBlockTableRecord
  2
_ARCHTICK
340
0
  0
BLOCK_RECORD
  5
78
330
9
100
AcDbSymbolTableRecord
100
AcDbBlockTableRecord
  2
_CLOSEDFILLED
340
0
  0
BLOCK_RECORD
  5
84
330
9
100
AcDbSymbolTableRecord
100
AcDbBlockTableRecord
  2
_CLOSEDBLANK
340
0
  0
ENDTAB
  0
ENDSEC
  0
SECTION
  2
BLOCKS
  0
BLOCK
  5
18
330
17
100
AcDbEntity
  8
0
100
AcDbBlockBegin
  2
*Model_Space
 70
0
 10
0.0
 20
0.0
 30
0.0
  3
*Model_Space
  1

  0
ENDBLK
  5
19
330
17
100
AcDbEntity
  8
0
100
AcDbBlockEnd
  0
BLOCK
  5
1C
330
1B
100
AcDbEntity
  8
0
100
AcDbBlockBegin
  2
*Paper_Space
 70
0
 10
0.0
 20
0.0
 30
0.0
  3
*Paper_Space
  1

  0
ENDBLK
  5
1D
330
1B
100
AcDbEntity
  8
0
100
AcDbBlockEnd
  0
BLOCK
  5
75
330
74
100
AcDbEntity
  8
0
100
AcDbBlockBegin
  2
_ARCHTICK
 70
0
 10
0.0
 20
0.0
 30
0.0
  3
_ARCHTICK
  1

  0
LWPOLYLINE
  5
77
330
74
100
AcDbEntity
  8
0
  6
BYBLOCK
 62
0
100
AcDbPolyline
 90
2
 70
0
 43
0.15
 10
-0.5
 20
-0.5
 10
0.5
 20
0.5
  0
ENDBLK
  5
76
330
74
100
AcDbEntity
  8
0
100
AcDbBlockEnd
  0
BLOCK
  5
79
330
78
100
AcDbEntity
  8
0
100
AcDbBlockBegin
  2
_CLOSEDFILLED
 70
0
 10
0.0
 20
0.0
 30
0.0
  3
_CLOSEDFILLED
  1

  0
SOLID
  5
7B
330
78
100
AcDbEntity
  8
0
  6
BYBLOCK
 62
0
100
AcDbTrace
 10
-1.0
 20
0.16439898372402537
 30
0.0
 11
0.0
 21
0.0
 31
0.0
 12
-1.0
 22
-0.16439898372402537
 32
0.0
 13
-1.0
 23
-0.16439898372402537
 33
0.0
  0
ENDBLK
  5
7A
330
78
100
AcDbEntity
  8
0
100
AcDbBlockEnd
  0
BLOCK
  5
85
330
84
100
AcDbEntity
  8
0
100
AcDbBlockBegin
  2
_CLOSEDBLANK
 70
0
 10
0.0
 20
0.0
 30
0.0
  3
_CLOSEDBLANK
  1

  0
LWPOLYLINE
  5
87
330
84
100
AcDbEntity
  8
0
  6
BYBLOCK
 62
0
100
AcDbPolyline
 90
3
 70
1
 10
-1.0
 20
0.16439898372402537
 10
0.0
 20
0.0
 10
-1.0
 20
-0.16439898372402537
  0
ENDBLK
  5
86
330
84
100
AcDbEntity
  8
0
100
AcDbBlockEnd
  0
ENDSEC
  0
SECTION
  2
ENTITIES
  0
SPLINE
  5
8B
330
17
100
AcDbEntity
  8
LOGO
100
AcDbSpline
 70
0
 71
3
 72
32
 73
28
 74
0
 40
0.0
 40
0.0
 40
0.0
 40
0.0
 40
1.0
 40
1.0
 40
1.0
 40
2.0
 40
2.0
 40
2.0
 40
3.0
 40
3.0
 40
3.0
 40
4.0
 40
4.0
 40
4.0
 40
5.0
 40
5.0
 40
5.0
 40
6.0
 40
6.0
 40
6.0
 40
7.0
 40
7.0
 40
7.0
 40
8.0
 40
8.0
 40
8.0
 40
9.0
 40
9.0
 40
9.0
 40
9.0
 10
37.28459282980856
 20
65.9449873364663
 30
0.0
 10
37.28459282980856
 20
70.64445704065506
 30
0.0
 10
40.06894791046043
 20
74.89144354369728
 30
0.0
 10
44.379439490856605
 20
76.76487888563746
 30
0.0
 10
44.2735957197112
 20
77.00765828441054
 30
0.0
 10
44.16775194856581
 20
77.25043768318362
 30
0.0
 10
44.061908177420406
 20
77.49321708195671
 30
0.0
 10
39.463652812347725
 20
75.49276819864208
 30
0.0
 10
36.490764038218096
 20
70.96000630750717
 30
0.0
 10
36.490764038218096
 20
65.9449873364663
 30
0.0
 10
36.490764038218096
 20
59.056539796818285
 30
0.0
 10
42.013829131423705
 20
53.529502567111514
 30
0.0
 10
49.06699913554161
 20
53.35883066088951
 30
0.0
 10
50.11882409838224
 20
53.33303357529773
 30
0.0
 10
53.29810894591202
 20
53.1544199360733
 30
0.0
 10
53.32986148458901
 20
53.15243534948932
 30
0.0
 10
53.34507664839949
 20
53.41638310738038
 30
0.0
 10
53.36029181220996
 20
53.68033086527146
 30
0.0
 10
53.37550697602044
 20
53.94427862316252
 30
0.0
 10
53.24452595481132
 20
53.952216122831786
 30
0.0
 10
50.15057748372585
 20
54.12487684897093
 30
0.0
 10
49.08684669471463
 20
54.15067393456271
 30
0.0
 10
42.46829615715424
 20
54.30943916794749
 30
0.0
 10
37.28459282980856
 20
59.489174592125174
 30
0.0
 10
37.28459282980856
 20
65.94300528988221
 30
0.0
 10
37.28459282980856
 20
65.94366597207691
 30
0.0
 10
37.28459282980856
 20
65.9443266542716
 30
0.0
 10
37.28459282980856
 20
65.9449873364663
 30
0.0
  0
SPLINE
  5
8C
330
17
100
AcDbEntity
  8
LOGO
100
AcDbSpline
 70
0
 71
3
 72
32
 73
28
 74
0
 40
0.0
 40
0.0
 40
0.0
 40
0.0
 40
1.0
 40
1.0
 40
1.0
 40
2.0
 40
2.0
 40
2.0
 40
3.0
 40
3.0
 40
3.0
 40
4.0
 40
4.0
 40
4.0
 40
5.0
 40
5.0
 40
5.0
 40
6.0
 40
6.0
 40
6.0
 40
7.0
 40
7.0
 40
7.0
 40
8.0
 40
8.0
 40
8.0
 40
9.0
 40
9.0
 40
9.0
 40
9.0
 10
95.00787138800519
 20
66.34587213309611
 30
0.0
 10
95.00787138800519
 20
61.646404968907234
 30
0.0
 10
92.22351419068673
 20
57.399421005864916
 30
0.0
 10
87.91302853695697
 20
55.52598566392472
 30
0.0
 10
88.01821049701884
 20
55.28320457181837
 30
0.0
 10
88.12339245708071
 20
55.04042347971203
 30
0.0
 10
88.22857441714257
 20
54.797642387605684
 30
0.0
 10
92.82881055879939
 20
56.79809381092021
 30
0.0
 10
95.80169840159571
 20
61.330858242055015
 30
0.0
 10
95.80169840159571
 20
66.34587213309611
 30
0.0
 10
95.80169840159571
 20
73.2343247527439
 30
0.0
 10
90.27863542505669
 20
78.76135944245078
 30
0.0
 10
83.2254697389386
 20
78.93203388867266
 30
0.0
 10
82.17364223609809
 20
78.95783012759783
 30
0.0
 10
78.99435315523513
 20
79.136442073489
 30
0.0
 10
78.96260315655805
 20
79.13842666007297
 30
0.0
 10
78.9480495216089
 20
78.8744789021819
 30
0.0
 10
78.93349588665974
 20
78.61053114429083
 30
0.0
 10
78.91894225171059
 20
78.34658338639977
 30
0.0
 10
79.04992073291983
 20
78.33864334673062
 30
0.0
 10
82.14188715742121
 20
78.16598770059126
 30
0.0
 10
83.20759999301652
 20
78.14018807499959
 30
0.0
 10
89.82615137724353
 20
77.98142284161479
 30
0.0
 10
95.00787138800519
 20
72.80168741743711
 30
0.0
 10
95.00787138800519
 20
66.34785671968007
 30
0.0
 10
95.00787138800519
 20
66.34719519081874
 30
0.0
 10
95.00787138800519
 20
66.34653366195742
 30
0.0
 10
95.00787138800519
 20
66.34587213309611
 30
0.0
  0
SPLINE
  5
8D
330
17
100
AcDbEntity
  8
LOGO
100
AcDbSpline
 70
0
 71
3
 72
32
 73
28
 74
0
 40
0.0
 40
0.0
 40
0.0
 40
0.0
 40
1.0
 40
1.0
 40
1.0
 40
2.0
 40
2.0
 40
2.0
 40
3.0
 40
3.0
 40
3.0
 40
4.0
 40
4.0
 40
4.0
 40
5.0
 40
5.0
 40
5.0
 40
6.0
 40
6.0
 40
6.0
 40
7.0
 40
7.0
 40
7.0
 40
8.0
 40
8.0
 40
8.0
 40
9.0
 40
9.0
 40
9.0
 40
9.0
 10
54.15345983693907
 20
83.20481663064005
 30
0.0
 10
54.31222507032385
 20
89.82336716820043
 30
0.0
 10
59.49196049450154
 20
95.00707049554612
 30
0.0
 10
65.94579119225857
 20
95.00707049554612
 30
0.0
 10
70.64525835644744
 20
95.00707049554612
 30
0.0
 10
74.89224231948977
 20
92.22271541489424
 30
0.0
 10
76.76567766142995
 20
87.91222383449806
 30
0.0
 10
77.0084587535363
 20
88.01806760564347
 30
0.0
 10
77.25123984564264
 20
88.12391137678885
 30
0.0
 10
77.49402093774899
 20
88.22975514793426
 30
0.0
 10
75.49356951443447
 20
92.82801051300696
 30
0.0
 10
70.96080508329966
 20
95.80089928713657
 30
0.0
 10
65.94579119225857
 20
95.80089928713657
 30
0.0
 10
59.05932315919476
 20
95.80089928713657
 30
0.0
 10
53.5303038829039
 20
90.27783419393097
 30
0.0
 10
53.359629436682006
 20
83.22466418981307
 30
0.0
 10
53.333833197756846
 20
82.17283922697243
 30
0.0
 10
53.15522125186568
 20
78.99355437944266
 30
0.0
 10
53.1532366652817
 20
78.96180184076567
 30
0.0
 10
53.41718442317277
 20
78.9472479235943
 30
0.0
 10
53.68113218106384
 20
78.93269400642293
 30
0.0
 10
53.945079938954905
 20
78.91814008925158
 30
0.0
 10
53.953019978624056
 20
79.04912195712734
 30
0.0
 10
54.12567562476341
 20
82.14307127487943
 30
0.0
 10
54.15147525035509
 20
83.20680206389065
 30
0.0
 10
54.15213677921642
 20
83.20614025280712
 30
0.0
 10
54.15279830807774
 20
83.20547844172359
 30
0.0
 10
54.15345983693907
 20
83.20481663064005
 30
0.0
  0
SPLINE
  5
8E
330
17
100
AcDbEntity
  8
LOGO
100
AcDbSpline
 70
0
 71
3
 72
335
 73
331
 74
0
 40
0.0
 40
0.0
 40
0.0
 40
0.0
 40
1.0
 40
1.0
 40
1.0
 40
2.0
 40
2.0
 40
2.0
 40
3.0
 40
3.0
 40
3.0
 40
4.0
 40
4.0
 40
4.0
 40
5.0
 40
5.0
 40
5.0
 40
6.0
 40
6.0
 40
6.0
 40
7.0
 40
7.0
 40
7.0
 40
8.0
 40
8.0
 40
8.0
 40
9.0
 40
9.0
 40
9.0
 40
10.0
 40
10.0
 40
10.0
 40
11.0
 40
11.0
 40
11.0
 40
12.0
 40
12.0
 40
12.0
 40
13.0
 40
13.0
 40
13.0
 40
14.0
 40
14.0
 40
14.0
 40
15.0
 40
15.0
 40
15.0
 40
16.0
 40
16.0
 40
16.0
 40
17.0
 40
17.0
 40
17.0
 40
18.0
 40
18.0
 40
18.0
 40
19.0
 40
19.0
 40
19.0
 40
20.0
 40
20.0
 40
20.0
 40
21.0
 40
21.0
 40
21.0
 40
22.0
 40
22.0
 40
22.0
 40
23.0
 40
23.0
 40
23.0
 40
24.0
 40
24.0
 40
24.0
 40
25.0
 40
25.0
 40
25.0
 40
26.0
 40
26.0
 40
26.0
 40
27.0
 40
27.0
 40
27.0
 40
28.0
 40
28.0
 40
28.0
 40
29.0
 40
29.0
 40
29.0
 40
30.0
 40
30.0
 40
30.0
 40
31.0
 40
31.0
 40
31.0
 40
32.0
 40
32.0
 40
32.0
 40
33.0
 40
33.0
 40
33.0
 40
34.0
 40
34.0
 40
34.0
 40
35.0
 40
35.0
 40
35.0
 40
36.0
 40
36.0
 40
36.0
 40
37.0
 40
37.0
 40
37.0
 40
38.0
 40
38.0
 40
38.0
 40
39.0
 40
39.0
 40
39.0
 40
40.0
 40
40.0
 40
40.0
 40
41.0
 40
41.0
 40
41.0
 40
42.0
 40
42.0
 40
42.0
 40
43.0
 40
43.0
 40
43.0
 40
44.0
 40
44.0
 40
44.0
 40
45.0
 40
45.0
 40
45.0
 40
46.0
 40
46.0
 40
46.0
 40
47.0
 40
47.0
 40
47.0
 40
48.0
 40
48.0
 40
48.0
 40
49.0
 40
49.0
 40
49.0
 40
50.0
 40
50.0
 40
50.0
 40
51.0
 40
51.0
 40
51.0
 40
52.0
 40
52.0
 40
52.0
 40
53.0
 40
53.0
 40
53.0
 40
54.0
 40
54.0
 40
54.0
 40
55.0
 40
55.0
 40
55.0
 40
56.0
 40
56.0
 40
56.0
 40
57.0
 40
57.0
 40
57.0
 40
58.0
 40
58.0
 40
58.0
 40
59.0
 40
59.0
 40
59.0
 40
60.0
 40
60.0
 40
60.0
 40
61.0
 40
61.0
 40
61.0
 40
62.0
 40
62.0
 40
62.0
 40
63.0
 40
63.0
 40
63.0
 40
64.0
 40
64.0
 40
64.0
 40
65.0
 40
65.0
 40
65.0
 40
66.0
 40
66.0
 40
66.0
 40
67.0
 40
67.0
 40
67.0
 40
68.0
 40
68.0
 40
68.0
 40
69.0
 40
69.0
 40
69.0
 40
70.0
 40
70.0
 40
70.0
 40
71.0
 40
71.0
 40
71.0
 40
72.0
 40
72.0
 40
72.0
 40
73.0
 40
73.0
 40
73.0
 40
74.0
 40
74.0
 40
74.0
 40
75.0
 40
75.0
 40
75.0
 40
76.0
 40
76.0
 40
76.0
 40
77.0
 40
77.0
 40
77.0
 40
78.0
 40
78.0
 40
78.0
 40
79.0
 40
79.0
 40
79.0
 40
80.0
 40
80.0
 40
80.0
 40
81.0
 40
81.0
 40
81.0
 40
82.0
 40
82.0
 40
82.0
 40
83.0
 40
83.0
 40
83.0
 40
84.0
 40
84.0
 40
84.0
 40
85.0
 40
85.0
 40
85.0
 40
86.0
 40
86.0
 40
86.0
 40
87.0
 40
87.0
 40
87.0
 40
88.0
 40
88.0
 40
88.0
 40
89.0
 40
89.0
 40
89.0
 40
90.0
 40
90.0
 40
90.0
 40
91.0
 40
91.0
 40
91.0
 40
92.0
 40
92.0
 40
92.0
 40
93.0
 40
93.0
 40
93.0
 40
94.0
 40
94.0
 40
94.0
 40
95.0
 40
95.0
 40
95.0
 40
96.0
 40
96.0
 40
96.0
 40
97.0
 40
97.0
 40
97.0
 40
98.0
 40
98.0
 40
98.0
 40
99.0
 40
99.0
 40
99.0
 40
100.0
 40
100.0
 40
100.0
 40
101.0
 40
101.0
 40
101.0
 40
102.0
 40
102.0
 40
102.0
 40
103.0
 40
103.0
 40
103.0
 40
104.0
 40
104.0
 40
104.0
 40
105.0
 40
105.0
 40
105.0
 40
106.0
 40
106.0
 40
106.0
 40
107.0
 40
107.0
 40
107.0
 40
108.0
 40
108.0
 40
108.0
 40
109.0
 40
109.0
 40
109.0
 40
110.0
 40
110.0
 40
110.0
 40
110.0
 10
49.92830463298721
 20
40.383695861520145
 30
0.0
 10
45.923436959412264
 20
39.10298501710533
 30
0.0
 10
41.91856928583731
 20
37.822274172690506
 30
0.0
 10
37.91370161226236
 20
36.54156332827569
 30
0.0
 10
37.657692059596094
 20
36.46019358499942
 30
0.0
 10
37.479080875704895
 20
36.59713090596037
 30
0.0
 10
37.41557444368433
 20
36.65864716339719
 30
0.0
 10
37.35206801166376
 20
36.72017273416696
 30
0.0
 10
37.20917947095078
 20
36.89481296689028
 30
0.0
 10
37.28459282980856
 20
37.15479719605761
 30
0.0
 10
38.384707565081555
 20
40.924823647862056
 30
0.0
 10
39.48482230035455
 20
44.694850099666496
 30
0.0
 10
40.58493703562755
 20
48.46487655147095
 30
0.0
 10
41.37479707738338
 20
48.07986675417969
 30
0.0
 10
42.19045530539762
 20
47.74645536140517
 30
0.0
 10
43.02596075391822
 20
47.46663288639776
 30
0.0
 10
42.58075507580179
 20
45.484045846783346
 30
0.0
 10
42.13554939768536
 20
43.50145880716891
 30
0.0
 10
41.69034371956893
 20
41.51887176755449
 30
0.0
 10
41.66057551347594
 20
41.38788735967884
 30
0.0
 10
41.7002669064888
 20
41.25095003871791
 30
0.0
 10
41.793541544602355
 20
41.15569496268685
 30
0.0
 10
41.88681618271591
 20
41.06043480665604
 30
0.0
 10
42.023752318343575
 20
41.01875764172592
 30
0.0
 10
42.154733932219344
 20
41.04257522073352
 30
0.0
 10
45.4431707878678
 20
41.69417550469461
 30
0.0
 10
48.731607643516256
 20
42.345775788655715
 30
0.0
 10
52.02004449916472
 20
42.99737607261682
 30
0.0
 10
54.474959476876585
 20
37.22623977308083
 30
0.0
 10
60.06153261076936
 20
33.51508656771223
 30
0.0
 10
66.34468886230451
 20
33.51508656771223
 30
0.0
 10
70.4726001703082
 20
33.51508656771223
 30
0.0
 10
74.35244069531483
 20
35.136481106820774
 30
0.0
 10
77.26976096042648
 20
38.079609464190426
 30
0.0
 10
80.15929532002922
 20
40.99692464930229
 30
0.0
 10
81.80649117806271
 20
44.898598166732555
 30
0.0
 10
81.90770509384546
 20
49.06818325299983
 30
0.0
 10
81.93350725943705
 20
50.120010755840354
 30
0.0
 10
82.11211666532832
 20
53.29929475670352
 30
0.0
 10
82.11410548524546
 20
53.331044755380596
 30
0.0
 10
81.85015631624333
 20
53.34559839032975
 30
0.0
 10
81.58620714724121
 20
53.3601520252789
 30
0.0
 10
81.3222579782391
 20
53.37470566022806
 30
0.0
 10
81.31432047856983
 20
53.24372125235241
 30
0.0
 10
81.14166398576384
 20
50.15176075451743
 30
0.0
 10
81.11586182017228
 20
49.08604791892214
 30
0.0
 10
80.91541942185738
 20
40.798471070904526
 30
0.0
 10
74.42785159883938
 20
34.30891950796918
 30
0.0
 10
66.34667598888838
 20
34.30891950796918
 30
0.0
 10
60.27785085508943
 20
34.30891950796918
 30
0.0
 10
54.895688446012876
 20
37.95457796940008
 30
0.0
 10
52.6312920870294
 20
43.59671360097775
 30
0.0
 10
52.559846123339646
 20
43.77334434695147
 30
0.0
 10
52.373297524445846
 20
43.87455741606759
 30
0.0
 10
52.18476349230143
 20
43.83883316422276
 30
0.0
 10
48.98960161343318
 20
43.205753995045505
 30
0.0
 10
45.794439734564925
 20
42.572674825868255
 30
0.0
 10
42.59927785569667
 20
41.93959565669099
 30
0.0
 10
42.9955308778528
 20
43.70255765434535
 30
0.0
 10
43.39178390000892
 20
45.465519651999706
 30
0.0
 10
43.78803692216505
 20
47.22848164965406
 30
0.0
 10
45.47889283837938
 20
46.736310103494546
 30
0.0
 10
47.24714678470213
 20
46.460455954988475
 30
0.0
 10
49.05707704928837
 20
46.416789970141224
 30
0.0
 10
50.10096197245982
 20
46.39099796454922
 30
0.0
 10
53.27429390690432
 20
46.214368065242134
 30
0.0
 10
53.3060489855812
 20
46.21238855865795
 30
0.0
 10
53.33581721989641
 20
46.740943909968145
 30
0.0
 10
53.36558545421162
 20
47.269499261278334
 30
0.0
 10
53.39535368852683
 20
47.79805461258853
 30
0.0
 10
53.26437182065107
 20
47.805997192257585
 30
0.0
 10
50.16446789648041
 20
47.97865791839672
 30
0.0
 10
49.09478588771716
 20
48.00444992398872
 30
0.0
 10
39.02307772337169
 20
48.24458490064977
 30
0.0
 10
31.132417345482555
 20
56.125323192285656
 30
0.0
 10
31.132417345482555
 20
65.9449873364663
 30
0.0
 10
31.132417345482555
 20
72.28172911910204
 30
0.0
 10
34.541913390086876
 20
78.217586105108
 30
0.0
 10
40.02925651744757
 20
81.4365626843173
 30
0.0
 10
40.348773179467706
 20
81.6250992564616
 30
0.0
 10
40.49761556459927
 20
82.01010397375308
 30
0.0
 10
40.38449582264593
 20
82.36335869236746
 30
0.0
 10
39.10312296959203
 20
86.36822636594242
 30
0.0
 10
37.82175011653812
 20
90.37309403951737
 30
0.0
 10
36.54037726348422
 20
94.37796171309232
 30
0.0
 10
36.459010822207816
 20
94.63397126575859
 30
0.0
 10
36.59594619583551
 20
94.81258244964978
 30
0.0
 10
36.65746761793878
 20
94.87608888167036
 30
0.0
 10
36.71898971737536
 20
94.93959531369092
 30
0.0
 10
36.89363155876528
 20
95.08248385440388
 30
0.0
 10
37.15162612134884
 20
95.00707049554612
 30
0.0
 10
40.921652516708846
 20
93.9069557602731
 30
0.0
 10
44.69167891206885
 20
92.80684102500013
 30
0.0
 10
48.46170530742886
 20
91.70672628972713
 30
0.0
 10
48.07669889680412
 20
90.9168662479713
 30
0.0
 10
47.74329089069613
 20
90.10120801995706
 30
0.0
 10
47.4634650290222
 20
89.26570257143645
 30
0.0
 10
45.48153836115804
 20
89.71024635380269
 30
0.0
 10
43.49961169329388
 20
90.1547901361689
 30
0.0
 10
41.517685025429714
 20
90.59933391853514
 30
0.0
 10
41.38670459688723
 20
90.6291047492947
 30
0.0
 10
41.24976854592623
 20
90.58941208628188
 30
0.0
 10
41.15252515797804
 20
90.49613744816833
 30
0.0
 10
41.05528041536324
 20
90.4028627253881
 30
0.0
 10
41.013604689766396
 20
90.26592667442712
 30
0.0
 10
41.039404146024744
 20
90.1349449758847
 30
0.0
 10
41.691005502430244
 20
86.84650806379179
 30
0.0
 10
42.342606858835744
 20
83.55807115169888
 30
0.0
 10
42.994208215241244
 20
80.26963423960598
 30
0.0
 10
37.22505506295597
 20
77.81670384847808
 30
0.0
 10
33.51390448225391
 20
72.23013071458531
 30
0.0
 10
33.51390448225391
 20
65.9449873364663
 30
0.0
 10
33.51390448225391
 20
61.817076875129246
 30
0.0
 10
35.13530096869573
 20
57.9372388901225
 30
0.0
 10
38.07842221406567
 20
55.019917778344215
 30
0.0
 10
40.99574273317731
 20
52.1303783387417
 30
0.0
 10
44.897412355941064
 20
50.4831824807082
 30
0.0
 10
49.065014548957635
 20
50.381968564925444
 30
0.0
 10
50.11683951179826
 20
50.356166399333866
 30
0.0
 10
53.296124359328054
 20
50.17755784010922
 30
0.0
 10
53.32787689800503
 20
50.17557325352524
 30
0.0
 10
53.34243081517639
 20
50.4395210114163
 30
0.0
 10
53.35698473234776
 20
50.70346876930738
 30
0.0
 10
53.37153864951912
 20
50.96741652719844
 30
0.0
 10
53.24055678164336
 20
50.97535402686771
 30
0.0
 10
50.148592050475244
 20
51.14801475300685
 30
0.0
 10
49.08486126146402
 20
51.173816918598426
 30
0.0
 10
40.79927027003033
 20
51.3762439034973
 30
0.0
 10
34.30773395117769
 20
57.863811726515294
 30
0.0
 10
34.30773395117769
 20
65.9449873364663
 30
0.0
 10
34.30773395117769
 20
72.01381247026524
 30
0.0
 10
37.95339368260853
 20
77.3959748793418
 30
0.0
 10
43.59553371685268
 20
79.65838495840804
 30
0.0
 10
43.77215938282661
 20
79.72983007543117
 30
0.0
 10
43.873373298609366
 20
79.9163820609915
 30
0.0
 10
43.83765158676444
 20
80.10293150655193
 30
0.0
 10
43.20457320780937
 20
83.29809282097575
 30
0.0
 10
42.5714948288543
 20
86.49325413539958
 30
0.0
 10
41.938416449899236
 20
89.68841544982341
 30
0.0
 10
43.701378221775826
 20
89.29216242766728
 30
0.0
 10
45.46433999365241
 20
88.89590940551118
 30
0.0
 10
47.227301765529
 20
88.49965638335505
 30
0.0
 10
46.73512767936958
 20
86.80880216047397
 30
0.0
 10
46.45927183753025
 20
85.03856278090062
 30
0.0
 10
46.41561093268279
 20
83.23061625623173
 30
0.0
 10
46.38981130709111
 20
82.18673133306027
 30
0.0
 10
46.21318479445055
 20
79.01340109194904
 30
0.0
 10
46.21119936119994
 20
78.98164601327217
 30
0.0
 10
46.73975753473224
 20
78.95187777895696
 30
0.0
 10
47.26831570826454
 20
78.92210954464174
 30
0.0
 10
47.796873881796834
 20
78.89234131032653
 30
0.0
 10
47.80481222813273
 20
79.02332233153565
 30
0.0
 10
47.97747041427198
 20
82.12322540903968
 30
0.0
 10
48.00326919319703
 20
83.19290995780283
 30
0.0
 10
48.24340247652481
 20
93.26858560198299
 30
0.0
 10
56.12612450807804
 20
101.15924597987213
 30
0.0
 10
65.94579119225857
 20
101.15924597987213
 30
0.0
 10
72.28253043489444
 20
101.15924597987213
 30
0.0
 10
78.22037454748425
 20
97.74974993526779
 30
0.0
 10
81.43736654010956
 20
92.26240680790711
 30
0.0
 10
81.62391344567011
 20
91.94289014588696
 30
0.0
 10
82.01090274954556
 20
91.79404776075539
 30
0.0
 10
82.36415746815996
 20
91.90716750270873
 30
0.0
 10
86.36902581906821
 20
93.18787868579022
 30
0.0
 10
90.37389416997645
 20
94.46858986887169
 30
0.0
 10
94.37876252088472
 20
95.74930105195317
 30
0.0
 10
94.6347724968843
 20
95.83265250314686
 30
0.0
 10
94.81338190277559
 20
95.69373271226851
 30
0.0
 10
94.87689206012932
 20
95.63221061283194
 30
0.0
 10
94.94039713748327
 20
95.57068919072867
 30
0.0
 10
95.08328821819613
 20
95.3960467566721
 30
0.0
 10
95.00787138800519
 20
95.13805287142185
 30
0.0
 10
93.90775594717667
 20
91.36802639139519
 30
0.0
 10
92.80764050634814
 20
87.59799991136852
 30
0.0
 10
91.70752506551962
 20
83.82797343134185
 30
0.0
 10
90.91766637843038
 20
84.21297984196659
 30
0.0
 10
90.1020055257496
 20
84.54638869474121
 30
0.0
 10
89.26650642722873
 20
84.8262137097485
 30
0.0
 10
89.71171083534522
 20
86.80880190647399
 30
0.0
 10
90.15691524346171
 20
88.79139010319948
 30
0.0
 10
90.60211965157819
 20
90.77397829992496
 30
0.0
 10
90.63189014367106
 20
90.90495872846745
 30
0.0
 10
90.59219756532492
 20
91.04189477942845
 30
0.0
 10
90.49892199587809
 20
91.13715383479266
 30
0.0
 10
90.40564557976461
 20
91.23241416015681
 30
0.0
 10
90.26871333880344
 20
91.27607430300431
 30
0.0
 10
90.13773485759421
 20
91.25027484674594
 30
0.0
 10
86.84863678352886
 20
90.59867340567378
 30
0.0
 10
83.55953870946351
 20
89.94707196460162
 30
0.0
 10
80.27044063539815
 20
89.29547052352946
 30
0.0
 10
77.81750516427047
 20
95.06660826239872
 30
0.0
 10
72.2309320303777
 20
98.77775884310076
 30
0.0
 10
65.94579119225857
 20
98.77775884310076
 30
0.0
 10
61.817880730921516
 20
98.77775884310076
 30
0.0
 10
57.93804020591488
 20
97.15636235665895
 30
0.0
 10
55.02071909413661
 20
94.21324111128901
 30
0.0
 10
52.13118050120071
 20
91.29592059217735
 30
0.0
 10
50.48398379650058
 20
87.3942509694136
 30
0.0
 10
50.382772420717714
 20
83.22664877639704
 30
0.0
 10
50.35697364179267
 20
82.17482381355642
 30
0.0
 10
50.1783616959015
 20
78.99553896602663
 30
0.0
 10
50.17637541598426
 20
78.96378642734965
 30
0.0
 10
50.44032373831975
 20
78.94857098131696
 30
0.0
 10
50.704272060655235
 20
78.93335553528426
 30
0.0
 10
50.96822038299072
 20
78.91814008925158
 30
0.0
 10
50.97615788265999
 20
79.04912195712734
 30
0.0
 10
51.148816068799235
 20
82.14307127487943
 30
0.0
 10
51.17461569439092
 20
83.20680206389065
 30
0.0
 10
51.377042679289794
 20
91.49239305532434
 30
0.0
 10
57.86262591572381
 20
97.983929374177
 30
0.0
 10
65.94579119225857
 20
97.983929374177
 30
0.0
 10
72.01461463272426
 20
97.983929374177
 30
0.0
 10
77.39677619513418
 20
94.33826964274616
 30
0.0
 10
79.66117594078419
 20
88.69612960850199
 30
0.0
 10
79.73261851780741
 20
88.51950394252806
 30
0.0
 10
79.9211491632853
 20
88.41630459349471
 30
0.0
 10
80.10770114884563
 20
88.45401173859024
 30
0.0
 10
83.30286353571387
 20
89.0870901175453
 30
0.0
 10
86.49802592258209
 20
89.72016849650036
 30
0.0
 10
89.69318830945032
 20
90.35324687545543
 30
0.0
 10
89.29693506151644
 20
88.59028510357885
 30
0.0
 10
88.90068181358254
 20
86.82732333170226
 30
0.0
 10
88.50442856564864
 20
85.06436155982567
 30
0.0
 10
86.81357095610105
 20
85.5565356459851
 30
0.0
 10
85.0453170097783
 20
85.83239148782442
 30
0.0
 10
83.23539097852522
 20
85.87605239267188
 30
0.0
 10
82.18952231543642
 20
85.90185201826357
 30
0.0
 10
79.01817073424274
 20
86.07847853090414
 30
0.0
 10
78.98641565556586
 20
86.08046396415473
 30
0.0
 10
78.95664826791729
 20
85.55190579062243
 30
0.0
 10
78.92688088026871
 20
85.02334761709014
 30
0.0
 10
78.89711349262012
 20
84.49478944355783
 30
0.0
 10
79.02809282049598
 20
84.48685109722194
 30
0.0
 10
82.12799674466665
 20
84.3141929110827
 30
0.0
 10
83.19767790676326
 20
84.28839413215765
 30
0.0
 10
93.27136744035951
 20
84.04627710891252
 30
0.0
 10
101.16004323166467
 20
76.16355423069267
 30
0.0
 10
101.16004323166467
 20
66.34388754651212
 30
0.0
 10
101.16004323166467
 20
60.00714830387627
 30
0.0
 10
97.75055142039352
 20
54.07128877787042
 30
0.0
 10
92.26320676903288
 20
50.85231727866091
 30
0.0
 10
91.94369171567934
 20
50.6637807065166
 30
0.0
 10
91.79485280188098
 20
50.278770909225344
 30
0.0
 10
91.90796746383454
 20
49.92552127061075
 30
0.0
 10
93.18867830824935
 20
45.92065291970249
 30
0.0
 10
94.46938915266416
 20
41.91578456879424
 30
0.0
 10
95.75009999707898
 20
37.910916217885976
 30
0.0
 10
95.83146974035525
 20
37.6549062418864
 30
0.0
 10
95.69453241939432
 20
37.47629683599512
 30
0.0
 10
95.63301616195749
 20
37.412786678641375
 30
0.0
 10
95.57149059118771
 20
37.34928160128742
 30
0.0
 10
95.39486577188042
 20
37.20639644724096
 30
0.0
 10
95.13885071588106
 20
37.28180735076552
 30
0.0
 10
91.3688242640766
 20
38.381921098260776
 30
0.0
 10
87.59879781227215
 20
39.48203484575603
 30
0.0
 10
83.8287713604677
 20
40.58214859325129
 30
0.0
 10
84.21378115775896
 20
41.37200728034052
 30
0.0
 10
84.5471874705337
 20
42.18767321302109
 30
0.0
 10
84.82701502554087
 20
43.023178238208395
 30
0.0
 10
86.8096020651553
 20
42.577971854536436
 30
0.0
 10
88.79218910476972
 20
42.13276547086448
 30
0.0
 10
90.77477614438415
 20
41.687559087192525
 30
0.0
 10
90.80454663647706
 20
41.68160617410722
 30
0.0
 10
90.83232746198618
 20
41.67763192093949
 30
0.0
 10
90.86209880074571
 20
41.67763192093949
 30
0.0
 10
90.96331186986183
 20
41.67763192093949
 30
0.0
 10
91.06452578564459
 20
41.717324499285624
 30
0.0
 10
91.13993668916915
 20
41.79075674289261
 30
0.0
 10
91.23718143178392
 20
41.8840331590061
 30
0.0
 10
91.27885859671404
 20
42.02096539996726
 30
0.0
 10
91.25306151112225
 20
42.15194388117649
 30
0.0
 10
90.6014598160501
 20
45.44038240193599
 30
0.0
 10
89.94985812097795
 20
48.72882092269548
 30
0.0
 10
89.2982564259058
 20
52.01725944345498
 30
0.0
 10
95.06939187877516
 20
54.472173574500225
 30
0.0
 10
98.78054508414378
 20
60.058747555059625
 30
0.0
 10
98.78054508414378
 20
66.34190380659479
 30
0.0
 10
98.78054508414378
 20
70.46981426793184
 30
0.0
 10
97.15914546503542
 20
74.34965479293847
 30
0.0
 10
94.21602811433198
 20
77.26697505805014
 30
0.0
 10
91.29870276922055
 20
80.15651449765265
 30
0.0
 10
87.39703941178988
 20
81.80370866235288
 30
0.0
 10
83.22744839885617
 20
81.904921731469
 30
0.0
 10
82.17562682268206
 20
81.93072135706068
 30
0.0
 10
78.99633774181912
 20
82.10933330295185
 30
0.0
 10
78.96458774314203
 20
82.10933330295185
 30
0.0
 10
78.94937257933155
 20
81.8453855450608
 30
0.0
 10
78.93415741552107
 20
81.58143778716972
 30
0.0
 10
78.91894225171059
 20
81.31749002927866
 30
0.0
 10
79.04992073291983
 20
81.3095499896095
 30
0.0
 10
82.1438717440052
 20
81.13689349680352
 30
0.0
 10
83.20759999301652
 20
81.11109217787856
 30
0.0
 10
91.49319225445016
 20
80.91065147289694
 30
0.0
 10
97.98473348396926
 20
74.4250682364629
 30
0.0
 10
97.98473348396926
 20
66.34190380659479
 30
0.0
 10
97.98473348396926
 20
60.27308036612911
 30
0.0
 10
94.3390699425386
 20
54.890917957052544
 30
0.0
 10
88.69693346429428
 20
52.62652413806896
 30
0.0
 10
88.52030356498719
 20
52.55507648104594
 30
0.0
 10
88.41710590928709
 20
52.368524495485616
 30
0.0
 10
88.45480882104948
 20
52.18198266992485
 30
0.0
 10
89.08788827244894
 20
48.98682056527883
 30
0.0
 10
89.7209677238484
 20
45.79165846063282
 30
0.0
 10
90.35404717524787
 20
42.5964963559868
 30
0.0
 10
88.59108517759351
 20
42.992749321698476
 30
0.0
 10
86.82812317993915
 20
43.389002287410165
 30
0.0
 10
85.0651611822848
 20
43.78525525312184
 30
0.0
 10
85.5573378084441
 20
45.476107782669644
 30
0.0
 10
85.83319619028333
 20
47.2443617289924
 30
0.0
 10
85.87685286179764
 20
49.05429284024527
 30
0.0
 10
85.90265502738922
 20
50.10016150333407
 30
0.0
 10
86.07927476669673
 20
53.271508004527966
 30
0.0
 10
86.0812644332805
 20
53.303258003205045
 30
0.0
 10
85.55270569530377
 20
53.33302877752015
 30
0.0
 10
85.02414695732706
 20
53.36279955183525
 30
0.0
 10
84.49558821935034
 20
53.392570326150356
 30
0.0
 10
84.48765071968107
 20
53.26158591827471
 30
0.0
 10
84.31499507354172
 20
50.16168792077047
 30
0.0
 10
84.28919798794992
 20
49.09200083200743
 30
0.0
 10
84.0470784247049
 20
39.0183062184114
 30
0.0
 10
76.16435554648504
 20
31.129630427106232
 30
0.0
 10
66.34468886230451
 20
31.129630427106232
 30
0.0
 10
60.00794961966865
 20
31.129630427106232
 30
0.0
 10
54.0720900936628
 20
34.53912731837719
 30
0.0
 10
50.85311605445341
 20
40.02647196973782
 30
0.0
 10
50.664579482309094
 20
40.345987023091354
 30
0.0
 10
50.27957476501763
 20
40.49483101688953
 30
0.0
 10
49.926320046403234
 20
40.38171127493618
 30
0.0
 10
49.92698157526456
 20
40.3823728037975
 30
0.0
 10
49.927643104125885
 20
40.38303433265882
 30
0.0
 10
49.92830463298721
 20
40.383695861520145
 30
0.0
  0
SPLINE
  5
8F
330
17
100
AcDbEntity
  8
LOGO
100
AcDbSpline
 70
0
 71
3
 72
95
 73
91
 74
0
 40
0.0
 40
0.0
 40
0.0
 40
0.0
 40
1.0
 40
1.0
 40
1.0
 40
2.0
 40
2.0
 40
2.0
 40
3.0
 40
3.0
 40
3.0
 40
4.0
 40
4.0
 40
4.0
 40
5.0
 40
5.0
 40
5.0
 40
6.0
 40
6.0
 40
6.0
 40
7.0
 40
7.0
 40
7.0
 40
8.0
 40
8.0
 40
8.0
 40
9.0
 40
9.0
 40
9.0
 40
10.0
 40
10.0
 40
10.0
 40
11.0
 40
11.0
 40
11.0
 40
12.0
 40
12.0
 40
12.0
 40
13.0
 40
13.0
 40
13.0
 40
14.0
 40
14.0
 40
14.0
 40
15.0
 40
15.0
 40
15.0
 40
16.0
 40
16.0
 40
16.0
 40
17.0
 40
17.0
 40
17.0
 40
18.0
 40
18.0
 40
18.0
 40
19.0
 40
19.0
 40
19.0
 40
20.0
 40
20.0
 40
20.0
 40
21.0
 40
21.0
 40
21.0
 40
22.0
 40
22.0
 40
22.0
 40
23.0
 40
23.0
 40
23.0
 40
24.0
 40
24.0
 40
24.0
 40
25.0
 40
25.0
 40
25.0
 40
26.0
 40
26.0
 40
26.0
 40
27.0
 40
27.0
 40
27.0
 40
28.0
 40
28.0
 40
28.0
 40
29.0
 40
29.0
 40
29.0
 40
30.0
 40
30.0
 40
30.0
 40
30.0
 10
66.34468886230451
 20
29.543960139842497
 30
0.0
 10
71.52640633306626
 20
29.543960139842497
 30
0.0
 10
76.39654794347703
 20
31.580129888335424
 30
0.0
 10
80.05808140424647
 20
35.27540809436549
 30
0.0
 10
81.22303372904011
 20
36.452256085330156
 30
0.0
 10
82.22722522719879
 20
37.756120157669145
 30
0.0
 10
83.0567773393008
 20
39.157228125956316
 30
0.0
 10
86.9352931132515
 20
38.025360993117445
 30
0.0
 10
90.81380888720224
 20
36.893493860278575
 30
0.0
 10
94.69232466115295
 20
35.761626727439705
 30
0.0
 10
94.88681414638256
 20
35.70605406975524
 30
0.0
 10
95.08328821819613
 20
35.678272397579484
 30
0.0
 10
95.27777770342574
 20
35.678272397579484
 30
0.0
 10
95.83146974035525
 20
35.678272397579484
 30
0.0
 10
96.36928677794619
 20
35.89855896840088
 30
0.0
 10
96.76818783465868
 20
36.309365851283914
 30
0.0
 10
97.30799453883338
 20
36.86305788821341
 30
0.0
 10
97.49652518431127
 20
37.66284882155546
 30
0.0
 10
97.26035938081817
 20
38.399119437544186
 30
0.0
 10
96.04315530709057
 20
42.205529412277095
 30
0.0
 10
94.82595123336297
 20
46.01193938701001
 30
0.0
 10
93.60874715963537
 20
49.81834936174292
 30
0.0
 10
99.2608108041327
 20
53.38661233306528
 30
0.0
 10
102.74373485901084
 20
59.661831084931144
 30
0.0
 10
102.74373485901084
 20
66.34785671968007
 30
0.0
 10
102.74373485901084
 20
71.5295758837751
 30
0.0
 10
100.70955393043508
 20
76.39971834085249
 30
0.0
 10
97.01229113782104
 20
80.06125434162182
 30
0.0
 10
95.83544314685636
 20
81.22619819974915
 30
0.0
 10
94.53157484118422
 20
82.2303913912411
 30
0.0
 10
93.13046687289703
 20
83.05994265667647
 30
0.0
 10
94.26233569906917
 20
86.93845933373825
 30
0.0
 10
95.39420452524129
 20
90.81697601080005
 30
0.0
 10
96.52607335141343
 20
94.69549268786186
 30
0.0
 10
96.74238566906708
 20
95.43772315960224
 30
0.0
 10
96.5340108510827
 20
96.23353696111
 30
0.0
 10
95.98030780748698
 20
96.7713562000342
 30
0.0
 10
95.42661577055749
 20
97.3091747616251
 30
0.0
 10
94.62683499721501
 20
97.49969414235346
 30
0.0
 10
93.89055422122674
 20
97.26352960886031
 30
0.0
 10
90.0841459398271
 20
96.0463251117994
 30
0.0
 10
86.27773765842744
 20
94.82912061473847
 30
0.0
 10
82.47132937702779
 20
93.61191611767755
 30
0.0
 10
78.90703557887338
 20
99.26199441359094
 30
0.0
 10
72.6318168270075
 20
102.7469039017197
 30
0.0
 10
65.94579119225857
 20
102.7469039017197
 30
0.0
 10
60.764071181496924
 20
102.7469039017197
 30
0.0
 10
55.89393211108606
 20
100.71271687714417
 30
0.0
 10
52.23239357031683
 20
97.01545882586326
 30
0.0
 10
51.06744886552286
 20
95.8386069402321
 30
0.0
 10
50.06325567403092
 20
94.53474219055978
 30
0.0
 10
49.23370440859556
 20
93.13363396827265
 30
0.0
 10
45.35518795731153
 20
94.26616339197281
 30
0.0
 10
41.4766715060275
 20
95.39869281567296
 30
0.0
 10
37.59815505474347
 20
96.53122223937312
 30
0.0
 10
36.85592517566972
 20
96.74754107635984
 30
0.0
 10
36.060111374161956
 20
96.539161093709
 30
0.0
 10
35.52229213523776
 20
95.985464908113
 30
0.0
 10
34.98447298098023
 20
95.43176872251702
 30
0.0
 10
34.79395419291851
 20
94.63198617117463
 30
0.0
 10
35.03011813374501
 20
93.89571013651947
 30
0.0
 10
36.24732263080594
 20
90.08929956911992
 30
0.0
 10
37.46452712786685
 20
86.28288900172036
 30
0.0
 10
38.68173162492778
 20
82.47647843432081
 30
0.0
 10
33.02966891176373
 20
78.90623426308099
 30
0.0
 10
29.544759423634968
 20
72.63101297121521
 30
0.0
 10
29.544759423634968
 20
65.9449873364663
 30
0.0
 10
29.544759423634968
 20
60.763269865704544
 30
0.0
 10
31.578946448210502
 20
55.8911462087097
 30
0.0
 10
35.27620449949141
 20
52.23159225452446
 30
0.0
 10
36.45305638512258
 20
51.06664500973059
 30
0.0
 10
37.75692113479488
 20
50.06245351157191
 30
0.0
 10
39.158029357082036
 20
49.23290224613653
 30
0.0
 10
38.02549993338187
 20
45.3543861899636
 30
0.0
 10
36.89297050968171
 20
41.475870133790664
 30
0.0
 10
35.76044108598155
 20
37.59735407761773
 30
0.0
 10
35.54412224899484
 20
36.855125468543925
 30
0.0
 10
35.75250223164567
 20
36.05930878836962
 30
0.0
 10
36.30619841724167
 20
35.521485824112254
 30
0.0
 10
36.859894602837656
 20
34.9836687865213
 30
0.0
 10
37.659677154180045
 20
34.79315355445943
 30
0.0
 10
38.39595318883521
 20
35.029320204619154
 30
0.0
 10
42.20236375623476
 20
36.246522302791284
 30
0.0
 10
46.00877432363431
 20
37.463724400963414
 30
0.0
 10
49.815184891033866
 20
38.680926499135545
 30
0.0
 10
53.383444475689714
 20
33.02886878130463
 30
0.0
 10
59.65866322755559
 20
29.54594387975985
 30
0.0
 10
66.34468886230451
 20
29.54594387975985
 30
0.0
 10
66.34468886230451
 20
29.545282633120735
 30
0.0
 10
66.34468886230451
 20
29.544621386481612
 30
0.0
 10
66.34468886230451
 20
29.543960139842497
 30
0.0
  0
SPLINE
  5
90
330
17
100
AcDbEntity
  8
LOGO
100
AcDbSpline
 70
0
 71
3
 72
32
 73
28
 74
0
 40
0.0
 40
0.0
 40
0.0
 40
0.0
 40
1.0
 40
1.0
 40
1.0
 40
2.0
 40
2.0
 40
2.0
 40
3.0
 40
3.0
 40
3.0
 40
4.0
 40
4.0
 40
4.0
 40
5.0
 40
5.0
 40
5.0
 40
6.0
 40
6.0
 40
6.0
 40
7.0
 40
7.0
 40
7.0
 40
8.0
 40
8.0
 40
8.0
 40
9.0
 40
9.0
 40
9.0
 40
9.0
 10
78.13900480420799
 20
49.08604791892214
 30
0.0
 10
77.9802395708232
 20
42.467490608028704
 30
0.0
 10
72.80050414664552
 20
37.28577652393347
 30
0.0
 10
66.34667598888838
 20
37.28577652393347
 30
0.0
 10
61.64720628469962
 20
37.28577652393347
 30
0.0
 10
57.4002197816574
 20
40.070128641252126
 30
0.0
 10
55.52678443971722
 20
44.38062445498146
 30
0.0
 10
55.28400504094413
 20
44.27544221269739
 30
0.0
 10
55.04122564217105
 20
44.17025997041331
 30
0.0
 10
54.79844624339797
 20
44.06507772812924
 30
0.0
 10
56.798895126712594
 20
39.46483735313927
 30
0.0
 10
61.33165701784751
 20
36.4919486636763
 30
0.0
 10
66.34667598888838
 20
36.4919486636763
 30
0.0
 10
73.2331389419524
 20
36.4919486636763
 30
0.0
 10
78.76216075824316
 20
42.015012486881965
 30
0.0
 10
78.93283266446517
 20
49.06818325299983
 30
0.0
 10
78.95862975005694
 20
50.120010755840354
 30
0.0
 10
79.13724338928138
 20
53.29929475670352
 30
0.0
 10
79.13922797586535
 20
53.331044755380596
 30
0.0
 10
78.8752802179743
 20
53.34559839032975
 30
0.0
 10
78.61133246008322
 20
53.3601520252789
 30
0.0
 10
78.34738470219216
 20
53.37470566022806
 30
0.0
 10
78.33944720252289
 20
53.24372125235241
 30
0.0
 10
78.16678647638375
 20
50.15176075451743
 30
0.0
 10
78.14098939079197
 20
49.08604791892214
 30
0.0
 10
78.14032786193064
 20
49.08604791892214
 30
0.0
 10
78.13966633306931
 20
49.08604791892214
 30
0.0
 10
78.13900480420799
 20
49.08604791892214
 30
0.0
  0
SPLINE
  5
91
330
17
100
AcDbEntity
  8
LOGO
100
AcDbSpline
 70
0
 71
3
 72
83
 73
79
 74
0
 40
0.0
 40
0.0
 40
0.0
 40
0.0
 40
1.0
 40
1.0
 40
1.0
 40
2.0
 40
2.0
 40
2.0
 40
3.0
 40
3.0
 40
3.0
 40
4.0
 40
4.0
 40
4.0
 40
5.0
 40
5.0
 40
5.0
 40
6.0
 40
6.0
 40
6.0
 40
7.0
 40
7.0
 40
7.0
 40
8.0
 40
8.0
 40
8.0
 40
9.0
 40
9.0
 40
9.0
 40
10.0
 40
10.0
 40
10.0
 40
11.0
 40
11.0
 40
11.0
 40
12.0
 40
12.0
 40
12.0
 40
13.0
 40
13.0
 40
13.0
 40
14.0
 40
14.0
 40
14.0
 40
15.0
 40
15.0
 40
15.0
 40
16.0
 40
16.0
 40
16.0
 40
17.0
 40
17.0
 40
17.0
 40
18.0
 40
18.0
 40
18.0
 40
19.0
 40
19.0
 40
19.0
 40
20.0
 40
20.0
 40
20.0
 40
21.0
 40
21.0
 40
21.0
 40
22.0
 40
22.0
 40
22.0
 40
23.0
 40
23.0
 40
23.0
 40
24.0
 40
24.0
 40
24.0
 40
25.0
 40
25.0
 40
25.0
 40
26.0
 40
26.0
 40
26.0
 40
26.0
 10
78.54584336058971
 20
57.766566983900496
 30
0.0
 10
77.75597959350071
 20
51.56874372214314
 30
0.0
 10
72.50083241913184
 20
50.9019319432603
 30
0.0
 10
71.28230472323717
 20
50.83048428623728
 30
0.0
 10
70.57778241259227
 20
52.247467253863
 30
0.0
 10
66.82892544879465
 20
59.30460719314882
 30
0.0
 10
61.107404660524686
 20
61.25544395186396
 30
0.0
 10
60.07542641019045
 20
61.606714930561
 30
0.0
 10
59.16053622831088
 20
61.78333974986829
 30
0.0
 10
58.364724628136365
 20
61.78333974986829
 30
0.0
 10
57.53517082270111
 20
61.78333974986829
 30
0.0
 10
56.83660311847477
 20
61.59282113113989
 30
0.0
 10
56.27496596187631
 20
61.209798460432516
 30
0.0
 10
54.8996567725142
 20
60.27308036612911
 30
0.0
 10
54.659526875852954
 20
58.42345667653009
 30
0.0
 10
54.59998758500042
 20
57.11364053777243
 30
0.0
 10
54.59998758500042
 20
57.10371845151918
 30
0.0
 10
54.59800384508306
 20
57.08585378559689
 30
0.0
 10
54.57021963290741
 20
57.075931699343634
 30
0.0
 10
54.54243626739839
 20
57.066010459757024
 30
0.0
 10
54.53251418114514
 20
57.07990595251137
 30
0.0
 10
54.526561268059844
 20
57.087843452180635
 30
0.0
 10
53.92721781303249
 20
57.79633239599361
 30
0.0
 10
53.2127725694677
 20
59.12798237384152
 30
0.0
 10
53.202848789881195
 20
61.44596511059224
 30
0.0
 10
53.19292670362796
 20
63.658762218392354
 30
0.0
 10
54.492824142798895
 20
65.12535985061744
 30
0.0
 10
55.582352017401895
 20
65.96483320230605
 30
0.0
 10
55.92171378326182
 20
66.22679947805746
 30
0.0
 10
56.10826238215563
 20
66.62172882160206
 30
0.0
 10
56.09437196940105
 20
67.04841070382365
 30
0.0
 10
56.0804815566465
 20
67.47509512604513
 30
0.0
 10
55.868132485494385
 20
67.8541469302513
 30
0.0
 10
55.51289318029601
 20
68.09031358041103
 30
0.0
 10
54.21564354990364
 20
68.95624865099707
 30
0.0
 10
52.91839391951127
 20
69.8221837215831
 30
0.0
 10
51.621144289118895
 20
70.68811879216913
 30
0.0
 10
51.43261025697448
 20
70.81513148687695
 30
0.0
 10
51.303612975682704
 20
71.00763384552268
 30
0.0
 10
51.261938350752466
 20
71.22990500292805
 30
0.0
 10
51.22026203248898
 20
71.45218039366658
 30
0.0
 10
51.267892110504405
 20
71.67841987757328
 30
0.0
 10
51.39887313171352
 20
71.86298473654973
 30
0.0
 10
52.45466642105548
 20
73.37324412028892
 30
0.0
 10
54.37771473426179
 20
76.1000466133388
 30
0.0
 10
55.379927572502915
 20
77.38605025308865
 30
0.0
 10
56.790957627043326
 20
79.19598136434152
 30
0.0
 10
56.765158001451645
 20
84.98497894313329
 30
0.0
 10
56.43770290842894
 20
87.68201348409016
 30
0.0
 10
56.435718321844966
 20
87.695905590178
 30
0.0
 10
56.431749148677014
 20
87.73162814868957
 30
0.0
 10
56.475410900191115
 20
87.75345775444666
 30
0.0
 10
56.519070111705304
 20
87.7752882068704
 30
0.0
 10
56.548840603798205
 20
87.7514731678627
 30
0.0
 10
56.558762690051445
 20
87.74353397486014
 30
0.0
 10
57.783243299031426
 20
86.65201982033992
 30
0.0
 10
60.6191989008666
 20
83.88354100902653
 30
0.0
 10
60.50607661891337
 20
81.73821899841495
 30
0.0
 10
60.45447821439662
 20
80.76974836543457
 30
0.0
 10
60.07740761010791
 20
79.78539765311584
 30
0.0
 10
59.68049706664584
 20
78.74349731652835
 30
0.0
 10
58.84895867462661
 20
76.57038940040786
 30
0.0
 10
57.814995837708395
 20
73.86541820644834
 30
0.0
 10
59.214122606078114
 20
69.86452043981907
 30
0.0
 10
59.25381264442436
 20
69.75140069786573
 30
0.0
 10
59.341135300785915
 20
69.66407804150418
 30
0.0
 10
59.45425250273937
 20
69.62240341657396
 30
0.0
 10
59.567374784692596
 20
69.58072625164382
 30
0.0
 10
59.69041830623246
 20
69.59263546448095
 30
0.0
 10
59.793614268599285
 20
69.65415595525093
 30
0.0
 10
59.88093692496086
 20
69.7057552064343
 30
0.0
 10
68.52771886467825
 20
74.80610462725305
 30
0.0
 10
73.12200378658304
 20
72.99617436266684
 30
0.0
 10
77.6448435914647
 20
71.2140325435894
 30
0.0
 10
79.57384735775621
 20
65.8040833823373
 30
0.0
 10
78.54981168709104
 20
57.766566983900496
 30
0.0
 10
78.5484889115906
 20
57.766566983900496
 30
0.0
 10
78.54716613609015
 20
57.766566983900496
 30
0.0
 10
78.54584336058971
 20
57.766566983900496
 30
0.0
  0
SPLINE
  5
92
330
17
100
AcDbEntity
  8
LOGO
100
AcDbSpline
 70
0
 71
3
 72
77
 73
73
 74
0
 40
0.0
 40
0.0
 40
0.0
 40
0.0
 40
1.0
 40
1.0
 40
1.0
 40
2.0
 40
2.0
 40
2.0
 40
3.0
 40
3.0
 40
3.0
 40
4.0
 40
4.0
 40
4.0
 40
5.0
 40
5.0
 40
5.0
 40
6.0
 40
6.0
 40
6.0
 40
7.0
 40
7.0
 40
7.0
 40
8.0
 40
8.0
 40
8.0
 40
9.0
 40
9.0
 40
9.0
 40
10.0
 40
10.0
 40
10.0
 40
11.0
 40
11.0
 40
11.0
 40
12.0
 40
12.0
 40
12.0
 40
13.0
 40
13.0
 40
13.0
 40
14.0
 40
14.0
 40
14.0
 40
15.0
 40
15.0
 40
15.0
 40
16.0
 40
16.0
 40
16.0
 40
17.0
 40
17.0
 40
17.0
 40
18.0
 40
18.0
 40
18.0
 40
19.0
 40
19.0
 40
19.0
 40
20.0
 40
20.0
 40
20.0
 40
21.0
 40
21.0
 40
21.0
 40
22.0
 40
22.0
 40
22.0
 40
23.0
 40
23.0
 40
23.0
 40
24.0
 40
24.0
 40
24.0
 40
24.0
 10
73.41373801442744
 20
73.73443633857258
 30
0.0
 10
69.01989295083767
 20
75.4669685730504
 30
0.0
 10
61.678958823376604
 20
71.6268206263899
 30
0.0
 10
59.81544472102303
 20
70.58094942330119
 30
0.0
 10
58.73980725917459
 20
74.05395139192612
 30
0.0
 10
59.63286444863053
 20
76.38780912801538
 30
0.0
 10
60.42470941563699
 20
78.45970566835301
 30
0.0
 10
60.84543838477328
 20
79.56114275579313
 30
0.0
 10
61.24433944148574
 20
80.60304309238062
 30
0.0
 10
61.30188906575451
 20
81.69654183348483
 30
0.0
 10
61.42890176046231
 20
84.09589008017865
 30
0.0
 10
58.717976806750855
 20
86.88619934391576
 30
0.0
 10
57.09062935455701
 20
88.33692282346895
 30
0.0
 10
56.81873845255246
 20
88.57903984671407
 30
0.0
 10
56.43373373526099
 20
88.62666907806285
 30
0.0
 10
56.1102495087395
 20
88.45798175842482
 30
0.0
 10
55.786762742218116
 20
88.2892918987869
 30
0.0
 10
55.61013538291092
 20
87.94794639300963
 30
0.0
 10
55.65379713442502
 20
87.58675332805934
 30
0.0
 10
56.02887976546323
 20
84.49280485697386
 30
0.0
 10
55.87210165866232
 20
79.30314819320957
 30
0.0
 10
54.75875366505182
 20
77.87624059933073
 30
0.0
 10
53.74463754064
 20
76.5763431601598
 30
0.0
 10
51.81364918776452
 20
73.83565025435533
 30
0.0
 10
50.75388672525463
 20
72.31943795753085
 30
0.0
 10
50.499861335839014
 20
71.95625861266332
 30
0.0
 10
50.406587459725436
 20
71.51767005760452
 30
0.0
 10
50.487954663001794
 20
71.08503272229774
 30
0.0
 10
50.56932186627816
 20
70.65239454032432
 30
0.0
 10
50.81739180260858
 20
70.27532478270224
 30
0.0
 10
51.186524907228026
 20
70.02923858628915
 30
0.0
 10
52.48377284428714
 20
69.16330464459196
 30
0.0
 10
53.78102078134625
 20
68.29737070289477
 30
0.0
 10
55.07826871840537
 20
67.43143676119757
 30
0.0
 10
55.21719062595028
 20
67.33816034508409
 30
0.0
 10
55.30054241581064
 20
67.18931381128603
 30
0.0
 10
55.30649532889593
 20
67.02261107823198
 30
0.0
 10
55.31245078198111
 20
66.85392121859405
 30
0.0
 10
55.23902107837402
 20
66.69714311179314
 30
0.0
 10
55.10407088399695
 20
66.59394460942642
 30
0.0
 10
53.871650235347815
 20
65.64333356236854
 30
0.0
 10
52.40505006312282
 20
63.98026185832987
 30
0.0
 10
52.41497384270933
 20
61.44199339742439
 30
0.0
 10
52.42489846896247
 20
58.88586281059651
 30
0.0
 10
53.24254136822734
 20
57.38552551311056
 30
0.0
 10
53.92523322644851
 20
56.57582265351485
 30
0.0
 10
54.147506923853776
 20
56.31187517784599
 30
0.0
 10
54.50472742896958
 20
56.21463043523118
 30
0.0
 10
54.83218590865882
 20
56.32576559060056
 30
0.0
 10
55.159638461681624
 20
56.43690159263655
 30
0.0
 10
55.381909619087
 20
56.732604146982275
 30
0.0
 10
55.39977089834278
 20
57.0779213659274
 30
0.0
 10
55.453354736110114
 20
58.21706644512969
 30
0.0
 10
55.64784422133972
 20
59.81861173173197
 30
0.0
 10
56.72943374960683
 20
60.554889967720364
 30
0.0
 10
57.61058426622555
 20
61.1562180093317
 30
0.0
 10
58.999786408342125
 20
61.13835334340939
 30
0.0
 10
60.857347597610406
 20
60.505275303120975
 30
0.0
 10
66.76938700460876
 20
58.488951420467814
 30
0.0
 10
70.64525835644744
 20
50.34029647999511
 30
0.0
 10
70.68494839479368
 20
50.25892673671885
 30
0.0
 10
70.7504405987315
 20
50.120010755840354
 30
0.0
 10
70.88935996627654
 20
50.03070351289482
 30
0.0
 10
71.04217228657602
 20
50.03070351289482
 30
0.0
 10
71.1414016157748
 20
50.03070351289482
 30
0.0
 10
78.37516637436792
 20
50.10611441641936
 30
0.0
 10
79.33768663426291
 20
57.66733765470172
 30
0.0
 10
80.41134204952726
 20
66.1017679832671
 30
0.0
 10
78.30769212384602
 20
71.80741715886505
 30
0.0
 10
73.41373801442744
 20
73.73642346515645
 30
0.0
 10
73.41373801442744
 20
73.7357610896285
 30
0.0
 10
73.41373801442744
 20
73.73509871410053
 30
0.0
 10
73.41373801442744
 20
73.73443633857258
 30
0.0
  0
SPLINE
  5
93
330
17
100
AcDbEntity
  8
LOGO
100
AcDbSpline
 70
0
 71
3
 72
17
 73
13
 74
0
 40
0.0
 40
0.0
 40
0.0
 40
0.0
 40
1.0
 40
1.0
 40
1.0
 40
2.0
 40
2.0
 40
2.0
 40
3.0
 40
3.0
 40
3.0
 40
4.0
 40
4.0
 40
4.0
 40
4.0
 10
67.98791470050342
 20
64.62524826478877
 30
0.0
 10
68.36299733154165
 20
64.62524826478877
 30
0.0
 10
68.66862197214061
 20
64.9288891654704
 30
0.0
 10
68.66862197214061
 20
65.30595638309259
 30
0.0
 10
68.66862197214061
 20
65.68302614071467
 30
0.0
 10
68.36299733154165
 20
65.98666450139642
 30
0.0
 10
67.98791470050342
 20
65.98666450139642
 30
0.0
 10
67.61283122279858
 20
65.98666450139642
 30
0.0
 10
67.3072065821996
 20
65.6810390141308
 30
0.0
 10
67.3072065821996
 20
65.30595638309259
 30
0.0
 10
67.3072065821996
 20
64.93087375205435
 30
0.0
 10
67.61283122279858
 20
64.62524826478877
 30
0.0
 10
67.98791470050342
 20
64.62524826478877
 30
0.0
  0
SPLINE
  5
94
330
17
100
AcDbEntity
  8
LOGO
100
AcDbSpline
 70
0
 71
3
 72
44
 73
40
 74
0
 40
0.0
 40
0.0
 40
0.0
 40
0.0
 40
1.0
 40
1.0
 40
1.0
 40
2.0
 40
2.0
 40
2.0
 40
3.0
 40
3.0
 40
3.0
 40
4.0
 40
4.0
 40
4.0
 40
5.0
 40
5.0
 40
5.0
 40
6.0
 40
6.0
 40
6.0
 40
7.0
 40
7.0
 40
7.0
 40
8.0
 40
8.0
 40
8.0
 40
9.0
 40
9.0
 40
9.0
 40
10.0
 40
10.0
 40
10.0
 40
11.0
 40
11.0
 40
11.0
 40
12.0
 40
12.0
 40
12.0
 40
13.0
 40
13.0
 40
13.0
 40
13.0
 10
72.81836373256803
 20
64.81576942351704
 30
0.0
 10
72.67547857852159
 20
64.90507412646268
 30
0.0
 10
72.55838458340051
 20
65.02811849466917
 30
0.0
 10
72.46312950736947
 20
65.16703701554756
 30
0.0
 10
71.70105164578938
 20
66.29625746849672
 30
0.0
 10
70.65716756928455
 20
66.93926267503817
 30
0.0
 10
69.50214495074384
 20
67.19923843753917
 30
0.0
 10
70.0578266542571
 20
66.75469442939516
 30
0.0
 10
70.41504800603953
 20
66.0720000311741
 30
0.0
 10
70.41504800603953
 20
65.30595638309259
 30
0.0
 10
70.41504800603953
 20
63.96636890557541
 30
0.0
 10
69.32551759143664
 20
62.87882307755648
 30
0.0
 10
67.98791470050342
 20
62.87882307755648
 30
0.0
 10
66.65031434957011
 20
62.87882307755648
 30
0.0
 10
65.56078139496732
 20
63.96636890557541
 30
0.0
 10
65.56078139496732
 20
65.30595638309259
 30
0.0
 10
65.56078139496732
 20
66.00651036723616
 30
0.0
 10
65.85847107589692
 20
66.63760636094051
 30
0.0
 10
66.33476762271789
 20
67.08016578250053
 30
0.0
 10
64.86221369074099
 20
66.68721848554
 30
0.0
 10
63.445228183115375
 20
65.8715601728591
 30
0.0
 10
62.38546826060537
 20
64.82370438318642
 30
0.0
 10
62.38546826060537
 20
64.82370438318642
 30
0.0
 10
64.48514393311888
 20
62.20009954583662
 30
0.0
 10
67.48978685459208
 20
62.20009954583662
 30
0.0
 10
69.97050399789553
 20
62.20009954583662
 30
0.0
 10
71.52045595998086
 20
62.91851565590262
 30
0.0
 10
72.24085326996432
 20
63.3650467906305
 30
0.0
 10
72.56830666965375
 20
63.565486648945495
 30
0.0
 10
72.9731606394515
 20
63.59327255445442
 30
0.0
 10
73.32244618489794
 20
63.43252019448577
 30
0.0
 10
73.46599653669445
 20
63.36636759057546
 30
0.0
 10
73.60954688849095
 20
63.300214986665154
 30
0.0
 10
73.75309724028747
 20
63.23406238275484
 30
0.0
 10
74.03689396846262
 20
63.103080514879096
 30
0.0
 10
74.30481061729941
 20
63.43648936765372
 30
0.0
 10
74.11825863173908
 20
63.684561843984035
 30
0.0
 10
73.86622206224062
 20
64.01797069675867
 30
0.0
 10
73.46136809244285
 20
64.41885295338857
 30
0.0
 10
72.81836373256803
 20
64.81576942351704
 30
0.0
  0
ENDSEC
  0
SECTION
  2
OBJECTS
  0
DICTIONARY
  5
A
330
0
100
AcDbDictionary
281
1
  3
ACAD_COLOR
350
B
  3
ACAD_GROUP
350
C
  3
ACAD_LAYOUT
350
D
  3
ACAD_MATERIAL
350
E
  3
ACAD_MLEADERSTYLE
350
F
  3
ACAD_MLINESTYLE
350
10
  3
ACAD_PLOTSETTINGS
350
11
  3
ACAD_PLOTSTYLENAME
350
12
  3
ACAD_SCALELIST
350
14
  3
ACAD_TABLESTYLE
350
15
  3
ACAD_VISUALSTYLE
350
16
  3
EZDXF_META
350
2D
  0
DICTIONARY
  5
B
330
A
100
AcDbDictionary
281
1
  0
DICTIONARY
  5
C
330
A
100
AcDbDictionary
281
1
  0
DICTIONARY
  5
D
330
A
100
AcDbDictionary
281
1
  3
Model
350
1A
  3
Layout1
350
1E
  0
DICTIONARY
  5
E
330
A
100
AcDbDictionary
281
1
  3
ByBlock
350
1F
  3
ByLayer
350
20
  3
Global
350
21
  0
DICTIONARY
  5
F
330
A
100
AcDbDictionary
281
1
  3
Standard
350
2C
  0
DICTIONARY
  5
10
330
A
100
AcDbDictionary
281
1
  3
Standard
350
22
  0
DICTIONARY
  5
11
330
A
100
AcDbDictionary
281
1
  0
ACDBDICTIONARYWDFLT
  5
12
330
A
100
AcDbDictionary
281
1
  3
Normal
350
13
100
AcDbDictionaryWithDefault
340
13
  0
ACDBPLACEHOLDER
  5
13
330
12
  0
DICTIONARY
  5
14
330
A
100
AcDbDictionary
281
1
  0
DICTIONARY
  5
15
330
A
100
AcDbDictionary
281
1
  0
DICTIONARY
  5
16
330
A
100
AcDbDictionary
281
1
  3
2dWireframe
350
5A
  3
Basic
350
5B
  3
Brighten
350
5C
  3
ColorChange
350
5D
  3
Conceptual
350
5E
  3
Dim
350
5F
  3
EdgeColorOff
350
60
  3
Facepattern
350
61
  3
Flat
350
62
  3
FlatWithEdges
350
63
  3
Gouraud
350
64
  3
GouraudWithEdges
350
65
  3
Hidden
350
66
  3
JitterOff
350
67
  3
Linepattern
350
68
  3
Modeling
350
69
  3
OverhangOff
350
6A
  3
Realistic
350
6B
  3
Shaded
350
6C
  3
Shaded with edges
350
6D
  3
Shades of Gray
350
6E
  3
Sketchy
350
6F
  3
Thicken
350
70
  3
Wireframe
350
71
  3
X-Ray
350
72
  0
LAYOUT
  5
1A
330
D
100
AcDbPlotSettings
  1

  4
A3
  6

 40
7.5
 41
20.0
 42
7.5
 43
20.0
 44
420.0
 45
297.0
 46
0.0
 47
0.0
 48
0.0
 49
0.0
140
0.0
141
0.0
142
1.0
143
1.0
 70
1024
 72
1
 73
0
 74
5
  7

 75
16
 76
0
 77
2
 78
300
147
1.0
148
0.0
149
0.0
100
AcDbLayout
  1
Model
 70
1
 71
0
 10
0.0
 20
0.0
 11
420.0
 21
297.0
 12
0.0
 22
0.0
 32
0.0
 14
1e+20
 24
1e+20
 34
1e+20
 15
-1e+20
 25
-1e+20
 35
-1e+20
146
0.0
 13
0.0
 23
0.0
 33
0.0
 16
1.0
 26
0.0
 36
0.0
 17
0.0
 27
1.0
 37
0.0
 76
1
330
17
  0
LAYOUT
  5
1E
330
D
100
AcDbPlotSettings
  1

  4
A3
  6

 40
7.5
 41
20.0
 42
7.5
 43
20.0
 44
420.0
 45
297.0
 46
0.0
 47
0.0
 48
0.0
 49
0.0
140
0.0
141
0.0
142
1.0
143
1.0
 70
0
 72
1
 73
0
 74
5
  7

 75
16
 76
0
 77
2
 78
300
147
1.0
148
0.0
149
0.0
100
AcDbLayout
  1
Layout1
 70
1
 71
1
 10
0.0
 20
0.0
 11
420.0
 21
297.0
 12
0.0
 22
0.0
 32
0.0
 14
1e+20
 24
1e+20
 34
1e+20
 15
-1e+20
 25
-1e+20
 35
-1e+20
146
0.0
 13
0.0
 23
0.0
 33
0.0
 16
1.0
 26
0.0
 36
0.0
 17
0.0
 27
1.0
 37
0.0
 76
1
330
1B
  0
MATERIAL
  5
1F
102
{ACAD_REACTORS
330
E
102
}
330
E
100
AcDbMaterial
  1
ByBlock
  2

 70
0
 40
1.0
 71
1
 41
1.0
 91
-1023410177
 42
1.0
 72
1
  3

 73
1
 74
1
 75
1
 44
0.5
 73
0
 45
1.0
 46
1.0
 77
1
  4

 78
1
 79
1
170
1
 48
1.0
171
1
  6

172
1
173
1
174
1
140
1.0
141
1.0
175
1
  7

176
1
177
1
178
1
143
1.0
179
1
  8

270
1
271
1
272
1
145
1.0
146
1.0
273
1
  9

274
1
275
1
276
1
 42
1.0
 72
1
  3

 73
1
 74
1
 75
1
 94
63
  0
MATERIAL
  5
20
102
{ACAD_REACTORS
330
E
102
}
330
E
100
AcDbMaterial
  1
ByLayer
  2

 70
0
 40
1.0
 71
1
 41
1.0
 91
-1023410177
 42
1.0
 72
1
  3

 73
1
 74
1
 75
1
 44
0.5
 73
0
 45
1.0
 46
1.0
 77
1
  4

 78
1
 79
1
170
1
 48
1.0
171
1
  6

172
1
173
1
174
1
140
1.0
141
1.0
175
1
  7

176
1
177
1
178
1
143
1.0
179
1
  8

270
1
271
1
272
1
145
1.0
146
1.0
273
1
  9

274
1
275
1
276
1
 42
1.0
 72
1
  3

 73
1
 74
1
 75
1
 94
63
  0
MATERIAL
  5
21
102
{ACAD_REACTORS
330
E
102
}
330
E
100
AcDbMaterial
  1
Global
  2

 70
0
 40
1.0
 71
1
 41
1.0
 91
-1023410177
 42
1.0
 72
1
  3

 73
1
 74
1
 75
1
 44
0.5
 73
0
 45
1.0
 46
1.0
 77
1
  4

 78
1
 79
1
170
1
 48
1.0
171
1
  6

172
1
173
1
174
1
140
1.0
141
1.0
175
1
  7

176
1
177
1
178
1
143
1.0
179
1
  8

270
1
271
1
272
1
145
1.0
146
1.0
273
1
  9

274
1
275
1
276
1
 42
1.0
 72
1
  3

 73
1
 74
1
 75
1
 94
63
  0
MLINESTYLE
  5
22
102
{ACAD_REACTORS
330
10
102
}
330
10
100
AcDbMlineStyle
  2
Standard
 70
0
  3

 62
256
 51
90.0
 52
90.0
 71
2
 49
0.5
 62
256
  6
BYLAYER
 49
-0.5
 62
256
  6
BYLAYER
  0
MLEADERSTYLE
  5
2C
102
{ACAD_REACTORS
330
F
102
}
330
F
100
AcDbMLeaderStyle
179
2
170
2
171
1
172
0
 90
2
 40
0.0
 41
0.0
173
1
 91
-1056964608
 92
-2
290
1
 42
2.0
291
1
 43
8.0
  3
Standard
 44
4.0
300

342
29
174
1
175
1
176
0
178
1
 93
-1056964608
 45
4.0
292
0
297
0
 46
4.0
 94
-1056964608
 47
1.0
 49
1.0
140
1.0
294
1
141
0.0
177
0
142
1.0
295
0
296
0
143
3.75
271
0
272
9
273
9
  0
DICTIONARY
  5
2D
330
A
100
AcDbDictionary
280
1
281
1
  3
CREATED_BY_EZDXF
350
2E
  3
WRITTEN_BY_EZDXF
350
97
  0
DICTIONARYVAR
  5
2E
330
2D
100
DictionaryVariables
280
0
  1
1.4.4 @ 2026-09-08T15:37:42.035368+00:00
  0
VISUALSTYLE
  5
5A
102
{ACAD_REACTORS
330
16
102
}
330
16
100
AcDbVisualStyle
  2
2dWireframe
 70
4
 90
0
 40
0.6
 62
7
290
0
291
0
  0
VISUALSTYLE
  5
5B
102
{ACAD_REACTORS
330
16
102
}
330
16
100
AcDbVisualStyle
  2
Basic
 70
7
 90
1
 40
0.6
 62
7
290
0
291
1
  0
VISUALSTYLE
  5
5C
102
{ACAD_REACTORS
330
16
102
}
330
16
100
AcDbVisualStyle
  2
Brighten
 70
12
 90
2
 40
0.6
 62
7
290
0
291
1
  0
VISUALSTYLE
  5
5D
102
{ACAD_REACTORS
330
16
102
}
330
16
100
AcDbVisualStyle
  2
ColorChange
 70
16
 90
2
 40
0.6
 62
8
290
0
291
1
  0
VISUALSTYLE
  5
5E
102
{ACAD_REACTORS
330
16
102
}
330
16
100
AcDbVisualStyle
  2
Conceptual
 70
9
 90
3
 40
0.6
 62
7
290
0
291
0
  0
VISUALSTYLE
  5
5F
102
{ACAD_REACTORS
330
16
102
}
330
16
100
AcDbVisualStyle
  2
Dim
 70
11
 90
2
 40
0.6
 62
7
290
0
291
1
  0
VISUALSTYLE
  5
60
102
{ACAD_REACTORS
330
16
102
}
330
16
100
AcDbVisualStyle
  2
EdgeColorOff
 70
22
 90
2
 40
0.6
 62
7
290
0
291
1
  0
VISUALSTYLE
  5
61
102
{ACAD_REACTORS
330
16
102
}
330
16
100
AcDbVisualStyle
  2
Facepattern
 70
15
 90
2
 40
0.6
 62
7
290
0
291
1
  0
VISUALSTYLE
  5
62
102
{ACAD_REACTORS
330
16
102
}
330
16
100
AcDbVisualStyle
  2
Flat
 70
0
 90
2
 40
0.6
 62
7
290
0
291
1
  0
VISUALSTYLE
  5
63
102
{ACAD_REACTORS
330
16
102
}
330
16
100
AcDbVisualStyle
  2
FlatWithEdges
 70
1
 90
2
 40
0.6
 62
7
290
0
291
1
  0
VISUALSTYLE
  5
64
102
{ACAD_REACTORS
330
16
102
}
330
16
100
AcDbVisualStyle
  2
Gouraud
 70
2
 90
2
 40
0.6
 62
7
290
0
291
1
  0
VISUALSTYLE
  5
65
102
{ACAD_REACTORS
330
16
102
}
330
16
100
AcDbVisualStyle
  2
GouraudWithEdges
 70
3
 90
2
 40
0.6
 62
7
290
0
291
1
  0
VISUALSTYLE
  5
66
102
{ACAD_REACTORS
330
16
102
}
330
16
100
AcDbVisualStyle
  2
Hidden
 70
6
 90
1
 40
0.6
 62
7
290
0
291
0
  0
VISUALSTYLE
  5
67
102
{ACAD_REACTORS
330
16
102
}
330
16
100
AcDbVisualStyle
  2
JitterOff
 70
20
 90
2
 40
0.6
 62
7
290
0
291
1
  0
VISUALSTYLE
  5
68
102
{ACAD_REACTORS
330
16
102
}
330
16
100
AcDbVisualStyle
  2
Linepattern
 70
14
 90
2
 40
0.6
 62
7
290
0
291
1
  0
VISUALSTYLE
  5
69
102
{ACAD_REACTORS
330
16
102
}
330
16
100
AcDbVisualStyle
  2
Modeling
 70
10
 90
2
 40
0.6
 62
7
290
0
291
0
  0
VISUALSTYLE
  5
6A
102
{ACAD_REACTORS
330
16
102
}
330
16
100
AcDbVisualStyle
  2
OverhangOff
 70
21
 90
2
 40
0.6
 62
7
290
0
291
1
  0
VISUALSTYLE
  5
6B
102
{ACAD_REACTORS
330
16
102
}
330
16
100
AcDbVisualStyle
  2
Realistic
 70
8
 90
2
 40
0.6
 62
7
290
0
291
0
  0
VISUALSTYLE
  5
6C
102
{ACAD_REACTORS
330
16
102
}
330
16
100
AcDbVisualStyle
  2
Shaded
 70
27
 90
2
 40
0.6
 62
7
290
0
291
0
  0
VISUALSTYLE
  5
6D
102
{ACAD_REACTORS
330
16
102
}
330
16
100
AcDbVisualStyle
  2
Shaded with edges
 70
26
 90
2
 40
0.6
 62
7
290
0
291
0
  0
VISUALSTYLE
  5
6E
102
{ACAD_REACTORS
330
16
102
}
330
16
100
AcDbVisualStyle
  2
Shades of Gray
 70
23
 90
2
 40
0.6
 62
7
290
0
291
0
  0
VISUALSTYLE
  5
6F
102
{ACAD_REACTORS
330
16
102
}
330
16
100
AcDbVisualStyle
  2
Sketchy
 70
24
 90
1
 40
0.6
 62
7
290
0
291
0
  0
VISUALSTYLE
  5
70
102
{ACAD_REACTORS
330
16
102
}
330
16
100
AcDbVisualStyle
  2
Thicken
 70
13
 90
2
 40
0.6
 62
7
290
0
291
1
  0
VISUALSTYLE
  5
71
102
{ACAD_REACTORS
330
16
102
}
330
16
100
AcDbVisualStyle
  2
Wireframe
 70
5
 90
0
 40
0.6
 62
7
290
0
291
0
  0
VISUALSTYLE
  5
72
102
{ACAD_REACTORS
330
16
102
}
330
16
100
AcDbVisualStyle
  2
X-Ray
 70
25
 90
2
 40
0.5
 62
7
290
0
291
0
  0
DICTIONARYVAR
  5
97
330
2D
100
DictionaryVariables
280
0
  1
1.4.4 @ 2026-09-08T15:37:42.043672+00:00
  0
ENDSEC
  0
EOF
