  0
SECTION
  2
HEADER
  9
$ACADVER
  1
AC1015
  9
$ACADMAINTVER
 70
6
  9
$DWGCODEPAGE
  3
ANSI_1252
  9
$INSBASE
 10
0.0
 20
0.0
 30
0.0
  9
$EXTMIN
 10
1e+20
 20
1e+20
 30
1e+20
  9
$EXTMAX
 10
-1e+20
 20
-1e+20
 30
-1e+20
  9
$LIMMIN
 10
0.0
 20
0.0
  9
$LIMMAX
 10
420.0
 20
297.0
  9
$ORTHOMODE
 70
0
  9
$REGENMODE
 70
1
  9
$FILLMODE
 70
1
  9
$QTEXTMODE
 70
0
  9
$MIRRTEXT
 70
1
  9
$LTSCALE
 40
1.0
  9
$ATTMODE
 70
1
  9
$TEXTSIZE
 40
2.5
  9
$TRACEWID
 40
1.0
  9
$TEXTSTYLE
  7
OpenSans
  9
$CLAYER
  8
0
  9
$CELTYPE
  6
ByLayer
  9
$CECOLOR
 62
256
  9
$CELTSCALE
 40
1.0
  9
$DISPSILH
 70
0
  9
$DIMSCALE
 40
1.0
  9
$DIMASZ
 40
0.175
  9
$DIMEXO
 40
0.125
  9
$DIMDLI
 40
3.75
  9
$DIMRND
 40
0.0
  9
$DIMDLE
 40
0.0
  9
$DIMEXE
 40
0.375
  9
$DIMTP
 40
0.0
  9
$DIMTM
 40
0.0
  9
$DIMTXT
 40
0.25
  9
$DIMCEN
 40
2.5
  9
$DIMTSZ
 40
0.0
  9
$DIMTOL
 70
0
  9
$DIMLIM
 70
0
  9
$DIMTIH
 70
0
  9
$DIMTOH
 70
0
  9
$DIMSE1
 70
0
  9
$DIMSE2
 70
0
  9
$DIMTAD
 70
1
  9
$DIMZIN
 70
12
  9
$DIMBLK
  1
ARCHTICK
  9
$DIMASO
 70
1
  9
$DIMSHO
 70
1
  9
$DIMPOST
  1

  9
$DIMAPOST
  1

  9
$DIMALT
 70
0
  9
$DIMALTD
 70
3
  9
$DIMALTF
 40
0.03937007874
  9
$DIMLFAC
 40
100.0
  9
$DIMTOFL
 70
1
  9
$DIMTVP
 40
0.0
  9
$DIMTIX
 70
0
  9
$DIMSOXD
 70
0
  9
$DIMSAH
 70
0
  9
$DIMBLK1
  1

  9
$DIMBLK2
  1

  9
$DIMSTYLE
  2
EZDXF
  9
$DIMCLRD
 70
0
  9
$DIMCLRE
 70
0
  9
$DIMCLRT
 70
0
  9
$DIMTFAC
 40
0.5
  9
$DIMGAP
 40
0.1
  9
$DIMJUST
 70
0
  9
$DIMSD1
 70
0
  9
$DIMSD2
 70
0
  9
$DIMTOLJ
 70
0
  9
$DIMTZIN
 70
8
  9
$DIMALTZ
 70
0
  9
$DIMALTTZ
 70
0
  9
$DIMUPT
 70
1
  9
$DIMDEC
 70
2
  9
$DIMTDEC
 70
2
  9
$DIMALTU
 70
2
  9
$DIMALTTD
 70
3
  9
$DIMTXSTY
  7
OpenSansCondensed-Light
  9
$DIMAUNIT
 70
0
  9
$DIMADEC
 70
2
  9
$DIMALTRND
 40
0.0
  9
$DIMAZIN
 70
3
  9
$DIMDSEP
 70
46
  9
$DIMATFIT
 70
3
  9
$DIMFRAC
 70
0
  9
$DIMLDRBLK
  1

  9
$DIMLUNIT
 70
2
  9
$DIMLWD
 70
-2
  9
$DIMLWE
 70
-2
  9
$DIMTMOVE
 70
2
  9
$LUNITS
 70
2
  9
$LUPREC
 70
4
  9
$SKETCHINC
 40
1.0
  9
$FILLETRAD
 40
10.0
  9
$AUNITS
 70
0
  9
$AUPREC
 70
2
  9
$MENU
  1
.
  9
$ELEVATION
 40
0.0
  9
$PELEVATION
 40
0.0
  9
$THICKNESS
 40
0.0
  9
$LIMCHECK
 70
0
  9
$CHAMFERA
 40
0.0
  9
$CHAMFERB
 40
0.0
  9
$CHAMFERC
 40
0.0
  9
$CHAMFERD
 40
0.0
  9
$SKPOLY
 70
0
  9
$TDCREATE
 40
2461292.6511805556
  9
$TDUCREATE
 40
2458532.153996898
  9
$TDUPDATE
 40
2461292.6511805556
  9
$TDUUPDATE
 40
2458532.1544311
  9
$TDINDWG
 40
0.0
  9
$TDUSRTIMER
 40
0.0
  9
$USRTIMER
 70
1
  9
$ANGBASE
 50
0.0
  9
$ANGDIR
 70
0
  9
$PDMODE
 70
0
  9
$PDSIZE
 40
0.0
  9
$PLINEWID
 40
0.0
  9
$SPLFRAME
 70
0
  9
$SPLINETYPE
 70
6
  9
$SPLINESEGS
 70
8
  9
$HANDSEED
  5
98
  9
$SURFTAB1
 70
6
  9
$SURFTAB2
 70
6
  9
$SURFTYPE
 70
6
  9
$SURFU
 70
6
  9
$SURFV
 70
6
  9
$UCSBASE
  2

  9
$UCSNAME
  2

  9
$UCSORG
 10
0.0
 20
0.0
 30
0.0
  9
$UCSXDIR
 10
1.0
 20
0.0
 30
0.0
  9
$UCSYDIR
 10
0.0
 20
1.0
 30
0.0
  9
$UCSORTHOREF
  2

  9
$UCSORTHOVIEW
 70
0
  9
$UCSORGTOP
 10
0.0
 20
0.0
 30
0.0
  9
$UCSORGBOTTOM
 10
0.0
 20
0.0
 30
0.0
  9
$UCSORGLEFT
 10
0.0
 20
0.0
 30
0.0
  9
$UCSORGRIGHT
 10
0.0
 20
0.0
 30
0.0
  9
$UCSORGFRONT
 10
0.0
 20
0.0
 30
0.0
  9
$UCSORGBACK
 10
0.0
 20
0.0
 30
0.0
  9
$PUCSBASE
  2

  9
$PUCSNAME
  2

  9
$PUCSORG
 10
0.0
 20
0.0
 30
0.0
  9
$PUCSXDIR
 10
1.0
 20
0.0
 30
0.0
  9
$PUCSYDIR
 10
0.0
 20
1.0
 30
0.0
  9
$PUCSORTHOREF
  2

  9
$PUCSORTHOVIEW
 70
0
  9
$PUCSORGTOP
 10
0.0
 20
0.0
 30
0.0
  9
$PUCSORGBOTTOM
 10
0.0
 20
0.0
 30
0.0
  9
$PUCSORGLEFT
 10
0.0
 20
0.0
 30
0.0
  9
$PUCSORGRIGHT
 10
0.0
 20
0.0
 30
0.0
  9
$PUCSORGFRONT
 10
0.0
 20
0.0
 30
0.0
  9
$PUCSORGBACK
 10
0.0
 20
0.0
 30
0.0
  9
$USERI1
 70
0
  9
$USERI2
 70
0
  9
$USERI3
 70
0
  9
$USERI4
 70
0
  9
$USERI5
 70
0
  9
$USERR1
 40
0.0
  9
$USERR2
 40
0.0
  9
$USERR3
 40
0.0
  9
$USERR4
 40
0.0
  9
$USERR5
 40
0.0
  9
$WORLDVIEW
 70
1
  9
$SHADEDGE
 70
3
  9
$SHADEDIF
 70
70
  9
$TILEMODE
 70
1
  9
$MAXACTVP
 70
64
  9
$PINSBASE
 10
0.0
 20
0.0
 30
0.0
  9
$PLIMCHECK
 70
0
  9
$PEXTMIN
 10
1e+20
 20
1e+20
 30
1e+20
  9
$PEXTMAX
 10
-1e+20
 20
-1e+20
 30
-1e+20
  9
$PLIMMIN
 10
0.0
 20
0.0
  9
$PLIMMAX
 10
420.0
 20
297.0
  9
$UNITMODE
 70
0
  9
$VISRETAIN
 70
1
  9
$PLINEGEN
 70
0
  9
$PSLTSCALE
 70
1
  9
$TREEDEPTH
 70
3020
  9
$CMLSTYLE
  2
Standard
  9
$CMLJUST
 70
0
  9
$CMLSCALE
 40
20.0
  9
$PROXYGRAPHICS
 70
1
  9
$MEASUREMENT
 70
1
  9
$CELWEIGHT
370
-1
  9
$ENDCAPS
280
0
  9
$JOINSTYLE
280
0
  9
$LWDISPLAY
290
0
  9
$INSUNITS
 70
4
  9
$HYPERLINKBASE
  1

  9
$STYLESHEET
  1

  9
$XEDIT
290
1
  9
$CEPSNTYPE
380
0
  9
$PSTYLEMODE
290
1
  9
$FINGERPRINTGUID
  2
{E4547473-1021-4FB6-B362-5D008DB651F4}
  9
$VERSIONGUID
  2
{BA5A495B-973F-41F7-9536-01112CDC2C24}
  9
$EXTNAMES
290
1
  9
$PSVPSCALE
 40
0.0
  9
$OLESTARTUP
290
0
  0
ENDSEC
  0
SECTION
  2
CLASSES
  0
CLASS
  1
ACDBDICTIONARYWDFLT
  2
AcDbDictionaryWithDefault
  3
ObjectDBX Classes
 90
0
280
0
281
0
  0
CLASS
  1
SUN
  2
AcDbSun
  3
SCENEOE
 90
1153
280
0
281
0
  0
CLASS
  1
VISUALSTYLE
  2
AcDbVisualStyle
  3
ObjectDBX Classes
 90
4095
280
0
281
0
  0
CLASS
  1
MATERIAL
  2
AcDbMaterial
  3
ObjectDBX Classes
 90
1153
280
0
281
0
  0
CLASS
  1
SCALE
  2
AcDbScale
  3
ObjectDBX Classes
 90
1153
280
0
281
0
  0
CLASS
  1
TABLESTYLE
  2
AcDbTableStyle
  3
ObjectDBX Classes
 90
4095
280
0
281
0
  0
CLASS
  1
MLEADERSTYLE
  2
AcDbMLeaderStyle
  3
ACDB_MLEADERSTYLE_CLASS
 90
4095
280
0
281
0
  0
CLASS
  1
DICTIONARYVAR
  2
AcDbDictionaryVar
  3
ObjectDBX Classes
 90
0
280
0
281
0
  0
CLASS
  1
CELLSTYLEMAP
  2
AcDbCellStyleMap
  3
ObjectDBX Classes
 90
1152
280
0
281
0
  0
CLASS
  1
MENTALRAYRENDERSETTINGS
  2
AcDbMentalRayRenderSettings
  3
SCENEOE
 90
1024
280
0
281
0
  0
CLASS
  1
ACDBDETAILVIEWSTYLE
  2
AcDbDetailViewStyle
  3
ObjectDBX Classes
 90
1025
280
0
281
0
  0
CLASS
  1
ACDBSECTIONVIEWSTYLE
  2
AcDbSectionViewStyle
  3
ObjectDBX Classes
 90
1025
280
0
281
0
  0
CLASS
  1
RASTERVARIABLES
  2
AcDbRasterVariables
  3
ISM
 90
0
280
0
281
0
  0
CLASS
  1
ACDBPLACEHOLDER
  2
AcDbPlaceHolder
  3
ObjectDBX Classes
 90
0
280
0
281
0
  0
CLASS
  1
LAYOUT
  2
AcDbLayout
  3
ObjectDBX Classes
 90
0
280
0
281
0
  0
ENDSEC
  0
SECTION
  2
TABLES
  0
TABLE
  2
VPORT
  5
8
330
0
100
AcDbSymbolTable
 70
1
  0
VPORT
  5
23
330
8
100
AcDbSymbolTableRecord
100
AcDbViewportTableRecord
  2
*Active
 70
0
 10
0.0
 20
0.0
 11
1.0
 21
1.0
 12
0.0
 22
0.0
 13
0.0
 23
0.0
 14
0.5
 24
0.5
 15
0.5
 25
0.5
 16
0.0
 26
0.0
 36
1.0
 17
0.0
 27
0.0
 37
0.0
 40
1000.0
 41
1.34
 42
50.0
 43
0.0
 44
0.0
 50
0.0
 51
0.0
 71
0
 72
1000
 73
1
 74
3
 75
0
 76
0
 77
0
 78
0
281
0
 65
0
146
0.0
  0
ENDTAB
  0
TABLE
  2
LTYPE
  5
2
330
0
100
AcDbSymbolTable
 70
21
  0
LTYPE
  5
24
330
2
100
AcDbSymbolTableRecord
100
AcDbLinetypeTableRecord
  2
ByBlock
 70
0
  3

 72
65
 73
0
 40
0.0
  0
LTYPE
  5
25
330
2
100
AcDbSymbolTableRecord
100
AcDbLinetypeTableRecord
  2
ByLayer
 70
0
  3

 72
65
 73
0
 40
0.0
  0
LTYPE
  5
26
330
2
100
AcDbSymbolTableRecord
100
AcDbLinetypeTableRecord
  2
Continuous
 70
0
  3

 72
65
 73
0
 40
0.0
  0
LTYPE
  5
2F
330
2
100
AcDbSymbolTableRecord
100
AcDbLinetypeTableRecord
  2
CENTER
 70
0
  3
Center ____ _ ____ _ ____ _ ____ _ ____ _ ____
 72
65
 73
4
 40
5.08
 49
3.175
 74
0
 49
-0.635
 74
0
 49
0.635
 74
0
 49
-0.635
 74
0
  0
LTYPE
  5
30
330
2
100
AcDbSymbolTableRecord
100
AcDbLinetypeTableRecord
  2
CENTERX2
 70
0
  3
Center (2x) ________  __  ________  __  ________
 72
65
 73
4
 40
8.89
 49
6.35
 74
0
 49
-0.635
 74
0
 49
1.27
 74
0
 49
-0.635
 74
0
  0
LTYPE
  5
31
330
2
100
AcDbSymbolTableRecord
100
AcDbLinetypeTableRecord
  2
CENTER2
 70
0
  3
Center (.5x) ____ _ ____ _ ____ _ ____ _ ____
 72
65
 73
4
 40
2.54
 49
1.587
 74
0
 49
-0.318
 74
0
 49
0.318
 74
0
 49
-0.318
 74
0
  0
LTYPE
  5
32
330
2
100
AcDbSymbolTableRecord
100
AcDbLinetypeTableRecord
  2
DASHED
 70
0
  3
Dashed __ __ __ __ __ __ __ __ __ __ __ __ __ _
 72
65
 73
2
 40
1.524
 49
1.27
 74
0
 49
-0.254
 74
0
  0
LTYPE
  5
33
330
2
100
AcDbSymbolTableRecord
100
AcDbLinetypeTableRecord
  2
DASHEDX2
 70
0
  3
Dashed (2x) ____  ____  ____  ____  ____  ____
 72
65
 73
2
 40
3.048
 49
2.54
 74
0
 49
-0.508
 74
0
  0
LTYPE
  5
34
330
2
100
AcDbSymbolTableRecord
100
AcDbLinetypeTableRecord
  2
DASHED2
 70
0
  3
Dashed (.5x) _ _ _ _ _ _ _ _ _ _ _ _ _ _
 72
65
 73
2
 40
0.762
 49
0.635
 74
0
 49
-0.127
 74
0
  0
LTYPE
  5
35
330
2
100
AcDbSymbolTableRecord
100
AcDbLinetypeTableRecord
  2
PHANTOM
 70
0
  3
Phantom ______  __  __  ______  __  __  ______
 72
65
 73
6
 40
6.35
 49
3.175
 74
0
 49
-0.635
 74
0
 49
0.635
 74
0
 49
-0.635
 74
0
 49
0.635
 74
0
 49
-0.635
 74
0
  0
LTYPE
  5
36
330
2
100
AcDbSymbolTableRecord
100
AcDbLinetypeTableRecord
  2
PHANTOMX2
 70
0
  3
Phantom (2x)____________    ____    ____    ____________
 72
65
 73
6
 40
10.795
 49
6.35
 74
0
 49
-0.635
 74
0
 49
1.27
 74
0
 49
-0.635
 74
0
 49
1.27
 74
0
 49
-0.635
 74
0
  0
LTYPE
  5
37
330
2
100
AcDbSymbolTableRecord
100
AcDbLinetypeTableRecord
  2
PHANTOM2
 70
0
  3
Phantom (.5x) ___ _ _ ___ _ _ ___ _ _ ___ _ _ ___
 72
65
 73
6
 40
3.175
 49
1.587
 74
0
 49
-0.318
 74
0
 49
0.318
 74
0
 49
-0.318
 74
0
 49
0.318
 74
0
 49
-0.318
 74
0
  0
LTYPE
  5
38
330
2
100
AcDbSymbolTableRecord
100
AcDbLinetypeTableRecord
  2
DASHDOT
 70
0
  3
Dash dot __ . __ . __ . __ . __ . __ . __ . __
 72
65
 73
4
 40
3.556
 49
2.54
 74
0
 49
-0.508
 74
0
 49
0.0
 74
0
 49
-0.508
 74
0
  0
LTYPE
  5
39
330
2
100
AcDbSymbolTableRecord
100
AcDbLinetypeTableRecord
  2
DASHDOTX2
 70
0
  3
Dash dot (2x) ____  .  ____  .  ____  .  ____
 72
65
 73
4
 40
6.096
 49
5.08
 74
0
 49
-0.508
 74
0
 49
0.0
 74
0
 49
-0.508
 74
0
  0
LTYPE
  5
3A
330
2
100
AcDbSymbolTableRecord
100
AcDbLinetypeTableRecord
  2
DASHDOT2
 70
0
  3
Dash dot (.5x) _ . _ . _ . _ . _ . _ . _ . _
 72
65
 73
4
 40
1.778
 49
1.27
 74
0
 49
-0.254
 74
0
 49
0.0
 74
0
 49
-0.254
 74
0
  0
LTYPE
  5
3B
330
2
100
AcDbSymbolTableRecord
100
AcDbLinetypeTableRecord
  2
DOT
 70
0
  3
Dot .  .  .  .  .  .  .  .  .  .  .  .  .  .  .  .
 72
65
 73
2
 40
0.508
 49
0.0
 74
0
 49
-0.508
 74
0
  0
LTYPE
  5
3C
330
2
100
AcDbSymbolTableRecord
100
AcDbLinetypeTableRecord
  2
DOTX2
 70
0
  3
Dot (2x) .    .    .    .    .    .    .    . 
 72
65
 73
2
 40
1.016
 49
0.0
 74
0
 49
-1.016
 74
0
  0
LTYPE
  5
3D
330
2
100
AcDbSymbolTableRecord
100
AcDbLinetypeTableRecord
  2
DOT2
 70
0
  3
Dot (.5) . . . . . . . . . . . . . . . . . . . 
 72
65
 73
2
 40
0.254
 49
0.0
 74
0
 49
-0.254
 74
0
  0
LTYPE
  5
3E
330
2
100
AcDbSymbolTableRecord
100
AcDbLinetypeTableRecord
  2
DIVIDE
 70
0
  3
Divide __ . . __ . . __ . . __ . . __ . . __
 72
65
 73
6
 40
4.064
 49
2.54
 74
0
 49
-0.508
 74
0
 49
0.0
 74
0
 49
-0.508
 74
0
 49
0.0
 74
0
 49
-0.508
 74
0
  0
LTYPE
  5
3F
330
2
100
AcDbSymbolTableRecord
100
AcDbLinetypeTableRecord
  2
DIVIDEX2
 70
0
  3
Divide (2x) ____  . .  ____  . .  ____  . .  ____
 72
65
 73
6
 40
6.604
 49
5.08
 74
0
 49
-0.508
 74
0
 49
0.0
 74
0
 49
-0.508
 74
0
 49
0.0
 74
0
 49
-0.508
 74
0
  0
LTYPE
  5
40
330
2
100
AcDbSymbolTableRecord
100
AcDbLinetypeTableRecord
  2
DIVIDE2
 70
0
  3
Divide(.5x) _ . _ . _ . _ . _ . _ . _ . _
 72
65
 73
6
 40
2.032
 49
1.27
 74
0
 49
-0.254
 74
0
 49
0.0
 74
0
 49
-0.254
 74
0
 49
0.0
 74
0
 49
-0.254
 74
0
  0
ENDTAB
  0
TABLE
  2
LAYER
  5
1
330
0
100
AcDbSymbolTable
 70
3
  0
LAYER
  5
27
330
1
100
AcDbSymbolTableRecord
100
AcDbLayerTableRecord
  2
0
 70
0
 62
7
  6
Continuous
370
-3
390
13
  0
LAYER
  5
28
330
1
100
AcDbSymbolTableRecord
100
AcDbLayerTableRecord
  2
Defpoints
 70
0
 62
7
  6
Continuous
290
0
370
-3
390
13
  0
LAYER
  5
8A
330
1
100
AcDbSymbolTableRecord
100
AcDbLayerTableRecord
  2
LOGO
 70
0
 62
7
  6
Continuous
370
-3
390
13
  0
ENDTAB
  0
TABLE
  2
STYLE
  5
5
330
0
100
AcDbSymbolTable
 70
26
  0
STYLE
  5
29
330
5
100
AcDbSymbolTableRecord
100
AcDbTextStyleTableRecord
  2
Standard
 70
0
 40
0.0
 41
1.0
 50
0.0
 71
0
 42
2.5
  3
txt
  4

  0
STYLE
  5
41
330
5
100
AcDbSymbolTableRecord
100
AcDbTextStyleTableRecord
  2
OpenSans-Light
 70
0
 40
0.0
 41
1.0
 50
0.0
 71
0
 42
2.5
  3
OpenSans-Light.ttf
  4

  0
STYLE
  5
42
330
5
100
AcDbSymbolTableRecord
100
AcDbTextStyleTableRecord
  2
OpenSans-Light-Italic
 70
0
 40
0.0
 41
1.0
 50
0.0
 71
0
 42
2.5
  3
OpenSans-LightItalic.ttf
  4

  0
STYLE
  5
43
330
5
100
AcDbSymbolTableRecord
100
AcDbTextStyleTableRecord
  2
OpenSans
 70
0
 40
0.0
 41
1.0
 50
0.0
 71
0
 42
2.5
  3
OpenSans-Regular.ttf
  4

  0
STYLE
  5
44
330
5
100
AcDbSymbolTableRecord
100
AcDbTextStyleTableRecord
  2
OpenSans-Italic
 70
0
 40
0.0
 41
1.0
 50
0.0
 71
0
 42
2.5
  3
OpenSans-Italic.ttf
  4

  0
STYLE
  5
45
330
5
100
AcDbSymbolTableRecord
100
AcDbTextStyleTableRecord
  2
OpenSans-SemiBold
 70
0
 40
0.0
 41
1.0
 50
0.0
 71
0
 42
2.5
  3
OpenSans-SemiBold.ttf
  4

  0
STYLE
  5
46
330
5
100
AcDbSymbolTableRecord
100
AcDbTextStyleTableRecord
  2
OpenSans-SemiBoldItalic
 70
0
 40
0.0
 41
1.0
 50
0.0
 71
0
 42
2.5
  3
OpenSans-SemiBoldItalic.ttf
  4

  0
STYLE
  5
47
330
5
100
AcDbSymbolTableRecord
100
AcDbTextStyleTableRecord
  2
OpenSans-Bold
 70
0
 40
0.0
 41
1.0
 50
0.0
 71
0
 42
2.5
  3
OpenSans-Bold.ttf
  4

  0
STYLE
  5
48
330
5
100
AcDbSymbolTableRecord
100
AcDbTextStyleTableRecord
  2
OpenSans-BoldItalic
 70
0
 40
0.0
 41
1.0
 50
0.0
 71
0
 42
2.5
  3
OpenSans-BoldItalic.ttf
  4

  0
STYLE
  5
49
330
5
100
AcDbSymbolTableRecord
100
AcDbTextStyleTableRecord
  2
OpenSans-ExtraBold
 70
0
 40
0.0
 41
1.0
 50
0.0
 71
0
 42
2.5
  3
OpenSans-ExtraBold.ttf
  4

  0
STYLE
  5
4A
330
5
100
AcDbSymbolTableRecord
100
AcDbTextStyleTableRecord
  2
OpenSans-ExtraBoldItalic
 70
0
 40
0.0
 41
1.0
 50
0.0
 71
0
 42
2.5
  3
OpenSans-ExtraBoldItalic.ttf
  4

  0
STYLE
  5
4B
330
5
100
AcDbSymbolTableRecord
100
AcDbTextStyleTableRecord
  2
OpenSansCondensed-Bold
 70
0
 40
0.0
 41
1.0
 50
0.0
 71
0
 42
2.5
  3
OpenSansCondensed-Bold.ttf
  4

  0
STYLE
  5
4C
330
5
100
AcDbSymbolTableRecord
100
AcDbTextStyleTableRecord
  2
OpenSansCondensed-Light
 70
0
 40
0.0
 41
1.0
 50
0.0
 71
0
 42
2.5
  3
OpenSansCondensed-Light.ttf
  4

  0
STYLE
  5
4D
330
5
100
AcDbSymbolTableRecord
100
AcDbTextStyleTableRecord
  2
OpenSansCondensed-Italic
 70
0
 40
0.0
 41
1.0
 50
0.0
 71
0
 42
2.5
  3
OpenSansCondensed-LightItalic.ttf
  4

  0
STYLE
  5
4E
330
5
100
AcDbSymbolTableRecord
100
AcDbTextStyleTableRecord
  2
LiberationSans
 70
0
 40
0.0
 41
1.0
 50
0.0
 71
0
 42
2.5
  3
LiberationSans-Regular.ttf
  4

  0
STYLE
  5
4F
330
5
100
AcDbSymbolTableRecord
100
AcDbTextStyleTableRecord
  2
LiberationSans-Bold
 70
0
 40
0.0
 41
1.0
 50
0.0
 71
0
 42
2.5
  3
LiberationSans-Bold.ttf
  4

  0
STYLE
  5
50
330
5
100
AcDbSymbolTableRecord
100
AcDbTextStyleTableRecord
  2
LiberationSans-BoldItalic
 70
0
 40
0.0
 41
1.0
 50
0.0
 71
0
 42
2.5
  3
LiberationSans-BoldItalic.ttf
  4

  0
STYLE
  5
51
330
5
100
AcDbSymbolTableRecord
100
AcDbTextStyleTableRecord
  2
LiberationSans-Italic
 70
0
 40
0.0
 41
1.0
 50
0.0
 71
0
 42
2.5
  3
LiberationSans-Italic.ttf
  4

  0
STYLE
  5
52
330
5
100
AcDbSymbolTableRecord
100
AcDbTextStyleTableRecord
  2
LiberationSerif
 70
0
 40
0.0
 41
1.0
 50
0.0
 71
0
 42
2.5
  3
LiberationSerif-Regular.ttf
  4

  0
STYLE
  5
53
330
5
100
AcDbSymbolTableRecord
100
AcDbTextStyleTableRecord
  2
LiberationSerif-Bold
 70
0
 40
0.0
 41
1.0
 50
0.0
 71
0
 42
2.5
  3
LiberationSerif-Bold.ttf
  4

  0
STYLE
  5
54
330
5
100
AcDbSymbolTableRecord
100
AcDbTextStyleTableRecord
  2
LiberationSerif-BoldItalic
 70
0
 40
0.0
 41
1.0
 50
0.0
 71
0
 42
2.5
  3
LiberationSerif-BoldItalic.ttf
  4

  0
STYLE
  5
55
330
5
100
AcDbSymbolTableRecord
100
AcDbTextStyleTableRecord
  2
LiberationSerif-Italic
 70
0
 40
0.0
 41
1.0
 50
0.0
 71
0
 42
2.5
  3
LiberationSerif-Italic.ttf
  4

  0
STYLE
  5
56
330
5
100
AcDbSymbolTableRecord
100
AcDbTextStyleTableRecord
  2
LiberationMono
 70
0
 40
0.0
 41
1.0
 50
0.0
 71
0
 42
2.5
  3
LiberationMono-Regular.ttf
  4

  0
STYLE
  5
57
330
5
100
AcDbSymbolTableRecord
100
AcDbTextStyleTableRecord
  2
LiberationMono-Bold
 70
0
 40
0.0
 41
1.0
 50
0.0
 71
0
 42
2.5
  3
LiberationMono-Bold.ttf
  4

  0
STYLE
  5
58
330
5
100
AcDbSymbolTableRecord
100
AcDbTextStyleTableRecord
  2
LiberationMono-BoldItalic
 70
0
 40
0.0
 41
1.0
 50
0.0
 71
0
 42
2.5
  3
LiberationMono-BoldItalic.ttf
  4

  0
STYLE
  5
59
330
5
100
AcDbSymbolTableRecord
100
AcDbTextStyleTableRecord
  2
LiberationMono-Italic
 70
0
 40
0.0
 41
1.0
 50
0.0
 71
0
 42
2.5
  3
LiberationMono-Italic.ttf
  4

  0
ENDTAB
  0
TABLE
  2
VIEW
  5
7
330
0
100
AcDbSymbolTable
 70
0
  0
ENDTAB
  0
TABLE
  2
UCS
  5
6
330
0
100
AcDbSymbolTable
 70
0
  0
ENDTAB
  0
TABLE
  2
APPID
  5
3
330
0
100
AcDbSymbolTable
 70
3
  0
APPID
  5
2A
330
3
100
AcDbSymbolTableRecord
100
AcDbRegAppTableRecord
  2
ACAD
 70
0
  0
APPID
  5
95
330
3
100
AcDbSymbolTableRecord
100
AcDbRegAppTableRecord
  2
HATCHBACKGROUNDCOLOR
 70
0
  0
APPID
  5
96
330
3
100
AcDbSymbolTableRecord
100
AcDbRegAppTableRecord
  2
EZDXF
 70
0
  0
ENDTAB
  0
TABLE
  2
DIMSTYLE
  5
4
330
0
100
AcDbSymbolTable
 70
12
100
AcDbDimStyleTable
  0
DIMSTYLE
105
2B
330
4
100
AcDbSymbolTableRecord
100
AcDbDimStyleTableRecord
  2
Standard
 70
0
  3

  4

 40
1.0
 41
2.5
 42
0.625
 43
3.75
 44
1.25
 45
0.0
 46
0.0
 47
0.0
 48
0.0
140
2.5
141
2.5
142
0.0
143
0.03937007874
144
1.0
145
0.0
146
1.0
147
0.625
148
0.0
 71
0
 72
0
 73
0
 74
0
 75
0
 76
0
 77
1
 78
8
 79
3
170
0
171
3
172
1
173
0
174
0
175
0
176
0
177
0
178
0
179
2
271
2
272
2
273
2
274
3
275
0
276
0
277
2
278
44
279
0
280
0
281
0
282
0
283
0
284
8
285
0
286
0
288
0
289
3
371
-2
372
-2
  0
DIMSTYLE
105
73
330
4
100
AcDbSymbolTableRecord
100
AcDbDimStyleTableRecord
  2
EZDXF
 70
0
  3

  4

 40
1.0
 41
0.175
 42
0.125
 43
3.75
 44
0.375
 45
0.0
 46
0.0
 47
0.0
 48
0.0
140
0.25
141
2.5
142
0.0
143
0.03937007874
144
100.0
145
0.0
146
0.5
147
0.1
148
0.0
 71
0
 72
0
 73
0
 74
0
 75
0
 76
0
 77
1
 78
12
 79
3
170
0
171
3
172
1
173
0
174
0
175
0
176
0
177
0
178
0
179
2
271
2
272
2
273
2
274
3
275
0
276
0
277
2
278
46
279
2
280
0
281
0
282
0
283
0
284
8
285
0
286
0
288
1
289
3
340
4C
342
74
371
-2
372
-2
  0
DIMSTYLE
105
7C
330
4
100
AcDbSymbolTableRecord
100
AcDbDimStyleTableRecord
  2
EZ_M_100_H25_CM
 70
0
  3

  4

 40
1.0
 41
0.25
 42
0.125
 43
3.75
 44
0.375
 45
0.0
 46
0.0
 47
0.0
 48
0.0
140
0.25
141
2.5
142
0.125
143
0.03937007874
144
100.0
145
0.0
146
0.5
147
0.1
148
0.0
 71
0
 72
0
 73
0
 74
0
 75
0
 76
0
 77
1
 78
12
 79
3
170
0
171
3
172
1
173
0
174
0
175
0
176
0
177
0
178
0
179
2
271
2
272
2
273
2
274
3
275
0
276
0
277
2
278
46
279
2
280
0
281
0
282
0
283
0
284
8
285
0
286
0
288
1
289
3
340
4C
371
-2
372
-2
  0
DIMSTYLE
105
7D
330
4
100
AcDbSymbolTableRecord
100
AcDbDimStyleTableRecord
  2
EZ_M_50_H25_CM
 70
0
  3

  4

 40
1.0
 41
0.125
 42
0.0625
 43
3.75
 44
0.1875
 45
0.0
 46
0.0
 47
0.0
 48
0.0
140
0.125
141
2.5
142
0.0625
143
0.03937007874
144
100.0
145
0.0
146
0.5
147
0.05
148
0.0
 71
0
 72
0
 73
0
 74
0
 75
0
 76
0
 77
1
 78
12
 79
3
170
0
171
3
172
1
173
0
174
0
175
0
176
0
177
0
178
0
179
2
271
2
272
2
273
2
274
3
275
0
276
0
277
2
278
46
279
2
280
0
281
0
282
0
283
0
284
8
285
0
286
0
288
1
289
3
340
4C
371
-2
372
-2
  0
DIMSTYLE
105
7E
330
4
100
AcDbSymbolTableRecord
100
AcDbDimStyleTableRecord
  2
EZ_M_25_H25_CM
 70
0
  3

  4

 40
1.0
 41
0.0625
 42
0.03125
 43
3.75
 44
0.09375
 45
0.0
 46
0.0
 47
0.0
 48
0.0
140
0.0625
141
2.5
142
0.03125
143
0.03937007874
144
100.0
145
0.0
146
0.5
147
0.025
148
0.0
 71
0
 72
0
 73
0
 74
0
 75
0
 76
0
 77
1
 78
12
 79
3
170
0
171
3
172
1
173
0
174
0
175
0
176
0
177
0
178
0
179
2
271
2
272
2
273
2
274
3
275
0
276
0
277
2
278
46
279
2
280
0
281
0
282
0
283
0
284
8
285
0
286
0
288
1
289
3
340
4C
371
-2
372
-2
  0
DIMSTYLE
105
7F
330
4
100
AcDbSymbolTableRecord
100
AcDbDimStyleTableRecord
  2
EZ_M_20_H25_CM
 70
0
  3

  4

 40
1.0
 41
0.05
 42
0.025
 43
3.75
 44
0.07500000000000001
 45
0.0
 46
0.0
 47
0.0
 48
0.0
140
0.05
141
2.5
142
0.025
143
0.03937007874
144
100.0
145
0.0
146
0.5
147
0.020000000000000004
148
0.0
 71
0
 72
0
 73
0
 74
0
 75
0
 76
0
 77
1
 78
12
 79
3
170
0
171
3
172
1
173
0
174
0
175
0
176
0
177
0
178
0
179
2
271
2
272
2
273
2
274
3
275
0
276
0
277
2
278
46
279
2
280
0
281
0
282
0
283
0
284
8
285
0
286
0
288
1
289
3
340
4C
371
-2
372
-2
  0
DIMSTYLE
105
80
330
4
100
AcDbSymbolTableRecord
100
AcDbDimStyleTableRecord
  2
EZ_M_10_H25_CM
 70
0
  3

  4

 40
1.0
 41
0.025
 42
0.0125
 43
3.75
 44
0.037500000000000006
 45
0.0
 46
0.0
 47
0.0
 48
0.0
140
0.025
141
2.5
142
0.0125
143
0.03937007874
144
100.0
145
0.0
146
0.5
147
0.010000000000000002
148
0.0
 71
0
 72
0
 73
0
 74
0
 75
0
 76
0
 77
1
 78
12
 79
3
170
0
171
3
172
1
173
0
174
0
175
0
176
0
177
0
178
0
179
2
271
2
272
2
273
2
274
3
275
0
276
0
277
2
278
46
279
2
280
0
281
0
282
0
283
0
284
8
285
0
286
0
288
1
289
3
340
4C
371
-2
372
-2
  0
DIMSTYLE
105
81
330
4
100
AcDbSymbolTableRecord
100
AcDbDimStyleTableRecord
  2
EZ_M_5_H25_CM
 70
0
  3

  4

 40
1.0
 41
0.0125
 42
0.00625
 43
3.75
 44
0.018750000000000003
 45
0.0
 46
0.0
 47
0.0
 48
0.0
140
0.0125
141
2.5
142
0.00625
143
0.03937007874
144
100.0
145
0.0
146
0.5
147
0.005000000000000001
148
0.0
 71
0
 72
0
 73
0
 74
0
 75
0
 76
0
 77
1
 78
12
 79
3
170
0
171
3
172
1
173
0
174
0
175
0
176
0
177
0
178
0
179
2
271
2
272
2
273
2
274
3
275
0
276
0
277
2
278
46
279
2
280
0
281
0
282
0
283
0
284
8
285
0
286
0
288
1
289
3
340
4C
371
-2
372
-2
  0
DIMSTYLE
105
82
330
4
100
AcDbSymbolTableRecord
100
AcDbDimStyleTableRecord
  2
EZ_M_1_H25_CM
 70
0
  3

  4

 40
1.0
 41
0.0025
 42
0.00125
 43
3.75
 44
0.00375
 45
0.0
 46
0.0
 47
0.0
 48
0.0
140
0.0025
141
2.5
142
0.00125
143
0.03937007874
144
100.0
145
0.0
146
0.5
147
0.001
148
0.0
 71
0
 72
0
 73
0
 74
0
 75
0
 76
0
 77
1
 78
12
 79
3
170
0
171
3
172
1
173
0
174
0
175
0
176
0
177
0
178
0
179
2
271
2
272
2
273
2
274
3
275
0
276
0
277
2
278
46
279
2
280
0
281
0
282
0
283
0
284
8
285
0
286
0
288
1
289
3
340
4C
371
-2
372
-2
  0
DIMSTYLE
105
83
330
4
100
AcDbSymbolTableRecord
100
AcDbDimStyleTableRecord
  2
EZ_RADIUS
 70
0
  3

  4

 40
1.0
 41
0.25
 42
0.125
 43
3.75
 44
0.375
 45
0.0
 46
0.0
 47
0.0
 48
0.0
140
0.25
141
0.0
142
0.0
143
0.03937007874
144
100.0
145
0.0
146
0.5
147
0.1
148
0.0
 71
0
 72
0
 73
0
 74
0
 75
0
 76
0
 77
1
 78
12
 79
3
170
0
171
3
172
0
173
0
174
0
175
0
176
0
177
0
178
0
179
2
271
2
272
2
273
2
274
3
275
0
276
0
277
2
278
46
279
1
280
0
281
0
282
0
283
0
284
8
285
0
286
0
288
1
289
3
340
4C
342
84
371
-2
372
-2
  0
DIMSTYLE
105
88
330
4
100
AcDbSymbolTableRecord
100
AcDbDimStyleTableRecord
  2
EZ_RADIUS_INSIDE
 70
0
  3

  4

 40
1.0
 41
0.25
 42
0.125
 43
3.75
 44
0.375
 45
0.0
 46
0.0
 47
0.0
 48
0.0
140
0.25
141
0.0
142
0.0
143
0.03937007874
144
100.0
145
0.0
146
0.5
147
0.1
148
0.0
 71
0
 72
0
 73
0
 74
0
 75
0
 76
0
 77
0
 78
12
 79
3
170
0
171
3
172
0
173
0
174
1
175
0
176
0
177
0
178
0
179
2
271
2
272
2
273
2
274
3
275
0
276
0
277
2
278
46
279
0
280
0
281
0
282
0
283
0
284
8
285
0
286
0
288
1
289
0
340
4C
342
84
371
-2
372
-2
  0
DIMSTYLE
105
89
330
4
100
AcDbSymbolTableRecord
100
AcDbDimStyleTableRecord
  2
EZ_CURVED
 70
0
  3

  4

 40
1.0
 41
0.25
 42
0.125
 43
3.75
 44
0.375
 45
0.0
 46
0.0
 47
0.0
 48
0.0
140
0.25
141
2.5
142
0.0
143
0.03937007874
144
100.0
145
0.0
146
0.5
147
0.1
148
0.0
 71
0
 72
0
 73
0
 74
0
 75
0
 76
0
 77
1
 78
12
 79
2
 90
2
170
0
171
3
172
1
173
0
174
0
175
0
176
0
177
0
178
0
179
2
271
2
272
2
273
2
274
3
275
0
276
0
277
2
278
46
279
2
280
0
281
0
282
0
283
0
284
8
285
0
286
0
288
1
289
3
340
4C
371
-2
372
-2
  0
ENDTAB
  0
TABLE
  2
BLOCK_RECORD
  5
9
330
0
100
AcDbSymbolTable
 70
5
  0
BLOCK_RECORD
  5
17
330
9
100
AcDbSymbolTableRecord
100
AcDbBlockTableRecord
  2
*Model_Space
340
1A
  0
BLOCK_RECORD
  5
1B
330
9
100
AcDbSymbolTableRecord
100
AcDbBlockTableRecord
  2
*Paper_Space
340
1E
  0
BLOCK_RECORD
  5
74
330
9
100
AcDbSymbolTableRecord
100
AcDbBlockTableRecord
  2
_ARCHTICK
340
0
  0
BLOCK_RECORD
  5
78
330
9
100
AcDbSymbolTableRecord
100
AcDbBlockTableRecord
  2
_CLOSEDFILLED
340
0
  0
BLOCK_RECORD
  5
84
330
9
100
AcDbSymbolTableRecord
100
AcDbBlockTableRecord
  2
_CLOSEDBLANK
340
0
  0
ENDTAB
  0
ENDSEC
  0
SECTION
  2
BLOCKS
  0
BLOCK
  5
18
330
17
100
AcDbEntity
  8
0
100
AcDbBlockBegin
  2
*Model_Space
 70
0
 10
0.0
 20
0.0
 30
0.0
  3
*Model_Space
  1

  0
ENDBLK
  5
19
330
17
100
AcDbEntity
  8
0
100
AcDbBlockEnd
  0
BLOCK
  5
1C
330
1B
100
AcDbEntity
  8
0
100
AcDbBlockBegin
  2
*Paper_Space
 70
0
 10
0.0
 20
0.0
 30
0.0
  3
*Paper_Space
  1

  0
ENDBLK
  5
1D
330
1B
100
AcDbEntity
  8
0
100
AcDbBlockEnd
  0
BLOCK
  5
75
330
74
100
AcDbEntity
  8
0
100
AcDbBlockBegin
  2
_ARCHTICK
 70
0
 10
0.0
 20
0.0
 30
0.0
  3
_ARCHTICK
  1

  0
LWPOLYLINE
  5
77
330
74
100
AcDbEntity
  8
0
  6
BYBLOCK
 62
0
100
AcDbPolyline
 90
2
 70
0
 43
0.15
 10
-0.5
 20
-0.5
 10
0.5
 20
0.5
  0
ENDBLK
  5
76
330
74
100
AcDbEntity
  8
0
100
AcDbBlockEnd
  0
BLOCK
  5
79
330
78
100
AcDbEntity
  8
0
100
AcDbBlockBegin
  2
_CLOSEDFILLED
 70
0
 10
0.0
 20
0.0
 30
0.0
  3
_CLOSEDFILLED
  1

  0
SOLID
  5
7B
330
78
100
AcDbEntity
  8
0
  6
BYBLOCK
 62
0
100
AcDbTrace
 10
-1.0
 20
0.16439898372402537
 30
0.0
 11
0.0
 21
0.0
 31
0.0
 12
-1.0
 22
-0.16439898372402537
 32
0.0
 13
-1.0
 23
-0.16439898372402537
 33
0.0
  0
ENDBLK
  5
7A
330
78
100
AcDbEntity
  8
0
100
AcDbBlockEnd
  0
BLOCK
  5
85
330
84
100
AcDbEntity
  8
0
100
AcDbBlockBegin
  2
_CLOSEDBLANK
 70
0
 10
0.0
 20
0.0
 30
0.0
  3
_CLOSEDBLANK
  1

  0
LWPOLYLINE
  5
87
330
84
100
AcDbEntity
  8
0
  6
BYBLOCK
 62
0
100
AcDbPolyline
 90
3
 70
1
 10
-1.0
 20
0.16439898372402537
 10
0.0
 20
0.0
 10
-1.0
 20
-0.16439898372402537
  0
ENDBLK
  5
86
330
84
100
AcDbEntity
  8
0
100
AcDbBlockEnd
  0
ENDSEC
  0
SECTION
  2
ENTITIES
  0
LWPOLYLINE
  5
8B
330
17
100
AcDbEntity
  8
LOGO
100
AcDbPolyline
 90
153
 70
1
 10
37.28459282980856
 20
65.9449873364663
 10
37.29271172230007
 20
66.38417836051408
 10
37.316914808639225
 20
66.82036635775584
 10
37.356971702122976
 20
67.25319957014227
 10
37.412652016048284
 20
67.68232623962405
 10
37.4837253637121
 20
68.10739460815186
 10
37.569961358411376
 20
68.52805291767645
 10
37.67112961344306
 20
68.94394941014843
 10
37.78699974210411
 20
69.35473232751858
 10
37.91734135769148
 20
69.76004991173751
 10
38.06192407350211
 20
70.15955040475598
 10
38.220517502832976
 20
70.55288204852462
 10
38.392891258981024
 20
70.93969308499416
 10
38.578814955243196
 20
71.31963175611529
 10
38.77805820491645
 20
71.69234630383869
 10
38.990390621297735
 20
72.05748497011506
 10
39.21558181768402
 20
72.41469599689509
 10
39.45340140737224
 20
72.76362762612946
 10
39.703619003659355
 20
73.10392809976888
 10
39.96600421984231
 20
73.43524565976404
 10
40.240326669218085
 20
73.7572285480656
 10
40.5263559650836
 20
74.06952500662427
 10
40.82386172073583
 20
74.37178327739078
 10
41.13261354947172
 20
74.6636516023158
 10
41.45238106458821
 20
74.94477822334999
 10
41.78293387938227
 20
75.21481138244407
 10
42.12404160715086
 20
75.47339932154873
 10
42.475473861190906
 20
75.72019028261464
 10
42.83700025479939
 20
75.95483250759253
 10
43.20839040127324
 20
76.17697423843305
 10
43.589413913909425
 20
76.38626371708692
 10
43.9798404060049
 20
76.58234918550482
 10
44.379439490856605
 20
76.76487888563746
 10
44.061908177420406
 20
77.49321708195671
 10
43.63562467624275
 20
77.2983186761228
 10
43.2191115461149
 20
77.08895787521034
 10
42.81261552571786
 20
76.86551005567098
 10
42.41638335373264
 20
76.62835059395636
 10
42.03066176884024
 20
76.37785486651812
 10
41.655697509721676
 20
76.11439824980789
 10
41.29173731505793
 20
75.83835612027734
 10
40.93902792353001
 20
75.5501038543781
 10
40.59781607381893
 20
75.25001682856183
 10
40.26834850460568
 20
74.93847041928014
 10
39.950871954571284
 20
74.61584000298471
 10
39.64563316239672
 20
74.28250095612718
 10
39.35287886676301
 20
73.93882865515918
 10
39.07285580635115
 20
73.58519847653236
 10
38.80581071984214
 20
73.22198579669836
 10
38.551990345917
 20
72.84956599210884
 10
38.31164142325671
 20
72.46831443921542
 10
38.08501069054229
 20
72.07860651446978
 10
37.872344886454734
 20
71.68081759432354
 10
37.67389074967505
 20
71.27532305522834
 10
37.48989501888424
 20
70.86249827363584
 10
37.32060443276332
 20
70.44271862599766
 10
37.16626572999327
 20
70.01635948876547
 10
37.02712564925511
 20
69.58379623839092
 10
36.90343092922984
 20
69.14540425132562
 10
36.79542830859846
 20
68.70155890402124
 10
36.70336452604197
 20
68.25263557292942
 10
36.62748632024139
 20
67.79900963450183
 10
36.568040429877705
 20
67.34105646519006
 10
36.52527359363193
 20
66.87915144144579
 10
36.499432550185055
 20
66.41366993972066
 10
36.490764038218096
 20
65.9449873364663
 10
36.49479401997512
 20
65.62310372428112
 10
36.50682303750903
 20
65.30330580274344
 10
36.526759699214104
 20
64.98568500911705
 10
36.55451261348459
 20
64.67033278066577
 10
36.589990388714774
 20
64.35734055465339
 10
36.6331016332989
 20
64.04679976834369
 10
36.683754955631244
 20
63.7388018590005
 10
36.74185896410607
 20
63.433438263887616
 10
36.80732226711764
 20
63.13080042026881
 10
36.88005347306022
 20
62.8309797654079
 10
36.95996119032808
 20
62.53406773656868
 10
37.046954027315486
 20
62.240155771014955
 10
37.14094059241669
 20
61.949335306010504
 10
37.24182949402598
 20
61.66169777881915
 10
37.34952934053759
 20
61.37733462670467
 10
37.46394874034582
 20
61.09633728693089
 10
37.712580633429134
 20
60.54480579346057
 10
37.98699404043003
 20
60.007834796518566
 10
38.28645782850265
 20
59.48615579421528
 10
38.6102408648011
 20
58.98050028466108
 10
38.957612016479494
 20
58.491599765966384
 10
39.327840150691976
 20
58.02018573624157
 10
39.72019413459265
 20
57.56698969359703
 10
40.133942835335645
 20
57.13274313614315
 10
40.568355120075076
 20
56.71817756199032
 10
41.02269985596507
 20
56.32402446924894
 10
41.49624591015974
 20
55.951015356029394
 10
41.98826214981322
 20
55.599881720442056
 10
42.49801744207962
 20
55.27135506059735
 10
43.024780654113066
 20
54.96616687460564
 10
43.56782065306767
 20
54.68504866057732
 10
44.126406306097564
 20
54.428731916622795
 10
44.69980648035688
 20
54.19794814085243
 10
45.28729004299971
 20
53.99342883137663
 10
45.58608461595062
 20
53.90124694465869
 10
45.88812586118019
 20
53.815905486305795
 10
46.19332238708272
 20
53.73749589358172
 10
46.501582802052454
 20
53.66610960375029
 10
46.812815714483655
 20
53.6018380540753
 10
47.12692973277059
 20
53.544772681820525
 10
47.44383346530755
 20
53.495004924249784
 10
47.76343552048876
 20
53.45262621862687
 10
48.085644506708505
 20
53.41772800221558
 10
48.410369032361054
 20
53.39040171227973
 10
48.737517705840666
 20
53.37073878608311
 10
49.06699913554161
 20
53.35883066088951
 10
50.172344833027196
 20
53.31597733048758
 10
51.58095746912668
 20
53.24670331806149
 10
53.32986148458901
 20
53.15243534948932
 10
53.37550697602044
 20
53.94427862316252
 10
51.580957998293314
 20
54.04077893414168
 10
50.18729208417524
 20
54.10865773256339
 10
49.08684669471463
 20
54.15067393456271
 10
48.470675641763954
 20
54.18015370325037
 10
47.86359833274223
 20
54.23836714586163
 10
47.26630120370606
 20
54.324628189108445
 10
46.67947069071206
 20
54.43825075970274
 10
46.10379322981682
 20
54.57854878435646
 10
45.53995525707696
 20
54.74483618978153
 10
44.98864320854908
 20
54.936426902689895
 10
44.45054352028976
 20
55.1526348497935
 10
43.926342628355634
 20
55.39277395780426
 10
43.41672696880329
 20
55.65615815343413
 10
42.922382977689324
 20
55.94210136339503
 10
42.44399709107035
 20
56.24991751439891
 10
41.98225574500297
 20
56.5789205331577
 10
41.537845375543796
 20
56.92842434638332
 10
41.11145241874942
 20
57.29774288078774
 10
40.70376331067645
 20
57.68619006308286
 10
40.31546448738149
 20
58.093079819980645
 10
39.94724238492114
 20
58.517726078193014
 10
39.59978343935201
 20
58.959442764431905
 10
39.2737740867307
 20
59.41754380540927
 10
38.9699007631138
 20
59.89134312783702
 10
38.688849904557934
 20
60.3801546584271
 10
38.431307947119706
 20
60.88329232389147
 10
38.197961326855705
 20
61.40007005094202
 10
37.98949647982254
 20
61.92980176629072
 10
37.80659984207682
 20
62.47180139664951
 10
37.64995784967515
 20
63.0253828687303
 10
37.52025693867412
 20
63.58986010924503
 10
37.41818354513035
 20
64.16454704490566
 10
37.34442410510042
 20
64.7487576024241
 10
37.318376628920845
 20
65.04421984147749
 10
37.29966505464096
 20
65.34180570851231
 10
37.28837518676784
 20
65.64142944436756
 10
37.28459282980856
 20
65.94300528988221
  0
LWPOLYLINE
  5
8C
330
17
100
AcDbEntity
  8
LOGO
100
AcDbPolyline
 90
152
 70
1
 10
95.00787138800519
 20
66.34587213309611
 10
94.99975248962258
 20
65.90668134709578
 10
94.97554938685032
 20
65.47049358743641
 10
94.93549246825182
 20
65.0376606117022
 10
94.87981212239048
 20
64.60853417747737
 10
94.80873873782967
 20
64.18346604234614
 10
94.72250270313286
 20
63.76280796389273
 10
94.6213344068634
 20
63.34691169970135
 10
94.50546423758465
 20
62.936129007356236
 10
94.37512258386006
 20
62.5308116444416
 10
94.23053983425305
 20
62.13131136854166
 10
94.07194637732695
 20
61.73797993724066
 10
93.89957260164523
 20
61.35116910812279
 10
93.71364889577123
 20
60.97123063877229
 10
93.51440564826841
 20
60.598516286773375
 10
93.30207324770011
 20
60.233377809710255
 10
93.07688208262974
 20
59.87616696516716
 10
92.83906254162072
 20
59.52723551072831
 10
92.58884501323642
 20
59.18693520397792
 10
92.32645988604028
 20
58.85561780250023
 10
92.05213754859567
 20
58.53363506387943
 10
91.76610838946596
 20
58.221338745699754
 10
91.46860279721463
 20
57.91908060554544
 10
91.15985116040498
 20
57.62721240100068
 10
90.8400838676005
 20
57.346085889649714
 10
90.5095313073645
 20
57.07605282907675
 10
90.16842386826048
 20
56.81746497686601
 10
89.81699193885176
 20
56.57067409060171
 10
89.45546590770176
 20
56.3360319278681
 10
89.0840761633739
 20
56.11389024624937
 10
88.70305309443154
 20
55.90460080332975
 10
88.31262708943811
 20
55.70851535669346
 10
87.91302853695697
 20
55.52598566392472
 10
88.22857441714257
 20
54.797642387605684
 10
88.65503787084543
 20
54.99254103133203
 10
89.07171970496074
 20
55.20190206874167
 10
89.47837354383958
 20
55.425350121987684
 10
89.87475301183305
 20
55.66250981322318
 10
90.26061173329224
 20
55.91300576460124
 10
90.63570333256821
 20
56.176462598274945
 10
90.99978143401205
 20
56.4525049363974
 10
91.35259966197486
 20
56.74075740112172
 10
91.69391164080776
 20
57.04084461460095
 10
92.02347099486174
 20
57.35239119898821
 10
92.34103134848795
 20
57.6750217764366
 10
92.64634632603747
 20
58.00836096909918
 10
92.93916955186143
 20
58.35203339912907
 10
93.21925465031082
 20
58.70566368867934
 10
93.48635524573679
 20
59.068876459903095
 10
93.74022496249044
 20
59.44129633495344
 10
93.98061742492281
 20
59.822547935983444
 10
94.20728625738502
 20
60.2122558851462
 10
94.41998508422812
 20
60.610044804594814
 10
94.61846752980325
 20
61.01553931648237
 10
94.80248721846147
 20
61.428364042961974
 10
94.97179777455382
 20
61.848143606186696
 10
95.12615282243144
 20
62.27450262830962
 10
95.26530598644541
 20
62.70706573148388
 10
95.38901089094682
 20
63.14545753786253
 10
95.4970211602867
 20
63.58930266959867
 10
95.58909041881621
 20
64.03822574884542
 10
95.66497229088638
 20
64.49185139775582
 10
95.72442040084836
 20
64.949804238483
 10
95.76718837305317
 20
65.41170889318005
 10
95.79302983185192
 20
65.87718998400004
 10
95.80169840159571
 20
66.34587213309611
 10
95.7976684213893
 20
66.66775597787367
 10
95.78563940850853
 20
66.9875541211323
 10
95.76570275456108
 20
67.30517512589887
 10
95.73794985115458
 20
67.6205275552003
 10
95.70247208989676
 20
67.93351997206344
 10
95.65936086239525
 20
68.24406093951515
 10
95.60870756025771
 20
68.55205902058235
 10
95.55060357509186
 20
68.8574227782919
 10
95.48514029850534
 20
69.1600607756707
 10
95.41240912210584
 20
69.45988157574561
 10
95.33250143750105
 20
69.7567937415435
 10
95.24550863629861
 20
70.05070583609131
 10
95.1515221101062
 20
70.34152642241585
 10
95.05063325053149
 20
70.62916406354405
 10
94.94293344918219
 20
70.91352732250277
 10
94.82851409766589
 20
71.1945247623189
 10
94.57988231056318
 20
71.7460564366309
 10
94.30546902208475
 20
72.28302759069508
 10
94.006005365092
 20
72.80470672872652
 10
93.68222247244626
 20
73.31036235494025
 10
93.33485147700897
 20
73.79926297355132
 10
92.96462351164149
 20
74.27067708877479
 10
92.57226970920519
 20
74.7238732048257
 10
92.15852120256143
 20
75.1581198259191
 10
91.72410912457165
 20
75.57268545627004
 10
91.2697646080972
 20
75.96683860009357
 10
90.79621878599947
 20
76.33984776160474
 10
90.30420279113982
 20
76.69098144501861
 10
89.79444775637965
 20
77.01950815455021
 10
89.26768481458035
 20
77.3246963944146
 10
88.72464509860329
 20
77.60581466882684
 10
88.16605974130985
 20
77.86213148200194
 10
87.59265987556141
 20
78.092915338155
 10
87.00517663421937
 20
78.29743474150104
 10
86.70638222671992
 20
78.38961668093862
 10
86.4043411501451
 20
78.47495819625509
 10
86.09914479610255
 20
78.55336785047734
 10
85.79088455619997
 20
78.62475420663225
 10
85.47965182204503
 20
78.68902582774669
 10
85.16553798524538
 20
78.74609127684754
 10
84.84863443740872
 20
78.79585911696168
 10
84.52903257014269
 20
78.83823791111598
 10
84.20682377505501
 20
78.87313622233737
 10
83.8820994437533
 20
78.90046261365269
 10
83.55495096784527
 20
78.92012564808881
 10
83.2254697389386
 20
78.93203388867266
 10
82.12012195124477
 20
78.97488646501213
 10
80.71150738368704
 20
79.04415964400076
 10
78.96260315655805
 20
79.13842666007297
 10
78.91894225171059
 20
78.34658338639977
 10
80.71274573946877
 20
78.25008307542063
 10
82.10631846734074
 20
78.18220499137388
 10
83.20759999301652
 20
78.14018807499959
 10
83.82376543344178
 20
78.11070830631192
 10
84.43082623044882
 20
78.05249486370066
 10
85.02809667444825
 20
77.96623382045385
 10
85.61489105585073
 20
77.85261124985955
 10
86.19052366506693
 20
77.71231322520583
 10
86.75430879250749
 20
77.54602581978075
 10
87.30556072858306
 20
77.35443510687239
 10
87.84359376370428
 20
77.13822715976879
 10
88.36772218828182
 20
76.89808805175802
 10
88.8772602927263
 20
76.63470385612816
 10
89.37152236744842
 20
76.34876064616725
 10
89.84982270285879
 20
76.04094449516337
 10
90.31147558936807
 20
75.71194147640459
 10
90.75579531738691
 20
75.36243766317897
 10
91.18209617732599
 20
74.99311912877455
 10
91.58969245959598
 20
74.60467194647941
 10
91.97789845460748
 20
74.19778218958163
 10
92.34602845277112
 20
73.77313593136927
 10
92.69339674449758
 20
73.33141924513038
 10
93.01931762019753
 20
72.87331820415301
 10
93.3231053702816
 20
72.39951888172527
 10
93.60407428516048
 20
71.91070735113517
 10
93.86153865524477
 20
71.40756968567082
 10
94.09481277094514
 20
70.89079195862026
 10
94.30321092267224
 20
70.36106024327155
 10
94.48604740083672
 20
69.81906061291278
 10
94.64263649584925
 20
69.26547914083199
 10
94.77229249812045
 20
68.70100190031724
 10
94.87432969806098
 20
68.12631496465661
 10
94.94806238608152
 20
67.54210440713817
 10
94.99280485259271
 20
66.94905630104996
 10
95.00409046853561
 20
66.64943256519472
 10
95.00787138800519
 20
66.34785671968007
  0
LWPOLYLINE
  5
8D
330
17
100
AcDbEntity
  8
LOGO
100
AcDbPolyline
 90
153
 70
1
 10
54.15345983693907
 20
83.20481663064005
 10
54.182939605626736
 20
83.82098768359072
 10
54.24115304823799
 20
84.42806499261245
 10
54.327414091484805
 20
85.02536212164861
 10
54.4410366620791
 20
85.61219263464261
 10
54.58133468673282
 20
86.18787009553785
 10
54.7476220921579
 20
86.75170806827771
 10
54.93921280506626
 20
87.3030201168056
 10
55.15542075216986
 20
87.8411198050649
 10
55.395559860180626
 20
88.36532069699902
 10
55.65894405581049
 20
88.87493635655139
 10
55.9448872657714
 20
89.36928034766535
 10
56.25270341677527
 20
89.84766623428432
 10
56.58170643553406
 20
90.3094075803517
 10
56.93121024875969
 20
90.75381794981088
 10
57.3005287831641
 20
91.18021090660524
 10
57.68897596545923
 20
91.58790001467821
 10
58.09586572235701
 20
91.97619883797316
 10
58.520511980569374
 20
92.34442094043352
 10
58.96222866680827
 20
92.69187988600267
 10
59.420329707785626
 20
93.01788923862398
 10
59.89412903021338
 20
93.32176256224086
 10
60.38294056080347
 20
93.60281342079672
 10
60.886078226267834
 20
93.86035537823497
 10
61.40285595331839
 20
94.09370199849896
 10
61.93258766866709
 20
94.30216684553213
 10
62.47458729902587
 20
94.48506348327784
 10
63.02816877110666
 20
94.64170547567953
 10
63.59264601162139
 20
94.77140638668054
 10
64.16733294728202
 20
94.87347978022433
 10
64.75154350480047
 20
94.94723922025423
 10
65.04700574385384
 20
94.97328669643383
 10
65.34459161088867
 20
94.99199827071372
 10
65.64421534674392
 20
95.00328813858683
 10
65.94579119225857
 20
95.00707049554612
 10
66.38498197825889
 20
94.99895160305459
 10
66.82116973791827
 20
94.97474851671545
 10
67.25400271365248
 20
94.93469162323171
 10
67.68312914787731
 20
94.87901130930638
 10
68.10819728300854
 20
94.80793796164257
 10
68.52885536146195
 20
94.7217019669433
 10
68.94475162565332
 20
94.62053371191162
 10
69.35553431799843
 20
94.50466358325056
 10
69.76085168091308
 20
94.37432196766319
 10
70.16035195681302
 20
94.22973925185256
 10
70.55368338811402
 20
94.07114582252169
 10
70.94049421723189
 20
93.89877206637365
 10
71.32043268658238
 20
93.71284837011146
 10
71.6931470385813
 20
93.5136051204382
 10
72.05828551564441
 20
93.3012727040569
 10
72.41549636018752
 20
93.07608150767065
 10
72.76442781462636
 20
92.83826191798246
 10
73.10472812137675
 20
92.58804432169532
 10
73.43604552285446
 20
92.32565910551234
 10
73.75802826147525
 20
92.05133665613661
 10
74.07032457965492
 20
91.7653073602711
 10
74.37258271980923
 20
91.46780160461886
 10
74.66445092435399
 20
91.15904977588295
 10
74.94557743570496
 20
90.83928226076647
 10
75.21561049627793
 20
90.50872944597242
 10
75.47419834848867
 20
90.16762171820385
 10
75.72098923475296
 20
89.81618946416381
 10
75.95563139748657
 20
89.45466307055531
 10
76.17777307910531
 20
89.08327292408144
 10
76.38706252202493
 20
88.70224941144527
 10
76.58314796866121
 20
88.3118229193498
 10
76.76567766142995
 20
87.91222383449806
 10
77.49402093774899
 20
88.22975514793426
 10
77.29912229402265
 20
88.6560386491119
 10
77.089761256613
 20
89.07255177923975
 10
76.86631320336699
 20
89.4790477996368
 10
76.6291535121315
 20
89.87527997162202
 10
76.37865756075344
 20
90.26100155651444
 10
76.11520072707974
 20
90.635965815633
 10
75.83915838895727
 20
90.99992601029676
 10
75.55090592423296
 20
91.35263540182467
 10
75.25081871075372
 20
91.69384725153574
 10
74.93927212636646
 20
92.02331482074898
 10
74.61664154891808
 20
92.34079137078338
 10
74.28330235625549
 20
92.64603016295796
 10
73.9396299262256
 20
92.93878445859164
 10
73.58599963667534
 20
93.2188075190035
 10
73.22278686545158
 20
93.48585260551249
 10
72.85036699040124
 20
93.73967297943766
 10
72.46911538937123
 20
93.98002190209793
 10
72.07940744020847
 20
94.20665263481236
 10
71.68161852075986
 20
94.41931843889992
 10
71.2761240088723
 20
94.61777257567961
 10
70.8632992823927
 20
94.80176830647042
 10
70.44351971916798
 20
94.97105889259136
 10
70.01716069704506
 20
95.12539759536142
 10
69.5845975938708
 20
95.26453767609955
 10
69.14620578749215
 20
95.38823239612482
 10
68.702360655756
 20
95.4962350167562
 10
68.25343757650926
 20
95.58829879931268
 10
67.79981192759885
 20
95.66417700511327
 10
67.34185908687168
 20
95.72362289547694
 10
66.87995443217463
 20
95.76638973172274
 10
66.41447334135464
 20
95.7922307751696
 10
65.94579119225857
 20
95.80089928713657
 10
65.62399749057967
 20
95.79686930537956
 10
65.30428381247194
 20
95.78484028784564
 10
64.98674173117924
 20
95.76490362614057
 10
64.67146281994543
 20
95.73715071187006
 10
64.3585386520144
 20
95.70167293663985
 10
64.04806080063
 20
95.65856169205574
 10
63.74012083903608
 20
95.60790836972342
 10
63.43481034047653
 20
95.54980436124859
 10
63.13222087819521
 20
95.48434105823704
 10
62.83244402543597
 20
95.41160985229445
 10
62.53557135544269
 20
95.33170213502659
 10
62.24169444145923
 20
95.2447092980392
 10
61.95090485672945
 20
95.15072273293798
 10
61.663294174497224
 20
95.04983383132871
 10
61.37895396800642
 20
94.94213398481709
 10
61.0979758105009
 20
94.82771458500885
 10
60.54647193542116
 20
94.57908269192554
 10
60.00951513520891
 20
94.30466928492464
 10
59.487837995815084
 20
94.00520549685203
 10
58.982173103190604
 20
93.68142246055358
 10
58.49325304328638
 20
93.33405130887519
 10
58.02181040205337
 20
92.9638231746627
 10
57.56857776544246
 20
92.57146919076203
 10
57.134287719404576
 20
92.15772049001903
 10
56.719672849890635
 20
91.7233082052796
 10
56.32546574285159
 20
91.26896346938959
 10
55.95239898423832
 20
90.79541741519493
 10
55.60120516000177
 20
90.30340117554145
 10
55.27261685609284
 20
89.79364588327506
 10
54.967366658462474
 20
89.2668826712416
 10
54.68618715306159
 20
88.72384267228699
 10
54.4298109258411
 20
88.1652570192571
 10
54.19897056275194
 20
87.59185684499779
 10
53.994398649745
 20
87.00437328235496
 10
53.902192295132046
 20
86.70557870940407
 10
53.81682777277123
 20
86.40353746417448
 10
53.73839665590643
 20
86.09834093827196
 10
53.666990517781535
 20
85.79008052330222
 10
53.6027009316404
 20
85.47884761087103
 10
53.545619470726855
 20
85.16473359258408
 10
53.4958377082848
 20
84.84782986004713
 10
53.453447217558086
 20
84.52822780486592
 10
53.418539571790575
 20
84.20601881864617
 10
53.39120634422617
 20
83.88129429299362
 10
53.3715391081087
 20
83.554145619514
 10
53.359629436682006
 20
83.22466418981307
 10
53.316776860342536
 20
82.11931849232748
 10
53.24750368135391
 20
80.71070585622799
 10
53.1532366652817
 20
78.96180184076567
 10
53.945079938954905
 20
78.91814008925158
 10
54.04158024993405
 20
80.71269023114532
 10
54.1094583339808
 20
82.10635652890922
 10
54.15147525035509
 20
83.20680206389065
  0
LWPOLYLINE
  5
8E
330
17
100
AcDbEntity
  8
LOGO
100
AcDbPolyline
 90
1434
 70
1
 10
49.92830463298721
 20
40.383695861520145
 10
37.91370161226236
 20
36.54156332827569
 10
37.82139972382832
 20
36.52070913043368
 10
37.736795804143846
 20
36.5168790933667
 10
37.66033172488584
 20
36.52663109057755
 10
37.592449357731205
 20
36.546522995569035
 10
37.53359057435682
 20
36.573112681843945
 10
37.48419724643962
 20
36.60295802290507
 10
37.41557444368433
 20
36.65864716339719
 10
37.35771178691819
 20
36.72556642394222
 10
37.32633856067983
 20
36.77411920983585
 10
37.297988715167065
 20
36.83230018282831
 10
37.27615073485172
 20
36.89978390543316
 10
37.26431310420563
 20
36.976244940163944
 10
37.265964307700635
 20
37.06135784953425
 10
37.28459282980856
 20
37.15479719605761
 10
40.58493703562755
 20
48.46487655147095
 10
41.182076243028
 20
48.18582500611893
 10
41.78833186723609
 20
47.92630947307791
 10
42.40314600521259
 20
47.68651656296512
 10
43.02596075391822
 20
47.46663288639776
 10
41.69034371956893
 20
41.51887176755449
 10
41.68079317180021
 20
41.420261589788254
 10
41.69580156550819
 20
41.32388486567895
 10
41.7338804925049
 20
41.23420739129051
 10
41.793541544602355
 20
41.15569496268685
 10
41.87090880367039
 20
41.0944827776332
 10
41.95999762250002
 20
41.05448094107078
 10
42.056156499285066
 20
41.03680617982806
 10
42.154733932219344
 20
41.04257522073352
 10
52.02004449916472
 20
42.99737607261682
 10
52.25929324548691
 20
42.46241754096937
 10
52.5164456757616
 20
41.93983156104152
 10
52.791055914432434
 20
41.42992047111044
 10
53.082678085943
 20
40.93298660945335
 10
53.39086631473696
 20
40.44933231434743
 10
53.715174725257924
 20
39.979259924069886
 10
54.05515744194951
 20
39.52307177689792
 10
54.41036858925538
 20
39.081070211108724
 10
54.78036229161913
 20
38.65355756497949
 10
55.16469267348439
 20
38.240836176787425
 10
55.56291385929478
 20
37.84320838480972
 10
55.97457997349396
 20
37.460976527323574
 10
56.39924514052553
 20
37.09444294260618
 10
56.83646348483312
 20
36.74390996893475
 10
57.285789130860366
 20
36.409679944586465
 10
57.74677620305088
 20
36.09205520783853
 10
58.218978825848296
 20
35.79133809696813
 10
58.701951123696254
 20
35.50783095025249
 10
59.19524722103837
 20
35.241836105968794
 10
59.69842124231827
 20
34.99365590239423
 10
60.21102731197958
 20
34.763592677806
 10
60.73261955446593
 20
34.55194877048131
 10
61.26275209422095
 20
34.359026518697355
 10
61.80097905568826
 20
34.185128260731325
 10
62.34685456331148
 20
34.030556334860414
 10
62.89993274153425
 20
33.89561307936184
 10
63.45976771480021
 20
33.78060083251279
 10
64.02591360755295
 20
33.68582193259044
 10
64.59792454423614
 20
33.61157871787202
 10
65.17535464929337
 20
33.55817352663471
 10
65.75775804716828
 20
33.52590869715572
 10
66.34468886230451
 20
33.51508656771223
 10
66.73093197429007
 20
33.51982760210657
 10
67.11559072692513
 20
33.53401412561173
 10
67.49853430060335
 20
33.55759126871097
 10
67.87963187571835
 20
33.59050416188754
 10
68.25875263266376
 20
33.63269793562466
 10
68.63576575183322
 20
33.684117720405595
 10
69.01054041362035
 20
33.74470864671357
 10
69.3829457984188
 20
33.814415845031846
 10
69.7528510866222
 20
33.893184445843644
 10
70.1201254586242
 20
33.980959579632234
 10
70.48463809481842
 20
34.07768637688084
 10
70.84625817559848
 20
34.18330996807271
 10
71.20485488135805
 20
34.29777548369109
 10
71.56029739249074
 20
34.42102805421922
 10
71.91245488939016
 20
34.55301281014035
 10
72.26119655245
 20
34.69367488193771
 10
72.60639156206386
 20
34.84295940009455
 10
72.94790909862537
 20
35.000811495094126
 10
73.28561834252821
 20
35.167176297419665
 10
73.61938847416596
 20
35.341998937554415
 10
73.94908867393228
 20
35.525224545981615
 10
74.27458812222079
 20
35.71679825318452
 10
74.59575599942514
 20
35.91666518964636
 10
74.91246148593896
 20
36.12477048585039
 10
75.22457376215587
 20
36.34105927227984
 10
75.53196200846953
 20
36.56547667941797
 10
75.83449540527356
 20
36.79796783774801
 10
76.1320431329616
 20
37.03847787775321
 10
76.42447437192727
 20
37.2869519299168
 10
76.71165830256423
 20
37.54333512472205
 10
76.99346410526607
 20
37.80757259265217
 10
77.26976096042648
 20
38.079609464190426
 10
77.537005876598
 20
38.355969760876306
 10
77.79691586683734
 20
38.637966596845146
 10
78.04943533236998
 20
38.9254687867765
 10
78.29450867442137
 20
39.21834514534988
 10
78.53208029421697
 20
39.516464487244846
 10
78.76209459298225
 20
39.81969562714094
 10
78.98449597194264
 20
40.12790737971769
 10
79.19922883232366
 20
40.440968559654635
 10
79.40623757535072
 20
40.75874798163131
 10
79.6054666022493
 20
41.081114460327264
 10
79.79686031424485
 20
41.40793681042203
 10
79.98036311256286
 20
41.739083846595136
 10
80.15591939842876
 20
42.074424383526136
 10
80.32347357306801
 20
42.41382723589456
 10
80.4829700377061
 20
42.757161218379956
 10
80.63435319356847
 20
43.10429514566185
 10
80.77756744188058
 20
43.45509783241979
 10
80.91255718386792
 20
43.80943809333329
 10
81.03926682075591
 20
44.16718474308192
 10
81.15764075377002
 20
44.52820659634522
 10
81.26762338413575
 20
44.89237246780271
 10
81.36915911307851
 20
45.25955117213392
 10
81.46219234182378
 20
45.629611524018415
 10
81.54666747159705
 20
46.00242233813571
 10
81.62252890362372
 20
46.37785242916535
 10
81.68972103912931
 20
46.75577061178689
 10
81.74818827933925
 20
47.13604570067984
 10
81.79787502547902
 20
47.51854651052376
 10
81.83872567877405
 20
47.90314185599819
 10
81.87068464044984
 20
48.28970055178265
 10
81.89369631173182
 20
48.67809141255667
 10
81.90770509384546
 20
49.06818325299983
 10
81.95056076580981
 20
50.17353024694371
 10
82.01983529417338
 20
51.582143068251504
 10
82.11410548524546
 20
53.331044755380596
 10
81.3222579782391
 20
53.37470566022806
 10
81.22575914892654
 20
51.580899949969975
 10
81.15788029758818
 20
50.18732861116044
 10
81.11586182017228
 20
49.08604791892214
 10
81.10187915890825
 20
48.69890256397437
 10
81.07879426735377
 20
48.31449841564259
 10
81.04671457160224
 20
47.932942854441556
 10
81.00574749774704
 20
47.55434326088607
 10
80.95600047188157
 20
47.17880701549091
 10
80.89758092009923
 20
46.80644149877086
 10
80.8305962684934
 20
46.437354091240685
 10
80.7551539431575
 20
46.0716521734152
 10
80.6713613701849
 20
45.70944312580915
 10
80.57932597566901
 20
45.35083432893735
 10
80.4791551857032
 20
44.995933163314575
 10
80.3709564263809
 20
44.644847009455596
 10
80.25483712379547
 20
44.2976832478752
 10
80.13090470404032
 20
43.95454925908816
 10
79.99926659320883
 20
43.61555242360927
 10
79.86003021739442
 20
43.28080012195332
 10
79.71330300269047
 20
42.95039973463507
 10
79.55919237519036
 20
42.62445864216932
 10
79.3978057609875
 20
42.303084225070855
 10
79.22925058617528
 20
41.98638386385445
 10
79.05363427684709
 20
41.67446493903488
 10
78.87106425909633
 20
41.36743483112694
 10
78.6816479590164
 20
41.0654009206454
 10
78.48549280270068
 20
40.76847058810507
 10
78.28270621624254
 20
40.4767512140207
 10
78.07339562573546
 20
40.19035017890708
 10
77.85766845727274
 20
39.909374863279005
 10
77.6356321369478
 20
39.63393264765125
 10
77.40739409085405
 20
39.36413091253859
 10
77.1730617450849
 20
39.100077038455815
 10
76.9327425257337
 20
38.84187840591771
 10
76.68654385889387
 20
38.58964239543906
 10
76.43457317065881
 20
38.34347638753463
 10
76.17693788712188
 20
38.103487762719226
 10
75.9137454343765
 20
37.86978390150762
 10
75.64510323851607
 20
37.64247218441457
 10
75.37111872563396
 20
37.421659991954904
 10
75.0918993218236
 20
37.207454704643375
 10
74.80755245317835
 20
36.99996370299477
 10
74.51818554579162
 20
36.79929436752387
 10
74.22390602575678
 20
36.60555407874547
 10
73.92482131916726
 20
36.41885021717434
 10
73.62103885211643
 20
36.23929016332526
 10
73.3126660506977
 20
36.06698129771302
 10
72.99981034100445
 20
35.9020310008524
 10
72.68257914913006
 20
35.74454665325819
 10
72.36107990116797
 20
35.594635635445165
 10
72.03542002321154
 20
35.452405327928105
 10
71.70570694135415
 20
35.31796311122179
 10
71.37204808168923
 20
35.191416365841015
 10
71.03455087031014
 20
35.072872472300546
 10
70.69332273331031
 20
34.962438811115184
 10
70.34847109678311
 20
34.8602227627997
 10
70.00010338682193
 20
34.76633170786887
 10
69.64832702952019
 20
34.680873026837496
 10
69.29324945097125
 20
34.60395410022035
 10
68.93497807726852
 20
34.53568230853221
 10
68.5736203345054
 20
34.47616503228785
 10
68.20928364877527
 20
34.42550965200208
 10
67.84207544617153
 20
34.38382354818965
 10
67.47210315278757
 20
34.35121410136537
 10
67.0994741947168
 20
34.32778869204401
 10
66.7242959980526
 20
34.31365470074036
 10
66.34667598888838
 20
34.30891950796918
 10
65.77980953118173
 20
34.319549818974004
 10
65.21741163619171
 20
34.35123943591289
 10
64.65992745223232
 20
34.40368638467242
 10
64.1078021276175
 20
34.47658869113921
 10
63.561480810661244
 20
34.569644381199886
 10
63.02140864967751
 20
34.68255148074103
 10
62.48803079298029
 20
34.81500801564925
 10
61.96179238888353
 20
34.96671201181116
 10
61.44313858570122
 20
35.13736149511337
 10
60.93251453174734
 20
35.32665449144247
 10
60.430365375335825
 20
35.534289026685066
 10
59.93713626478067
 20
35.75996312672778
 10
59.45327234839584
 20
36.00337481745721
 10
58.979218774495344
 20
36.26422212475996
 10
58.515420691393096
 20
36.54220307452263
 10
58.062323247403086
 20
36.83701569263184
 10
57.62037159083932
 20
37.148358004974185
 10
57.19001087001572
 20
37.475928037436276
 10
56.77168623324628
 20
37.81942381590471
 10
56.36584282884498
 20
38.178543366266105
 10
55.97292580512578
 20
38.55298471440706
 10
55.59338031040267
 20
38.94244588621417
 10
55.2276514929896
 20
39.34662490757407
 10
54.87618450120055
 20
39.76521980437333
 10
54.53942448334948
 20
40.197928602498585
 10
54.217816587750384
 20
40.64444932783642
 10
53.91180596271722
 20
41.104480006273455
 10
53.621837756563956
 20
41.57771866369629
 10
53.34835711760457
 20
42.063863325991534
 10
53.09180919415304
 20
42.56261201904579
 10
52.85263913452333
 20
43.07366276874565
 10
52.6312920870294
 20
43.59671360097775
 10
52.59932534665562
 20
43.659294771560305
 10
52.55789332644186
 20
43.71408460160812
 10
52.50832161859849
 20
43.76036215779187
 10
52.451935815335915
 20
43.79740650678221
 10
52.390061508864534
 20
43.82449671524981
 10
52.324024291394736
 20
43.84091184986532
 10
52.25514975513689
 20
43.84593097729942
 10
52.18476349230143
 20
43.83883316422276
 10
42.59927785569667
 20
41.93959565669099
 10
43.78803692216505
 20
47.22848164965406
 10
44.425666154438304
 20
47.054088195449104
 10
45.07013283822355
 20
46.900160482813284
 10
45.72101835971009
 20
46.76688449728573
 10
46.37790410508724
 20
46.65444622440555
 10
47.04037146054433
 20
46.56303164971188
 10
47.70800181227068
 20
46.49282675874386
 10
48.38037654645559
 20
46.4440175370406
 10
49.05707704928837
 20
46.416789970141224
 10
50.15690230835814
 20
46.37424961535124
 10
51.561111709120254
 20
46.30565957727166
 10
53.3060489855812
 20
46.21238855865795
 10
53.39535368852683
 20
47.79805461258853
 10
51.597082340954806
 20
47.89455873356752
 10
50.19960237887064
 20
47.96243657948927
 10
49.09478588771716
 20
48.00444992398872
 10
48.624293795066215
 20
48.021280645852364
 10
48.15712727929497
 20
48.04917315668763
 10
47.69341702306464
 20
48.08799695545396
 10
47.23329370903648
 20
48.13762154111081
 10
46.77688801987174
 20
48.19791641261761
 10
46.324330638231636
 20
48.268751068933824
 10
45.875752246777445
 20
48.349995009018876
 10
45.43128352817038
 20
48.44151773183225
 10
44.99105516507169
 20
48.54318873633338
 10
44.55519784014262
 20
48.65487752148169
 10
44.12384223604441
 20
48.77645358623665
 10
43.697119035438305
 20
48.9077864295577
 10
43.27515892098555
 20
49.04874555040429
 10
42.85809257534738
 20
49.19920044773588
 10
42.44605068118503
 20
49.35902062051191
 10
42.039163921159755
 20
49.52807556769181
 10
41.63756297793279
 20
49.706234788235044
 10
41.241378534165385
 20
49.893367781101055
 10
40.85074127251877
 20
50.08934404524929
 10
40.465781875654194
 20
50.29403307963921
 10
40.0866310262329
 20
50.50730438323024
 10
39.713419406916124
 20
50.72902745498185
 10
39.346277700365114
 20
50.959071793853475
 10
38.98533658924111
 20
51.197306898804555
 10
38.63072675620535
 20
51.44360226879456
 10
38.282578883919086
 20
51.69782740278291
 10
37.94102365504355
 20
51.95985179972907
 10
37.60619175223999
 20
52.2295449585925
 10
37.278213858169636
 20
52.50677637833262
 10
36.95722065549375
 20
52.79141555790888
 10
36.64334282687355
 20
53.08333199628075
 10
36.3367110549703
 20
53.38239519240766
 10
36.037456022445234
 20
53.688474645249045
 10
35.74570841195958
 20
54.001439853764396
 10
35.46159890617461
 20
54.321160316913115
 10
35.18525818775154
 20
54.64750553365468
 10
34.91681693935163
 20
54.980345002948525
 10
34.6564058436361
 20
55.319548223754104
 10
34.40415558326621
 20
55.66498469503085
 10
34.16019684090319
 20
56.01652391573823
 10
33.9246602992083
 20
56.37403538483569
 10
33.69767664084276
 20
56.73738860128266
 10
33.47937654846782
 20
57.1064530640386
 10
33.269890704744725
 20
57.48109827206294
 10
33.06934979233472
 20
57.86119372431514
 10
32.87788449389904
 20
58.246608919754664
 10
32.69562549209893
 20
58.63721335734093
 10
32.522703469595626
 20
59.03287653603343
 10
32.35924910905038
 20
59.43346795479157
 10
32.20539309312443
 20
59.8388571125748
 10
32.06126610447902
 20
60.24891350834259
 10
31.92699882577538
 20
60.66350664105437
 10
31.802721939674765
 20
61.0825060096696
 10
31.688566128838417
 20
61.50578111314771
 10
31.58466207592757
 20
61.933201450448166
 10
31.491140463603465
 20
62.36463652053041
 10
31.40813197452735
 20
62.79995582235388
 10
31.33576729136047
 20
63.239028854878036
 10
31.27417709676406
 20
63.681725117062314
 10
31.22349207339936
 20
64.12791410786618
 10
31.18384290392762
 20
64.57746532624904
 10
31.15536027101008
 20
65.0302482711704
 10
31.13817485730797
 20
65.48613244158966
 10
31.132417345482555
 20
65.9449873364663
 10
31.142365464724506
 20
66.5378117328338
 10
31.172047267645432
 20
67.12786312338423
 10
31.221218922037977
 20
67.71471743665576
 10
31.28963659569477
 20
68.29795060118659
 10
31.37705645640844
 20
68.87713854551485
 10
31.483234671971605
 20
69.45185719817876
 10
31.607927410176913
 20
70.02168248771646
 10
31.750890838816986
 20
70.58619034266617
 10
31.911881125684463
 20
71.14495669156604
 10
32.09065443857195
 20
71.69755746295425
 10
32.286966945272106
 20
72.24356858536899
 10
32.50057481357756
 20
72.78256598734843
 10
32.73123421128091
 20
73.31412559743073
 10
32.97870130617481
 20
73.8378233441541
 10
33.24273226605191
 20
74.35323515605671
 10
33.5230832587048
 20
74.85993696167671
 10
33.819510451926135
 20
75.3575046895523
 10
34.131770013508536
 20
75.84551426822166
 10
34.459618111244644
 20
76.32354162622298
 10
34.80281091292708
 20
76.79116269209439
 10
35.161104586348486
 20
77.2479533943741
 10
35.53425529930147
 20
77.69348966160028
 10
35.92201921957868
 20
78.12734742231115
 10
36.324152514972745
 20
78.54910260504481
 10
36.740411353276286
 20
78.95833113833947
 10
37.17055190228195
 20
79.35460895073334
 10
37.61433032978235
 20
79.73751197076457
 10
38.07150280357013
 20
80.10661612697133
 10
38.541825491437905
 20
80.4614973478918
 10
39.025054561178315
 20
80.80173156206416
 10
39.520946180584
 20
81.1268946980266
 10
40.02925651744757
 20
81.4365626843173
 10
40.14089661239356
 20
81.51602760461303
 10
40.235466214386754
 20
81.61123698214337
 10
40.31189554393266
 20
81.71951638553537
 10
40.369114821536805
 20
81.8381913834161
 10
40.40605426770469
 20
81.96458754441262
 10
40.42164410294183
 20
82.09603043715197
 10
40.41481454775374
 20
82.22984563026125
 10
40.38449582264593
 20
82.36335869236746
 10
36.54037726348422
 20
94.37796171309232
 10
36.51952408197289
 20
94.47026360152636
 10
36.51569471397099
 20
94.55486752121084
 10
36.525447177840675
 20
94.63133160046883
 10
36.54533949194412
 20
94.69921396762346
 10
36.571929674643485
 20
94.75807275099783
 10
36.60177574430094
 20
94.80746607891504
 10
36.65746761793878
 20
94.87608888167036
 10
36.72435403443309
 20
94.93395153843649
 10
36.772832625706116
 20
94.96532476467483
 10
36.83086969596369
 20
94.99367461018761
 10
36.89811641293128
 20
95.01551259050296
 10
36.97422394433435
 20
95.02735022114902
 10
37.05884345789838
 20
95.02569901765402
 10
37.15162612134884
 20
95.00707049554612
 10
48.46170530742886
 20
91.70672628972713
 10
48.1826561962434
 20
91.10958708232668
 10
47.92314246236897
 20
90.50333145811857
 10
47.68335008142283
 20
89.88851732014207
 10
47.4634650290222
 20
89.26570257143645
 10
41.517685025429714
 20
90.59933391853514
 10
41.41904627927924
 20
90.60888578525173
 10
41.32245370148102
 20
90.59387773417915
 10
41.23218681879422
 20
90.55579865769286
 10
41.15252515797804
 20
90.49613744816833
 10
41.09019682553339
 20
90.41877015205864
 10
41.04982307742396
 20
90.32968132793732
 10
41.032520116603244
 20
90.23352244586063
 10
41.039404146024744
 20
90.1349449758847
 10
42.994208215241244
 20
80.26963423960598
 10
42.459429861696954
 20
80.03056573398001
 10
41.93701281741166
 20
79.77358191549943
 10
41.42725978282648
 20
79.49912865925555
 10
40.930473458382544
 20
79.20765184033962
 10
40.44695654452096
 20
78.89959733384296
 10
39.977011741682865
 20
78.57541101485683
 10
39.520941750309376
 20
78.23553875847252
 10
39.07904927084162
 20
77.8804264397813
 10
38.65163700372072
 20
77.5105199338745
 10
38.239007649387794
 20
77.12626511584338
 10
37.84146390828396
 20
76.7281078607792
 10
37.45930848085036
 20
76.31649404377329
 10
37.09284406752809
 20
75.8918695399169
 10
36.742373368758294
 20
75.45468022430134
 10
36.408199084982094
 20
75.00537197201788
 10
36.0906239166406
 20
74.54439065815781
 10
35.789950564174944
 20
74.07218215781242
 10
35.506481728026245
 20
73.58919234607298
 10
35.24052010863563
 20
73.09586709803078
 10
34.992368406444214
 20
72.59265228877713
 10
34.762329321893134
 20
72.07999379340328
 10
34.5507055554235
 20
71.55833748700053
 10
34.35779980747644
 20
71.02812924466016
 10
34.18391477849307
 20
70.48981494147348
 10
34.029353168914525
 20
69.94384045253175
 10
33.89441767918191
 20
69.39065165292625
 10
33.77941100973637
 20
68.83069441774829
 10
33.68463586101901
 20
68.26441462208912
 10
33.61039493347097
 20
67.69225814104006
 10
33.55699092753335
 20
67.11467084969237
 10
33.5247265436473
 20
66.53209862313734
 10
33.51390448225391
 20
65.9449873364663
 10
33.51864552201744
 20
65.55874430866164
 10
33.53283206028656
 20
65.17408564919918
 10
33.556409225529144
 20
64.79114217675509
 10
33.58932214621307
 20
64.41004471000558
 10
33.63151595080619
 20
64.03092406762681
 10
33.68293576777637
 20
63.653911068295
 10
33.74352672559147
 20
63.27913653068632
 10
33.81323395271936
 20
62.90673127347697
 10
33.892002577627885
 20
62.53682611534314
 10
33.97977772878491
 20
62.169551874961
 10
34.07650453465831
 20
61.80503937100678
 10
34.18212812371595
 20
61.44341942215663
 10
34.29659362442568
 20
61.08482284708676
 10
34.41984616525537
 20
60.72938046447336
 10
34.55183087467287
 20
60.377223092992615
 10
34.692492881146066
 20
60.02848155132071
 10
34.84177731314279
 20
59.68328665813384
 10
34.99962929913094
 20
59.341769232108206
 10
35.165993967578345
 20
59.00406009191998
 10
35.34081644695289
 20
58.670290056245356
 10
35.52404186572243
 20
58.340589943760534
 10
35.715615352354824
 20
58.01509057314169
 10
35.915482035317936
 20
57.69392276306502
 10
36.12358704307964
 20
57.377217332206726
 10
36.33987550410779
 20
57.065105099242984
 10
36.564292546870234
 20
56.75771688284998
 10
36.79678329983485
 20
56.45518350170391
 10
37.0372928914695
 20
56.157635774480966
 10
37.28576645024204
 20
55.86520451985734
 10
37.54214910462034
 20
55.57802055650921
 10
37.80638598307227
 20
55.296214703112774
 10
38.07842221406567
 20
55.019917778344215
 10
38.35478292366431
 20
54.752672400650496
 10
38.636779757796056
 20
54.492761977724406
 10
38.924281170464795
 20
54.240242107410296
 10
39.21715561567443
 20
53.99516838755252
 10
39.51527154742886
 20
53.75759641599546
 10
39.81849741973197
 20
53.527581790583476
 10
40.12670168658765
 20
53.305180109160915
 10
40.4397528019998
 20
53.09044696957216
 10
40.75751921997232
 20
52.88343796966157
 10
41.07986939450911
 20
52.6842087072735
 10
41.40667177961404
 20
52.49281478025232
 10
41.73779482929102
 20
52.30931178644238
 10
42.073106997543945
 20
52.133755323688064
 10
42.412476738376704
 20
51.966200989833716
 10
42.75577250579319
 20
51.806704382723716
 10
43.102862753797304
 20
51.655321100202414
 10
43.453615936392936
 20
51.512106740114184
 10
43.80790050758398
 20
51.37711690030336
 10
44.16558492137433
 20
51.25040717861435
 10
44.52653763176788
 20
51.1320331728915
 10
44.89062709276852
 20
51.02205048097916
 10
45.25772175838016
 20
50.92051470072169
 10
45.627690082606684
 20
50.82748142996348
 10
46.00040051945197
 20
50.74300626654887
 10
46.375721522919946
 20
50.66714480832223
 10
46.75352154701447
 20
50.59995265312793
 10
47.13366904573946
 20
50.541485398810316
 10
47.51603247309881
 20
50.49179864321377
 10
47.90048028309641
 20
50.45094798418263
 10
48.28688092973615
 20
50.41898901956131
 10
48.675102867021934
 20
50.39597734719411
 10
49.065014548957635
 20
50.381968564925444
 10
50.170360246443224
 20
50.33911309139859
 10
51.5789728825427
 20
50.2698393170975
 10
53.32787689800503
 20
50.17557325352524
 10
53.37153864951912
 20
50.96741652719844
 10
51.577980800917366
 20
51.06391747317757
 10
50.184996704791715
 20
51.131797779724224
 10
49.08486126146402
 20
51.173816918598426
 10
48.69780610809811
 20
51.187891161374544
 10
48.31348648132882
 20
51.21106477275545
 10
47.93200989797853
 20
51.24323037207133
 10
47.55348387486956
 20
51.28428057865236
 10
47.17801592882428
 20
51.33410801182872
 10
46.80571357666503
 20
51.39260529093061
 10
46.43668433521415
 20
51.45966503528822
 10
46.071035721293995
 20
51.535179864231736
 10
45.708875251726916
 20
51.61904239709135
 10
45.35031044333526
 20
51.711145253197245
 10
44.995448812941376
 20
51.811381051879614
 10
44.64439787736761
 20
51.91964241246865
 10
44.297265153436314
 20
52.03582195429452
 10
43.95415815796983
 20
52.15981229668744
 10
43.6151844077905
 20
52.29150605897758
 10
43.28045141972069
 20
52.43079586049513
 10
42.95006671058274
 20
52.577574320570285
 10
42.62413779719899
 20
52.73173405853323
 10
42.3027721963918
 20
52.893167693714155
 10
41.98607742498351
 20
53.06176784544325
 10
41.67416099979648
 20
53.23742713305068
 10
41.36713043765303
 20
53.420038175866665
 10
41.06509325537555
 20
53.60949359322138
 10
40.768156969786354
 20
53.80568600444502
 10
40.4764290977078
 20
54.008508028867766
 10
40.190017155962245
 20
54.21785228581981
 10
39.90902866137203
 20
54.43361139463132
 10
39.6335711307595
 20
54.655677974632525
 10
39.363752080947
 20
54.88394464515359
 10
39.099679028756896
 20
55.118304025524694
 10
38.84145949101153
 20
55.35864873507604
 10
38.58920098453322
 20
55.604871393137806
 10
38.34301102614436
 20
55.856864619040195
 10
38.10299713266727
 20
56.11452103211338
 10
37.8692668209243
 20
56.37773325168755
 10
37.64192760773781
 20
56.64639389709293
 10
37.42108700993014
 20
56.920395587659655
 10
37.20685254432364
 20
57.19963094271794
 10
36.99933172774066
 20
57.48399258159797
 10
36.79863207700354
 20
57.77337312362992
 10
36.60486110893464
 20
58.067665188144005
 10
36.4181263403563
 20
58.366761394470394
 10
36.23853528809087
 20
58.67055436193929
 10
36.06619546896071
 20
58.978936709880855
 10
35.901214399788145
 20
59.2918010576253
 10
35.74369959739553
 20
59.6090400245028
 10
35.593758578605225
 20
59.930546229843564
 10
35.45149886023957
 20
60.256212292977764
 10
35.317027959120914
 20
60.585930833235594
 10
35.1904533920716
 20
60.919594469947235
 10
35.07188267591399
 20
61.25709582244287
 10
34.96142332747042
 20
61.59832751005271
 10
34.859182863563234
 20
61.943182152106935
 10
34.76526880101479
 20
62.29155236793572
 10
34.679788656647446
 20
62.64333077686927
 10
34.60284994728354
 20
62.99840999823776
 10
34.534560189745406
 20
63.35668265137139
 10
34.4750269008554
 20
63.71804135560033
 10
34.42435759743588
 20
64.08237873025477
 10
34.3826597963092
 20
64.44958739466493
 10
34.35004101429768
 20
64.81955996816097
 10
34.32660876822369
 20
65.19218907007308
 10
34.31247057490958
 20
65.56736731973146
 10
34.30773395117769
 20
65.9449873364663
 10
34.318364265960064
 20
66.51185373355649
 10
34.35005389445896
 20
67.07425120423133
 10
34.402500862902045
 20
67.63173423647814
 10
34.47540319751699
 20
68.18385731828421
 10
34.56845892453147
 20
68.73017493763686
 10
34.681366070173155
 20
69.2702415825234
 10
34.81382266066972
 20
69.80361174093116
 10
34.965526722248825
 20
70.32983990084743
 10
35.13617628113815
 20
70.84848055025954
 10
35.32546936356535
 20
71.35908817715479
 10
35.5331039957581
 20
71.86121726952051
 10
35.758778203944075
 20
72.354422315344
 10
36.002190014350944
 20
72.83825780261257
 10
36.26303745320638
 20
73.31227821931354
 10
36.54101854673805
 20
73.77603805343423
 10
36.83583132117363
 20
74.22909179296192
 10
37.147173802740774
 20
74.67099392588398
 10
37.47474401766718
 20
75.10129894018766
 10
37.81823999218049
 20
75.51956132386033
 10
38.17735975250838
 20
75.92533556488927
 10
38.551801324878525
 20
76.31817615126181
 10
38.941262735518606
 20
76.69763757096523
 10
39.34544201065628
 20
77.06327431198687
 10
39.76403717651921
 20
77.41464086231406
 10
40.19674625933508
 20
77.75129170993407
 10
40.64326728533156
 20
78.07278134283423
 10
41.10329828073632
 20
78.37866424900187
 10
41.57653727177701
 20
78.6684949164243
 10
42.06268228468133
 20
78.94182783308882
 10
42.56143134567693
 20
79.19821748698273
 10
43.07248248099149
 20
79.43721836609338
 10
43.59553371685268
 20
79.65838495840804
 10
43.65811325197957
 20
79.69034768869085
 10
43.71290195258734
 20
79.73175274951772
 10
43.75917883573726
 20
79.78125120250736
 10
43.79622291849063
 20
79.83749410927848
 10
43.82331321790874
 20
79.8991325314498
 10
43.83972875105289
 20
79.96481753064
 10
43.84474853498436
 20
80.03320016846781
 10
43.83765158676444
 20
80.10293150655193
 10
41.938416449899236
 20
89.68841544982341
 10
47.227301765529
 20
88.49965638335505
 10
47.0529074100871
 20
87.86194627292112
 10
46.89897894504246
 20
87.21728221824564
 10
46.76570242538731
 20
86.56615263352708
 10
46.653263906113914
 20
85.90904593296382
 10
46.56184944221452
 20
85.24645053075425
 10
46.491645088681366
 20
84.57885484109678
 10
46.442836900506705
 20
83.90674727818981
 10
46.41561093268279
 20
83.23061625623173
 10
46.373066609142974
 20
82.13079126174527
 10
46.30447482481347
 20
80.72658244306648
 10
46.21119936119994
 20
78.98164601327217
 10
47.796873881796834
 20
78.89234131032653
 10
47.893373875276
 20
80.69061181123193
 10
47.96125239588524
 20
82.08809214373272
 10
48.00326919319703
 20
83.19290995780283
 10
48.02010127472892
 20
83.66358513533672
 10
48.04799796279287
 20
84.1309290150613
 10
48.08682866555933
 20
84.59481100512373
 10
48.136462791198724
 20
85.05510051367118
 10
48.19676974788144
 20
85.5116669488508
 10
48.26761894377791
 20
85.96437971880977
 10
48.34887978705856
 20
86.41310823169525
 10
48.44042168589379
 20
86.8577218956544
 10
48.54211404845404
 20
87.29809011883437
 10
48.65382628290974
 20
87.73408230938237
 10
48.775427797431284
 20
88.16556787544552
 10
48.90678800018909
 20
88.59241622517104
 10
49.04777629935359
 20
89.01449676670602
 10
49.198262103095196
 20
89.43167890819768
 10
49.35811481958432
 20
89.84383205779316
 10
49.52720385699141
 20
90.25082562363966
 10
49.70539862348687
 20
90.65252901388428
 10
49.89256852724112
 20
91.04881163667426
 10
50.08858297642456
 20
91.43954290015671
 10
50.29331137920763
 20
91.8245922124788
 10
50.50662314376075
 20
92.20382898178771
 10
50.728387678254336
 20
92.57712261623061
 10
50.95847439085881
 20
92.94434252395469
 10
51.196752689744585
 20
93.30535811310705
 10
51.44309198308208
 20
93.66003879183489
 10
51.697361679041705
 20
94.00825396828537
 10
51.95943118579391
 20
94.34987305060567
 10
52.229169911509096
 20
94.68476544694293
 10
52.506447264357675
 20
95.01280056544432
 10
52.79113265251008
 20
95.33384781425704
 10
53.08309548413672
 20
95.64777660152824
 10
53.382205167408024
 20
95.95445633540503
 10
53.6883311104944
 20
96.25375642403463
 10
54.00134272156628
 20
96.5455462755642
 10
54.321109408794065
 20
96.82969529814089
 10
54.64750058034819
 20
97.1060728999119
 10
54.98038564439907
 20
97.37454848902432
 10
55.31963400911713
 20
97.6349914736254
 10
55.66511508267278
 20
97.88727126186225
 10
56.016698273236436
 20
98.13125726188207
 10
56.37425298897853
 20
98.36681888183202
 10
56.73764863806947
 20
98.5938255298592
 10
57.106754628679695
 20
98.81214661411086
 10
57.4814403689796
 20
99.02165154273412
 10
57.861575267139614
 20
99.22220972387616
 10
58.24702873133016
 20
99.41369056568416
 10
58.637670169721666
 20
99.59596347630524
 10
59.033368990484526
 20
99.76889786388664
 10
59.43399460178917
 20
99.93236313657543
 10
59.83941641180604
 20
100.08622870251884
 10
60.249503828705514
 20
100.23036396986403
 10
60.664126260658044
 20
100.36463834675813
 10
61.083153115834044
 20
100.48892124134832
 10
61.50645380240391
 20
100.60308206178179
 10
61.93389772853809
 20
100.70699021620565
 10
62.36535430240699
 20
100.80051511276716
 10
62.80069293218105
 20
100.88352615961338
 10
63.23978302603066
 20
100.95589276489154
 10
63.68249399212624
 20
101.0174843367488
 10
64.12869523863823
 20
101.0681702833323
 10
64.57825617373705
 20
101.1078200127892
 10
65.0310462055931
 20
101.1363029332667
 10
65.48693474237679
 20
101.15348845291196
 10
65.94579119225857
 20
101.15924597987213
 10
66.53862099767552
 20
101.14929786063018
 10
67.12868836391682
 20
101.11961605770925
 10
67.71556812795939
 20
101.0704444033167
 10
68.29883512678018
 20
101.0020267296599
 10
68.87806419735612
 20
100.91460686894622
 10
69.45283017666418
 20
100.80842865338306
 10
70.02270790168127
 20
100.68373591517776
 10
70.58727220938437
 20
100.54077248653768
 10
71.14609793675038
 20
100.37978219967022
 10
71.69875992075629
 20
100.20100888678272
 10
72.24483299837901
 20
100.00469638008259
 10
72.78389200659551
 20
99.79108851177715
 10
73.31551178238271
 20
99.5604291140738
 10
73.83926716271758
 20
99.31296201917986
 10
74.35473298457704
 20
99.04893105930277
 10
74.86148408493803
 20
98.76858006664987
 10
75.35909530077751
 20
98.47215287342851
 10
75.84714146907243
 20
98.1598933118461
 10
76.32519742679969
 20
97.83204521411002
 10
76.79283801093628
 20
97.48885241242759
 10
77.24963805845914
 20
97.13055873900619
 10
77.69517240634521
 20
96.7574080260532
 10
78.12901589157141
 20
96.36964410577599
 10
78.5507433511147
 20
95.96751081038192
 10
78.95992962195204
 20
95.55125197207839
 10
79.35614954106035
 20
95.12111142307273
 10
79.73897794541658
 20
94.67733299557231
 10
80.10798967199769
 20
94.22016052178455
 10
80.46275955778057
 20
93.74983783391677
 10
80.80286243974223
 20
93.26660876417637
 10
81.12787315485959
 20
92.77071714477069
 10
81.43736654010956
 20
92.26240680790711
 10
81.51625999019474
 20
92.1507667129611
 10
81.61120065359565
 20
92.05619711096791
 10
81.71944426878602
 20
91.97976778142198
 10
81.83824657423958
 20
91.92254850381786
 10
81.96486330843003
 20
91.88560905764997
 10
82.0965502098311
 20
91.87001922241282
 10
82.23056301691649
 20
91.87684877760091
 10
82.36415746815996
 20
91.90716750270873
 10
94.37876252088472
 20
95.74930105195317
 10
94.47106447992944
 20
95.77072417256446
 10
94.55566835413865
 20
95.7748211095461
 10
94.63213236212451
 20
95.76510360821271
 10
94.70001472249922
 20
95.74508341387892
 10
94.75887365387489
 20
95.7182722718593
 10
94.80826737486369
 20
95.68818192746855
 10
94.87689206012932
 20
95.63221061283194
 10
94.93475427636423
 20
95.56532450590012
 10
94.9661275398096
 20
95.51684596522864
 10
94.9944774393966
 20
95.45880891580701
 10
95.01631537456743
 20
95.39156221967536
 10
95.02815274476428
 20
95.31545473887387
 10
95.02650094942946
 20
95.23083533544265
 10
95.00787138800519
 20
95.13805287142185
 10
91.70752506551962
 20
83.82797343134185
 10
91.11038633040039
 20
84.1070226615898
 10
90.50413090066104
 20
84.3665365939017
 10
89.88931789377824
 20
84.60632901453536
 10
89.26650642722873
 20
84.8262137097485
 10
90.60211965157819
 20
90.77397829992496
 10
90.6116713211802
 20
90.87258604087882
 10
90.59666309680553
 20
90.96896158230066
 10
90.55858373589217
 20
91.0586393662516
 10
90.49892199587809
 20
91.13715383479266
 10
90.42155436639342
 20
91.19864499120969
 10
90.33246670114706
 20
91.23911175887775
 10
90.23630989869525
 20
91.25687981749158
 10
90.13773485759421
 20
91.25027484674594
 10
80.27044063539815
 20
89.29547052352946
 10
80.03137166832748
 20
89.83042917841229
 10
79.77438741770277
 20
90.35301525898772
 10
79.49993375815018
 20
90.86292642820337
 10
79.20845656429593
 20
91.35986034900671
 10
78.90040171076619
 20
91.84351468434531
 10
78.57621507218717
 20
92.31358709716669
 10
78.23634252318509
 20
92.76977525041838
 10
77.8812299383861
 20
93.21177680704794
 10
77.51132319241643
 20
93.63928943000289
 10
77.12706815990228
 20
94.05201078223075
 10
76.72891071546984
 20
94.44963852667904
 10
76.3172967337453
 20
94.83187032629534
 10
75.89267208935487
 20
95.19840384402714
 10
75.45548265692473
 20
95.54893674282204
 10
75.0061743110811
 20
95.88316668562749
 10
74.54519292645014
 20
96.20079133539109
 10
74.07298437765809
 20
96.50150835506032
 10
73.58999453933113
 20
96.78501540758275
 10
73.09666928609546
 20
97.0510101559059
 10
72.59345449257728
 20
97.29919026297732
 10
72.08079603340276
 20
97.52925339174452
 10
71.55913978319813
 20
97.74089720515505
 10
71.02893161658959
 20
97.93381936615646
 10
70.4906174082033
 20
98.10771753769623
 10
69.9446430326655
 20
98.26228938272195
 10
69.39145436460235
 20
98.39723256418111
 10
68.83149727864006
 20
98.51224474502129
 10
68.26521764940486
 20
98.60702358818997
 10
67.6930613515229
 20
98.68126675663476
 10
67.11547425962041
 20
98.73467191330312
 10
66.53290224832357
 20
98.76693672114263
 10
65.94579119225857
 20
98.77775884310076
 10
65.55954815716754
 20
98.77301780333725
 10
65.17488947646606
 20
98.7588312650681
 10
64.7919459697605
 20
98.73525409982553
 10
64.41084845665722
 20
98.70234117914158
 10
64.0317277567626
 20
98.66014737454849
 10
63.65471468968298
 20
98.6087275575783
 10
63.279940075024754
 20
98.54813659976321
 10
62.90753473239426
 20
98.47842937263533
 10
62.53762948139788
 20
98.3996607477268
 10
62.170355141641984
 20
98.31188559656977
 10
61.80584253273292
 20
98.21515879069636
 10
61.44422247427706
 20
98.10953520163875
 10
61.085625785880794
 20
97.99506970092901
 10
60.73018328715046
 20
97.87181716009933
 10
60.378025797692416
 20
97.7398324506818
 10
60.029284137113045
 20
97.59917044420861
 10
59.684089125018716
 20
97.44988601221189
 10
59.34257158101578
 20
97.29203402622376
 10
59.004862324710615
 20
97.12566935777635
 10
58.67109217570958
 20
96.95084687840178
 10
58.34139195361905
 20
96.76762145963225
 10
58.01589247804538
 20
96.57604797299986
 10
57.69472456859494
 20
96.37618129003674
 10
57.378019044874094
 20
96.16807628227504
 10
57.06590672648921
 20
95.9517878212469
 10
56.758518433046646
 20
95.72737077848444
 10
56.45598498415277
 20
95.49488002551982
 10
56.15843719941397
 20
95.25437043388516
 10
55.86600589843658
 20
95.00589687511261
 10
55.57882190082698
 20
94.74951422073431
 10
55.297016026191535
 20
94.48527734228242
 10
55.02071909413661
 20
94.21324111128901
 10
54.753473791011984
 20
93.93688040169037
 10
54.493563433663276
 20
93.65488356755864
 10
54.241043620865035
 20
93.3673821548899
 10
53.995969951391785
 20
93.07450770968025
 10
53.75839802401806
 20
92.77639177792582
 10
53.52838343751842
 20
92.47316590562272
 10
53.30598179066741
 20
92.16496163876702
 10
53.091248682239545
 20
91.85191052335486
 10
52.884239711009364
 20
91.53414410538235
 10
52.68501047575142
 20
91.21179393084556
 10
52.493616575240246
 20
90.88499154574063
 10
52.310113608250376
 20
90.55386849606364
 10
52.13455717355635
 20
90.21855632781072
 10
51.96700286993273
 20
89.87918658697797
 10
51.80750629615402
 20
89.53589081956147
 10
51.65612305099478
 20
89.18880057155737
 10
51.51290873322955
 20
88.83804738896173
 10
51.37791894163285
 20
88.4837628177707
 10
51.251209274979225
 20
88.12607840398033
 10
51.13283533204322
 20
87.76512569358678
 10
51.02285271159938
 20
87.40103623258614
 10
50.92131701242225
 20
87.0339415669745
 10
50.828283833286335
 20
86.663973242748
 10
50.743808772966204
 20
86.2912628059027
 10
50.667947430236396
 20
85.91594180243473
 10
50.60075540387143
 20
85.5381417783402
 10
50.54228829264586
 20
85.15799427961521
 10
50.49260169533421
 20
84.77563085225586
 10
50.45175121071103
 20
84.39118304225828
 10
50.419792437550875
 20
84.00478239561852
 10
50.39678097462825
 20
83.61656045833274
 10
50.382772420717714
 20
83.22664877639704
 10
50.33991834948248
 20
82.12130307891145
 10
50.270644231223066
 20
80.71269044281198
 10
50.17637541598426
 20
78.96378642734965
 10
50.96822038299072
 20
78.91814008925158
 10
51.064719741469915
 20
80.71269023114532
 10
51.13259842082913
 20
82.10635652890922
 10
51.17461569439092
 20
83.20680206389065
 10
51.18868850634359
 20
83.59385721725657
 10
51.2118579161788
 20
83.97817684402585
 10
51.24401667961376
 20
84.35965342737614
 10
51.28505755236567
 20
84.7381794504851
 10
51.33487329015174
 20
85.1136473965304
 10
51.393356648689185
 20
85.48594974868965
 10
51.460400383695195
 20
85.85497899014052
 10
51.535897250887
 20
86.22062760406068
 10
51.61974000598178
 20
86.58278807362775
 10
51.71182140469677
 20
86.94135288201942
 10
51.81203420274914
 20
87.2962145124133
 10
51.92027115585613
 20
87.64726544798708
 10
52.036425019734914
 20
87.99439817191838
 10
52.16038855010274
 20
88.33750516738488
 10
52.29205450267678
 20
88.67647891756417
 10
52.43131563317426
 20
89.01121190563398
 10
52.57806469731237
 20
89.34159661477193
 10
52.73219445080833
 20
89.66752552815568
 10
52.893597649379345
 20
89.98889112896286
 10
53.062167048742616
 20
90.30558590037117
 10
53.23779540461534
 20
90.61750232555822
 10
53.42037547271476
 20
90.92453288770164
 10
53.60980000875805
 20
91.22657006997913
 10
53.80596176846244
 20
91.52350635556833
 10
54.00875350754511
 20
91.8152342276469
 10
54.21806798172327
 20
92.10164616939245
 10
54.433797946714144
 20
92.38263466398266
 10
54.65583615823492
 20
92.65809219459517
 10
54.884075372002826
 20
92.92791124440768
 10
55.11840834373504
 20
93.19198429659778
 10
55.3587278291488
 20
93.45020383434317
 10
55.604926583961294
 20
93.70246234082147
 10
55.85689736388972
 20
93.94865229921032
 10
56.114532924651314
 20
94.18866619268742
 10
56.37772602196327
 20
94.42239650443038
 10
56.64636941154277
 20
94.64973571761688
 10
56.92035584910705
 20
94.87057631542453
 10
57.199578090373315
 20
95.08481078103102
 10
57.48392889105876
 20
95.29233159761402
 10
57.77330100688058
 20
95.49303124835116
 10
58.067587193556
 20
95.68680221642008
 10
58.366680206802236
 20
95.87353698499841
 10
58.67047280233648
 20
96.05312803726382
 10
58.978857735875934
 20
96.225467856394
 10
59.29172776313782
 20
96.39044892556659
 10
59.60897563983933
 20
96.54796372795919
 10
59.93049412169766
 20
96.69790474674949
 10
60.25617596443006
 20
96.84016446511512
 10
60.585913923753694
 20
96.97463536623377
 10
60.91960075538578
 20
97.10120993328309
 10
61.257129215043534
 20
97.2197806494407
 10
61.59839205844416
 20
97.33023999788426
 10
61.94328204130486
 20
97.43248046179144
 10
62.291691919342846
 20
97.52639452433988
 10
62.64351444827532
 20
97.61187466870723
 10
62.99864238381947
 20
97.68881337807116
 10
63.35696848169253
 20
97.75710313560928
 10
63.718385497611706
 20
97.81663642449928
 10
64.08278618729419
 20
97.8673057279188
 10
64.4500633064572
 20
97.90900352904548
 10
64.82010961081792
 20
97.941622311057
 10
65.1928178560936
 20
97.965054557131
 10
65.56808079800142
 20
97.97919275044511
 10
65.94579119225857
 20
97.983929374177
 10
66.51265749379905
 20
97.97329905939462
 10
67.07505523820394
 20
97.94160943089571
 10
67.6325392777794
 20
97.88916246245262
 10
68.18466446483156
 20
97.81626012783768
 10
68.73098565166656
 20
97.72320440082319
 10
69.27105769059057
 20
97.61029725518151
 10
69.80443543390972
 20
97.47784066468496
 10
70.33067373393014
 20
97.32613660310585
 10
70.84932744295799
 20
97.15548704421653
 10
71.35995141329943
 20
96.96619396178934
 10
71.86210049726057
 20
96.7585593295966
 10
72.35532954714759
 20
96.53288512141062
 10
72.83919341526662
 20
96.28947331100375
 10
73.31324695392382
 20
96.02862587214833
 10
73.77704501542533
 20
95.75064477861665
 10
74.23014245207726
 20
95.45583200418106
 10
74.6720941161858
 20
95.14448952261392
 10
75.10245486005708
 20
94.81691930768751
 10
75.52077953599724
 20
94.47342333317418
 10
75.92662299631245
 20
94.1143035728463
 10
76.31954009330882
 20
93.73986200047617
 10
76.69908567929251
 20
93.35040058983607
 10
77.06481460656967
 20
92.94622131469839
 10
77.41628172744645
 20
92.52762614883548
 10
77.75304189422899
 20
92.09491706601962
 10
78.07464995922342
 20
91.64839604002312
 10
78.38066077473592
 20
91.18836504461837
 10
78.67062919307259
 20
90.71512605357768
 10
78.94411006653962
 20
90.22898104067336
 10
79.20065824744313
 20
89.73023197967774
 10
79.43982858808927
 20
89.2191808443632
 10
79.66117594078419
 20
88.69612960850199
 10
79.69322285817286
 20
88.63346863958945
 10
79.73485146875605
 20
88.57848217121648
 10
79.78466645931063
 20
88.53196098670955
 10
79.8412725166135
 20
88.49469586939507
 10
79.90327432744155
 20
88.46747760259949
 10
79.96927657857167
 20
88.4510969696492
 10
80.03788395678073
 20
88.44634475387063
 10
80.10770114884563
 20
88.45401173859024
 10
89.69318830945032
 20
90.35324687545543
 10
88.50442856564864
 20
85.06436155982567
 10
87.86679878271134
 20
85.23875591526757
 10
87.22233173677769
 20
85.39268438031222
 10
86.57144607142396
 20
85.52596089996736
 10
85.91456043022649
 20
85.63839941924076
 10
85.25209345676157
 20
85.72981388314015
 10
84.58446379460553
 20
85.80001823667331
 10
83.91209008733463
 20
85.84882642484797
 10
83.23539097852522
 20
85.87605239267188
 10
82.13472830001118
 20
85.9185967162117
 10
80.73061072289107
 20
85.98718850054121
 10
78.98641565556586
 20
86.08046396415473
 10
78.89711349262012
 20
84.49478944355783
 10
80.69538251185891
 20
84.39828945007868
 10
82.09286194477643
 20
84.33041092946944
 10
83.19767790676326
 20
84.28839413215765
 10
83.66825999404453
 20
84.27147050757061
 10
84.13551083113761
 20
84.24348513571485
 10
84.59929987157837
 20
84.20456856305448
 10
85.05949656890265
 20
84.15485133605362
 10
85.51597037664634
 20
84.09446400117645
 10
85.96859074834529
 20
84.02353710488707
 10
86.41722713753539
 20
83.94220119364962
 10
86.86174899775249
 20
83.85058681392826
 10
87.30202578253244
 20
83.74882451218708
 10
87.73792694541113
 20
83.63704483489026
 10
88.16932193992442
 20
83.5153783285019
 10
88.59608021960814
 20
83.38395553948614
 10
89.0180712379982
 20
83.24290701430712
 10
89.43516444863047
 20
83.09236329942898
 10
89.8472293050408
 20
82.93245494131587
 10
90.25413526076504
 20
82.76331248643187
 10
90.65575176933908
 20
82.58506648124117
 10
91.05194828429875
 20
82.39784747220789
 10
91.44259425917994
 20
82.20178600579614
 10
91.82755914751854
 20
81.99701262847009
 10
92.20671240285039
 20
81.78365788669385
 10
92.57992347871134
 20
81.56185232693157
 10
92.94706182863725
 20
81.33172649564737
 10
93.30799690616404
 20
81.0934109393054
 10
93.66259816482751
 20
80.84703620436977
 10
94.01073505816359
 20
80.59273283730464
 10
94.3522770397081
 20
80.33063138457412
 10
94.6870935629969
 20
80.06086239264238
 10
95.01505408156589
 20
79.78355640797352
 10
95.33602804895091
 20
79.49884397703168
 10
95.64988491868785
 20
79.20685564628103
 10
95.95649414431257
 20
78.90772196218566
 10
96.25572517936091
 20
78.60157347120973
 10
96.54744747736875
 20
78.28854071981736
 10
96.83153049187196
 20
77.9687542544727
 10
97.10784367640639
 20
77.64234462163986
 10
97.37625648450793
 20
77.30944236778299
 10
97.63663836971243
 20
76.97017803936625
 10
97.88885878555577
 20
76.62468218285373
 10
98.13278718557378
 20
76.27308534470959
 10
98.36829302330234
 20
75.91551807139795
 10
98.59524575227735
 20
75.55211090938296
 10
98.81351482603465
 20
75.18299440512874
 10
99.02296969811009
 20
74.80829910509945
 10
99.22347982203958
 20
74.42815555575919
 10
99.41491465135894
 20
74.04269430357212
 10
99.59714363960406
 20
73.65204589500236
 10
99.77003624031079
 20
73.25634087651406
 10
99.93346190701502
 20
72.85570979457133
 10
100.08729009325258
 20
72.45028319563832
 10
100.23139025255935
 20
72.04019162617918
 10
100.3656318384712
 20
71.62556563265801
 10
100.48988430452401
 20
71.20653576153897
 10
100.6040171042536
 20
70.7832325592862
 10
100.70789969119589
 20
70.35578657236381
 10
100.80140151888672
 20
69.92432834723594
 10
100.88439204086195
 20
69.48898843036673
 10
100.95674071065746
 20
69.04989736822033
 10
101.01831698180912
 20
68.60718570726084
 10
101.06899030785276
 20
68.16098399395243
 10
101.10863014232427
 20
67.71142277475923
 10
101.13710593875952
 20
67.25863259614535
 10
101.15428715069437
 20
66.80274400457493
 10
101.16004323166467
 20
66.34388754651212
 10
101.15009512452018
 20
65.75106337377437
 10
101.12041335667203
 20
65.16101217941352
 10
101.07124175849827
 20
64.5741580372168
 10
101.00282416037692
 20
63.9909250209715
 10
100.91540439268599
 20
63.41173720446488
 10
100.80922628580352
 20
62.837018661484194
 10
100.68453367010754
 20
62.26719346581673
 10
100.54157037597604
 20
61.702685691249705
 10
100.38058023378707
 20
61.143919411570415
 10
100.20180707391866
 20
60.591318700566106
 10
100.00549472674882
 20
60.045307632024034
 10
99.79188702265557
 20
59.50631027973149
 10
99.56122779201696
 20
58.974750717475715
 10
99.31376086521097
 20
58.451053019043975
 10
99.04973007261565
 20
57.93564125822352
 10
98.76937924460903
 20
57.42893950880163
 10
98.47295221156912
 20
56.931371844565554
 10
98.16069280387396
 20
56.443362339302574
 10
97.83284485190157
 20
55.96533506679993
 10
97.48965218602994
 20
55.497714100844874
 10
97.13135863663713
 20
55.0409235152247
 10
96.75820803410117
 20
54.59538738372667
 10
96.37044420880005
 20
54.16152978013801
 10
95.96831099111185
 20
53.73977477824601
 10
95.55205221141456
 20
53.33054645183792
 10
95.12191170008617
 20
52.93426887470101
 10
94.67813328750475
 20
52.55136612062253
 10
94.22096080404832
 20
52.18226226338977
 10
93.7506380800949
 20
51.82738137678995
 10
93.2674089460225
 20
51.487147534610365
 10
92.77151723220915
 20
51.161984810638266
 10
92.26320676903288
 20
50.85231727866091
 10
92.15156734430951
 20
50.77285215000582
 10
92.05699846512489
 20
50.67764226645986
 10
91.98056978893446
 20
50.569362237989765
 10
91.92335097319355
 20
50.450686674562185
 10
91.88641167535769
 20
50.324290186143806
 10
91.87082155288228
 20
50.19284738270132
 10
91.87765026322276
 20
50.059032874201414
 10
91.90796746383454
 20
49.92552127061075
 10
95.75009999707898
 20
37.910916217885976
 10
95.77095419492099
 20
37.81861425884127
 10
95.77478423198797
 20
37.734010384632064
 10
95.76503223477712
 20
37.65754637664618
 10
95.74514032978564
 20
37.58966401627149
 10
95.71855064351074
 20
37.53080508489582
 10
95.68870530244962
 20
37.481411363907014
 10
95.63301616195749
 20
37.412786678641375
 10
95.56584882808944
 20
37.354925295843934
 10
95.51712549178627
 20
37.32355276165633
 10
95.45886699588037
 20
37.29520352187401
 10
95.39149180535433
 20
37.273365968695366
 10
95.31541838519074
 20
37.261528494318796
 10
95.23106520037213
 20
37.26317949094272
 10
95.13885071588106
 20
37.28180735076552
 10
83.8287713604677
 20
40.58214859325129
 10
84.10782219144475
 20
41.17928821472464
 10
84.36733653386082
 20
41.78554603894306
 10
84.60712920584864
 20
42.40036255155488
 10
84.82701502554087
 20
43.023178238208395
 10
90.77477614438415
 20
41.687559087192525
 10
90.86209880074571
 20
41.67763192093949
 10
90.93760557603711
 20
41.68498126511243
 10
91.01069355705427
 20
41.70665724056343
 10
91.07894363202303
 20
41.74210176169074
 10
91.13993668916915
 20
41.79075674289261
 10
91.20226528355127
 20
41.8681243723773
 10
91.24263978572317
 20
41.95721203762365
 10
91.25994394510633
 20
42.05336884007545
 10
91.25306151112225
 20
42.15194388117649
 10
89.2982564259058
 20
52.01725944345498
 10
89.83321488063287
 20
52.25650811528561
 10
90.35580078844629
 20
52.51366048052551
 10
90.86571181091378
 20
52.788270663153234
 10
91.36264560960313
 20
53.07989278714734
 10
91.84629984608215
 20
53.388080976486336
 10
92.31637218191855
 20
53.71238935514877
 10
92.77256027868017
 20
54.0523720471132
 10
93.21456179793473
 20
54.407583176358145
 10
93.64207440125004
 20
54.77757686686215
 10
94.05479575019385
 20
55.16190724260375
 10
94.45242350633396
 20
55.56012842756151
 10
94.83465533123812
 20
55.97179454571393
 10
95.20118888647411
 20
56.39645972103958
 10
95.55172183360972
 20
56.83367807751696
 10
95.88595183421268
 20
57.28300373912464
 10
96.2035765498508
 20
57.74399082984117
 10
96.50429364209182
 20
58.21619347364505
 10
96.78780077250359
 20
58.69916579451486
 10
97.05379560265378
 20
59.19246191642911
 10
97.30197579411022
 20
59.69563596336636
 10
97.53203900844068
 20
60.208242059305135
 10
97.74368290721291
 20
60.72983432822398
 10
97.9366051519947
 20
61.25996689410144
 10
98.11050340435385
 20
61.798193880916024
 10
98.2650753258581
 20
62.34406941264631
 10
98.40001857807522
 20
62.89714761327082
 10
98.515030822573
 20
63.456982606768086
 10
98.60980972091922
 20
64.02312851711667
 10
98.68405293468162
 20
64.59513946829509
 10
98.73745812542799
 20
65.17256958428189
 10
98.76972295472613
 20
65.7549729890556
 10
98.78054508414378
 20
66.34190380659479
 10
98.77580403551258
 20
66.72814684165998
 10
98.76161747188067
 20
67.1128055221806
 10
98.73804026664052
 20
67.49574902839524
 10
98.70512729318462
 20
67.87684654054249
 10
98.66293342490546
 20
68.25596723886099
 10
98.61151353519554
 20
68.63298030358932
 10
98.55092249744733
 20
69.0077549149661
 10
98.48121518505336
 20
69.38016025322993
 10
98.40244647140604
 20
69.75006549861942
 10
98.31467122989797
 20
70.11733983137317
 10
98.21794433392154
 20
70.48185243172978
 10
98.11232065686927
 20
70.84347247992785
 10
97.99785507213367
 20
71.20206915620601
 10
97.87460245310722
 20
71.55751164080286
 10
97.74261767318238
 20
71.90966911395698
 10
97.60195560575168
 20
72.25841075590698
 10
97.45267112420758
 20
72.60360574689149
 10
97.29481910194261
 20
72.9451232671491
 10
97.12845441234919
 20
73.28283249691842
 10
96.95363192881985
 20
73.61660261643804
 10
96.77040652474709
 20
73.94630280594659
 10
96.57883307352337
 20
74.27180224568265
 10
96.37896644854125
 20
74.59297011588485
 10
96.1708615231931
 20
74.90967559679177
 10
95.9545731708715
 20
75.22178786864204
 10
95.7301562649689
 20
75.52917611167425
 10
95.49766567887781
 20
75.831709506127
 10
95.2571562859907
 20
76.1292572322389
 10
95.00868295970005
 20
76.42168847024855
 10
94.75230057339843
 20
76.70887240039458
 10
94.48806400047825
 20
76.99067820291556
 10
94.21602811433198
 20
77.26697505805014
 10
93.93966692356634
 20
77.53422043086043
 10
93.657669305914
 20
77.79413083944631
 10
93.3701664400291
 20
78.0466506864285
 10
93.07728950456588
 20
78.29172437442776
 10
92.77916967817856
 20
78.52929630606477
 10
92.47593813952129
 20
78.75931088396028
 10
92.1677260672483
 20
78.98171251073501
 10
91.8546646400138
 20
79.19644558900968
 10
91.53688503647197
 20
79.40345452140501
 10
91.21451843527704
 20
79.60268371054175
 10
90.88769601508318
 20
79.7940775590406
 10
90.55654895454465
 20
79.9775804695223
 10
90.2212084323156
 20
80.15313684460756
 10
89.88180562705026
 20
80.32069108691711
 10
89.53847171740277
 20
80.48018759907166
 10
89.19133788202743
 20
80.63157078369197
 10
88.84053529957836
 20
80.77478504339874
 10
88.48619514870981
 20
80.9097747808127
 10
88.12844860807596
 20
81.03648439855458
 10
87.76742685633101
 20
81.15485829924509
 10
87.40326107212918
 20
81.26484088550495
 10
87.03608243412467
 20
81.36637655995493
 10
86.66602212097166
 20
81.45940972521572
 10
86.29321131132437
 20
81.54388478390804
 10
85.91778118383701
 20
81.61974613865263
 10
85.53986291716376
 20
81.6869381920702
 10
85.15958768995884
 20
81.7454053467815
 10
84.77708668087644
 20
81.79509200540721
 10
84.39249106857078
 20
81.83594257056811
 10
84.00593203169605
 20
81.8679014448849
 10
83.61754074890644
 20
81.89091303097828
 10
83.22744839885617
 20
81.904921731469
 10
82.12210403751635
 20
81.94774525655968
 10
80.71349122943772
 20
82.0168023768073
 10
78.96458774314203
 20
82.10933330295185
 10
78.91894225171059
 20
81.31749002927866
 10
80.71348995943777
 20
81.22098908329954
 10
82.10715571480587
 20
81.15311020550283
 10
83.20759999301652
 20
81.11109217787856
 10
83.59465520854756
 20
81.09711102558244
 10
83.97897490261926
 20
81.07403041129578
 10
84.36045155821353
 20
81.04195762478307
 10
84.7389776583123
 20
81.00099995580884
 10
85.1144456858975
 20
80.95126469413759
 10
85.48674812395106
 20
80.89285912953386
 10
85.85577745545488
 20
80.82589055176214
 10
86.22142616339094
 20
80.75046625058694
 10
86.58358673074112
 20
80.66669351577276
 10
86.94215164048737
 20
80.57467963708415
 10
87.29701337561161
 20
80.47453190428558
 10
87.64806441909579
 20
80.3663576071416
 10
87.9951972539218
 20
80.25026403541669
 10
88.33830436307159
 20
80.12635847887536
 10
88.67727822952706
 20
79.99474822728214
 10
89.0120113362702
 20
79.85554057040156
 10
89.34239616628287
 20
79.70884279799809
 10
89.66832520254704
 20
79.55476219983625
 10
89.98969092804461
 20
79.39340606568057
 10
90.30638582575754
 20
79.22488168529554
 10
90.61830237866772
 20
79.0492963484457
 10
90.9253330697571
 20
78.86675734489552
 10
91.22737038200756
 20
78.67737196440956
 10
91.52430679840111
 20
78.4812474967523
 10
91.81603480191964
 20
78.27849123168828
 10
92.10244687554508
 20
78.06921045898196
 10
92.38343550225932
 20
77.8535124683979
 10
92.65889316504435
 20
77.63150454970058
 10
92.92871234688204
 20
77.40329399265454
 10
93.19278553075434
 20
77.16898808702426
 10
93.45100519964318
 20
76.92869412257429
 10
93.70326383653051
 20
76.68251938906911
 10
93.94945392439824
 20
76.43057117627325
 10
94.18946794622828
 20
76.1729567739512
 10
94.42319838500255
 20
75.90978347186748
 10
94.65053772370302
 20
75.64115855978662
 10
94.87137844531159
 20
75.36718932747313
 10
95.0856130328102
 20
75.08798306469149
 10
95.29313396918077
 20
74.80364706120622
 10
95.49383373740521
 20
74.51428860678185
 10
95.68760482046547
 20
74.22001499118288
 10
95.87433970134349
 20
73.92093350417383
 10
96.05393086302115
 20
73.61715143551922
 10
96.22627078848043
 20
73.30877607498354
 10
96.39125196070323
 20
72.99591471233131
 10
96.54876686267146
 20
72.67867463732705
 10
96.69870797736709
 20
72.35716313973525
 10
96.84096778777202
 20
72.03148750932044
 10
96.97543877686819
 20
71.70175503584713
 10
97.10201342763752
 20
71.36807300907982
 10
97.2205842230619
 20
71.03054871878302
 10
97.33104364612335
 20
70.68928945472126
 10
97.4332841798037
 20
70.34440250665905
 10
97.52719830708497
 20
69.99599516436089
 10
97.612678510949
 20
69.6441747175913
 10
97.68961727437777
 20
69.28904845611478
 10
97.75790708035316
 20
68.93072366969587
 10
97.81744041185718
 20
68.56930764809904
 10
97.86810975187169
 20
68.20490768108881
 10
97.90980758337862
 20
67.83763105842972
 10
97.9424263893599
 20
67.46758506988625
 10
97.96585865279751
 20
67.09487700522294
 10
97.97999685667331
 20
66.71961415420427
 10
97.98473348396926
 20
66.34190380659479
 10
97.97410315836586
 20
65.77503750280638
 10
97.94241349876809
 20
65.21263975258788
 10
97.88996648099467
 20
64.65515570502842
 10
97.81706408086436
 20
64.1030305092171
 10
97.72400827419582
 20
63.55670931424307
 10
97.6111010368078
 20
63.01663726919542
 10
97.47864434451901
 20
62.48325952316327
 10
97.32694017314816
 20
61.95702122523573
 10
97.15629049851398
 20
61.43836752450193
 10
96.96699729643518
 20
60.927743570051
 10
96.75936254273046
 20
60.42559451097206
 10
96.53368821321855
 20
59.9323654963542
 10
96.29027628371816
 20
59.44850167528655
 10
96.02942873004804
 20
58.97444819685824
 10
95.75144752802686
 20
58.51065021015838
 10
95.45663465347339
 20
58.05755286427608
 10
95.14529208220628
 20
57.61560130830046
 10
94.8177217900443
 20
57.185240691320665
 10
94.47422575280612
 20
56.76691616242578
 10
94.11510594631052
 20
56.361072870704945
 10
93.74066434637616
 20
55.968155965247256
 10
93.35120292882178
 20
55.58861059514185
 10
92.94702366946609
 20
55.22288190947784
 10
92.52842854412779
 20
54.871415057344336
 10
92.09571952862564
 20
54.53465518783047
 10
91.64919859877836
 20
54.21304745002534
 10
91.18916773040459
 20
53.907036993018096
 10
90.7159288993231
 20
53.61706896589782
 10
90.22978408135262
 20
53.34358851775365
 10
89.73103525231184
 20
53.08704079767471
 10
89.21998438801948
 20
52.847870954750114
 10
88.69693346429428
 20
52.62652413806896
 10
88.63427116254323
 20
52.59456058427056
 10
88.57928377805052
 20
52.55315499758434
 10
88.53276195523632
 20
52.50365637592282
 10
88.49549633852082
 20
52.447413717198565
 10
88.46827757232421
 20
52.385776019324084
 10
88.45189630106665
 20
52.320092280211945
 10
88.44714316916836
 20
52.251711497774686
 10
88.45480882104948
 20
52.18198266992485
 10
90.35404717524787
 20
42.5964963559868
 10
85.0651611822848
 20
43.78525525312184
 10
85.23955647699749
 20
44.422883369184206
 10
85.39348580193794
 20
45.067349224492915
 10
85.52676302273888
 20
45.718234175471665
 10
85.6392020050331
 20
46.37511957854415
 10
85.73061661445333
 20
47.03758679013406
 10
85.80082071663232
 20
47.70521716666509
 10
85.84962817720283
 20
48.37759206456092
 10
85.87685286179764
 20
49.05429284024527
 10
85.91939766158744
 20
50.15495464563435
 10
85.987988334667
 20
51.55906992087956
 10
86.0812644332805
 20
53.303258003205045
 10
84.49558821935034
 20
53.392570326150356
 10
84.39909044837107
 20
51.59429908441167
 10
84.33121339619929
 20
50.19681937368165
 10
84.28919798794992
 20
49.09200083200743
 10
84.27227424615106
 20
48.62141851030249
 10
84.24428876074604
 20
48.15416744611088
 10
84.20537207814084
 20
47.69037818578046
 10
84.15565474474144
 20
47.23018127565909
 10
84.09526730695389
 20
46.77370726209465
 10
84.02434031118416
 20
46.32108669143498
 10
83.94300430383824
 20
45.87245011002795
 10
83.85138983132215
 20
45.42792806422141
 10
83.74962744004188
 20
44.987651100363244
 10
83.6378476764034
 20
44.55174976480131
 10
83.51618108681275
 20
44.12035460388346
 10
83.38475821767592
 20
43.69359616395757
 10
83.24370961539891
 20
43.27160499137149
 10
83.0931658263877
 20
42.8545116324731
 10
82.93325739704831
 20
42.44244663361025
 10
82.76411487378672
 20
42.03554054113079
 10
82.58586880300894
 20
41.63392390138261
 10
82.39864973112097
 20
41.23772726071355
 10
82.20258820452878
 20
40.84708116547148
 10
81.99781476963842
 20
40.46211616200427
 10
81.78445997285586
 20
40.08296279665978
 10
81.56265436058708
 20
39.70975161578586
 10
81.3325284792381
 20
39.342613165730384
 10
81.09421287521494
 20
38.98167799284122
 10
80.84783809492356
 20
38.62707664346621
 10
80.59353468476996
 20
38.27893966395324
 10
80.33143319116017
 20
37.93739760065016
 10
80.06166416050017
 20
37.60258099990484
 10
79.78435813919596
 20
37.27462040806512
 10
79.49964567365353
 20
36.9536463714789
 10
79.20765731027889
 20
36.639789436494006
 10
78.90852359547804
 20
36.33318014945832
 10
78.60237507565698
 20
36.033949056719706
 10
78.28934229722168
 20
35.74222670462602
 10
77.96955580657819
 20
35.458143639525126
 10
77.64314615013244
 20
35.18183040776489
 10
77.31024387429048
 20
34.91341755569317
 10
76.9709795254583
 20
34.65303562965783
 10
76.6254836500419
 20
34.400815176006724
 10
76.27388679444728
 20
34.15688674108774
 10
75.91631950508042
 20
33.92138087124871
 10
75.55291232834735
 20
33.69442811283752
 10
75.18379581065403
 20
33.47615901220202
 10
74.80910049840647
 20
33.266704115690075
 10
74.4289569380107
 20
33.06619396964955
 10
74.04349567587268
 20
32.87475912042831
 10
73.65284725839842
 20
32.6925301143742
 10
73.25714223199394
 20
32.5196374978351
 10
72.8565111430652
 20
32.35621181715887
 10
72.45108453801822
 20
32.202383618693375
 10
72.04099296325903
 20
32.058283448786476
 10
71.62636696519357
 20
31.92404185378603
 10
71.20733709022787
 20
31.799789380039897
 10
70.78403388476791
 20
31.685656573895955
 10
70.3565878952197
 20
31.581773981702053
 10
69.92512966798925
 20
31.488272149806054
 10
69.48978974948255
 20
31.405281624555826
 10
69.0506986861056
 20
31.332932952299238
 10
68.60798702426439
 20
31.27135667938414
 10
68.16178531036493
 20
31.220683352158392
 10
67.71222409081322
 20
31.18104351696987
 10
67.25943391201525
 20
31.152567720166424
 10
66.80354532037701
 20
31.135386508095923
 10
66.34468886230451
 20
31.129630427106232
 10
65.75186468948925
 20
31.139578548823486
 10
65.16181349458577
 20
31.16926035914965
 10
64.57495935091629
 20
31.21843202584635
 10
63.991726331802944
 20
31.28684971667522
 10
63.412538510567934
 20
31.374269599397877
 10
62.83781996053343
 20
31.480447841775945
 10
62.26799475502158
 20
31.60514061157106
 10
61.70348696735459
 20
31.748104076544827
 10
61.144720670854625
 20
31.909094404458887
 10
60.59211993884385
 20
32.087867763074854
 10
60.04610884464444
 20
32.28418032015436
 10
59.50711146157858
 20
32.49778824345903
 10
58.97555186296844
 20
32.72844770075048
 10
58.451854122136176
 20
32.97591485979034
 10
57.93644231240399
 20
33.23994588834024
 10
57.42974050709404
 20
33.520296954161786
 10
56.93217277952851
 20
33.81672422501662
 10
56.444163203029554
 20
34.12898386866637
 10
55.96613585091937
 20
34.45683205287265
 10
55.49851479652012
 20
34.80002494539708
 10
55.04172411315398
 20
35.15831871400129
 10
54.59618787414311
 20
35.531469526446905
 10
54.162330152809716
 20
35.91923355049556
 10
53.74057502247595
 20
36.321366953908864
 10
53.331346556463984
 20
36.73762590444845
 10
52.935068828096
 20
37.16776656987594
 10
52.552165910694164
 20
37.61154511795296
 10
52.18306187758066
 20
38.06871771644112
 10
51.82818080207767
 20
38.53904053310207
 10
51.48794675750734
 20
39.02226973569742
 10
51.162783817191865
 20
39.5181614919888
 10
50.85311605445341
 20
40.02647196973782
 10
50.77365113415767
 20
40.138111602820544
 10
50.67844175662733
 20
40.23268098802078
 10
50.570162353235325
 20
40.30911028928935
 10
50.451487355354594
 20
40.36632967057708
 10
50.32509119435808
 20
40.40326929583481
 10
50.19364830161872
 20
40.418859329013344
 10
50.05983310850947
 20
40.41202993406352
 10
49.926320046403234
 20
40.38171127493618
  0
LWPOLYLINE
  5
8F
330
17
100
AcDbEntity
  8
LOGO
100
AcDbPolyline
 90
421
 70
1
 10
66.34468886230451
 20
29.543960139842497
 10
66.82953468003208
 20
29.54991397390513
 10
67.3123906064351
 20
29.56772944810341
 10
67.79309238999573
 20
29.597337520452914
 10
68.2714757791962
 20
29.638669148969207
 10
68.74737652251865
 20
29.691655291667864
 10
69.2206303684453
 20
29.756226906564457
 10
69.69107306545828
 20
29.832314951674558
 10
70.15854036203984
 20
29.91985038501374
 10
70.62286800667215
 20
30.018764164597574
 10
71.08389174783737
 20
30.128987248441632
 10
71.54144733401773
 20
30.25045059456148
 10
71.99537051369536
 20
30.383085160972705
 10
72.44549703535249
 20
30.526821905690863
 10
72.89166264747128
 20
30.681591786731538
 10
73.33370309853392
 20
30.847325762110298
 10
73.7714541370226
 20
31.02395478984272
 10
74.20475151141952
 20
31.211409827944365
 10
74.63343097020683
 20
31.409621834430812
 10
75.05732826186674
 20
31.618521767317628
 10
75.47627913488145
 20
31.83804058462039
 10
75.89011933773311
 20
32.06810924435467
 10
76.29868461890395
 20
32.308658704536036
 10
76.7018107268761
 20
32.55961992318007
 10
77.09933341013179
 20
32.820923858302336
 10
77.4910884171532
 20
33.09250146791841
 10
77.87691149642248
 20
33.37428371004386
 10
78.25663839642185
 20
33.66620154269425
 10
78.6301048656335
 20
33.96818592388517
 10
78.9971466525396
 20
34.28016781163218
 10
79.35759950562233
 20
34.60207816395086
 10
79.71129917336388
 20
34.933847938856765
 10
80.05808140424647
 20
35.27540809436549
 10
80.48737575573419
 20
35.722621820991996
 10
80.90143614035668
 20
36.18139441244939
 10
81.30009991874567
 20
36.651376975939705
 10
81.68320445153299
 20
37.13222061866497
 10
82.05058709935038
 20
37.62357644782721
 10
82.40208522282963
 20
38.1250955706285
 10
82.7375361826025
 20
38.63642909427086
 10
83.0567773393008
 20
39.157228125956316
 10
94.69232466115295
 20
35.761626727439705
 10
94.8385018667289
 20
35.72515789843841
 10
94.98505118228935
 20
35.69910981587792
 10
95.1316004978498
 20
35.683481606633265
 10
95.27777770342574
 20
35.678272397579484
 10
95.48442776226327
 20
35.68854019336259
 10
95.68814765341034
 20
35.719111031815366
 10
95.8874954903646
 20
35.76963608959297
 10
96.08102938662358
 20
35.83976654335056
 10
96.26730745568491
 20
35.929153569743285
 10
96.44488781104616
 20
36.03744834542631
 10
96.61232856620488
 20
36.164302047054804
 10
96.76818783465868
 20
36.309365851283914
 10
96.8652671504786
 20
36.41599148902217
 10
96.95400588427302
 20
36.527931525874926
 10
97.0342964866421
 20
36.644732418072024
 10
97.106031408186
 20
36.7659406218433
 10
97.16910309950495
 20
36.89110259341858
 10
97.22340401119914
 20
37.01976478902771
 10
97.26882659386868
 20
37.15147366490052
 10
97.30526329811383
 20
37.28577567726684
 10
97.33260657453474
 20
37.42221728235651
 10
97.35074887373163
 20
37.56034493639937
 10
97.35958264630464
 20
37.69970509562525
 10
97.35900034285396
 20
37.839844216263984
 10
97.34889441397979
 20
37.98030875454541
 10
97.32915731028231
 20
38.12064516669936
 10
97.29968148236172
 20
38.26039990895568
 10
97.26035938081817
 20
38.399119437544186
 10
93.60874715963537
 20
49.81834936174292
 10
94.13223313164548
 20
50.16073447691433
 10
94.6427687402523
 20
50.518560223692134
 10
95.14011342433552
 20
50.89140616465612
 10
95.62402662277478
 20
51.278851862386034
 10
96.09426777444969
 20
51.68047687946168
 10
96.55059631823995
 20
52.095860778462814
 10
96.9927716930252
 20
52.524583121969215
 10
97.4205533376851
 20
52.96622347256065
 10
97.8337006910993
 20
53.42036139281691
 10
98.23197319214744
 20
53.88657644531776
 10
98.61513027970918
 20
54.36444819264297
 10
98.98293139266414
 20
54.853556197372306
 10
99.33513596989204
 20
55.35348002208556
 10
99.67150345027248
 20
55.863799229362506
 10
99.99179327268511
 20
56.384093381782904
 10
100.29576487600961
 20
56.91394204192653
 10
100.58317769912563
 20
57.45292477237318
 10
100.85379118091281
 20
58.0006211357026
 10
101.1073647602508
 20
58.55661069449458
 10
101.34365787601928
 20
59.12047301132889
 10
101.56242996709786
 20
59.69178764878531
 10
101.76344047236623
 20
60.27013416944359
 10
101.94644883070401
 20
60.85509213588353
 10
102.11121448099088
 20
61.446241110684895
 10
102.25749686210648
 20
62.04316065642745
 10
102.38505541293044
 20
62.645430335690996
 10
102.49364957234246
 20
63.2526297110553
 10
102.58303877922215
 20
63.864338345100116
 10
102.65298247244917
 20
64.48013580040522
 10
102.70324009090321
 20
65.0996016395504
 10
102.73357107346388
 20
65.72231542511543
 10
102.74373485901084
 20
66.34785671968007
 10
102.73778666961634
 20
66.83270269375468
 10
102.71998740161166
 20
67.3155587720089
 10
102.69040500526492
 20
67.79626070338998
 10
102.64910743084428
 20
68.27464423684516
 10
102.59616262861795
 20
68.75054512132178
 10
102.53163854885405
 20
69.2237991057671
 10
102.45560314182079
 20
69.69424193912836
 10
102.3681243577863
 20
70.16170937035287
 10
102.26927014701874
 20
70.62603714838788
 10
102.15910845978631
 20
71.08706102218066
 10
102.03770724635716
 20
71.54461674067849
 10
101.90513445699943
 20
71.99854005282866
 10
101.7614580419813
 20
72.44866670757843
 10
101.60674595157094
 20
72.89483245387507
 10
101.44106613603654
 20
73.33687304066586
 10
101.26448654564622
 20
73.77462421689808
 10
101.07707513066816
 20
74.20792173151897
 10
100.87889984137054
 20
74.63660133347584
 10
100.6700286280215
 20
75.06049877171594
 10
100.45052944088923
 20
75.47944979518658
 10
100.22047023024186
 20
75.89329015283501
 10
99.9799189463476
 20
76.30185559360848
 10
99.7289435394746
 20
76.70498186645429
 10
99.467611959891
 20
77.10250472031971
 10
99.19599215786499
 20
77.49425990415202
 10
98.91415208366472
 20
77.88008316689849
 10
98.62215968755835
 20
78.25981025750637
 10
98.32008291981407
 20
78.63327692492297
 10
98.00798973070003
 20
79.00031891809553
 10
97.68594807048441
 20
79.36077198597134
 10
97.35402588943535
 20
79.71447187749769
 10
97.01229113782104
 20
80.06125434162182
 10
96.5650772292935
 20
80.49054596955497
 10
96.10630415827883
 20
80.90460443429474
 10
95.63632091679375
 20
81.30326694764473
 10
95.15547649685496
 20
81.68637072140862
 10
94.6641198904792
 20
82.0537529673901
 10
94.16260008968317
 20
82.40525089739279
 10
93.65126608648355
 20
82.74070172322035
 10
93.13046687289703
 20
83.05994265667647
 10
96.52607335141343
 20
94.69549268786186
 10
96.56167448333663
 20
94.83521276213753
 10
96.58743825892167
 20
94.97573228277633
 10
96.60348092657189
 20
95.1165948368501
 10
96.6099187346907
 20
95.25734401143055
 10
96.60686793168144
 20
95.39752339358938
 10
96.59444476594744
 20
95.53667657039844
 10
96.57276548589209
 20
95.67434712892941
 10
96.54194633991871
 20
95.81007865625409
 10
96.50210357643073
 20
95.9434147394442
 10
96.45335344383145
 20
96.0738989655715
 10
96.39581219052425
 20
96.2010749217077
 10
96.32959606491248
 20
96.32448619492463
 10
96.25482131539952
 20
96.443676372294
 10
96.1716041903887
 20
96.55818904088753
 10
96.0800609382834
 20
96.667567787777
 10
95.98030780748698
 20
96.7713562000342
 10
95.87368228136982
 20
96.86810788701835
 10
95.7617425496147
 20
96.95660346322052
 10
95.64494211134337
 20
97.0367266424102
 10
95.52373446567755
 20
97.10836113835691
 10
95.39857311173895
 20
97.17139066483014
 10
95.26991154864932
 20
97.22569893559935
 10
95.1382032755304
 20
97.27116966443405
 10
95.0039017915039
 20
97.30768656510378
 10
94.86746059569155
 20
97.33513335137798
 10
94.72933318721509
 20
97.35339373702612
 10
94.58997306519625
 20
97.36235143581774
 10
94.44983372875674
 20
97.36189016152238
 10
94.30936867701831
 20
97.35189362790945
 10
94.1690314091027
 20
97.33224554874846
 10
94.02927542413158
 20
97.30282963780893
 10
93.89055422122674
 20
97.26352960886031
 10
82.47132937702779
 20
93.61191611767755
 10
82.12930486453341
 20
94.13522741463858
 10
81.77181719033592
 20
94.64561052388055
 10
81.39928751863285
 20
95.14282379366762
 10
81.01213701362175
 20
95.62662557226386
 10
80.61078683950015
 20
96.0967742079334
 10
80.1956581604656
 20
96.55302804894028
 10
79.76717214071562
 20
96.99514544354865
 10
79.32574994444778
 20
97.4228847400226
 10
78.87181273585959
 20
97.83600428662619
 10
78.4057816791486
 20
98.23426243162355
 10
77.92807793851236
 20
98.61741752327877
 10
77.4391226781484
 20
98.98522790985595
 10
76.93933706225424
 20
99.33745193961917
 10
76.42914225502746
 20
99.67384796083256
 10
75.90895942066557
 20
99.9941743217602
 10
75.37920972336613
 20
100.29818937066615
 10
74.84031432732665
 20
100.58565145581454
 10
74.29269439674471
 20
100.85631892546952
 10
73.7367710958178
 20
101.1099501278951
 10
73.17296558874348
 20
101.34630341135544
 10
72.6016990397193
 20
101.56513712411457
 10
72.02339261294283
 20
101.76620961443665
 10
71.43846747261155
 20
101.94927923058573
 10
70.847344782923
 20
102.11410432082594
 10
70.25044570807476
 20
102.26044323342134
 10
69.64819141226437
 20
102.38805431663612
 10
69.04100305968933
 20
102.49669591873429
 10
68.4293018145472
 20
102.58612638797996
 10
67.81350884103553
 20
102.65610407263725
 10
67.19404530335183
 20
102.70638732097024
 10
66.57133236569366
 20
102.73673448124303
 10
65.94579119225857
 20
102.7469039017197
 10
65.46094515090124
 20
102.74095569498263
 10
64.97808902830866
 20
102.72315637701713
 10
64.4973870736732
 20
102.69357390119205
 10
64.01900353618723
 20
102.65227622087609
 10
63.543102665043136
 20
102.59933128943798
 10
63.06984870943328
 20
102.53480706024652
 10
62.59940591855003
 20
102.45877148667046
 10
62.13193854158578
 20
102.37129252207852
 10
61.667610827732894
 20
102.27243811983946
 10
61.20658702618377
 20
102.16227623332205
 10
60.749031386130746
 20
102.040874815895
 10
60.295108156766226
 20
101.90830182092712
 10
59.844981587282554
 20
101.76462520178708
 10
59.398815926872146
 20
101.60991291184372
 10
58.95677542472735
 20
101.44423290446571
 10
58.519024330040544
 20
101.26765313302184
 10
58.08572689200411
 20
101.08024155088084
 10
57.65704735981042
 20
100.88206611141152
 10
57.233149982651845
 20
100.67319476798257
 10
56.81419900972077
 20
100.45369547396278
 10
56.40035869020956
 20
100.22363618272088
 10
55.9917932733106
 20
99.98308484762559
 10
55.588667008216255
 20
99.73210942204571
 10
55.19114414411889
 20
99.47077785934998
 10
54.79938893021091
 20
99.19915811290714
 10
54.41356561568466
 20
98.91731813608592
 10
54.03383844973255
 20
98.62532588225511
 10
53.66037168154692
 20
98.32324930478345
 10
53.29332956032016
 20
98.01115635703968
 10
52.93287633524464
 20
97.68911499239256
 10
52.57917625551274
 20
97.35719316421086
 10
52.23239357031683
 20
97.01545882586326
 10
51.80310166291755
 20
96.56824378409229
 10
51.389042988164775
 20
96.1094701463732
 10
50.99038032433301
 20
95.63948677276183
 10
50.60727644969671
 20
95.15864252331394
 10
50.23989414253036
 20
94.66728625808531
 10
49.88839618110839
 20
94.16576683713168
 10
49.552945343705304
 20
93.65443312050887
 10
49.23370440859556
 20
93.13363396827265
 10
37.59815505474347
 20
96.53122223937312
 10
37.45843508479219
 20
96.56682446253717
 10
37.31791565545527
 20
96.59258909024584
 10
37.17705318052913
 20
96.60863240562912
 10
37.036304073810186
 20
96.61507069181694
 10
36.89612474909484
 20
96.61202023193916
 10
36.7569716201795
 20
96.59959730912571
 10
36.619301100860596
 20
96.57791820650657
 10
36.48356960493454
 20
96.54709920721157
 10
36.35023354619772
 20
96.50725659437069
 10
36.21974933844657
 20
96.45850665111386
 10
36.0925733954775
 20
96.40096566057099
 10
35.969162131086925
 20
96.33474990587197
 10
35.84997195907125
 20
96.25997567014674
 10
35.73545929322689
 20
96.17675923652523
 10
35.626080547350256
 20
96.08521688813734
 10
35.52229213523776
 20
95.985464908113
 10
35.42554035044047
 20
95.87883863291499
 10
35.33704470073375
 20
95.76689821371865
 10
35.25692146887543
 20
95.6500971557229
 10
35.18528693762339
 20
95.5288889641266
 10
35.122257389735466
 20
95.40372714412862
 10
35.0679491079695
 20
95.27506520092784
 10
35.02247837508335
 20
95.14335663972314
 10
34.98596147383487
 20
95.00905496571342
 10
34.9585146869819
 20
94.87261368409754
 10
34.94025429728231
 20
94.73448630007435
 10
34.93129658749392
 20
94.59512631884279
 10
34.9317578403746
 20
94.45498724560166
 10
34.94175433868221
 20
94.31452258554988
 10
34.96140236517458
 20
94.17418584388635
 10
34.99081820260957
 20
94.03443052580994
 10
35.03011813374501
 20
93.89571013651947
 10
38.68173162492778
 20
82.47647843432081
 10
38.158240042012324
 20
82.13391331820596
 10
37.647687910903066
 20
81.77591880235681
 10
37.15031651997826
 20
81.40291496235523
 10
36.66636715761614
 20
81.01532187378305
 10
36.196081112194975
 20
80.61355961222218
 10
35.73969967209301
 20
80.19804825325441
 10
35.2974641256885
 20
79.76920787246168
 10
34.86961576135969
 20
79.32745854542581
 10
34.456395867484844
 20
78.87322034772868
 10
34.0580457324422
 20
78.40691335495211
 10
33.67480664461002
 20
77.928957642678
 10
33.30691989236656
 20
77.43977328648822
 10
32.95462676409006
 20
76.93978036196461
 10
32.61816854815876
 20
76.42939894468904
 10
32.29778653295095
 20
75.90904911024337
 10
31.993722006844855
 20
75.37915093420946
 10
31.70621625821873
 20
74.8401244921692
 10
31.435510575450834
 20
74.29238985970441
 10
31.181846246919417
 20
73.73636711239696
 10
30.94546456100272
 20
73.17247632582874
 10
30.72660680607901
 20
72.60113757558157
 10
30.525514270526532
 20
72.02277093723735
 10
30.342428242723535
 20
71.43779648637793
 10
30.177590011048277
 20
70.84663429858517
 10
30.03124086387901
 20
70.24970444944093
 10
29.903622089593977
 20
69.64742701452707
 10
29.794974976571442
 20
69.04022206942547
 10
29.705540813189653
 20
68.42850968971797
 10
29.63556088782686
 20
67.81270995098645
 10
29.58527648886131
 20
67.19324292881274
 10
29.554928904671264
 20
66.57052869877874
 10
29.544759423634968
 20
65.9449873364663
 10
29.55070763037207
 20
65.4601358933459
 10
29.568506948337543
 20
64.97726381630146
 10
29.598089424162637
 20
64.49653644515644
 10
29.639387104478605
 20
64.01811911973425
 10
29.692332035916692
 20
63.54217717985834
 10
29.756856265108144
 20
63.068875965352134
 10
29.832891838684212
 20
62.59838081603907
 10
29.920370803276157
 20
62.130857071742575
 10
30.019225205515216
 20
61.66647007228608
 10
30.12938709203264
 20
61.20538515749304
 10
30.250788509459685
 20
60.74776766718686
 10
30.38336150442759
 20
60.29378294119098
 10
30.527038123567603
 20
59.843596319328846
 10
30.68175041351099
 20
59.39737314142388
 10
30.84743042088899
 20
58.955278747299516
 10
31.024010192332852
 20
58.51747847677918
 10
31.211421774473823
 20
58.08413766968632
 10
31.409597213943158
 20
57.65542166584438
 10
31.618468557372104
 20
57.23149580507677
 10
31.8379678513919
 20
56.812525427206914
 10
32.068027142633824
 20
56.39867587205827
 10
32.30857847772909
 20
55.99011247945427
 10
32.55955390330897
 20
55.587000589218334
 10
32.82088546600471
 20
55.189505541173894
 10
33.09250521244756
 20
54.79779267514439
 10
33.37434518926876
 20
54.412027330953265
 10
33.666337443099565
 20
54.032374848423935
 10
33.968414020571224
 20
53.65900056737984
 10
34.28050696831499
 20
53.29206982764441
 10
34.602548332962115
 20
52.931747969041076
 10
34.934470161143835
 20
52.57820033139328
 10
35.27620449949141
 20
52.23159225452446
 10
35.723419541262395
 20
51.80229958148717
 10
36.182193178981464
 20
51.38824046851828
 10
36.65217655259283
 20
50.98957762443913
 10
37.133020802040726
 20
50.60647375807106
 10
37.62437706726938
 20
50.239091578235424
 10
38.12589648822299
 20
49.88759379375356
 10
38.63723020484581
 20
49.55214311344681
 10
39.158029357082036
 20
49.23290224613653
 10
35.76044108598155
 20
37.59735407761773
 10
35.72483886281751
 20
37.45763429798041
 10
35.69907423510882
 20
37.317114966559984
 10
35.68303091972553
 20
37.176252501989815
 10
35.676592633537744
 20
37.03550332290318
 10
35.67964309341553
 20
36.89532384793345
 10
35.69206601622896
 20
36.756170495713924
 10
35.713745118848124
 20
36.618499684877946
 10
35.744564118143096
 20
36.482767834058826
 10
35.78440673098396
 20
36.349431361889906
 10
35.8331566742408
 20
36.218946687004504
 10
35.890697664783694
 20
36.09177022803595
 10
35.95691341948271
 20
35.96835840361756
 10
36.03168765520794
 20
35.84916763238267
 10
36.114904088829455
 20
35.7346543329646
 10
36.20644643721734
 20
35.62527492399669
 10
36.30619841724167
 20
35.521485824112254
 10
36.41282469243969
 20
35.42473445249904
 10
36.52476511163602
 20
35.33623924636211
 10
36.64156616963178
 20
35.25611648511072
 10
36.76277436122809
 20
35.184482448154064
 10
36.88793618122607
 20
35.12145341490137
 10
37.016598124426835
 20
35.067145664761846
 10
37.148306685631525
 20
35.02167547714472
 10
37.28260835964125
 20
34.9851591314592
 10
37.41904964125714
 20
34.95771290711451
 10
37.55717702528032
 20
34.93945308351987
 10
37.6965370065119
 20
34.930495940084484
 10
37.83667607975301
 20
34.93095775621759
 10
37.977140739804774
 20
34.94095481132839
 10
38.11747748146831
 20
34.96060338482611
 10
38.25723279954475
 20
34.990019756119956
 10
38.39595318883521
 20
35.029320204619154
 10
49.815184891033866
 20
38.680926499135545
 10
50.157569698523815
 20
38.1574410631392
 10
50.515395156843795
 20
37.64690595225392
 10
50.88824082795346
 20
37.149561728995266
 10
51.27568627381246
 20
36.665648955878886
 10
51.67731105638047
 20
36.19540819542037
 10
52.09269473761712
 20
35.73908001013534
 10
52.52141687948209
 20
35.2969049625394
 10
52.96305704393503
 20
34.869123615148176
 10
53.41719479293559
 20
34.455976530477265
 10
53.88340968844344
 20
34.057704271042276
 10
54.36128129241824
 20
33.674547399358836
 10
54.850389166819625
 20
33.30674647794254
 10
55.35031287360726
 20
32.95454206930901
 10
55.86063197474082
 20
32.618174735973845
 10
56.38092603217994
 20
32.29788504045268
 10
56.91077460788429
 20
31.9939135452611
 10
57.449757263813524
 20
31.706500812914737
 10
57.9974535619273
 20
31.435887405929183
 10
58.55344306418526
 20
31.18231388682007
 10
59.11730533254708
 20
30.94602081810299
 10
59.6886199289724
 20
30.727248762293566
 10
60.2669664154209
 20
30.52623828190741
 10
60.851924353852205
 20
30.343229939460123
 10
61.443073306226005
 20
30.178464297467332
 10
62.039992834501945
 20
30.032181918444635
 10
62.642262500639674
 20
29.904623364907643
 10
63.24946186659885
 20
29.79602919937198
 10
63.86117049433914
 20
29.70663998435324
 10
64.47696794582018
 20
29.63669628236705
 10
65.09643378300167
 20
29.586438655929012
 10
65.71914756784321
 20
29.55610766755474
 10
66.34468886230451
 20
29.54594387975985
  0
LWPOLYLINE
  5
90
330
17
100
AcDbEntity
  8
LOGO
100
AcDbPolyline
 90
152
 70
1
 10
78.13900480420799
 20
49.08604791892214
 10
78.10952503559785
 20
48.46988195705584
 10
78.05131159352919
 20
47.86282070480531
 10
77.96505055175516
 20
47.26554986850426
 10
77.85142798402889
 20
46.678755154486424
 10
77.71112996410356
 20
46.10312226908555
 10
77.54484256573231
 20
45.53933691863537
 10
77.35325186266832
 20
44.988084809469605
 10
77.13704392866468
 20
44.450051647921995
 10
76.8969048374746
 20
43.92592314032627
 10
76.6335206628512
 20
43.41638499301618
 10
76.34757747854765
 20
42.92212291232544
 10
76.03976135831708
 20
42.443822604587794
 10
75.71075837591266
 20
41.98216977613696
 10
75.36125460508754
 20
41.5378501333067
 10
74.99193611959487
 20
41.111549382430724
 10
74.60348899318781
 20
40.70395322984277
 10
74.19659929961949
 20
40.31574738187658
 10
73.77195311264309
 20
39.94761754486587
 10
73.33023650601172
 20
39.60024942514439
 10
72.87213555347857
 20
39.27432872904587
 10
72.39833632879679
 20
38.97054116290405
 10
71.90952490571952
 20
38.68957243305265
 10
71.4063873579999
 20
38.43210824582541
 10
70.88960975939112
 20
38.19883430755606
 10
70.35987818364629
 20
37.99043632457835
 10
69.81787870451859
 20
37.807600003225986
 10
69.26429739576116
 20
37.65101104983271
 10
68.69982033112714
 20
37.52135517073228
 10
68.12513358436969
 20
37.4193180722584
 10
67.540923229242
 20
37.345585460744815
 10
66.94787533949717
 20
37.300843042525266
 10
66.64825171719119
 20
37.28955743913004
 10
66.34667598888838
 20
37.28577652393347
 10
65.90748496484059
 20
37.293895408053395
 10
65.47129696759882
 20
37.318098470518045
 10
65.0384637552124
 20
37.358155326484706
 10
64.60933708573063
 20
37.413835591110704
 10
64.18426871720281
 20
37.48490887955332
 10
63.763610407678236
 20
37.57114480696988
 10
63.347713915206235
 20
37.67231298851768
 10
62.93693099783609
 20
37.78818303935403
 10
62.53161341361716
 20
37.91852457463623
 10
62.13211292059871
 20
38.06310720952158
 10
61.738781276830046
 20
38.22170055916739
 10
61.351970240360515
 20
38.39407423873096
 10
60.97203156923939
 20
38.57999786336959
 10
60.599317021515986
 20
38.77924104824061
 10
60.23417835523962
 20
38.99157340850129
 10
59.876967328459585
 20
39.21676455930896
 10
59.52803569922521
 20
39.45458411582092
 10
59.1877352255858
 20
39.70480169319446
 10
58.85641766559064
 20
39.967186906586896
 10
58.53443477728907
 20
40.24150937115553
 10
58.222138318730394
 20
40.52753870205767
 10
57.91988004796389
 20
40.82504451445061
 10
57.62801172303889
 20
41.133796423491674
 10
57.346885102004684
 20
41.453564044338144
 10
57.0768519429106
 20
41.78411699214734
 10
56.81826400380595
 20
42.125224882076566
 10
56.571473042740045
 20
42.47665732928312
 10
56.336830817762156
 20
42.838183948924296
 10
56.11468908692163
 20
43.20957435615742
 10
55.90539960826775
 20
43.590598166139785
 10
55.70931413984986
 20
43.981024994028694
 10
55.52678443971722
 20
44.38062445498146
 10
54.79844624339797
 20
44.06507772812924
 10
54.99334464923187
 20
43.638613887395756
 10
55.20270545014433
 20
43.2219316856285
 10
55.42615326968369
 20
42.81527749801126
 10
55.66331273139832
 20
42.418897699727886
 10
55.91380845883656
 20
42.03303866596221
 10
56.17726507554678
 20
41.65794677189805
 10
56.45330720507734
 20
41.29386839271922
 10
56.741559470976576
 20
40.941049903609574
 10
57.04164649679285
 20
40.59973767975291
 10
57.35319290607453
 20
40.27017809633307
 10
57.675823322369965
 20
39.95261752853388
 10
58.0091623692275
 20
39.64730235153916
 10
58.35283467019549
 20
39.354478940532736
 10
58.706464848822314
 20
39.07439367069845
 10
59.069677528656314
 20
38.807292917220096
 10
59.44209733324583
 20
38.55342305528153
 10
59.82334888613926
 20
38.313030460066564
 10
60.21305681088489
 20
38.086361506759026
 10
60.610845731031134
 20
37.87366257054275
 10
61.016340270126335
 20
37.67518002660155
 10
61.42916505171884
 20
37.491160250119265
 10
61.84894469935701
 20
37.321849616279714
 10
62.2753038365892
 20
37.16749450026672
 10
62.70786708696376
 20
37.028341277264104
 10
63.14625907402906
 20
36.90463632245571
 10
63.59010442133343
 20
36.79662601102535
 10
64.03902775242524
 20
36.704556718156866
 10
64.49265369085285
 20
36.62867481903407
 10
64.95060686016461
 20
36.569226688840786
 10
65.41251188390889
 20
36.52645870276084
 10
65.87799338563401
 20
36.500617235978076
 10
66.34667598888838
 20
36.4919486636763
 10
66.66846945797491
 20
36.495978644515745
 10
66.98818291436169
 20
36.5080076593473
 10
67.30572478451418
 20
36.52794431664082
 10
67.62100349489785
 20
36.55569722486614
 10
67.93392747197814
 20
36.591174992493094
 10
68.2444051422205
 20
36.63428622799154
 10
68.5523449320904
 20
36.68493953983131
 10
68.85765526805329
 20
36.74304353648224
 10
69.16024457657463
 20
36.80850682641418
 10
69.46002128411986
 20
36.88123801809697
 10
69.75689381715445
 20
36.96114572000047
 10
70.05077060214386
 20
37.048138540594486
 10
70.34156006555352
 20
37.142125088348884
 10
70.62917063384891
 20
37.243013971733504
 10
70.91351073349547
 20
37.35071379921819
 10
71.19448879095866
 20
37.465133179272776
 10
71.74599248519674
 20
37.71376503097102
 10
72.2829491282868
 20
37.988178394586974
 10
72.80462613195249
 20
38.287642137879374
 10
73.31029090791742
 20
38.61142512860697
 10
73.79921086790526
 20
38.95879623452847
 10
74.27065342363963
 20
39.329024323402635
 10
74.72388598684417
 20
39.72137826298819
 10
75.15817596924252
 20
40.13512692104386
 10
75.57279078255833
 20
40.5695391653284
 10
75.96699783851524
 20
41.02388386360054
 10
76.34006454883688
 20
41.497429883619006
 10
76.6912583252469
 20
41.98944609314254
 10
77.01984657946893
 20
42.49920135992988
 10
77.32509672322662
 20
43.025964551739754
 10
77.6062761682436
 20
43.569004536330894
 10
77.8626523262435
 20
44.127590181462054
 10
78.09349260894999
 20
44.70099035489195
 10
78.29806442808669
 20
45.288473924379325
 10
78.39027072998002
 20
45.58726850381917
 10
78.47563519537724
 20
45.889309757682916
 10
78.55406625074384
 20
46.194506294440394
 10
78.62547232254528
 20
46.50276672256146
 10
78.689761837247
 20
46.81399965051594
 10
78.74684322131446
 20
47.12811368677368
 10
78.79662490121312
 20
47.44501743980453
 10
78.8390153034084
 20
47.764619518078334
 10
78.8739228543658
 20
48.08682853006492
 10
78.90125598055076
 20
48.411553084234136
 10
78.92092310842872
 20
48.73870178905583
 10
78.93283266446517
 20
49.06818325299983
 10
78.9756859948671
 20
50.17353024694371
 10
79.04496000729318
 20
51.582143068251504
 10
79.13922797586535
 20
53.331044755380596
 10
78.34738470219216
 20
53.37470566022806
 10
78.250884391213
 20
51.580899949969975
 10
78.18300559279129
 20
50.18732861116044
 10
78.14098939079197
 20
49.08604791892214
  0
LWPOLYLINE
  5
91
330
17
100
AcDbEntity
  8
LOGO
100
AcDbPolyline
 90
313
 70
1
 10
78.54584336058971
 20
57.766566983900496
 10
78.50558045744755
 20
57.48007622430607
 10
78.45897120492839
 20
57.20157456431055
 10
78.34749202421568
 20
56.66808667110443
 10
78.21296256336477
 20
56.16519956025854
 10
78.05693956728884
 20
55.692009487749246
 10
77.88097978090099
 20
55.24761270955292
 10
77.68663994911445
 20
54.831105481645956
 10
77.47547681684236
 20
54.44158406000472
 10
77.24904712899789
 20
54.0781447006056
 10
77.00890763049418
 20
53.739883659424954
 10
76.7566150662444
 20
53.42589719243916
 10
76.49372618116172
 20
53.1352815556246
 10
76.22179772015933
 20
52.86713300495766
 10
75.94238642815034
 20
52.620547796414705
 10
75.65704905004795
 20
52.39462218597211
 10
75.3673423307653
 20
52.18845242960626
 10
75.07482301521557
 20
52.001134783293516
 10
74.78104784831191
 20
51.83176550301027
 10
74.4875735749675
 20
51.6794408447329
 10
74.19595694009548
 20
51.54325706443778
 10
73.90775468860905
 20
51.4223104181013
 10
73.62452356542133
 20
51.31569716169981
 10
73.3478203154455
 20
51.2225135512097
 10
73.07920168359473
 20
51.14185584260735
 10
72.82022441478217
 20
51.07282029186912
 10
72.33742094592438
 20
50.96600068789058
 10
71.9118638681774
 20
50.89482478708508
 10
71.55600714084657
 20
50.852062637263636
 10
71.28230472323717
 20
50.83048428623728
 10
71.11479263166053
 20
51.15964053468064
 10
70.87749877696606
 20
51.60524607715867
 10
70.57199298946924
 20
52.15155902868273
 10
70.1998450994855
 20
52.782837504264236
 10
69.76262493733029
 20
53.48333961891454
 10
69.26190233331906
 20
54.23732348764503
 10
68.988218187591
 20
54.62945174073138
 10
68.69924711776726
 20
55.029047225467075
 10
68.3951853526372
 20
55.43414220622851
 10
68.07622912099032
 20
55.84276894739209
 10
67.74257465161601
 20
56.252959713334256
 10
67.39441817330373
 20
56.662746768431425
 10
67.03195591484288
 20
57.07016237706002
 10
66.65538410502293
 20
57.47323880359646
 10
66.26489897263326
 20
57.870008312417184
 10
65.86069674646335
 20
58.2585031678986
 10
65.44297365530261
 20
58.63675563441714
 10
65.01192592794045
 20
59.00279797634921
 10
64.56774979316634
 20
59.354662458071246
 10
64.1106414797697
 20
59.69038134395967
 10
63.640797216539944
 20
60.007986898390904
 10
63.15841323226651
 20
60.30551138574136
 10
62.66368575573885
 20
60.58098707038748
 10
62.15681101574636
 20
60.83244621670568
 10
61.637985241078496
 20
61.05792108907236
 10
61.37415203723799
 20
61.16029950514151
 10
61.107404660524686
 20
61.25544395186396
 10
60.72590520757935
 20
61.3789801655838
 10
60.355406087378796
 20
61.48612011443994
 10
59.99593062625018
 20
61.57684061101149
 10
59.64750215052063
 20
61.65111846787752
 10
59.31014398651733
 20
61.70893049761711
 10
58.98387946056742
 20
61.75025351280939
 10
58.66873189899805
 20
61.77506432603341
 10
58.364724628136365
 20
61.78333974986829
 10
58.05979353483922
 20
61.77440531181608
 10
57.76721205001189
 20
61.74758648646218
 10
57.48704983513584
 20
61.70286000701068
 10
57.21937655169255
 20
61.640202606665675
 10
56.964261861163465
 20
61.55959101863127
 10
56.72177542503008
 20
61.46100197611153
 10
56.491986904773874
 20
61.344412212310594
 10
56.27496596187631
 20
61.209798460432516
 10
56.14932731422287
 20
61.11935094426728
 10
56.030165317328624
 20
61.0238203716012
 10
55.91730518078458
 20
60.92347274215584
 10
55.81057211418179
 20
60.8185740556528
 10
55.614788029164
 20
60.59618751036
 10
55.441414739003456
 20
60.35878873349542
 10
55.289053920428316
 20
60.10850572283175
 10
55.15630725016679
 20
59.84746647614165
 10
55.04177640494704
 20
59.57779899119779
 10
54.944063061497275
 20
59.30163126577281
 10
54.86176889654566
 20
59.02109129763939
 10
54.79349558682039
 20
58.73830708457017
 10
54.737844809049655
 20
58.45540662433784
 10
54.69341823996164
 20
58.17451791471504
 10
54.65881755628452
 20
57.89776895347444
 10
54.63264443474648
 20
57.627287738388695
 10
54.59998758500042
 20
57.11364053777243
 10
54.595522688519786
 20
57.094786118558034
 10
54.57021963290741
 20
57.075931699343634
 10
54.54020403082474
 20
57.07519054854117
 10
54.526561268059844
 20
57.087843452180635
 10
54.413035624490924
 20
57.228076462485056
 10
54.298012902751964
 20
57.383446799356015
 10
54.18269372284177
 20
57.55448645262488
 10
54.06827870475913
 20
57.74172741212298
 10
53.955968468502846
 20
57.94570166768167
 10
53.84696363407173
 20
58.1669412091323
 10
53.74246482146458
 20
58.405978026306215
 10
53.6436726506802
 20
58.66334410903478
 10
53.551787741717405
 20
58.93957144714933
 10
53.46801071457498
 20
59.23519203048123
 10
53.393542189251725
 20
59.550737848861814
 10
53.32958278574645
 20
59.886740892122425
 10
53.27733312405796
 20
60.24373315009443
 10
53.23799382418505
 20
60.62224661260916
 10
53.21276550612653
 20
61.02281326949798
 10
53.202848789881195
 20
61.44596511059224
 10
53.20570956369653
 20
61.65123234205898
 10
53.21596670635773
 20
61.85214911429291
 10
53.2575566784741
 20
62.24101849434001
 10
53.32539186674302
 20
62.612747677288795
 10
53.41724543167717
 20
62.96751108969449
 10
53.53089053378929
 20
63.30548315811231
 10
53.664100333592074
 20
63.626838309097515
 10
53.814647991598235
 20
63.93175096920532
 10
53.98030666832046
 20
64.22039556499097
 10
54.15884952427148
 20
64.49294652300968
 10
54.348049719963974
 20
64.74957826981668
 10
54.545680415910674
 20
64.99046523196722
 10
54.74951477262429
 20
65.21578183601652
 10
54.9573259506175
 20
65.42570250851983
 10
55.16688711040304
 20
65.62040167603237
 10
55.375971412493605
 20
65.80005376510937
 10
55.582352017401895
 20
65.96483320230605
 10
55.702356543169934
 20
66.06910552270097
 10
55.80747671916754
 20
66.1846570698134
 10
55.89715443002732
 20
66.31030178275527
 10
55.97083156038192
 20
66.44485360063854
 10
56.02794999486395
 20
66.58712646257509
 10
56.06795161810607
 20
66.73593430767684
 10
56.09027831474089
 20
66.89009107505571
 10
56.09437196940105
 20
67.04841070382365
 10
56.07996884708454
 20
67.2059985430778
 10
56.047611418016075
 20
67.3580045837364
 10
55.997950874668604
 20
67.50331258514284
 10
55.93163840951495
 20
67.6408063066405
 10
55.84932521502801
 20
67.76936950757278
 10
55.75166248368063
 20
67.88788594728302
 10
55.63930140794567
 20
67.99523938511464
 10
55.51289318029601
 20
68.09031358041103
 10
51.621144289118895
 20
70.68811879216913
 10
51.55328908160765
 20
70.73874861336687
 10
51.49134106056903
 20
70.79509948666995
 10
51.435625842083205
 20
70.8567528081896
 10
51.38646904223037
 20
70.923289974037
 10
51.34419627709069
 20
70.99429238032337
 10
51.30913316274435
 20
71.06934142315986
 10
51.28160531527155
 20
71.14801849865769
 10
51.261938350752466
 20
71.22990500292805
 10
51.250484336984925
 20
71.31335495320096
 10
51.2473330074027
 20
71.39664170848069
 10
51.25241457153992
 20
71.4792304400395
 10
51.26565923893077
 20
71.56058631914966
 10
51.286997219109395
 20
71.64017451708348
 10
51.31635872160996
 20
71.71746020511327
 10
51.35367395596663
 20
71.79190855451124
 10
51.39887313171352
 20
71.86298473654973
 10
52.32538950165034
 20
73.18226013918408
 10
53.40949302127103
 20
74.7086133988152
 10
54.48355020631031
 20
76.19291870644831
 10
54.964425959529024
 20
76.84145156295476
 10
55.379927572502915
 20
77.38605025308865
 10
55.508036820930286
 20
77.56717292536487
 10
55.62793500205696
 20
77.77031569605221
 10
55.739829972489275
 20
77.99418382097852
 10
55.843929588833554
 20
78.23748255597168
 10
55.94044170769613
 20
78.49891715685959
 10
56.02957418568332
 20
78.77719287947008
 10
56.111534879401475
 20
79.07101497963106
 10
56.1865316454569
 20
79.37908871317039
 10
56.25477234045594
 20
79.70011933591594
 10
56.31646482100493
 20
80.03281210369559
 10
56.371816943710186
 20
80.37587227233719
 10
56.42103656517805
 20
80.72800509766866
 10
56.50190973082689
 20
81.4543097417126
 10
56.56074717080209
 20
82.20136808245041
 10
56.599211737954285
 20
82.95882216650506
 10
56.61896628513412
 20
83.71631404049953
 10
56.621673665192205
 20
84.46348575105682
 10
56.60899673097919
 20
85.18997934479994
 10
56.58259833534572
 20
85.88543686835183
 10
56.54414133114243
 20
86.53950036833551
 10
56.49528857121996
 20
87.14181189137396
 10
56.43770290842894
 20
87.68201348409016
 10
56.43943952752324
 20
87.71475905689243
 10
56.450820142569896
 20
87.73503879969329
 10
56.475410900191115
 20
87.75345775444666
 10
56.50545805383498
 20
87.76223333501851
 10
56.52973821709414
 20
87.75965948168825
 10
56.558762690051445
 20
87.74353397486014
 10
57.08457347887182
 20
87.26010087334954
 10
57.38743104755484
 20
86.967851830232
 10
57.70801606924922
 20
86.64640688359461
 10
58.03964804657706
 20
86.29913535197863
 10
58.375646482160455
 20
85.92940655392535
 10
58.70933087862152
 20
85.54058980797599
 10
59.03402073858236
 20
85.1360544326718
 10
59.34303556466507
 20
84.71916974655403
 10
59.62969485949177
 20
84.29330506816396
 10
59.762553527253516
 20
84.07805814391095
 10
59.88731812568455
 20
83.86182971604282
 10
60.00315359261262
 20
83.64504094937723
 10
60.109224865865514
 20
83.42811300873186
 10
60.204696883270984
 20
83.21146705892434
 10
60.28873458265679
 20
82.99552426477234
 10
60.36050290185068
 20
82.78070579109351
 10
60.41916677868044
 20
82.56743280270551
 10
60.46389115097382
 20
82.35612646442598
 10
60.49384095655861
 20
82.14720794107262
 10
60.508181133262525
 20
81.94109839746307
 10
60.50607661891337
 20
81.73821899841495
 10
60.47206764586426
 20
81.37421674649838
 10
60.41112728214042
 20
81.00823742216419
 10
60.32683715579574
 20
80.63979271043272
 10
60.222778894884094
 20
80.26839429632432
 10
60.10253412745941
 20
79.89355386485933
 10
59.96968448157554
 20
79.51478310105811
 10
59.68049706664584
 20
78.74349731652835
 10
59.36432901216326
 20
77.90215844571175
 10
59.20878004124213
 20
77.45999260858683
 10
59.06006859624703
 20
77.00200352586144
 10
58.92205529346243
 20
76.52707196419355
 10
58.79860074917278
 20
76.03407869024112
 10
58.69356557966252
 20
75.52190447066212
 10
58.61081040121611
 20
74.9894300721145
 10
58.578994251230746
 20
74.71523054530807
 10
58.554195830118026
 20
74.43553626125623
 10
58.53689771491348
 20
74.15020731579122
 10
58.52758248265269
 20
73.85910380474527
 10
58.52673271037119
 20
73.56208582395067
 10
58.534830975104576
 20
73.2590134692396
 10
58.55235985388836
 20
72.94974683644438
 10
58.57980192375813
 20
72.63414602139717
 10
58.61763976174943
 20
72.31207111993028
 10
58.666355944897816
 20
71.98338222787594
 10
58.72643305023884
 20
71.6479394410664
 10
58.79835365480807
 20
71.30560285533387
 10
58.88260033564105
 20
70.95623256651064
 10
58.97965566977336
 20
70.59968867042893
 10
59.09000223424053
 20
70.235831262921
 10
59.214122606078114
 20
69.86452043981907
 10
59.25248003083404
 20
69.78482775793127
 10
59.30665236805604
 20
69.71667000931285
 10
59.37459229845439
 20
69.66190822013625
 10
59.45425250273937
 20
69.62240341657396
 10
59.540489309146174
 20
69.60113087777282
 10
59.62765575551423
 20
69.59958056502491
 10
59.712961016959845
 20
69.61737981272077
 10
59.793614268599285
 20
69.65415595525093
 10
60.20295219149146
 20
69.88680835846073
 10
60.66235327996043
 20
70.13683440786882
 10
61.26694305929392
 20
70.45263620896009
 10
61.99824698412892
 20
70.8166956515953
 10
62.837790509102355
 20
71.21149462563525
 10
63.767099088851225
 20
71.61951502094072
 10
64.25964197884049
 20
71.8230088421495
 10
64.76769817801247
 20
72.02323872737249
 10
65.28895836819677
 20
72.21801491284221
 10
65.82111323122302
 20
72.4051476347913
 10
66.36185344892087
 20
72.58244712945236
 10
66.90886970311989
 20
72.747723633058
 10
67.45985267564974
 20
72.89878738184078
 10
68.01249304834
 20
73.03344861203333
 10
68.56448150302035
 20
73.1495175598682
 10
69.11350872152035
 20
73.24480446157807
 10
69.65726538566965
 20
73.31711955339547
 10
70.19344217729785
 20
73.36427307155301
 10
70.7197297782346
 20
73.3840752522833
 10
70.97844347026542
 20
73.3830352899359
 10
71.23381887030949
 20
73.37433633181894
 10
71.48556731359551
 20
73.35770465746144
 10
71.73340013535216
 20
73.33286654639251
 10
71.97702867080817
 20
73.2995482781412
 10
72.21616425519224
 20
73.25747613223662
 10
72.45051822373306
 20
73.20637638820781
 10
72.67980191165931
 20
73.14597532558386
 10
72.90372665419974
 20
73.07599922389385
 10
73.12200378658304
 20
72.99617436266684
 10
73.53840992725361
 20
72.81850075021109
 10
73.93955203777894
 20
72.61975360354309
 10
74.32536434605238
 20
72.4001160720961
 10
74.6957810799673
 20
72.15977130530341
 10
75.05073646741708
 20
71.89890245259832
 10
75.39016473629508
 20
71.61769266341412
 10
75.71400011449464
 20
71.31632508718407
 10
76.02217682990914
 20
70.99498287334147
 10
76.31462911043198
 20
70.65384917131962
 10
76.59129118395647
 20
70.29310713055179
 10
76.85209727837601
 20
69.91293990047127
 10
77.09698162158395
 20
69.51353063051137
 10
77.32587844147368
 20
69.09506247010533
 10
77.5387219659385
 20
68.65771856868648
 10
77.73544642287187
 20
68.20168207568808
 10
77.9159860401671
 20
67.72713614054344
 10
78.08027504571756
 20
67.23426391268582
 10
78.22824766741661
 20
66.72324854154851
 10
78.35983813315764
 20
66.19427317656482
 10
78.47498067083399
 20
65.64752096716803
 10
78.57360950833903
 20
65.08317506279143
 10
78.65565887356615
 20
64.50141861286826
 10
78.72106299440868
 20
63.90243476683186
 10
78.76975609876001
 20
63.286406674115504
 10
78.8016724145135
 20
62.653517484152474
 10
78.81674616956252
 20
62.00395034637605
 10
78.81491159180041
 20
61.337888410219534
 10
78.79610290912056
 20
60.65551482511621
 10
78.76025434941634
 20
59.95701274049935
 10
78.70730014058111
 20
59.242565305802266
 10
78.63717451050822
 20
58.51235567045821
 10
78.54981168709104
 20
57.766566983900496
  0
LWPOLYLINE
  5
92
330
17
100
AcDbEntity
  8
LOGO
100
AcDbPolyline
 90
336
 70
1
 10
73.41373801442744
 20
73.73443633857258
 10
73.2056501515255
 20
73.81159915160438
 10
72.99343808533837
 20
73.88079036334832
 10
72.77729463757677
 20
73.9422014782506
 10
72.55741262995141
 20
73.9960240007574
 10
72.33398488417302
 20
74.04244943531498
 10
72.10720422195229
 20
74.08166928636955
 10
71.64435543502671
 20
74.13925825575448
 10
71.17040884286043
 20
74.1703229444819
 10
70.68690701913916
 20
74.17639538812149
 10
70.19539253754861
 20
74.159007622243
 10
69.69740797177454
 20
74.1196916824161
 10
69.19449589550266
 20
74.05997960421054
 10
68.68819888241867
 20
73.98140342319601
 10
68.18005950620834
 20
73.88549517494222
 10
67.67162034055735
 20
73.7737868950189
 10
67.16442395915148
 20
73.64781061899573
 10
66.66001293567642
 20
73.50909838244245
 10
66.1599298438179
 20
73.35918222092873
 10
65.66571725726166
 20
73.19959417002433
 10
65.17891774969341
 20
73.03186626529893
 10
64.7010738947989
 20
72.85753054232222
 10
64.23372826626381
 20
72.67811903666396
 10
63.77842343777391
 20
72.49516378389383
 10
62.910106475672535
 20
72.1247501792968
 10
62.108463597980574
 20
71.75854601308883
 10
61.385835394183836
 20
71.40880756982762
 10
60.75456245376812
 20
71.08779113407081
 10
60.22698536621925
 20
70.80775299037612
 10
59.81544472102303
 20
70.58094942330119
 10
59.72030820054126
 20
70.90323279074289
 10
59.63632798901357
 20
71.21900210195818
 10
59.5631250751716
 20
71.52841797395824
 10
59.500320447746965
 20
71.83164102375416
 10
59.44753509547125
 20
72.1288318683571
 10
59.4043900070761
 20
72.42015112477816
 10
59.370506171293094
 20
72.70575941002848
 10
59.34550457685387
 20
72.9858173411192
 10
59.329006212490036
 20
73.26048553506145
 10
59.320632066933186
 20
73.52992460886635
 10
59.32000312891497
 20
73.79429517954503
 10
59.326740387166964
 20
74.05375786410866
 10
59.360797447408075
 20
74.55860204293515
 10
59.41977115750942
 20
75.04574208143484
 10
59.500629427323915
 20
75.51646291569679
 10
59.60034016670446
 20
75.97204948181006
 10
59.71587128550396
 20
76.41378671586367
 10
59.84419069357528
 20
76.84295955394661
 10
59.982266300771336
 20
77.260852932148
 10
60.12706601694504
 20
77.66875178655683
 10
60.42470941563699
 20
78.45970566835301
 10
60.73117085390943
 20
79.27635682995087
 10
60.871970982235474
 20
79.67956596791612
 10
60.999491495021076
 20
80.08110063079488
 10
61.109987976016015
 20
80.48226318368916
 10
61.19971600897006
 20
80.88435599170091
 10
61.264931177632974
 20
81.28868141993213
 10
61.28717630777705
 20
81.49208835572442
 10
61.30188906575451
 20
81.69654183348483
 10
61.30560191057397
 20
81.92257331311978
 10
61.29340426535446
 20
82.15057870738076
 10
61.26601418096572
 20
82.38024114368449
 10
61.2241497082775
 20
82.61124374944777
 10
61.16852889815953
 20
82.84326965208736
 10
61.09986980148155
 20
83.07600197902002
 10
61.0188904691133
 20
83.30912385766253
 10
60.926308951924526
 20
83.54231841543164
 10
60.82284330078495
 20
83.77526877974414
 10
60.70921156656432
 20
84.00765807801676
 10
60.58613180013238
 20
84.23916943766632
 10
60.45432205235887
 20
84.46948598610955
 10
60.16738481626609
 20
84.92526715904413
 10
59.85414426524389
 20
85.37246661615464
 10
59.52034480625018
 20
85.80854937677522
 10
59.17173084624287
 20
86.23098046024
 10
58.81404679217991
 20
86.63722488588313
 10
58.45303705101919
 20
87.02474767303876
 10
58.09444602971862
 20
87.39101384104102
 10
57.744018135236125
 20
87.73348840922404
 10
57.40749777452961
 20
88.04963639692197
 10
57.09062935455701
 20
88.33692282346895
 10
56.98370913884275
 20
88.41855745764562
 10
56.86823099871945
 20
88.48170305556144
 10
56.746241429961195
 20
88.52610381144576
 10
56.619786928342116
 20
88.55150391952807
 10
56.49091398963628
 20
88.5576475740377
 10
56.36166910961785
 20
88.5442789692041
 10
56.23409878406089
 20
88.51114229925668
 10
56.1102495087395
 20
88.45798175842482
 10
55.995969423397
 20
88.38692828094267
 10
55.89631791181998
 20
88.3014790564041
 10
55.81215547834758
 20
88.20342480457823
 10
55.74434262731894
 20
88.0945562452342
 10
55.69373986307324
 20
87.97666409814116
 10
55.66120768994958
 20
87.85153908306826
 10
55.64760661228712
 20
87.72097191978462
 10
55.65379713442502
 20
87.58675332805934
 10
55.71778869596606
 20
86.98350919676548
 10
55.76869263892156
 20
86.33972862921141
 10
55.805886830749074
 20
85.66399334990285
 10
55.828749138906176
 20
84.96488508334552
 10
55.83665743085044
 20
84.25098555404513
 10
55.8289895740394
 20
83.53087648650735
 10
55.80512343593062
 20
82.81313960523792
 10
55.76443688398168
 20
82.10635663474255
 10
55.70630778565014
 20
81.41910929952695
 10
55.630114008393576
 20
80.75997932409682
 10
55.535233419669524
 20
80.13754843295787
 10
55.421043886935564
 20
79.56039835061581
 10
55.356513850145355
 20
79.29148540165166
 10
55.286923277649244
 20
79.03711080157636
 10
55.21219440287944
 20
78.79834726595315
 10
55.132249459268145
 20
78.57626751034523
 10
55.04701068024753
 20
78.37194425031582
 10
54.95640029924981
 20
78.18645020142812
 10
54.86034054970718
 20
78.02085807924534
 10
54.75875366505182
 20
77.87624059933073
 10
54.338974111826495
 20
77.32644738947836
 10
53.854192062012736
 20
76.6728133086402
 10
52.77343757194001
 20
75.17895735005087
 10
51.684124393473894
 20
73.6445423556515
 10
50.75388672525463
 20
72.31943795753085
 10
50.66618955946858
 20
72.17986980356754
 10
50.59372561640718
 20
72.03418547868719
 10
50.536657664423025
 20
71.88333842542822
 10
50.495148471868724
 20
71.728282086329
 10
50.46936080709685
 20
71.56996990392796
 10
50.45945743846002
 20
71.40935532076345
 10
50.4656011343108
 20
71.24739177937393
 10
50.487954663001794
 20
71.08503272229774
 10
50.52619241506742
 20
70.92554546913836
 10
50.57952370970725
 20
70.77215152689695
 10
50.647413708271735
 20
70.62573466670858
 10
50.72932757211125
 20
70.48717865970832
 10
50.824730462576234
 20
70.35736727703119
 10
50.93308754101709
 20
70.23718428981226
 10
51.05386396878421
 20
70.12751346918657
 10
51.186524907228026
 20
70.02923858628915
 10
55.07826871840537
 20
67.43143676119757
 10
55.17169967763741
 20
67.35164933202205
 10
55.242245396573004
 20
67.2545587885675
 10
55.287859429047415
 20
67.14370081068657
 10
55.30649532889593
 20
67.02261107823198
 10
55.296356337235046
 20
66.89897819734169
 10
55.25812272424478
 20
66.7837185848525
 10
55.19346930235534
 20
66.68073860185167
 10
55.10407088399695
 20
66.59394460942642
 10
54.870665373299
 20
66.40731615928594
 10
54.63427719331127
 20
66.20375102953865
 10
54.39741225732777
 20
65.98301083722575
 10
54.16257647864255
 20
65.7448571993884
 10
53.93227577054961
 20
65.4890517330678
 10
53.70901604634299
 20
65.21535605530511
 10
53.4953032193167
 20
64.92353178314154
 10
53.29364320276478
 20
64.61334053361826
 10
53.10654190998124
 20
64.28454392377647
 10
52.936505254260105
 20
63.93690357065731
 10
52.78603914889541
 20
63.570181091302
 10
52.65764950718118
 20
63.184138102751696
 10
52.60251645809737
 20
62.9837969228538
 10
52.553842242411434
 20
62.7785362220476
 10
52.51194009928512
 20
62.568326202463254
 10
52.47712326788019
 20
62.35313706623091
 10
52.449704987358395
 20
62.13293901548069
 10
52.42999849688148
 20
61.907702252342766
 10
52.41831703561122
 20
61.67739697894729
 10
52.41497384270933
 20
61.44199339742439
 10
52.42607001476815
 20
60.97500233989343
 10
52.45471622059767
 20
60.53222153692011
 10
52.49953159694488
 20
60.11311608784311
 10
52.55913528055677
 20
59.71715109200116
 10
52.63214640818033
 20
59.343791648732925
 10
52.71718411656254
 20
58.99250285737712
 10
52.812867542450405
 20
58.66274981727242
 10
52.91781582259091
 20
58.35399762775756
 10
53.03064809373103
 20
58.065711388171174
 10
53.14998349261777
 20
57.797356197852
 10
53.27444115599812
 20
57.5483971561387
 10
53.40264022061905
 20
57.31829936236999
 10
53.53319982322757
 20
57.10652791588455
 10
53.66473910057066
 20
56.91254791602109
 10
53.79587718939531
 20
56.73582446211829
 10
53.92523322644851
 20
56.57582265351485
 10
54.0145897976472
 20
56.484737941463685
 10
54.11466745043041
 20
56.409770014912866
 10
54.22353600315984
 20
56.351407278138915
 10
54.33926527419717
 20
56.31013813541837
 10
54.459925081904046
 20
56.28645099102772
 10
54.58358524464217
 20
56.280834249243526
 10
54.708315580773196
 20
56.29377631434231
 10
54.83218590865882
 20
56.32576559060056
 10
54.949856432492865
 20
56.375829570597894
 10
55.05650336670809
 20
56.44161519744014
 10
55.15096387752483
 20
56.52154100369324
 10
55.232075131163434
 20
56.614025521923054
 10
55.29867429384419
 20
56.71748728469549
 10
55.34959853178745
 20
56.83034482457643
 10
55.38368501121354
 20
56.95101667413176
 10
55.39977089834278
 20
57.0779213659274
 10
55.427927200659184
 20
57.52418268023683
 10
55.47803787299832
 20
57.99823541331014
 10
55.51405874341802
 20
58.240821499170806
 10
55.558847380933344
 20
58.48452096446751
 10
55.61349684374091
 20
58.727388984115265
 10
55.679100190037396
 20
58.967480733029085
 10
55.75675047801941
 20
59.202851386124
 10
55.847540765883615
 20
59.43155611831501
 10
55.952564111826646
 20
59.651650104517145
 10
56.07291357404517
 20
59.86118851964543
 10
56.20968221073579
 20
60.058226538614875
 10
56.36396308009519
 20
60.2408193363405
 10
56.53684924031999
 20
60.407022087737325
 10
56.72943374960683
 20
60.554889967720364
 10
56.90059351088826
 20
60.660383782497966
 10
57.08360258871697
 20
60.75137109729407
 10
57.27840283966767
 20
60.82785774120999
 10
57.484936120315055
 20
60.889849543347054
 10
57.7031442872338
 20
60.937352332806576
 10
57.93296919699858
 20
60.97037193868987
 10
58.174352706184095
 20
60.98891419009827
 10
58.42723667136503
 20
60.99298491613308
 10
58.69156294911608
 20
60.98258994589564
 10
58.96727339601194
 20
60.95773510848724
 10
59.25430986862728
 20
60.91842623300922
 10
59.5526142235368
 20
60.8646691485629
 10
59.86212831731518
 20
60.7964696842496
 10
60.18279400653712
 20
60.713833669170626
 10
60.51455314777729
 20
60.6167669324273
 10
60.857347597610406
 20
60.505275303120975
 10
61.13297624428303
 20
60.406322834947424
 10
61.405581023872166
 20
60.2987124633747
 10
61.67512073734391
 20
60.18276919182661
 10
61.9415541856643
 20
60.05881802372695
 10
62.20484016979943
 20
59.92718396249955
 10
62.46493749071538
 20
59.788192011568185
 10
62.7218049493782
 20
59.64216717435668
 10
62.975401346754
 20
59.489434454288826
 10
63.472616161508725
 20
59.165145379279345
 10
63.956252342708126
 20
58.817924813930176
 10
64.42598029808079
 20
58.450372785631764
 10
64.88147043535528
 20
58.06508932177456
 10
65.3223931622602
 20
57.66467444974899
 10
65.7484188865241
 20
57.251728196945535
 10
66.15921801587557
 20
56.8288505907546
 10
66.55446095804318
 20
56.39864165856665
 10
66.9338181207555
 20
55.963701427772136
 10
67.29695991174114
 20
55.52662992576148
 10
67.64355673872863
 20
55.090027179925144
 10
67.97327900944659
 20
54.656493217653576
 10
68.28579713162357
 20
54.22862806633721
 10
68.58078151298815
 20
53.80903175336649
 10
68.8579025612689
 20
53.400304306131865
 10
69.11683068419443
 20
53.00504575202378
 10
69.57878978489406
 20
52.26533543274902
 10
69.96402207691563
 20
51.61070101466575
 10
70.26989082208775
 20
51.06194271689754
 10
70.49375928223905
 20
50.639860758567956
 10
70.68494839479368
 20
50.25892673671885
 10
70.71283359180889
 20
50.20923618962262
 10
70.74690491887883
 20
50.16466167856323
 10
70.78646470947008
 20
50.12566842039628
 10
70.83081529704923
 20
50.09272163197739
 10
70.87925901508282
 20
50.0662865301622
 10
70.93109819703744
 20
50.04682833180629
 10
70.98563517637965
 20
50.03481225376529
 10
71.04217228657602
 20
50.03070351289482
 10
71.14111272737375
 20
50.033396414457414
 10
71.38763146935636
 20
50.04871183929291
 10
71.76209113958232
 20
50.08750486762282
 10
72.2448543651101
 20
50.16063057966869
 10
72.52071313206793
 20
50.21346040465434
 10
72.81628377299813
 20
50.278944055652055
 10
73.12911161628301
 20
50.35843841768953
 10
73.45674199030488
 20
50.45330037579444
 10
73.79672022344604
 20
50.564886814994495
 10
74.1465916440888
 20
50.69455462031736
 10
74.50390158061549
 20
50.84366067679077
 10
74.86619536140839
 20
51.013561869442384
 10
75.23101831484982
 20
51.2056150832999
 10
75.59591576932206
 20
51.421177203391025
 10
75.95843305320744
 20
51.661605114743445
 10
76.31611549488828
 20
51.92825570238484
 10
76.66650842274686
 20
52.2224858513429
 10
77.00715716516551
 20
52.54565244664532
 10
77.17306038195433
 20
52.71851093824683
 10
77.33560705052652
 20
52.8991123733198
 10
77.49449033692989
 20
53.08762636249271
 10
77.6494034072122
 20
53.28422251639402
 10
77.80003942742127
 20
53.489070445652196
 10
77.94609156360488
 20
53.70233976089569
 10
78.0872529818108
 20
53.92420007275296
 10
78.22321684808685
 20
54.15482099185248
 10
78.35367632848079
 20
54.3943721288227
 10
78.4783245890404
 20
54.64302309429209
 10
78.5968547958135
 20
54.900943498889106
 10
78.70896011484787
 20
55.16830295324222
 10
78.81433371219129
 20
55.445271067979874
 10
78.91266875389155
 20
55.73201745373055
 10
79.00365840599645
 20
56.02871172112272
 10
79.08699583455375
 20
56.33552348078479
 10
79.16237420561126
 20
56.65262234334528
 10
79.22948668521676
 20
56.98017791943261
 10
79.28802643941805
 20
57.31835981967527
 10
79.33768663426291
 20
57.66733765470172
 10
79.42904512804094
 20
58.45003904376885
 10
79.50185746036516
 20
59.21655961155705
 10
79.55619449326387
 20
59.96670748885558
 10
79.5921270887654
 20
60.700290806453665
 10
79.60972610889799
 20
61.41711769514057
 10
79.60906241568996
 20
62.11699628570552
 10
79.59020687116961
 20
62.79973470893777
 10
79.55323033736526
 20
63.46514109562657
 10
79.49820367630518
 20
64.11302357656115
 10
79.42519775001766
 20
64.74319028253076
 10
79.33428342053104
 20
65.35544934432465
 10
79.22553154987355
 20
65.94960889273207
 10
79.09901300007354
 20
66.52547705854225
 10
78.95479863315929
 20
67.08286197254444
 10
78.7929593111591
 20
67.62157176552789
 10
78.61356589610128
 20
68.14141456828183
 10
78.4166892500141
 20
68.64219851159552
 10
78.20240023492589
 20
69.1237317262582
 10
77.97076971286492
 20
69.5858223430591
 10
77.7218685458595
 20
70.02827849278749
 10
77.45576759593793
 20
70.45090830623262
 10
77.17253772512849
 20
70.85351991418369
 10
76.8722497954595
 20
71.23592144742999
 10
76.55497466895925
 20
71.59792103676072
 10
76.22078320765603
 20
71.93932681296516
 10
75.86974627357814
 20
72.25994690683255
 10
75.50193472875388
 20
72.55958944915214
 10
75.11741943521154
 20
72.83806257071315
 10
74.71627125497943
 20
73.09517440230483
 10
74.29856105008585
 20
73.33073307471646
 10
73.86435968255908
 20
73.54454671873724
 10
73.41373801442744
 20
73.73642346515645
  0
LWPOLYLINE
  5
93
330
17
100
AcDbEntity
  8
LOGO
100
AcDbPolyline
 90
32
 70
1
 10
67.98791470050342
 20
64.62524826478877
 10
68.12485358085233
 20
64.63903179414935
 10
68.25251319666599
 20
64.67858383079562
 10
68.36812597001285
 20
64.74120654757436
 10
68.46892432296136
 20
64.82420211733235
 10
68.55214067757994
 20
64.9248727129164
 10
68.61500745593706
 20
65.04052050717326
 10
68.65475708010113
 20
65.16844767294972
 10
68.66862197214061
 20
65.30595638309259
 10
68.65475708010113
 20
65.44346582249325
 10
68.61500745593706
 20
65.5713933305744
 10
68.55214067757994
 20
65.68704116947968
 10
68.46892432296136
 20
65.78771160135278
 10
68.36812597001285
 20
65.87070688833735
 10
68.25251319666599
 20
65.93332929257706
 10
68.12485358085233
 20
65.97288107621551
 10
67.98791470050342
 20
65.98666450139642
 10
67.85097554068838
 20
65.97279957297674
 10
67.72331571486171
 20
65.93304985290119
 10
67.60770279103309
 20
65.87018293894513
 10
67.50690433721219
 20
65.78696642888383
 10
67.4236879214087
 20
65.68616792049262
 10
67.36082111163232
 20
65.57055501154682
 10
67.32107147589272
 20
65.44289529982169
 10
67.3072065821996
 20
65.30595638309259
 10
67.32107147589272
 20
65.16901746636348
 10
67.36082111163232
 20
65.04135775463836
 10
67.4236879214087
 20
64.92574484569255
 10
67.50690433721219
 20
64.82494633730134
 10
67.60770279103309
 20
64.74172982724005
 10
67.72331571486171
 20
64.678862913284
 10
67.85097554068838
 20
64.63911319320844
  0
LWPOLYLINE
  5
94
330
17
100
AcDbEntity
  8
LOGO
100
AcDbPolyline
 90
153
 70
1
 10
72.81836373256803
 20
64.81576942351704
 10
72.71597395558429
 20
64.88879498932849
 10
72.62288534071298
 20
64.97279803780752
 10
72.53872736546955
 20
65.06610367714894
 10
72.46312950736947
 20
65.16703701554756
 10
72.31697915865439
 20
65.37309320740297
 10
72.16447397825095
 20
65.56790488049839
 10
72.00586396763313
 20
65.7516231859115
 10
71.84139912827489
 20
65.92439927471997
 10
71.67132946165019
 20
66.08638429800152
 10
71.49590496923298
 20
66.23772940683382
 10
71.31537565249724
 20
66.37858575229455
 10
71.12999151291689
 20
66.50910448546142
 10
70.9400025519659
 20
66.6294367574121
 10
70.74565877111826
 20
66.73973371922426
 10
70.54721017184788
 20
66.84014652197563
 10
70.34490675562876
 20
66.93082631674383
 10
70.13899852393483
 20
67.01192425460661
 10
69.92973547824006
 20
67.08359148664164
 10
69.71736762001841
 20
67.14597916392658
 10
69.50214495074384
 20
67.19923843753917
 10
69.7009126804957
 20
67.02167348092728
 10
69.87921427180345
 20
66.8235960011076
 10
70.03518924419771
 20
66.606820073942
 10
70.16697711720916
 20
66.37315977529244
 10
70.22321949129964
 20
66.25056488536801
 10
70.27271741036841
 20
66.12442918102079
 10
70.3152383143568
 20
65.99497942173355
 10
70.35054964320614
 20
65.862442366989
 10
70.37841883685775
 20
65.7270447762699
 10
70.39861333525296
 20
65.58901340905896
 10
70.4109005783331
 20
65.44857502483895
 10
70.41504800603953
 20
65.30595638309259
 10
70.40248550556036
 20
65.05794132465051
 10
70.36561974039071
 20
64.81705737544256
 10
70.30568331493234
 20
64.58452841854272
 10
70.223908833587
 20
64.36157833702501
 10
70.12152890075649
 20
64.14943101396344
 10
69.99977612084254
 20
63.949310332432
 10
69.85988309824694
 20
63.762440175504715
 10
69.70308243737144
 20
63.59004442625559
 10
69.53060674261782
 20
63.43334696775861
 10
69.34368861838784
 20
63.29357168308779
 10
69.14356066908329
 20
63.17194245531713
 10
68.9314554991059
 20
63.06968316752064
 10
68.70860571285745
 20
62.98801770277232
 10
68.4762439147397
 20
62.92816994414619
 10
68.23560270915443
 20
62.89136377471624
 10
67.98791470050342
 20
62.87882307755648
 10
67.74022711043149
 20
62.89136377471624
 10
67.49958621552493
 20
62.92816994414619
 10
67.2672246313476
 20
62.98801770277232
 10
67.0443749734634
 20
63.06968316752064
 10
66.83226985743622
 20
63.17194245531713
 10
66.6321418988299
 20
63.29357168308779
 10
66.44522371320834
 20
63.43334696775861
 10
66.27274791613539
 20
63.59004442625559
 10
66.11594712317493
 20
63.762440175504715
 10
65.97605394989087
 20
63.949310332432
 10
65.85430101184706
 20
64.14943101396344
 10
65.75192092460735
 20
64.36157833702501
 10
65.67014630373565
 20
64.58452841854272
 10
65.61020976479584
 20
64.81705737544256
 10
65.57334392335177
 20
65.05794132465051
 10
65.56078139496732
 20
65.30595638309259
 10
65.57450301513778
 20
65.56517570848969
 10
65.61473754115666
 20
65.81648789515377
 10
65.68008947128523
 20
66.05849749095546
 10
65.76916330378475
 20
66.28980904376539
 10
65.8805635369165
 20
66.50902710145421
 10
66.01289466894177
 20
66.71475621189259
 10
66.16476119812181
 20
66.90560092295114
 10
66.33476762271789
 20
67.08016578250053
 10
66.05938859971285
 20
67.00158103169939
 10
65.78575384226014
 20
66.91336806403378
 10
65.51430523096633
 20
66.81580595207022
 10
65.24548464643803
 20
66.7091737683752
 10
64.97973396928181
 20
66.59375058551521
 10
64.71749508010426
 20
66.46981547605678
 10
64.45920985951197
 20
66.33764751256639
 10
64.20532018811154
 20
66.19752576761053
 10
63.95626794650957
 20
66.04972931375569
 10
63.7124950153126
 20
65.89453722356838
 10
63.47444327512726
 20
65.73222856961509
 10
63.24255460656011
 20
65.56308242446232
 10
63.017270890217766
 20
65.3873778606766
 10
62.799034006706805
 20
65.20539395082436
 10
62.5882858366338
 20
65.01740976747213
 10
62.38546826060537
 20
64.82370438318642
 10
62.48155714286469
 20
64.71097136283156
 10
62.76049013008363
 20
64.41376612735051
 10
62.96414801013467
 20
64.21520228468
 10
63.20826673292367
 20
63.99357941511871
 10
63.491096237283315
 20
63.75658386096357
 10
63.810886462046284
 20
63.511901964511516
 10
64.16588734604527
 20
63.267220068059466
 10
64.55434882811295
 20
63.03022451390433
 10
64.76058039930777
 20
62.9170110971559
 10
64.97452084708202
 20
62.80860164434305
 10
65.19595141378979
 20
62.70595694825289
 10
65.42465334178515
 20
62.61003780167253
 10
65.6604078734222
 20
62.521804997389104
 10
65.90299625105504
 20
62.442219328189715
 10
66.15219971703772
 20
62.372241586861485
 10
66.40779951372437
 20
62.3128325661915
 10
66.66957688346903
 20
62.26495305896691
 10
66.93731306862581
 20
62.229563857974824
 10
67.21078931154881
 20
62.20762575600236
 10
67.48978685459208
 20
62.20009954583662
 10
67.94403862409592
 20
62.208276711900524
 10
68.37662384227595
 20
62.23184111918854
 10
68.78769076674321
 20
62.26934213134506
 10
69.17738765510872
 20
62.31932911201456
 10
69.54586276498345
 20
62.38035142484142
 10
69.89326435397845
 20
62.450958433470106
 10
70.21974067970469
 20
62.52969950154501
 10
70.5254399997732
 20
62.61512399271061
 10
70.81051057179499
 20
62.70578127061129
 10
71.0751006533811
 20
62.80022069889148
 10
71.31935850214249
 20
62.896991641195626
 10
71.54343237569019
 20
62.99464346116814
 10
71.93162122758856
 20
63.186787188695995
 10
72.24085326996432
 20
63.3650467906305
 10
72.36701674150439
 20
63.43208755941265
 10
72.49887828608827
 20
63.48275587583011
 10
72.63487967331217
 20
63.51686559559376
 10
72.77346267277225
 20
63.5342305744145
 10
72.9130690540647
 20
63.534664668003195
 10
73.05214058678567
 20
63.5179817320707
 10
73.18911904053135
 20
63.48399562232794
 10
73.32244618489794
 20
63.43252019448577
 10
73.75309724028747
 20
63.23406238275484
 10
73.80601595485662
 20
63.21481115056869
 10
73.85792001636257
 20
63.205638811595406
 10
73.90816696110164
 20
63.2057401015326
 10
73.95611432537011
 20
63.214309756077874
 10
74.00111964546427
 20
63.230542510928856
 10
74.04254045768047
 20
63.25363310178315
 10
74.11205870366408
 20
63.317166734292165
 10
74.15952935369135
 20
63.398468539185835
 10
74.1733906709621
 20
63.443769345520955
 10
74.17981269813265
 20
63.4910964020451
 10
74.17815297149934
 20
63.53964444445586
 10
74.16776902735845
 20
63.58860820845086
 10
74.14801840200624
 20
63.6371824297277
 10
74.11825863173908
 20
63.684561843984035
 10
74.01641493654246
 20
63.81261344991157
 10
73.89924461409383
 20
63.94615350943854
 10
73.76574766841924
 20
64.08434484455296
 10
73.61492410354468
 20
64.22635027724284
 10
73.44577392349626
 20
64.37133262949618
 10
73.25729713229998
 20
64.51845472330099
 10
73.04849373398189
 20
64.66687938064527
  0
ENDSEC
  0
SECTION
  2
OBJECTS
  0
DICTIONARY
  5
A
330
0
100
AcDbDictionary
281
1
  3
ACAD_COLOR
350
B
  3
ACAD_GROUP
350
C
  3
ACAD_LAYOUT
350
D
  3
ACAD_MATERIAL
350
E
  3
ACAD_MLEADERSTYLE
350
F
  3
ACAD_MLINESTYLE
350
10
  3
ACAD_PLOTSETTINGS
350
11
  3
ACAD_PLOTSTYLENAME
350
12
  3
ACAD_SCALELIST
350
14
  3
ACAD_TABLESTYLE
350
15
  3
ACAD_VISUALSTYLE
350
16
  3
EZDXF_META
350
2D
  0
DICTIONARY
  5
B
330
A
100
AcDbDictionary
281
1
  0
DICTIONARY
  5
C
330
A
100
AcDbDictionary
281
1
  0
DICTIONARY
  5
D
330
A
100
AcDbDictionary
281
1
  3
Model
350
1A
  3
Layout1
350
1E
  0
DICTIONARY
  5
E
330
A
100
AcDbDictionary
281
1
  3
ByBlock
350
1F
  3
ByLayer
350
20
  3
Global
350
21
  0
DICTIONARY
  5
F
330
A
100
AcDbDictionary
281
1
  3
Standard
350
2C
  0
DICTIONARY
  5
10
330
A
100
AcDbDictionary
281
1
  3
Standard
350
22
  0
DICTIONARY
  5
11
330
A
100
AcDbDictionary
281
1
  0
ACDBDICTIONARYWDFLT
  5
12
330
A
100
AcDbDictionary
281
1
  3
Normal
350
13
100
AcDbDictionaryWithDefault
340
13
  0
ACDBPLACEHOLDER
  5
13
330
12
  0
DICTIONARY
  5
14
330
A
100
AcDbDictionary
281
1
  0
DICTIONARY
  5
15
330
A
100
AcDbDictionary
281
1
  0
DICTIONARY
  5
16
330
A
100
AcDbDictionary
281
1
  3
2dWireframe
350
5A
  3
Basic
350
5B
  3
Brighten
350
5C
  3
ColorChange
350
5D
  3
Conceptual
350
5E
  3
Dim
350
5F
  3
EdgeColorOff
350
60
  3
Facepattern
350
61
  3
Flat
350
62
  3
FlatWithEdges
350
63
  3
Gouraud
350
64
  3
GouraudWithEdges
350
65
  3
Hidden
350
66
  3
JitterOff
350
67
  3
Linepattern
350
68
  3
Modeling
350
69
  3
OverhangOff
350
6A
  3
Realistic
350
6B
  3
Shaded
350
6C
  3
Shaded with edges
350
6D
  3
Shades of Gray
350
6E
  3
Sketchy
350
6F
  3
Thicken
350
70
  3
Wireframe
350
71
  3
X-Ray
350
72
  0
LAYOUT
  5
1A
330
D
100
AcDbPlotSettings
  1

  4
A3
  6

 40
7.5
 41
20.0
 42
7.5
 43
20.0
 44
420.0
 45
297.0
 46
0.0
 47
0.0
 48
0.0
 49
0.0
140
0.0
141
0.0
142
1.0
143
1.0
 70
1024
 72
1
 73
0
 74
5
  7

 75
16
 76
0
 77
2
 78
300
147
1.0
148
0.0
149
0.0
100
AcDbLayout
  1
Model
 70
1
 71
0
 10
0.0
 20
0.0
 11
420.0
 21
297.0
 12
0.0
 22
0.0
 32
0.0
 14
1e+20
 24
1e+20
 34
1e+20
 15
-1e+20
 25
-1e+20
 35
-1e+20
146
0.0
 13
0.0
 23
0.0
 33
0.0
 16
1.0
 26
0.0
 36
0.0
 17
0.0
 27
1.0
 37
0.0
 76
1
330
17
  0
LAYOUT
  5
1E
330
D
100
AcDbPlotSettings
  1

  4
A3
  6

 40
7.5
 41
20.0
 42
7.5
 43
20.0
 44
420.0
 45
297.0
 46
0.0
 47
0.0
 48
0.0
 49
0.0
140
0.0
141
0.0
142
1.0
143
1.0
 70
0
 72
1
 73
0
 74
5
  7

 75
16
 76
0
 77
2
 78
300
147
1.0
148
0.0
149
0.0
100
AcDbLayout
  1
Layout1
 70
1
 71
1
 10
0.0
 20
0.0
 11
420.0
 21
297.0
 12
0.0
 22
0.0
 32
0.0
 14
1e+20
 24
1e+20
 34
1e+20
 15
-1e+20
 25
-1e+20
 35
-1e+20
146
0.0
 13
0.0
 23
0.0
 33
0.0
 16
1.0
 26
0.0
 36
0.0
 17
0.0
 27
1.0
 37
0.0
 76
1
330
1B
  0
MATERIAL
  5
1F
102
{ACAD_REACTORS
330
E
102
}
330
E
100
AcDbMaterial
  1
ByBlock
  2

 70
0
 40
1.0
 71
1
 41
1.0
 91
-1023410177
 42
1.0
 72
1
  3

 73
1
 74
1
 75
1
 44
0.5
 73
0
 45
1.0
 46
1.0
 77
1
  4

 78
1
 79
1
170
1
 48
1.0
171
1
  6

172
1
173
1
174
1
140
1.0
141
1.0
175
1
  7

176
1
177
1
178
1
143
1.0
179
1
  8

270
1
271
1
272
1
145
1.0
146
1.0
273
1
  9

274
1
275
1
276
1
 42
1.0
 72
1
  3

 73
1
 74
1
 75
1
 94
63
  0
MATERIAL
  5
20
102
{ACAD_REACTORS
330
E
102
}
330
E
100
AcDbMaterial
  1
ByLayer
  2

 70
0
 40
1.0
 71
1
 41
1.0
 91
-1023410177
 42
1.0
 72
1
  3

 73
1
 74
1
 75
1
 44
0.5
 73
0
 45
1.0
 46
1.0
 77
1
  4

 78
1
 79
1
170
1
 48
1.0
171
1
  6

172
1
173
1
174
1
140
1.0
141
1.0
175
1
  7

176
1
177
1
178
1
143
1.0
179
1
  8

270
1
271
1
272
1
145
1.0
146
1.0
273
1
  9

274
1
275
1
276
1
 42
1.0
 72
1
  3

 73
1
 74
1
 75
1
 94
63
  0
MATERIAL
  5
21
102
{ACAD_REACTORS
330
E
102
}
330
E
100
AcDbMaterial
  1
Global
  2

 70
0
 40
1.0
 71
1
 41
1.0
 91
-1023410177
 42
1.0
 72
1
  3

 73
1
 74
1
 75
1
 44
0.5
 73
0
 45
1.0
 46
1.0
 77
1
  4

 78
1
 79
1
170
1
 48
1.0
171
1
  6

172
1
173
1
174
1
140
1.0
141
1.0
175
1
  7

176
1
177
1
178
1
143
1.0
179
1
  8

270
1
271
1
272
1
145
1.0
146
1.0
273
1
  9

274
1
275
1
276
1
 42
1.0
 72
1
  3

 73
1
 74
1
 75
1
 94
63
  0
MLINESTYLE
  5
22
102
{ACAD_REACTORS
330
10
102
}
330
10
100
AcDbMlineStyle
  2
Standard
 70
0
  3

 62
256
 51
90.0
 52
90.0
 71
2
 49
0.5
 62
256
  6
BYLAYER
 49
-0.5
 62
256
  6
BYLAYER
  0
MLEADERSTYLE
  5
2C
102
{ACAD_REACTORS
330
F
102
}
330
F
100
AcDbMLeaderStyle
179
2
170
2
171
1
172
0
 90
2
 40
0.0
 41
0.0
173
1
 91
-1056964608
 92
-2
290
1
 42
2.0
291
1
 43
8.0
  3
Standard
 44
4.0
300

342
29
174
1
175
1
176
0
178
1
 93
-1056964608
 45
4.0
292
0
297
0
 46
4.0
 94
-1056964608
 47
1.0
 49
1.0
140
1.0
294
1
141
0.0
177
0
142
1.0
295
0
296
0
143
3.75
271
0
272
9
273
9
  0
DICTIONARY
  5
2D
330
A
100
AcDbDictionary
280
1
281
1
  3
CREATED_BY_EZDXF
350
2E
  3
WRITTEN_BY_EZDXF
350
97
  0
DICTIONARYVAR
  5
2E
330
2D
100
DictionaryVariables
280
0
  1
1.4.4 @ 2026-09-08T15:37:42.057771+00:00
  0
VISUALSTYLE
  5
5A
102
{ACAD_REACTORS
330
16
102
}
330
16
100
AcDbVisualStyle
  2
2dWireframe
 70
4
 90
0
 40
0.6
 62
7
290
0
291
0
  0
VISUALSTYLE
  5
5B
102
{ACAD_REACTORS
330
16
102
}
330
16
100
AcDbVisualStyle
  2
Basic
 70
7
 90
1
 40
0.6
 62
7
290
0
291
1
  0
VISUALSTYLE
  5
5C
102
{ACAD_REACTORS
330
16
102
}
330
16
100
AcDbVisualStyle
  2
Brighten
 70
12
 90
2
 40
0.6
 62
7
290
0
291
1
  0
VISUALSTYLE
  5
5D
102
{ACAD_REACTORS
330
16
102
}
330
16
100
AcDbVisualStyle
  2
ColorChange
 70
16
 90
2
 40
0.6
 62
8
290
0
291
1
  0
VISUALSTYLE
  5
5E
102
{ACAD_REACTORS
330
16
102
}
330
16
100
AcDbVisualStyle
  2
Conceptual
 70
9
 90
3
 40
0.6
 62
7
290
0
291
0
  0
VISUALSTYLE
  5
5F
102
{ACAD_REACTORS
330
16
102
}
330
16
100
AcDbVisualStyle
  2
Dim
 70
11
 90
2
 40
0.6
 62
7
290
0
291
1
  0
VISUALSTYLE
  5
60
102
{ACAD_REACTORS
330
16
102
}
330
16
100
AcDbVisualStyle
  2
EdgeColorOff
 70
22
 90
2
 40
0.6
 62
7
290
0
291
1
  0
VISUALSTYLE
  5
61
102
{ACAD_REACTORS
330
16
102
}
330
16
100
AcDbVisualStyle
  2
Facepattern
 70
15
 90
2
 40
0.6
 62
7
290
0
291
1
  0
VISUALSTYLE
  5
62
102
{ACAD_REACTORS
330
16
102
}
330
16
100
AcDbVisualStyle
  2
Flat
 70
0
 90
2
 40
0.6
 62
7
290
0
291
1
  0
VISUALSTYLE
  5
63
102
{ACAD_REACTORS
330
16
102
}
330
16
100
AcDbVisualStyle
  2
FlatWithEdges
 70
1
 90
2
 40
0.6
 62
7
290
0
291
1
  0
VISUALSTYLE
  5
64
102
{ACAD_REACTORS
330
16
102
}
330
16
100
AcDbVisualStyle
  2
Gouraud
 70
2
 90
2
 40
0.6
 62
7
290
0
291
1
  0
VISUALSTYLE
  5
65
102
{ACAD_REACTORS
330
16
102
}
330
16
100
AcDbVisualStyle
  2
GouraudWithEdges
 70
3
 90
2
 40
0.6
 62
7
290
0
291
1
  0
VISUALSTYLE
  5
66
102
{ACAD_REACTORS
330
16
102
}
330
16
100
AcDbVisualStyle
  2
Hidden
 70
6
 90
1
 40
0.6
 62
7
290
0
291
0
  0
VISUALSTYLE
  5
67
102
{ACAD_REACTORS
330
16
102
}
330
16
100
AcDbVisualStyle
  2
JitterOff
 70
20
 90
2
 40
0.6
 62
7
290
0
291
1
  0
VISUALSTYLE
  5
68
102
{ACAD_REACTORS
330
16
102
}
330
16
100
AcDbVisualStyle
  2
Linepattern
 70
14
 90
2
 40
0.6
 62
7
290
0
291
1
  0
VISUALSTYLE
  5
69
102
{ACAD_REACTORS
330
16
102
}
330
16
100
AcDbVisualStyle
  2
Modeling
 70
10
 90
2
 40
0.6
 62
7
290
0
291
0
  0
VISUALSTYLE
  5
6A
102
{ACAD_REACTORS
330
16
102
}
330
16
100
AcDbVisualStyle
  2
OverhangOff
 70
21
 90
2
 40
0.6
 62
7
290
0
291
1
  0
VISUALSTYLE
  5
6B
102
{ACAD_REACTORS
330
16
102
}
330
16
100
AcDbVisualStyle
  2
Realistic
 70
8
 90
2
 40
0.6
 62
7
290
0
291
0
  0
VISUALSTYLE
  5
6C
102
{ACAD_REACTORS
330
16
102
}
330
16
100
AcDbVisualStyle
  2
Shaded
 70
27
 90
2
 40
0.6
 62
7
290
0
291
0
  0
VISUALSTYLE
  5
6D
102
{ACAD_REACTORS
330
16
102
}
330
16
100
AcDbVisualStyle
  2
Shaded with edges
 70
26
 90
2
 40
0.6
 62
7
290
0
291
0
  0
VISUALSTYLE
  5
6E
102
{ACAD_REACTORS
330
16
102
}
330
16
100
AcDbVisualStyle
  2
Shades of Gray
 70
23
 90
2
 40
0.6
 62
7
290
0
291
0
  0
VISUALSTYLE
  5
6F
102
{ACAD_REACTORS
330
16
102
}
330
16
100
AcDbVisualStyle
  2
Sketchy
 70
24
 90
1
 40
0.6
 62
7
290
0
291
0
  0
VISUALSTYLE
  5
70
102
{ACAD_REACTORS
330
16
102
}
330
16
100
AcDbVisualStyle
  2
Thicken
 70
13
 90
2
 40
0.6
 62
7
290
0
291
1
  0
VISUALSTYLE
  5
71
102
{ACAD_REACTORS
330
16
102
}
330
16
100
AcDbVisualStyle
  2
Wireframe
 70
5
 90
0
 40
0.6
 62
7
290
0
291
0
  0
VISUALSTYLE
  5
72
102
{ACAD_REACTORS
330
16
102
}
330
16
100
AcDbVisualStyle
  2
X-Ray
 70
25
 90
2
 40
0.5
 62
7
290
0
291
0
  0
DICTIONARYVAR
  5
97
330
2D
100
DictionaryVariables
280
0
  1
1.4.4 @ 2026-09-08T15:37:42.083487+00:00
  0
ENDSEC
  0
EOF
