  0
SECTION
  2
HEADER
  9
$ACADVER
  1
AC1015
  9
$ACADMAINTVER
 70
6
  9
$DWGCODEPAGE
  3
ANSI_1252
  9
$INSBASE
 10
0.0
 20
0.0
 30
0.0
  9
$EXTMIN
 10
1e+20
 20
1e+20
 30
1e+20
  9
$EXTMAX
 10
-1e+20
 20
-1e+20
 30
-1e+20
  9
$LIMMIN
 10
0.0
 20
0.0
  9
$LIMMAX
 10
420.0
 20
297.0
  9
$ORTHOMODE
 70
0
  9
$REGENMODE
 70
1
  9
$FILLMODE
 70
1
  9
$QTEXTMODE
 70
0
  9
$MIRRTEXT
 70
1
  9
$LTSCALE
 40
1.0
  9
$ATTMODE
 70
1
  9
$TEXTSIZE
 40
2.5
  9
$TRACEWID
 40
1.0
  9
$TEXTSTYLE
  7
OpenSans
  9
$CLAYER
  8
0
  9
$CELTYPE
  6
ByLayer
  9
$CECOLOR
 62
256
  9
$CELTSCALE
 40
1.0
  9
$DISPSILH
 70
0
  9
$DIMSCALE
 40
1.0
  9
$DIMASZ
 40
0.175
  9
$DIMEXO
 40
0.125
  9
$DIMDLI
 40
3.75
  9
$DIMRND
 40
0.0
  9
$DIMDLE
 40
0.0
  9
$DIMEXE
 40
0.375
  9
$DIMTP
 40
0.0
  9
$DIMTM
 40
0.0
  9
$DIMTXT
 40
0.25
  9
$DIMCEN
 40
2.5
  9
$DIMTSZ
 40
0.0
  9
$DIMTOL
 70
0
  9
$DIMLIM
 70
0
  9
$DIMTIH
 70
0
  9
$DIMTOH
 70
0
  9
$DIMSE1
 70
0
  9
$DIMSE2
 70
0
  9
$DIMTAD
 70
1
  9
$DIMZIN
 70
12
  9
$DIMBLK
  1
ARCHTICK
  9
$DIMASO
 70
1
  9
$DIMSHO
 70
1
  9
$DIMPOST
  1

  9
$DIMAPOST
  1

  9
$DIMALT
 70
0
  9
$DIMALTD
 70
3
  9
$DIMALTF
 40
0.03937007874
  9
$DIMLFAC
 40
100.0
  9
$DIMTOFL
 70
1
  9
$DIMTVP
 40
0.0
  9
$DIMTIX
 70
0
  9
$DIMSOXD
 70
0
  9
$DIMSAH
 70
0
  9
$DIMBLK1
  1

  9
$DIMBLK2
  1

  9
$DIMSTYLE
  2
EZDXF
  9
$DIMCLRD
 70
0
  9
$DIMCLRE
 70
0
  9
$DIMCLRT
 70
0
  9
$DIMTFAC
 40
0.5
  9
$DIMGAP
 40
0.1
  9
$DIMJUST
 70
0
  9
$DIMSD1
 70
0
  9
$DIMSD2
 70
0
  9
$DIMTOLJ
 70
0
  9
$DIMTZIN
 70
8
  9
$DIMALTZ
 70
0
  9
$DIMALTTZ
 70
0
  9
$DIMUPT
 70
1
  9
$DIMDEC
 70
2
  9
$DIMTDEC
 70
2
  9
$DIMALTU
 70
2
  9
$DIMALTTD
 70
3
  9
$DIMTXSTY
  7
OpenSansCondensed-Light
  9
$DIMAUNIT
 70
0
  9
$DIMADEC
 70
2
  9
$DIMALTRND
 40
0.0
  9
$DIMAZIN
 70
3
  9
$DIMDSEP
 70
46
  9
$DIMATFIT
 70
3
  9
$DIMFRAC
 70
0
  9
$DIMLDRBLK
  1

  9
$DIMLUNIT
 70
2
  9
$DIMLWD
 70
-2
  9
$DIMLWE
 70
-2
  9
$DIMTMOVE
 70
2
  9
$LUNITS
 70
2
  9
$LUPREC
 70
4
  9
$SKETCHINC
 40
1.0
  9
$FILLETRAD
 40
10.0
  9
$AUNITS
 70
0
  9
$AUPREC
 70
2
  9
$MENU
  1
.
  9
$ELEVATION
 40
0.0
  9
$PELEVATION
 40
0.0
  9
$THICKNESS
 40
0.0
  9
$LIMCHECK
 70
0
  9
$CHAMFERA
 40
0.0
  9
$CHAMFERB
 40
0.0
  9
$CHAMFERC
 40
0.0
  9
$CHAMFERD
 40
0.0
  9
$SKPOLY
 70
0
  9
$TDCREATE
 40
2461292.6511805556
  9
$TDUCREATE
 40
2458532.153996898
  9
$TDUPDATE
 40
2461292.6511805556
  9
$TDUUPDATE
 40
2458532.1544311
  9
$TDINDWG
 40
0.0
  9
$TDUSRTIMER
 40
0.0
  9
$USRTIMER
 70
1
  9
$ANGBASE
 50
0.0
  9
$ANGDIR
 70
0
  9
$PDMODE
 70
0
  9
$PDSIZE
 40
0.0
  9
$PLINEWID
 40
0.0
  9
$SPLFRAME
 70
0
  9
$SPLINETYPE
 70
6
  9
$SPLINESEGS
 70
8
  9
$HANDSEED
  5
98
  9
$SURFTAB1
 70
6
  9
$SURFTAB2
 70
6
  9
$SURFTYPE
 70
6
  9
$SURFU
 70
6
  9
$SURFV
 70
6
  9
$UCSBASE
  2

  9
$UCSNAME
  2

  9
$UCSORG
 10
0.0
 20
0.0
 30
0.0
  9
$UCSXDIR
 10
1.0
 20
0.0
 30
0.0
  9
$UCSYDIR
 10
0.0
 20
1.0
 30
0.0
  9
$UCSORTHOREF
  2

  9
$UCSORTHOVIEW
 70
0
  9
$UCSORGTOP
 10
0.0
 20
0.0
 30
0.0
  9
$UCSORGBOTTOM
 10
0.0
 20
0.0
 30
0.0
  9
$UCSORGLEFT
 10
0.0
 20
0.0
 30
0.0
  9
$UCSORGRIGHT
 10
0.0
 20
0.0
 30
0.0
  9
$UCSORGFRONT
 10
0.0
 20
0.0
 30
0.0
  9
$UCSORGBACK
 10
0.0
 20
0.0
 30
0.0
  9
$PUCSBASE
  2

  9
$PUCSNAME
  2

  9
$PUCSORG
 10
0.0
 20
0.0
 30
0.0
  9
$PUCSXDIR
 10
1.0
 20
0.0
 30
0.0
  9
$PUCSYDIR
 10
0.0
 20
1.0
 30
0.0
  9
$PUCSORTHOREF
  2

  9
$PUCSORTHOVIEW
 70
0
  9
$PUCSORGTOP
 10
0.0
 20
0.0
 30
0.0
  9
$PUCSORGBOTTOM
 10
0.0
 20
0.0
 30
0.0
  9
$PUCSORGLEFT
 10
0.0
 20
0.0
 30
0.0
  9
$PUCSORGRIGHT
 10
0.0
 20
0.0
 30
0.0
  9
$PUCSORGFRONT
 10
0.0
 20
0.0
 30
0.0
  9
$PUCSORGBACK
 10
0.0
 20
0.0
 30
0.0
  9
$USERI1
 70
0
  9
$USERI2
 70
0
  9
$USERI3
 70
0
  9
$USERI4
 70
0
  9
$USERI5
 70
0
  9
$USERR1
 40
0.0
  9
$USERR2
 40
0.0
  9
$USERR3
 40
0.0
  9
$USERR4
 40
0.0
  9
$USERR5
 40
0.0
  9
$WORLDVIEW
 70
1
  9
$SHADEDGE
 70
3
  9
$SHADEDIF
 70
70
  9
$TILEMODE
 70
1
  9
$MAXACTVP
 70
64
  9
$PINSBASE
 10
0.0
 20
0.0
 30
0.0
  9
$PLIMCHECK
 70
0
  9
$PEXTMIN
 10
1e+20
 20
1e+20
 30
1e+20
  9
$PEXTMAX
 10
-1e+20
 20
-1e+20
 30
-1e+20
  9
$PLIMMIN
 10
0.0
 20
0.0
  9
$PLIMMAX
 10
420.0
 20
297.0
  9
$UNITMODE
 70
0
  9
$VISRETAIN
 70
1
  9
$PLINEGEN
 70
0
  9
$PSLTSCALE
 70
1
  9
$TREEDEPTH
 70
3020
  9
$CMLSTYLE
  2
Standard
  9
$CMLJUST
 70
0
  9
$CMLSCALE
 40
20.0
  9
$PROXYGRAPHICS
 70
1
  9
$MEASUREMENT
 70
1
  9
$CELWEIGHT
370
-1
  9
$ENDCAPS
280
0
  9
$JOINSTYLE
280
0
  9
$LWDISPLAY
290
0
  9
$INSUNITS
 70
4
  9
$HYPERLINKBASE
  1

  9
$STYLESHEET
  1

  9
$XEDIT
290
1
  9
$CEPSNTYPE
380
0
  9
$PSTYLEMODE
290
1
  9
$FINGERPRINTGUID
  2
{2D51A547-3EA6-4798-805C-494023606375}
  9
$VERSIONGUID
  2
{1B218EF9-56D1-45C1-94B0-9545160ED22A}
  9
$EXTNAMES
290
1
  9
$PSVPSCALE
 40
0.0
  9
$OLESTARTUP
290
0
  0
ENDSEC
  0
SECTION
  2
CLASSES
  0
CLASS
  1
ACDBDICTIONARYWDFLT
  2
AcDbDictionaryWithDefault
  3
ObjectDBX Classes
 90
0
280
0
281
0
  0
CLASS
  1
SUN
  2
AcDbSun
  3
SCENEOE
 90
1153
280
0
281
0
  0
CLASS
  1
VISUALSTYLE
  2
AcDbVisualStyle
  3
ObjectDBX Classes
 90
4095
280
0
281
0
  0
CLASS
  1
MATERIAL
  2
AcDbMaterial
  3
ObjectDBX Classes
 90
1153
280
0
281
0
  0
CLASS
  1
SCALE
  2
AcDbScale
  3
ObjectDBX Classes
 90
1153
280
0
281
0
  0
CLASS
  1
TABLESTYLE
  2
AcDbTableStyle
  3
ObjectDBX Classes
 90
4095
280
0
281
0
  0
CLASS
  1
MLEADERSTYLE
  2
AcDbMLeaderStyle
  3
ACDB_MLEADERSTYLE_CLASS
 90
4095
280
0
281
0
  0
CLASS
  1
DICTIONARYVAR
  2
AcDbDictionaryVar
  3
ObjectDBX Classes
 90
0
280
0
281
0
  0
CLASS
  1
CELLSTYLEMAP
  2
AcDbCellStyleMap
  3
ObjectDBX Classes
 90
1152
280
0
281
0
  0
CLASS
  1
MENTALRAYRENDERSETTINGS
  2
AcDbMentalRayRenderSettings
  3
SCENEOE
 90
1024
280
0
281
0
  0
CLASS
  1
ACDBDETAILVIEWSTYLE
  2
AcDbDetailViewStyle
  3
ObjectDBX Classes
 90
1025
280
0
281
0
  0
CLASS
  1
ACDBSECTIONVIEWSTYLE
  2
AcDbSectionViewStyle
  3
ObjectDBX Classes
 90
1025
280
0
281
0
  0
CLASS
  1
RASTERVARIABLES
  2
AcDbRasterVariables
  3
ISM
 90
0
280
0
281
0
  0
CLASS
  1
ACDBPLACEHOLDER
  2
AcDbPlaceHolder
  3
ObjectDBX Classes
 90
0
280
0
281
0
  0
CLASS
  1
LAYOUT
  2
AcDbLayout
  3
ObjectDBX Classes
 90
0
280
0
281
0
  0
ENDSEC
  0
SECTION
  2
TABLES
  0
TABLE
  2
VPORT
  5
8
330
0
100
AcDbSymbolTable
 70
1
  0
VPORT
  5
23
330
8
100
AcDbSymbolTableRecord
100
AcDbViewportTableRecord
  2
*Active
 70
0
 10
0.0
 20
0.0
 11
1.0
 21
1.0
 12
0.0
 22
0.0
 13
0.0
 23
0.0
 14
0.5
 24
0.5
 15
0.5
 25
0.5
 16
0.0
 26
0.0
 36
1.0
 17
0.0
 27
0.0
 37
0.0
 40
1000.0
 41
1.34
 42
50.0
 43
0.0
 44
0.0
 50
0.0
 51
0.0
 71
0
 72
1000
 73
1
 74
3
 75
0
 76
0
 77
0
 78
0
281
0
 65
0
146
0.0
  0
ENDTAB
  0
TABLE
  2
LTYPE
  5
2
330
0
100
AcDbSymbolTable
 70
21
  0
LTYPE
  5
24
330
2
100
AcDbSymbolTableRecord
100
AcDbLinetypeTableRecord
  2
ByBlock
 70
0
  3

 72
65
 73
0
 40
0.0
  0
LTYPE
  5
25
330
2
100
AcDbSymbolTableRecord
100
AcDbLinetypeTableRecord
  2
ByLayer
 70
0
  3

 72
65
 73
0
 40
0.0
  0
LTYPE
  5
26
330
2
100
AcDbSymbolTableRecord
100
AcDbLinetypeTableRecord
  2
Continuous
 70
0
  3

 72
65
 73
0
 40
0.0
  0
LTYPE
  5
2F
330
2
100
AcDbSymbolTableRecord
100
AcDbLinetypeTableRecord
  2
CENTER
 70
0
  3
Center ____ _ ____ _ ____ _ ____ _ ____ _ ____
 72
65
 73
4
 40
5.08
 49
3.175
 74
0
 49
-0.635
 74
0
 49
0.635
 74
0
 49
-0.635
 74
0
  0
LTYPE
  5
30
330
2
100
AcDbSymbolTableRecord
100
AcDbLinetypeTableRecord
  2
CENTERX2
 70
0
  3
Center (2x) ________  __  ________  __  ________
 72
65
 73
4
 40
8.89
 49
6.35
 74
0
 49
-0.635
 74
0
 49
1.27
 74
0
 49
-0.635
 74
0
  0
LTYPE
  5
31
330
2
100
AcDbSymbolTableRecord
100
AcDbLinetypeTableRecord
  2
CENTER2
 70
0
  3
Center (.5x) ____ _ ____ _ ____ _ ____ _ ____
 72
65
 73
4
 40
2.54
 49
1.587
 74
0
 49
-0.318
 74
0
 49
0.318
 74
0
 49
-0.318
 74
0
  0
LTYPE
  5
32
330
2
100
AcDbSymbolTableRecord
100
AcDbLinetypeTableRecord
  2
DASHED
 70
0
  3
Dashed __ __ __ __ __ __ __ __ __ __ __ __ __ _
 72
65
 73
2
 40
1.524
 49
1.27
 74
0
 49
-0.254
 74
0
  0
LTYPE
  5
33
330
2
100
AcDbSymbolTableRecord
100
AcDbLinetypeTableRecord
  2
DASHEDX2
 70
0
  3
Dashed (2x) ____  ____  ____  ____  ____  ____
 72
65
 73
2
 40
3.048
 49
2.54
 74
0
 49
-0.508
 74
0
  0
LTYPE
  5
34
330
2
100
AcDbSymbolTableRecord
100
AcDbLinetypeTableRecord
  2
DASHED2
 70
0
  3
Dashed (.5x) _ _ _ _ _ _ _ _ _ _ _ _ _ _
 72
65
 73
2
 40
0.762
 49
0.635
 74
0
 49
-0.127
 74
0
  0
LTYPE
  5
35
330
2
100
AcDbSymbolTableRecord
100
AcDbLinetypeTableRecord
  2
PHANTOM
 70
0
  3
Phantom ______  __  __  ______  __  __  ______
 72
65
 73
6
 40
6.35
 49
3.175
 74
0
 49
-0.635
 74
0
 49
0.635
 74
0
 49
-0.635
 74
0
 49
0.635
 74
0
 49
-0.635
 74
0
  0
LTYPE
  5
36
330
2
100
AcDbSymbolTableRecord
100
AcDbLinetypeTableRecord
  2
PHANTOMX2
 70
0
  3
Phantom (2x)____________    ____    ____    ____________
 72
65
 73
6
 40
10.795
 49
6.35
 74
0
 49
-0.635
 74
0
 49
1.27
 74
0
 49
-0.635
 74
0
 49
1.27
 74
0
 49
-0.635
 74
0
  0
LTYPE
  5
37
330
2
100
AcDbSymbolTableRecord
100
AcDbLinetypeTableRecord
  2
PHANTOM2
 70
0
  3
Phantom (.5x) ___ _ _ ___ _ _ ___ _ _ ___ _ _ ___
 72
65
 73
6
 40
3.175
 49
1.587
 74
0
 49
-0.318
 74
0
 49
0.318
 74
0
 49
-0.318
 74
0
 49
0.318
 74
0
 49
-0.318
 74
0
  0
LTYPE
  5
38
330
2
100
AcDbSymbolTableRecord
100
AcDbLinetypeTableRecord
  2
DASHDOT
 70
0
  3
Dash dot __ . __ . __ . __ . __ . __ . __ . __
 72
65
 73
4
 40
3.556
 49
2.54
 74
0
 49
-0.508
 74
0
 49
0.0
 74
0
 49
-0.508
 74
0
  0
LTYPE
  5
39
330
2
100
AcDbSymbolTableRecord
100
AcDbLinetypeTableRecord
  2
DASHDOTX2
 70
0
  3
Dash dot (2x) ____  .  ____  .  ____  .  ____
 72
65
 73
4
 40
6.096
 49
5.08
 74
0
 49
-0.508
 74
0
 49
0.0
 74
0
 49
-0.508
 74
0
  0
LTYPE
  5
3A
330
2
100
AcDbSymbolTableRecord
100
AcDbLinetypeTableRecord
  2
DASHDOT2
 70
0
  3
Dash dot (.5x) _ . _ . _ . _ . _ . _ . _ . _
 72
65
 73
4
 40
1.778
 49
1.27
 74
0
 49
-0.254
 74
0
 49
0.0
 74
0
 49
-0.254
 74
0
  0
LTYPE
  5
3B
330
2
100
AcDbSymbolTableRecord
100
AcDbLinetypeTableRecord
  2
DOT
 70
0
  3
Dot .  .  .  .  .  .  .  .  .  .  .  .  .  .  .  .
 72
65
 73
2
 40
0.508
 49
0.0
 74
0
 49
-0.508
 74
0
  0
LTYPE
  5
3C
330
2
100
AcDbSymbolTableRecord
100
AcDbLinetypeTableRecord
  2
DOTX2
 70
0
  3
Dot (2x) .    .    .    .    .    .    .    . 
 72
65
 73
2
 40
1.016
 49
0.0
 74
0
 49
-1.016
 74
0
  0
LTYPE
  5
3D
330
2
100
AcDbSymbolTableRecord
100
AcDbLinetypeTableRecord
  2
DOT2
 70
0
  3
Dot (.5) . . . . . . . . . . . . . . . . . . . 
 72
65
 73
2
 40
0.254
 49
0.0
 74
0
 49
-0.254
 74
0
  0
LTYPE
  5
3E
330
2
100
AcDbSymbolTableRecord
100
AcDbLinetypeTableRecord
  2
DIVIDE
 70
0
  3
Divide __ . . __ . . __ . . __ . . __ . . __
 72
65
 73
6
 40
4.064
 49
2.54
 74
0
 49
-0.508
 74
0
 49
0.0
 74
0
 49
-0.508
 74
0
 49
0.0
 74
0
 49
-0.508
 74
0
  0
LTYPE
  5
3F
330
2
100
AcDbSymbolTableRecord
100
AcDbLinetypeTableRecord
  2
DIVIDEX2
 70
0
  3
Divide (2x) ____  . .  ____  . .  ____  . .  ____
 72
65
 73
6
 40
6.604
 49
5.08
 74
0
 49
-0.508
 74
0
 49
0.0
 74
0
 49
-0.508
 74
0
 49
0.0
 74
0
 49
-0.508
 74
0
  0
LTYPE
  5
40
330
2
100
AcDbSymbolTableRecord
100
AcDbLinetypeTableRecord
  2
DIVIDE2
 70
0
  3
Divide(.5x) _ . _ . _ . _ . _ . _ . _ . _
 72
65
 73
6
 40
2.032
 49
1.27
 74
0
 49
-0.254
 74
0
 49
0.0
 74
0
 49
-0.254
 74
0
 49
0.0
 74
0
 49
-0.254
 74
0
  0
ENDTAB
  0
TABLE
  2
LAYER
  5
1
330
0
100
AcDbSymbolTable
 70
3
  0
LAYER
  5
27
330
1
100
AcDbSymbolTableRecord
100
AcDbLayerTableRecord
  2
0
 70
0
 62
7
  6
Continuous
370
-3
390
13
  0
LAYER
  5
28
330
1
100
AcDbSymbolTableRecord
100
AcDbLayerTableRecord
  2
Defpoints
 70
0
 62
7
  6
Continuous
290
0
370
-3
390
13
  0
LAYER
  5
8A
330
1
100
AcDbSymbolTableRecord
100
AcDbLayerTableRecord
  2
LOGO
 70
0
 62
7
  6
Continuous
370
-3
390
13
  0
ENDTAB
  0
TABLE
  2
STYLE
  5
5
330
0
100
AcDbSymbolTable
 70
26
  0
STYLE
  5
29
330
5
100
AcDbSymbolTableRecord
100
AcDbTextStyleTableRecord
  2
Standard
 70
0
 40
0.0
 41
1.0
 50
0.0
 71
0
 42
2.5
  3
txt
  4

  0
STYLE
  5
41
330
5
100
AcDbSymbolTableRecord
100
AcDbTextStyleTableRecord
  2
OpenSans-Light
 70
0
 40
0.0
 41
1.0
 50
0.0
 71
0
 42
2.5
  3
OpenSans-Light.ttf
  4

  0
STYLE
  5
42
330
5
100
AcDbSymbolTableRecord
100
AcDbTextStyleTableRecord
  2
OpenSans-Light-Italic
 70
0
 40
0.0
 41
1.0
 50
0.0
 71
0
 42
2.5
  3
OpenSans-LightItalic.ttf
  4

  0
STYLE
  5
43
330
5
100
AcDbSymbolTableRecord
100
AcDbTextStyleTableRecord
  2
OpenSans
 70
0
 40
0.0
 41
1.0
 50
0.0
 71
0
 42
2.5
  3
OpenSans-Regular.ttf
  4

  0
STYLE
  5
44
330
5
100
AcDbSymbolTableRecord
100
AcDbTextStyleTableRecord
  2
OpenSans-Italic
 70
0
 40
0.0
 41
1.0
 50
0.0
 71
0
 42
2.5
  3
OpenSans-Italic.ttf
  4

  0
STYLE
  5
45
330
5
100
AcDbSymbolTableRecord
100
AcDbTextStyleTableRecord
  2
OpenSans-SemiBold
 70
0
 40
0.0
 41
1.0
 50
0.0
 71
0
 42
2.5
  3
OpenSans-SemiBold.ttf
  4

  0
STYLE
  5
46
330
5
100
AcDbSymbolTableRecord
100
AcDbTextStyleTableRecord
  2
OpenSans-SemiBoldItalic
 70
0
 40
0.0
 41
1.0
 50
0.0
 71
0
 42
2.5
  3
OpenSans-SemiBoldItalic.ttf
  4

  0
STYLE
  5
47
330
5
100
AcDbSymbolTableRecord
100
AcDbTextStyleTableRecord
  2
OpenSans-Bold
 70
0
 40
0.0
 41
1.0
 50
0.0
 71
0
 42
2.5
  3
OpenSans-Bold.ttf
  4

  0
STYLE
  5
48
330
5
100
AcDbSymbolTableRecord
100
AcDbTextStyleTableRecord
  2
OpenSans-BoldItalic
 70
0
 40
0.0
 41
1.0
 50
0.0
 71
0
 42
2.5
  3
OpenSans-BoldItalic.ttf
  4

  0
STYLE
  5
49
330
5
100
AcDbSymbolTableRecord
100
AcDbTextStyleTableRecord
  2
OpenSans-ExtraBold
 70
0
 40
0.0
 41
1.0
 50
0.0
 71
0
 42
2.5
  3
OpenSans-ExtraBold.ttf
  4

  0
STYLE
  5
4A
330
5
100
AcDbSymbolTableRecord
100
AcDbTextStyleTableRecord
  2
OpenSans-ExtraBoldItalic
 70
0
 40
0.0
 41
1.0
 50
0.0
 71
0
 42
2.5
  3
OpenSans-ExtraBoldItalic.ttf
  4

  0
STYLE
  5
4B
330
5
100
AcDbSymbolTableRecord
100
AcDbTextStyleTableRecord
  2
OpenSansCondensed-Bold
 70
0
 40
0.0
 41
1.0
 50
0.0
 71
0
 42
2.5
  3
OpenSansCondensed-Bold.ttf
  4

  0
STYLE
  5
4C
330
5
100
AcDbSymbolTableRecord
100
AcDbTextStyleTableRecord
  2
OpenSansCondensed-Light
 70
0
 40
0.0
 41
1.0
 50
0.0
 71
0
 42
2.5
  3
OpenSansCondensed-Light.ttf
  4

  0
STYLE
  5
4D
330
5
100
AcDbSymbolTableRecord
100
AcDbTextStyleTableRecord
  2
OpenSansCondensed-Italic
 70
0
 40
0.0
 41
1.0
 50
0.0
 71
0
 42
2.5
  3
OpenSansCondensed-LightItalic.ttf
  4

  0
STYLE
  5
4E
330
5
100
AcDbSymbolTableRecord
100
AcDbTextStyleTableRecord
  2
LiberationSans
 70
0
 40
0.0
 41
1.0
 50
0.0
 71
0
 42
2.5
  3
LiberationSans-Regular.ttf
  4

  0
STYLE
  5
4F
330
5
100
AcDbSymbolTableRecord
100
AcDbTextStyleTableRecord
  2
LiberationSans-Bold
 70
0
 40
0.0
 41
1.0
 50
0.0
 71
0
 42
2.5
  3
LiberationSans-Bold.ttf
  4

  0
STYLE
  5
50
330
5
100
AcDbSymbolTableRecord
100
AcDbTextStyleTableRecord
  2
LiberationSans-BoldItalic
 70
0
 40
0.0
 41
1.0
 50
0.0
 71
0
 42
2.5
  3
LiberationSans-BoldItalic.ttf
  4

  0
STYLE
  5
51
330
5
100
AcDbSymbolTableRecord
100
AcDbTextStyleTableRecord
  2
LiberationSans-Italic
 70
0
 40
0.0
 41
1.0
 50
0.0
 71
0
 42
2.5
  3
LiberationSans-Italic.ttf
  4

  0
STYLE
  5
52
330
5
100
AcDbSymbolTableRecord
100
AcDbTextStyleTableRecord
  2
LiberationSerif
 70
0
 40
0.0
 41
1.0
 50
0.0
 71
0
 42
2.5
  3
LiberationSerif-Regular.ttf
  4

  0
STYLE
  5
53
330
5
100
AcDbSymbolTableRecord
100
AcDbTextStyleTableRecord
  2
LiberationSerif-Bold
 70
0
 40
0.0
 41
1.0
 50
0.0
 71
0
 42
2.5
  3
LiberationSerif-Bold.ttf
  4

  0
STYLE
  5
54
330
5
100
AcDbSymbolTableRecord
100
AcDbTextStyleTableRecord
  2
LiberationSerif-BoldItalic
 70
0
 40
0.0
 41
1.0
 50
0.0
 71
0
 42
2.5
  3
LiberationSerif-BoldItalic.ttf
  4

  0
STYLE
  5
55
330
5
100
AcDbSymbolTableRecord
100
AcDbTextStyleTableRecord
  2
LiberationSerif-Italic
 70
0
 40
0.0
 41
1.0
 50
0.0
 71
0
 42
2.5
  3
LiberationSerif-Italic.ttf
  4

  0
STYLE
  5
56
330
5
100
AcDbSymbolTableRecord
100
AcDbTextStyleTableRecord
  2
LiberationMono
 70
0
 40
0.0
 41
1.0
 50
0.0
 71
0
 42
2.5
  3
LiberationMono-Regular.ttf
  4

  0
STYLE
  5
57
330
5
100
AcDbSymbolTableRecord
100
AcDbTextStyleTableRecord
  2
LiberationMono-Bold
 70
0
 40
0.0
 41
1.0
 50
0.0
 71
0
 42
2.5
  3
LiberationMono-Bold.ttf
  4

  0
STYLE
  5
58
330
5
100
AcDbSymbolTableRecord
100
AcDbTextStyleTableRecord
  2
LiberationMono-BoldItalic
 70
0
 40
0.0
 41
1.0
 50
0.0
 71
0
 42
2.5
  3
LiberationMono-BoldItalic.ttf
  4

  0
STYLE
  5
59
330
5
100
AcDbSymbolTableRecord
100
AcDbTextStyleTableRecord
  2
LiberationMono-Italic
 70
0
 40
0.0
 41
1.0
 50
0.0
 71
0
 42
2.5
  3
LiberationMono-Italic.ttf
  4

  0
ENDTAB
  0
TABLE
  2
VIEW
  5
7
330
0
100
AcDbSymbolTable
 70
0
  0
ENDTAB
  0
TABLE
  2
UCS
  5
6
330
0
100
AcDbSymbolTable
 70
0
  0
ENDTAB
  0
TABLE
  2
APPID
  5
3
330
0
100
AcDbSymbolTable
 70
3
  0
APPID
  5
2A
330
3
100
AcDbSymbolTableRecord
100
AcDbRegAppTableRecord
  2
ACAD
 70
0
  0
APPID
  5
95
330
3
100
AcDbSymbolTableRecord
100
AcDbRegAppTableRecord
  2
HATCHBACKGROUNDCOLOR
 70
0
  0
APPID
  5
96
330
3
100
AcDbSymbolTableRecord
100
AcDbRegAppTableRecord
  2
EZDXF
 70
0
  0
ENDTAB
  0
TABLE
  2
DIMSTYLE
  5
4
330
0
100
AcDbSymbolTable
 70
12
100
AcDbDimStyleTable
  0
DIMSTYLE
105
2B
330
4
100
AcDbSymbolTableRecord
100
AcDbDimStyleTableRecord
  2
Standard
 70
0
  3

  4

 40
1.0
 41
2.5
 42
0.625
 43
3.75
 44
1.25
 45
0.0
 46
0.0
 47
0.0
 48
0.0
140
2.5
141
2.5
142
0.0
143
0.03937007874
144
1.0
145
0.0
146
1.0
147
0.625
148
0.0
 71
0
 72
0
 73
0
 74
0
 75
0
 76
0
 77
1
 78
8
 79
3
170
0
171
3
172
1
173
0
174
0
175
0
176
0
177
0
178
0
179
2
271
2
272
2
273
2
274
3
275
0
276
0
277
2
278
44
279
0
280
0
281
0
282
0
283
0
284
8
285
0
286
0
288
0
289
3
371
-2
372
-2
  0
DIMSTYLE
105
73
330
4
100
AcDbSymbolTableRecord
100
AcDbDimStyleTableRecord
  2
EZDXF
 70
0
  3

  4

 40
1.0
 41
0.175
 42
0.125
 43
3.75
 44
0.375
 45
0.0
 46
0.0
 47
0.0
 48
0.0
140
0.25
141
2.5
142
0.0
143
0.03937007874
144
100.0
145
0.0
146
0.5
147
0.1
148
0.0
 71
0
 72
0
 73
0
 74
0
 75
0
 76
0
 77
1
 78
12
 79
3
170
0
171
3
172
1
173
0
174
0
175
0
176
0
177
0
178
0
179
2
271
2
272
2
273
2
274
3
275
0
276
0
277
2
278
46
279
2
280
0
281
0
282
0
283
0
284
8
285
0
286
0
288
1
289
3
340
4C
342
74
371
-2
372
-2
  0
DIMSTYLE
105
7C
330
4
100
AcDbSymbolTableRecord
100
AcDbDimStyleTableRecord
  2
EZ_M_100_H25_CM
 70
0
  3

  4

 40
1.0
 41
0.25
 42
0.125
 43
3.75
 44
0.375
 45
0.0
 46
0.0
 47
0.0
 48
0.0
140
0.25
141
2.5
142
0.125
143
0.03937007874
144
100.0
145
0.0
146
0.5
147
0.1
148
0.0
 71
0
 72
0
 73
0
 74
0
 75
0
 76
0
 77
1
 78
12
 79
3
170
0
171
3
172
1
173
0
174
0
175
0
176
0
177
0
178
0
179
2
271
2
272
2
273
2
274
3
275
0
276
0
277
2
278
46
279
2
280
0
281
0
282
0
283
0
284
8
285
0
286
0
288
1
289
3
340
4C
371
-2
372
-2
  0
DIMSTYLE
105
7D
330
4
100
AcDbSymbolTableRecord
100
AcDbDimStyleTableRecord
  2
EZ_M_50_H25_CM
 70
0
  3

  4

 40
1.0
 41
0.125
 42
0.0625
 43
3.75
 44
0.1875
 45
0.0
 46
0.0
 47
0.0
 48
0.0
140
0.125
141
2.5
142
0.0625
143
0.03937007874
144
100.0
145
0.0
146
0.5
147
0.05
148
0.0
 71
0
 72
0
 73
0
 74
0
 75
0
 76
0
 77
1
 78
12
 79
3
170
0
171
3
172
1
173
0
174
0
175
0
176
0
177
0
178
0
179
2
271
2
272
2
273
2
274
3
275
0
276
0
277
2
278
46
279
2
280
0
281
0
282
0
283
0
284
8
285
0
286
0
288
1
289
3
340
4C
371
-2
372
-2
  0
DIMSTYLE
105
7E
330
4
100
AcDbSymbolTableRecord
100
AcDbDimStyleTableRecord
  2
EZ_M_25_H25_CM
 70
0
  3

  4

 40
1.0
 41
0.0625
 42
0.03125
 43
3.75
 44
0.09375
 45
0.0
 46
0.0
 47
0.0
 48
0.0
140
0.0625
141
2.5
142
0.03125
143
0.03937007874
144
100.0
145
0.0
146
0.5
147
0.025
148
0.0
 71
0
 72
0
 73
0
 74
0
 75
0
 76
0
 77
1
 78
12
 79
3
170
0
171
3
172
1
173
0
174
0
175
0
176
0
177
0
178
0
179
2
271
2
272
2
273
2
274
3
275
0
276
0
277
2
278
46
279
2
280
0
281
0
282
0
283
0
284
8
285
0
286
0
288
1
289
3
340
4C
371
-2
372
-2
  0
DIMSTYLE
105
7F
330
4
100
AcDbSymbolTableRecord
100
AcDbDimStyleTableRecord
  2
EZ_M_20_H25_CM
 70
0
  3

  4

 40
1.0
 41
0.05
 42
0.025
 43
3.75
 44
0.07500000000000001
 45
0.0
 46
0.0
 47
0.0
 48
0.0
140
0.05
141
2.5
142
0.025
143
0.03937007874
144
100.0
145
0.0
146
0.5
147
0.020000000000000004
148
0.0
 71
0
 72
0
 73
0
 74
0
 75
0
 76
0
 77
1
 78
12
 79
3
170
0
171
3
172
1
173
0
174
0
175
0
176
0
177
0
178
0
179
2
271
2
272
2
273
2
274
3
275
0
276
0
277
2
278
46
279
2
280
0
281
0
282
0
283
0
284
8
285
0
286
0
288
1
289
3
340
4C
371
-2
372
-2
  0
DIMSTYLE
105
80
330
4
100
AcDbSymbolTableRecord
100
AcDbDimStyleTableRecord
  2
EZ_M_10_H25_CM
 70
0
  3

  4

 40
1.0
 41
0.025
 42
0.0125
 43
3.75
 44
0.037500000000000006
 45
0.0
 46
0.0
 47
0.0
 48
0.0
140
0.025
141
2.5
142
0.0125
143
0.03937007874
144
100.0
145
0.0
146
0.5
147
0.010000000000000002
148
0.0
 71
0
 72
0
 73
0
 74
0
 75
0
 76
0
 77
1
 78
12
 79
3
170
0
171
3
172
1
173
0
174
0
175
0
176
0
177
0
178
0
179
2
271
2
272
2
273
2
274
3
275
0
276
0
277
2
278
46
279
2
280
0
281
0
282
0
283
0
284
8
285
0
286
0
288
1
289
3
340
4C
371
-2
372
-2
  0
DIMSTYLE
105
81
330
4
100
AcDbSymbolTableRecord
100
AcDbDimStyleTableRecord
  2
EZ_M_5_H25_CM
 70
0
  3

  4

 40
1.0
 41
0.0125
 42
0.00625
 43
3.75
 44
0.018750000000000003
 45
0.0
 46
0.0
 47
0.0
 48
0.0
140
0.0125
141
2.5
142
0.00625
143
0.03937007874
144
100.0
145
0.0
146
0.5
147
0.005000000000000001
148
0.0
 71
0
 72
0
 73
0
 74
0
 75
0
 76
0
 77
1
 78
12
 79
3
170
0
171
3
172
1
173
0
174
0
175
0
176
0
177
0
178
0
179
2
271
2
272
2
273
2
274
3
275
0
276
0
277
2
278
46
279
2
280
0
281
0
282
0
283
0
284
8
285
0
286
0
288
1
289
3
340
4C
371
-2
372
-2
  0
DIMSTYLE
105
82
330
4
100
AcDbSymbolTableRecord
100
AcDbDimStyleTableRecord
  2
EZ_M_1_H25_CM
 70
0
  3

  4

 40
1.0
 41
0.0025
 42
0.00125
 43
3.75
 44
0.00375
 45
0.0
 46
0.0
 47
0.0
 48
0.0
140
0.0025
141
2.5
142
0.00125
143
0.03937007874
144
100.0
145
0.0
146
0.5
147
0.001
148
0.0
 71
0
 72
0
 73
0
 74
0
 75
0
 76
0
 77
1
 78
12
 79
3
170
0
171
3
172
1
173
0
174
0
175
0
176
0
177
0
178
0
179
2
271
2
272
2
273
2
274
3
275
0
276
0
277
2
278
46
279
2
280
0
281
0
282
0
283
0
284
8
285
0
286
0
288
1
289
3
340
4C
371
-2
372
-2
  0
DIMSTYLE
105
83
330
4
100
AcDbSymbolTableRecord
100
AcDbDimStyleTableRecord
  2
EZ_RADIUS
 70
0
  3

  4

 40
1.0
 41
0.25
 42
0.125
 43
3.75
 44
0.375
 45
0.0
 46
0.0
 47
0.0
 48
0.0
140
0.25
141
0.0
142
0.0
143
0.03937007874
144
100.0
145
0.0
146
0.5
147
0.1
148
0.0
 71
0
 72
0
 73
0
 74
0
 75
0
 76
0
 77
1
 78
12
 79
3
170
0
171
3
172
0
173
0
174
0
175
0
176
0
177
0
178
0
179
2
271
2
272
2
273
2
274
3
275
0
276
0
277
2
278
46
279
1
280
0
281
0
282
0
283
0
284
8
285
0
286
0
288
1
289
3
340
4C
342
84
371
-2
372
-2
  0
DIMSTYLE
105
88
330
4
100
AcDbSymbolTableRecord
100
AcDbDimStyleTableRecord
  2
EZ_RADIUS_INSIDE
 70
0
  3

  4

 40
1.0
 41
0.25
 42
0.125
 43
3.75
 44
0.375
 45
0.0
 46
0.0
 47
0.0
 48
0.0
140
0.25
141
0.0
142
0.0
143
0.03937007874
144
100.0
145
0.0
146
0.5
147
0.1
148
0.0
 71
0
 72
0
 73
0
 74
0
 75
0
 76
0
 77
0
 78
12
 79
3
170
0
171
3
172
0
173
0
174
1
175
0
176
0
177
0
178
0
179
2
271
2
272
2
273
2
274
3
275
0
276
0
277
2
278
46
279
0
280
0
281
0
282
0
283
0
284
8
285
0
286
0
288
1
289
0
340
4C
342
84
371
-2
372
-2
  0
DIMSTYLE
105
89
330
4
100
AcDbSymbolTableRecord
100
AcDbDimStyleTableRecord
  2
EZ_CURVED
 70
0
  3

  4

 40
1.0
 41
0.25
 42
0.125
 43
3.75
 44
0.375
 45
0.0
 46
0.0
 47
0.0
 48
0.0
140
0.25
141
2.5
142
0.0
143
0.03937007874
144
100.0
145
0.0
146
0.5
147
0.1
148
0.0
 71
0
 72
0
 73
0
 74
0
 75
0
 76
0
 77
1
 78
12
 79
2
 90
2
170
0
171
3
172
1
173
0
174
0
175
0
176
0
177
0
178
0
179
2
271
2
272
2
273
2
274
3
275
0
276
0
277
2
278
46
279
2
280
0
281
0
282
0
283
0
284
8
285
0
286
0
288
1
289
3
340
4C
371
-2
372
-2
  0
ENDTAB
  0
TABLE
  2
BLOCK_RECORD
  5
9
330
0
100
AcDbSymbolTable
 70
5
  0
BLOCK_RECORD
  5
17
330
9
100
AcDbSymbolTableRecord
100
AcDbBlockTableRecord
  2
*Model_Space
340
1A
  0
BLOCK_RECORD
  5
1B
330
9
100
AcDbSymbolTableRecord
100
AcDbBlockTableRecord
  2
*Paper_Space
340
1E
  0
BLOCK_RECORD
  5
74
330
9
100
AcDbSymbolTableRecord
100
AcDbBlockTableRecord
  2
_ARCHTICK
340
0
  0
BLOCK_RECORD
  5
78
330
9
100
AcDbSymbolTableRecord
100
AcDbBlockTableRecord
  2
_CLOSEDFILLED
340
0
  0
BLOCK_RECORD
  5
84
330
9
100
AcDbSymbolTableRecord
100
AcDbBlockTableRecord
  2
_CLOSEDBLANK
340
0
  0
ENDTAB
  0
ENDSEC
  0
SECTION
  2
BLOCKS
  0
BLOCK
  5
18
330
17
100
AcDbEntity
  8
0
100
AcDbBlockBegin
  2
*Model_Space
 70
0
 10
0.0
 20
0.0
 30
0.0
  3
*Model_Space
  1

  0
ENDBLK
  5
19
330
17
100
AcDbEntity
  8
0
100
AcDbBlockEnd
  0
BLOCK
  5
1C
330
1B
100
AcDbEntity
  8
0
100
AcDbBlockBegin
  2
*Paper_Space
 70
0
 10
0.0
 20
0.0
 30
0.0
  3
*Paper_Space
  1

  0
ENDBLK
  5
1D
330
1B
100
AcDbEntity
  8
0
100
AcDbBlockEnd
  0
BLOCK
  5
75
330
74
100
AcDbEntity
  8
0
100
AcDbBlockBegin
  2
_ARCHTICK
 70
0
 10
0.0
 20
0.0
 30
0.0
  3
_ARCHTICK
  1

  0
LWPOLYLINE
  5
77
330
74
100
AcDbEntity
  8
0
  6
BYBLOCK
 62
0
100
AcDbPolyline
 90
2
 70
0
 43
0.15
 10
-0.5
 20
-0.5
 10
0.5
 20
0.5
  0
ENDBLK
  5
76
330
74
100
AcDbEntity
  8
0
100
AcDbBlockEnd
  0
BLOCK
  5
79
330
78
100
AcDbEntity
  8
0
100
AcDbBlockBegin
  2
_CLOSEDFILLED
 70
0
 10
0.0
 20
0.0
 30
0.0
  3
_CLOSEDFILLED
  1

  0
SOLID
  5
7B
330
78
100
AcDbEntity
  8
0
  6
BYBLOCK
 62
0
100
AcDbTrace
 10
-1.0
 20
0.16439898372402537
 30
0.0
 11
0.0
 21
0.0
 31
0.0
 12
-1.0
 22
-0.16439898372402537
 32
0.0
 13
-1.0
 23
-0.16439898372402537
 33
0.0
  0
ENDBLK
  5
7A
330
78
100
AcDbEntity
  8
0
100
AcDbBlockEnd
  0
BLOCK
  5
85
330
84
100
AcDbEntity
  8
0
100
AcDbBlockBegin
  2
_CLOSEDBLANK
 70
0
 10
0.0
 20
0.0
 30
0.0
  3
_CLOSEDBLANK
  1

  0
LWPOLYLINE
  5
87
330
84
100
AcDbEntity
  8
0
  6
BYBLOCK
 62
0
100
AcDbPolyline
 90
3
 70
1
 10
-1.0
 20
0.16439898372402537
 10
0.0
 20
0.0
 10
-1.0
 20
-0.16439898372402537
  0
ENDBLK
  5
86
330
84
100
AcDbEntity
  8
0
100
AcDbBlockEnd
  0
ENDSEC
  0
SECTION
  2
ENTITIES
  0
LWPOLYLINE
  5
8B
330
17
100
AcDbEntity
  8
LOGO
100
AcDbPolyline
 90
153
 70
1
 10
7.7398334061735925
 20
36.4010271966238
 10
7.7479522986651
 20
36.84021822067159
 10
7.772155385004254
 20
37.276406217913355
 10
7.812212278488005
 20
37.709239430299775
 10
7.867892592413313
 20
38.13836609978154
 10
7.9389659400771295
 20
38.56343446830937
 10
8.025201934776405
 20
38.98409277783394
 10
8.126370189808089
 20
39.399989270305944
 10
8.24224031846914
 20
39.810772187676086
 10
8.372581934056509
 20
40.216089771895014
 10
8.517164649867146
 20
40.61559026491347
 10
8.675758079198006
 20
41.008921908682126
 10
8.848131835346054
 20
41.395732945151664
 10
9.034055531608224
 20
41.77567161627278
 10
9.233298781281478
 20
42.14838616399619
 10
9.445631197662768
 20
42.51352483027256
 10
9.670822394049049
 20
42.87073585705259
 10
9.90864198373727
 20
43.219667486286966
 10
10.158859580024384
 20
43.55996795992638
 10
10.421244796207345
 20
43.89128551992154
 10
10.695567245583115
 20
44.2132684082231
 10
10.981596541448633
 20
44.525564866781785
 10
11.279102297100856
 20
44.827823137548286
 10
11.58785412583675
 20
45.11969146247329
 10
11.907621640953243
 20
45.400818083507495
 10
12.238174455747304
 20
45.67085124260158
 10
12.579282183515886
 20
45.92943918170622
 10
12.930714437555938
 20
46.176230142772134
 10
13.292240831164422
 20
46.410872367750024
 10
13.66363097763827
 20
46.63301409859055
 10
14.044654490274455
 20
46.84230357724443
 10
14.435080982369925
 20
47.03838904566232
 10
14.834680067221635
 20
47.22091874579496
 10
14.517148753785436
 20
47.94925694211421
 10
14.09086525260778
 20
47.75435853628031
 10
13.674352122479931
 20
47.54499773536785
 10
13.267856102082893
 20
47.32154991582849
 10
12.871623930097673
 20
47.08439045411386
 10
12.485902345205274
 20
46.83389472667562
 10
12.110938086086707
 20
46.570438109965394
 10
11.746977891422961
 20
46.29439598043484
 10
11.394268499895041
 20
46.0061437145356
 10
11.053056650183962
 20
45.70605668871933
 10
10.723589080970713
 20
45.39451027943765
 10
10.406112530936312
 20
45.071879863142215
 10
10.100873738761754
 20
44.73854081628468
 10
9.80811944312804
 20
44.39486851531669
 10
9.52809638271618
 20
44.041238336689865
 10
9.261051296207174
 20
43.67802565685586
 10
9.007230922282027
 20
43.305605852266346
 10
8.766881999621743
 20
42.92435429937292
 10
8.540251266907324
 20
42.534646374627286
 10
8.327585462819767
 20
42.136857454481046
 10
8.129131326040083
 20
41.731362915385844
 10
7.945135595249275
 20
41.31853813379334
 10
7.775845009128348
 20
40.89875848615516
 10
7.6215063063583
 20
40.47239934892298
 10
7.48236622562014
 20
40.03983609854841
 10
7.358671505594871
 20
39.60144411148312
 10
7.250668884963493
 20
39.15759876417874
 10
7.1586051024070025
 20
38.70867543308693
 10
7.0827268966064185
 20
38.25504949465933
 10
7.023281006242736
 20
37.79709632534757
 10
6.980514169996957
 20
37.33519130160329
 10
6.9546731265500865
 20
36.869709799878166
 10
6.946004614583128
 20
36.4010271966238
 10
6.950034596340151
 20
36.079143584438626
 10
6.962063613874064
 20
35.759345662900934
 10
6.982000275579135
 20
35.44172486927455
 10
7.009753189849623
 20
35.12637264082328
 10
7.045230965079802
 20
34.813380414810894
 10
7.08834220966393
 20
34.5028396285012
 10
7.138995531996277
 20
34.194841719158006
 10
7.1970995404711
 20
33.88947812404511
 10
7.262562843482673
 20
33.58684028042631
 10
7.335294049425256
 20
33.28701962556541
 10
7.415201766693112
 20
32.99010759672618
 10
7.502194603680516
 20
32.69619563117246
 10
7.596181168781723
 20
32.40537516616801
 10
7.697070070391006
 20
32.11773763897666
 10
7.804769916902627
 20
31.833374486862176
 10
7.919189316710849
 20
31.552377147088393
 10
8.167821209794164
 20
31.00084565361807
 10
8.44223461679506
 20
30.46387465667607
 10
8.741698404867678
 20
29.94219565437278
 10
9.065481441166128
 20
29.436540144818586
 10
9.412852592844528
 20
28.947639626123888
 10
9.783080727057008
 20
28.476225596399075
 10
10.175434710957681
 20
28.023029553754537
 10
10.589183411700674
 20
27.58878299630065
 10
11.023595696440108
 20
27.174217422147827
 10
11.4779404323301
 20
26.780064329406446
 10
11.951486486524775
 20
26.407055216186897
 10
12.44350272617825
 20
26.05592158059956
 10
12.95325801844465
 20
25.727394920754854
 10
13.480021230478094
 20
25.422206734763144
 10
14.023061229432702
 20
25.141088520734822
 10
14.581646882462596
 20
24.884771776780298
 10
15.155047056721905
 20
24.653988001009935
 10
15.742530619364741
 20
24.449468691534133
 10
16.041325192315647
 20
24.35728680481619
 10
16.343366437545225
 20
24.271945346463294
 10
16.648562963447752
 20
24.193535753739223
 10
16.956823378417482
 20
24.122149463907792
 10
17.268056290848683
 20
24.0578779142328
 10
17.582170309135623
 20
24.00081254197803
 10
17.899074041672577
 20
23.951044784407287
 10
18.21867609685379
 20
23.90866607878437
 10
18.540885083073537
 20
23.873767862373086
 10
18.865609608726086
 20
23.846441572437236
 10
19.1927582822057
 20
23.826778646240612
 10
19.522239711906643
 20
23.814870521047016
 10
20.627585409392232
 20
23.772017190645077
 10
22.036198045491712
 20
23.702743178218995
 10
23.78510206095404
 20
23.608475209646826
 10
23.83074755238547
 20
24.40031848332002
 10
22.036198574658346
 20
24.496818794299177
 10
20.642532660540272
 20
24.564697592720893
 10
19.54208727107966
 20
24.60671379472021
 10
18.925916218128986
 20
24.636193563407872
 10
18.31883890910726
 20
24.694407006019134
 10
17.72154178007109
 20
24.780668049265945
 10
17.13471126707709
 20
24.89429061986024
 10
16.559033806181855
 20
25.03458864451396
 10
15.995195833441995
 20
25.200876049939033
 10
15.443883784914107
 20
25.3924667628474
 10
14.905784096654795
 20
25.608674709951
 10
14.381583204720666
 20
25.848813817961762
 10
13.87196754516832
 20
26.112198013591627
 10
13.377623554054358
 20
26.398141223552535
 10
12.899237667435385
 20
26.70595737455641
 10
12.437496321368005
 20
27.034960393315203
 10
11.993085951908826
 20
27.384464206540827
 10
11.566692995114455
 20
27.753782740945237
 10
11.159003887041484
 20
28.142229923240365
 10
10.770705063746519
 20
28.54911968013815
 10
10.402482961286173
 20
28.973765938350514
 10
10.05502401571704
 20
29.41548262458941
 10
9.729014663095727
 20
29.87358366556677
 10
9.42514133947883
 20
30.347382987994518
 10
9.144090480922968
 20
30.83619451858461
 10
8.886548523484734
 20
31.33933218404897
 10
8.653201903220737
 20
31.856109911099526
 10
8.44473705618757
 20
32.385841626448226
 10
8.261840418441853
 20
32.927841256807014
 10
8.105198426040179
 20
33.4814227288878
 10
7.9754975150391525
 20
34.045899969402534
 10
7.8734241214953755
 20
34.62058690506316
 10
7.799664681465454
 20
35.20479746258161
 10
7.7736172052858725
 20
35.50025970163499
 10
7.754905631005992
 20
35.797845568669814
 10
7.743615763132868
 20
36.097469304525056
 10
7.7398334061735925
 20
36.39904515003971
  0
LWPOLYLINE
  5
8C
330
17
100
AcDbEntity
  8
LOGO
100
AcDbPolyline
 90
152
 70
1
 10
65.46311196437023
 20
36.801911993253604
 10
65.45499306598761
 20
36.36272120725329
 10
65.43078996321536
 20
35.92653344759391
 10
65.39073304461687
 20
35.4937004718597
 10
65.33505269875552
 20
35.06457403763487
 10
65.2639793141947
 20
34.63950590250364
 10
65.17774327949789
 20
34.21884782405023
 10
65.07657498322843
 20
33.802951559858855
 10
64.96070481394969
 20
33.39216886751374
 10
64.8303631602251
 20
32.9868515045991
 10
64.68578041061808
 20
32.58735122869916
 10
64.52718695369198
 20
32.194019797398155
 10
64.35481317801026
 20
31.807208968280293
 10
64.16888947213627
 20
31.427270498929797
 10
63.969646224633436
 20
31.05455614693088
 10
63.75731382406514
 20
30.68941766986776
 10
63.53212265899478
 20
30.33220682532466
 10
63.29430311798575
 20
29.98327537088581
 10
63.044085589601465
 20
29.642975064135424
 10
62.78170046240532
 20
29.311657662657726
 10
62.507378124960695
 20
28.989674924036933
 10
62.221348965831
 20
28.677378605857257
 10
61.92384337357966
 20
28.375120465702942
 10
61.615091736770026
 20
28.083252261158187
 10
61.29532444396553
 20
27.802125749807217
 10
60.96477188372954
 20
27.53209268923425
 10
60.623664444625504
 20
27.273504837023513
 10
60.27223251521678
 20
27.026713950759216
 10
59.91070648406679
 20
26.792071788025602
 10
59.53931673973893
 20
26.569930106406872
 10
59.15829367079657
 20
26.36064066348725
 10
58.76786766580313
 20
26.164555216850967
 10
58.36826911332201
 20
25.982025524082225
 10
58.68381499350761
 20
25.253682247763184
 10
59.110278447210476
 20
25.44858089148953
 10
59.52696028132577
 20
25.65794192889917
 10
59.93361412020462
 20
25.881389982145187
 10
60.32999358819808
 20
26.118549673380684
 10
60.71585230965727
 20
26.369045624758737
 10
61.090943908933255
 20
26.632502458432445
 10
61.455022010377085
 20
26.908544796554906
 10
61.8078402383399
 20
27.19679726127922
 10
62.149152217172784
 20
27.496884474758453
 10
62.47871157122677
 20
27.808431059145715
 10
62.79627192485299
 20
28.1310616365941
 10
63.101586902402516
 20
28.464400829256686
 10
63.394410128226454
 20
28.80807325928657
 10
63.67449522667585
 20
29.161703548836837
 10
63.941595822101824
 20
29.524916320060598
 10
64.19546553885547
 20
29.89733619511094
 10
64.43585800128785
 20
30.278587796140947
 10
64.66252683375005
 20
30.668295745303706
 10
64.87522566059316
 20
31.066084664752317
 10
65.0737081061683
 20
31.47157917663987
 10
65.25772779482651
 20
31.884403903119473
 10
65.42703835091886
 20
32.3041834663442
 10
65.58139339879646
 20
32.73054248846712
 10
65.72054656281044
 20
33.163105591641376
 10
65.84425146731185
 20
33.60149739802003
 10
65.95226173665174
 20
34.04534252975618
 10
66.04433099518124
 20
34.494265609002916
 10
66.12021286725142
 20
34.94789125791333
 10
66.17966097721339
 20
35.4058440986405
 10
66.22242894941822
 20
35.86774875333755
 10
66.24827040821697
 20
36.33322984415755
 10
66.25693897796076
 20
36.801911993253604
 10
66.25290899775435
 20
37.12379583803117
 10
66.24087998487357
 20
37.44359398128981
 10
66.2209433309261
 20
37.76121498605638
 10
66.19319042751962
 20
38.0765674153578
 10
66.15771266626179
 20
38.38955983222093
 10
66.11460143876027
 20
38.700100799672654
 10
66.06394813662276
 20
39.00809888073985
 10
66.0058441514569
 20
39.3134626384494
 10
65.94038087487039
 20
39.6161006358282
 10
65.86764969847088
 20
39.91592143590311
 10
65.78774201386608
 20
40.21283360170101
 10
65.70074921266365
 20
40.50674569624881
 10
65.60676268647124
 20
40.79756628257336
 10
65.50587382689653
 20
41.085203923701556
 10
65.39817402554722
 20
41.369567182660276
 10
65.28375467403093
 20
41.6505646224764
 10
65.0351228869282
 20
42.20209629678839
 10
64.7607095984498
 20
42.73906745085258
 10
64.46124594145704
 20
43.26074658888402
 10
64.1374630488113
 20
43.766402215097756
 10
63.79009205337401
 20
44.25530283370882
 10
63.41986408800652
 20
44.72671694893229
 10
63.02751028557023
 20
45.1799130649832
 10
62.613761778926474
 20
45.6141596860766
 10
62.1793497009367
 20
46.02872531642754
 10
61.72500518446224
 20
46.42287846025106
 10
61.25145936236451
 20
46.79588762176224
 10
60.75944336750486
 20
47.14702130517611
 10
60.24968833274469
 20
47.47554801470771
 10
59.722925390945385
 20
47.780736254572105
 10
59.17988567496831
 20
48.061854528984334
 10
58.62130031767488
 20
48.318171342159445
 10
58.04790045192644
 20
48.54895519831249
 10
57.460417210584396
 20
48.75347460165853
 10
57.16162280308496
 20
48.84565654109611
 10
56.85958172651013
 20
48.93099805641259
 10
56.554385372467586
 20
49.00940771063485
 10
56.246125132565005
 20
49.08079406678975
 10
55.934892398410064
 20
49.14506568790419
 10
55.620778561610415
 20
49.20213113700503
 10
55.30387501377375
 20
49.251898977119176
 10
54.98427314650772
 20
49.29427777127349
 10
54.66206435142004
 20
49.32917608249487
 10
54.33734002011833
 20
49.35650247381019
 10
54.010191544210315
 20
49.376165508246324
 10
53.68071031530363
 20
49.38807374883017
 10
52.57536252760979
 20
49.430926325169644
 10
51.166747960052064
 20
49.50019950415826
 10
49.417843732923075
 20
49.59446652023047
 10
49.37418282807561
 20
48.802623246557275
 10
51.16798631583381
 20
48.70612293557813
 10
52.56155904370578
 20
48.638244851531375
 10
53.66284056938154
 20
48.59622793515708
 10
54.27900600980682
 20
48.566748166469424
 10
54.88606680681385
 20
48.50853472385816
 10
55.48333725081328
 20
48.42227368061135
 10
56.07013163221577
 20
48.30865111001705
 10
56.64576424143197
 20
48.168353085363336
 10
57.209549368872516
 20
48.00206567993826
 10
57.760801304948096
 20
47.81047496702988
 10
58.29883434006931
 20
47.594267019926285
 10
58.82296276464684
 20
47.35412791191552
 10
59.33250086909135
 20
47.09074371628566
 10
59.82676294381344
 20
46.804800506324746
 10
60.30506327922383
 20
46.496984355320876
 10
60.76671616573311
 20
46.16798133656209
 10
61.211035893751955
 20
45.81847752333647
 10
61.63733675369103
 20
45.449158988932055
 10
62.044933035961016
 20
45.06071180663692
 10
62.43313903097252
 20
44.653822049739134
 10
62.80126902913616
 20
44.22917579152677
 10
63.14863732086262
 20
43.78745910528787
 10
63.47455819656256
 20
43.32935806431052
 10
63.778345946646624
 20
42.85555874188277
 10
64.05931486152552
 20
42.366747211292676
 10
64.3167792316098
 20
41.863609545828325
 10
64.55005334731017
 20
41.34683181877776
 10
64.75845149903728
 20
40.817100103429055
 10
64.94128797720177
 20
40.27510047307028
 10
65.09787707221429
 20
39.72151900098949
 10
65.22753307448548
 20
39.15704176047474
 10
65.329570274426
 20
38.58235482481411
 10
65.40330296244656
 20
37.998144267295665
 10
65.44804542895776
 20
37.40509616120746
 10
65.45933104490065
 20
37.10547242535222
 10
65.46311196437023
 20
36.80389657983757
  0
LWPOLYLINE
  5
8D
330
17
100
AcDbEntity
  8
LOGO
100
AcDbPolyline
 90
153
 70
1
 10
24.608700413304103
 20
53.66085649079755
 10
24.638180181991764
 20
54.277027543748225
 10
24.696393624603022
 20
54.88410485276995
 10
24.782654667849837
 20
55.48140198180612
 10
24.89627723844413
 20
56.06823249480012
 10
25.036575263097852
 20
56.64390995569534
 10
25.202862668522926
 20
57.207747928435204
 10
25.39445338143129
 20
57.7590599769631
 10
25.610661328534892
 20
58.29715966522241
 10
25.850800436545654
 20
58.821360557156524
 10
26.11418463217552
 20
59.33097621670889
 10
26.400127842136428
 20
59.825320207822855
 10
26.7079439931403
 20
60.30370609444182
 10
27.03694701189909
 20
60.765447440509206
 10
27.38645082512472
 20
61.209857809968376
 10
27.75576935952913
 20
61.63625076676274
 10
28.144216541824257
 20
62.043939874835715
 10
28.55110629872204
 20
62.432238698130654
 10
28.975752556934406
 20
62.80046080059103
 10
29.4174692431733
 20
63.14791974616017
 10
29.87557028415066
 20
63.473929098781475
 10
30.34936960657841
 20
63.77780242239836
 10
30.838181137168498
 20
64.05885328095422
 10
31.341318802632863
 20
64.31639523839247
 10
31.858096529683415
 20
64.54974185865646
 10
32.38782824503212
 20
64.75820670568963
 10
32.929827875390906
 20
64.94110334343534
 10
33.48340934747169
 20
65.09774533583703
 10
34.047886587986426
 20
65.22744624683804
 10
34.622573523647056
 20
65.32951964038183
 10
35.2067840811655
 20
65.40327908041174
 10
35.50224632021888
 20
65.42932655659133
 10
35.799832187253706
 20
65.44803813087123
 10
36.09945592310895
 20
65.45932799874433
 10
36.401031768623604
 20
65.46311035570362
 10
36.84022255462392
 20
65.4549914632121
 10
37.2764103142833
 20
65.43078837687295
 10
37.70924329001751
 20
65.39073148338922
 10
38.13836972424234
 20
65.33505116946388
 10
38.563437859373565
 20
65.26397782180007
 10
38.98409593782698
 20
65.1777418271008
 10
39.39999220201835
 20
65.07657357206912
 10
39.81077489436347
 20
64.96070344340806
 10
40.21609225727811
 20
64.8303618278207
 10
40.615592533178045
 20
64.68577911201007
 10
41.00892396447905
 20
64.52718568267919
 10
41.395734793596915
 20
64.35481192653116
 10
41.775673262947414
 20
64.16888823026896
 10
42.14838761494633
 20
63.9696449805957
 10
42.51352609200945
 20
63.7573125642144
 10
42.87073693655255
 20
63.53212136782816
 10
43.219668390991394
 20
63.29430177813996
 10
43.55996869774179
 20
63.04408418185283
 10
43.891286099219485
 20
62.781698965669854
 10
44.213268837840275
 20
62.50737651629411
 10
44.52556515601995
 20
62.22134722042859
 10
44.827823296174266
 20
61.92384146477635
 10
45.11969150071902
 20
61.61508963604045
 10
45.40081801207
 20
61.29532212092398
 10
45.67085107264296
 20
60.964769306129924
 10
45.9294389248537
 20
60.62366157836135
 10
46.176229811117985
 20
60.27222932432131
 10
46.4108719738516
 20
59.910702930712816
 10
46.63301365547034
 20
59.539312784238945
 10
46.84230309838996
 20
59.15828927160276
 10
47.038388545026244
 20
58.7678627795073
 10
47.22091823779499
 20
58.36826369465557
 10
47.94926151411402
 20
58.68579500809176
 10
47.75436287038767
 20
59.11207850926941
 10
47.545001832978045
 20
59.52859163939725
 10
47.32155377973203
 20
59.9350876597943
 10
47.08439408849653
 20
60.331319831779524
 10
46.83389813711847
 20
60.71704141667195
 10
46.57044130344477
 20
61.0920056757905
 10
46.29439896532231
 20
61.45596587045426
 10
46.00614650059799
 20
61.808675261982174
 10
45.70605928711876
 20
62.149887111693246
 10
45.3945127027315
 20
62.47935468090648
 10
45.0718821252831
 20
62.79683123094089
 10
44.738542932620526
 20
63.10207002311545
 10
44.394870502590635
 20
63.394824318749144
 10
44.04124021304037
 20
63.67484737916101
 10
43.67802744181661
 20
63.94189246567
 10
43.30560756676626
 20
64.19571283959516
 10
42.92435596573626
 20
64.43606176225543
 10
42.534648016573506
 20
64.66269249496986
 10
42.13685909712489
 20
64.87535829905742
 10
41.73136458523734
 20
65.07381243583711
 10
41.31853985875774
 20
65.25780816662792
 10
40.898760295533016
 20
65.42709875274886
 10
40.472401273410085
 20
65.58143745551892
 10
40.03983817023583
 20
65.72057753625705
 10
39.60144636385718
 20
65.84427225628232
 10
39.15760123212103
 20
65.9522748769137
 10
38.70867815287429
 20
66.04433865947018
 10
38.25505250396388
 20
66.12021686527076
 10
37.79709966323671
 20
66.17966275563444
 10
37.33519500853966
 20
66.22242959188024
 10
36.86971391771966
 20
66.2482706353271
 10
36.401031768623604
 20
66.25693914729408
 10
36.079238066944704
 20
66.25290916553706
 10
35.75952438883697
 20
66.24088014800314
 10
35.441982307544265
 20
66.22094348629807
 10
35.12670339631047
 20
66.19319057202756
 10
34.813779228379424
 20
66.15771279679736
 10
34.50330137699503
 20
66.11460155221324
 10
34.195361415401116
 20
66.06394822988092
 10
33.89005091684157
 20
66.0058442214061
 10
33.58746145456024
 20
65.94038091839454
 10
33.287684601801004
 20
65.86764971245195
 10
32.99081193180773
 20
65.78774199518409
 10
32.69693501782426
 20
65.7007491581967
 10
32.40614543309448
 20
65.60676259309548
 10
32.11853475086225
 20
65.50587369148622
 10
31.83419454437145
 20
65.3981738449746
 10
31.553216386865927
 20
65.28375444516635
 10
31.00171251178619
 20
65.03512255208304
 10
30.464755711573936
 20
64.76070914508215
 10
29.943078572180113
 20
64.46124535700953
 10
29.437413679555632
 20
64.13746232071108
 10
28.948493619651416
 20
63.79009116903269
 10
28.4770509784184
 20
63.41986303482021
 10
28.023818341807495
 20
63.02750905091953
 10
27.589528295769604
 20
62.613760350176534
 10
27.174913426255667
 20
62.179348065437104
 10
26.780706319216623
 20
61.7250033295471
 10
26.407639560603354
 20
61.25145727535243
 10
26.0564457363668
 20
60.759441035698956
 10
25.72785743245787
 20
60.249685743432565
 10
25.422607234827506
 20
59.7229225313991
 10
25.141427729426624
 20
59.179882532444495
 10
24.885051502206135
 20
58.6212968794146
 10
24.65421113911697
 20
58.04789670515529
 10
24.44963922611003
 20
57.460413142512465
 10
24.357432871497075
 20
57.16161856956156
 10
24.272068349136255
 20
56.85957732433199
 10
24.19363723227146
 20
56.554380798429456
 10
24.12223109414657
 20
56.246120383459726
 10
24.057941508005428
 20
55.934887471028524
 10
24.000860047091887
 20
55.62077345274159
 10
23.951078284649835
 20
55.30386972020463
 10
23.908687793923118
 20
54.98426766502342
 10
23.873780148155607
 20
54.662058678803675
 10
23.846446920591198
 20
54.33733415315112
 10
23.826779684473728
 20
54.01018547967151
 10
23.814870013047038
 20
53.680704049970565
 10
23.772017436707568
 20
52.575358352484976
 10
23.702744257718944
 20
51.16674571638549
 10
23.60847724164674
 20
49.41784170092317
 10
24.400320515319933
 20
49.374179949409076
 10
24.49682082629908
 20
51.16873009130282
 10
24.56469891034583
 20
52.56239638906671
 10
24.606715826720123
 20
53.66284192404815
  0
LWPOLYLINE
  5
8E
330
17
100
AcDbEntity
  8
LOGO
100
AcDbPolyline
 90
1434
 70
1
 10
20.383545209352246
 20
10.83973572167765
 10
8.36894218862739
 20
6.9976031884331915
 10
8.276640300193355
 20
6.9767489905911795
 10
8.19203638050888
 20
6.972918953524199
 10
8.115572301250875
 20
6.982670950735051
 10
8.047689934096233
 20
7.002562855726538
 10
7.988831150721854
 20
7.029152542001444
 10
7.9394378228046545
 20
7.058997883062571
 10
7.870815020049359
 20
7.114687023554695
 10
7.812952363283218
 20
7.18160628409972
 10
7.781579137044861
 20
7.230159069993357
 10
7.753229291532095
 20
7.288340042985817
 10
7.7313913112167505
 20
7.355823765590661
 10
7.719553680570659
 20
7.432284800321449
 10
7.721204884065664
 20
7.517397709691746
 10
7.7398334061735925
 20
7.610837056215108
 10
11.04017761199258
 20
18.92091641162845
 10
11.63731681939303
 20
18.641864866276432
 10
12.243572443601122
 20
18.38234933323541
 10
12.85838658157762
 20
18.142556423122617
 10
13.481201330283248
 20
17.922672746555268
 10
12.145584295933961
 20
11.974911627711991
 10
12.13603374816524
 20
11.876301449945753
 10
12.15104214187322
 20
11.77992472583645
 10
12.189121068869932
 20
11.690247251448012
 10
12.248782120967387
 20
11.611734822844355
 10
12.326149380035421
 20
11.550522637790706
 10
12.41523819886505
 20
11.51052080122828
 10
12.511397075650098
 20
11.492846039985567
 10
12.609974508584374
 20
11.49861508089102
 10
22.475285075529747
 20
13.453415932774316
 10
22.71453382185194
 20
12.918457401126869
 10
22.971686252126634
 20
12.395871421199022
 10
23.246296490797462
 20
11.885960331267945
 10
23.537918662308034
 20
11.389026469610853
 10
23.84610689110199
 20
10.905372174504933
 10
24.170415301622953
 20
10.43529978422739
 10
24.51039801831454
 20
9.979111637055423
 10
24.865609165620405
 20
9.537110071266225
 10
25.23560286798416
 20
9.109597425136988
 10
25.619933249849417
 20
8.696876036944927
 10
26.01815443565981
 20
8.299248244967224
 10
26.429820549858988
 20
7.917016387481076
 10
26.854485716890558
 20
7.550482802763684
 10
27.29170406119815
 20
7.199949829092255
 10
27.741029707225394
 20
6.86571980474397
 10
28.20201677941591
 20
6.54809506799603
 10
28.674219402213332
 20
6.247377957125638
 10
29.157191700061286
 20
5.963870810409995
 10
29.650487797403404
 20
5.697875966126296
 10
30.153661818683297
 20
5.44969576255173
 10
30.66626788834461
 20
5.219632537963502
 10
31.18786013083096
 20
5.007988630638815
 10
31.717992670585982
 20
4.8150663788548576
 10
32.25621963205329
 20
4.641168120888824
 10
32.80209513967651
 20
4.486596195017919
 10
33.355173317899286
 20
4.35165293951934
 10
33.915008291165236
 20
4.236640692670289
 10
34.48115418391799
 20
4.141861792747947
 10
35.053165120601165
 20
4.067618578029524
 10
35.630595225658396
 20
4.014213386792215
 10
36.21299862353331
 20
3.9819485573132223
 10
36.79992943866954
 20
3.971126427869731
 10
37.1861725506551
 20
3.975867462264069
 10
37.57083130329017
 20
3.9900539857692348
 10
37.95377487696839
 20
4.013631128868475
 10
38.334872452083374
 20
4.046544022045036
 10
38.713993209028786
 20
4.088737795782163
 10
39.09100632819825
 20
4.140157580563097
 10
39.46578098998538
 20
4.200748506871072
 10
39.838186374783824
 20
4.270455705189345
 10
40.20809166298723
 20
4.3492243060011475
 10
40.57536603498923
 20
4.4369994397897345
 10
40.93987867118344
 20
4.533726237038342
 10
41.30149875196351
 20
4.639349828230215
 10
41.660095457723074
 20
4.753815343848595
 10
42.01553796885577
 20
4.877067914376722
 10
42.3676954657552
 20
5.009052670297852
 10
42.71643712881504
 20
5.149714742095211
 10
43.06163213842889
 20
5.298999260252056
 10
43.40314967499041
 20
5.456851355251629
 10
43.74085891889324
 20
5.623216157577169
 10
44.07462905053099
 20
5.798038797711916
 10
44.40432925029731
 20
5.98126440613912
 10
44.72982869858582
 20
6.1728381133420225
 10
45.05099657579017
 20
6.372705049803864
 10
45.367702062304
 20
6.5808103460078895
 10
45.67981433852091
 20
6.797099132437346
 10
45.98720258483457
 20
7.021516539575468
 10
46.28973598163859
 20
7.254007697905513
 10
46.58728370932664
 20
7.494517737910709
 10
46.87971494829231
 20
7.742991790074304
 10
47.16689887892925
 20
7.999374984879547
 10
47.44870468163111
 20
8.26361245280967
 10
47.72500153679151
 20
8.53564932434793
 10
47.99224645296304
 20
8.812009621033809
 10
48.252156443202374
 20
9.094006457002648
 10
48.50467590873502
 20
9.381508646933998
 10
48.749749250786394
 20
9.674385005507382
 10
48.98732087058201
 20
9.972504347402351
 10
49.21733516934727
 20
10.27573548729844
 10
49.43973654830768
 20
10.58394723987519
 10
49.65446940868868
 20
10.897008419812135
 10
49.861478151715744
 20
11.214787841788812
 10
50.06070717861434
 20
11.537154320484767
 10
50.25210089060989
 20
11.863976670579532
 10
50.435603688927884
 20
12.195123706752641
 10
50.61115997479379
 20
12.530464243683634
 10
50.77871414943306
 20
12.869867096052063
 10
50.93821061407112
 20
13.213201078537459
 10
51.0895937699335
 20
13.560335005819356
 10
51.23280801824562
 20
13.911137692577293
 10
51.367797760232946
 20
14.265477953490795
 10
51.49450739712094
 20
14.62322460323942
 10
51.61288133013506
 20
14.98424645650272
 10
51.72286396050079
 20
15.348412327960212
 10
51.824399689443545
 20
15.715591032291423
 10
51.91743291818881
 20
16.085651384175915
 10
52.001908047962075
 20
16.458462198293212
 10
52.07776947998876
 20
16.833892289322854
 10
52.14496161549433
 20
17.211810471944393
 10
52.20342885570429
 20
17.592085560837344
 10
52.253115601844044
 20
17.974586370681262
 10
52.29396625513908
 20
18.359181716155692
 10
52.325925216814866
 20
18.74574041194015
 10
52.34893688809684
 20
19.13413127271417
 10
52.36294567021049
 20
19.524223113157333
 10
52.405801342174854
 20
20.629570107101213
 10
52.475075870538404
 20
22.038182928409004
 10
52.56934606161049
 20
23.787084615538095
 10
51.77749855460412
 20
23.83074552038556
 10
51.680999725291585
 20
22.036939810127475
 10
51.613120873953214
 20
20.643368471317945
 10
51.571102396537306
 20
19.542087779079644
 10
51.557119735273275
 20
19.15494242413187
 10
51.5340348437188
 20
18.77053827580009
 10
51.50195514796727
 20
18.388982714599056
 10
51.46098807411207
 20
18.010383121043574
 10
51.4112410482466
 20
17.63484687564841
 10
51.35282149646426
 20
17.26248135892836
 10
51.28583684485843
 20
16.893393951398192
 10
51.210394519522524
 20
16.527692033572706
 10
51.126601946549926
 20
16.16548298596665
 10
51.03456655203404
 20
15.806874189094852
 10
50.93439576206824
 20
15.451973023472076
 10
50.82619700274594
 20
15.100886869613097
 10
50.7100777001605
 20
14.753723108032704
 10
50.58614528040535
 20
14.410589119245664
 10
50.454507169573866
 20
14.071592283766773
 10
50.31527079375945
 20
13.73683998211082
 10
50.16854357905549
 20
13.406439594792573
 10
50.0144329515554
 20
13.080498502326826
 10
49.85304633735253
 20
12.759124085228358
 10
49.68449116254032
 20
12.442423724011949
 10
49.50887485321213
 20
12.13050479919238
 10
49.32630483546137
 20
11.823474691284442
 10
49.13688853538144
 20
11.521440780802907
 10
48.940733379065705
 20
11.224510448262567
 10
48.73794679260759
 20
10.932791074178201
 10
48.528636202100486
 20
10.646390039064583
 10
48.31290903363777
 20
10.365414723436508
 10
48.090872713312834
 20
10.08997250780875
 10
47.86263466721909
 20
9.820170772696095
 10
47.62830232144993
 20
9.556116898613316
 10
47.38798310209873
 20
9.297918266075214
 10
47.141784435258906
 20
9.045682255596558
 10
46.889813747023844
 20
8.79951624769213
 10
46.632178463486916
 20
8.559527622876729
 10
46.36898601074154
 20
8.325823761665118
 10
46.10034381488111
 20
8.098512044572075
 10
45.826359301999005
 20
7.877699852112408
 10
45.54713989818863
 20
7.663494564800876
 10
45.26279302954339
 20
7.45600356315227
 10
44.97342612215665
 20
7.2553342276813755
 10
44.67914660212181
 20
7.061593938902973
 10
44.380061895532286
 20
6.874890077331838
 10
44.07627942848146
 20
6.695330023482763
 10
43.76790662706272
 20
6.5230211578705255
 10
43.455050917369476
 20
6.3580708610099075
 10
43.1378197254951
 20
6.200586513415695
 10
42.816320477533004
 20
6.050675495602668
 10
42.490660599576564
 20
5.908445188085608
 10
42.16094751771919
 20
5.774002971379295
 10
41.82728865805426
 20
5.647456225998514
 10
41.48979144667518
 20
5.528912332458051
 10
41.14856330967534
 20
5.418478671272687
 10
40.80371167314814
 20
5.316262622957202
 10
40.45534396318696
 20
5.222371568026377
 10
40.103567605885225
 20
5.136912886994998
 10
39.74849002733628
 20
5.05999396037785
 10
39.39021865363356
 20
4.991722168689709
 10
39.028860910870435
 20
4.932204892445354
 10
38.66452422514029
 20
4.8815495121595776
 10
38.29731602253657
 20
4.839863408347155
 10
37.927343729152604
 20
4.80725396152287
 10
37.55471477108184
 20
4.783828552201512
 10
37.17953657441763
 20
4.769694560897857
 10
36.80191656525341
 20
4.764959368126685
 10
36.23505010754676
 20
4.7755896791315084
 10
35.67265221255675
 20
4.807279296070387
 10
35.11516802859735
 20
4.85972624482992
 10
34.56304270398253
 20
4.932628551296717
 10
34.01672138702627
 20
5.025684241357388
 10
33.47664922604254
 20
5.138591340898534
 10
32.943271369345325
 20
5.271047875806754
 10
32.417032965248566
 20
5.422751871968666
 10
31.898379162066252
 20
5.593401355270869
 10
31.387755108112366
 20
5.782694351599969
 10
30.885605951700857
 20
5.990328886842568
 10
30.392376841145705
 20
6.216002986885285
 10
29.908512924760874
 20
6.459414677614711
 10
29.434459350860376
 20
6.72026198491746
 10
28.97066126775813
 20
6.998242934680137
 10
28.517563823768118
 20
7.293055552789342
 10
28.07561216720435
 20
7.604397865131684
 10
27.64525144638075
 20
7.931967897593775
 10
27.226926809611314
 20
8.275463676062213
 10
26.82108340521001
 20
8.634583226423603
 10
26.428166381490815
 20
9.009024574564561
 10
26.0486208867677
 20
9.398485746371676
 10
25.68289206935463
 20
9.802664767731569
 10
25.331425077565576
 20
10.221259664530832
 10
24.99466505971451
 20
10.653968462656083
 10
24.673057164115413
 20
11.100489187993922
 10
24.367046539082246
 20
11.560519866430957
 10
24.077078332928984
 20
12.033758523853793
 10
23.803597693969603
 20
12.519903186149035
 10
23.547049770518075
 20
13.01865187920329
 10
23.307879710888358
 20
13.52970262890315
 10
23.086532663394433
 20
14.052753461135252
 10
23.05456592302065
 20
14.115334631717808
 10
23.013133902806885
 20
14.170124461765626
 10
22.963562194963522
 20
14.216402017949365
 10
22.907176391700947
 20
14.253446366939713
 10
22.84530208522957
 20
14.280536575407313
 10
22.779264867759764
 20
14.296951710022823
 10
22.71039033150192
 20
14.30197083745692
 10
22.64000406866646
 20
14.294873024380266
 10
13.054518432061704
 20
12.395635516848495
 10
14.243277498530077
 20
17.684521509811564
 10
14.880906730803337
 20
17.510128055606607
 10
15.52537341458858
 20
17.356200342970787
 10
16.17625893607512
 20
17.222924357443233
 10
16.83314468145227
 20
17.11048608456305
 10
17.49561203690936
 20
17.01907150986938
 10
18.16324238863571
 20
16.948866618901363
 10
18.83561712282062
 20
16.900057397198104
 10
19.512317625653395
 20
16.872829830298723
 10
20.612142884723173
 20
16.830289475508742
 10
22.016352285485286
 20
16.761699437429165
 10
23.761289561946228
 20
16.668428418815452
 10
23.85059426489186
 20
18.254094472746036
 10
22.052322917319835
 20
18.350598593725024
 10
20.65484295523567
 20
18.418476439646778
 10
19.550026464082187
 20
18.460489784146226
 10
19.079534371431247
 20
18.477320506009868
 10
18.61236785566
 20
18.505213016845136
 10
18.148657599429676
 20
18.544036815611463
 10
17.688534285401513
 20
18.59366140126831
 10
17.232128596236773
 20
18.653956272775115
 10
16.77957121459667
 20
18.72479092909133
 10
16.33099282314248
 20
18.806034869176383
 10
15.886524104535413
 20
18.897557591989752
 10
15.446295741436725
 20
18.999228596490877
 10
15.010438416507652
 20
19.110917381639187
 10
14.579082812409444
 20
19.232493446394148
 10
14.152359611803336
 20
19.363826289715202
 10
13.73039949735058
 20
19.504785410561794
 10
13.313333151712406
 20
19.655240307893386
 10
12.901291257550058
 20
19.815060480669413
 10
12.494404497524783
 20
19.98411542784931
 10
12.092803554297817
 20
20.162274648392547
 10
11.696619110530413
 20
20.34940764125856
 10
11.305981848883802
 20
20.54538390540679
 10
10.921022452019228
 20
20.750072939796713
 10
10.54187160259793
 20
20.963344243387745
 10
10.168659983281152
 20
21.185067315139353
 10
9.801518276730146
 20
21.41511165401098
 10
9.440577165606141
 20
21.65334675896206
 10
9.085967332570382
 20
21.899642128952056
 10
8.737819460284117
 20
22.153867262940413
 10
8.396264231408582
 20
22.415891659886572
 10
8.061432328605017
 20
22.685584818749998
 10
7.73345443453467
 20
22.962816238490117
 10
7.412461231858778
 20
23.247455418066384
 10
7.0985834032385835
 20
23.53937185643825
 10
6.791951631335333
 20
23.838435052565156
 10
6.492696598810265
 20
24.14451450540655
 10
6.200948988324615
 20
24.457479713921895
 10
5.916839482539637
 20
24.77720017707062
 10
5.640498764116572
 20
25.103545393812183
 10
5.372057515716658
 20
25.436384863106028
 10
5.11164642000113
 20
25.775588083911604
 10
4.859396159631238
 20
26.12102455518836
 10
4.615437417268223
 20
26.472563775895736
 10
4.379900875573327
 20
26.830075244993193
 10
4.152917217207787
 20
27.193428461440163
 10
3.9346171248328465
 20
27.562492924196096
 10
3.7251312811097566
 20
27.93713813222044
 10
3.5245903686997493
 20
28.317233584472646
 10
3.3331250702640722
 20
28.702648779912167
 10
3.150866068463958
 20
29.093253217498436
 10
2.977944045960658
 20
29.48891639619093
 10
2.814489685415415
 20
29.889507814949074
 10
2.6606336694894606
 20
30.294896972732303
 10
2.516506680844048
 20
30.70495336850009
 10
2.382239402140413
 20
31.11954650121187
 10
2.257962516039794
 20
31.538545869827104
 10
2.1438067052034477
 20
31.961820973305212
 10
2.0399026522926014
 20
32.38924131060567
 10
1.9463810399684973
 20
32.82067638068791
 10
1.8633725508923824
 20
33.25599568251138
 10
1.7910078677254992
 20
33.69506871503554
 10
1.7294176731290896
 20
34.13776497721982
 10
1.6787326497643908
 20
34.58395396802368
 10
1.6390834802926502
 20
35.03350518640655
 10
1.61060084737511
 20
35.486288131327896
 10
1.5934154336730022
 20
35.942172301747156
 10
1.5876579218475841
 20
36.4010271966238
 10
1.5976060410895379
 20
36.993851592991305
 10
1.6272878440104641
 20
37.583902983541726
 10
1.6764594984030086
 20
38.170757296813264
 10
1.7448771720598024
 20
38.75399046134408
 10
1.832297032773471
 20
39.333178405672356
 10
1.938475248336635
 20
39.90789705833625
 10
2.0631679865419454
 20
40.477722347873964
 10
2.2061314151820177
 20
41.04223020282367
 10
2.367121702049493
 20
41.60099655172354
 10
2.545895014936986
 20
42.153597323111754
 10
2.7422075216371384
 20
42.699608445526486
 10
2.9558153899425856
 20
43.23860584750593
 10
3.186474787645943
 20
43.770165457588234
 10
3.4339418825398473
 20
44.293863204311606
 10
3.697972842416938
 20
44.809275016214215
 10
3.9783238350698316
 20
45.31597682183422
 10
4.274751028291163
 20
45.8135445497098
 10
4.58701058987357
 20
46.30155412837917
 10
4.914858687609675
 20
46.77958148638048
 10
5.258051489292112
 20
47.24720255225189
 10
5.616345162713514
 20
47.7039932545316
 10
5.9894958756665035
 20
48.149529521757785
 10
6.3772597959437105
 20
48.58338728246864
 10
6.779393091337775
 20
49.005142465202304
 10
7.19565192964132
 20
49.414370998496985
 10
7.6257924786469795
 20
49.81064881089083
 10
8.069570906147378
 20
50.19355183092207
 10
8.526743379935155
 20
50.56265598712883
 10
8.997066067802937
 20
50.9175372080493
 10
9.480295137543347
 20
51.257771422221666
 10
9.976186756949026
 20
51.58293455818411
 10
10.484497093812605
 20
51.8926025444748
 10
10.596137188758592
 20
51.97206746477053
 10
10.690706790751785
 20
52.06727684230087
 10
10.76713612029769
 20
52.175556245692874
 10
10.824355397901838
 20
52.294231243573606
 10
10.86129484406972
 20
52.42062740457012
 10
10.876884679306864
 20
52.55207029730948
 10
10.870055124118775
 20
52.68588549041875
 10
10.839736399010963
 20
52.819398552524966
 10
6.9956178398492455
 20
64.83400157324982
 10
6.974764658337922
 20
64.92630346168386
 10
6.970935290336019
 20
65.01090738136833
 10
6.980687754205704
 20
65.08737146062633
 10
7.000580068309149
 20
65.15525382778097
 10
7.0271702510085134
 20
65.21411261115533
 10
7.05701632066597
 20
65.26350593907254
 10
7.112708194303809
 20
65.33212874182786
 10
7.179594610798124
 20
65.38999139859399
 10
7.228073202071147
 20
65.42136462483234
 10
7.286110272328722
 20
65.44971447034511
 10
7.3533569892963095
 20
65.47155245066047
 10
7.42946452069938
 20
65.48339008130652
 10
7.514084034263407
 20
65.48173887781152
 10
7.606866697713871
 20
65.46311035570362
 10
18.91694588379389
 20
62.162766149884625
 10
18.637896772608432
 20
61.56562694248419
 10
18.378383038734004
 20
60.95937131827608
 10
18.138590657787862
 20
60.34455718029958
 10
17.91870560538723
 20
59.72174243159395
 10
11.972925601794746
 20
61.05537377869264
 10
11.874286855644277
 20
61.064925645409225
 10
11.777694277846045
 20
61.04991759433665
 10
11.687427395159252
 20
61.011838517850364
 10
11.607765734343072
 20
60.95217730832583
 10
11.54543740189842
 20
60.874810012216145
 10
11.505063653788989
 20
60.78572118809482
 10
11.487760692968278
 20
60.689562306018125
 10
11.494644722389777
 20
60.590984836042196
 10
13.449448791606276
 20
50.72567409976348
 10
12.914670438061988
 20
50.486605594137515
 10
12.392253393776695
 20
50.229621775656945
 10
11.882500359191514
 20
49.95516851941306
 10
11.385714034747574
 20
49.66369170049713
 10
10.90219712088599
 20
49.35563719400046
 10
10.432252318047897
 20
49.03145087501432
 10
9.976182326674408
 20
48.69157861863002
 10
9.53428984720665
 20
48.33646629993881
 10
9.106877580085753
 20
47.96655979403201
 10
8.694248225752826
 20
47.58230497600088
 10
8.296704484648993
 20
47.1841477209367
 10
7.914549057215389
 20
46.77253390393079
 10
7.548084643893125
 20
46.3479094000744
 10
7.1976139451233285
 20
45.910720084458845
 10
6.8634396613471225
 20
45.46141183217538
 10
6.545864493005631
 20
45.00043051831531
 10
6.245191140539975
 20
44.52822201796992
 10
5.961722304391274
 20
44.04523220623048
 10
5.69576068500066
 20
43.55190695818829
 10
5.447608982809245
 20
43.04869214893463
 10
5.217569898258164
 20
42.53603365356077
 10
5.005946131788527
 20
42.01437734715803
 10
4.813040383841469
 20
41.484169104817674
 10
4.639155354858102
 20
40.94585480163098
 10
4.484593745279558
 20
40.39988031268925
 10
4.349658255546947
 20
39.846691513083755
 10
4.234651586101404
 20
39.28673427790579
 10
4.139876437384044
 20
38.72045448224662
 10
4.065635509835999
 20
38.14829800119756
 10
4.012231503898382
 20
37.57071070984987
 10
3.9799671200123248
 20
36.98813848329485
 10
3.9691450586189463
 20
36.4010271966238
 10
3.9738860983824646
 20
36.01478416881915
 10
3.988072636651587
 20
35.63012550935669
 10
4.011649801894177
 20
35.2471820369126
 10
4.044562722578104
 20
34.866084570163075
 10
4.086756527171224
 20
34.486963927784316
 10
4.138176344141406
 20
34.109950928452506
 10
4.1987673019565035
 20
33.735176390843826
 10
4.268474529084386
 20
33.362771133634475
 10
4.347243153992916
 20
32.992865975500635
 10
4.435018305149944
 20
32.625591735118505
 10
4.531745111023342
 20
32.26107923116428
 10
4.637368700080979
 20
31.89945928231413
 10
4.751834200790711
 20
31.540862707244266
 10
4.875086741620399
 20
31.185420324630858
 10
5.007071451037906
 20
30.83326295315012
 10
5.147733457511095
 20
30.48452141147821
 10
5.297017889507826
 20
30.13932651829134
 10
5.454869875495969
 20
29.79780909226571
 10
5.621234543943377
 20
29.46009995207748
 10
5.796057023317926
 20
29.126329916402863
 10
5.979282442087464
 20
28.79662980391804
 10
6.170855928719857
 20
28.47113043329919
 10
6.37072261168297
 20
28.14996262322252
 10
6.578827619444671
 20
27.83325719236423
 10
6.795116080472816
 20
27.521144959400488
 10
7.019533123235263
 20
27.21375674300748
 10
7.252023876199878
 20
26.91122336186141
 10
7.492533467834529
 20
26.61367563463847
 10
7.741007026607073
 20
26.321244380014843
 10
7.9973896809853775
 20
26.034060416666712
 10
8.261626559437298
 20
25.752254563270274
 10
8.533662790430702
 20
25.47595763850172
 10
8.81002350002934
 20
25.208712260808
 10
9.092020334161084
 20
24.948801837881906
 10
9.379521746829825
 20
24.6962819675678
 10
9.672396192039463
 20
24.45120824771002
 10
9.970512123793894
 20
24.21363627615296
 10
10.273737996097001
 20
23.98362165074098
 10
10.581942262952683
 20
23.761219969318418
 10
10.894993378364836
 20
23.546486829729666
 10
11.212759796337357
 20
23.33947782981907
 10
11.535109970874139
 20
23.140248567430998
 10
11.86191235597907
 20
22.948854640409817
 10
12.193035405656051
 20
22.765351646599886
 10
12.528347573908974
 20
22.589795183845563
 10
12.867717314741732
 20
22.42224084999122
 10
13.21101308215822
 20
22.26274424288122
 10
13.558103330162334
 20
22.111360960359917
 10
13.908856512757964
 20
21.968146600271687
 10
14.26314108394901
 20
21.83315676046087
 10
14.62082549773936
 20
21.706447038771856
 10
14.981778208132912
 20
21.588073033049
 10
15.345867669133552
 20
21.47809034113666
 10
15.712962334745189
 20
21.376554560879192
 10
16.082930658971712
 20
21.28352129012098
 10
16.455641095817004
 20
21.19904612670637
 10
16.830962099284974
 20
21.12318466847973
 10
17.2087621233795
 20
21.055992513285428
 10
17.588909622104488
 20
20.997525258967816
 10
17.971273049463843
 20
20.94783850337127
 10
18.355720859461435
 20
20.906987844340136
 10
18.74212150610118
 20
20.875028879718812
 10
19.130343443386963
 20
20.85201720735162
 10
19.520255125322663
 20
20.838008425082943
 10
20.625600822808252
 20
20.79515295155609
 10
22.034213458907733
 20
20.725879177255
 10
23.78311747437006
 20
20.631613113682743
 10
23.826779225884152
 20
21.42345638735594
 10
22.0332213772824
 20
21.519957333335068
 10
20.640237281156743
 20
21.587837639881727
 10
19.540101837829052
 20
21.62985677875593
 10
19.153046684463142
 20
21.643931021532048
 10
18.76872705769386
 20
21.66710463291295
 10
18.387250474343563
 20
21.699270232228834
 10
18.008724451234595
 20
21.740320438809857
 10
17.63325650518931
 20
21.79014787198622
 10
17.26095415303006
 20
21.848645151088114
 10
16.89192491157918
 20
21.915704895445725
 10
16.526276297659027
 20
21.99121972438924
 10
16.164115828091944
 20
22.07508225724885
 10
15.805551019700289
 20
22.167185113354748
 10
15.450689389306408
 20
22.267420912037117
 10
15.099638453732641
 20
22.375682272626147
 10
14.752505729801342
 20
22.49186181445202
 10
14.409398734334857
 20
22.615852156844944
 10
14.070424984155531
 20
22.747545919135085
 10
13.735691996085722
 20
22.886835720652634
 10
13.405307286947773
 20
23.03361418072779
 10
13.079378373564023
 20
23.18777391869073
 10
12.758012772756834
 20
23.349207553871658
 10
12.441318001348543
 20
23.51780770560075
 10
12.129401576161507
 20
23.693466993208183
 10
11.822371014018065
 20
23.87607803602417
 10
11.52033383174058
 20
24.065533453378883
 10
11.223397546151388
 20
24.261725864602525
 10
10.931669674072834
 20
24.46454788902527
 10
10.645257732327275
 20
24.67389214597731
 10
10.36426923773706
 20
24.889651254788824
 10
10.08881170712453
 20
25.111717834790024
 10
9.818992657312032
 20
25.33998450531109
 10
9.55491960512193
 20
25.5743438856822
 10
9.296700067376555
 20
25.814688595233537
 10
9.044441560898253
 20
26.06091125329531
 10
8.79825160250939
 20
26.3129044791977
 10
8.558237709032301
 20
26.57056089227088
 10
8.324507397289336
 20
26.833773111845055
 10
8.097168184102843
 20
27.10243375725043
 10
7.876327586295174
 20
27.37643544781716
 10
7.662093120688673
 20
27.65567080287544
 10
7.454572304105689
 20
27.94003244175547
 10
7.253872653368573
 20
28.229412983787427
 10
7.060101685299675
 20
28.523705048301508
 10
6.873366916721335
 20
28.822801254627898
 10
6.693775864455906
 20
29.126594222096788
 10
6.5214360453257365
 20
29.434976570038355
 10
6.356454976153173
 20
29.7478409177828
 10
6.198940173760562
 20
30.0650798846603
 10
6.048999154970254
 20
30.386586090001064
 10
5.906739436604597
 20
30.712252153135264
 10
5.772268535485947
 20
31.041970693393093
 10
5.6456939684366345
 20
31.375634330104738
 10
5.527123252279018
 20
31.71313568260037
 10
5.416663903835448
 20
32.054367370210215
 10
5.314423439928266
 20
32.39922201226444
 10
5.220509377379824
 20
32.747592228093225
 10
5.135029233012479
 20
33.09937063702677
 10
5.058090523648565
 20
33.45444985839526
 10
4.989800766110438
 20
33.8127225115289
 10
4.930267477220431
 20
34.17408121575783
 10
4.879598173800911
 20
34.53841859041227
 10
4.837900372674226
 20
34.905627254822434
 10
4.805281590662712
 20
35.27559982831847
 10
4.781849344588725
 20
35.648228930230594
 10
4.767711151274612
 20
36.02340717988897
 10
4.76297452754272
 20
36.4010271966238
 10
4.773604842325096
 20
36.967893593714
 10
4.805294470823987
 20
37.530291064388834
 10
4.857741439267077
 20
38.08777409663564
 10
4.930643773882022
 20
38.63989717844171
 10
5.023699500896502
 20
39.18621479779436
 10
5.136606646538189
 20
39.7262814426809
 10
5.26906323703475
 20
40.259651601088656
 10
5.420767298613855
 20
40.785879761004935
 10
5.591416857503176
 20
41.30452041041704
 10
5.780709939930375
 20
41.81512803731229
 10
5.988344572123125
 20
42.317257129678005
 10
6.2140187803091065
 20
42.81046217550149
 10
6.457430590715974
 20
43.29429766277007
 10
6.718278029571408
 20
43.768318079471044
 10
6.99625912310308
 20
44.23207791359173
 10
7.291071897538658
 20
44.68513165311943
 10
7.602414379105806
 20
45.12703378604147
 10
7.929984594032206
 20
45.55733880034517
 10
8.273480568545516
 20
45.975601184017826
 10
8.632600328873409
 20
46.38137542504677
 10
9.007041901243559
 20
46.774216011419306
 10
9.396503311883636
 20
47.15367743112273
 10
9.800682587021306
 20
47.51931417214438
 10
10.21927775288424
 20
47.870680722471555
 10
10.651986835700113
 20
48.20733157009157
 10
11.098507861696591
 20
48.528821202991736
 10
11.558538857101347
 20
48.83470410915938
 10
12.031777848142045
 20
49.1245347765818
 10
12.517922861046364
 20
49.39786769324632
 10
13.016671922041963
 20
49.65425734714023
 10
13.527723057356523
 20
49.89325822625087
 10
14.050774293217712
 20
50.114424818565546
 10
14.113353828344604
 20
50.146387548848345
 10
14.168142528952366
 20
50.18779260967523
 10
14.21441941210229
 20
50.237291062664866
 10
14.25146349485566
 20
50.293533969435984
 10
14.27855379427377
 20
50.355172391607304
 10
14.294969327417919
 20
50.42085739079751
 10
14.29998911134939
 20
50.48924002862532
 10
14.292892163129467
 20
50.55897136670943
 10
12.393657026264265
 20
60.14445530998091
 10
17.68254234189403
 20
58.955696243512556
 10
17.508147986452133
 20
58.31798613307861
 10
17.354219521407487
 20
57.673322078403146
 10
17.220943001752342
 20
57.022192493684585
 10
17.108504482478946
 20
56.365085793121324
 10
17.01709001857955
 20
55.70249039091175
 10
16.946885665046402
 20
55.03489470125428
 10
16.898077476871734
 20
54.362787138347315
 10
16.87085150904782
 20
53.68665611638923
 10
16.82830718550801
 20
52.586831121902776
 10
16.7597154011785
 20
51.18262230322397
 10
16.66643993756497
 20
49.43768587342967
 10
18.25211445816187
 20
49.34838117048404
 10
18.348614451641033
 20
51.14665167138943
 10
18.416492972250268
 20
52.54413200389023
 10
18.45850976956206
 20
53.64894981796033
 10
18.47534185109395
 20
54.11962499549422
 10
18.503238539157902
 20
54.5869688752188
 10
18.542069241924363
 20
55.050850865281234
 10
18.591703367563756
 20
55.51114037382868
 10
18.652010324246476
 20
55.96770680900831
 10
18.722859520142944
 20
56.42041957896727
 10
18.80412036342359
 20
56.86914809185276
 10
18.89566226225882
 20
57.313761755811896
 10
18.997354624819074
 20
57.75412997899187
 10
19.109066859274773
 20
58.190122169539876
 10
19.230668373796316
 20
58.62160773560303
 10
19.362028576554117
 20
59.04845608532853
 10
19.503016875718625
 20
59.47053662686352
 10
19.653502679460228
 20
59.887718768355185
 10
19.813355395949355
 20
60.29987191795067
 10
19.982444433356445
 20
60.70686548379715
 10
20.160639199851904
 20
61.10856887404178
 10
20.347809103606146
 20
61.50485149683176
 10
20.54382355278959
 20
61.895582760314205
 10
20.74855195557266
 20
62.28063207263631
 10
20.96186372012578
 20
62.65986884194522
 10
21.183628254619364
 20
63.03316247638812
 10
21.41371496722384
 20
63.40038238411219
 10
21.651993266109617
 20
63.76139797326455
 10
21.89833255944711
 20
64.1160786519924
 10
22.15260225540674
 20
64.46429382844288
 10
22.414671762158942
 20
64.80591291076317
 10
22.684410487874125
 20
65.14080530710044
 10
22.961687840722707
 20
65.46884042560183
 10
23.24637322887511
 20
65.78988767441454
 10
23.538336060501752
 20
66.10381646168574
 10
23.837445743773053
 20
66.41049619556253
 10
24.14357168685943
 20
66.70979628419214
 10
24.45658329793131
 20
67.00158613572171
 10
24.776349985159097
 20
67.2857351582984
 10
25.102741156713222
 20
67.5621127600694
 10
25.435626220764103
 20
67.83058834918182
 10
25.77487458548216
 20
68.09103133378291
 10
26.120355659037806
 20
68.34331112201976
 10
26.471938849601468
 20
68.58729712203957
 10
26.829493565343565
 20
68.82285874198952
 10
27.192889214434505
 20
69.04986539001669
 10
27.561995205044724
 20
69.26818647426836
 10
27.936680945344627
 20
69.47769140289162
 10
28.316815843504642
 20
69.67824958403367
 10
28.702269307695193
 20
69.86973042584165
 10
29.092910746086698
 20
70.05200333646275
 10
29.488609566849554
 20
70.22493772404414
 10
29.889235178154205
 20
70.38840299673294
 10
30.29465698817107
 20
70.54226856267634
 10
30.704744405070546
 20
70.68640383002153
 10
31.119366837023072
 20
70.82067820691563
 10
31.538393692199072
 20
70.94496110150581
 10
31.961694378768943
 20
71.0591219219393
 10
32.38913830490313
 20
71.16303007636316
 10
32.82059487877203
 20
71.25655497292465
 10
33.25593350854608
 20
71.33956601977088
 10
33.695023602395686
 20
71.41193262504905
 10
34.13773456849127
 20
71.4735241969063
 10
34.58393581500326
 20
71.5242101434898
 10
35.03349675010208
 20
71.56385987294671
 10
35.48628678195813
 20
71.59234279342421
 10
35.942175318741825
 20
71.60952831306946
 10
36.401031768623604
 20
71.61528584002963
 10
36.99386157404056
 20
71.60533772078767
 10
37.58392894028186
 20
71.57565591786675
 10
38.17080870432442
 20
71.5264842634742
 10
38.754075703145205
 20
71.4580665898174
 10
39.33330477372115
 20
71.37064672910373
 10
39.90807075302921
 20
71.26446851354056
 10
40.4779484780463
 20
71.13977577533527
 10
41.042512785749395
 20
70.99681234669518
 10
41.601338513115415
 20
70.83582205982772
 10
42.15400049712132
 20
70.65704874694022
 10
42.700073574744046
 20
70.4607362402401
 10
43.239132582960536
 20
70.24712837193464
 10
43.77075235874774
 20
70.0164689742313
 10
44.29450773908261
 20
69.76900187933737
 10
44.80997356094207
 20
69.50497091946028
 10
45.31672466130306
 20
69.22461992680738
 10
45.81433587714253
 20
68.92819273358602
 10
46.302382045437454
 20
68.61593317200361
 10
46.78043800316473
 20
68.28808507426753
 10
47.24807858730132
 20
67.9448922725851
 10
47.70487863482418
 20
67.5865985991637
 10
48.15041298271025
 20
67.2134478862107
 10
48.584256467936456
 20
66.8256839659335
 10
49.00598392747975
 20
66.42355067053943
 10
49.415170198317064
 20
66.0072918322359
 10
49.811390117425375
 20
65.57715128323022
 10
50.194218521781615
 20
65.13337285572982
 10
50.563230248362714
 20
64.67620038194205
 10
50.91800013414561
 20
64.20587769407427
 10
51.25810301610726
 20
63.72264862433387
 10
51.58311373122461
 20
63.22675700492819
 10
51.8926071164746
 20
62.718446668064615
 10
51.971500566559776
 20
62.606806573118604
 10
52.06644122996069
 20
62.51223697112541
 10
52.17468484515105
 20
62.435807641579494
 10
52.29348715060461
 20
62.37858836397536
 10
52.42010388479505
 20
62.341648917807476
 10
52.551790786196115
 20
62.32605908257033
 10
52.685803593281534
 20
62.332888637758415
 10
52.819398044524995
 20
62.363207362866234
 10
64.83400309724975
 20
66.20534091211067
 10
64.92630505629448
 20
66.22676403272196
 10
65.01090893050367
 20
66.2308609697036
 10
65.08737293848955
 20
66.22114346837022
 10
65.15525529886425
 20
66.20112327403642
 10
65.21411423023993
 20
66.17431213201681
 10
65.26350795122872
 20
66.14422178762605
 10
65.33213263649435
 20
66.08825047298944
 10
65.38999485272926
 20
66.02136436605763
 10
65.42136811617465
 20
65.97288582538614
 10
65.44971801576163
 20
65.91484877596451
 10
65.47155595093245
 20
65.84760207983287
 10
65.48339332112933
 20
65.77149459903137
 10
65.48174152579449
 20
65.68687519560014
 10
65.46311196437023
 20
65.59409273157935
 10
62.162765641884654
 20
54.28401329149935
 10
61.565626906765424
 20
54.56306252174729
 10
60.95937147702607
 20
54.82257645405921
 10
60.34455847014328
 20
55.06236887469287
 10
59.721747003593755
 20
55.282253569906
 10
61.05736022794323
 20
61.230018160082466
 10
61.06691189754523
 20
61.32862590103632
 10
61.05190367317056
 20
61.42500144245816
 10
61.013824312257206
 20
61.51467922640909
 10
60.95416257224313
 20
61.59319369495015
 10
60.87679494275846
 20
61.654684851367186
 10
60.78770727751209
 20
61.69515161903525
 10
60.69155047506028
 20
61.71291967764909
 10
60.59297543395925
 20
61.706314706903434
 10
50.72568121176318
 20
59.75151038368697
 10
50.48661224469252
 20
60.28646903856979
 10
50.229627994067805
 20
60.80905511914523
 10
49.955174334515206
 20
61.31896628836087
 10
49.663697140660965
 20
61.81590020916421
 10
49.35564228713121
 20
62.299554544502804
 10
49.0314556485522
 20
62.76962695732419
 10
48.69158309955011
 20
63.22581511057588
 10
48.33647051475113
 20
63.66781666720544
 10
47.96656376878146
 20
64.0953292901604
 10
47.58230873626731
 20
64.50805064238826
 10
47.18415129183487
 20
64.90567838683654
 10
46.77253731011034
 20
65.28791018645285
 10
46.3479126657199
 20
65.65444370418464
 10
45.910723233289765
 20
66.00497660297954
 10
45.46141488744613
 20
66.33920654578499
 10
45.00043350281518
 20
66.65683119554859
 10
44.52822495402312
 20
66.95754821521783
 10
44.045235115696165
 20
67.24105526774024
 10
43.55190986246049
 20
67.5070500160634
 10
43.04869506894231
 20
67.75523012313482
 10
42.5360366097678
 20
67.98529325190201
 10
42.01438035956316
 20
68.19693706531255
 10
41.48417219295462
 20
68.38985922631396
 10
40.945857984568335
 20
68.56375739785373
 10
40.399883609030525
 20
68.71832924287945
 10
39.84669494096739
 20
68.85327242433861
 10
39.28673785500509
 20
68.9682846051788
 10
38.72045822576989
 20
69.06306344834748
 10
38.14830192788793
 20
69.13730661679226
 10
37.57071483598544
 20
69.19071177346062
 10
36.988142824688595
 20
69.22297658130013
 10
36.401031768623604
 20
69.23379870325826
 10
36.01478873353257
 20
69.22905766349476
 10
35.63013005283109
 20
69.2148711252256
 10
35.24718654612553
 20
69.19129395998303
 10
34.866089033022256
 20
69.15838103929909
 10
34.486968333127635
 20
69.11618723470599
 10
34.10995526604801
 20
69.06476741773581
 10
33.73518065138978
 20
69.00417645992071
 10
33.36277530875929
 20
68.93446923279284
 10
32.992870057762914
 20
68.8557006078843
 10
32.62559571800701
 20
68.76792545672727
 10
32.261083109097946
 20
68.67119865085387
 10
31.899463050642094
 20
68.56557506179625
 10
31.540866362245822
 20
68.45110956108651
 10
31.18542386351549
 20
68.32785702025683
 10
30.833266374057448
 20
68.1958723108393
 10
30.484524713478077
 20
68.05521030436611
 10
30.139329701383744
 20
67.9059258723694
 10
29.79781215738081
 20
67.74807388638126
 10
29.460102901075647
 20
67.58170921793385
 10
29.126332752074614
 20
67.40688673855928
 10
28.796632529984084
 20
67.22366131978976
 10
28.471133054410416
 20
67.03208783315736
 10
28.14996514495997
 20
66.83222115019424
 10
27.833259621239126
 20
66.62411614243254
 10
27.521147302854246
 20
66.4078276814044
 10
27.213759009411678
 20
66.18341063864194
 10
26.9112255605178
 20
65.95091988567732
 10
26.613677775778996
 20
65.71041029404266
 10
26.321246474801615
 20
65.46193673527011
 10
26.03406247719201
 20
65.20555408089182
 10
25.752256602556567
 20
64.9413172024399
 10
25.47595967050164
 20
64.66928097144651
 10
25.20871436737702
 20
64.39292026184788
 10
24.948804010028308
 20
64.11092342771614
 10
24.696284197230064
 20
63.82342201504739
 10
24.451210527756814
 20
63.53054756983774
 10
24.21363860038309
 20
63.23243163808333
 10
23.983624013883457
 20
62.92920576578022
 10
23.76122236703244
 20
62.62100149892453
 10
23.546489258604574
 20
62.30795038351237
 10
23.339480287374393
 20
61.990183965539856
 10
23.140251052116447
 20
61.66783379100306
 10
22.948857151605274
 20
61.341031405898136
 10
22.765354184615404
 20
61.00990835622114
 10
22.58979774992138
 20
60.67459618796823
 10
22.422243446297756
 20
60.33522644713547
 10
22.26274687251905
 20
59.99193067971897
 10
22.11136362735981
 20
59.64484043171486
 10
21.96814930959458
 20
59.29408724911922
 10
21.83315951799788
 20
58.93980267792819
 10
21.706449851344257
 20
58.58211826413784
 10
21.58807590840825
 20
58.221165553744285
 10
21.478093287964413
 20
57.85707609274365
 10
21.376557588787282
 20
57.48998142713201
 10
21.28352440965137
 20
57.120013102905496
 10
21.199049349331236
 20
56.7473026660602
 10
21.123188006601428
 20
56.37198166259223
 10
21.05599598023646
 20
55.99418163849771
 10
20.997528869010885
 20
55.61403413977272
 10
20.947842271699244
 20
55.23167071241336
 10
20.906991787076063
 20
54.84722290241577
 10
20.875033013915907
 20
54.46082225577603
 10
20.852021550993282
 20
54.072600318490245
 10
20.838012997082746
 20
53.682688636554545
 10
20.79515892584751
 20
52.577342939068956
 10
20.725884807588102
 20
51.16873030296947
 10
20.631615992349293
 20
49.41982628750715
 10
21.423460959355754
 20
49.374179949409076
 10
21.519960317834943
 20
51.16873009130282
 10
21.587838997194165
 20
52.56239638906671
 10
21.62985627075595
 20
53.66284192404815
 10
21.64392908270862
 20
54.049897077414066
 10
21.667098492543836
 20
54.43421670418335
 10
21.699257255978786
 20
54.81569328753365
 10
21.740298128730704
 20
55.19421931064261
 10
21.790113866516773
 20
55.5696872566879
 10
21.848597225054213
 20
55.941989608847145
 10
21.91564096006023
 20
56.31101885029803
 10
21.99113782725203
 20
56.67666746421818
 10
22.07498058234681
 20
57.038827933785264
 10
22.1670619810618
 20
57.39739274217692
 10
22.26727477911417
 20
57.7522543725708
 10
22.375511732221156
 20
58.10330530814458
 10
22.49166559609995
 20
58.45043803207588
 10
22.615629126467766
 20
58.79354502754237
 10
22.74729507904181
 20
59.132518777721664
 10
22.886556209539286
 20
59.46725176579149
 10
23.033305273677403
 20
59.79763647492943
 10
23.18743502717336
 20
60.12356538831318
 10
23.348838225744377
 20
60.444930989120365
 10
23.517407625107644
 20
60.76162576052867
 10
23.693035980980376
 20
61.073542185715716
 10
23.87561604907979
 20
61.380572747859155
 10
24.065040585123082
 20
61.68260993013663
 10
24.261202344827467
 20
61.97954621572583
 10
24.46399408391014
 20
62.27127408780441
 10
24.673308558088305
 20
62.557686029549956
 10
24.889038523079172
 20
62.83867452414016
 10
25.11107673459995
 20
63.11413205475268
 10
25.339315948367855
 20
63.383951104565185
 10
25.573648920100073
 20
63.64802415675529
 10
25.81396840551383
 20
63.906243694500674
 10
26.060167160326323
 20
64.15850220097896
 10
26.312137940254754
 20
64.40469215936783
 10
26.569773501016343
 20
64.64470605284492
 10
26.832966598328298
 20
64.87843636458788
 10
27.1016099879078
 20
65.10577557777438
 10
27.375596425472075
 20
65.32661617558203
 10
27.654818666738343
 20
65.54085064118853
 10
27.939169467423792
 20
65.74837145777153
 10
28.228541583245615
 20
65.94907110850866
 10
28.522827769921033
 20
66.14284207657758
 10
28.82192078316727
 20
66.32957684515591
 10
29.12571337870151
 20
66.50916789742132
 10
29.434098312240966
 20
66.68150771655151
 10
29.746968339502853
 20
66.84648878572409
 10
30.064216216204358
 20
67.00400358811669
 10
30.3857346980627
 20
67.15394460690699
 10
30.71141654079509
 20
67.29620432527263
 10
31.041154500118726
 20
67.43067522639127
 10
31.37484133175081
 20
67.55724979344059
 10
31.712369791408566
 20
67.6758205095982
 10
32.05363263480919
 20
67.78627985804177
 10
32.3985226176699
 20
67.88852032194895
 10
32.74693249570788
 20
67.98243438449738
 10
33.098755024640354
 20
68.06791452886473
 10
33.45388296018451
 20
68.14485323822866
 10
33.81220905805756
 20
68.21314299576679
 10
34.173626073976735
 20
68.27267628465678
 10
34.538026763659225
 20
68.32334558807631
 10
34.905303882822224
 20
68.36504338920298
 10
35.27535018718295
 20
68.3976621712145
 10
35.64805843245863
 20
68.4210944172885
 10
36.023321374366446
 20
68.43523261060261
 10
36.401031768623604
 20
68.4399692343345
 10
36.96789807016408
 20
68.42933891955212
 10
37.53029581456898
 20
68.39764929105321
 10
38.087779854144436
 20
68.34520232261012
 10
38.639905041196585
 20
68.27229998799518
 10
39.18622622803159
 20
68.1792442609807
 10
39.726298266955595
 20
68.06633711533901
 10
40.25967601027474
 20
67.93388052484246
 10
40.78591431029516
 20
67.78217646326335
 10
41.30456801932302
 20
67.61152690437403
 10
41.815191989664456
 20
67.42223382194685
 10
42.317341073625606
 20
67.2145991897541
 10
42.81057012351262
 20
66.98892498156812
 10
43.29443399163165
 20
66.74551317116125
 10
43.76848753028885
 20
66.48466573230583
 10
44.23228559179035
 20
66.20668463877415
 10
44.685383028442295
 20
65.91187186433856
 10
45.12733469255084
 20
65.60052938277143
 10
45.55769543642211
 20
65.27295916784502
 10
45.97602011236228
 20
64.92946319333169
 10
46.38186357267748
 20
64.5703434330038
 10
46.774780669673845
 20
64.19590186063367
 10
47.154326255657544
 20
63.80644044999357
 10
47.52005518293469
 20
63.402261174855894
 10
47.87152230381149
 20
62.98366600899298
 10
48.20828247059403
 20
62.55095692617712
 10
48.52989053558845
 20
62.10443590018061
 10
48.83590135110095
 20
61.64440490477587
 10
49.12586976943763
 20
61.17116591373517
 10
49.39935064290466
 20
60.685020900830864
 10
49.65589882380816
 20
60.186271839835236
 10
49.895069164454306
 20
59.6752207045207
 10
50.11641651714922
 20
59.152169468659494
 10
50.14846343453789
 20
59.08950849974695
 10
50.190092045121084
 20
59.03452203137398
 10
50.239907035675664
 20
58.98800084686705
 10
50.29651309297853
 20
58.950735729552584
 10
50.35851490380658
 20
58.92351746275698
 10
50.424517154936694
 20
58.9071368298067
 10
50.49312453314577
 20
58.902384614028136
 10
50.56294172521066
 20
58.91005159874775
 10
60.14842888581535
 20
60.809286735612936
 10
58.95966914201368
 20
55.52040141998317
 10
58.32203935907636
 20
55.69479577542508
 10
57.677572313142726
 20
55.84872424046972
 10
57.026686647789
 20
55.98200076012486
 10
56.369801006591516
 20
56.09443927939826
 10
55.70733403312659
 20
56.185853743297656
 10
55.03970437097056
 20
56.256058096830806
 10
54.36733066369967
 20
56.304866285005474
 10
53.690631554890246
 20
56.33209225282939
 10
52.58996887637621
 20
56.3746365763692
 10
51.185851299256115
 20
56.44322836069871
 10
49.441656231930885
 20
56.536503824312234
 10
49.352354068985164
 20
54.95082930371534
 10
51.150623088223945
 20
54.854329310236174
 10
52.54810252114145
 20
54.78645078962694
 10
53.6529184831283
 20
54.74443399231515
 10
54.12350057040957
 20
54.72751036772812
 10
54.59075140750264
 20
54.69952499587235
 10
55.054540447943396
 20
54.66060842321199
 10
55.51473714526768
 20
54.610891196211135
 10
55.97121095301137
 20
54.550503861333944
 10
56.423831324710335
 20
54.479576965044565
 10
56.87246771390043
 20
54.398241053807126
 10
57.31698957411752
 20
54.30662667408576
 10
57.75726635889748
 20
54.20486437234459
 10
58.19316752177617
 20
54.09308469504776
 10
58.62456251628945
 20
53.9714181886594
 10
59.051320795973176
 20
53.83999539964364
 10
59.473311814363235
 20
53.698946874464625
 10
59.890405024995495
 20
53.548403159586485
 10
60.30246988140582
 20
53.38849480147337
 10
60.70937583713006
 20
53.21935234658938
 10
61.110992345704105
 20
53.04110634139867
 10
61.50718886066378
 20
52.85388733236538
 10
61.897834835544984
 20
52.65782586595365
 10
62.282799723883585
 20
52.453052488627584
 10
62.66195297921542
 20
52.23969774685135
 10
63.035164055076365
 20
52.017892187089075
 10
63.40230240500228
 20
51.78776635580488
 10
63.76323748252907
 20
51.549450799462896
 10
64.11783874119256
 20
51.303076064527275
 10
64.46597563452863
 20
51.04877269746215
 10
64.80751761607313
 20
50.78667124473163
 10
65.14233413936195
 20
50.51690225279988
 10
65.47029465793094
 20
50.239596268131024
 10
65.79126862531595
 20
49.954883837189186
 10
66.10512549505289
 20
49.662895506438524
 10
66.4117347206776
 20
49.363761822343164
 10
66.71096575572595
 20
49.05761333136723
 10
67.00268805373378
 20
48.744580579974865
 10
67.286771068237
 20
48.424794114630195
 10
67.56308425277143
 20
48.09838448179737
 10
67.83149706087296
 20
47.7654822279405
 10
68.09187894607747
 20
47.42621789952374
 10
68.34409936192081
 20
47.080722043011235
 10
68.5880277619388
 20
46.72912520486709
 10
68.82353359966737
 20
46.37155793155546
 10
69.05048632864238
 20
46.008150769540464
 10
69.26875540239969
 20
45.63903426528625
 10
69.47821027447513
 20
45.264338965256954
 10
69.67872039840462
 20
44.88419541591669
 10
69.87015522772398
 20
44.49873416372962
 10
70.05238421596908
 20
44.108085755159856
 10
70.22527681667583
 20
43.712380736671555
 10
70.38870248338004
 20
43.31174965472883
 10
70.5425306696176
 20
42.90632305579582
 10
70.6866308289244
 20
42.496231486336676
 10
70.82087241483623
 20
42.08160549281551
 10
70.94512488088905
 20
41.66257562169648
 10
71.05925768061864
 20
41.23927241944371
 10
71.16314026756092
 20
40.811826432521315
 10
71.25664209525176
 20
40.38036820739344
 10
71.339632617227
 20
39.94502829052424
 10
71.41198128702248
 20
39.50593722837783
 10
71.47355755817416
 20
39.06322556741834
 10
71.52423088421779
 20
38.61702385410994
 10
71.5638707186893
 20
38.167462634916724
 10
71.59234651512456
 20
37.71467245630284
 10
71.6095277270594
 20
37.258783864732436
 10
71.61528380802972
 20
36.799927406669624
 10
71.60533570088522
 20
36.207103233931875
 10
71.57565393303707
 20
35.617052039571014
 10
71.5264823348633
 20
35.03019789737431
 10
71.45806473674195
 20
34.446964881129006
 10
71.37064496905103
 20
33.86777706462238
 10
71.26446686216856
 20
33.2930585216417
 10
71.13977424647257
 20
32.723233325974235
 10
70.99681095234108
 20
32.15872555140721
 10
70.83582081015211
 20
31.59995927172792
 10
70.65704765028369
 20
31.04735856072361
 10
70.46073530311385
 20
30.501347492181537
 10
70.24712759902062
 20
29.962350139888994
 10
70.01646836838201
 20
29.430790577633218
 10
69.769001441576
 20
28.90709287920148
 10
69.50497064898069
 20
28.391681118381022
 10
69.22461982097407
 20
27.884979368959137
 10
68.92819278793417
 20
27.387411704723057
 10
68.61593338023899
 20
26.899402199460074
 10
68.2880854282666
 20
26.42137492695743
 10
67.94489276239497
 20
25.953753961002377
 10
67.58659921300217
 20
25.4969633753822
 10
67.21344861046622
 20
25.051427243884167
 10
66.8256847851651
 20
24.617569640295514
 10
66.42355156747689
 20
24.195814638403508
 10
66.00729278777959
 20
23.78658631199542
 10
65.57715227645122
 20
23.390308734858515
 10
65.13337386386978
 20
23.00740598078004
 10
64.67620138041336
 20
22.638302123547266
 10
64.20587865645994
 20
22.283421236947454
 10
63.722649522387535
 20
21.943187394767868
 10
63.22675780857419
 20
21.618024670795766
 10
62.71844734539791
 20
21.308357138818415
 10
62.60680792067454
 20
21.228892010163317
 10
62.51223904148993
 20
21.133682126617362
 10
62.43581036529949
 20
21.025402098147264
 10
62.378591549558585
 20
20.906726534719684
 10
62.34165225172272
 20
20.78033004630131
 10
62.326062129247305
 20
20.648887242858827
 10
62.33289083958779
 20
20.515072734358917
 10
62.363208040199574
 20
20.38156113076825
 10
66.205340573444
 20
8.366956078043481
 10
66.22619477128602
 20
8.274654118998773
 10
66.230024808353
 20
8.190050244789564
 10
66.22027281114215
 20
8.113586236803684
 10
66.20038090615067
 20
8.045703876428993
 10
66.17379121987578
 20
7.986844945053322
 10
66.14394587881465
 20
7.937451224064514
 10
66.08825673832251
 20
7.868826538798878
 10
66.02108940445449
 20
7.810965156001435
 10
65.9723660681513
 20
7.779592621813829
 10
65.9141075722454
 20
7.751243382031508
 10
65.84673238171938
 20
7.729405828852868
 10
65.77065896155577
 20
7.717568354476299
 10
65.68630577673716
 20
7.719219351100217
 10
65.59409129224609
 20
7.73784721092302
 10
54.284011936832734
 20
11.038188453408793
 10
54.56306276780978
 20
11.635328074882144
 10
54.822577110225865
 20
12.241585899100563
 10
55.06236978221367
 20
12.85640241171238
 10
55.282255601905916
 20
13.479218098365894
 10
61.230016720749184
 20
12.143598947350025
 10
61.31733937711075
 20
12.133671781096991
 10
61.39284615240214
 20
12.141021125269932
 10
61.4659341334193
 20
12.162697100720933
 10
61.53418420838806
 20
12.198141621848244
 10
61.595177265534176
 20
12.246796603050115
 10
61.657505859916306
 20
12.324164232534802
 10
61.6978803620882
 20
12.41325189778115
 10
61.71518452147136
 20
12.509408700232953
 10
61.70830208748729
 20
12.607983741333994
 10
59.75349700227085
 20
22.473299303612485
 10
60.28845545699791
 20
22.712547975443112
 10
60.811041364811324
 20
22.969700340683012
 10
61.320952387278815
 20
23.244310523310734
 10
61.81788618596817
 20
23.535932647304836
 10
62.301540422447175
 20
23.844120836643835
 10
62.77161275828359
 20
24.168429215306276
 10
63.2278008550452
 20
24.508411907270705
 10
63.66980237429977
 20
24.863623036515648
 10
64.09731497761508
 20
25.23361672701965
 10
64.51003632655888
 20
25.617947102761256
 10
64.90766408269899
 20
26.016168287719008
 10
65.28989590760317
 20
26.427834405871426
 10
65.65642946283916
 20
26.852499581197076
 10
66.00696240997475
 20
27.28971793767446
 10
66.34119241057772
 20
27.739043599282137
 10
66.65881712621584
 20
28.200030689998666
 10
66.95953421845687
 20
28.672233333802556
 10
67.24304134886863
 20
29.155205654672365
 10
67.50903617901882
 20
29.648501776586613
 10
67.75721637047525
 20
30.15167582352386
 10
67.9872795848057
 20
30.66428191946264
 10
68.19892348357794
 20
31.185874188381483
 10
68.39184572835974
 20
31.71600675425894
 10
68.56574398071888
 20
32.25423374107353
 10
68.72031590222313
 20
32.80010927280381
 10
68.85525915444026
 20
33.35318747342832
 10
68.97027139893804
 20
33.91302246692559
 10
69.06505029728424
 20
34.47916837727418
 10
69.13929351104665
 20
35.05117932845259
 10
69.19269870179302
 20
35.62860944443939
 10
69.22496353109116
 20
36.211012849213105
 10
69.23578566050881
 20
36.79794366675228
 10
69.2310446118776
 20
37.18418670181748
 10
69.2168580482457
 20
37.568845382338104
 10
69.19328084300555
 20
37.951788888552734
 10
69.16036786954966
 20
38.33288640069999
 10
69.1181740012705
 20
38.712007099018486
 10
69.06675411156058
 20
39.08902016374682
 10
69.00616307381237
 20
39.463794775123596
 10
68.93645576141839
 20
39.83620011338743
 10
68.85768704777108
 20
40.206105358776924
 10
68.76991180626301
 20
40.57337969153067
 10
68.67318491028657
 20
40.93789229188727
 10
68.5675612332343
 20
41.29951234008536
 10
68.45309564849872
 20
41.65810901636351
 10
68.32984302947224
 20
42.013551500960354
 10
68.19785824954742
 20
42.365708974114476
 10
68.05719618211671
 20
42.71445061606448
 10
67.90791170057263
 20
43.05964560704899
 10
67.75005967830764
 20
43.4011631273066
 10
67.58369498871421
 20
43.73887235707592
 10
67.40887250518489
 20
44.07264247659555
 10
67.22564710111213
 20
44.40234266610408
 10
67.03407364988841
 20
44.72784210584016
 10
66.83420702490628
 20
45.049009976042356
 10
66.62610209955814
 20
45.36571545694928
 10
66.40981374723654
 20
45.67782772879954
 10
66.18539684133394
 20
45.98521597183175
 10
65.95290625524285
 20
46.28774936628451
 10
65.71239686235573
 20
46.5852970923964
 10
65.4639235360651
 20
46.877728330406065
 10
65.20754114976347
 20
47.164912260552086
 10
64.94330457684329
 20
47.446718063073064
 10
64.67126869069702
 20
47.72301491820763
 10
64.39490749993138
 20
47.99026029101793
 10
64.11290988227903
 20
48.250170699603814
 10
63.82540701639414
 20
48.50269054658602
 10
63.53253008093091
 20
48.74776423458526
 10
63.2344102545436
 20
48.98533616622227
 10
62.931178715886325
 20
49.215350744117785
 10
62.62296664361334
 20
49.43775237089251
 10
62.30990521637883
 20
49.65248544916718
 10
61.992125612837
 20
49.85949438156252
 10
61.66975901164207
 20
50.05872357069926
 10
61.342936591448215
 20
50.250117419198105
 10
61.011789530909695
 20
50.4336203296798
 10
60.676449008680635
 20
50.60917670476507
 10
60.33704620341528
 20
50.776730947074604
 10
59.993712293767814
 20
50.93622745922916
 10
59.64657845839246
 20
51.087610643849466
 10
59.295775875943406
 20
51.23082490355624
 10
58.941435725074854
 20
51.3658146409702
 10
58.58368918444099
 20
51.49252425871208
 10
58.22266743269605
 20
51.61089815940259
 10
57.85850164849422
 20
51.720880745662456
 10
57.4913230104897
 20
51.82241642011243
 10
57.12126269733669
 20
51.915449585373224
 10
56.748451887689406
 20
51.999924644065544
 10
56.37302176020203
 20
52.07578599881013
 10
55.995103493528795
 20
52.1429780522277
 10
55.61482826632387
 20
52.20144520693899
 10
55.23232725724147
 20
52.251131865564716
 10
54.847731644935806
 20
52.29198243072561
 10
54.46117260806108
 20
52.32394130504239
 10
54.07278132527148
 20
52.346952891135786
 10
53.68268897522119
 20
52.360961591626506
 10
52.57734461388138
 20
52.40378511671719
 10
51.16873180580274
 20
52.47284223696481
 10
49.419828319507054
 20
52.565373163109356
 10
49.37418282807561
 20
51.773529889436155
 10
51.1687305358028
 20
51.67702894345704
 10
52.5623962911709
 20
51.60915006566033
 10
53.66284056938154
 20
51.56713203803607
 10
54.04989578491259
 20
51.553150885739946
 10
54.434215478984285
 20
51.530070271453276
 10
54.81569213457856
 20
51.49799748494057
 10
55.19421823467733
 20
51.45703981596634
 10
55.56968626226253
 20
51.40730455429509
 10
55.941988700316095
 20
51.34889898969136
 10
56.31101803181993
 20
51.28193041191964
 10
56.67666673975598
 20
51.206506110744435
 10
57.03882730710615
 20
51.122733375930274
 10
57.397392216852396
 20
51.03071949724165
 10
57.75225395197664
 20
50.930571764443094
 10
58.103304995460825
 20
50.82239746729909
 10
58.45043783028682
 20
50.706303895574194
 10
58.79354493943662
 20
50.58239833903286
 10
59.132518805892104
 20
50.45078808743965
 10
59.467251912635234
 20
50.311580430559054
 10
59.79763674264791
 20
50.164882658155584
 10
60.12356577891207
 20
50.01080205999375
 10
60.44493150440964
 20
49.84944592583807
 10
60.761626402122566
 20
49.68092154545304
 10
61.073542955032764
 20
49.505336208603204
 10
61.38057364612213
 20
49.32279720505303
 10
61.6826109583726
 20
49.13341182456706
 10
61.979547374766156
 20
48.937287356909806
 10
62.271275378284685
 20
48.734531091845774
 10
62.55768745191011
 20
48.52525031913946
 10
62.83867607862435
 20
48.3095523285554
 10
63.11413374140938
 20
48.08754440985808
 10
63.38395292324708
 20
47.859333852812036
 10
63.64802610711938
 20
47.62502794718176
 10
63.90624577600821
 20
47.38473398273178
 10
64.15850441289555
 20
47.13855924922662
 10
64.40469450076327
 20
46.88661103643075
 10
64.64470852259332
 20
46.6289966341087
 10
64.87843896136758
 20
46.365823332024995
 10
65.10577830006805
 20
46.09719841994412
 10
65.32661902167662
 20
45.82322918763062
 10
65.54085360917524
 20
45.54402292484899
 10
65.7483745455458
 20
45.25968692136372
 10
65.94907431377024
 20
44.97032846693935
 10
66.14284539683051
 20
44.67605485134038
 10
66.32958027770852
 20
44.376973364331334
 10
66.5091714393862
 20
44.07319129567673
 10
66.68151136484546
 20
43.764815935141044
 10
66.84649253706827
 20
43.45195457248882
 10
67.0040074390365
 20
43.13471449748455
 10
67.15394855373212
 20
42.81320299989276
 10
67.29620836413704
 20
42.487527369477945
 10
67.43067935323323
 20
42.157794896004624
 10
67.55725400400254
 20
41.82411286923732
 10
67.67582479942695
 20
41.486588578940534
 10
67.78628422248839
 20
41.145329314878765
 10
67.88852475616875
 20
40.800442366816554
 10
67.98243888345
 20
40.452035024518395
 10
68.06791908731404
 20
40.1002145777488
 10
68.1448578507428
 20
39.74508831627229
 10
68.21314765671819
 20
39.38676352985336
 10
68.2726809882222
 20
39.02534750825654
 10
68.32335032823671
 20
38.660947541246315
 10
68.36504815974365
 20
38.29367091858722
 10
68.39766696572494
 20
37.92362493004376
 10
68.42109922916254
 20
37.55091686538044
 10
68.43523743303834
 20
37.17565401436177
 10
68.43997406033431
 20
36.79794366675228
 10
68.42934373473089
 20
36.23107736296388
 10
68.39765407513313
 20
35.668679612745386
 10
68.34520705735972
 20
35.11119556518592
 10
68.2723046572294
 20
34.559070369374616
 10
68.17924885056087
 20
34.012749174400575
 10
68.06634161317282
 20
33.472677129352924
 10
67.93388492088404
 20
32.93929938332077
 10
67.7821807495132
 20
32.41306108539323
 10
67.61153107487901
 20
31.894407384659434
 10
67.42223787280022
 20
31.383783430208503
 10
67.21460311909549
 20
30.881634371129564
 10
66.9889287895836
 20
30.388405356511704
 10
66.7455168600832
 20
29.90454153544405
 10
66.48466930641308
 20
29.430488057015744
 10
66.2066881043919
 20
28.966690070315884
 10
65.91187522983842
 20
28.513592724433586
 10
65.60053265857132
 20
28.071641168457965
 10
65.27296236640933
 20
27.641280551478168
 10
64.92946632917116
 20
27.22295602258328
 10
64.57034652267555
 20
26.817112730862448
 10
64.19590492274119
 20
26.424195825404762
 10
63.80644350518682
 20
26.04465045529935
 10
63.40226424583113
 20
25.678921769635345
 10
62.98366912049283
 20
25.32745491750184
 10
62.55096010499068
 20
24.99069504798797
 10
62.10443917514339
 20
24.66908731018285
 10
61.64440830676963
 20
24.363076853175595
 10
61.17116947568814
 20
24.07310882605532
 10
60.68502465771764
 20
23.799628377911155
 10
60.186275828676884
 20
23.543080657832213
 10
59.67522496438451
 20
23.30391081490762
 10
59.152174040659304
 20
23.082563998226465
 10
59.08951173890826
 20
23.050600444428063
 10
59.03452435441556
 20
23.009194857741843
 10
58.988002531601346
 20
22.959696236080326
 10
58.95073691488586
 20
22.903453577356064
 10
58.92351814868925
 20
22.841815879481587
 10
58.90713687743169
 20
22.77613214036945
 10
58.9023837455334
 20
22.70775135793219
 10
58.910049397414504
 20
22.63802253008235
 10
60.80928775161291
 20
13.052536216144302
 10
55.52040175864982
 20
14.241295113279344
 10
55.69479705336253
 20
14.87892322934171
 10
55.84872637830297
 20
15.523389084650418
 10
55.98200359910392
 20
16.174274035629168
 10
56.094442581398134
 20
16.83115943870165
 10
56.185857190818346
 20
17.493626650291564
 10
56.25606129299735
 20
18.161257026822597
 10
56.30486875356787
 20
18.83363192471843
 10
56.33209343816268
 20
19.510332700402767
 10
56.37463823795247
 20
20.61099450579185
 10
56.44322891103203
 20
22.01510978103706
 10
56.536505009645516
 20
23.759297863362548
 10
54.95082879571537
 20
23.84861018630786
 10
54.854331024736105
 20
22.05033894456917
 10
54.78645397256432
 20
20.652859233839152
 10
54.74443856431495
 20
19.548040692164932
 10
54.72751482251609
 20
19.077458370459997
 10
54.69952933711108
 20
18.610207306268386
 10
54.66061265450587
 20
18.14641804593796
 10
54.61089532110648
 20
17.6862211358166
 10
54.55050788331893
 20
17.229747122252153
 10
54.4795808875492
 20
16.77712655159248
 10
54.39824488020327
 20
16.32848997018545
 10
54.30663040768718
 20
15.883967924378915
 10
54.204868016406905
 20
15.443690960520748
 10
54.09308825276844
 20
15.007789624958809
 10
53.97142166317779
 20
14.576394464040966
 10
53.83999879404096
 20
14.149636024115075
 10
53.69895019176394
 20
13.727644851528995
 10
53.54840640275275
 20
13.310551492630601
 10
53.38849797341335
 20
12.898486493767754
 10
53.21935545015175
 20
12.491580401288298
 10
53.041109379373964
 20
12.089963761540112
 10
52.853890307486
 20
11.69376712087105
 10
52.65782878089382
 20
11.303121025628982
 10
52.453055346003445
 20
10.918156022161773
 10
52.23970054922089
 20
10.539002656817283
 10
52.01789493695212
 20
10.165791475943362
 10
51.787769055603135
 20
9.798653025887889
 10
51.54945345157997
 20
9.43771785299872
 10
51.3030786712886
 20
9.083116503623716
 10
51.048775261135006
 20
8.734979524110743
 10
50.78667376752521
 20
8.393437460807661
 10
50.51690473686521
 20
8.058620860062337
 10
50.239598715560994
 20
7.730660268222623
 10
49.954886250018575
 20
7.409686231636396
 10
49.662897886643925
 20
7.095829296651509
 10
49.36376417184307
 20
6.789220009615825
 10
49.057615652022015
 20
6.48998891687721
 10
48.744582873586715
 20
6.198266564783523
 10
48.424796382943214
 20
5.914183499682632
 10
48.09838672649748
 20
5.637870267922391
 10
47.76548445065552
 20
5.369457415850672
 10
47.42622010182335
 20
5.10907548981533
 10
47.080724226406936
 20
4.8568550361642275
 10
46.729127370812314
 20
4.6129266012452375
 10
46.37156008144545
 20
4.377420731406213
 10
46.00815290471237
 20
4.1504679729950205
 10
45.63903638701907
 20
3.9321988723595225
 10
45.26434107477151
 20
3.722743975847577
 10
44.88419751437573
 20
3.5222338298070515
 10
44.49873625223771
 20
3.3307989805858083
 10
44.10808783476345
 20
3.148569974531705
 10
43.71238280835897
 20
2.9756773579926037
 10
43.31175171943024
 20
2.8122516773163775
 10
42.90632511438326
 20
2.6584234788508785
 10
42.49623353962406
 20
2.5143233089439745
 10
42.0816075415586
 20
2.3800817139435324
 10
41.6625776665929
 20
2.2558292401974005
 10
41.23927446113293
 20
2.1416964340534554
 10
40.81182847158474
 20
2.0378138418595557
 10
40.38037024435429
 20
1.9443120099635576
 10
39.94503032584758
 20
1.8613214847133295
 10
39.50593926247063
 20
1.7889728124567388
 10
39.063227600629425
 20
1.7273965395416426
 10
38.61702588672997
 20
1.6767232123158935
 10
38.16746466717826
 20
1.6370833771273694
 10
37.71467448838028
 20
1.6086075803239273
 10
37.25878589674205
 20
1.5914263682534249
 10
36.79992943866954
 20
1.5856702872637345
 10
36.20710526585428
 20
1.595618408980987
 10
35.61705407095081
 20
1.6253002193071504
 10
35.030199927281316
 20
1.674471886003853
 10
34.44696690816797
 20
1.7428895768327235
 10
33.86777908693297
 20
1.8303094595553808
 10
33.29306053689846
 20
1.9364877019334483
 10
32.72323533138661
 20
2.0611804717285596
 10
32.15872754371962
 20
2.2041439367023283
 10
31.599961247219653
 20
2.365134264616388
 10
31.047360515208883
 20
2.5439076232323576
 10
30.50134942100948
 20
2.7402201803118653
 10
29.962352037943614
 20
2.95382810361653
 10
29.430792439333466
 20
3.1844875609079804
 10
28.90709469850121
 20
3.431954719947845
 10
28.391682888769022
 20
3.6959857484977374
 10
27.884981083459067
 20
3.976336814319291
 10
27.38741335589354
 20
4.272764085174124
 10
26.899403779394582
 20
4.585023728823872
 10
26.421376427284404
 20
4.912871913030151
 10
25.95375537288515
 20
5.2560648055545816
 10
25.49696468951901
 20
5.614358574158792
 10
25.051428450508144
 20
5.98750938660441
 10
24.617570729174748
 20
6.375273410653064
 10
24.195815598840984
 20
6.77740681406637
 10
23.786587132829013
 20
7.193665764605954
 10
23.39030940446103
 20
7.62380643003344
 10
23.0074064870592
 20
8.067584978110458
 10
22.638302453945695
 20
8.524757576598626
 10
22.283421378442696
 20
8.995080393259572
 10
21.94318733387237
 20
9.47830959585492
 10
21.6180243935569
 20
9.974201352146299
 10
21.308356630818437
 20
10.482511829895323
 10
21.228891710522696
 20
10.594151462978045
 10
21.13368233299236
 20
10.68872084817828
 10
21.025402929600354
 20
10.765150149446852
 10
20.906727931719626
 20
10.822369530734584
 10
20.78033177072311
 20
10.85930915599231
 10
20.648888877983754
 20
10.874899189170847
 10
20.5150736848745
 20
10.868069794221023
 10
20.381560622768266
 20
10.837751135093681
  0
LWPOLYLINE
  5
8F
330
17
100
AcDbEntity
  8
LOGO
100
AcDbPolyline
 90
421
 70
1
 10
36.79992943866954
 20
0.0
 10
37.28477525639711
 20
0.005953834062634142
 10
37.76763118280014
 20
0.02376930826091331
 10
38.24833296636077
 20
0.05337738061041766
 10
38.72671635556123
 20
0.0947090091267073
 10
39.202617098883685
 20
0.14769515182536738
 10
39.67587094481032
 20
0.21226676672195802
 10
40.14631364182332
 20
0.28835481183205935
 10
40.61378093840488
 20
0.37589024517124153
 10
41.07810858303718
 20
0.4748040247550747
 10
41.539132324202406
 20
0.585027108599134
 10
41.996687910382754
 20
0.7064904547189844
 10
42.45061109006039
 20
0.8391250211302063
 10
42.90073761171751
 20
0.9828617658483647
 10
43.34690322383631
 20
1.1376316468890397
 10
43.78894367489894
 20
1.3033656222678014
 10
44.22669471338763
 20
1.4799946500002201
 10
44.659992087784545
 20
1.667449688101866
 10
45.08867154657187
 20
1.8656616945883138
 10
45.51256883823178
 20
2.074561627475129
 10
45.93151971124649
 20
2.2940804447778915
 10
46.345359914098154
 20
2.524149104512172
 10
46.75392519526898
 20
2.7646985646935396
 10
47.15705130324113
 20
3.0156597833375756
 10
47.55457398649683
 20
3.276963718459839
 10
47.946328993518215
 20
3.548541328075911
 10
48.33215207278752
 20
3.830323570201361
 10
48.71187897278688
 20
4.122241402851754
 10
49.08534544199853
 20
4.4242257840426715
 10
49.452387228904634
 20
4.736207671789682
 10
49.81284008198737
 20
5.0581180241083565
 10
50.16653974972891
 20
5.38988779901427
 10
50.51332198061149
 20
5.731447954522992
 10
50.94261633209923
 20
6.178661681149501
 10
51.3566767167217
 20
6.637434272606895
 10
51.75534049511071
 20
7.107416836097209
 10
52.138445027898015
 20
7.588260478822467
 10
52.50582767571542
 20
8.079616307984717
 10
52.857325799194655
 20
8.581135430786007
 10
53.19277675896754
 20
9.09246895442836
 10
53.512017915665815
 20
9.613267986113815
 10
65.147565237518
 20
6.2176665875972095
 10
65.29374244309393
 20
6.181197758595916
 10
65.44029175865438
 20
6.155149676035423
 10
65.58684107421483
 20
6.139521466790769
 10
65.73301827979077
 20
6.134312257736984
 10
65.9396683386283
 20
6.144580053520095
 10
66.14338822977538
 20
6.175150891972871
 10
66.34273606672963
 20
6.2256759497504754
 10
66.53626996298863
 20
6.29580640350806
 10
66.72254803204994
 20
6.385193429900788
 10
66.9001283874112
 20
6.493488205583812
 10
67.06756914256992
 20
6.620341907212307
 10
67.2234284110237
 20
6.765405711441414
 10
67.32050772684364
 20
6.872031349179671
 10
67.40924646063806
 20
6.983971386032429
 10
67.48953706300713
 20
7.1007722782295275
 10
67.56127198455104
 20
7.221980482000798
 10
67.62434367586998
 20
7.347142453576085
 10
67.67864458756416
 20
7.47580464918521
 10
67.72406717023371
 20
7.607513525058021
 10
67.76050387447887
 20
7.74181553742434
 10
67.78784715089976
 20
7.878257142514012
 10
67.80598945009666
 20
8.016384796556872
 10
67.81482322266967
 20
8.15574495578275
 10
67.814240919219
 20
8.295884076421487
 10
67.80413499034482
 20
8.436348614702913
 10
67.78439788664735
 20
8.576685026856863
 10
67.75492205872676
 20
8.716439769113178
 10
67.71559995718322
 20
8.855159297701686
 10
64.0639877360004
 20
20.274389221900417
 10
64.5874737080105
 20
20.616774337071828
 10
65.09800931661734
 20
20.974600083849634
 10
65.59535400070057
 20
21.347446024813618
 10
66.0792671991398
 20
21.734891722543537
 10
66.54950835081472
 20
22.136516739619182
 10
67.005836894605
 20
22.551900638620314
 10
67.44801226939023
 20
22.980622982126715
 10
67.87579391405013
 20
23.422263332718153
 10
68.28894126746434
 20
23.876401252974414
 10
68.68721376851248
 20
24.34261630547526
 10
69.0703708560742
 20
24.82048805280047
 10
69.43817196902918
 20
25.30959605752981
 10
69.79037654625708
 20
25.809519882243062
 10
70.12674402663751
 20
26.31983908952001
 10
70.44703384905014
 20
26.840133241940407
 10
70.75100545237466
 20
27.36998190208404
 10
71.03841827549066
 20
27.908964632530683
 10
71.30903175727785
 20
28.456660995860105
 10
71.56260533661585
 20
29.01265055465208
 10
71.79889845238431
 20
29.57651287148639
 10
72.0176705434629
 20
30.14782750894281
 10
72.21868104873126
 20
30.726174029601086
 10
72.40168940706906
 20
31.31113199604103
 10
72.56645505735591
 20
31.902280970842394
 10
72.7127374384715
 20
32.499200516584956
 10
72.84029598929548
 20
33.1014701958485
 10
72.94889014870749
 20
33.7086695712128
 10
73.03827935558719
 20
34.32037820525761
 10
73.10822304881421
 20
34.93617566056272
 10
73.15848066726825
 20
35.55564149970791
 10
73.18881164982892
 20
36.17835528527293
 10
73.19897543537589
 20
36.80389657983757
 10
73.19302724598137
 20
37.288742553912186
 10
73.1752279779767
 20
37.7715986321664
 10
73.14564558162996
 20
38.25230056354748
 10
73.10434800720932
 20
38.73068409700267
 10
73.05140320498299
 20
39.20658498147928
 10
72.98687912521909
 20
39.679838965924596
 10
72.91084371818583
 20
40.150281799285864
 10
72.82336493415133
 20
40.61774923051036
 10
72.72451072338379
 20
41.082077008545376
 10
72.61434903615135
 20
41.543100882338166
 10
72.4929478227222
 20
42.000656600835995
 10
72.36037503336448
 20
42.45457991298616
 10
72.21669861834633
 20
42.904706567735936
 10
72.06198652793597
 20
43.35087231403257
 10
71.89630671240158
 20
43.79291290082337
 10
71.71972712201125
 20
44.23066407705557
 10
71.53231570703319
 20
44.663961591676475
 10
71.33414041773558
 20
45.09264119363335
 10
71.12526920438653
 20
45.516538631873445
 10
70.90577001725427
 20
45.93548965534409
 10
70.6757108066069
 20
46.3493300129925
 10
70.43515952271264
 20
46.757895453765975
 10
70.18418411583964
 20
47.1610217266118
 10
69.92285253625603
 20
47.55854458047722
 10
69.65123273423002
 20
47.95029976430953
 10
69.36939266002976
 20
48.33612302705598
 10
69.07740026392338
 20
48.71585011766387
 10
68.7753234961791
 20
49.08931678508046
 10
68.46323030706506
 20
49.45635877825303
 10
68.14118864684944
 20
49.81681184612885
 10
67.80926646580038
 20
50.17051173765519
 10
67.46753171418607
 20
50.51729420177932
 10
67.02031780565854
 20
50.946585829712475
 10
66.56154473464387
 20
51.360644294452236
 10
66.09156149315878
 20
51.75930680780223
 10
65.61071707322
 20
52.14241058156613
 10
65.11936046684423
 20
52.50979282754759
 10
64.6178406660482
 20
52.861290757550286
 10
64.10650666284857
 20
53.19674158337785
 10
63.58570744926207
 20
53.515982516833965
 10
66.98131392777846
 20
65.15153254801936
 10
67.01691505970167
 20
65.29125262229503
 10
67.0426788352867
 20
65.43177214293384
 10
67.05872150293692
 20
65.5726346970076
 10
67.06515931105574
 20
65.71338387158805
 10
67.06210850804646
 20
65.85356325374688
 10
67.04968534231247
 20
65.99271643055594
 10
67.02800606225712
 20
66.13038698908692
 10
66.99718691628375
 20
66.2661185164116
 10
66.95734415279576
 20
66.3994545996017
 10
66.90859402019647
 20
66.529938825729
 10
66.8510527668893
 20
66.6571147818652
 10
66.78483664127751
 20
66.78052605508213
 10
66.71006189176455
 20
66.8997162324515
 10
66.62684476675373
 20
67.01422890104503
 10
66.53530151464844
 20
67.1236076479345
 10
66.43554838385202
 20
67.22739606019171
 10
66.32892285773485
 20
67.32414774717586
 10
66.21698312597974
 20
67.41264332337802
 10
66.1001826877084
 20
67.4927665025677
 10
65.97897504204259
 20
67.56440099851442
 10
65.853813688104
 20
67.62743052498764
 10
65.72515212501436
 20
67.68173879575686
 10
65.59344385189544
 20
67.72720952459156
 10
65.45914236786894
 20
67.76372642526128
 10
65.3227011720566
 20
67.79117321153548
 10
65.18457376358013
 20
67.80943359718363
 10
65.04521364156128
 20
67.81839129597525
 10
64.90507430512179
 20
67.81793002167989
 10
64.76460925338334
 20
67.80793348806695
 10
64.62427198546773
 20
67.78828540890596
 10
64.48451600049663
 20
67.75886949796643
 10
64.34579479759176
 20
67.71956946901781
 10
52.92656995339283
 20
64.06795597783506
 10
52.58454544089845
 20
64.59126727479607
 10
52.22705776670095
 20
65.10165038403805
 10
51.85452809499788
 20
65.59886365382512
 10
51.46737758998679
 20
66.08266543242135
 10
51.066027415865186
 20
66.55281406809088
 10
50.650898736830634
 20
67.00906790909778
 10
50.22241271708066
 20
67.45118530370615
 10
49.780990520812814
 20
67.8789246001801
 10
49.32705331222462
 20
68.2920441467837
 10
48.86102225551364
 20
68.69030229178105
 10
48.38331851487739
 20
69.07345738343628
 10
47.89436325451343
 20
69.44126777001345
 10
47.394577638619275
 20
69.79349179977667
 10
46.88438283139249
 20
70.12988782099006
 10
46.364199997030596
 20
70.4502141819177
 10
45.83445029973116
 20
70.75422923082365
 10
45.29555490369168
 20
71.04169131597205
 10
44.74793497310973
 20
71.31235878562703
 10
44.19201167218283
 20
71.5659899880526
 10
43.628206165108516
 20
71.80234327151294
 10
43.05693961608434
 20
72.02117698427207
 10
42.47863318930786
 20
72.22224947459415
 10
41.89370804897657
 20
72.40531909074323
 10
41.30258535928804
 20
72.57014418098345
 10
40.7056862844398
 20
72.71648309357884
 10
40.103431988629396
 20
72.84409417679362
 10
39.49624363605436
 20
72.95273577889179
 10
38.88454239091223
 20
73.04216624813746
 10
38.26874941740055
 20
73.11214393279475
 10
37.649285879716864
 20
73.16242718112774
 10
37.0265729420587
 20
73.19277434140054
 10
36.401031768623604
 20
73.20294376187721
 10
35.916185727266274
 20
73.19699555514013
 10
35.433329604673695
 20
73.17919623717464
 10
34.952627650038224
 20
73.14961376134956
 10
34.47424411255226
 20
73.10831608103359
 10
33.99834324140817
 20
73.05537114959549
 10
33.52508928579831
 20
72.99084692040402
 10
33.05464649491506
 20
72.91481134682796
 10
32.58717911795081
 20
72.82733238223602
 10
32.12285140409792
 20
72.72847797999697
 10
31.6618276025488
 20
72.61831609347955
 10
31.204271962495778
 20
72.4969146760525
 10
30.750348733131254
 20
72.36434168108462
 10
30.300222163647586
 20
72.22066506194459
 10
29.854056503237178
 20
72.06595277200122
 10
29.412016001092383
 20
71.90027276462321
 10
28.974264906405576
 20
71.72369299317934
 10
28.54096746836914
 20
71.53628141103835
 10
28.112287936175452
 20
71.33810597156902
 10
27.688390559016877
 20
71.12923462814007
 10
27.2694395860858
 20
70.90973533412028
 10
26.85559926657459
 20
70.67967604287838
 10
26.447033849675627
 20
70.4391247077831
 10
26.043907584581284
 20
70.18814928220321
 10
25.646384720483923
 20
69.92681771950748
 10
25.254629506575945
 20
69.65519797306463
 10
24.868806192049696
 20
69.37335799624343
 10
24.489079026097578
 20
69.08136574241261
 10
24.11561225791195
 20
68.77928916494095
 10
23.74857013668519
 20
68.46719621719718
 10
23.38811691160967
 20
68.14515485255006
 10
23.03441683187777
 20
67.81323302436836
 10
22.687634146681862
 20
67.47149868602077
 10
22.25834223928258
 20
67.02428364424979
 10
21.844283564529807
 20
66.56551000653069
 10
21.44562090069804
 20
66.09552663291933
 10
21.062517026061748
 20
65.61468238347145
 10
20.695134718895392
 20
65.12332611824282
 10
20.343636757473423
 20
64.62180669728919
 10
20.00818592007034
 20
64.11047298066637
 10
19.688944984960585
 20
63.58967382843014
 10
8.053395631108502
 20
66.98726209953062
 10
7.913675661157221
 20
67.02286432269467
 10
7.773156231820303
 20
67.04862895040334
 10
7.632293756894163
 20
67.06467226578663
 10
7.491544650175213
 20
67.07111055197444
 10
7.3513653254598665
 20
67.06806009209666
 10
7.212212196544533
 20
67.05563716928322
 10
7.074541677225628
 20
67.03395806666407
 10
6.938810181299567
 20
67.00313906736908
 10
6.805474122562752
 20
66.96329645452819
 10
6.6749899148116025
 20
66.91454651127137
 10
6.547813971842534
 20
66.85700552072849
 10
6.424402707451958
 20
66.79078976602948
 10
6.305212535436281
 20
66.71601553030425
 10
6.19069986959192
 20
66.63279909668273
 10
6.081321123715286
 20
66.54125674829484
 10
5.977532711602791
 20
66.4415047682705
 10
5.880780926805499
 20
66.3348784930725
 10
5.7922852770987765
 20
66.22293807387615
 10
5.712162045240466
 20
66.1061370158804
 10
5.640527513988422
 20
65.9849288242841
 10
5.577497966100495
 20
65.85976700428613
 10
5.52318968433453
 20
65.73110506108534
 10
5.477718951448383
 20
65.59939649988064
 10
5.441202050199899
 20
65.46509482587092
 10
5.413755263346934
 20
65.32865354425505
 10
5.395494873647337
 20
65.19052616023185
 10
5.386537163858951
 20
65.05116617900029
 10
5.386998416739634
 20
64.91102710575916
 10
5.396994915047237
 20
64.77056244570738
 10
5.416642941539612
 20
64.63022570404385
 10
5.446058778974598
 20
64.49047038596744
 10
5.485358710110045
 20
64.35174999667697
 10
9.136972201292807
 20
52.93251829447831
 10
8.613480618377352
 20
52.589953178363466
 10
8.102928487268095
 20
52.231958662514316
 10
7.60555709634329
 20
51.85895482251273
 10
7.121607733981171
 20
51.47136173394056
 10
6.651321688560004
 20
51.06959947237967
 10
6.194940248458044
 20
50.654088113411916
 10
5.752704702053533
 20
50.22524773261919
 10
5.3248563377247216
 20
49.78349840558331
 10
4.911636443849877
 20
49.32926020788617
 10
4.513286308807236
 20
48.86295321510962
 10
4.130047220975052
 20
48.38499750283551
 10
3.762160468731589
 20
47.89581314664572
 10
3.409867340455087
 20
47.39582022212211
 10
3.0734091245237978
 20
46.88543880484655
 10
2.7530271093159824
 20
46.36508897040088
 10
2.4489625832098874
 20
45.83519079436697
 10
2.1614568345837633
 20
45.2961643523267
 10
1.8907511518158668
 20
44.74842971986191
 10
1.6370868232844493
 20
44.19240697255447
 10
1.400705137367752
 20
43.628516185986236
 10
1.181847382444041
 20
43.05717743573907
 10
0.9807548468915623
 20
42.47881079739486
 10
0.7976688190885677
 20
41.893836346535444
 10
0.6328305874133081
 20
41.302674158742676
 10
0.4864814402440399
 20
40.70574430959842
 10
0.3588626659590093
 20
40.10346687468457
 10
0.25021555293647246
 20
39.49626192958297
 10
0.1607813895546858
 20
38.88454954987547
 10
0.09080146419189046
 20
38.26874981114394
 10
0.040517065226342706
 20
37.64928278897025
 10
0.0101694810362938
 20
37.026568558936255
 10
0.0
 20
36.4010271966238
 10
0.005948206737099997
 20
35.9161757535034
 10
0.023747524702573325
 20
35.433303676458955
 10
0.053330000527669966
 20
34.95257630531393
 10
0.09462768084363489
 20
34.474158979891754
 10
0.14757261228172308
 20
33.998217040015845
 10
0.2120968414731745
 20
33.52491582550964
 10
0.2881324150492442
 20
33.05442067619657
 10
0.375611379641187
 20
32.58689693190008
 10
0.47446578188024807
 20
32.122509932443585
 10
0.5846276683976723
 20
31.66142501765054
 10
0.7060290858247147
 20
31.203807527344356
 10
0.8386020807926201
 20
30.749822801348483
 10
0.9822786999326337
 20
30.29963617948635
 10
1.1369909898760204
 20
29.853413001581377
 10
1.30267099725402
 20
29.41131860745702
 10
1.4792507686978829
 20
28.97351833693668
 10
1.6666623508388536
 20
28.54017752984382
 10
1.8648377903081874
 20
28.11146152600188
 10
2.0737091337371343
 20
27.687535665234275
 10
2.293208427756934
 20
27.268565287364417
 10
2.5232677189988513
 20
26.854715732215773
 10
2.763819054094122
 20
26.446152339611768
 10
3.0147944796740003
 20
26.043040449375837
 10
3.2761260423697416
 20
25.645545401331393
 10
3.5477457888125907
 20
25.253832535301896
 10
3.829585765633793
 20
24.86806719111077
 10
4.121578019464593
 20
24.48841470858144
 10
4.423654596936255
 20
24.115040427537345
 10
4.735747544680021
 20
23.74810968780191
 10
5.057788909327144
 20
23.38778782919858
 10
5.38971073750887
 20
23.034240191550783
 10
5.731445075856443
 20
22.68763211468196
 10
6.178660117627428
 20
22.258339441644672
 10
6.637433755346494
 20
21.844280328675783
 10
7.107417128957862
 20
21.44561748459663
 10
7.5882613784057575
 20
21.06251361822856
 10
8.079617643634409
 20
20.695131438392924
 10
8.581137064588024
 20
20.343633653911063
 10
9.092470781210835
 20
20.008182973604313
 10
9.61326993344707
 20
19.688942106294036
 10
6.215681662346581
 20
8.053393937775235
 10
6.180079439182545
 20
7.913674158137912
 10
6.154314811473847
 20
7.773154826717488
 10
6.138271496090561
 20
7.6322923621473135
 10
6.131833209902773
 20
7.491543183060685
 10
6.134883669780556
 20
7.35136370809095
 10
6.14730659259399
 20
7.212210355871425
 10
6.168985695213155
 20
7.074539545035446
 10
6.1998046945081295
 20
6.93880769421633
 10
6.239647307348994
 20
6.805471222047409
 10
6.288397250605832
 20
6.674986547162003
 10
6.345938241148723
 20
6.547810088193447
 10
6.412153995847742
 20
6.42439826377506
 10
6.486928231572968
 20
6.305207492540168
 10
6.570144665194485
 20
6.190694193122106
 10
6.661687013582369
 20
6.081314784154191
 10
6.761438993606697
 20
5.977525684269759
 10
6.8680652688047195
 20
5.880774312656537
 10
6.980005688001051
 20
5.792279106519614
 10
7.0968067459968145
 20
5.712156345268219
 10
7.218014937593119
 20
5.640522308311565
 10
7.343176757591096
 20
5.577493275058869
 10
7.471838700791869
 20
5.523185524919347
 10
7.603547261996558
 20
5.477715337302219
 10
7.737848936006283
 20
5.441198991616701
 10
7.874290217622171
 20
5.413752767272015
 10
8.01241760164535
 20
5.395492943677372
 10
8.151777582876933
 20
5.386535800241989
 10
8.29191665611804
 20
5.386997616375092
 10
8.432381316169804
 20
5.39699467148589
 10
8.572718057833344
 20
5.416643244983606
 10
8.712473375909784
 20
5.446059616277457
 10
8.851193765200241
 20
5.485360064776658
 10
20.270425467398898
 20
9.136966359293046
 10
20.612810274888847
 20
8.613480923296708
 10
20.970635733208827
 20
8.102945812411418
 10
21.34348140431849
 20
7.605601589152771
 10
21.730926850177493
 20
7.121688816036386
 10
22.1325516327455
 20
6.651448055577874
 10
22.54793531398215
 20
6.1951198702928405
 10
22.976657455847125
 20
5.752944822696904
 10
23.41829762030006
 20
5.325163475305675
 10
23.87243536930062
 20
4.912016390634764
 10
24.338650264808475
 20
4.513744131199781
 10
24.816521868783273
 20
4.130587259516339
 10
25.305629743184653
 20
3.7627863381000415
 10
25.80555344997229
 20
3.4105819294665056
 10
26.315872551105848
 20
3.074214596131348
 10
26.83616660854497
 20
2.753924900610177
 10
27.36601518424932
 20
2.4499534054186043
 10
27.904997840178556
 20
2.162540673072239
 10
28.452694138292333
 20
1.8919272660866864
 10
29.00868364055029
 20
1.6383537469775713
 10
29.57254590891211
 20
1.4020606782604936
 10
30.143860505337432
 20
1.1832886224510686
 10
30.72220699178593
 20
0.9822781420649109
 10
31.307164930217237
 20
0.7992697996176259
 10
31.898313882591037
 20
0.6345041576248334
 10
32.49523341086697
 20
0.48822177860213833
 10
33.0975030770047
 20
0.36066322506514575
 10
33.704702442963885
 20
0.25206905952948067
 10
34.31641107070418
 20
0.16267984451074305
 10
34.93220852218521
 20
0.09273614252455288
 10
35.5516743593667
 20
0.04247851608651514
 10
36.17438814420824
 20
0.012147527712244846
 10
36.79992943866954
 20
0.00198373991735197
  0
LWPOLYLINE
  5
90
330
17
100
AcDbEntity
  8
LOGO
100
AcDbPolyline
 90
152
 70
1
 10
48.59424538057302
 20
19.542087779079644
 10
48.56476561196288
 20
18.92592181721334
 10
48.50655216989422
 20
18.31886056496281
 10
48.42029112812019
 20
17.721589728661762
 10
48.306668560393916
 20
17.134795014643927
 10
48.16637054046859
 20
16.559162129243056
 10
48.00008314209735
 20
15.995376778792872
 10
47.808492439033344
 20
15.44412466962711
 10
47.59228450502972
 20
14.9060915080795
 10
47.35214541383963
 20
14.381963000483774
 10
47.08876123921623
 20
13.872424853173682
 10
46.80281805491267
 20
13.378162772482945
 10
46.49500193468211
 20
12.899862464745295
 10
46.1659989522777
 20
12.438209636294468
 10
45.81649518145257
 20
11.9938899934642
 10
45.447176695959904
 20
11.567589242588223
 10
45.05872956955284
 20
11.15999309000027
 10
44.65183987598453
 20
10.771787242034076
 10
44.22719368900812
 20
10.403657405023372
 10
43.78547708237675
 20
10.05628928530189
 10
43.32737612984361
 20
9.730368589203374
 10
42.85357690516182
 20
9.426581023061553
 10
42.36476548208454
 20
9.145612293210153
 10
41.86162793436494
 20
8.888148105982912
 10
41.34485033575615
 20
8.654874167713563
 10
40.81511876001132
 20
8.446476184735847
 10
40.27311928088363
 20
8.263639863383483
 10
39.71953797212619
 20
8.107050909990214
 10
39.15506090749217
 20
7.9773950308897765
 10
38.58037416073473
 20
7.875357932415903
 10
37.99616380560702
 20
7.801625320902319
 10
37.4031159158622
 20
7.756882902682767
 10
37.10349229355622
 20
7.745597299287548
 10
36.80191656525341
 20
7.741816384090977
 10
36.36272554120562
 20
7.749935268210899
 10
35.92653754396385
 20
7.7741383306755445
 10
35.49370433157743
 20
7.814195186642211
 10
35.064577662095665
 20
7.869875451268203
 10
34.63950929356784
 20
7.940948739710828
 10
34.218850984043264
 20
8.027184667127388
 10
33.80295449157126
 20
8.128352848675183
 10
33.39217157420112
 20
8.244222899511534
 10
32.986853989982194
 20
8.374564434793735
 10
32.587353496963736
 20
8.519147069679084
 10
32.19402185319508
 20
8.67774041932489
 10
31.807210816725544
 20
8.850114098888458
 10
31.427272145604427
 20
9.036037723527095
 10
31.054557597881015
 20
9.235280908398106
 10
30.68941893160465
 20
9.447613268658793
 10
30.33220790482462
 20
9.672804419466464
 10
29.983276275590242
 20
9.91062397597842
 10
29.642975801950826
 20
10.160841553351961
 10
29.31165824195567
 20
10.423226766744397
 10
28.989675353654103
 20
10.697549231313033
 10
28.677378895095426
 20
10.983578562215174
 10
28.375120624328925
 20
11.281084374608115
 10
28.083252299403917
 20
11.589836283649175
 10
27.802125678369713
 20
11.909603904495647
 10
27.532092519275633
 20
12.240156852304839
 10
27.273504580170986
 20
12.581264742234069
 10
27.026713619105074
 20
12.93269718944062
 10
26.792071394127184
 20
13.294223809081796
 10
26.569929663286658
 20
13.665614216314918
 10
26.360640184632782
 20
14.046638026297286
 10
26.164554716214887
 20
14.437064854186193
 10
25.982025016082247
 20
14.83666431513896
 10
25.253686819762997
 20
14.521117588286744
 10
25.4485852255969
 20
14.094653747553261
 10
25.65794602650936
 20
13.677971545785997
 10
25.88139384604872
 20
13.271317358168764
 10
26.11855330776335
 20
12.874937559885389
 10
26.36904903520159
 20
12.489078526119714
 10
26.63250565191181
 20
12.113986632055548
 10
26.90854778144237
 20
11.749908252876722
 10
27.196800047341608
 20
11.397089763767074
 10
27.496887073157882
 20
11.055777539910414
 10
27.80843348243956
 20
10.726217956490572
 10
28.131063898734993
 20
10.408657388691383
 10
28.464402945592525
 20
10.10334221169666
 10
28.80807524656052
 20
9.81051880069024
 10
29.161705425187346
 20
9.530433530855948
 10
29.52491810502135
 20
9.2633327773776
 10
29.897337909610865
 20
9.00946291543903
 10
30.278589462504286
 20
8.769070320224065
 10
30.668297387249922
 20
8.542401366916527
 10
31.066086307396162
 20
8.329702430700248
 10
31.471580846491364
 20
8.131219886759055
 10
31.884405628083872
 20
7.947200110276767
 10
32.30418527572205
 20
7.777889476437213
 10
32.73054441295423
 20
7.623534360424219
 10
33.163107663328795
 20
7.484381137421608
 10
33.60149965039409
 20
7.360676182613211
 10
34.045344997698464
 20
7.252665871182858
 10
34.49426832879028
 20
7.160596578314367
 10
34.947894267217876
 20
7.08471467919157
 10
35.40584743652964
 20
7.025266548998284
 10
35.86775246027392
 20
6.982498562918346
 10
36.33323396199904
 20
6.956657096135576
 10
36.80191656525341
 20
6.947988523833802
 10
37.123710034339936
 20
6.952018504673246
 10
37.443423490726715
 20
6.9640475195048035
 10
37.76096536087921
 20
6.983984176798324
 10
38.07624407126288
 20
7.011737085023642
 10
38.389168048343166
 20
7.047214852650599
 10
38.699645718585536
 20
7.090326088149041
 10
39.007585508455435
 20
7.140979399988811
 10
39.31289584441833
 20
7.199083396639742
 10
39.615485152939655
 20
7.26454668657168
 10
39.9152618604849
 20
7.337277878254477
 10
40.212134393519484
 20
7.417185580157968
 10
40.50601117850889
 20
7.50417840075199
 10
40.79680064191856
 20
7.59816494850639
 10
41.08441121021394
 20
7.699053831891008
 10
41.36875130986051
 20
7.8067536593756905
 10
41.649729367323694
 20
7.9211730394302755
 10
42.20123306156177
 20
8.16980489112852
 10
42.73818970465184
 20
8.444218254744476
 10
43.25986670831751
 20
8.743681998036877
 10
43.76553148428245
 20
9.067464988764467
 10
44.25445144427029
 20
9.41483609468597
 10
44.725894000004665
 20
9.785064183560134
 10
45.179126563209195
 20
10.177418123145692
 10
45.613416545607556
 20
10.591166781201366
 10
46.028031358923364
 20
11.025579025485902
 10
46.42223841488028
 20
11.47992372375804
 10
46.795305125201914
 20
11.953469743776509
 10
47.14649890161193
 20
12.445485953300043
 10
47.47508715583396
 20
12.95524122008738
 10
47.78033729959164
 20
13.48200441189726
 10
48.06151674460862
 20
14.025044396488392
 10
48.31789290260854
 20
14.583630041619552
 10
48.54873318531503
 20
15.15703021504945
 10
48.75330500445171
 20
15.744513784536824
 10
48.84551130634505
 20
16.043308363976667
 10
48.93087577174228
 20
16.345349617840416
 10
49.00930682710888
 20
16.650546154597897
 10
49.08071289891032
 20
16.95880658271896
 10
49.14500241361203
 20
17.270039510673442
 10
49.20208379767949
 20
17.58415354693118
 10
49.25186547757815
 20
17.90105729996203
 10
49.29425587977343
 20
18.220659378235833
 10
49.329163430730844
 20
18.542868390222424
 10
49.3564965569158
 20
18.86759294439164
 10
49.37616368479375
 20
19.194741649213334
 10
49.38807324083019
 20
19.524223113157333
 10
49.43092657123213
 20
20.629570107101213
 10
49.50020058365822
 20
22.038182928409004
 10
49.59446855223039
 20
23.787084615538095
 10
48.80262527855718
 20
23.83074552038556
 10
48.70612496757803
 20
22.036939810127475
 10
48.63824616915632
 20
20.643368471317945
 10
48.596229967157
 20
19.542087779079644
  0
LWPOLYLINE
  5
91
330
17
100
AcDbEntity
  8
LOGO
100
AcDbPolyline
 90
313
 70
1
 10
49.00108393695474
 20
28.222606844058
 10
48.960821033812586
 20
27.93611608446357
 10
48.91421178129343
 20
27.65761442446805
 10
48.802732600580725
 20
27.124126531261933
 10
48.66820313972981
 20
26.621239420416043
 10
48.51218014365387
 20
26.14804934790675
 10
48.33622035726603
 20
25.70365256971042
 10
48.141880525479486
 20
25.28714534180346
 10
47.9307173932074
 20
24.89762392016222
 10
47.70428770536292
 20
24.534184560763098
 10
47.46414820685922
 20
24.195923519582458
 10
47.211855642609436
 20
23.881937052596662
 10
46.94896675752676
 20
23.591321415782105
 10
46.67703829652435
 20
23.32317286511516
 10
46.39762700451538
 20
23.076587656572208
 10
46.11228962641298
 20
22.850662046129614
 10
45.822582907130325
 20
22.64449228976376
 10
45.53006359158059
 20
22.457174643451015
 10
45.23628842467694
 20
22.287805363167767
 10
44.94281415133253
 20
22.1354807048904
 10
44.65119751646052
 20
21.999296924595285
 10
44.362995264974074
 20
21.8783502782588
 10
44.07976414178636
 20
21.77173702185731
 10
43.80306089181053
 20
21.678553411367204
 10
43.53444225995976
 20
21.59789570276485
 10
43.2754649911472
 20
21.528860152026624
 10
42.79266152228941
 20
21.42204054804808
 10
42.367104444542434
 20
21.350864647242577
 10
42.0112477172116
 20
21.308102497421135
 10
41.7375452996022
 20
21.286524146394783
 10
41.57003320802556
 20
21.615680394838144
 10
41.3327393533311
 20
22.06128593731617
 10
41.027233565834266
 20
22.60759888884024
 10
40.65508567585053
 20
23.23887736442174
 10
40.217865513695315
 20
23.93937947907204
 10
39.717142909684085
 20
24.693363347802528
 10
39.44345876395604
 20
25.08549160088889
 10
39.154487694132285
 20
25.485087085624574
 10
38.850425929002235
 20
25.890182066386007
 10
38.531469697355355
 20
26.29880880754959
 10
38.197815227981046
 20
26.708999573491756
 10
37.84965874966876
 20
27.11878662858893
 10
37.48719649120792
 20
27.52620223721752
 10
37.110624681387954
 20
27.929278663753966
 10
36.7201395489983
 20
28.326048172574687
 10
36.31593732282838
 20
28.71454302805611
 10
35.89821423166764
 20
29.09279549457464
 10
35.46716650430549
 20
29.458837836506714
 10
35.02299036953137
 20
29.81070231822875
 10
34.56588205613473
 20
30.14642120411717
 10
34.09603779290497
 20
30.464026758548407
 10
33.61365380863155
 20
30.76155124589886
 10
33.118926332103875
 20
31.037026930544982
 10
32.61205159211139
 20
31.288486076863176
 10
32.09322581744353
 20
31.51396094922986
 10
31.829392613603023
 20
31.616339365299012
 10
31.56264523688972
 20
31.71148381202146
 10
31.181145783944384
 20
31.835020025741297
 10
30.810646663743825
 20
31.94215997459744
 10
30.451171202615207
 20
32.032880471168994
 10
30.102742726885666
 20
32.10715832803502
 10
29.76538456288236
 20
32.164970357774614
 10
29.439120036932458
 20
32.20629337296689
 10
29.123972475363082
 20
32.23110418619091
 10
28.819965204501393
 20
32.239379610025786
 10
28.51503411120426
 20
32.23044517197358
 10
28.222452626376928
 20
32.203626346619686
 10
27.942290411500874
 20
32.15889986716818
 10
27.674617128057577
 20
32.09624246682318
 10
27.419502437528497
 20
32.01563087878876
 10
27.177016001395113
 20
31.917041836269036
 10
26.947227481138903
 20
31.800452072468094
 10
26.730206538241344
 20
31.665838320590016
 10
26.604567890587905
 20
31.57539080442478
 10
26.485405893693653
 20
31.4798602317587
 10
26.372545757149616
 20
31.379512602313337
 10
26.26581269054682
 20
31.274613915810303
 10
26.070028605529036
 20
31.052227370517496
 10
25.896655315368488
 20
30.814828593652923
 10
25.744294496793348
 20
30.564545582989258
 10
25.61154782653182
 20
30.30350633629915
 10
25.497016981312076
 20
30.033838851355288
 10
25.399303637862303
 20
29.75767112593032
 10
25.317009472910694
 20
29.47713115779689
 10
25.248736163185427
 20
29.19434694472767
 10
25.19308538541469
 20
28.911446484495347
 10
25.14865881632667
 20
28.630557774872543
 10
25.11405813264955
 20
28.353808813631943
 10
25.087885011111517
 20
28.0833275985462
 10
25.05522816136545
 20
27.569680397929936
 10
25.050763264884814
 20
27.550825978715537
 10
25.02546020927244
 20
27.531971559501134
 10
24.99544460718977
 20
27.53123040869868
 10
24.981801844424872
 20
27.54388331233814
 10
24.868276200855952
 20
27.684116322642556
 10
24.753253479117
 20
27.839486659513522
 10
24.637934299206798
 20
28.010526312782382
 10
24.52351928112416
 20
28.19776727228048
 10
24.411209044867874
 20
28.401741527839167
 10
24.30220421043676
 20
28.622981069289796
 10
24.19770539782961
 20
28.86201788646372
 10
24.098913227045237
 20
29.119383969192285
 10
24.007028318082437
 20
29.395611307306833
 10
23.923251290940012
 20
29.69123189063873
 10
23.848782765616757
 20
30.006777709019314
 10
23.78482336211148
 20
30.342780752279925
 10
23.732573700422993
 20
30.699773010251928
 10
23.693234400550082
 20
31.078286472766663
 10
23.668006082491566
 20
31.47885312965548
 10
23.658089366246227
 20
31.90200497074974
 10
23.66095014006156
 20
32.107272202216485
 10
23.671207282722765
 20
32.30818897445041
 10
23.71279725483913
 20
32.69705835449751
 10
23.78063244310805
 20
33.0687875374463
 10
23.872486008042205
 20
33.42355094985199
 10
23.986131110154318
 20
33.76152301826981
 10
24.119340909957103
 20
34.08287816925501
 10
24.269888567963267
 20
34.38779082936282
 10
24.43554724468549
 20
34.67643542514846
 10
24.614090100636513
 20
34.94898638316718
 10
24.803290296329006
 20
35.20561812997418
 10
25.000920992275702
 20
35.446505092124724
 10
25.20475534898932
 20
35.67182169617402
 10
25.412566526982534
 20
35.88174236867734
 10
25.62212768676807
 20
36.076441536189876
 10
25.831211988858634
 20
36.256093625266864
 10
26.037592593766927
 20
36.420873062463556
 10
26.157597119534962
 20
36.52514538285846
 10
26.262717295532575
 20
36.64069692997089
 10
26.35239500639235
 20
36.76634164291278
 10
26.426072136746946
 20
36.90089346079604
 10
26.483190571228985
 20
37.04316632273259
 10
26.5231921944711
 20
37.19197416783434
 10
26.54551889110592
 20
37.34613093521322
 10
26.549612545766085
 20
37.50445056398116
 10
26.535209423449565
 20
37.66203840323531
 10
26.50285199438111
 20
37.814044443893906
 10
26.453191451033636
 20
37.95935244530034
 10
26.386878985879985
 20
38.096846166798
 10
26.304565791393042
 20
38.22540936773027
 10
26.20690306004566
 20
38.34392580744052
 10
26.094541984310705
 20
38.45127924527215
 10
25.968133756661047
 20
38.54635344056853
 10
22.076384865483924
 20
41.144158652326645
 10
22.00852965797268
 20
41.19478847352436
 10
21.946581636934056
 20
41.25113934682746
 10
21.89086641844824
 20
41.31279266834709
 10
21.841709618595402
 20
41.37932983419451
 10
21.799436853455724
 20
41.45033224048087
 10
21.764373739109384
 20
41.52538128331736
 10
21.73684589163658
 20
41.60405835881519
 10
21.717178927117498
 20
41.68594486308555
 10
21.70572491334996
 20
41.76939481335847
 10
21.70257358376773
 20
41.85268156863819
 10
21.707655147904955
 20
41.935270300197
 10
21.7208998152958
 20
42.01662617930717
 10
21.742237795474427
 20
42.09621437724099
 10
21.771599297974994
 20
42.173500065270765
 10
21.808914532331656
 20
42.24794841466874
 10
21.854113708078554
 20
42.31902459670723
 10
22.780630078015374
 20
43.638299999341584
 10
23.86473359763606
 20
45.164653258972706
 10
24.93879078267534
 20
46.64895856660581
 10
25.419666535894056
 20
47.297491423112255
 10
25.835168148867947
 20
47.84209011324616
 10
25.963277397295318
 20
48.023212785522375
 10
26.083175578421987
 20
48.226355556209704
 10
26.195070548854304
 20
48.450223681136016
 10
26.299170165198586
 20
48.693522416129184
 10
26.395682284061163
 20
48.954957017017094
 10
26.484814762048355
 20
49.23323273962759
 10
26.566775455766503
 20
49.52705483978856
 10
26.641772221821938
 20
49.835128573327886
 10
26.710012916820972
 20
50.15615919607344
 10
26.771705397369963
 20
50.48885196385309
 10
26.827057520075215
 20
50.83191213249469
 10
26.876277141543078
 20
51.18404495782616
 10
26.957150307191924
 20
51.9103496018701
 10
27.01598774716712
 20
52.65740794260791
 10
27.054452314319317
 20
53.414862026662554
 10
27.07420686149915
 20
54.17235390065703
 10
27.076914241557233
 20
54.91952561121433
 10
27.06423730734423
 20
55.64601920495743
 10
27.037838911710754
 20
56.341476728509335
 10
26.99938190750746
 20
56.99554022849301
 10
26.95052914758499
 20
57.59785175153146
 10
26.892943484793967
 20
58.138053344247666
 10
26.894680103888277
 20
58.170798917049936
 10
26.90606071893493
 20
58.19107865985078
 10
26.930651476556143
 20
58.20949761460415
 10
26.96069863020001
 20
58.218273195176
 10
26.984978793459174
 20
58.21569934184575
 10
27.01400326641648
 20
58.199573835017645
 10
27.539814055236853
 20
57.71614073350705
 10
27.842671623919873
 20
57.4238916903895
 10
28.16325664561425
 20
57.10244674375211
 10
28.49488862294209
 20
56.75517521213614
 10
28.830887058525487
 20
56.38544641408285
 10
29.16457145498655
 20
55.99662966813349
 10
29.489261314947395
 20
55.5920942928293
 10
29.798276141030108
 20
55.17520960671153
 10
30.084935435856803
 20
54.749344928321456
 10
30.21779410361855
 20
54.534098004068454
 10
30.342558702049583
 20
54.31786957620032
 10
30.45839416897765
 20
54.10108080953474
 10
30.564465442230546
 20
53.88415286888936
 10
30.659937459636016
 20
53.667506919081845
 10
30.74397515902182
 20
53.45156412492984
 10
30.815743478215712
 20
53.23674565125101
 10
30.874407355045474
 20
53.023472662863014
 10
30.91913172733885
 20
52.81216632458349
 10
30.949081532923636
 20
52.603247801230125
 10
30.963421709627557
 20
52.39713825762056
 10
30.961317195278397
 20
52.19425885857245
 10
30.92730822222929
 20
51.83025660665587
 10
30.86636785850545
 20
51.46427728232169
 10
30.782077732160772
 20
51.09583257059022
 10
30.678019471249126
 20
50.72443415648182
 10
30.557774703824435
 20
50.34959372501683
 10
30.42492505794057
 20
49.97082296121562
 10
30.135737643010874
 20
49.19953717668586
 10
29.81956958852829
 20
48.35819830586925
 10
29.664020617607157
 20
47.91603246874433
 10
29.515309172612056
 20
47.45804338601894
 10
29.377295869827456
 20
46.98311182435105
 10
29.25384132553781
 20
46.49011855039861
 10
29.14880615602755
 20
45.97794433081962
 10
29.066050977581146
 20
45.445469932272
 10
29.034234827595775
 20
45.17127040546558
 10
29.009436406483058
 20
44.891576121413735
 10
28.99213829127851
 20
44.606247175948724
 10
28.982823059017722
 20
44.31514366490278
 10
28.981973286736228
 20
44.01812568410816
 10
28.99007155146961
 20
43.715053329397115
 10
29.007600430253394
 20
43.40578669660187
 10
29.035042500123165
 20
43.090185881554675
 10
29.07288033811446
 20
42.76811098008778
 10
29.12159652126285
 20
42.43942208803344
 10
29.18167362660387
 20
42.103979301223895
 10
29.2535942311731
 20
41.76164271549138
 10
29.337840912006083
 20
41.41227242666814
 10
29.434896246138386
 20
41.055728530586435
 10
29.54524281060556
 20
40.6918711230785
 10
29.669363182443146
 20
40.32056029997658
 10
29.707720607199075
 20
40.24086761808877
 10
29.761892944421074
 20
40.172709869470346
 10
29.829832874819417
 20
40.11794808029375
 10
29.909493079104404
 20
40.078443276731456
 10
29.995729885511203
 20
40.05717073793032
 10
30.082896331879265
 20
40.055620425182404
 10
30.168201593324877
 20
40.07341967287827
 10
30.24885484496432
 20
40.11019581540843
 10
30.658192767856494
 20
40.34284821861823
 10
31.11759385632546
 20
40.59287426802632
 10
31.722183635658954
 20
40.90867606911758
 10
32.45348756049395
 20
41.2727355117528
 10
33.29303108546739
 20
41.66753448579276
 10
34.22233966521625
 20
42.07555488109822
 10
34.71488255520552
 20
42.279048702307016
 10
35.222938754377495
 20
42.47927858752998
 10
35.7441989445618
 20
42.67405477299972
 10
36.27635380758806
 20
42.86118749494881
 10
36.8170940252859
 20
43.03848698960987
 10
37.364110279484926
 20
43.2037634932155
 10
37.91509325201477
 20
43.35482724199828
 10
38.46773362470504
 20
43.48948847219082
 10
39.019722079385375
 20
43.60555742002571
 10
39.568749297885375
 20
43.700844321735566
 10
40.112505962034675
 20
43.77315941355297
 10
40.64868275366288
 20
43.82031293171051
 10
41.17497035459962
 20
43.840115112440806
 10
41.433684046630454
 20
43.83907515009341
 10
41.68905944667452
 20
43.83037619197644
 10
41.94080788996053
 20
43.81374451761894
 10
42.18864071171719
 20
43.78890640655001
 10
42.432269247173195
 20
43.75558813829871
 10
42.67140483155727
 20
43.713515992394115
 10
42.905758800098084
 20
43.66241624836531
 10
43.13504248802434
 20
43.60201518574136
 10
43.35896723056477
 20
43.53203908405135
 10
43.577244362948065
 20
43.45221422282433
 10
43.993650503618646
 20
43.27454061036859
 10
44.394792614143974
 20
43.07579346370059
 10
44.78060492241742
 20
42.85615593225361
 10
45.15102165633234
 20
42.61581116546092
 10
45.50597704378211
 20
42.35494231275582
 10
45.8454053126601
 20
42.073732523571614
 10
46.16924069085967
 20
41.77236494734157
 10
46.477417406274185
 20
41.451022733498974
 10
46.76986968679701
 20
41.10988903147712
 10
47.04653176032151
 20
40.7491469907093
 10
47.30733785474105
 20
40.368979760628775
 10
47.55222219794899
 20
39.969570490668865
 10
47.78111901783871
 20
39.55110233026284
 10
47.99396254230355
 20
39.11375842884399
 10
48.190686999236895
 20
38.657721935845586
 10
48.371226616532134
 20
38.18317600070093
 10
48.53551562208258
 20
37.69030377284332
 10
48.68348824378165
 20
37.17928840170602
 10
48.81507870952268
 20
36.65031303672232
 10
48.93022124719903
 20
36.10356082732553
 10
49.02885008470407
 20
35.53921492294892
 10
49.11089944993118
 20
34.95745847302576
 10
49.176303570773726
 20
34.35847462698936
 10
49.224996675125055
 20
33.74244653427301
 10
49.25691299087855
 20
33.10955734430997
 10
49.271986745927556
 20
32.459990206533554
 10
49.27015216816544
 20
31.793928270377037
 10
49.251343485485606
 20
31.111554685273706
 10
49.21549492578137
 20
30.413052600656858
 10
49.16254071694613
 20
29.698605165959766
 10
49.09241508687325
 20
28.96839553061572
 10
49.00505226345606
 20
28.222606844058
  0
LWPOLYLINE
  5
92
330
17
100
AcDbEntity
  8
LOGO
100
AcDbPolyline
 90
336
 70
1
 10
43.868978590792466
 20
44.19047619873008
 10
43.66089072789053
 20
44.26763901176189
 10
43.448678661703404
 20
44.33683022350582
 10
43.2325352139418
 20
44.39824133840809
 10
43.01265320631644
 20
44.4520638609149
 10
42.78922546053805
 20
44.49848929547248
 10
42.56244479831732
 20
44.53770914652706
 10
42.09959601139174
 20
44.59529811591199
 10
41.62564941922545
 20
44.6263628046394
 10
41.142147595504184
 20
44.632435248278995
 10
40.65063311391364
 20
44.6150474824005
 10
40.15264854813957
 20
44.5757315425736
 10
39.64973647186768
 20
44.51601946436804
 10
39.14343945878371
 20
44.43744328335351
 10
38.635300082573366
 20
44.341535035099724
 10
38.12686091692239
 20
44.229826755176404
 10
37.619664535516506
 20
44.10385047915324
 10
37.11525351204145
 20
43.96513824259995
 10
36.61517042018294
 20
43.81522208108623
 10
36.12095783362669
 20
43.65563403018182
 10
35.63415832605845
 20
43.487906125456426
 10
35.15631447116392
 20
43.313570402479726
 10
34.688968842628846
 20
43.13415889682146
 10
34.23366401413894
 20
42.951203644051326
 10
33.36534705203757
 20
42.5807900394543
 10
32.56370417434561
 20
42.214585873246335
 10
31.841075970548864
 20
41.86484742998512
 10
31.209803030133155
 20
41.54383099422831
 10
30.68222594258428
 20
41.26379285053361
 10
30.270685297388063
 20
41.036989283458695
 10
30.175548776906293
 20
41.35927265090039
 10
30.0915685653786
 20
41.675041962115685
 10
30.01836565153663
 20
41.98445783411574
 10
29.955561024111994
 20
42.28768088391166
 10
29.902775671836284
 20
42.5848717285146
 10
29.85963058344113
 20
42.876190984935654
 10
29.825746747658126
 20
43.16179927018598
 10
29.8007451532189
 20
43.4418572012767
 10
29.784246788855064
 20
43.716525395218945
 10
29.77587264329822
 20
43.98596446902385
 10
29.77524370528
 20
44.25033503970254
 10
29.781980963531993
 20
44.50979772426616
 10
29.816038023773107
 20
45.01464190309265
 10
29.875011733874455
 20
45.50178194159234
 10
29.955870003688947
 20
45.972502775854295
 10
30.055580743069495
 20
46.42808934196756
 10
30.171111861868987
 20
46.86982657602116
 10
30.299431269940307
 20
47.29899941410412
 10
30.437506877136364
 20
47.7168927923055
 10
30.582306593310072
 20
48.12479164671432
 10
30.87994999200202
 20
48.915745528510506
 10
31.18641143027446
 20
49.732396690108374
 10
31.327211558600506
 20
50.13560582807362
 10
31.454732071386108
 20
50.53714049095239
 10
31.56522855238105
 20
50.93830304384666
 10
31.654956585335086
 20
51.34039585185841
 10
31.720171753998006
 20
51.744721280089635
 10
31.74241688414208
 20
51.94812821588193
 10
31.75712964211954
 20
52.15258169364234
 10
31.760842486939
 20
52.378613173277294
 10
31.74864484171949
 20
52.606618567538256
 10
31.72125475733075
 20
52.83628100384199
 10
31.679390284642533
 20
53.06728360960527
 10
31.623769474524558
 20
53.29930951224486
 10
31.55511037784659
 20
53.53204183917752
 10
31.474131045478334
 20
53.76516371782002
 10
31.381549528289554
 20
53.99835827558914
 10
31.278083877149985
 20
54.231308639901634
 10
31.16445214292935
 20
54.46369793817426
 10
31.04137237649741
 20
54.695209297823816
 10
30.909562628723897
 20
54.92552584626706
 10
30.62262539263112
 20
55.38130701920162
 10
30.309384841608917
 20
55.828506476312135
 10
29.975585382615208
 20
56.26458923693272
 10
29.626971422607905
 20
56.6870203203975
 10
29.26928736854494
 20
57.09326474604063
 10
28.908277627384216
 20
57.480787533196256
 10
28.54968660608365
 20
57.84705370119852
 10
28.199258711601153
 20
58.18952826938154
 10
27.86273835089464
 20
58.50567625707947
 10
27.545869930922038
 20
58.792962683626456
 10
27.43894971520778
 20
58.87459731780312
 10
27.323471575084476
 20
58.93774291571894
 10
27.201482006326223
 20
58.98214367160327
 10
27.075027504707144
 20
59.007543779685584
 10
26.946154566001315
 20
59.013687434195205
 10
26.81690968598288
 20
59.0003188293616
 10
26.68933936042592
 20
58.96718215941418
 10
26.56549008510453
 20
58.91402161858232
 10
26.45120999976203
 20
58.842968141100165
 10
26.351558488185006
 20
58.7575189165616
 10
26.26739605471261
 20
58.65946466473574
 10
26.19958320368398
 20
58.550596105391705
 10
26.14898043943827
 20
58.43270395829866
 10
26.116448266314606
 20
58.307578943225764
 10
26.102847188652152
 20
58.17701177994212
 10
26.109037710790048
 20
58.04279318821685
 10
26.17302927233109
 20
57.439549056922985
 10
26.223933215286586
 20
56.79576848936892
 10
26.261127407114106
 20
56.120033210060356
 10
26.283989715271208
 20
55.420924943503024
 10
26.29189800721547
 20
54.707025414202626
 10
26.284230150404426
 20
53.98691634666485
 10
26.260364012295646
 20
53.26917946539542
 10
26.21967746034671
 20
52.56239649490005
 10
26.161548362015175
 20
51.87514915968445
 10
26.085354584758605
 20
51.21601918425432
 10
25.990473996034552
 20
50.59358829311537
 10
25.876284463300593
 20
50.016438210773316
 10
25.811754426510383
 20
49.74752526180916
 10
25.742163854014272
 20
49.49315066173387
 10
25.667434979244472
 20
49.25438712611065
 10
25.587490035633174
 20
49.03230737050273
 10
25.50225125661256
 20
48.827984110473324
 10
25.41164087561484
 20
48.64249006158562
 10
25.31558112607221
 20
48.476897939402846
 10
25.213994241416852
 20
48.33228045948823
 10
24.794214688191527
 20
47.78248724963587
 10
24.309432638377764
 20
47.12885316879771
 10
23.22867814830504
 20
45.63499721020837
 10
22.139364969838926
 20
44.10058221580899
 10
21.20912730161966
 20
42.77547781768835
 10
21.121430135833613
 20
42.635909663725045
 10
21.04896619277221
 20
42.4902253388447
 10
20.991898240788057
 20
42.339378285585724
 10
20.950389048233756
 20
42.184321946486506
 10
20.92460138346188
 20
42.02600976408545
 10
20.91469801482505
 20
41.865395180920956
 10
20.92084171067583
 20
41.70343163953142
 10
20.943195239366823
 20
41.541072582455236
 10
20.98143299143245
 20
41.38158532929585
 10
21.034764286072285
 20
41.22819138705445
 10
21.102654284636767
 20
41.08177452686609
 10
21.184568148476284
 20
40.94321851986582
 10
21.27997103894127
 20
40.8134071371887
 10
21.38832811738212
 20
40.69322414996976
 10
21.509104545149242
 20
40.58355332934406
 10
21.641765483593055
 20
40.48527844644666
 10
25.533509294770397
 20
37.88747662135507
 10
25.62694025400244
 20
37.807689192179545
 10
25.697485972938036
 20
37.710598648725
 10
25.74310000541245
 20
37.599740670844064
 10
25.761735905260956
 20
37.47865093838948
 10
25.751596913600075
 20
37.35501805749919
 10
25.713363300609807
 20
37.23975844501
 10
25.64870987872037
 20
37.13677846200917
 10
25.559311460361975
 20
37.04998446958392
 10
25.32590594966403
 20
36.86335601944344
 10
25.0895177696763
 20
36.659790889696154
 10
24.8526528336928
 20
36.43905069738325
 10
24.617817055007578
 20
36.2008970595459
 10
24.38751634691464
 20
35.94509159322529
 10
24.164256622708017
 20
35.67139591546261
 10
23.950543795681735
 20
35.379571643299045
 10
23.748883779129812
 20
35.06938039377576
 10
23.56178248634627
 20
34.740583783933964
 10
23.391745830625137
 20
34.39294343081481
 10
23.241279725260448
 20
34.02622095145949
 10
23.112890083546212
 20
33.6401779629092
 10
23.057757034462398
 20
33.4398367830113
 10
23.009082818776463
 20
33.2345760822051
 10
22.967180675650148
 20
33.02436606262076
 10
22.93236384424522
 20
32.80917692638841
 10
22.904945563723427
 20
32.58897887563819
 10
22.885239073246513
 20
32.36374211250027
 10
22.87355761197625
 20
32.133436839104796
 10
22.87021441907436
 20
31.898033257581893
 10
22.88131059113318
 20
31.431042200050932
 10
22.909956796962696
 20
30.98826139707761
 10
22.954772173309905
 20
30.569155948000613
 10
23.0143758569218
 20
30.173190952158663
 10
23.08738698454536
 20
29.799831508890424
 10
23.17242469292757
 20
29.448542717534618
 10
23.268108118815434
 20
29.11878967742992
 10
23.373056398955942
 20
28.810037487915057
 10
23.485888670096063
 20
28.521751248328677
 10
23.605224068982803
 20
28.2533960580095
 10
23.729681732363147
 20
28.0044370162962
 10
23.85788079698408
 20
27.77433922252749
 10
23.9884403995926
 20
27.56256777604205
 10
24.11997967693569
 20
27.368587776178593
 10
24.251117765760345
 20
27.19186432227579
 10
24.380473802813544
 20
27.03186251367235
 10
24.469830374012226
 20
26.940777801621184
 10
24.569908026795446
 20
26.865809875070365
 10
24.67877657952487
 20
26.807447138296418
 10
24.7945058505622
 20
26.76617799557587
 10
24.91516565826908
 20
26.742490851185224
 10
25.0388258210072
 20
26.73687410940103
 10
25.163556157138228
 20
26.74981617449981
 10
25.287426485023854
 20
26.78180545075806
 10
25.4050970088579
 20
26.8318694307554
 10
25.51174394307312
 20
26.897655057597646
 10
25.606204453889866
 20
26.977580863850743
 10
25.687315707528466
 20
27.070065382080557
 10
25.753914870209222
 20
27.17352714485299
 10
25.804839108152482
 20
27.28638468473393
 10
25.83892558757857
 20
27.407056534289257
 10
25.855011474707812
 20
27.5339612260849
 10
25.883167777024212
 20
27.98022254039433
 10
25.933278449363353
 20
28.454275273467644
 10
25.969299319783055
 20
28.696861359328306
 10
26.014087957298376
 20
28.94056082462501
 10
26.06873742010594
 20
29.18342884427277
 10
26.134340766402424
 20
29.423520593186588
 10
26.21199105438444
 20
29.658891246281502
 10
26.302781342248647
 20
29.88759597847251
 10
26.407804688191675
 20
30.107689964674645
 10
26.5281541504102
 20
30.31722837980293
 10
26.664922787100824
 20
30.514266398772374
 10
26.819203656460218
 20
30.696859196498004
 10
26.99208981668502
 20
30.863061947894828
 10
27.184674325971855
 20
31.010929827877867
 10
27.35583408725329
 20
31.116423642655466
 10
27.538843165082003
 20
31.20741095745157
 10
27.7336434160327
 20
31.283897601367496
 10
27.940176696680087
 20
31.345889403504554
 10
28.15838486359883
 20
31.39339219296408
 10
28.38820977336361
 20
31.426411798847372
 10
28.629593282549127
 20
31.44495405025577
 10
28.882477247730062
 20
31.449024776290585
 10
29.14680352548112
 20
31.43862980605314
 10
29.422513972376976
 20
31.41377496864475
 10
29.709550444992317
 20
31.374466093166724
 10
30.007854799901832
 20
31.320709008720403
 10
30.317368893680214
 20
31.252509544407104
 10
30.638034582902154
 20
31.16987352932813
 10
30.969793724142328
 20
31.07280679258481
 10
31.31258817397544
 20
30.961315163278478
 10
31.58821682064806
 20
30.862362695104927
 10
31.860821600237195
 20
30.754752323532202
 10
32.13036131370894
 20
30.638809051984115
 10
32.39679476202933
 20
30.514857883884453
 10
32.66008074616446
 20
30.383223822657047
 10
32.92017806708041
 20
30.244231871725688
 10
33.17704552574324
 20
30.09820703451418
 10
33.430641923119026
 20
29.94547431444633
 10
33.92785673787375
 20
29.621185239436844
 10
34.411492919073154
 20
29.273964674087676
 10
34.88122087444582
 20
28.906412645789263
 10
35.33671101172032
 20
28.521129181932057
 10
35.77763373862523
 20
28.1207143099065
 10
36.203659462889135
 20
27.70776805710304
 10
36.614458592240595
 20
27.2848904509121
 10
37.00970153440821
 20
26.854681518724156
 10
37.38905869712054
 20
26.419741287929636
 10
37.75220048810617
 20
25.98266978591899
 10
38.09879731509367
 20
25.546067040082647
 10
38.428519585811614
 20
25.112533077811076
 10
38.7410377079886
 20
24.68466792649471
 10
39.03602208935318
 20
24.26507161352399
 10
39.313143137633936
 20
23.856344166289364
 10
39.57207126055946
 20
23.461085612181286
 10
40.034030361259084
 20
22.721375292906522
 10
40.419262653280654
 20
22.066740874823253
 10
40.72513139845278
 20
21.517982577055044
 10
40.94899985860409
 20
21.09590061872546
 10
41.14018897115871
 20
20.714966596876355
 10
41.168074168173916
 20
20.665276049780125
 10
41.202145495243855
 20
20.62070153872073
 10
41.24170528583511
 20
20.581708280553784
 10
41.286055873414256
 20
20.54876149213489
 10
41.33449959144786
 20
20.522326390319705
 10
41.38633877340247
 20
20.502868191963795
 10
41.44087575274468
 20
20.490852113922788
 10
41.49741286294105
 20
20.48674337305232
 10
41.59635330373878
 20
20.489436274614917
 10
41.84287204572139
 20
20.504751699450413
 10
42.21733171594736
 20
20.543544727780322
 10
42.70009494147513
 20
20.61667043982619
 10
42.97595370843296
 20
20.669500264811845
 10
43.27152434936316
 20
20.734983915809558
 10
43.58435219264805
 20
20.814478277847027
 10
43.91198256666991
 20
20.90934023595194
 10
44.25196079981107
 20
21.020926675151994
 10
44.601832220453836
 20
21.15059448047486
 10
44.95914215698052
 20
21.299700536948272
 10
45.32143593777341
 20
21.469601729599887
 10
45.68625889121485
 20
21.6616549434574
 10
46.05115634568708
 20
21.877217063548528
 10
46.41367362957247
 20
22.117644974900948
 10
46.771356071253315
 20
22.38429556254234
 10
47.12174899911189
 20
22.678525711500406
 10
47.462397741530545
 20
23.001692306802827
 10
47.628300958319365
 20
23.174550798404333
 10
47.790847626891555
 20
23.355152233477305
 10
47.94973091329493
 20
23.543666222650216
 10
48.10464398357723
 20
23.740262376551524
 10
48.25528000378631
 20
23.945110305809695
 10
48.401332139969924
 20
24.15837962105319
 10
48.54249355817584
 20
24.380239932910463
 10
48.678457424451885
 20
24.61086085200998
 10
48.80891690484581
 20
24.850411988980206
 10
48.93356516540544
 20
25.099062954449593
 10
49.05209537217854
 20
25.356983359046605
 10
49.164200691212905
 20
25.624342813399725
 10
49.26957428855632
 20
25.901310928137377
 10
49.36790933025658
 20
26.188057313888052
 10
49.458898982361475
 20
26.484751581280218
 10
49.54223641091878
 20
26.7915633409423
 10
49.61761478197628
 20
27.10866220350278
 10
49.684727261581784
 20
27.436217779590116
 10
49.74326701578307
 20
27.774399679832776
 10
49.792927210627944
 20
28.123377514859218
 10
49.884285704405976
 20
28.906078903926353
 10
49.95709803673019
 20
29.672599471714555
 10
50.01143506962892
 20
30.422747349013083
 10
50.04736766513043
 20
31.15633066661117
 10
50.06496668526303
 20
31.873157555298068
 10
50.064302992055
 20
32.57303614586302
 10
50.04544744753465
 20
33.25577456909527
 10
50.0084709137303
 20
33.921180955784074
 10
49.95344425267022
 20
34.56906343671866
 10
49.880438326382695
 20
35.19923014268827
 10
49.789523996896065
 20
35.81148920448216
 10
49.68077212623858
 20
36.40564875288957
 10
49.554253576438576
 20
36.981516918699754
 10
49.410039209524314
 20
37.53890183270194
 10
49.24819988752413
 20
38.077611625685385
 10
49.068806472466306
 20
38.597454428439335
 10
48.87192982637914
 20
39.09823837175302
 10
48.65764081129091
 20
39.579771586415696
 10
48.42601028922996
 20
40.04186220321661
 10
48.177109122224536
 20
40.484318352944996
 10
47.91100817230295
 20
40.906948166390116
 10
47.62777830149353
 20
41.309559774341196
 10
47.32749037182452
 20
41.69196130758749
 10
47.01021524532428
 20
42.05396089691822
 10
46.67602378402106
 20
42.395366673122666
 10
46.32498684994318
 20
42.715986766990056
 10
45.957175305118916
 20
43.01562930930964
 10
45.57266001157657
 20
43.29410243087065
 10
45.171511831344475
 20
43.55121426246234
 10
44.75380162645088
 20
43.78677293487396
 10
44.31960025892412
 20
44.00058657889475
 10
43.868978590792466
 20
44.192463325313945
  0
LWPOLYLINE
  5
93
330
17
100
AcDbEntity
  8
LOGO
100
AcDbPolyline
 90
32
 70
1
 10
38.44315527686845
 20
35.08128812494627
 10
38.58009415721737
 20
35.09507165430685
 10
38.70775377303102
 20
35.13462369095312
 10
38.82336654637788
 20
35.19724640773186
 10
38.924164899326385
 20
35.28024197748986
 10
39.00738125394498
 20
35.38091257307389
 10
39.070248032302096
 20
35.49656036733076
 10
39.10999765646617
 20
35.62448753310723
 10
39.12386254850565
 20
35.761996243250096
 10
39.10999765646617
 20
35.89950568265075
 10
39.070248032302096
 20
36.02743319073189
 10
39.00738125394498
 20
36.14308102963719
 10
38.924164899326385
 20
36.243751461510286
 10
38.82336654637788
 20
36.326746748494855
 10
38.70775377303102
 20
36.38936915273455
 10
38.58009415721737
 20
36.42892093637302
 10
38.44315527686845
 20
36.44270436155392
 10
38.30621611705342
 20
36.42883943313424
 10
38.17855629122675
 20
36.389089713058695
 10
38.06294336739812
 20
36.32622279910264
 10
37.96214491357722
 20
36.24300628904133
 10
37.87892849777373
 20
36.142207780650125
 10
37.81606168799735
 20
36.02659487170431
 10
37.77631205225776
 20
35.89893515997919
 10
37.762447158564626
 20
35.761996243250096
 10
37.77631205225776
 20
35.62505732652098
 10
37.81606168799735
 20
35.49739761479586
 10
37.87892849777373
 20
35.381784705850045
 10
37.96214491357722
 20
35.28098619745884
 10
38.06294336739812
 20
35.19776968739755
 10
38.17855629122675
 20
35.134902773441496
 10
38.30621611705342
 20
35.09515305336595
  0
LWPOLYLINE
  5
94
330
17
100
AcDbEntity
  8
LOGO
100
AcDbPolyline
 90
153
 70
1
 10
43.273604308933066
 20
35.27180928367455
 10
43.17121453194932
 20
35.344834849485984
 10
43.07812591707801
 20
35.42883789796503
 10
42.99396794183458
 20
35.52214353730644
 10
42.9183700837345
 20
35.62307687570506
 10
42.77221973501942
 20
35.82913306756047
 10
42.61971455461598
 20
36.02394474065589
 10
42.46110454399817
 20
36.207663046069
 10
42.29663970463992
 20
36.38043913487748
 10
42.12657003801522
 20
36.54242415815902
 10
41.95114554559801
 20
36.69376926699132
 10
41.770616228862266
 20
36.83462561245206
 10
41.58523208928192
 20
36.965144345618924
 10
41.39524312833094
 20
37.0854766175696
 10
41.20089934748329
 20
37.195773579381765
 10
41.002450748212915
 20
37.29618638213312
 10
40.80014733199379
 20
37.386866176901336
 10
40.594239100299866
 20
37.467964114764115
 10
40.38497605460509
 20
37.53963134679913
 10
40.17260819638344
 20
37.602019024084086
 10
39.95738552710887
 20
37.65527829769667
 10
40.156153256860726
 20
37.47771334108479
 10
40.33445484816847
 20
37.27963586126511
 10
40.49042982056274
 20
37.06285993409951
 10
40.622217693574186
 20
36.82919963544994
 10
40.67846006766468
 20
36.70660474552551
 10
40.72795798673344
 20
36.58046904117829
 10
40.77047889072183
 20
36.45101928189105
 10
40.805790219571165
 20
36.318482227146504
 10
40.833659413222776
 20
36.1830846364274
 10
40.85385391161799
 20
36.04505326921647
 10
40.866141154698134
 20
35.90461488499645
 10
40.87028858240456
 20
35.761996243250096
 10
40.85772608192539
 20
35.513981184808024
 10
40.82086031675574
 20
35.273097235600055
 10
40.760923891297374
 20
35.04056827870021
 10
40.67914940995204
 20
34.817618197182505
 10
40.576769477121516
 20
34.60547087412094
 10
40.45501669720757
 20
34.4053501925895
 10
40.31512367461196
 20
34.21848003566222
 10
40.15832301373647
 20
34.046084286413084
 10
39.985847318982856
 20
33.88938682791611
 10
39.79892919475288
 20
33.749611543245294
 10
39.59880124544831
 20
33.62798231547463
 10
39.38669607547093
 20
33.52572302767814
 10
39.16384628922248
 20
33.44405756292982
 10
38.93148449110473
 20
33.384209804303694
 10
38.69084328551947
 20
33.34740363487374
 10
38.44315527686845
 20
33.334862937713986
 10
38.19546768679652
 20
33.34740363487374
 10
37.95482679188996
 20
33.384209804303694
 10
37.72246520771264
 20
33.44405756292982
 10
37.49961554982844
 20
33.52572302767814
 10
37.287510433801245
 20
33.62798231547463
 10
37.08738247519493
 20
33.749611543245294
 10
36.90046428957336
 20
33.88938682791611
 10
36.727988492500415
 20
34.046084286413084
 10
36.57118769953997
 20
34.21848003566222
 10
36.43129452625589
 20
34.4053501925895
 10
36.309541588212085
 20
34.60547087412094
 10
36.207161500972376
 20
34.817618197182505
 10
36.125386880100685
 20
35.04056827870021
 10
36.06545034116087
 20
35.273097235600055
 10
36.0285844997168
 20
35.513981184808024
 10
36.01602197133236
 20
35.761996243250096
 10
36.02974359150281
 20
36.0212155686472
 10
36.069978117521686
 20
36.27252775531127
 10
36.13533004765026
 20
36.51453735111296
 10
36.22440388014978
 20
36.74584890392289
 10
36.33580411328153
 20
36.96506696161172
 10
36.4681352453068
 20
37.170796072050095
 10
36.62000177448684
 20
37.36164078310865
 10
36.79000819908292
 20
37.53620564265803
 10
36.51462917607788
 20
37.457620891856884
 10
36.240994418625164
 20
37.36940792419128
 10
35.96954580733136
 20
37.27184581222772
 10
35.70072522280306
 20
37.1652136285327
 10
35.43497454564684
 20
37.04979044567271
 10
35.172735656469285
 20
36.92585533621428
 10
34.914450435877
 20
36.793687372723895
 10
34.66056076447658
 20
36.65356562776803
 10
34.4115085228746
 20
36.50576917391319
 10
34.167735591677626
 20
36.35057708372588
 10
33.929683851492285
 20
36.18826842977259
 10
33.69779518292515
 20
36.01912228461983
 10
33.472511466582795
 20
35.84341772083409
 10
33.25427458307183
 20
35.661433810981855
 10
33.04352641299883
 20
35.47344962762964
 10
32.84070883697041
 20
35.27974424334393
 10
32.936797719229716
 20
35.16701122298905
 10
33.21573070644866
 20
34.869805987508016
 10
33.4193885864997
 20
34.6712421448375
 10
33.6635073092887
 20
34.449619275276206
 10
33.946336813648344
 20
34.212623721121076
 10
34.26612703841131
 20
33.96794182466902
 10
34.621127922410295
 20
33.72325992821697
 10
35.009589404477985
 20
33.48626437406183
 10
35.215820975672806
 20
33.373050957313396
 10
35.429761423447054
 20
33.264641504500545
 10
35.651191990154814
 20
33.16199680841039
 10
35.87989391815018
 20
33.066077661830036
 10
36.11564844978723
 20
32.9778448575466
 10
36.35823682742007
 20
32.89825918834722
 10
36.60744029340275
 20
32.82828144701898
 10
36.86304009008939
 20
32.768872426349006
 10
37.12481745983407
 20
32.72099291912441
 10
37.39255364499085
 20
32.68560371813233
 10
37.66602988791384
 20
32.66366561615986
 10
37.94502743095712
 20
32.656139405994125
 10
38.39927920046095
 20
32.66431657205803
 10
38.83186441864098
 20
32.68788097934604
 10
39.242931343108246
 20
32.725381991502566
 10
39.632628231473745
 20
32.77536897217206
 10
40.00110334134848
 20
32.836391284998925
 10
40.34850493034347
 20
32.9069982936276
 10
40.67498125606972
 20
32.985739361702514
 10
40.980680576138234
 20
33.07116385286811
 10
41.26575114816003
 20
33.16182113076879
 10
41.53034122974613
 20
33.25626055904898
 10
41.774599078507514
 20
33.35303150135313
 10
41.99867295205521
 20
33.45068332132564
 10
42.3868618039536
 20
33.6428270488535
 10
42.69609384632935
 20
33.821086650788004
 10
42.82225731786941
 20
33.888127419570154
 10
42.9541188624533
 20
33.93879573598761
 10
43.090120249677206
 20
33.97290545575126
 10
43.22870324913729
 20
33.990270434572004
 10
43.368309630429735
 20
33.9907045281607
 10
43.5073811631507
 20
33.974021592228205
 10
43.64435961689639
 20
33.94003548248544
 10
43.77768676126296
 20
33.88856005464327
 10
44.2083378166525
 20
33.690102242912346
 10
44.26125653122165
 20
33.670851010726196
 10
44.313160592727606
 20
33.66167867175291
 10
44.36340753746667
 20
33.6617799616901
 10
44.41135490173514
 20
33.67034961623538
 10
44.45636022182931
 20
33.68658237108636
 10
44.4977810340455
 20
33.709672961940655
 10
44.56729928002911
 20
33.77320659444967
 10
44.61476993005638
 20
33.85450839934334
 10
44.628631247327135
 20
33.89980920567846
 10
44.635053274497686
 20
33.9471362622026
 10
44.63339354786438
 20
33.99568430461336
 10
44.623009603723474
 20
34.04464806860835
 10
44.60325897837128
 20
34.093222289885205
 10
44.57349920810412
 20
34.14060170414154
 10
44.47165551290749
 20
34.26865331006907
 10
44.35448519045887
 20
34.402193369596034
 10
44.22098824478426
 20
34.54038470471046
 10
44.070164679909716
 20
34.68239013740034
 10
43.90101449986129
 20
34.82737248965368
 10
43.71253770866502
 20
34.97449458345849
 10
43.50373431034692
 20
35.12291924080277
  0
ENDSEC
  0
SECTION
  2
OBJECTS
  0
DICTIONARY
  5
A
330
0
100
AcDbDictionary
281
1
  3
ACAD_COLOR
350
B
  3
ACAD_GROUP
350
C
  3
ACAD_LAYOUT
350
D
  3
ACAD_MATERIAL
350
E
  3
ACAD_MLEADERSTYLE
350
F
  3
ACAD_MLINESTYLE
350
10
  3
ACAD_PLOTSETTINGS
350
11
  3
ACAD_PLOTSTYLENAME
350
12
  3
ACAD_SCALELIST
350
14
  3
ACAD_TABLESTYLE
350
15
  3
ACAD_VISUALSTYLE
350
16
  3
EZDXF_META
350
2D
  0
DICTIONARY
  5
B
330
A
100
AcDbDictionary
281
1
  0
DICTIONARY
  5
C
330
A
100
AcDbDictionary
281
1
  0
DICTIONARY
  5
D
330
A
100
AcDbDictionary
281
1
  3
Model
350
1A
  3
Layout1
350
1E
  0
DICTIONARY
  5
E
330
A
100
AcDbDictionary
281
1
  3
ByBlock
350
1F
  3
ByLayer
350
20
  3
Global
350
21
  0
DICTIONARY
  5
F
330
A
100
AcDbDictionary
281
1
  3
Standard
350
2C
  0
DICTIONARY
  5
10
330
A
100
AcDbDictionary
281
1
  3
Standard
350
22
  0
DICTIONARY
  5
11
330
A
100
AcDbDictionary
281
1
  0
ACDBDICTIONARYWDFLT
  5
12
330
A
100
AcDbDictionary
281
1
  3
Normal
350
13
100
AcDbDictionaryWithDefault
340
13
  0
ACDBPLACEHOLDER
  5
13
330
12
  0
DICTIONARY
  5
14
330
A
100
AcDbDictionary
281
1
  0
DICTIONARY
  5
15
330
A
100
AcDbDictionary
281
1
  0
DICTIONARY
  5
16
330
A
100
AcDbDictionary
281
1
  3
2dWireframe
350
5A
  3
Basic
350
5B
  3
Brighten
350
5C
  3
ColorChange
350
5D
  3
Conceptual
350
5E
  3
Dim
350
5F
  3
EdgeColorOff
350
60
  3
Facepattern
350
61
  3
Flat
350
62
  3
FlatWithEdges
350
63
  3
Gouraud
350
64
  3
GouraudWithEdges
350
65
  3
Hidden
350
66
  3
JitterOff
350
67
  3
Linepattern
350
68
  3
Modeling
350
69
  3
OverhangOff
350
6A
  3
Realistic
350
6B
  3
Shaded
350
6C
  3
Shaded with edges
350
6D
  3
Shades of Gray
350
6E
  3
Sketchy
350
6F
  3
Thicken
350
70
  3
Wireframe
350
71
  3
X-Ray
350
72
  0
LAYOUT
  5
1A
330
D
100
AcDbPlotSettings
  1

  4
A3
  6

 40
7.5
 41
20.0
 42
7.5
 43
20.0
 44
420.0
 45
297.0
 46
0.0
 47
0.0
 48
0.0
 49
0.0
140
0.0
141
0.0
142
1.0
143
1.0
 70
1024
 72
1
 73
0
 74
5
  7

 75
16
 76
0
 77
2
 78
300
147
1.0
148
0.0
149
0.0
100
AcDbLayout
  1
Model
 70
1
 71
0
 10
0.0
 20
0.0
 11
420.0
 21
297.0
 12
0.0
 22
0.0
 32
0.0
 14
1e+20
 24
1e+20
 34
1e+20
 15
-1e+20
 25
-1e+20
 35
-1e+20
146
0.0
 13
0.0
 23
0.0
 33
0.0
 16
1.0
 26
0.0
 36
0.0
 17
0.0
 27
1.0
 37
0.0
 76
1
330
17
  0
LAYOUT
  5
1E
330
D
100
AcDbPlotSettings
  1

  4
A3
  6

 40
7.5
 41
20.0
 42
7.5
 43
20.0
 44
420.0
 45
297.0
 46
0.0
 47
0.0
 48
0.0
 49
0.0
140
0.0
141
0.0
142
1.0
143
1.0
 70
0
 72
1
 73
0
 74
5
  7

 75
16
 76
0
 77
2
 78
300
147
1.0
148
0.0
149
0.0
100
AcDbLayout
  1
Layout1
 70
1
 71
1
 10
0.0
 20
0.0
 11
420.0
 21
297.0
 12
0.0
 22
0.0
 32
0.0
 14
1e+20
 24
1e+20
 34
1e+20
 15
-1e+20
 25
-1e+20
 35
-1e+20
146
0.0
 13
0.0
 23
0.0
 33
0.0
 16
1.0
 26
0.0
 36
0.0
 17
0.0
 27
1.0
 37
0.0
 76
1
330
1B
  0
MATERIAL
  5
1F
102
{ACAD_REACTORS
330
E
102
}
330
E
100
AcDbMaterial
  1
ByBlock
  2

 70
0
 40
1.0
 71
1
 41
1.0
 91
-1023410177
 42
1.0
 72
1
  3

 73
1
 74
1
 75
1
 44
0.5
 73
0
 45
1.0
 46
1.0
 77
1
  4

 78
1
 79
1
170
1
 48
1.0
171
1
  6

172
1
173
1
174
1
140
1.0
141
1.0
175
1
  7

176
1
177
1
178
1
143
1.0
179
1
  8

270
1
271
1
272
1
145
1.0
146
1.0
273
1
  9

274
1
275
1
276
1
 42
1.0
 72
1
  3

 73
1
 74
1
 75
1
 94
63
  0
MATERIAL
  5
20
102
{ACAD_REACTORS
330
E
102
}
330
E
100
AcDbMaterial
  1
ByLayer
  2

 70
0
 40
1.0
 71
1
 41
1.0
 91
-1023410177
 42
1.0
 72
1
  3

 73
1
 74
1
 75
1
 44
0.5
 73
0
 45
1.0
 46
1.0
 77
1
  4

 78
1
 79
1
170
1
 48
1.0
171
1
  6

172
1
173
1
174
1
140
1.0
141
1.0
175
1
  7

176
1
177
1
178
1
143
1.0
179
1
  8

270
1
271
1
272
1
145
1.0
146
1.0
273
1
  9

274
1
275
1
276
1
 42
1.0
 72
1
  3

 73
1
 74
1
 75
1
 94
63
  0
MATERIAL
  5
21
102
{ACAD_REACTORS
330
E
102
}
330
E
100
AcDbMaterial
  1
Global
  2

 70
0
 40
1.0
 71
1
 41
1.0
 91
-1023410177
 42
1.0
 72
1
  3

 73
1
 74
1
 75
1
 44
0.5
 73
0
 45
1.0
 46
1.0
 77
1
  4

 78
1
 79
1
170
1
 48
1.0
171
1
  6

172
1
173
1
174
1
140
1.0
141
1.0
175
1
  7

176
1
177
1
178
1
143
1.0
179
1
  8

270
1
271
1
272
1
145
1.0
146
1.0
273
1
  9

274
1
275
1
276
1
 42
1.0
 72
1
  3

 73
1
 74
1
 75
1
 94
63
  0
MLINESTYLE
  5
22
102
{ACAD_REACTORS
330
10
102
}
330
10
100
AcDbMlineStyle
  2
Standard
 70
0
  3

 62
256
 51
90.0
 52
90.0
 71
2
 49
0.5
 62
256
  6
BYLAYER
 49
-0.5
 62
256
  6
BYLAYER
  0
MLEADERSTYLE
  5
2C
102
{ACAD_REACTORS
330
F
102
}
330
F
100
AcDbMLeaderStyle
179
2
170
2
171
1
172
0
 90
2
 40
0.0
 41
0.0
173
1
 91
-1056964608
 92
-2
290
1
 42
2.0
291
1
 43
8.0
  3
Standard
 44
4.0
300

342
29
174
1
175
1
176
0
178
1
 93
-1056964608
 45
4.0
292
0
297
0
 46
4.0
 94
-1056964608
 47
1.0
 49
1.0
140
1.0
294
1
141
0.0
177
0
142
1.0
295
0
296
0
143
3.75
271
0
272
9
273
9
  0
DICTIONARY
  5
2D
330
A
100
AcDbDictionary
280
1
281
1
  3
CREATED_BY_EZDXF
350
2E
  3
WRITTEN_BY_EZDXF
350
97
  0
DICTIONARYVAR
  5
2E
330
2D
100
DictionaryVariables
280
0
  1
1.4.4 @ 2026-09-08T15:37:42.129947+00:00
  0
VISUALSTYLE
  5
5A
102
{ACAD_REACTORS
330
16
102
}
330
16
100
AcDbVisualStyle
  2
2dWireframe
 70
4
 90
0
 40
0.6
 62
7
290
0
291
0
  0
VISUALSTYLE
  5
5B
102
{ACAD_REACTORS
330
16
102
}
330
16
100
AcDbVisualStyle
  2
Basic
 70
7
 90
1
 40
0.6
 62
7
290
0
291
1
  0
VISUALSTYLE
  5
5C
102
{ACAD_REACTORS
330
16
102
}
330
16
100
AcDbVisualStyle
  2
Brighten
 70
12
 90
2
 40
0.6
 62
7
290
0
291
1
  0
VISUALSTYLE
  5
5D
102
{ACAD_REACTORS
330
16
102
}
330
16
100
AcDbVisualStyle
  2
ColorChange
 70
16
 90
2
 40
0.6
 62
8
290
0
291
1
  0
VISUALSTYLE
  5
5E
102
{ACAD_REACTORS
330
16
102
}
330
16
100
AcDbVisualStyle
  2
Conceptual
 70
9
 90
3
 40
0.6
 62
7
290
0
291
0
  0
VISUALSTYLE
  5
5F
102
{ACAD_REACTORS
330
16
102
}
330
16
100
AcDbVisualStyle
  2
Dim
 70
11
 90
2
 40
0.6
 62
7
290
0
291
1
  0
VISUALSTYLE
  5
60
102
{ACAD_REACTORS
330
16
102
}
330
16
100
AcDbVisualStyle
  2
EdgeColorOff
 70
22
 90
2
 40
0.6
 62
7
290
0
291
1
  0
VISUALSTYLE
  5
61
102
{ACAD_REACTORS
330
16
102
}
330
16
100
AcDbVisualStyle
  2
Facepattern
 70
15
 90
2
 40
0.6
 62
7
290
0
291
1
  0
VISUALSTYLE
  5
62
102
{ACAD_REACTORS
330
16
102
}
330
16
100
AcDbVisualStyle
  2
Flat
 70
0
 90
2
 40
0.6
 62
7
290
0
291
1
  0
VISUALSTYLE
  5
63
102
{ACAD_REACTORS
330
16
102
}
330
16
100
AcDbVisualStyle
  2
FlatWithEdges
 70
1
 90
2
 40
0.6
 62
7
290
0
291
1
  0
VISUALSTYLE
  5
64
102
{ACAD_REACTORS
330
16
102
}
330
16
100
AcDbVisualStyle
  2
Gouraud
 70
2
 90
2
 40
0.6
 62
7
290
0
291
1
  0
VISUALSTYLE
  5
65
102
{ACAD_REACTORS
330
16
102
}
330
16
100
AcDbVisualStyle
  2
GouraudWithEdges
 70
3
 90
2
 40
0.6
 62
7
290
0
291
1
  0
VISUALSTYLE
  5
66
102
{ACAD_REACTORS
330
16
102
}
330
16
100
AcDbVisualStyle
  2
Hidden
 70
6
 90
1
 40
0.6
 62
7
290
0
291
0
  0
VISUALSTYLE
  5
67
102
{ACAD_REACTORS
330
16
102
}
330
16
100
AcDbVisualStyle
  2
JitterOff
 70
20
 90
2
 40
0.6
 62
7
290
0
291
1
  0
VISUALSTYLE
  5
68
102
{ACAD_REACTORS
330
16
102
}
330
16
100
AcDbVisualStyle
  2
Linepattern
 70
14
 90
2
 40
0.6
 62
7
290
0
291
1
  0
VISUALSTYLE
  5
69
102
{ACAD_REACTORS
330
16
102
}
330
16
100
AcDbVisualStyle
  2
Modeling
 70
10
 90
2
 40
0.6
 62
7
290
0
291
0
  0
VISUALSTYLE
  5
6A
102
{ACAD_REACTORS
330
16
102
}
330
16
100
AcDbVisualStyle
  2
OverhangOff
 70
21
 90
2
 40
0.6
 62
7
290
0
291
1
  0
VISUALSTYLE
  5
6B
102
{ACAD_REACTORS
330
16
102
}
330
16
100
AcDbVisualStyle
  2
Realistic
 70
8
 90
2
 40
0.6
 62
7
290
0
291
0
  0
VISUALSTYLE
  5
6C
102
{ACAD_REACTORS
330
16
102
}
330
16
100
AcDbVisualStyle
  2
Shaded
 70
27
 90
2
 40
0.6
 62
7
290
0
291
0
  0
VISUALSTYLE
  5
6D
102
{ACAD_REACTORS
330
16
102
}
330
16
100
AcDbVisualStyle
  2
Shaded with edges
 70
26
 90
2
 40
0.6
 62
7
290
0
291
0
  0
VISUALSTYLE
  5
6E
102
{ACAD_REACTORS
330
16
102
}
330
16
100
AcDbVisualStyle
  2
Shades of Gray
 70
23
 90
2
 40
0.6
 62
7
290
0
291
0
  0
VISUALSTYLE
  5
6F
102
{ACAD_REACTORS
330
16
102
}
330
16
100
AcDbVisualStyle
  2
Sketchy
 70
24
 90
1
 40
0.6
 62
7
290
0
291
0
  0
VISUALSTYLE
  5
70
102
{ACAD_REACTORS
330
16
102
}
330
16
100
AcDbVisualStyle
  2
Thicken
 70
13
 90
2
 40
0.6
 62
7
290
0
291
1
  0
VISUALSTYLE
  5
71
102
{ACAD_REACTORS
330
16
102
}
330
16
100
AcDbVisualStyle
  2
Wireframe
 70
5
 90
0
 40
0.6
 62
7
290
0
291
0
  0
VISUALSTYLE
  5
72
102
{ACAD_REACTORS
330
16
102
}
330
16
100
AcDbVisualStyle
  2
X-Ray
 70
25
 90
2
 40
0.5
 62
7
290
0
291
0
  0
DICTIONARYVAR
  5
97
330
2D
100
DictionaryVariables
280
0
  1
1.4.4 @ 2026-09-08T15:37:42.156955+00:00
  0
ENDSEC
  0
EOF
